<?xml version="1.0" encoding="utf-8" standalone="no"?>
<!DOCTYPE svg PUBLIC "-//W3C//DTD SVG 1.1//EN"
  "http://www.w3.org/Graphics/SVG/1.1/DTD/svg11.dtd">
<svg xmlns:xlink="http://www.w3.org/1999/xlink" width="839.52pt" height="407.52pt" viewBox="0 0 839.52 407.52" xmlns="http://www.w3.org/2000/svg" version="1.1">
 <metadata>
  <rdf:RDF xmlns:dc="http://purl.org/dc/elements/1.1/" xmlns:cc="http://creativecommons.org/ns#" xmlns:rdf="http://www.w3.org/1999/02/22-rdf-syntax-ns#">
   <cc:Work>
    <dc:type rdf:resource="http://purl.org/dc/dcmitype/StillImage"/>
    <dc:date>2024-10-08T09:43:35.331801</dc:date>
    <dc:format>image/svg+xml</dc:format>
    <dc:creator>
     <cc:Agent>
      <dc:title>Matplotlib v3.9.0, https://matplotlib.org/</dc:title>
     </cc:Agent>
    </dc:creator>
   </cc:Work>
  </rdf:RDF>
 </metadata>
 <defs>
  <style type="text/css">*{stroke-linejoin: round; stroke-linecap: butt}</style>
 </defs>
 <g id="figure_1">
  <g id="patch_1">
   <path d="M 0 407.52 
L 839.52 407.52 
L 839.52 0 
L 0 0 
z
" style="fill: #ffffff"/>
  </g>
  <g id="axes_1">
   <g id="patch_2">
    <path d="M 65.084887 348.209571 
L 832.32 348.209571 
L 832.32 7.2 
L 65.084887 7.2 
z
" style="fill: #ffffff"/>
   </g>
   <g id="patch_3">
    <path d="M 99.95921 348.209571 
L 108.772216 348.209571 
L 108.772216 348.209571 
L 99.95921 348.209571 
z
" clip-path="url(#pa931c6c041)" style="fill: #fe9f6d; opacity: 0.7"/>
   </g>
   <g id="patch_4">
    <path d="M 125.139227 348.209571 
L 133.952233 348.209571 
L 133.952233 261.236631 
L 125.139227 261.236631 
z
" clip-path="url(#pa931c6c041)" style="fill: #fe9f6d; opacity: 0.7"/>
   </g>
   <g id="patch_5">
    <path d="M 150.319244 348.209571 
L 159.13225 348.209571 
L 159.13225 216.774625 
L 150.319244 216.774625 
z
" clip-path="url(#pa931c6c041)" style="fill: #fe9f6d; opacity: 0.7"/>
   </g>
   <g id="patch_6">
    <path d="M 175.499261 348.209571 
L 184.312266 348.209571 
L 184.312266 216.774625 
L 175.499261 216.774625 
z
" clip-path="url(#pa931c6c041)" style="fill: #fe9f6d; opacity: 0.7"/>
   </g>
   <g id="patch_7">
    <path d="M 200.679277 348.209571 
L 209.492283 348.209571 
L 209.492283 296.950571 
L 200.679277 296.950571 
z
" clip-path="url(#pa931c6c041)" style="fill: #fe9f6d; opacity: 0.7"/>
   </g>
   <g id="patch_8">
    <path d="M 225.859294 348.209571 
L 234.6723 348.209571 
L 234.6723 153.805138 
L 225.859294 153.805138 
z
" clip-path="url(#pa931c6c041)" style="fill: #fe9f6d; opacity: 0.7"/>
   </g>
   <g id="patch_9">
    <path d="M 251.039311 348.209571 
L 259.852317 348.209571 
L 259.852317 201.757238 
L 251.039311 201.757238 
z
" clip-path="url(#pa931c6c041)" style="fill: #fe9f6d; opacity: 0.7"/>
   </g>
   <g id="patch_10">
    <path d="M 276.219328 348.209571 
L 285.032334 348.209571 
L 285.032334 251.304322 
L 276.219328 251.304322 
z
" clip-path="url(#pa931c6c041)" style="fill: #fe9f6d; opacity: 0.7"/>
   </g>
   <g id="patch_11">
    <path d="M 301.399345 348.209571 
L 310.212351 348.209571 
L 310.212351 206.227387 
L 301.399345 206.227387 
z
" clip-path="url(#pa931c6c041)" style="fill: #fe9f6d; opacity: 0.7"/>
   </g>
   <g id="patch_12">
    <path d="M 326.579362 348.209571 
L 335.392367 348.209571 
L 335.392367 191.188527 
L 326.579362 191.188527 
z
" clip-path="url(#pa931c6c041)" style="fill: #fe9f6d; opacity: 0.7"/>
   </g>
   <g id="patch_13">
    <path d="M 351.759378 348.209571 
L 360.572384 348.209571 
L 360.572384 198.78821 
L 351.759378 198.78821 
z
" clip-path="url(#pa931c6c041)" style="fill: #fe9f6d; opacity: 0.7"/>
   </g>
   <g id="patch_14">
    <path d="M 376.939395 348.209571 
L 385.752401 348.209571 
L 385.752401 166.746678 
L 376.939395 166.746678 
z
" clip-path="url(#pa931c6c041)" style="fill: #fe9f6d; opacity: 0.7"/>
   </g>
   <g id="patch_15">
    <path d="M 402.119412 348.209571 
L 410.932418 348.209571 
L 410.932418 198.143056 
L 402.119412 198.143056 
z
" clip-path="url(#pa931c6c041)" style="fill: #fe9f6d; opacity: 0.7"/>
   </g>
   <g id="patch_16">
    <path d="M 427.299429 348.209571 
L 436.112435 348.209571 
L 436.112435 203.400218 
L 427.299429 203.400218 
z
" clip-path="url(#pa931c6c041)" style="fill: #fe9f6d; opacity: 0.7"/>
   </g>
   <g id="patch_17">
    <path d="M 452.479446 348.209571 
L 461.292452 348.209571 
L 461.292452 221.224933 
L 452.479446 221.224933 
z
" clip-path="url(#pa931c6c041)" style="fill: #fe9f6d; opacity: 0.7"/>
   </g>
   <g id="patch_18">
    <path d="M 477.659463 348.209571 
L 486.472469 348.209571 
L 486.472469 193.169333 
L 477.659463 193.169333 
z
" clip-path="url(#pa931c6c041)" style="fill: #fe9f6d; opacity: 0.7"/>
   </g>
   <g id="patch_19">
    <path d="M 502.83948 348.209571 
L 511.652485 348.209571 
L 511.652485 219.054255 
L 502.83948 219.054255 
z
" clip-path="url(#pa931c6c041)" style="fill: #fe9f6d; opacity: 0.7"/>
   </g>
   <g id="patch_20">
    <path d="M 528.019496 348.209571 
L 536.832502 348.209571 
L 536.832502 165.694421 
L 528.019496 165.694421 
z
" clip-path="url(#pa931c6c041)" style="fill: #fe9f6d; opacity: 0.7"/>
   </g>
   <g id="patch_21">
    <path d="M 553.199513 348.209571 
L 562.012519 348.209571 
L 562.012519 185.750144 
L 553.199513 185.750144 
z
" clip-path="url(#pa931c6c041)" style="fill: #fe9f6d; opacity: 0.7"/>
   </g>
   <g id="patch_22">
    <path d="M 578.37953 348.209571 
L 587.192536 348.209571 
L 587.192536 291.616906 
L 578.37953 291.616906 
z
" clip-path="url(#pa931c6c041)" style="fill: #fe9f6d; opacity: 0.7"/>
   </g>
   <g id="patch_23">
    <path d="M 603.559547 348.209571 
L 612.372553 348.209571 
L 612.372553 198.490962 
L 603.559547 198.490962 
z
" clip-path="url(#pa931c6c041)" style="fill: #fe9f6d; opacity: 0.7"/>
   </g>
   <g id="patch_24">
    <path d="M 628.739564 348.209571 
L 637.55257 348.209571 
L 637.55257 131.404969 
L 628.739564 131.404969 
z
" clip-path="url(#pa931c6c041)" style="fill: #fe9f6d; opacity: 0.7"/>
   </g>
   <g id="patch_25">
    <path d="M 653.919581 348.209571 
L 662.732587 348.209571 
L 662.732587 51.679509 
L 653.919581 51.679509 
z
" clip-path="url(#pa931c6c041)" style="fill: #fe9f6d; opacity: 0.7"/>
   </g>
   <g id="patch_26">
    <path d="M 679.099597 348.209571 
L 687.912603 348.209571 
L 687.912603 166.266239 
L 679.099597 166.266239 
z
" clip-path="url(#pa931c6c041)" style="fill: #fe9f6d; opacity: 0.7"/>
   </g>
   <g id="patch_27">
    <path d="M 704.279614 348.209571 
L 713.09262 348.209571 
L 713.09262 221.281314 
L 704.279614 221.281314 
z
" clip-path="url(#pa931c6c041)" style="fill: #fe9f6d; opacity: 0.7"/>
   </g>
   <g id="patch_28">
    <path d="M 729.459631 348.209571 
L 738.272637 348.209571 
L 738.272637 279.55414 
L 729.459631 279.55414 
z
" clip-path="url(#pa931c6c041)" style="fill: #fe9f6d; opacity: 0.7"/>
   </g>
   <g id="patch_29">
    <path d="M 754.639648 348.209571 
L 763.452654 348.209571 
L 763.452654 219.094268 
L 754.639648 219.094268 
z
" clip-path="url(#pa931c6c041)" style="fill: #fe9f6d; opacity: 0.7"/>
   </g>
   <g id="patch_30">
    <path d="M 779.819665 348.209571 
L 788.632671 348.209571 
L 788.632671 178.683005 
L 779.819665 178.683005 
z
" clip-path="url(#pa931c6c041)" style="fill: #fe9f6d; opacity: 0.7"/>
   </g>
   <g id="patch_31">
    <path d="M 108.772216 348.209571 
L 117.585222 348.209571 
L 117.585222 348.209571 
L 108.772216 348.209571 
z
" clip-path="url(#pa931c6c041)" style="fill: #3b0f70; opacity: 0.7"/>
   </g>
   <g id="patch_32">
    <path d="M 133.952233 348.209571 
L 142.765239 348.209571 
L 142.765239 261.858359 
L 133.952233 261.858359 
z
" clip-path="url(#pa931c6c041)" style="fill: #3b0f70; opacity: 0.7"/>
   </g>
   <g id="patch_33">
    <path d="M 159.13225 348.209571 
L 167.945255 348.209571 
L 167.945255 241.477606 
L 159.13225 241.477606 
z
" clip-path="url(#pa931c6c041)" style="fill: #3b0f70; opacity: 0.7"/>
   </g>
   <g id="patch_34">
    <path d="M 184.312266 348.209571 
L 193.125272 348.209571 
L 193.125272 255.494819 
L 184.312266 255.494819 
z
" clip-path="url(#pa931c6c041)" style="fill: #3b0f70; opacity: 0.7"/>
   </g>
   <g id="patch_35">
    <path d="M 209.492283 348.209571 
L 218.305289 348.209571 
L 218.305289 345.883845 
L 209.492283 345.883845 
z
" clip-path="url(#pa931c6c041)" style="fill: #3b0f70; opacity: 0.7"/>
   </g>
   <g id="patch_36">
    <path d="M 234.6723 348.209571 
L 243.485306 348.209571 
L 243.485306 136.699798 
L 234.6723 136.699798 
z
" clip-path="url(#pa931c6c041)" style="fill: #3b0f70; opacity: 0.7"/>
   </g>
   <g id="patch_37">
    <path d="M 259.852317 348.209571 
L 268.665323 348.209571 
L 268.665323 161.467456 
L 259.852317 161.467456 
z
" clip-path="url(#pa931c6c041)" style="fill: #3b0f70; opacity: 0.7"/>
   </g>
   <g id="patch_38">
    <path d="M 285.032334 348.209571 
L 293.84534 348.209571 
L 293.84534 272.623477 
L 285.032334 272.623477 
z
" clip-path="url(#pa931c6c041)" style="fill: #3b0f70; opacity: 0.7"/>
   </g>
   <g id="patch_39">
    <path d="M 310.212351 348.209571 
L 319.025357 348.209571 
L 319.025357 228.581453 
L 310.212351 228.581453 
z
" clip-path="url(#pa931c6c041)" style="fill: #3b0f70; opacity: 0.7"/>
   </g>
   <g id="patch_40">
    <path d="M 335.392367 348.209571 
L 344.205373 348.209571 
L 344.205373 184.625835 
L 335.392367 184.625835 
z
" clip-path="url(#pa931c6c041)" style="fill: #3b0f70; opacity: 0.7"/>
   </g>
   <g id="patch_41">
    <path d="M 360.572384 348.209571 
L 369.38539 348.209571 
L 369.38539 233.125333 
L 360.572384 233.125333 
z
" clip-path="url(#pa931c6c041)" style="fill: #3b0f70; opacity: 0.7"/>
   </g>
   <g id="patch_42">
    <path d="M 385.752401 348.209571 
L 394.565407 348.209571 
L 394.565407 195.724473 
L 385.752401 195.724473 
z
" clip-path="url(#pa931c6c041)" style="fill: #3b0f70; opacity: 0.7"/>
   </g>
   <g id="patch_43">
    <path d="M 410.932418 348.209571 
L 419.745424 348.209571 
L 419.745424 211.525512 
L 410.932418 211.525512 
z
" clip-path="url(#pa931c6c041)" style="fill: #3b0f70; opacity: 0.7"/>
   </g>
   <g id="patch_44">
    <path d="M 436.112435 348.209571 
L 444.925441 348.209571 
L 444.925441 222.883658 
L 436.112435 222.883658 
z
" clip-path="url(#pa931c6c041)" style="fill: #3b0f70; opacity: 0.7"/>
   </g>
   <g id="patch_45">
    <path d="M 461.292452 348.209571 
L 470.105458 348.209571 
L 470.105458 259.52964 
L 461.292452 259.52964 
z
" clip-path="url(#pa931c6c041)" style="fill: #3b0f70; opacity: 0.7"/>
   </g>
   <g id="patch_46">
    <path d="M 486.472469 348.209571 
L 495.285474 348.209571 
L 495.285474 243.184682 
L 486.472469 243.184682 
z
" clip-path="url(#pa931c6c041)" style="fill: #3b0f70; opacity: 0.7"/>
   </g>
   <g id="patch_47">
    <path d="M 511.652485 348.209571 
L 520.465491 348.209571 
L 520.465491 252.622234 
L 511.652485 252.622234 
z
" clip-path="url(#pa931c6c041)" style="fill: #3b0f70; opacity: 0.7"/>
   </g>
   <g id="patch_48">
    <path d="M 536.832502 348.209571 
L 545.645508 348.209571 
L 545.645508 216.425678 
L 536.832502 216.425678 
z
" clip-path="url(#pa931c6c041)" style="fill: #3b0f70; opacity: 0.7"/>
   </g>
   <g id="patch_49">
    <path d="M 562.012519 348.209571 
L 570.825525 348.209571 
L 570.825525 242.335697 
L 562.012519 242.335697 
z
" clip-path="url(#pa931c6c041)" style="fill: #3b0f70; opacity: 0.7"/>
   </g>
   <g id="patch_50">
    <path d="M 587.192536 348.209571 
L 596.005542 348.209571 
L 596.005542 315.304856 
L 587.192536 315.304856 
z
" clip-path="url(#pa931c6c041)" style="fill: #3b0f70; opacity: 0.7"/>
   </g>
   <g id="patch_51">
    <path d="M 612.372553 348.209571 
L 621.185559 348.209571 
L 621.185559 235.266504 
L 612.372553 235.266504 
z
" clip-path="url(#pa931c6c041)" style="fill: #3b0f70; opacity: 0.7"/>
   </g>
   <g id="patch_52">
    <path d="M 637.55257 348.209571 
L 646.365576 348.209571 
L 646.365576 214.04292 
L 637.55257 214.04292 
z
" clip-path="url(#pa931c6c041)" style="fill: #3b0f70; opacity: 0.7"/>
   </g>
   <g id="patch_53">
    <path d="M 662.732587 348.209571 
L 671.545592 348.209571 
L 671.545592 63.800878 
L 662.732587 63.800878 
z
" clip-path="url(#pa931c6c041)" style="fill: #3b0f70; opacity: 0.7"/>
   </g>
   <g id="patch_54">
    <path d="M 687.912603 348.209571 
L 696.725609 348.209571 
L 696.725609 126.482907 
L 687.912603 126.482907 
z
" clip-path="url(#pa931c6c041)" style="fill: #3b0f70; opacity: 0.7"/>
   </g>
   <g id="patch_55">
    <path d="M 713.09262 348.209571 
L 721.905626 348.209571 
L 721.905626 252.431947 
L 713.09262 252.431947 
z
" clip-path="url(#pa931c6c041)" style="fill: #3b0f70; opacity: 0.7"/>
   </g>
   <g id="patch_56">
    <path d="M 738.272637 348.209571 
L 747.085643 348.209571 
L 747.085643 281.717066 
L 738.272637 281.717066 
z
" clip-path="url(#pa931c6c041)" style="fill: #3b0f70; opacity: 0.7"/>
   </g>
   <g id="patch_57">
    <path d="M 763.452654 348.209571 
L 772.26566 348.209571 
L 772.26566 303.19552 
L 763.452654 303.19552 
z
" clip-path="url(#pa931c6c041)" style="fill: #3b0f70; opacity: 0.7"/>
   </g>
   <g id="patch_58">
    <path d="M 788.632671 348.209571 
L 797.445677 348.209571 
L 797.445677 293.58644 
L 788.632671 293.58644 
z
" clip-path="url(#pa931c6c041)" style="fill: #3b0f70; opacity: 0.7"/>
   </g>
   <g id="matplotlib.axis_1">
    <g id="xtick_1">
     <g id="line2d_1">
      <defs>
       <path id="m1270837d94" d="M 0 0 
L 0 3.5 
" style="stroke: #000000; stroke-width: 0.8"/>
      </defs>
      <g>
       <use xlink:href="#m1270837d94" x="108.772216" y="348.209571" style="stroke: #000000; stroke-width: 0.8"/>
      </g>
     </g>
     <g id="text_1">
      <!-- $\mathdefault{1}$ -->
      <g transform="translate(104.870222 366.279159) scale(0.16 -0.16)">
       <defs>
        <path id="CMR17-31" d="M 1702 4058 
C 1702 4192 1696 4192 1606 4192 
C 1357 3916 979 3827 621 3827 
C 602 3827 570 3827 563 3808 
C 557 3795 557 3782 557 3648 
C 755 3648 1088 3686 1344 3839 
L 1344 461 
C 1344 236 1331 160 781 160 
L 589 160 
L 589 0 
C 896 0 1216 0 1523 0 
C 1830 0 2150 0 2458 0 
L 2458 160 
L 2266 160 
C 1715 160 1702 230 1702 458 
L 1702 4058 
z
" transform="scale(0.015625)"/>
       </defs>
       <use xlink:href="#CMR17-31" transform="scale(0.996264)"/>
      </g>
     </g>
    </g>
    <g id="xtick_2">
     <g id="line2d_2">
      <g>
       <use xlink:href="#m1270837d94" x="133.952233" y="348.209571" style="stroke: #000000; stroke-width: 0.8"/>
      </g>
     </g>
     <g id="text_2">
      <!-- $\mathdefault{2}$ -->
      <g transform="translate(130.050239 366.279159) scale(0.16 -0.16)">
       <defs>
        <path id="CMR17-32" d="M 2669 989 
L 2554 989 
C 2490 536 2438 459 2413 420 
C 2381 369 1920 369 1830 369 
L 602 369 
C 832 619 1280 1072 1824 1597 
C 2214 1967 2669 2402 2669 3035 
C 2669 3790 2067 4224 1395 4224 
C 691 4224 262 3604 262 3030 
C 262 2780 448 2748 525 2748 
C 589 2748 781 2787 781 3010 
C 781 3207 614 3264 525 3264 
C 486 3264 448 3258 422 3245 
C 544 3790 915 4058 1306 4058 
C 1862 4058 2227 3617 2227 3035 
C 2227 2479 1901 2000 1536 1584 
L 262 146 
L 262 0 
L 2515 0 
L 2669 989 
z
" transform="scale(0.015625)"/>
       </defs>
       <use xlink:href="#CMR17-32" transform="scale(0.996264)"/>
      </g>
     </g>
    </g>
    <g id="xtick_3">
     <g id="line2d_3">
      <g>
       <use xlink:href="#m1270837d94" x="159.13225" y="348.209571" style="stroke: #000000; stroke-width: 0.8"/>
      </g>
     </g>
     <g id="text_3">
      <!-- $\mathdefault{3}$ -->
      <g transform="translate(155.230256 366.279159) scale(0.16 -0.16)">
       <defs>
        <path id="CMR17-33" d="M 1414 2157 
C 1984 2157 2234 1662 2234 1090 
C 2234 320 1824 25 1453 25 
C 1114 25 563 194 390 693 
C 422 680 454 680 486 680 
C 640 680 755 782 755 948 
C 755 1133 614 1216 486 1216 
C 378 1216 211 1165 211 926 
C 211 335 787 -128 1466 -128 
C 2176 -128 2720 430 2720 1085 
C 2720 1707 2208 2157 1600 2227 
C 2086 2328 2554 2756 2554 3329 
C 2554 3820 2048 4179 1472 4179 
C 890 4179 378 3829 378 3329 
C 378 3110 544 3072 627 3072 
C 762 3072 877 3155 877 3321 
C 877 3486 762 3569 627 3569 
C 602 3569 570 3569 544 3557 
C 730 3959 1235 4032 1459 4032 
C 1683 4032 2106 3925 2106 3320 
C 2106 3143 2080 2828 1862 2550 
C 1670 2304 1453 2304 1242 2284 
C 1210 2284 1062 2269 1037 2269 
C 992 2263 966 2257 966 2208 
C 966 2163 973 2157 1101 2157 
L 1414 2157 
z
" transform="scale(0.015625)"/>
       </defs>
       <use xlink:href="#CMR17-33" transform="scale(0.996264)"/>
      </g>
     </g>
    </g>
    <g id="xtick_4">
     <g id="line2d_4">
      <g>
       <use xlink:href="#m1270837d94" x="184.312266" y="348.209571" style="stroke: #000000; stroke-width: 0.8"/>
      </g>
     </g>
     <g id="text_4">
      <!-- $\mathdefault{4}$ -->
      <g transform="translate(180.410273 366.279159) scale(0.16 -0.16)">
       <defs>
        <path id="CMR17-34" d="M 2150 4122 
C 2150 4256 2144 4256 2029 4256 
L 128 1254 
L 128 1088 
L 1779 1088 
L 1779 457 
C 1779 224 1766 160 1318 160 
L 1197 160 
L 1197 0 
C 1402 0 1747 0 1965 0 
C 2182 0 2528 0 2733 0 
L 2733 160 
L 2611 160 
C 2163 160 2150 224 2150 457 
L 2150 1088 
L 2803 1088 
L 2803 1254 
L 2150 1254 
L 2150 4122 
z
M 1798 3703 
L 1798 1254 
L 256 1254 
L 1798 3703 
z
" transform="scale(0.015625)"/>
       </defs>
       <use xlink:href="#CMR17-34" transform="scale(0.996264)"/>
      </g>
     </g>
    </g>
    <g id="xtick_5">
     <g id="line2d_5">
      <g>
       <use xlink:href="#m1270837d94" x="209.492283" y="348.209571" style="stroke: #000000; stroke-width: 0.8"/>
      </g>
     </g>
     <g id="text_5">
      <!-- $\mathdefault{5}$ -->
      <g transform="translate(205.59029 366.279159) scale(0.16 -0.16)">
       <defs>
        <path id="CMR17-35" d="M 730 3692 
C 794 3666 1056 3584 1325 3584 
C 1920 3584 2246 3911 2432 4100 
C 2432 4157 2432 4192 2394 4192 
C 2387 4192 2374 4192 2323 4163 
C 2099 4058 1837 3973 1517 3973 
C 1325 3973 1037 3999 723 4139 
C 653 4171 640 4171 634 4171 
C 602 4171 595 4164 595 4037 
L 595 2203 
C 595 2089 595 2057 659 2057 
C 691 2057 704 2070 736 2114 
C 941 2401 1222 2522 1542 2522 
C 1766 2522 2246 2382 2246 1289 
C 2246 1085 2246 715 2054 421 
C 1894 159 1645 25 1370 25 
C 947 25 518 320 403 814 
C 429 807 480 795 506 795 
C 589 795 749 840 749 1038 
C 749 1210 627 1280 506 1280 
C 358 1280 262 1190 262 1011 
C 262 454 704 -128 1382 -128 
C 2042 -128 2669 440 2669 1264 
C 2669 2030 2170 2624 1549 2624 
C 1222 2624 947 2503 730 2274 
L 730 3692 
z
" transform="scale(0.015625)"/>
       </defs>
       <use xlink:href="#CMR17-35" transform="scale(0.996264)"/>
      </g>
     </g>
    </g>
    <g id="xtick_6">
     <g id="line2d_6">
      <g>
       <use xlink:href="#m1270837d94" x="234.6723" y="348.209571" style="stroke: #000000; stroke-width: 0.8"/>
      </g>
     </g>
     <g id="text_6">
      <!-- $\mathdefault{6}$ -->
      <g transform="translate(230.770307 366.279159) scale(0.16 -0.16)">
       <defs>
        <path id="CMR17-36" d="M 678 2176 
C 678 3690 1395 4032 1811 4032 
C 1946 4032 2272 4009 2400 3776 
C 2298 3776 2106 3776 2106 3553 
C 2106 3381 2246 3323 2336 3323 
C 2394 3323 2566 3348 2566 3560 
C 2566 3954 2246 4179 1805 4179 
C 1043 4179 243 3390 243 1984 
C 243 253 966 -128 1478 -128 
C 2099 -128 2688 427 2688 1283 
C 2688 2081 2170 2662 1517 2662 
C 1126 2662 838 2407 678 1960 
L 678 2176 
z
M 1478 25 
C 691 25 691 1200 691 1436 
C 691 1896 909 2560 1504 2560 
C 1613 2560 1926 2560 2138 2120 
C 2253 1870 2253 1609 2253 1289 
C 2253 944 2253 690 2118 434 
C 1978 171 1773 25 1478 25 
z
" transform="scale(0.015625)"/>
       </defs>
       <use xlink:href="#CMR17-36" transform="scale(0.996264)"/>
      </g>
     </g>
    </g>
    <g id="xtick_7">
     <g id="line2d_7">
      <g>
       <use xlink:href="#m1270837d94" x="259.852317" y="348.209571" style="stroke: #000000; stroke-width: 0.8"/>
      </g>
     </g>
     <g id="text_7">
      <!-- $\mathdefault{7}$ -->
      <g transform="translate(255.950323 366.279159) scale(0.16 -0.16)">
       <defs>
        <path id="CMR17-37" d="M 2886 3941 
L 2886 4081 
L 1382 4081 
C 634 4081 621 4165 595 4288 
L 480 4288 
L 294 3094 
L 410 3094 
C 429 3215 474 3540 550 3661 
C 589 3712 1062 3712 1171 3712 
L 2579 3712 
L 1869 2661 
C 1395 1954 1069 999 1069 165 
C 1069 89 1069 -128 1299 -128 
C 1530 -128 1530 89 1530 171 
L 1530 465 
C 1530 1508 1709 2196 2003 2636 
L 2886 3941 
z
" transform="scale(0.015625)"/>
       </defs>
       <use xlink:href="#CMR17-37" transform="scale(0.996264)"/>
      </g>
     </g>
    </g>
    <g id="xtick_8">
     <g id="line2d_8">
      <g>
       <use xlink:href="#m1270837d94" x="285.032334" y="348.209571" style="stroke: #000000; stroke-width: 0.8"/>
      </g>
     </g>
     <g id="text_8">
      <!-- $\mathdefault{8}$ -->
      <g transform="translate(281.13034 366.279159) scale(0.16 -0.16)">
       <defs>
        <path id="CMR17-38" d="M 1741 2264 
C 2144 2467 2554 2773 2554 3263 
C 2554 3841 1990 4179 1472 4179 
C 890 4179 378 3759 378 3180 
C 378 3021 416 2747 666 2505 
C 730 2442 998 2251 1171 2130 
C 883 1983 211 1634 211 934 
C 211 279 838 -128 1459 -128 
C 2144 -128 2720 362 2720 1010 
C 2720 1590 2330 1857 2074 2029 
L 1741 2264 
z
M 902 2822 
C 851 2854 595 3051 595 3351 
C 595 3739 998 4032 1459 4032 
C 1965 4032 2336 3676 2336 3262 
C 2336 2669 1670 2331 1638 2331 
C 1632 2331 1626 2331 1574 2370 
L 902 2822 
z
M 2080 1519 
C 2176 1449 2483 1240 2483 851 
C 2483 381 2010 25 1472 25 
C 890 25 448 438 448 940 
C 448 1443 838 1862 1280 2060 
L 2080 1519 
z
" transform="scale(0.015625)"/>
       </defs>
       <use xlink:href="#CMR17-38" transform="scale(0.996264)"/>
      </g>
     </g>
    </g>
    <g id="xtick_9">
     <g id="line2d_9">
      <g>
       <use xlink:href="#m1270837d94" x="310.212351" y="348.209571" style="stroke: #000000; stroke-width: 0.8"/>
      </g>
     </g>
     <g id="text_9">
      <!-- $\mathdefault{9}$ -->
      <g transform="translate(306.310357 366.279159) scale(0.16 -0.16)">
       <defs>
        <path id="CMR17-39" d="M 2253 1864 
C 2253 464 1670 31 1190 31 
C 1043 31 685 31 538 294 
C 704 268 826 357 826 518 
C 826 692 685 749 595 749 
C 538 749 365 723 365 506 
C 365 71 742 -128 1203 -128 
C 1939 -128 2688 674 2688 2073 
C 2688 3817 1971 4179 1485 4179 
C 851 4179 243 3628 243 2778 
C 243 1991 762 1408 1414 1408 
C 1952 1408 2189 1903 2253 2112 
L 2253 1864 
z
M 1427 1510 
C 1254 1510 1011 1542 813 1922 
C 678 2169 678 2461 678 2771 
C 678 3146 678 3405 858 3684 
C 947 3817 1114 4032 1485 4032 
C 2240 4032 2240 2885 2240 2632 
C 2240 2182 2035 1510 1427 1510 
z
" transform="scale(0.015625)"/>
       </defs>
       <use xlink:href="#CMR17-39" transform="scale(0.996264)"/>
      </g>
     </g>
    </g>
    <g id="xtick_10">
     <g id="line2d_10">
      <g>
       <use xlink:href="#m1270837d94" x="335.392367" y="348.209571" style="stroke: #000000; stroke-width: 0.8"/>
      </g>
     </g>
     <g id="text_10">
      <!-- $\mathdefault{10}$ -->
      <g transform="translate(327.58838 366.279159) scale(0.16 -0.16)">
       <defs>
        <path id="CMR17-30" d="M 2688 2025 
C 2688 2416 2682 3080 2413 3591 
C 2176 4039 1798 4198 1466 4198 
C 1158 4198 768 4058 525 3597 
C 269 3118 243 2524 243 2025 
C 243 1661 250 1106 448 619 
C 723 -39 1216 -128 1466 -128 
C 1760 -128 2208 -7 2470 600 
C 2662 1042 2688 1559 2688 2025 
z
M 1466 -26 
C 1056 -26 813 325 723 812 
C 653 1188 653 1738 653 2096 
C 653 2588 653 2997 736 3387 
C 858 3929 1216 4096 1466 4096 
C 1728 4096 2067 3923 2189 3400 
C 2272 3036 2278 2607 2278 2096 
C 2278 1680 2278 1169 2202 792 
C 2067 95 1690 -26 1466 -26 
z
" transform="scale(0.015625)"/>
       </defs>
       <use xlink:href="#CMR17-31" transform="scale(0.996264)"/>
       <use xlink:href="#CMR17-30" transform="translate(45.690477 0) scale(0.996264)"/>
      </g>
     </g>
    </g>
    <g id="xtick_11">
     <g id="line2d_11">
      <g>
       <use xlink:href="#m1270837d94" x="360.572384" y="348.209571" style="stroke: #000000; stroke-width: 0.8"/>
      </g>
     </g>
     <g id="text_11">
      <!-- $\mathdefault{11}$ -->
      <g transform="translate(352.768397 366.279159) scale(0.16 -0.16)">
       <use xlink:href="#CMR17-31" transform="scale(0.996264)"/>
       <use xlink:href="#CMR17-31" transform="translate(45.690477 0) scale(0.996264)"/>
      </g>
     </g>
    </g>
    <g id="xtick_12">
     <g id="line2d_12">
      <g>
       <use xlink:href="#m1270837d94" x="385.752401" y="348.209571" style="stroke: #000000; stroke-width: 0.8"/>
      </g>
     </g>
     <g id="text_12">
      <!-- $\mathdefault{12}$ -->
      <g transform="translate(377.948414 366.279159) scale(0.16 -0.16)">
       <use xlink:href="#CMR17-31" transform="scale(0.996264)"/>
       <use xlink:href="#CMR17-32" transform="translate(45.690477 0) scale(0.996264)"/>
      </g>
     </g>
    </g>
    <g id="xtick_13">
     <g id="line2d_13">
      <g>
       <use xlink:href="#m1270837d94" x="410.932418" y="348.209571" style="stroke: #000000; stroke-width: 0.8"/>
      </g>
     </g>
     <g id="text_13">
      <!-- $\mathdefault{13}$ -->
      <g transform="translate(403.128431 366.279159) scale(0.16 -0.16)">
       <use xlink:href="#CMR17-31" transform="scale(0.996264)"/>
       <use xlink:href="#CMR17-33" transform="translate(45.690477 0) scale(0.996264)"/>
      </g>
     </g>
    </g>
    <g id="xtick_14">
     <g id="line2d_14">
      <g>
       <use xlink:href="#m1270837d94" x="436.112435" y="348.209571" style="stroke: #000000; stroke-width: 0.8"/>
      </g>
     </g>
     <g id="text_14">
      <!-- $\mathdefault{14}$ -->
      <g transform="translate(428.308448 366.279159) scale(0.16 -0.16)">
       <use xlink:href="#CMR17-31" transform="scale(0.996264)"/>
       <use xlink:href="#CMR17-34" transform="translate(45.690477 0) scale(0.996264)"/>
      </g>
     </g>
    </g>
    <g id="xtick_15">
     <g id="line2d_15">
      <g>
       <use xlink:href="#m1270837d94" x="461.292452" y="348.209571" style="stroke: #000000; stroke-width: 0.8"/>
      </g>
     </g>
     <g id="text_15">
      <!-- $\mathdefault{15}$ -->
      <g transform="translate(453.488465 366.279159) scale(0.16 -0.16)">
       <use xlink:href="#CMR17-31" transform="scale(0.996264)"/>
       <use xlink:href="#CMR17-35" transform="translate(45.690477 0) scale(0.996264)"/>
      </g>
     </g>
    </g>
    <g id="xtick_16">
     <g id="line2d_16">
      <g>
       <use xlink:href="#m1270837d94" x="486.472469" y="348.209571" style="stroke: #000000; stroke-width: 0.8"/>
      </g>
     </g>
     <g id="text_16">
      <!-- $\mathdefault{16}$ -->
      <g transform="translate(478.668482 366.279159) scale(0.16 -0.16)">
       <use xlink:href="#CMR17-31" transform="scale(0.996264)"/>
       <use xlink:href="#CMR17-36" transform="translate(45.690477 0) scale(0.996264)"/>
      </g>
     </g>
    </g>
    <g id="xtick_17">
     <g id="line2d_17">
      <g>
       <use xlink:href="#m1270837d94" x="511.652485" y="348.209571" style="stroke: #000000; stroke-width: 0.8"/>
      </g>
     </g>
     <g id="text_17">
      <!-- $\mathdefault{17}$ -->
      <g transform="translate(503.848498 366.279159) scale(0.16 -0.16)">
       <use xlink:href="#CMR17-31" transform="scale(0.996264)"/>
       <use xlink:href="#CMR17-37" transform="translate(45.690477 0) scale(0.996264)"/>
      </g>
     </g>
    </g>
    <g id="xtick_18">
     <g id="line2d_18">
      <g>
       <use xlink:href="#m1270837d94" x="536.832502" y="348.209571" style="stroke: #000000; stroke-width: 0.8"/>
      </g>
     </g>
     <g id="text_18">
      <!-- $\mathdefault{18}$ -->
      <g transform="translate(529.028515 366.279159) scale(0.16 -0.16)">
       <use xlink:href="#CMR17-31" transform="scale(0.996264)"/>
       <use xlink:href="#CMR17-38" transform="translate(45.690477 0) scale(0.996264)"/>
      </g>
     </g>
    </g>
    <g id="xtick_19">
     <g id="line2d_19">
      <g>
       <use xlink:href="#m1270837d94" x="562.012519" y="348.209571" style="stroke: #000000; stroke-width: 0.8"/>
      </g>
     </g>
     <g id="text_19">
      <!-- $\mathdefault{19}$ -->
      <g transform="translate(554.208532 366.279159) scale(0.16 -0.16)">
       <use xlink:href="#CMR17-31" transform="scale(0.996264)"/>
       <use xlink:href="#CMR17-39" transform="translate(45.690477 0) scale(0.996264)"/>
      </g>
     </g>
    </g>
    <g id="xtick_20">
     <g id="line2d_20">
      <g>
       <use xlink:href="#m1270837d94" x="587.192536" y="348.209571" style="stroke: #000000; stroke-width: 0.8"/>
      </g>
     </g>
     <g id="text_20">
      <!-- $\mathdefault{20}$ -->
      <g transform="translate(579.388549 366.279159) scale(0.16 -0.16)">
       <use xlink:href="#CMR17-32" transform="scale(0.996264)"/>
       <use xlink:href="#CMR17-30" transform="translate(45.690477 0) scale(0.996264)"/>
      </g>
     </g>
    </g>
    <g id="xtick_21">
     <g id="line2d_21">
      <g>
       <use xlink:href="#m1270837d94" x="612.372553" y="348.209571" style="stroke: #000000; stroke-width: 0.8"/>
      </g>
     </g>
     <g id="text_21">
      <!-- $\mathdefault{21}$ -->
      <g transform="translate(604.568566 366.279159) scale(0.16 -0.16)">
       <use xlink:href="#CMR17-32" transform="scale(0.996264)"/>
       <use xlink:href="#CMR17-31" transform="translate(45.690477 0) scale(0.996264)"/>
      </g>
     </g>
    </g>
    <g id="xtick_22">
     <g id="line2d_22">
      <g>
       <use xlink:href="#m1270837d94" x="637.55257" y="348.209571" style="stroke: #000000; stroke-width: 0.8"/>
      </g>
     </g>
     <g id="text_22">
      <!-- $\mathdefault{22}$ -->
      <g transform="translate(629.748583 366.279159) scale(0.16 -0.16)">
       <use xlink:href="#CMR17-32" transform="scale(0.996264)"/>
       <use xlink:href="#CMR17-32" transform="translate(45.690477 0) scale(0.996264)"/>
      </g>
     </g>
    </g>
    <g id="xtick_23">
     <g id="line2d_23">
      <g>
       <use xlink:href="#m1270837d94" x="662.732587" y="348.209571" style="stroke: #000000; stroke-width: 0.8"/>
      </g>
     </g>
     <g id="text_23">
      <!-- $\mathdefault{23}$ -->
      <g transform="translate(654.9286 366.279159) scale(0.16 -0.16)">
       <use xlink:href="#CMR17-32" transform="scale(0.996264)"/>
       <use xlink:href="#CMR17-33" transform="translate(45.690477 0) scale(0.996264)"/>
      </g>
     </g>
    </g>
    <g id="xtick_24">
     <g id="line2d_24">
      <g>
       <use xlink:href="#m1270837d94" x="687.912603" y="348.209571" style="stroke: #000000; stroke-width: 0.8"/>
      </g>
     </g>
     <g id="text_24">
      <!-- $\mathdefault{24}$ -->
      <g transform="translate(680.108616 366.279159) scale(0.16 -0.16)">
       <use xlink:href="#CMR17-32" transform="scale(0.996264)"/>
       <use xlink:href="#CMR17-34" transform="translate(45.690477 0) scale(0.996264)"/>
      </g>
     </g>
    </g>
    <g id="xtick_25">
     <g id="line2d_25">
      <g>
       <use xlink:href="#m1270837d94" x="713.09262" y="348.209571" style="stroke: #000000; stroke-width: 0.8"/>
      </g>
     </g>
     <g id="text_25">
      <!-- $\mathdefault{25}$ -->
      <g transform="translate(705.288633 366.279159) scale(0.16 -0.16)">
       <use xlink:href="#CMR17-32" transform="scale(0.996264)"/>
       <use xlink:href="#CMR17-35" transform="translate(45.690477 0) scale(0.996264)"/>
      </g>
     </g>
    </g>
    <g id="xtick_26">
     <g id="line2d_26">
      <g>
       <use xlink:href="#m1270837d94" x="738.272637" y="348.209571" style="stroke: #000000; stroke-width: 0.8"/>
      </g>
     </g>
     <g id="text_26">
      <!-- $\mathdefault{26}$ -->
      <g transform="translate(730.46865 366.279159) scale(0.16 -0.16)">
       <use xlink:href="#CMR17-32" transform="scale(0.996264)"/>
       <use xlink:href="#CMR17-36" transform="translate(45.690477 0) scale(0.996264)"/>
      </g>
     </g>
    </g>
    <g id="xtick_27">
     <g id="line2d_27">
      <g>
       <use xlink:href="#m1270837d94" x="763.452654" y="348.209571" style="stroke: #000000; stroke-width: 0.8"/>
      </g>
     </g>
     <g id="text_27">
      <!-- $\mathdefault{27}$ -->
      <g transform="translate(755.648667 366.279159) scale(0.16 -0.16)">
       <use xlink:href="#CMR17-32" transform="scale(0.996264)"/>
       <use xlink:href="#CMR17-37" transform="translate(45.690477 0) scale(0.996264)"/>
      </g>
     </g>
    </g>
    <g id="xtick_28">
     <g id="line2d_28">
      <g>
       <use xlink:href="#m1270837d94" x="788.632671" y="348.209571" style="stroke: #000000; stroke-width: 0.8"/>
      </g>
     </g>
     <g id="text_28">
      <!-- $\mathdefault{28}$ -->
      <g transform="translate(780.828684 366.279159) scale(0.16 -0.16)">
       <use xlink:href="#CMR17-32" transform="scale(0.996264)"/>
       <use xlink:href="#CMR17-38" transform="translate(45.690477 0) scale(0.996264)"/>
      </g>
     </g>
    </g>
    <g id="text_29">
     <!-- Days -->
     <g transform="translate(430.92063 396.831936) scale(0.18 -0.18)">
      <defs>
       <path id="CMR17-44" d="M 333 4352 
L 333 4186 
C 774 4186 845 4186 845 3900 
L 845 452 
C 845 166 774 166 333 166 
L 333 0 
L 2368 0 
C 3398 0 4224 943 4224 2141 
C 4224 3346 3411 4352 2368 4352 
L 333 4352 
z
M 1523 166 
C 1267 166 1254 197 1254 414 
L 1254 3938 
C 1254 4155 1267 4186 1523 4186 
L 2240 4186 
C 2771 4186 3750 3874 3750 2141 
C 3750 1242 3488 879 3366 707 
C 3213 510 2848 166 2240 166 
L 1523 166 
z
" transform="scale(0.015625)"/>
       <path id="CMR17-61" d="M 2304 1653 
C 2304 2072 2304 2294 2035 2543 
C 1798 2752 1523 2816 1306 2816 
C 800 2816 435 2407 435 1971 
C 435 1728 627 1728 666 1728 
C 749 1728 896 1778 896 1954 
C 896 2112 774 2181 666 2181 
C 640 2181 608 2174 589 2168 
C 723 2592 1069 2714 1293 2714 
C 1613 2714 1965 2429 1965 1885 
L 1965 1600 
C 1587 1600 1133 1549 774 1357 
C 371 1133 256 813 256 570 
C 256 77 832 -64 1171 -64 
C 1523 -64 1850 139 1990 511 
C 2003 233 2182 -18 2464 -18 
C 2598 -18 2938 70 2938 567 
L 2938 920 
L 2822 920 
L 2822 562 
C 2822 178 2650 128 2566 128 
C 2304 128 2304 458 2304 738 
L 2304 1653 
z
M 1965 870 
C 1965 317 1568 38 1216 38 
C 896 38 646 275 646 570 
C 646 761 730 1100 1101 1305 
C 1408 1478 1760 1504 1965 1504 
L 1965 870 
z
" transform="scale(0.015625)"/>
       <path id="CMR17-79" d="M 2496 2197 
C 2656 2586 2944 2586 3034 2586 
L 3034 2752 
C 2912 2752 2752 2752 2630 2752 
C 2496 2752 2285 2752 2157 2758 
L 2157 2592 
C 2400 2573 2406 2394 2406 2343 
C 2406 2280 2394 2248 2362 2171 
L 1664 449 
L 902 2306 
C 870 2382 870 2426 870 2433 
C 870 2573 1018 2586 1171 2586 
L 1171 2758 
C 1018 2752 742 2752 582 2752 
C 410 2752 205 2752 64 2758 
L 64 2586 
C 410 2586 448 2554 531 2350 
L 1485 15 
C 1197 -738 1030 -1178 627 -1178 
C 557 -1178 397 -1159 282 -1044 
C 429 -1031 493 -942 493 -833 
C 493 -725 416 -629 288 -629 
C 147 -629 77 -725 77 -840 
C 77 -1095 339 -1280 627 -1280 
C 998 -1280 1229 -922 1357 -604 
L 2496 2197 
z
" transform="scale(0.015625)"/>
       <path id="CMR17-73" d="M 1978 2697 
C 1978 2813 1971 2819 1933 2819 
C 1907 2819 1901 2813 1824 2717 
C 1805 2691 1747 2626 1728 2601 
C 1523 2819 1235 2819 1126 2819 
C 416 2819 160 2447 160 2076 
C 160 1498 813 1365 998 1325 
C 1402 1243 1542 1217 1677 1101 
C 1760 1025 1901 884 1901 654 
C 1901 384 1747 38 1158 38 
C 602 38 403 460 288 1021 
C 269 1110 269 1117 218 1117 
C 166 1117 160 1110 160 983 
L 160 63 
C 160 -51 166 -58 205 -58 
C 237 -58 243 -51 275 0 
C 314 57 410 211 448 276 
C 576 103 800 -64 1158 -64 
C 1792 -64 2131 283 2131 784 
C 2131 1112 1958 1285 1875 1362 
C 1683 1561 1459 1606 1190 1657 
C 838 1735 390 1825 390 2217 
C 390 2383 480 2737 1126 2737 
C 1811 2737 1850 2094 1862 1888 
C 1869 1856 1901 1849 1920 1849 
C 1978 1849 1978 1869 1978 1978 
L 1978 2697 
z
" transform="scale(0.015625)"/>
      </defs>
      <use xlink:href="#CMR17-44" transform="scale(0.996264)"/>
      <use xlink:href="#CMR17-61" transform="translate(70.393556 0) scale(0.996264)"/>
      <use xlink:href="#CMR17-79" transform="translate(113.481579 0) scale(0.996264)"/>
      <use xlink:href="#CMR17-73" transform="translate(161.774495 0) scale(0.996264)"/>
     </g>
    </g>
   </g>
   <g id="matplotlib.axis_2">
    <g id="ytick_1">
     <g id="line2d_29">
      <path d="M 65.084887 348.209571 
L 832.32 348.209571 
" clip-path="url(#pa931c6c041)" style="fill: none; stroke-dasharray: 2.96,1.28; stroke-dashoffset: 0; stroke: #b0b0b0; stroke-opacity: 0.7; stroke-width: 0.8"/>
     </g>
     <g id="line2d_30">
      <defs>
       <path id="me45e0a391c" d="M 0 0 
L -3.5 0 
" style="stroke: #000000; stroke-width: 0.8"/>
      </defs>
      <g>
       <use xlink:href="#me45e0a391c" x="65.084887" y="348.209571" style="stroke: #000000; stroke-width: 0.8"/>
      </g>
     </g>
     <g id="text_30">
      <!-- $\mathdefault{0.0}$ -->
      <g transform="translate(38.141364 353.744365) scale(0.16 -0.16)">
       <defs>
        <path id="CMMI12-3a" d="M 1178 307 
C 1178 492 1024 619 870 619 
C 685 619 557 466 557 313 
C 557 128 710 0 864 0 
C 1050 0 1178 153 1178 307 
z
" transform="scale(0.015625)"/>
       </defs>
       <use xlink:href="#CMR17-30" transform="scale(0.996264)"/>
       <use xlink:href="#CMMI12-3a" transform="translate(45.690477 0) scale(0.996264)"/>
       <use xlink:href="#CMR17-30" transform="translate(72.787654 0) scale(0.996264)"/>
      </g>
     </g>
    </g>
    <g id="ytick_2">
     <g id="line2d_31">
      <path d="M 65.084887 278.437792 
L 832.32 278.437792 
" clip-path="url(#pa931c6c041)" style="fill: none; stroke-dasharray: 2.96,1.28; stroke-dashoffset: 0; stroke: #b0b0b0; stroke-opacity: 0.7; stroke-width: 0.8"/>
     </g>
     <g id="line2d_32">
      <g>
       <use xlink:href="#me45e0a391c" x="65.084887" y="278.437792" style="stroke: #000000; stroke-width: 0.8"/>
      </g>
     </g>
     <g id="text_31">
      <!-- $\mathdefault{0.2}$ -->
      <g transform="translate(38.141364 283.972586) scale(0.16 -0.16)">
       <use xlink:href="#CMR17-30" transform="scale(0.996264)"/>
       <use xlink:href="#CMMI12-3a" transform="translate(45.690477 0) scale(0.996264)"/>
       <use xlink:href="#CMR17-32" transform="translate(72.787654 0) scale(0.996264)"/>
      </g>
     </g>
    </g>
    <g id="ytick_3">
     <g id="line2d_33">
      <path d="M 65.084887 208.666013 
L 832.32 208.666013 
" clip-path="url(#pa931c6c041)" style="fill: none; stroke-dasharray: 2.96,1.28; stroke-dashoffset: 0; stroke: #b0b0b0; stroke-opacity: 0.7; stroke-width: 0.8"/>
     </g>
     <g id="line2d_34">
      <g>
       <use xlink:href="#me45e0a391c" x="65.084887" y="208.666013" style="stroke: #000000; stroke-width: 0.8"/>
      </g>
     </g>
     <g id="text_32">
      <!-- $\mathdefault{0.4}$ -->
      <g transform="translate(38.141364 214.200807) scale(0.16 -0.16)">
       <use xlink:href="#CMR17-30" transform="scale(0.996264)"/>
       <use xlink:href="#CMMI12-3a" transform="translate(45.690477 0) scale(0.996264)"/>
       <use xlink:href="#CMR17-34" transform="translate(72.787654 0) scale(0.996264)"/>
      </g>
     </g>
    </g>
    <g id="ytick_4">
     <g id="line2d_35">
      <path d="M 65.084887 138.894233 
L 832.32 138.894233 
" clip-path="url(#pa931c6c041)" style="fill: none; stroke-dasharray: 2.96,1.28; stroke-dashoffset: 0; stroke: #b0b0b0; stroke-opacity: 0.7; stroke-width: 0.8"/>
     </g>
     <g id="line2d_36">
      <g>
       <use xlink:href="#me45e0a391c" x="65.084887" y="138.894233" style="stroke: #000000; stroke-width: 0.8"/>
      </g>
     </g>
     <g id="text_33">
      <!-- $\mathdefault{0.6}$ -->
      <g transform="translate(38.141364 144.429028) scale(0.16 -0.16)">
       <use xlink:href="#CMR17-30" transform="scale(0.996264)"/>
       <use xlink:href="#CMMI12-3a" transform="translate(45.690477 0) scale(0.996264)"/>
       <use xlink:href="#CMR17-36" transform="translate(72.787654 0) scale(0.996264)"/>
      </g>
     </g>
    </g>
    <g id="ytick_5">
     <g id="line2d_37">
      <path d="M 65.084887 69.122454 
L 832.32 69.122454 
" clip-path="url(#pa931c6c041)" style="fill: none; stroke-dasharray: 2.96,1.28; stroke-dashoffset: 0; stroke: #b0b0b0; stroke-opacity: 0.7; stroke-width: 0.8"/>
     </g>
     <g id="line2d_38">
      <g>
       <use xlink:href="#me45e0a391c" x="65.084887" y="69.122454" style="stroke: #000000; stroke-width: 0.8"/>
      </g>
     </g>
     <g id="text_34">
      <!-- $\mathdefault{0.8}$ -->
      <g transform="translate(38.141364 74.657248) scale(0.16 -0.16)">
       <use xlink:href="#CMR17-30" transform="scale(0.996264)"/>
       <use xlink:href="#CMMI12-3a" transform="translate(45.690477 0) scale(0.996264)"/>
       <use xlink:href="#CMR17-38" transform="translate(72.787654 0) scale(0.996264)"/>
      </g>
     </g>
    </g>
    <g id="text_35">
     <!-- Relative Undercoverage -->
     <g transform="translate(19.6533 262.193943) rotate(-90) scale(0.18 -0.18)">
      <defs>
       <path id="CMR17-52" d="M 2509 2146 
C 3117 2268 3629 2676 3629 3186 
C 3629 3785 2950 4326 2054 4326 
L 333 4326 
L 333 4160 
C 774 4160 845 4160 845 3873 
L 845 415 
C 845 128 774 128 333 128 
L 333 -26 
C 518 -26 851 -26 1050 -26 
C 1248 -26 1581 -26 1766 -26 
L 1766 128 
C 1325 128 1254 128 1254 417 
L 1254 2112 
L 2003 2112 
C 2368 2112 2573 1964 2662 1881 
C 2918 1632 2918 1459 2918 1024 
C 2918 595 2918 377 3110 160 
C 3354 -102 3680 -128 3821 -128 
C 4294 -128 4365 396 4365 503 
C 4365 540 4365 585 4307 585 
C 4256 585 4250 547 4250 522 
C 4218 112 4032 -26 3834 -26 
C 3482 -26 3443 375 3405 764 
C 3386 898 3373 993 3360 1133 
C 3322 1452 3270 1917 2509 2146 
z
M 1984 2214 
L 1254 2214 
L 1254 3913 
C 1254 4129 1267 4160 1523 4160 
L 1990 4160 
C 2522 4160 3142 3977 3142 3190 
C 3142 2372 2464 2214 1984 2214 
z
" transform="scale(0.015625)"/>
       <path id="CMR17-65" d="M 2438 1472 
C 2464 1498 2464 1511 2464 1576 
C 2464 2238 2118 2816 1389 2816 
C 710 2816 173 2169 173 1383 
C 173 551 781 -64 1459 -64 
C 2176 -64 2458 607 2458 740 
C 2458 784 2419 784 2406 784 
C 2362 784 2355 771 2330 696 
C 2189 265 1837 51 1504 51 
C 1229 51 954 203 781 480 
C 582 803 582 1176 582 1472 
L 2438 1472 
z
M 589 1568 
C 634 2505 1126 2714 1382 2714 
C 1818 2714 2112 2297 2118 1568 
L 589 1568 
z
" transform="scale(0.015625)"/>
       <path id="CMR17-6c" d="M 979 4396 
L 218 4326 
L 218 4160 
C 595 4160 653 4122 653 3817 
L 653 426 
C 653 184 627 153 218 153 
L 218 -13 
C 371 0 653 0 813 0 
C 979 0 1261 0 1414 -13 
L 1414 153 
C 1005 153 979 178 979 426 
L 979 4396 
z
" transform="scale(0.015625)"/>
       <path id="CMR17-74" d="M 966 2560 
L 1862 2560 
L 1862 2725 
L 966 2725 
L 966 3904 
L 851 3904 
C 838 3245 614 2668 70 2668 
L 70 2560 
L 627 2560 
L 627 771 
C 627 650 627 -64 1370 -64 
C 1747 -64 1965 306 1965 777 
L 1965 1140 
L 1850 1140 
L 1850 783 
C 1850 344 1677 51 1408 51 
C 1222 51 966 178 966 758 
L 966 2560 
z
" transform="scale(0.015625)"/>
       <path id="CMR17-69" d="M 992 3909 
C 992 4049 877 4170 730 4170 
C 589 4170 467 4056 467 3909 
C 467 3769 582 3648 730 3648 
C 870 3648 992 3763 992 3909 
z
M 243 2706 
L 243 2541 
C 602 2541 653 2502 653 2197 
L 653 427 
C 653 184 627 153 218 153 
L 218 -13 
C 371 0 646 0 806 0 
C 960 0 1222 0 1370 -13 
L 1370 153 
C 992 153 979 191 979 420 
L 979 2776 
L 243 2706 
z
" transform="scale(0.015625)"/>
       <path id="CMR17-76" d="M 2502 2163 
C 2560 2304 2662 2560 3034 2560 
L 3034 2726 
C 2912 2726 2752 2726 2630 2726 
C 2496 2726 2285 2726 2157 2732 
L 2157 2566 
C 2317 2553 2406 2477 2406 2311 
C 2406 2253 2406 2240 2368 2151 
L 1664 377 
L 902 2286 
C 864 2369 864 2381 864 2407 
C 864 2560 1075 2560 1171 2560 
L 1171 2732 
C 1018 2726 736 2726 576 2726 
C 403 2726 205 2726 64 2732 
L 64 2560 
C 307 2560 442 2560 518 2362 
L 1446 44 
C 1485 -51 1491 -64 1549 -64 
C 1606 -64 1613 -51 1651 44 
L 2502 2163 
z
" transform="scale(0.015625)"/>
       <path id="CMR17-55" d="M 3456 1433 
C 3456 579 2899 38 2291 38 
C 1965 38 1670 210 1491 477 
C 1286 783 1261 1178 1261 1401 
L 1261 3874 
C 1261 4160 1331 4160 1773 4160 
L 1773 4320 
C 1587 4320 1248 4320 1050 4320 
C 851 4320 512 4320 326 4320 
L 326 4160 
C 768 4160 838 4160 838 3874 
L 838 1433 
C 838 516 1536 -128 2278 -128 
C 3110 -128 3590 719 3590 1344 
L 3590 3766 
C 3590 4122 3917 4160 4102 4160 
L 4102 4326 
C 3955 4320 3686 4320 3526 4320 
C 3366 4320 3091 4320 2944 4326 
L 2944 4160 
C 3456 4160 3456 3861 3456 3702 
L 3456 1433 
z
" transform="scale(0.015625)"/>
       <path id="CMR17-6e" d="M 2656 1933 
C 2656 2259 2592 2790 1837 2790 
C 1331 2790 1069 2400 973 2144 
L 966 2144 
L 966 2790 
L 211 2720 
L 211 2554 
C 589 2554 646 2515 646 2208 
L 646 428 
C 646 184 621 153 211 153 
L 211 -13 
C 365 0 646 0 813 0 
C 979 0 1267 0 1421 -13 
L 1421 153 
C 1011 153 986 178 986 428 
L 986 1658 
C 986 2247 1344 2688 1792 2688 
C 2266 2688 2317 2266 2317 1958 
L 2317 428 
C 2317 184 2291 153 1882 153 
L 1882 -13 
C 2035 0 2317 0 2483 0 
C 2650 0 2938 0 3091 -13 
L 3091 153 
C 2682 153 2656 178 2656 428 
L 2656 1933 
z
" transform="scale(0.015625)"/>
       <path id="CMR17-64" d="M 1869 4326 
L 1869 4160 
C 2246 4160 2304 4122 2304 3820 
L 2304 2345 
C 2278 2377 2016 2790 1498 2790 
C 845 2790 211 2208 211 1364 
C 211 525 806 -64 1434 -64 
C 1978 -64 2259 337 2291 380 
L 2291 -63 
L 3066 -63 
L 3066 128 
C 2688 128 2630 166 2630 473 
L 2630 4396 
L 1869 4326 
z
M 2291 755 
C 2291 563 2176 390 2029 262 
C 1811 70 1594 38 1472 38 
C 1286 38 621 134 621 1356 
C 621 2612 1363 2688 1530 2688 
C 1824 2688 2061 2522 2208 2291 
C 2291 2157 2291 2138 2291 2023 
L 2291 755 
z
" transform="scale(0.015625)"/>
       <path id="CMR17-72" d="M 960 1497 
C 960 2112 1222 2688 1702 2688 
C 1747 2688 1792 2682 1837 2662 
C 1837 2662 1696 2617 1696 2452 
C 1696 2298 1818 2234 1914 2234 
C 1990 2234 2131 2279 2131 2458 
C 2131 2663 1926 2790 1709 2790 
C 1222 2790 1011 2317 947 2093 
L 941 2093 
L 941 2790 
L 198 2720 
L 198 2554 
C 576 2554 634 2515 634 2208 
L 634 428 
C 634 184 608 153 198 153 
L 198 -13 
C 352 0 646 0 813 0 
C 998 0 1325 0 1498 -13 
L 1498 153 
C 1037 153 960 153 960 440 
L 960 1497 
z
" transform="scale(0.015625)"/>
       <path id="CMR17-63" d="M 2234 2240 
C 2112 2240 1933 2240 1933 2017 
C 1933 1838 2080 1787 2163 1787 
C 2208 1787 2394 1807 2394 2024 
C 2394 2467 1958 2803 1466 2803 
C 787 2803 211 2178 211 1363 
C 211 516 813 -64 1466 -64 
C 2259 -64 2458 677 2458 748 
C 2458 774 2451 793 2406 793 
C 2362 793 2355 787 2330 703 
C 2163 180 1798 51 1523 51 
C 1114 51 621 427 621 1369 
C 621 2338 1094 2688 1472 2688 
C 1722 2688 2093 2573 2234 2240 
z
" transform="scale(0.015625)"/>
       <path id="CMR17-6f" d="M 2758 1356 
C 2758 2176 2163 2816 1466 2816 
C 768 2816 173 2176 173 1356 
C 173 551 768 -64 1466 -64 
C 2163 -64 2758 551 2758 1356 
z
M 1466 51 
C 1165 51 909 230 762 480 
C 602 767 582 1126 582 1408 
C 582 1677 595 2010 762 2298 
C 890 2509 1139 2714 1466 2714 
C 1754 2714 1997 2554 2150 2330 
C 2349 2029 2349 1607 2349 1408 
C 2349 1158 2336 775 2163 467 
C 1984 173 1709 51 1466 51 
z
" transform="scale(0.015625)"/>
       <path id="CMR17-67" d="M 710 1164 
C 832 1068 1043 960 1299 960 
C 1805 960 2240 1357 2240 1888 
C 2240 2054 2189 2310 1997 2509 
C 2176 2692 2438 2752 2586 2752 
C 2611 2752 2650 2752 2682 2734 
C 2656 2728 2598 2703 2598 2605 
C 2598 2527 2656 2471 2739 2471 
C 2835 2471 2886 2533 2886 2614 
C 2886 2731 2790 2854 2586 2854 
C 2330 2854 2106 2738 1926 2580 
C 1734 2753 1504 2816 1299 2816 
C 794 2816 358 2419 358 1888 
C 358 1522 570 1292 634 1228 
C 442 1004 442 743 442 711 
C 442 545 506 302 723 168 
C 390 85 128 -169 128 -486 
C 128 -943 736 -1280 1466 -1280 
C 2170 -1280 2803 -956 2803 -479 
C 2803 384 1856 384 1363 384 
C 1216 384 954 384 922 391 
C 723 423 589 602 589 826 
C 589 883 589 1024 710 1164 
z
M 1299 1068 
C 736 1068 736 1760 736 1889 
C 736 2016 736 2708 1299 2708 
C 1862 2708 1862 2016 1862 1889 
C 1862 1760 1862 1068 1299 1068 
z
M 1466 -1171 
C 826 -1171 384 -835 384 -486 
C 384 -289 493 -105 634 -4 
C 794 104 858 104 1293 104 
C 1818 104 2547 104 2547 -486 
C 2547 -835 2106 -1171 1466 -1171 
z
" transform="scale(0.015625)"/>
      </defs>
      <use xlink:href="#CMR17-52" transform="scale(0.996264)"/>
      <use xlink:href="#CMR17-65" transform="translate(67.791102 0) scale(0.996264)"/>
      <use xlink:href="#CMR17-6c" transform="translate(108.276762 0) scale(0.996264)"/>
      <use xlink:href="#CMR17-61" transform="translate(133.147821 0) scale(0.996264)"/>
      <use xlink:href="#CMR17-74" transform="translate(178.838298 0) scale(0.996264)"/>
      <use xlink:href="#CMR17-69" transform="translate(214.119066 0) scale(0.996264)"/>
      <use xlink:href="#CMR17-76" transform="translate(238.990124 0) scale(0.996264)"/>
      <use xlink:href="#CMR17-65" transform="translate(284.680586 0) scale(0.996264)"/>
      <use xlink:href="#CMR17-55" transform="translate(355.242213 0) scale(0.996264)"/>
      <use xlink:href="#CMR17-6e" transform="translate(424.314643 0) scale(0.996264)"/>
      <use xlink:href="#CMR17-64" transform="translate(475.210013 0) scale(0.996264)"/>
      <use xlink:href="#CMR17-65" transform="translate(526.105382 0) scale(0.996264)"/>
      <use xlink:href="#CMR17-72" transform="translate(566.591043 0) scale(0.996264)"/>
      <use xlink:href="#CMR17-63" transform="translate(601.871811 0) scale(0.996264)"/>
      <use xlink:href="#CMR17-6f" transform="translate(642.357471 0) scale(0.996264)"/>
      <use xlink:href="#CMR17-76" transform="translate(685.445494 0) scale(0.996264)"/>
      <use xlink:href="#CMR17-65" transform="translate(731.135956 0) scale(0.996264)"/>
      <use xlink:href="#CMR17-72" transform="translate(771.621617 0) scale(0.996264)"/>
      <use xlink:href="#CMR17-61" transform="translate(806.902384 0) scale(0.996264)"/>
      <use xlink:href="#CMR17-67" transform="translate(852.592862 0) scale(0.996264)"/>
      <use xlink:href="#CMR17-65" transform="translate(898.283339 0) scale(0.996264)"/>
     </g>
    </g>
   </g>
   <g id="patch_59">
    <path d="M 65.084887 348.209571 
L 65.084887 7.2 
" style="fill: none; stroke: #000000; stroke-width: 0.8; stroke-linejoin: miter; stroke-linecap: square"/>
   </g>
   <g id="patch_60">
    <path d="M 832.32 348.209571 
L 832.32 7.2 
" style="fill: none; stroke: #000000; stroke-width: 0.8; stroke-linejoin: miter; stroke-linecap: square"/>
   </g>
   <g id="patch_61">
    <path d="M 65.084887 348.209571 
L 832.32 348.209571 
" style="fill: none; stroke: #000000; stroke-width: 0.8; stroke-linejoin: miter; stroke-linecap: square"/>
   </g>
   <g id="patch_62">
    <path d="M 65.084887 7.2 
L 832.32 7.2 
" style="fill: none; stroke: #000000; stroke-width: 0.8; stroke-linejoin: miter; stroke-linecap: square"/>
   </g>
   <g id="text_36">
    <!-- 0.00% -->
    <g transform="translate(106.856373 344.720982) rotate(-90) scale(0.1 -0.1)">
     <defs>
      <path id="CMR17-2e" d="M 1062 261 
C 1062 420 934 522 800 522 
C 672 522 538 420 538 261 
C 538 102 666 0 800 0 
C 928 0 1062 102 1062 261 
z
" transform="scale(0.015625)"/>
     </defs>
     <use xlink:href="#CMR17-30" transform="scale(0.996264)"/>
     <use xlink:href="#CMR17-2e" transform="translate(45.690477 0) scale(0.996264)"/>
     <use xlink:href="#CMR17-30" transform="translate(70.561536 0) scale(0.996264)"/>
     <use xlink:href="#CMR17-30" transform="translate(116.252013 0) scale(0.996264)"/>
    </g>
   </g>
   <g id="text_37">
    <!-- 24.93% -->
    <g transform="translate(132.03639 257.748042) rotate(-90) scale(0.1 -0.1)">
     <use xlink:href="#CMR17-32" transform="scale(0.996264)"/>
     <use xlink:href="#CMR17-34" transform="translate(45.690477 0) scale(0.996264)"/>
     <use xlink:href="#CMR17-2e" transform="translate(91.380954 0) scale(0.996264)"/>
     <use xlink:href="#CMR17-39" transform="translate(116.252013 0) scale(0.996264)"/>
     <use xlink:href="#CMR17-33" transform="translate(161.94249 0) scale(0.996264)"/>
    </g>
   </g>
   <g id="text_38">
    <!-- 37.68% -->
    <g transform="translate(157.216407 213.286036) rotate(-90) scale(0.1 -0.1)">
     <use xlink:href="#CMR17-33" transform="scale(0.996264)"/>
     <use xlink:href="#CMR17-37" transform="translate(45.690477 0) scale(0.996264)"/>
     <use xlink:href="#CMR17-2e" transform="translate(91.380954 0) scale(0.996264)"/>
     <use xlink:href="#CMR17-36" transform="translate(116.252013 0) scale(0.996264)"/>
     <use xlink:href="#CMR17-38" transform="translate(161.94249 0) scale(0.996264)"/>
    </g>
   </g>
   <g id="text_39">
    <!-- 37.68% -->
    <g transform="translate(182.396423 213.286036) rotate(-90) scale(0.1 -0.1)">
     <use xlink:href="#CMR17-33" transform="scale(0.996264)"/>
     <use xlink:href="#CMR17-37" transform="translate(45.690477 0) scale(0.996264)"/>
     <use xlink:href="#CMR17-2e" transform="translate(91.380954 0) scale(0.996264)"/>
     <use xlink:href="#CMR17-36" transform="translate(116.252013 0) scale(0.996264)"/>
     <use xlink:href="#CMR17-38" transform="translate(161.94249 0) scale(0.996264)"/>
    </g>
   </g>
   <g id="text_40">
    <!-- 14.69% -->
    <g transform="translate(207.57644 293.461982) rotate(-90) scale(0.1 -0.1)">
     <use xlink:href="#CMR17-31" transform="scale(0.996264)"/>
     <use xlink:href="#CMR17-34" transform="translate(45.690477 0) scale(0.996264)"/>
     <use xlink:href="#CMR17-2e" transform="translate(91.380954 0) scale(0.996264)"/>
     <use xlink:href="#CMR17-36" transform="translate(116.252013 0) scale(0.996264)"/>
     <use xlink:href="#CMR17-39" transform="translate(161.94249 0) scale(0.996264)"/>
    </g>
   </g>
   <g id="text_41">
    <!-- 55.73% -->
    <g transform="translate(232.756457 150.316549) rotate(-90) scale(0.1 -0.1)">
     <use xlink:href="#CMR17-35" transform="scale(0.996264)"/>
     <use xlink:href="#CMR17-35" transform="translate(45.690477 0) scale(0.996264)"/>
     <use xlink:href="#CMR17-2e" transform="translate(91.380954 0) scale(0.996264)"/>
     <use xlink:href="#CMR17-37" transform="translate(116.252013 0) scale(0.996264)"/>
     <use xlink:href="#CMR17-33" transform="translate(161.94249 0) scale(0.996264)"/>
    </g>
   </g>
   <g id="text_42">
    <!-- 41.98% -->
    <g transform="translate(257.936474 198.268649) rotate(-90) scale(0.1 -0.1)">
     <use xlink:href="#CMR17-34" transform="scale(0.996264)"/>
     <use xlink:href="#CMR17-31" transform="translate(45.690477 0) scale(0.996264)"/>
     <use xlink:href="#CMR17-2e" transform="translate(91.380954 0) scale(0.996264)"/>
     <use xlink:href="#CMR17-39" transform="translate(116.252013 0) scale(0.996264)"/>
     <use xlink:href="#CMR17-38" transform="translate(161.94249 0) scale(0.996264)"/>
    </g>
   </g>
   <g id="text_43">
    <!-- 27.78% -->
    <g transform="translate(283.116491 247.815733) rotate(-90) scale(0.1 -0.1)">
     <use xlink:href="#CMR17-32" transform="scale(0.996264)"/>
     <use xlink:href="#CMR17-37" transform="translate(45.690477 0) scale(0.996264)"/>
     <use xlink:href="#CMR17-2e" transform="translate(91.380954 0) scale(0.996264)"/>
     <use xlink:href="#CMR17-37" transform="translate(116.252013 0) scale(0.996264)"/>
     <use xlink:href="#CMR17-38" transform="translate(161.94249 0) scale(0.996264)"/>
    </g>
   </g>
   <g id="text_44">
    <!-- 40.70% -->
    <g transform="translate(308.296508 202.738798) rotate(-90) scale(0.1 -0.1)">
     <use xlink:href="#CMR17-34" transform="scale(0.996264)"/>
     <use xlink:href="#CMR17-30" transform="translate(45.690477 0) scale(0.996264)"/>
     <use xlink:href="#CMR17-2e" transform="translate(91.380954 0) scale(0.996264)"/>
     <use xlink:href="#CMR17-37" transform="translate(116.252013 0) scale(0.996264)"/>
     <use xlink:href="#CMR17-30" transform="translate(161.94249 0) scale(0.996264)"/>
    </g>
   </g>
   <g id="text_45">
    <!-- 45.01% -->
    <g transform="translate(333.476525 187.699938) rotate(-90) scale(0.1 -0.1)">
     <use xlink:href="#CMR17-34" transform="scale(0.996264)"/>
     <use xlink:href="#CMR17-35" transform="translate(45.690477 0) scale(0.996264)"/>
     <use xlink:href="#CMR17-2e" transform="translate(91.380954 0) scale(0.996264)"/>
     <use xlink:href="#CMR17-30" transform="translate(116.252013 0) scale(0.996264)"/>
     <use xlink:href="#CMR17-31" transform="translate(161.94249 0) scale(0.996264)"/>
    </g>
   </g>
   <g id="text_46">
    <!-- 42.83% -->
    <g transform="translate(358.656541 195.299621) rotate(-90) scale(0.1 -0.1)">
     <use xlink:href="#CMR17-34" transform="scale(0.996264)"/>
     <use xlink:href="#CMR17-32" transform="translate(45.690477 0) scale(0.996264)"/>
     <use xlink:href="#CMR17-2e" transform="translate(91.380954 0) scale(0.996264)"/>
     <use xlink:href="#CMR17-38" transform="translate(116.252013 0) scale(0.996264)"/>
     <use xlink:href="#CMR17-33" transform="translate(161.94249 0) scale(0.996264)"/>
    </g>
   </g>
   <g id="text_47">
    <!-- 52.02% -->
    <g transform="translate(383.836558 163.258089) rotate(-90) scale(0.1 -0.1)">
     <use xlink:href="#CMR17-35" transform="scale(0.996264)"/>
     <use xlink:href="#CMR17-32" transform="translate(45.690477 0) scale(0.996264)"/>
     <use xlink:href="#CMR17-2e" transform="translate(91.380954 0) scale(0.996264)"/>
     <use xlink:href="#CMR17-30" transform="translate(116.252013 0) scale(0.996264)"/>
     <use xlink:href="#CMR17-32" transform="translate(161.94249 0) scale(0.996264)"/>
    </g>
   </g>
   <g id="text_48">
    <!-- 43.02% -->
    <g transform="translate(409.016575 194.654467) rotate(-90) scale(0.1 -0.1)">
     <use xlink:href="#CMR17-34" transform="scale(0.996264)"/>
     <use xlink:href="#CMR17-33" transform="translate(45.690477 0) scale(0.996264)"/>
     <use xlink:href="#CMR17-2e" transform="translate(91.380954 0) scale(0.996264)"/>
     <use xlink:href="#CMR17-30" transform="translate(116.252013 0) scale(0.996264)"/>
     <use xlink:href="#CMR17-32" transform="translate(161.94249 0) scale(0.996264)"/>
    </g>
   </g>
   <g id="text_49">
    <!-- 41.51% -->
    <g transform="translate(434.196592 199.911629) rotate(-90) scale(0.1 -0.1)">
     <use xlink:href="#CMR17-34" transform="scale(0.996264)"/>
     <use xlink:href="#CMR17-31" transform="translate(45.690477 0) scale(0.996264)"/>
     <use xlink:href="#CMR17-2e" transform="translate(91.380954 0) scale(0.996264)"/>
     <use xlink:href="#CMR17-35" transform="translate(116.252013 0) scale(0.996264)"/>
     <use xlink:href="#CMR17-31" transform="translate(161.94249 0) scale(0.996264)"/>
    </g>
   </g>
   <g id="text_50">
    <!-- 36.40% -->
    <g transform="translate(459.376609 217.736344) rotate(-90) scale(0.1 -0.1)">
     <use xlink:href="#CMR17-33" transform="scale(0.996264)"/>
     <use xlink:href="#CMR17-36" transform="translate(45.690477 0) scale(0.996264)"/>
     <use xlink:href="#CMR17-2e" transform="translate(91.380954 0) scale(0.996264)"/>
     <use xlink:href="#CMR17-34" transform="translate(116.252013 0) scale(0.996264)"/>
     <use xlink:href="#CMR17-30" transform="translate(161.94249 0) scale(0.996264)"/>
    </g>
   </g>
   <g id="text_51">
    <!-- 44.44% -->
    <g transform="translate(484.556626 189.680744) rotate(-90) scale(0.1 -0.1)">
     <use xlink:href="#CMR17-34" transform="scale(0.996264)"/>
     <use xlink:href="#CMR17-34" transform="translate(45.690477 0) scale(0.996264)"/>
     <use xlink:href="#CMR17-2e" transform="translate(91.380954 0) scale(0.996264)"/>
     <use xlink:href="#CMR17-34" transform="translate(116.252013 0) scale(0.996264)"/>
     <use xlink:href="#CMR17-34" transform="translate(161.94249 0) scale(0.996264)"/>
    </g>
   </g>
   <g id="text_52">
    <!-- 37.02% -->
    <g transform="translate(509.736643 215.565666) rotate(-90) scale(0.1 -0.1)">
     <use xlink:href="#CMR17-33" transform="scale(0.996264)"/>
     <use xlink:href="#CMR17-37" transform="translate(45.690477 0) scale(0.996264)"/>
     <use xlink:href="#CMR17-2e" transform="translate(91.380954 0) scale(0.996264)"/>
     <use xlink:href="#CMR17-30" transform="translate(116.252013 0) scale(0.996264)"/>
     <use xlink:href="#CMR17-32" transform="translate(161.94249 0) scale(0.996264)"/>
    </g>
   </g>
   <g id="text_53">
    <!-- 52.32% -->
    <g transform="translate(534.916659 162.205833) rotate(-90) scale(0.1 -0.1)">
     <use xlink:href="#CMR17-35" transform="scale(0.996264)"/>
     <use xlink:href="#CMR17-32" transform="translate(45.690477 0) scale(0.996264)"/>
     <use xlink:href="#CMR17-2e" transform="translate(91.380954 0) scale(0.996264)"/>
     <use xlink:href="#CMR17-33" transform="translate(116.252013 0) scale(0.996264)"/>
     <use xlink:href="#CMR17-32" transform="translate(161.94249 0) scale(0.996264)"/>
    </g>
   </g>
   <g id="text_54">
    <!-- 46.57% -->
    <g transform="translate(560.096676 182.261555) rotate(-90) scale(0.1 -0.1)">
     <use xlink:href="#CMR17-34" transform="scale(0.996264)"/>
     <use xlink:href="#CMR17-36" transform="translate(45.690477 0) scale(0.996264)"/>
     <use xlink:href="#CMR17-2e" transform="translate(91.380954 0) scale(0.996264)"/>
     <use xlink:href="#CMR17-35" transform="translate(116.252013 0) scale(0.996264)"/>
     <use xlink:href="#CMR17-37" transform="translate(161.94249 0) scale(0.996264)"/>
    </g>
   </g>
   <g id="text_55">
    <!-- 16.22% -->
    <g transform="translate(585.276693 288.128317) rotate(-90) scale(0.1 -0.1)">
     <use xlink:href="#CMR17-31" transform="scale(0.996264)"/>
     <use xlink:href="#CMR17-36" transform="translate(45.690477 0) scale(0.996264)"/>
     <use xlink:href="#CMR17-2e" transform="translate(91.380954 0) scale(0.996264)"/>
     <use xlink:href="#CMR17-32" transform="translate(116.252013 0) scale(0.996264)"/>
     <use xlink:href="#CMR17-32" transform="translate(161.94249 0) scale(0.996264)"/>
    </g>
   </g>
   <g id="text_56">
    <!-- 42.92% -->
    <g transform="translate(610.45671 195.002373) rotate(-90) scale(0.1 -0.1)">
     <use xlink:href="#CMR17-34" transform="scale(0.996264)"/>
     <use xlink:href="#CMR17-32" transform="translate(45.690477 0) scale(0.996264)"/>
     <use xlink:href="#CMR17-2e" transform="translate(91.380954 0) scale(0.996264)"/>
     <use xlink:href="#CMR17-39" transform="translate(116.252013 0) scale(0.996264)"/>
     <use xlink:href="#CMR17-32" transform="translate(161.94249 0) scale(0.996264)"/>
    </g>
   </g>
   <g id="text_57">
    <!-- 62.15% -->
    <g transform="translate(635.636727 127.91638) rotate(-90) scale(0.1 -0.1)">
     <use xlink:href="#CMR17-36" transform="scale(0.996264)"/>
     <use xlink:href="#CMR17-32" transform="translate(45.690477 0) scale(0.996264)"/>
     <use xlink:href="#CMR17-2e" transform="translate(91.380954 0) scale(0.996264)"/>
     <use xlink:href="#CMR17-31" transform="translate(116.252013 0) scale(0.996264)"/>
     <use xlink:href="#CMR17-35" transform="translate(161.94249 0) scale(0.996264)"/>
    </g>
   </g>
   <g id="text_58">
    <!-- 85.00% -->
    <g transform="translate(660.816744 48.19092) rotate(-90) scale(0.1 -0.1)">
     <use xlink:href="#CMR17-38" transform="scale(0.996264)"/>
     <use xlink:href="#CMR17-35" transform="translate(45.690477 0) scale(0.996264)"/>
     <use xlink:href="#CMR17-2e" transform="translate(91.380954 0) scale(0.996264)"/>
     <use xlink:href="#CMR17-30" transform="translate(116.252013 0) scale(0.996264)"/>
     <use xlink:href="#CMR17-30" transform="translate(161.94249 0) scale(0.996264)"/>
    </g>
   </g>
   <g id="text_59">
    <!-- 52.15% -->
    <g transform="translate(685.99676 162.77765) rotate(-90) scale(0.1 -0.1)">
     <use xlink:href="#CMR17-35" transform="scale(0.996264)"/>
     <use xlink:href="#CMR17-32" transform="translate(45.690477 0) scale(0.996264)"/>
     <use xlink:href="#CMR17-2e" transform="translate(91.380954 0) scale(0.996264)"/>
     <use xlink:href="#CMR17-31" transform="translate(116.252013 0) scale(0.996264)"/>
     <use xlink:href="#CMR17-35" transform="translate(161.94249 0) scale(0.996264)"/>
    </g>
   </g>
   <g id="text_60">
    <!-- 36.38% -->
    <g transform="translate(711.176777 217.792725) rotate(-90) scale(0.1 -0.1)">
     <use xlink:href="#CMR17-33" transform="scale(0.996264)"/>
     <use xlink:href="#CMR17-36" transform="translate(45.690477 0) scale(0.996264)"/>
     <use xlink:href="#CMR17-2e" transform="translate(91.380954 0) scale(0.996264)"/>
     <use xlink:href="#CMR17-33" transform="translate(116.252013 0) scale(0.996264)"/>
     <use xlink:href="#CMR17-38" transform="translate(161.94249 0) scale(0.996264)"/>
    </g>
   </g>
   <g id="text_61">
    <!-- 19.68% -->
    <g transform="translate(736.356794 276.065551) rotate(-90) scale(0.1 -0.1)">
     <use xlink:href="#CMR17-31" transform="scale(0.996264)"/>
     <use xlink:href="#CMR17-39" transform="translate(45.690477 0) scale(0.996264)"/>
     <use xlink:href="#CMR17-2e" transform="translate(91.380954 0) scale(0.996264)"/>
     <use xlink:href="#CMR17-36" transform="translate(116.252013 0) scale(0.996264)"/>
     <use xlink:href="#CMR17-38" transform="translate(161.94249 0) scale(0.996264)"/>
    </g>
   </g>
   <g id="text_62">
    <!-- 37.01% -->
    <g transform="translate(761.536811 215.605679) rotate(-90) scale(0.1 -0.1)">
     <use xlink:href="#CMR17-33" transform="scale(0.996264)"/>
     <use xlink:href="#CMR17-37" transform="translate(45.690477 0) scale(0.996264)"/>
     <use xlink:href="#CMR17-2e" transform="translate(91.380954 0) scale(0.996264)"/>
     <use xlink:href="#CMR17-30" transform="translate(116.252013 0) scale(0.996264)"/>
     <use xlink:href="#CMR17-31" transform="translate(161.94249 0) scale(0.996264)"/>
    </g>
   </g>
   <g id="text_63">
    <!-- 48.59% -->
    <g transform="translate(786.716828 175.194416) rotate(-90) scale(0.1 -0.1)">
     <use xlink:href="#CMR17-34" transform="scale(0.996264)"/>
     <use xlink:href="#CMR17-38" transform="translate(45.690477 0) scale(0.996264)"/>
     <use xlink:href="#CMR17-2e" transform="translate(91.380954 0) scale(0.996264)"/>
     <use xlink:href="#CMR17-35" transform="translate(116.252013 0) scale(0.996264)"/>
     <use xlink:href="#CMR17-39" transform="translate(161.94249 0) scale(0.996264)"/>
    </g>
   </g>
   <g id="text_64">
    <!-- 0.00% -->
    <g transform="translate(115.669379 344.720982) rotate(-90) scale(0.1 -0.1)">
     <use xlink:href="#CMR17-30" transform="scale(0.996264)"/>
     <use xlink:href="#CMR17-2e" transform="translate(45.690477 0) scale(0.996264)"/>
     <use xlink:href="#CMR17-30" transform="translate(70.561536 0) scale(0.996264)"/>
     <use xlink:href="#CMR17-30" transform="translate(116.252013 0) scale(0.996264)"/>
    </g>
   </g>
   <g id="text_65">
    <!-- 24.75% -->
    <g transform="translate(140.849396 258.36977) rotate(-90) scale(0.1 -0.1)">
     <use xlink:href="#CMR17-32" transform="scale(0.996264)"/>
     <use xlink:href="#CMR17-34" transform="translate(45.690477 0) scale(0.996264)"/>
     <use xlink:href="#CMR17-2e" transform="translate(91.380954 0) scale(0.996264)"/>
     <use xlink:href="#CMR17-37" transform="translate(116.252013 0) scale(0.996264)"/>
     <use xlink:href="#CMR17-35" transform="translate(161.94249 0) scale(0.996264)"/>
    </g>
   </g>
   <g id="text_66">
    <!-- 30.59% -->
    <g transform="translate(166.029413 237.989017) rotate(-90) scale(0.1 -0.1)">
     <use xlink:href="#CMR17-33" transform="scale(0.996264)"/>
     <use xlink:href="#CMR17-30" transform="translate(45.690477 0) scale(0.996264)"/>
     <use xlink:href="#CMR17-2e" transform="translate(91.380954 0) scale(0.996264)"/>
     <use xlink:href="#CMR17-35" transform="translate(116.252013 0) scale(0.996264)"/>
     <use xlink:href="#CMR17-39" transform="translate(161.94249 0) scale(0.996264)"/>
    </g>
   </g>
   <g id="text_67">
    <!-- 26.58% -->
    <g transform="translate(191.209429 252.006231) rotate(-90) scale(0.1 -0.1)">
     <use xlink:href="#CMR17-32" transform="scale(0.996264)"/>
     <use xlink:href="#CMR17-36" transform="translate(45.690477 0) scale(0.996264)"/>
     <use xlink:href="#CMR17-2e" transform="translate(91.380954 0) scale(0.996264)"/>
     <use xlink:href="#CMR17-35" transform="translate(116.252013 0) scale(0.996264)"/>
     <use xlink:href="#CMR17-38" transform="translate(161.94249 0) scale(0.996264)"/>
    </g>
   </g>
   <g id="text_68">
    <!-- 0.67% -->
    <g transform="translate(216.389446 342.395256) rotate(-90) scale(0.1 -0.1)">
     <use xlink:href="#CMR17-30" transform="scale(0.996264)"/>
     <use xlink:href="#CMR17-2e" transform="translate(45.690477 0) scale(0.996264)"/>
     <use xlink:href="#CMR17-36" transform="translate(70.561536 0) scale(0.996264)"/>
     <use xlink:href="#CMR17-37" transform="translate(116.252013 0) scale(0.996264)"/>
    </g>
   </g>
   <g id="text_69">
    <!-- 60.63% -->
    <g transform="translate(241.569463 133.211209) rotate(-90) scale(0.1 -0.1)">
     <use xlink:href="#CMR17-36" transform="scale(0.996264)"/>
     <use xlink:href="#CMR17-30" transform="translate(45.690477 0) scale(0.996264)"/>
     <use xlink:href="#CMR17-2e" transform="translate(91.380954 0) scale(0.996264)"/>
     <use xlink:href="#CMR17-36" transform="translate(116.252013 0) scale(0.996264)"/>
     <use xlink:href="#CMR17-33" transform="translate(161.94249 0) scale(0.996264)"/>
    </g>
   </g>
   <g id="text_70">
    <!-- 53.53% -->
    <g transform="translate(266.74948 157.978867) rotate(-90) scale(0.1 -0.1)">
     <use xlink:href="#CMR17-35" transform="scale(0.996264)"/>
     <use xlink:href="#CMR17-33" transform="translate(45.690477 0) scale(0.996264)"/>
     <use xlink:href="#CMR17-2e" transform="translate(91.380954 0) scale(0.996264)"/>
     <use xlink:href="#CMR17-35" transform="translate(116.252013 0) scale(0.996264)"/>
     <use xlink:href="#CMR17-33" transform="translate(161.94249 0) scale(0.996264)"/>
    </g>
   </g>
   <g id="text_71">
    <!-- 21.67% -->
    <g transform="translate(291.929497 269.134888) rotate(-90) scale(0.1 -0.1)">
     <use xlink:href="#CMR17-32" transform="scale(0.996264)"/>
     <use xlink:href="#CMR17-31" transform="translate(45.690477 0) scale(0.996264)"/>
     <use xlink:href="#CMR17-2e" transform="translate(91.380954 0) scale(0.996264)"/>
     <use xlink:href="#CMR17-36" transform="translate(116.252013 0) scale(0.996264)"/>
     <use xlink:href="#CMR17-37" transform="translate(161.94249 0) scale(0.996264)"/>
    </g>
   </g>
   <g id="text_72">
    <!-- 34.29% -->
    <g transform="translate(317.109514 225.092864) rotate(-90) scale(0.1 -0.1)">
     <use xlink:href="#CMR17-33" transform="scale(0.996264)"/>
     <use xlink:href="#CMR17-34" transform="translate(45.690477 0) scale(0.996264)"/>
     <use xlink:href="#CMR17-2e" transform="translate(91.380954 0) scale(0.996264)"/>
     <use xlink:href="#CMR17-32" transform="translate(116.252013 0) scale(0.996264)"/>
     <use xlink:href="#CMR17-39" transform="translate(161.94249 0) scale(0.996264)"/>
    </g>
   </g>
   <g id="text_73">
    <!-- 46.89% -->
    <g transform="translate(342.28953 181.137246) rotate(-90) scale(0.1 -0.1)">
     <use xlink:href="#CMR17-34" transform="scale(0.996264)"/>
     <use xlink:href="#CMR17-36" transform="translate(45.690477 0) scale(0.996264)"/>
     <use xlink:href="#CMR17-2e" transform="translate(91.380954 0) scale(0.996264)"/>
     <use xlink:href="#CMR17-38" transform="translate(116.252013 0) scale(0.996264)"/>
     <use xlink:href="#CMR17-39" transform="translate(161.94249 0) scale(0.996264)"/>
    </g>
   </g>
   <g id="text_74">
    <!-- 32.99% -->
    <g transform="translate(367.469547 229.636744) rotate(-90) scale(0.1 -0.1)">
     <use xlink:href="#CMR17-33" transform="scale(0.996264)"/>
     <use xlink:href="#CMR17-32" transform="translate(45.690477 0) scale(0.996264)"/>
     <use xlink:href="#CMR17-2e" transform="translate(91.380954 0) scale(0.996264)"/>
     <use xlink:href="#CMR17-39" transform="translate(116.252013 0) scale(0.996264)"/>
     <use xlink:href="#CMR17-39" transform="translate(161.94249 0) scale(0.996264)"/>
    </g>
   </g>
   <g id="text_75">
    <!-- 43.71% -->
    <g transform="translate(392.649564 192.235884) rotate(-90) scale(0.1 -0.1)">
     <use xlink:href="#CMR17-34" transform="scale(0.996264)"/>
     <use xlink:href="#CMR17-33" transform="translate(45.690477 0) scale(0.996264)"/>
     <use xlink:href="#CMR17-2e" transform="translate(91.380954 0) scale(0.996264)"/>
     <use xlink:href="#CMR17-37" transform="translate(116.252013 0) scale(0.996264)"/>
     <use xlink:href="#CMR17-31" transform="translate(161.94249 0) scale(0.996264)"/>
    </g>
   </g>
   <g id="text_76">
    <!-- 39.18% -->
    <g transform="translate(417.829581 208.036923) rotate(-90) scale(0.1 -0.1)">
     <use xlink:href="#CMR17-33" transform="scale(0.996264)"/>
     <use xlink:href="#CMR17-39" transform="translate(45.690477 0) scale(0.996264)"/>
     <use xlink:href="#CMR17-2e" transform="translate(91.380954 0) scale(0.996264)"/>
     <use xlink:href="#CMR17-31" transform="translate(116.252013 0) scale(0.996264)"/>
     <use xlink:href="#CMR17-38" transform="translate(161.94249 0) scale(0.996264)"/>
    </g>
   </g>
   <g id="text_77">
    <!-- 35.92% -->
    <g transform="translate(443.009598 219.395069) rotate(-90) scale(0.1 -0.1)">
     <use xlink:href="#CMR17-33" transform="scale(0.996264)"/>
     <use xlink:href="#CMR17-35" transform="translate(45.690477 0) scale(0.996264)"/>
     <use xlink:href="#CMR17-2e" transform="translate(91.380954 0) scale(0.996264)"/>
     <use xlink:href="#CMR17-39" transform="translate(116.252013 0) scale(0.996264)"/>
     <use xlink:href="#CMR17-32" transform="translate(161.94249 0) scale(0.996264)"/>
    </g>
   </g>
   <g id="text_78">
    <!-- 25.42% -->
    <g transform="translate(468.189615 256.041051) rotate(-90) scale(0.1 -0.1)">
     <use xlink:href="#CMR17-32" transform="scale(0.996264)"/>
     <use xlink:href="#CMR17-35" transform="translate(45.690477 0) scale(0.996264)"/>
     <use xlink:href="#CMR17-2e" transform="translate(91.380954 0) scale(0.996264)"/>
     <use xlink:href="#CMR17-34" transform="translate(116.252013 0) scale(0.996264)"/>
     <use xlink:href="#CMR17-32" transform="translate(161.94249 0) scale(0.996264)"/>
    </g>
   </g>
   <g id="text_79">
    <!-- 30.11% -->
    <g transform="translate(493.369632 239.696093) rotate(-90) scale(0.1 -0.1)">
     <use xlink:href="#CMR17-33" transform="scale(0.996264)"/>
     <use xlink:href="#CMR17-30" transform="translate(45.690477 0) scale(0.996264)"/>
     <use xlink:href="#CMR17-2e" transform="translate(91.380954 0) scale(0.996264)"/>
     <use xlink:href="#CMR17-31" transform="translate(116.252013 0) scale(0.996264)"/>
     <use xlink:href="#CMR17-31" transform="translate(161.94249 0) scale(0.996264)"/>
    </g>
   </g>
   <g id="text_80">
    <!-- 27.40% -->
    <g transform="translate(518.549648 249.133645) rotate(-90) scale(0.1 -0.1)">
     <use xlink:href="#CMR17-32" transform="scale(0.996264)"/>
     <use xlink:href="#CMR17-37" transform="translate(45.690477 0) scale(0.996264)"/>
     <use xlink:href="#CMR17-2e" transform="translate(91.380954 0) scale(0.996264)"/>
     <use xlink:href="#CMR17-34" transform="translate(116.252013 0) scale(0.996264)"/>
     <use xlink:href="#CMR17-30" transform="translate(161.94249 0) scale(0.996264)"/>
    </g>
   </g>
   <g id="text_81">
    <!-- 37.78% -->
    <g transform="translate(543.729665 212.937089) rotate(-90) scale(0.1 -0.1)">
     <use xlink:href="#CMR17-33" transform="scale(0.996264)"/>
     <use xlink:href="#CMR17-37" transform="translate(45.690477 0) scale(0.996264)"/>
     <use xlink:href="#CMR17-2e" transform="translate(91.380954 0) scale(0.996264)"/>
     <use xlink:href="#CMR17-37" transform="translate(116.252013 0) scale(0.996264)"/>
     <use xlink:href="#CMR17-38" transform="translate(161.94249 0) scale(0.996264)"/>
    </g>
   </g>
   <g id="text_82">
    <!-- 30.35% -->
    <g transform="translate(568.909682 238.847108) rotate(-90) scale(0.1 -0.1)">
     <use xlink:href="#CMR17-33" transform="scale(0.996264)"/>
     <use xlink:href="#CMR17-30" transform="translate(45.690477 0) scale(0.996264)"/>
     <use xlink:href="#CMR17-2e" transform="translate(91.380954 0) scale(0.996264)"/>
     <use xlink:href="#CMR17-33" transform="translate(116.252013 0) scale(0.996264)"/>
     <use xlink:href="#CMR17-35" transform="translate(161.94249 0) scale(0.996264)"/>
    </g>
   </g>
   <g id="text_83">
    <!-- 9.43% -->
    <g transform="translate(594.089699 311.816267) rotate(-90) scale(0.1 -0.1)">
     <use xlink:href="#CMR17-39" transform="scale(0.996264)"/>
     <use xlink:href="#CMR17-2e" transform="translate(45.690477 0) scale(0.996264)"/>
     <use xlink:href="#CMR17-34" transform="translate(70.561536 0) scale(0.996264)"/>
     <use xlink:href="#CMR17-33" transform="translate(116.252013 0) scale(0.996264)"/>
    </g>
   </g>
   <g id="text_84">
    <!-- 32.38% -->
    <g transform="translate(619.269716 231.777915) rotate(-90) scale(0.1 -0.1)">
     <use xlink:href="#CMR17-33" transform="scale(0.996264)"/>
     <use xlink:href="#CMR17-32" transform="translate(45.690477 0) scale(0.996264)"/>
     <use xlink:href="#CMR17-2e" transform="translate(91.380954 0) scale(0.996264)"/>
     <use xlink:href="#CMR17-33" transform="translate(116.252013 0) scale(0.996264)"/>
     <use xlink:href="#CMR17-38" transform="translate(161.94249 0) scale(0.996264)"/>
    </g>
   </g>
   <g id="text_85">
    <!-- 38.46% -->
    <g transform="translate(644.449733 210.554331) rotate(-90) scale(0.1 -0.1)">
     <use xlink:href="#CMR17-33" transform="scale(0.996264)"/>
     <use xlink:href="#CMR17-38" transform="translate(45.690477 0) scale(0.996264)"/>
     <use xlink:href="#CMR17-2e" transform="translate(91.380954 0) scale(0.996264)"/>
     <use xlink:href="#CMR17-34" transform="translate(116.252013 0) scale(0.996264)"/>
     <use xlink:href="#CMR17-36" transform="translate(161.94249 0) scale(0.996264)"/>
    </g>
   </g>
   <g id="text_86">
    <!-- 81.53% -->
    <g transform="translate(669.629749 60.312289) rotate(-90) scale(0.1 -0.1)">
     <use xlink:href="#CMR17-38" transform="scale(0.996264)"/>
     <use xlink:href="#CMR17-31" transform="translate(45.690477 0) scale(0.996264)"/>
     <use xlink:href="#CMR17-2e" transform="translate(91.380954 0) scale(0.996264)"/>
     <use xlink:href="#CMR17-35" transform="translate(116.252013 0) scale(0.996264)"/>
     <use xlink:href="#CMR17-33" transform="translate(161.94249 0) scale(0.996264)"/>
    </g>
   </g>
   <g id="text_87">
    <!-- 63.56% -->
    <g transform="translate(694.809766 122.994318) rotate(-90) scale(0.1 -0.1)">
     <use xlink:href="#CMR17-36" transform="scale(0.996264)"/>
     <use xlink:href="#CMR17-33" transform="translate(45.690477 0) scale(0.996264)"/>
     <use xlink:href="#CMR17-2e" transform="translate(91.380954 0) scale(0.996264)"/>
     <use xlink:href="#CMR17-35" transform="translate(116.252013 0) scale(0.996264)"/>
     <use xlink:href="#CMR17-36" transform="translate(161.94249 0) scale(0.996264)"/>
    </g>
   </g>
   <g id="text_88">
    <!-- 27.45% -->
    <g transform="translate(719.989783 248.943358) rotate(-90) scale(0.1 -0.1)">
     <use xlink:href="#CMR17-32" transform="scale(0.996264)"/>
     <use xlink:href="#CMR17-37" transform="translate(45.690477 0) scale(0.996264)"/>
     <use xlink:href="#CMR17-2e" transform="translate(91.380954 0) scale(0.996264)"/>
     <use xlink:href="#CMR17-34" transform="translate(116.252013 0) scale(0.996264)"/>
     <use xlink:href="#CMR17-35" transform="translate(161.94249 0) scale(0.996264)"/>
    </g>
   </g>
   <g id="text_89">
    <!-- 19.06% -->
    <g transform="translate(745.1698 278.228477) rotate(-90) scale(0.1 -0.1)">
     <use xlink:href="#CMR17-31" transform="scale(0.996264)"/>
     <use xlink:href="#CMR17-39" transform="translate(45.690477 0) scale(0.996264)"/>
     <use xlink:href="#CMR17-2e" transform="translate(91.380954 0) scale(0.996264)"/>
     <use xlink:href="#CMR17-30" transform="translate(116.252013 0) scale(0.996264)"/>
     <use xlink:href="#CMR17-36" transform="translate(161.94249 0) scale(0.996264)"/>
    </g>
   </g>
   <g id="text_90">
    <!-- 12.90% -->
    <g transform="translate(770.349817 299.706931) rotate(-90) scale(0.1 -0.1)">
     <use xlink:href="#CMR17-31" transform="scale(0.996264)"/>
     <use xlink:href="#CMR17-32" transform="translate(45.690477 0) scale(0.996264)"/>
     <use xlink:href="#CMR17-2e" transform="translate(91.380954 0) scale(0.996264)"/>
     <use xlink:href="#CMR17-39" transform="translate(116.252013 0) scale(0.996264)"/>
     <use xlink:href="#CMR17-30" transform="translate(161.94249 0) scale(0.996264)"/>
    </g>
   </g>
   <g id="text_91">
    <!-- 15.66% -->
    <g transform="translate(795.529834 290.097851) rotate(-90) scale(0.1 -0.1)">
     <use xlink:href="#CMR17-31" transform="scale(0.996264)"/>
     <use xlink:href="#CMR17-35" transform="translate(45.690477 0) scale(0.996264)"/>
     <use xlink:href="#CMR17-2e" transform="translate(91.380954 0) scale(0.996264)"/>
     <use xlink:href="#CMR17-36" transform="translate(116.252013 0) scale(0.996264)"/>
     <use xlink:href="#CMR17-36" transform="translate(161.94249 0) scale(0.996264)"/>
    </g>
   </g>
   <g id="legend_1">
    <g id="patch_63">
     <path d="M 91.629589 71.419144 
L 383.655511 71.419144 
Q 386.855511 71.419144 386.855511 68.219144 
L 386.855511 25.220191 
Q 386.855511 22.020191 383.655511 22.020191 
L 91.629589 22.020191 
Q 88.429589 22.020191 88.429589 25.220191 
L 88.429589 68.219144 
Q 88.429589 71.419144 91.629589 71.419144 
z
" style="fill: #ffffff; stroke: #000000; stroke-width: 0.5; stroke-linejoin: miter"/>
    </g>
    <g id="patch_64">
     <path d="M 94.829589 39.620191 
L 126.829589 39.620191 
L 126.829589 28.420191 
L 94.829589 28.420191 
z
" style="fill: #fe9f6d; opacity: 0.7"/>
    </g>
    <g id="text_92">
     <!-- Human-Scheduling Approach -->
     <g transform="translate(139.629589 39.620191) scale(0.16 -0.16)">
      <defs>
       <path id="CMR17-48" d="M 3590 3905 
C 3590 4192 3661 4192 4102 4192 
L 4102 4352 
C 3917 4352 3578 4352 3379 4352 
C 3181 4352 2842 4352 2656 4352 
L 2656 4192 
C 3098 4192 3168 4192 3168 3904 
L 3168 2341 
L 1261 2341 
L 1261 3904 
C 1261 4192 1331 4192 1773 4192 
L 1773 4352 
C 1587 4352 1248 4352 1050 4352 
C 851 4352 512 4352 326 4352 
L 326 4192 
C 768 4192 838 4192 838 3905 
L 838 447 
C 838 160 768 160 326 160 
L 326 0 
C 512 0 851 0 1050 0 
C 1248 0 1587 0 1773 0 
L 1773 160 
C 1331 160 1261 160 1261 446 
L 1261 2176 
L 3168 2176 
L 3168 446 
C 3168 160 3098 160 2656 160 
L 2656 0 
C 2842 0 3181 0 3379 0 
C 3578 0 3917 0 4102 0 
L 4102 160 
C 3661 160 3590 160 3590 447 
L 3590 3905 
z
" transform="scale(0.015625)"/>
       <path id="CMR17-75" d="M 1882 2693 
L 1882 2528 
C 2259 2528 2317 2489 2317 2186 
L 2317 1032 
C 2317 500 2029 38 1555 38 
C 1030 38 986 348 986 678 
L 986 2763 
L 211 2693 
L 211 2528 
C 467 2528 640 2528 646 2274 
L 646 1058 
C 646 633 646 361 813 183 
C 896 101 1056 -64 1517 -64 
C 2061 -64 2272 377 2323 506 
L 2330 506 
L 2330 -63 
L 3091 -63 
L 3091 128 
C 2714 128 2656 166 2656 473 
L 2656 2763 
L 1882 2693 
z
" transform="scale(0.015625)"/>
       <path id="CMR17-6d" d="M 4326 1933 
C 4326 2252 4269 2790 3507 2790 
C 3072 2790 2771 2496 2656 2151 
L 2650 2151 
C 2573 2676 2195 2790 1837 2790 
C 1331 2790 1069 2400 973 2144 
L 966 2144 
L 966 2790 
L 211 2720 
L 211 2554 
C 589 2554 646 2515 646 2208 
L 646 428 
C 646 184 621 153 211 153 
L 211 -13 
C 365 0 646 0 813 0 
C 979 0 1267 0 1421 -13 
L 1421 153 
C 1011 153 986 178 986 428 
L 986 1658 
C 986 2247 1344 2688 1792 2688 
C 2266 2688 2317 2266 2317 1958 
L 2317 428 
C 2317 184 2291 153 1882 153 
L 1882 -13 
C 2035 0 2317 0 2483 0 
C 2650 0 2938 0 3091 -13 
L 3091 153 
C 2682 153 2656 178 2656 428 
L 2656 1658 
C 2656 2247 3014 2688 3462 2688 
C 3936 2688 3987 2266 3987 1958 
L 3987 428 
C 3987 184 3962 153 3552 153 
L 3552 -13 
C 3706 0 3987 0 4154 0 
C 4320 0 4608 0 4762 -13 
L 4762 153 
C 4352 153 4326 178 4326 428 
L 4326 1933 
z
" transform="scale(0.015625)"/>
       <path id="CMR17-2d" d="M 1632 1216 
L 1632 1496 
L 26 1496 
L 26 1216 
L 1632 1216 
z
" transform="scale(0.015625)"/>
       <path id="CMR17-53" d="M 2803 4290 
C 2803 4404 2797 4411 2758 4411 
C 2720 4411 2707 4385 2682 4328 
L 2490 3907 
C 2246 4257 1875 4416 1472 4416 
C 819 4416 294 3901 294 3253 
C 294 3056 339 2776 557 2510 
C 794 2218 1018 2167 1530 2033 
C 1722 1982 2042 1899 2106 1874 
C 2470 1722 2662 1341 2662 985 
C 2662 527 2336 38 1779 38 
C 1094 38 454 419 410 1311 
C 403 1413 397 1419 352 1419 
C 301 1419 294 1413 294 1285 
L 294 -1 
C 294 -115 301 -122 339 -122 
C 384 -122 397 -90 486 108 
C 493 127 493 140 614 381 
C 934 -39 1472 -128 1779 -128 
C 2477 -128 2970 451 2970 1124 
C 2970 1454 2848 1708 2778 1823 
C 2509 2230 2221 2306 1914 2382 
C 1869 2402 1856 2402 1498 2490 
C 1152 2579 1005 2624 845 2796 
C 666 2992 602 3196 602 3399 
C 602 3812 934 4263 1478 4263 
C 2157 4263 2579 3786 2675 2993 
C 2694 2878 2701 2872 2746 2872 
C 2803 2872 2803 2891 2803 2999 
L 2803 4290 
z
" transform="scale(0.015625)"/>
       <path id="CMR17-68" d="M 2656 1933 
C 2656 2259 2592 2790 1837 2790 
C 1312 2790 1056 2368 979 2157 
L 973 2157 
L 973 4396 
L 211 4326 
L 211 4160 
C 589 4160 646 4122 646 3817 
L 646 426 
C 646 184 621 153 211 153 
L 211 -13 
C 365 0 646 0 813 0 
C 979 0 1267 0 1421 -13 
L 1421 153 
C 1011 153 986 178 986 428 
L 986 1658 
C 986 2247 1344 2688 1792 2688 
C 2266 2688 2317 2266 2317 1958 
L 2317 428 
C 2317 184 2291 153 1882 153 
L 1882 -13 
C 2035 0 2317 0 2483 0 
C 2650 0 2938 0 3091 -13 
L 3091 153 
C 2682 153 2656 178 2656 428 
L 2656 1933 
z
" transform="scale(0.015625)"/>
       <path id="CMR17-41" d="M 2323 4378 
C 2291 4461 2278 4480 2214 4480 
C 2150 4480 2138 4461 2106 4378 
L 749 566 
C 627 223 371 153 147 153 
L 147 -13 
C 262 0 518 0 640 0 
C 800 0 1056 0 1210 -13 
L 1210 153 
C 909 153 864 361 864 439 
C 864 497 877 530 890 569 
L 1229 1536 
L 2906 1536 
L 3290 442 
C 3322 365 3322 352 3322 327 
C 3322 153 3046 153 2925 153 
L 2925 0 
C 3110 0 3443 0 3642 0 
C 3808 0 4128 0 4282 -13 
L 4282 153 
C 3942 153 3827 153 3744 387 
L 2323 4378 
z
M 2067 3893 
L 2848 1702 
L 1286 1702 
L 2067 3893 
z
" transform="scale(0.015625)"/>
       <path id="CMR17-70" d="M 1408 -1063 
C 998 -1063 973 -1037 973 -789 
L 973 402 
C 1158 134 1427 -38 1766 -38 
C 2406 -38 3053 523 3053 1388 
C 3053 2191 2496 2802 1837 2802 
C 1453 2802 1139 2592 960 2338 
L 960 2802 
L 198 2732 
L 198 2567 
C 576 2567 634 2528 634 2223 
L 634 -789 
C 634 -1031 608 -1063 198 -1063 
L 198 -1228 
C 352 -1216 634 -1216 800 -1216 
C 966 -1216 1254 -1216 1408 -1228 
L 1408 -1063 
z
M 973 2012 
C 973 2102 973 2235 1222 2471 
C 1254 2497 1472 2688 1792 2688 
C 2259 2688 2643 2108 2643 1382 
C 2643 656 2234 64 1728 64 
C 1498 64 1248 172 1056 472 
C 973 612 973 650 973 752 
L 973 2012 
z
" transform="scale(0.015625)"/>
      </defs>
      <use xlink:href="#CMR17-48" transform="scale(0.996264)"/>
      <use xlink:href="#CMR17-75" transform="translate(69.07243 0) scale(0.996264)"/>
      <use xlink:href="#CMR17-6d" transform="translate(119.9678 0) scale(0.996264)"/>
      <use xlink:href="#CMR17-61" transform="translate(196.887389 0) scale(0.996264)"/>
      <use xlink:href="#CMR17-6e" transform="translate(242.577867 0) scale(0.996264)"/>
      <use xlink:href="#CMR17-2d" transform="translate(293.473236 0) scale(0.996264)"/>
      <use xlink:href="#CMR17-53" transform="translate(323.549203 0) scale(0.996264)"/>
      <use xlink:href="#CMR17-63" transform="translate(374.444572 0) scale(0.996264)"/>
      <use xlink:href="#CMR17-68" transform="translate(412.327779 0) scale(0.996264)"/>
      <use xlink:href="#CMR17-65" transform="translate(463.223149 0) scale(0.996264)"/>
      <use xlink:href="#CMR17-64" transform="translate(503.708809 0) scale(0.996264)"/>
      <use xlink:href="#CMR17-75" transform="translate(554.604179 0) scale(0.996264)"/>
      <use xlink:href="#CMR17-6c" transform="translate(605.499549 0) scale(0.996264)"/>
      <use xlink:href="#CMR17-69" transform="translate(630.370607 0) scale(0.996264)"/>
      <use xlink:href="#CMR17-6e" transform="translate(655.241666 0) scale(0.996264)"/>
      <use xlink:href="#CMR17-67" transform="translate(706.137036 0) scale(0.996264)"/>
      <use xlink:href="#CMR17-41" transform="translate(781.903479 0) scale(0.996264)"/>
      <use xlink:href="#CMR17-70" transform="translate(850.975909 0) scale(0.996264)"/>
      <use xlink:href="#CMR17-70" transform="translate(901.871279 0) scale(0.996264)"/>
      <use xlink:href="#CMR17-72" transform="translate(952.766648 0) scale(0.996264)"/>
      <use xlink:href="#CMR17-6f" transform="translate(988.047416 0) scale(0.996264)"/>
      <use xlink:href="#CMR17-61" transform="translate(1033.737893 0) scale(0.996264)"/>
      <use xlink:href="#CMR17-63" transform="translate(1079.42837 0) scale(0.996264)"/>
      <use xlink:href="#CMR17-68" transform="translate(1117.311577 0) scale(0.996264)"/>
     </g>
    </g>
    <g id="patch_65">
     <path d="M 94.829589 61.919668 
L 126.829589 61.919668 
L 126.829589 50.719668 
L 94.829589 50.719668 
z
" style="fill: #3b0f70; opacity: 0.7"/>
    </g>
    <g id="text_93">
     <!-- Machine-Like Scheduling Approach -->
     <g transform="translate(139.629589 61.919668) scale(0.16 -0.16)">
      <defs>
       <path id="CMR17-4d" d="M 1338 4224 
C 1299 4320 1293 4320 1158 4320 
L 339 4320 
L 339 4160 
C 781 4160 851 4160 851 3875 
L 851 610 
C 851 451 851 153 339 153 
L 339 -13 
C 486 0 755 0 915 0 
C 1075 0 1344 0 1491 -13 
L 1491 153 
C 979 153 979 451 979 610 
L 979 4135 
L 986 4135 
L 2490 89 
C 2515 25 2528 -13 2579 -13 
C 2630 -13 2643 25 2669 89 
L 4186 4166 
L 4192 4166 
L 4192 438 
C 4192 153 4122 153 3680 153 
L 3680 -13 
C 3853 0 4198 0 4384 0 
C 4570 0 4922 0 5094 -13 
L 5094 153 
C 4653 153 4582 153 4582 438 
L 4582 3875 
C 4582 4160 4653 4160 5094 4160 
L 5094 4320 
L 4282 4320 
C 4147 4320 4141 4314 4102 4218 
L 2720 502 
L 1338 4224 
z
" transform="scale(0.015625)"/>
       <path id="CMR17-4c" d="M 3469 1615 
L 3354 1615 
C 3302 983 3219 166 2125 166 
L 1530 166 
C 1274 166 1261 197 1261 414 
L 1261 3898 
C 1261 4129 1274 4192 1760 4192 
L 1901 4192 
L 1901 4352 
C 1638 4352 1331 4352 1069 4352 
C 870 4352 512 4352 326 4352 
L 326 4192 
C 768 4192 838 4192 838 3905 
L 838 452 
C 838 166 768 166 326 166 
L 326 0 
L 3315 0 
L 3469 1615 
z
" transform="scale(0.015625)"/>
       <path id="CMR17-6b" d="M 1670 1673 
C 1664 1686 1632 1724 1632 1743 
C 1632 1756 2086 2171 2144 2222 
C 2509 2528 2739 2560 2906 2560 
L 2906 2733 
C 2867 2733 2854 2733 2848 2720 
L 2534 2720 
C 2355 2720 2080 2720 1907 2733 
L 1907 2566 
C 1997 2559 2061 2508 2061 2419 
C 2061 2291 1933 2170 1926 2170 
L 960 1289 
L 960 4396 
L 198 4326 
L 198 4160 
C 576 4160 634 4122 634 3817 
L 634 426 
C 634 184 608 153 198 153 
L 198 -13 
C 352 0 634 0 794 0 
C 954 0 1235 0 1389 -13 
L 1389 153 
C 979 153 954 178 954 428 
L 954 1130 
L 1395 1532 
L 2042 574 
C 2118 459 2182 369 2182 286 
C 2182 172 2067 153 1990 153 
L 1990 -13 
C 2144 0 2419 0 2579 0 
C 2694 0 2931 0 3040 0 
L 3040 153 
C 2739 153 2669 210 2477 491 
L 1670 1673 
z
" transform="scale(0.015625)"/>
      </defs>
      <use xlink:href="#CMR17-4d" transform="scale(0.996264)"/>
      <use xlink:href="#CMR17-61" transform="translate(84.686941 0) scale(0.996264)"/>
      <use xlink:href="#CMR17-63" transform="translate(130.377418 0) scale(0.996264)"/>
      <use xlink:href="#CMR17-68" transform="translate(168.260624 0) scale(0.996264)"/>
      <use xlink:href="#CMR17-69" transform="translate(219.155994 0) scale(0.996264)"/>
      <use xlink:href="#CMR17-6e" transform="translate(244.027052 0) scale(0.996264)"/>
      <use xlink:href="#CMR17-65" transform="translate(294.922422 0) scale(0.996264)"/>
      <use xlink:href="#CMR17-2d" transform="translate(335.408083 0) scale(0.996264)"/>
      <use xlink:href="#CMR17-4c" transform="translate(365.484049 0) scale(0.996264)"/>
      <use xlink:href="#CMR17-69" transform="translate(422.865457 0) scale(0.996264)"/>
      <use xlink:href="#CMR17-6b" transform="translate(447.736515 0) scale(0.996264)"/>
      <use xlink:href="#CMR17-65" transform="translate(493.426977 0) scale(0.996264)"/>
      <use xlink:href="#CMR17-53" transform="translate(563.988604 0) scale(0.996264)"/>
      <use xlink:href="#CMR17-63" transform="translate(614.883974 0) scale(0.996264)"/>
      <use xlink:href="#CMR17-68" transform="translate(652.76718 0) scale(0.996264)"/>
      <use xlink:href="#CMR17-65" transform="translate(703.66255 0) scale(0.996264)"/>
      <use xlink:href="#CMR17-64" transform="translate(744.148211 0) scale(0.996264)"/>
      <use xlink:href="#CMR17-75" transform="translate(795.04358 0) scale(0.996264)"/>
      <use xlink:href="#CMR17-6c" transform="translate(845.93895 0) scale(0.996264)"/>
      <use xlink:href="#CMR17-69" transform="translate(870.810009 0) scale(0.996264)"/>
      <use xlink:href="#CMR17-6e" transform="translate(895.681067 0) scale(0.996264)"/>
      <use xlink:href="#CMR17-67" transform="translate(946.576437 0) scale(0.996264)"/>
      <use xlink:href="#CMR17-41" transform="translate(1022.34288 0) scale(0.996264)"/>
      <use xlink:href="#CMR17-70" transform="translate(1091.41531 0) scale(0.996264)"/>
      <use xlink:href="#CMR17-70" transform="translate(1142.31068 0) scale(0.996264)"/>
      <use xlink:href="#CMR17-72" transform="translate(1193.20605 0) scale(0.996264)"/>
      <use xlink:href="#CMR17-6f" transform="translate(1228.486818 0) scale(0.996264)"/>
      <use xlink:href="#CMR17-61" transform="translate(1274.177295 0) scale(0.996264)"/>
      <use xlink:href="#CMR17-63" transform="translate(1319.867772 0) scale(0.996264)"/>
      <use xlink:href="#CMR17-68" transform="translate(1357.750978 0) scale(0.996264)"/>
     </g>
    </g>
   </g>
  </g>
 </g>
 <defs>
  <clipPath id="pa931c6c041">
   <rect x="65.084887" y="7.2" width="767.235113" height="341.009571"/>
  </clipPath>
 </defs>
</svg>
