<?xml version="1.0" encoding="utf-8" standalone="no"?>
<!DOCTYPE svg PUBLIC "-//W3C//DTD SVG 1.1//EN"
  "http://www.w3.org/Graphics/SVG/1.1/DTD/svg11.dtd">
<svg xmlns:xlink="http://www.w3.org/1999/xlink" width="994.682065pt" height="431.76pt" viewBox="0 0 994.682065 431.76" xmlns="http://www.w3.org/2000/svg" version="1.1">
 <metadata>
  <rdf:RDF xmlns:dc="http://purl.org/dc/elements/1.1/" xmlns:cc="http://creativecommons.org/ns#" xmlns:rdf="http://www.w3.org/1999/02/22-rdf-syntax-ns#">
   <cc:Work>
    <dc:type rdf:resource="http://purl.org/dc/dcmitype/StillImage"/>
    <dc:date>2024-08-21T18:28:10.521572</dc:date>
    <dc:format>image/svg+xml</dc:format>
    <dc:creator>
     <cc:Agent>
      <dc:title>Matplotlib v3.9.0, https://matplotlib.org/</dc:title>
     </cc:Agent>
    </dc:creator>
   </cc:Work>
  </rdf:RDF>
 </metadata>
 <defs>
  <style type="text/css">*{stroke-linejoin: round; stroke-linecap: butt}</style>
 </defs>
 <g id="figure_1">
  <g id="patch_1">
   <path d="M 0 431.76 
L 994.682065 431.76 
L 994.682065 0 
L 0 0 
z
" style="fill: #ffffff"/>
  </g>
  <g id="axes_1">
   <g id="patch_2">
    <path d="M 43.171275 348.48 
L 491.305331 348.48 
L 491.305331 7.2 
L 43.171275 7.2 
z
" style="fill: #ffffff"/>
   </g>
   <g id="matplotlib.axis_1">
    <g id="xtick_1">
     <g id="line2d_1">
      <path d="M 49.665971 348.48 
L 49.665971 7.2 
" clip-path="url(#p843be172db)" style="fill: none; stroke: #cccccc; stroke-linecap: round"/>
     </g>
     <g id="text_1">
      <!-- $\mathdefault{0.00}$ -->
      <g style="fill: #262626" transform="translate(39.924699 365.590347) scale(0.11 -0.11)">
       <defs>
        <path id="CMR17-30" d="M 2688 2025 
C 2688 2416 2682 3080 2413 3591 
C 2176 4039 1798 4198 1466 4198 
C 1158 4198 768 4058 525 3597 
C 269 3118 243 2524 243 2025 
C 243 1661 250 1106 448 619 
C 723 -39 1216 -128 1466 -128 
C 1760 -128 2208 -7 2470 600 
C 2662 1042 2688 1559 2688 2025 
z
M 1466 -26 
C 1056 -26 813 325 723 812 
C 653 1188 653 1738 653 2096 
C 653 2588 653 2997 736 3387 
C 858 3929 1216 4096 1466 4096 
C 1728 4096 2067 3923 2189 3400 
C 2272 3036 2278 2607 2278 2096 
C 2278 1680 2278 1169 2202 792 
C 2067 95 1690 -26 1466 -26 
z
" transform="scale(0.015625)"/>
        <path id="CMMI12-3a" d="M 1178 307 
C 1178 492 1024 619 870 619 
C 685 619 557 466 557 313 
C 557 128 710 0 864 0 
C 1050 0 1178 153 1178 307 
z
" transform="scale(0.015625)"/>
       </defs>
       <use xlink:href="#CMR17-30" transform="scale(0.996264)"/>
       <use xlink:href="#CMMI12-3a" transform="translate(45.690477 0) scale(0.996264)"/>
       <use xlink:href="#CMR17-30" transform="translate(72.787654 0) scale(0.996264)"/>
       <use xlink:href="#CMR17-30" transform="translate(118.478131 0) scale(0.996264)"/>
      </g>
     </g>
    </g>
    <g id="xtick_2">
     <g id="line2d_2">
      <path d="M 136.261924 348.48 
L 136.261924 7.2 
" clip-path="url(#p843be172db)" style="fill: none; stroke: #cccccc; stroke-linecap: round"/>
     </g>
     <g id="text_2">
      <!-- $\mathdefault{0.02}$ -->
      <g style="fill: #262626" transform="translate(126.520652 365.590347) scale(0.11 -0.11)">
       <defs>
        <path id="CMR17-32" d="M 2669 989 
L 2554 989 
C 2490 536 2438 459 2413 420 
C 2381 369 1920 369 1830 369 
L 602 369 
C 832 619 1280 1072 1824 1597 
C 2214 1967 2669 2402 2669 3035 
C 2669 3790 2067 4224 1395 4224 
C 691 4224 262 3604 262 3030 
C 262 2780 448 2748 525 2748 
C 589 2748 781 2787 781 3010 
C 781 3207 614 3264 525 3264 
C 486 3264 448 3258 422 3245 
C 544 3790 915 4058 1306 4058 
C 1862 4058 2227 3617 2227 3035 
C 2227 2479 1901 2000 1536 1584 
L 262 146 
L 262 0 
L 2515 0 
L 2669 989 
z
" transform="scale(0.015625)"/>
       </defs>
       <use xlink:href="#CMR17-30" transform="scale(0.996264)"/>
       <use xlink:href="#CMMI12-3a" transform="translate(45.690477 0) scale(0.996264)"/>
       <use xlink:href="#CMR17-30" transform="translate(72.787654 0) scale(0.996264)"/>
       <use xlink:href="#CMR17-32" transform="translate(118.478131 0) scale(0.996264)"/>
      </g>
     </g>
    </g>
    <g id="xtick_3">
     <g id="line2d_3">
      <path d="M 222.857877 348.48 
L 222.857877 7.2 
" clip-path="url(#p843be172db)" style="fill: none; stroke: #cccccc; stroke-linecap: round"/>
     </g>
     <g id="text_3">
      <!-- $\mathdefault{0.04}$ -->
      <g style="fill: #262626" transform="translate(213.116605 365.590347) scale(0.11 -0.11)">
       <defs>
        <path id="CMR17-34" d="M 2150 4122 
C 2150 4256 2144 4256 2029 4256 
L 128 1254 
L 128 1088 
L 1779 1088 
L 1779 457 
C 1779 224 1766 160 1318 160 
L 1197 160 
L 1197 0 
C 1402 0 1747 0 1965 0 
C 2182 0 2528 0 2733 0 
L 2733 160 
L 2611 160 
C 2163 160 2150 224 2150 457 
L 2150 1088 
L 2803 1088 
L 2803 1254 
L 2150 1254 
L 2150 4122 
z
M 1798 3703 
L 1798 1254 
L 256 1254 
L 1798 3703 
z
" transform="scale(0.015625)"/>
       </defs>
       <use xlink:href="#CMR17-30" transform="scale(0.996264)"/>
       <use xlink:href="#CMMI12-3a" transform="translate(45.690477 0) scale(0.996264)"/>
       <use xlink:href="#CMR17-30" transform="translate(72.787654 0) scale(0.996264)"/>
       <use xlink:href="#CMR17-34" transform="translate(118.478131 0) scale(0.996264)"/>
      </g>
     </g>
    </g>
    <g id="xtick_4">
     <g id="line2d_4">
      <path d="M 309.45383 348.48 
L 309.45383 7.2 
" clip-path="url(#p843be172db)" style="fill: none; stroke: #cccccc; stroke-linecap: round"/>
     </g>
     <g id="text_4">
      <!-- $\mathdefault{0.06}$ -->
      <g style="fill: #262626" transform="translate(299.712558 365.590347) scale(0.11 -0.11)">
       <defs>
        <path id="CMR17-36" d="M 678 2176 
C 678 3690 1395 4032 1811 4032 
C 1946 4032 2272 4009 2400 3776 
C 2298 3776 2106 3776 2106 3553 
C 2106 3381 2246 3323 2336 3323 
C 2394 3323 2566 3348 2566 3560 
C 2566 3954 2246 4179 1805 4179 
C 1043 4179 243 3390 243 1984 
C 243 253 966 -128 1478 -128 
C 2099 -128 2688 427 2688 1283 
C 2688 2081 2170 2662 1517 2662 
C 1126 2662 838 2407 678 1960 
L 678 2176 
z
M 1478 25 
C 691 25 691 1200 691 1436 
C 691 1896 909 2560 1504 2560 
C 1613 2560 1926 2560 2138 2120 
C 2253 1870 2253 1609 2253 1289 
C 2253 944 2253 690 2118 434 
C 1978 171 1773 25 1478 25 
z
" transform="scale(0.015625)"/>
       </defs>
       <use xlink:href="#CMR17-30" transform="scale(0.996264)"/>
       <use xlink:href="#CMMI12-3a" transform="translate(45.690477 0) scale(0.996264)"/>
       <use xlink:href="#CMR17-30" transform="translate(72.787654 0) scale(0.996264)"/>
       <use xlink:href="#CMR17-36" transform="translate(118.478131 0) scale(0.996264)"/>
      </g>
     </g>
    </g>
    <g id="xtick_5">
     <g id="line2d_5">
      <path d="M 396.049783 348.48 
L 396.049783 7.2 
" clip-path="url(#p843be172db)" style="fill: none; stroke: #cccccc; stroke-linecap: round"/>
     </g>
     <g id="text_5">
      <!-- $\mathdefault{0.08}$ -->
      <g style="fill: #262626" transform="translate(386.308511 365.590347) scale(0.11 -0.11)">
       <defs>
        <path id="CMR17-38" d="M 1741 2264 
C 2144 2467 2554 2773 2554 3263 
C 2554 3841 1990 4179 1472 4179 
C 890 4179 378 3759 378 3180 
C 378 3021 416 2747 666 2505 
C 730 2442 998 2251 1171 2130 
C 883 1983 211 1634 211 934 
C 211 279 838 -128 1459 -128 
C 2144 -128 2720 362 2720 1010 
C 2720 1590 2330 1857 2074 2029 
L 1741 2264 
z
M 902 2822 
C 851 2854 595 3051 595 3351 
C 595 3739 998 4032 1459 4032 
C 1965 4032 2336 3676 2336 3262 
C 2336 2669 1670 2331 1638 2331 
C 1632 2331 1626 2331 1574 2370 
L 902 2822 
z
M 2080 1519 
C 2176 1449 2483 1240 2483 851 
C 2483 381 2010 25 1472 25 
C 890 25 448 438 448 940 
C 448 1443 838 1862 1280 2060 
L 2080 1519 
z
" transform="scale(0.015625)"/>
       </defs>
       <use xlink:href="#CMR17-30" transform="scale(0.996264)"/>
       <use xlink:href="#CMMI12-3a" transform="translate(45.690477 0) scale(0.996264)"/>
       <use xlink:href="#CMR17-30" transform="translate(72.787654 0) scale(0.996264)"/>
       <use xlink:href="#CMR17-38" transform="translate(118.478131 0) scale(0.996264)"/>
      </g>
     </g>
    </g>
    <g id="xtick_6">
     <g id="line2d_6">
      <path d="M 482.645736 348.48 
L 482.645736 7.2 
" clip-path="url(#p843be172db)" style="fill: none; stroke: #cccccc; stroke-linecap: round"/>
     </g>
     <g id="text_6">
      <!-- $\mathdefault{0.10}$ -->
      <g style="fill: #262626" transform="translate(472.904464 365.590347) scale(0.11 -0.11)">
       <defs>
        <path id="CMR17-31" d="M 1702 4058 
C 1702 4192 1696 4192 1606 4192 
C 1357 3916 979 3827 621 3827 
C 602 3827 570 3827 563 3808 
C 557 3795 557 3782 557 3648 
C 755 3648 1088 3686 1344 3839 
L 1344 461 
C 1344 236 1331 160 781 160 
L 589 160 
L 589 0 
C 896 0 1216 0 1523 0 
C 1830 0 2150 0 2458 0 
L 2458 160 
L 2266 160 
C 1715 160 1702 230 1702 458 
L 1702 4058 
z
" transform="scale(0.015625)"/>
       </defs>
       <use xlink:href="#CMR17-30" transform="scale(0.996264)"/>
       <use xlink:href="#CMMI12-3a" transform="translate(45.690477 0) scale(0.996264)"/>
       <use xlink:href="#CMR17-31" transform="translate(72.787654 0) scale(0.996264)"/>
       <use xlink:href="#CMR17-30" transform="translate(118.478131 0) scale(0.996264)"/>
      </g>
     </g>
    </g>
   </g>
   <g id="matplotlib.axis_2">
    <g id="ytick_1">
     <g id="line2d_7">
      <path d="M 43.171275 320.415015 
L 491.305331 320.415015 
" clip-path="url(#p843be172db)" style="fill: none; stroke: #cccccc; stroke-linecap: round"/>
     </g>
     <g id="text_7">
      <!-- $\mathdefault{9}$ -->
      <g style="fill: #262626" transform="translate(28.191807 324.220188) scale(0.11 -0.11)">
       <defs>
        <path id="CMR17-39" d="M 2253 1864 
C 2253 464 1670 31 1190 31 
C 1043 31 685 31 538 294 
C 704 268 826 357 826 518 
C 826 692 685 749 595 749 
C 538 749 365 723 365 506 
C 365 71 742 -128 1203 -128 
C 1939 -128 2688 674 2688 2073 
C 2688 3817 1971 4179 1485 4179 
C 851 4179 243 3628 243 2778 
C 243 1991 762 1408 1414 1408 
C 1952 1408 2189 1903 2253 2112 
L 2253 1864 
z
M 1427 1510 
C 1254 1510 1011 1542 813 1922 
C 678 2169 678 2461 678 2771 
C 678 3146 678 3405 858 3684 
C 947 3817 1114 4032 1485 4032 
C 2240 4032 2240 2885 2240 2632 
C 2240 2182 2035 1510 1427 1510 
z
" transform="scale(0.015625)"/>
       </defs>
       <use xlink:href="#CMR17-39" transform="scale(0.996264)"/>
      </g>
     </g>
    </g>
    <g id="ytick_2">
     <g id="line2d_8">
      <path d="M 43.171275 262.904798 
L 491.305331 262.904798 
" clip-path="url(#p843be172db)" style="fill: none; stroke: #cccccc; stroke-linecap: round"/>
     </g>
     <g id="text_8">
      <!-- $\mathdefault{10}$ -->
      <g style="fill: #262626" transform="translate(22.71234 266.709972) scale(0.11 -0.11)">
       <use xlink:href="#CMR17-31" transform="scale(0.996264)"/>
       <use xlink:href="#CMR17-30" transform="translate(45.690477 0) scale(0.996264)"/>
      </g>
     </g>
    </g>
    <g id="ytick_3">
     <g id="line2d_9">
      <path d="M 43.171275 205.394582 
L 491.305331 205.394582 
" clip-path="url(#p843be172db)" style="fill: none; stroke: #cccccc; stroke-linecap: round"/>
     </g>
     <g id="text_9">
      <!-- $\mathdefault{11}$ -->
      <g style="fill: #262626" transform="translate(22.71234 209.199756) scale(0.11 -0.11)">
       <use xlink:href="#CMR17-31" transform="scale(0.996264)"/>
       <use xlink:href="#CMR17-31" transform="translate(45.690477 0) scale(0.996264)"/>
      </g>
     </g>
    </g>
    <g id="ytick_4">
     <g id="line2d_10">
      <path d="M 43.171275 147.884366 
L 491.305331 147.884366 
" clip-path="url(#p843be172db)" style="fill: none; stroke: #cccccc; stroke-linecap: round"/>
     </g>
     <g id="text_10">
      <!-- $\mathdefault{12}$ -->
      <g style="fill: #262626" transform="translate(22.71234 151.68954) scale(0.11 -0.11)">
       <use xlink:href="#CMR17-31" transform="scale(0.996264)"/>
       <use xlink:href="#CMR17-32" transform="translate(45.690477 0) scale(0.996264)"/>
      </g>
     </g>
    </g>
    <g id="ytick_5">
     <g id="line2d_11">
      <path d="M 43.171275 90.37415 
L 491.305331 90.37415 
" clip-path="url(#p843be172db)" style="fill: none; stroke: #cccccc; stroke-linecap: round"/>
     </g>
     <g id="text_11">
      <!-- $\mathdefault{13}$ -->
      <g style="fill: #262626" transform="translate(22.71234 94.179323) scale(0.11 -0.11)">
       <defs>
        <path id="CMR17-33" d="M 1414 2157 
C 1984 2157 2234 1662 2234 1090 
C 2234 320 1824 25 1453 25 
C 1114 25 563 194 390 693 
C 422 680 454 680 486 680 
C 640 680 755 782 755 948 
C 755 1133 614 1216 486 1216 
C 378 1216 211 1165 211 926 
C 211 335 787 -128 1466 -128 
C 2176 -128 2720 430 2720 1085 
C 2720 1707 2208 2157 1600 2227 
C 2086 2328 2554 2756 2554 3329 
C 2554 3820 2048 4179 1472 4179 
C 890 4179 378 3829 378 3329 
C 378 3110 544 3072 627 3072 
C 762 3072 877 3155 877 3321 
C 877 3486 762 3569 627 3569 
C 602 3569 570 3569 544 3557 
C 730 3959 1235 4032 1459 4032 
C 1683 4032 2106 3925 2106 3320 
C 2106 3143 2080 2828 1862 2550 
C 1670 2304 1453 2304 1242 2284 
C 1210 2284 1062 2269 1037 2269 
C 992 2263 966 2257 966 2208 
C 966 2163 973 2157 1101 2157 
L 1414 2157 
z
" transform="scale(0.015625)"/>
       </defs>
       <use xlink:href="#CMR17-31" transform="scale(0.996264)"/>
       <use xlink:href="#CMR17-33" transform="translate(45.690477 0) scale(0.996264)"/>
      </g>
     </g>
    </g>
    <g id="ytick_6">
     <g id="line2d_12">
      <path d="M 43.171275 32.863934 
L 491.305331 32.863934 
" clip-path="url(#p843be172db)" style="fill: none; stroke: #cccccc; stroke-linecap: round"/>
     </g>
     <g id="text_12">
      <!-- $\mathdefault{14}$ -->
      <g style="fill: #262626" transform="translate(22.71234 36.669107) scale(0.11 -0.11)">
       <use xlink:href="#CMR17-31" transform="scale(0.996264)"/>
       <use xlink:href="#CMR17-34" transform="translate(45.690477 0) scale(0.996264)"/>
      </g>
     </g>
    </g>
    <g id="text_13">
     <!-- Total Undercoverage -->
     <g style="fill: #262626" transform="translate(16.194028 232.418268) rotate(-90) scale(0.13 -0.13)">
      <defs>
       <path id="CMSS17-54" d="M 2317 3968 
L 2848 3968 
C 2925 3968 3002 3968 3078 3968 
L 3878 3968 
L 3878 4376 
L 218 4376 
L 218 3968 
L 1018 3968 
C 1094 3968 1171 3968 1248 3968 
L 1779 3968 
L 1779 -32 
L 2317 -32 
L 2317 3968 
z
" transform="scale(0.015625)"/>
       <path id="CMSS17-6f" d="M 2829 1356 
C 2829 2176 2221 2816 1504 2816 
C 768 2816 173 2157 173 1356 
C 173 544 787 -64 1498 -64 
C 2227 -64 2829 563 2829 1356 
z
M 1504 337 
C 1050 337 659 709 659 1408 
C 659 2151 1114 2427 1498 2427 
C 1914 2427 2342 2126 2342 1408 
C 2342 683 1926 337 1504 337 
z
" transform="scale(0.015625)"/>
       <path id="CMSS17-74" d="M 1069 2368 
L 1901 2368 
L 1901 2737 
L 1069 2737 
L 1069 3520 
L 614 3520 
L 614 2737 
L 109 2737 
L 109 2368 
L 602 2368 
L 602 749 
C 602 384 685 -64 1107 -64 
C 1427 -64 1722 25 2003 172 
L 1901 548 
C 1747 414 1562 337 1363 337 
C 1082 337 1069 696 1069 856 
L 1069 2368 
z
" transform="scale(0.015625)"/>
       <path id="CMSS17-61" d="M 2406 1791 
C 2406 2392 1978 2808 1402 2808 
C 1120 2808 813 2757 461 2553 
L 499 2135 
C 659 2248 934 2432 1395 2432 
C 1722 2432 1920 2180 1920 1782 
L 1920 1536 
C 896 1536 256 1238 256 726 
C 256 461 416 -64 947 -64 
C 1043 -64 1562 -64 1933 217 
L 1933 -19 
L 2406 -19 
L 2406 1791 
z
M 1920 816 
C 1920 701 1920 548 1728 434 
C 1562 325 1350 325 1261 325 
C 941 325 723 511 723 744 
C 723 1211 1722 1211 1920 1211 
L 1920 816 
z
" transform="scale(0.015625)"/>
       <path id="CMSS17-6c" d="M 947 4416 
L 474 4416 
L 474 0 
L 947 0 
L 947 4416 
z
" transform="scale(0.015625)"/>
       <path id="CMSS17-55" d="M 3552 4384 
L 3066 4384 
L 3066 1449 
C 3066 604 2547 229 2074 229 
C 1587 229 1101 623 1101 1443 
L 1101 4384 
L 563 4384 
L 563 1454 
C 563 539 1274 -128 2067 -128 
C 2861 -128 3552 539 3552 1454 
L 3552 4384 
z
" transform="scale(0.015625)"/>
       <path id="CMSS17-6e" d="M 2618 1877 
C 2618 2283 2522 2816 1798 2816 
C 1389 2816 1120 2606 941 2389 
L 941 2758 
L 474 2758 
L 474 0 
L 960 0 
L 960 1559 
C 960 1964 1114 2428 1549 2428 
C 2112 2428 2131 2048 2131 1829 
L 2131 0 
L 2618 0 
L 2618 1877 
z
" transform="scale(0.015625)"/>
       <path id="CMSS17-64" d="M 2611 4416 
L 2138 4416 
L 2138 2438 
C 1939 2603 1613 2756 1254 2756 
C 672 2756 211 2131 211 1347 
C 211 562 666 -64 1235 -64 
C 1677 -64 1971 172 2125 306 
L 2125 -13 
L 2611 -13 
L 2611 4416 
z
M 2125 836 
C 2125 747 2125 653 1926 482 
C 1798 375 1645 325 1498 325 
C 1152 325 698 576 698 1340 
C 698 2134 1210 2368 1562 2368 
C 1798 2368 1990 2254 2125 2065 
L 2125 836 
z
" transform="scale(0.015625)"/>
       <path id="CMSS17-65" d="M 2502 1377 
C 2502 1590 2490 2003 2285 2345 
C 2061 2713 1696 2816 1421 2816 
C 755 2816 192 2188 192 1375 
C 192 582 774 -64 1510 -64 
C 1798 -64 2150 19 2470 248 
C 2470 274 2458 414 2451 420 
C 2451 433 2432 630 2432 656 
C 2125 407 1773 325 1517 325 
C 1107 325 666 667 646 1377 
L 2502 1377 
z
M 698 1728 
C 781 2084 1062 2421 1421 2421 
C 1517 2421 1965 2421 2080 1728 
L 698 1728 
z
" transform="scale(0.015625)"/>
       <path id="CMSS17-72" d="M 954 1363 
C 954 1965 1395 2368 1958 2368 
L 1958 2789 
C 1549 2789 1165 2585 934 2253 
L 934 2758 
L 480 2758 
L 480 0 
L 954 0 
L 954 1363 
z
" transform="scale(0.015625)"/>
       <path id="CMSS17-63" d="M 2464 2541 
C 2464 2585 2170 2714 2093 2739 
C 1882 2816 1613 2816 1542 2816 
C 710 2816 211 2093 211 1363 
C 211 595 768 -64 1517 -64 
C 1946 -64 2253 76 2502 242 
L 2464 664 
C 2189 453 1869 337 1523 337 
C 1024 337 698 774 698 1369 
C 698 1831 909 2414 1549 2414 
C 1901 2414 2099 2343 2394 2145 
L 2464 2541 
z
" transform="scale(0.015625)"/>
       <path id="CMSS17-76" d="M 2675 2752 
L 2176 2752 
L 1747 1556 
C 1613 1165 1421 627 1389 352 
L 1382 352 
C 1370 468 1318 634 1286 749 
C 1248 890 1197 1056 1158 1172 
L 595 2752 
L 83 2752 
L 1094 0 
L 1664 0 
L 2675 2752 
z
" transform="scale(0.015625)"/>
       <path id="CMSS17-67" d="M 2848 2808 
C 2483 2808 2170 2738 1914 2617 
C 1702 2777 1485 2808 1338 2808 
C 781 2808 358 2349 358 1814 
C 358 1468 550 1207 563 1195 
C 448 1035 384 863 384 672 
C 384 448 474 289 544 200 
C 211 -3 166 -314 166 -435 
C 166 -898 749 -1280 1498 -1280 
C 2253 -1280 2835 -898 2835 -428 
C 2835 448 1856 448 1587 448 
L 1069 448 
C 973 448 717 448 717 791 
C 717 921 774 1004 781 1010 
C 877 940 1075 832 1338 832 
C 1869 832 2310 1278 2310 1827 
C 2310 2132 2170 2355 2112 2432 
L 2131 2432 
C 2150 2432 2419 2432 2515 2432 
C 2720 2432 2739 2429 2918 2419 
L 2848 2808 
z
M 1338 1182 
C 1120 1182 813 1315 813 1823 
C 813 2375 1165 2464 1331 2464 
C 1549 2464 1856 2331 1856 1823 
C 1856 1271 1504 1182 1338 1182 
z
M 1581 -10 
C 1734 -10 2381 -10 2381 -442 
C 2381 -714 1984 -929 1504 -929 
C 1018 -929 621 -720 621 -435 
C 621 -403 621 -10 1062 -10 
L 1581 -10 
z
" transform="scale(0.015625)"/>
      </defs>
      <use xlink:href="#CMSS17-54" transform="scale(0.996264)"/>
      <use xlink:href="#CMSS17-6f" transform="translate(56.012199 0) scale(0.996264)"/>
      <use xlink:href="#CMSS17-74" transform="translate(102.855822 0) scale(0.996264)"/>
      <use xlink:href="#CMSS17-61" transform="translate(136.687389 0) scale(0.996264)"/>
      <use xlink:href="#CMSS17-6c" transform="translate(181.609309 0) scale(0.996264)"/>
      <use xlink:href="#CMSS17-55" transform="translate(235.019145 0) scale(0.996264)"/>
      <use xlink:href="#CMSS17-6e" transform="translate(299.158885 0) scale(0.996264)"/>
      <use xlink:href="#CMSS17-64" transform="translate(347.363829 0) scale(0.996264)"/>
      <use xlink:href="#CMSS17-65" transform="translate(395.568772 0) scale(0.996264)"/>
      <use xlink:href="#CMSS17-72" transform="translate(437.207594 0) scale(0.996264)"/>
      <use xlink:href="#CMSS17-63" transform="translate(469.117366 0) scale(0.996264)"/>
      <use xlink:href="#CMSS17-6f" transform="translate(510.756188 0) scale(0.996264)"/>
      <use xlink:href="#CMSS17-76" transform="translate(557.599812 0) scale(0.996264)"/>
      <use xlink:href="#CMSS17-65" transform="translate(600.599954 0) scale(0.996264)"/>
      <use xlink:href="#CMSS17-72" transform="translate(642.238776 0) scale(0.996264)"/>
      <use xlink:href="#CMSS17-61" transform="translate(674.148548 0) scale(0.996264)"/>
      <use xlink:href="#CMSS17-67" transform="translate(719.070469 0) scale(0.996264)"/>
      <use xlink:href="#CMSS17-65" transform="translate(765.914092 0) scale(0.996264)"/>
     </g>
    </g>
   </g>
   <g id="PathCollection_1">
    <defs>
     <path id="m36537a9955" d="M 0 3 
C 0.795609 3 1.55874 2.683901 2.12132 2.12132 
C 2.683901 1.55874 3 0.795609 3 0 
C 3 -0.795609 2.683901 -1.55874 2.12132 -2.12132 
C 1.55874 -2.683901 0.795609 -3 0 -3 
C -0.795609 -3 -1.55874 -2.683901 -2.12132 -2.12132 
C -2.683901 -1.55874 -3 -0.795609 -3 0 
C -3 0.795609 -2.683901 1.55874 -2.12132 2.12132 
C -1.55874 2.683901 -0.795609 3 0 3 
z
" style="stroke: #ffffff; stroke-width: 0.48"/>
    </defs>
    <g clip-path="url(#p843be172db)">
     <use xlink:href="#m36537a9955" x="49.665971" y="322.715423" style="fill: #feb77e; stroke: #ffffff; stroke-width: 0.48"/>
     <use xlink:href="#m36537a9955" x="136.261924" y="320.27699" style="fill: #feb77e; stroke: #ffffff; stroke-width: 0.48"/>
     <use xlink:href="#m36537a9955" x="222.857877" y="317.907569" style="fill: #feb77e; stroke: #ffffff; stroke-width: 0.48"/>
     <use xlink:href="#m36537a9955" x="309.45383" y="315.641667" style="fill: #feb77e; stroke: #ffffff; stroke-width: 0.48"/>
     <use xlink:href="#m36537a9955" x="396.049783" y="313.513789" style="fill: #feb77e; stroke: #ffffff; stroke-width: 0.48"/>
     <use xlink:href="#m36537a9955" x="482.645736" y="311.385911" style="fill: #feb77e; stroke: #ffffff; stroke-width: 0.48"/>
    </g>
   </g>
   <g id="PathCollection_2">
    <defs>
     <path id="m829e98527a" d="M -3 3 
L 3 3 
L 3 -3 
L -3 -3 
z
" style="stroke: #ffffff; stroke-width: 0.48"/>
    </defs>
    <g clip-path="url(#p843be172db)">
     <use xlink:href="#m829e98527a" x="49.665971" y="322.715423" style="fill: #feb77e; stroke: #ffffff; stroke-width: 0.48"/>
     <use xlink:href="#m829e98527a" x="136.261924" y="288.094273" style="fill: #feb77e; stroke: #ffffff; stroke-width: 0.48"/>
     <use xlink:href="#m829e98527a" x="222.857877" y="253.415613" style="fill: #feb77e; stroke: #ffffff; stroke-width: 0.48"/>
     <use xlink:href="#m829e98527a" x="309.45383" y="218.794463" style="fill: #feb77e; stroke: #ffffff; stroke-width: 0.48"/>
     <use xlink:href="#m829e98527a" x="396.049783" y="184.173313" style="fill: #feb77e; stroke: #ffffff; stroke-width: 0.48"/>
     <use xlink:href="#m829e98527a" x="482.645736" y="149.552162" style="fill: #feb77e; stroke: #ffffff; stroke-width: 0.48"/>
    </g>
   </g>
   <g id="PathCollection_3">
    <defs>
     <path id="m62796c0be6" d="M 0 3 
C 0.795609 3 1.55874 2.683901 2.12132 2.12132 
C 2.683901 1.55874 3 0.795609 3 0 
C 3 -0.795609 2.683901 -1.55874 2.12132 -2.12132 
C 1.55874 -2.683901 0.795609 -3 0 -3 
C -0.795609 -3 -1.55874 -2.683901 -2.12132 -2.12132 
C -2.683901 -1.55874 -3 -0.795609 -3 0 
C -3 0.795609 -2.683901 1.55874 -2.12132 2.12132 
C -1.55874 2.683901 -0.795609 3 0 3 
z
" style="stroke: #ffffff; stroke-width: 0.48"/>
    </defs>
    <g clip-path="url(#p843be172db)">
     <use xlink:href="#m62796c0be6" x="49.665971" y="322.715423" style="fill: #251255; stroke: #ffffff; stroke-width: 0.48"/>
     <use xlink:href="#m62796c0be6" x="136.261924" y="316.768867" style="fill: #251255; stroke: #ffffff; stroke-width: 0.48"/>
     <use xlink:href="#m62796c0be6" x="222.857877" y="310.70729" style="fill: #251255; stroke: #ffffff; stroke-width: 0.48"/>
     <use xlink:href="#m62796c0be6" x="309.45383" y="304.73773" style="fill: #251255; stroke: #ffffff; stroke-width: 0.48"/>
     <use xlink:href="#m62796c0be6" x="396.049783" y="299.964382" style="fill: #251255; stroke: #ffffff; stroke-width: 0.48"/>
     <use xlink:href="#m62796c0be6" x="482.645736" y="296.088193" style="fill: #251255; stroke: #ffffff; stroke-width: 0.48"/>
    </g>
   </g>
   <g id="PathCollection_4">
    <defs>
     <path id="meb91b39b45" d="M -3 3 
L 3 3 
L 3 -3 
L -3 -3 
z
" style="stroke: #ffffff; stroke-width: 0.48"/>
    </defs>
    <g clip-path="url(#p843be172db)">
     <use xlink:href="#meb91b39b45" x="49.665971" y="322.715423" style="fill: #251255; stroke: #ffffff; stroke-width: 0.48"/>
     <use xlink:href="#meb91b39b45" x="136.261924" y="267.045534" style="fill: #251255; stroke: #ffffff; stroke-width: 0.48"/>
     <use xlink:href="#meb91b39b45" x="222.857877" y="211.318135" style="fill: #251255; stroke: #ffffff; stroke-width: 0.48"/>
     <use xlink:href="#meb91b39b45" x="309.45383" y="155.648245" style="fill: #251255; stroke: #ffffff; stroke-width: 0.48"/>
     <use xlink:href="#meb91b39b45" x="396.049783" y="99.920846" style="fill: #251255; stroke: #ffffff; stroke-width: 0.48"/>
     <use xlink:href="#meb91b39b45" x="482.645736" y="44.250957" style="fill: #251255; stroke: #ffffff; stroke-width: 0.48"/>
    </g>
   </g>
   <g id="PathCollection_5">
    <defs>
     <path id="m857a4c1b47" d="M 0 3 
C 0.795609 3 1.55874 2.683901 2.12132 2.12132 
C 2.683901 1.55874 3 0.795609 3 0 
C 3 -0.795609 2.683901 -1.55874 2.12132 -2.12132 
C 1.55874 -2.683901 0.795609 -3 0 -3 
C -0.795609 -3 -1.55874 -2.683901 -2.12132 -2.12132 
C -2.683901 -1.55874 -3 -0.795609 -3 0 
C -3 0.795609 -2.683901 1.55874 -2.12132 2.12132 
C -1.55874 2.683901 -0.795609 3 0 3 
z
" style="stroke: #ffffff; stroke-width: 0.48"/>
    </defs>
    <g clip-path="url(#p843be172db)">
     <use xlink:href="#m857a4c1b47" x="49.665971" y="322.715423" style="fill: #b73779; stroke: #ffffff; stroke-width: 0.48"/>
     <use xlink:href="#m857a4c1b47" x="136.261924" y="313.203233" style="fill: #b73779; stroke: #ffffff; stroke-width: 0.48"/>
     <use xlink:href="#m857a4c1b47" x="222.857877" y="303.714048" style="fill: #b73779; stroke: #ffffff; stroke-width: 0.48"/>
     <use xlink:href="#m857a4c1b47" x="309.45383" y="295.547597" style="fill: #b73779; stroke: #ffffff; stroke-width: 0.48"/>
     <use xlink:href="#m857a4c1b47" x="396.049783" y="289.336494" style="fill: #b73779; stroke: #ffffff; stroke-width: 0.48"/>
     <use xlink:href="#m857a4c1b47" x="482.645736" y="284.126068" style="fill: #b73779; stroke: #ffffff; stroke-width: 0.48"/>
    </g>
   </g>
   <g id="PathCollection_6">
    <defs>
     <path id="m00433470c1" d="M -3 3 
L 3 3 
L 3 -3 
L -3 -3 
z
" style="stroke: #ffffff; stroke-width: 0.48"/>
    </defs>
    <g clip-path="url(#p843be172db)">
     <use xlink:href="#m00433470c1" x="49.665971" y="322.715423" style="fill: #b73779; stroke: #ffffff; stroke-width: 0.48"/>
     <use xlink:href="#m00433470c1" x="136.261924" y="262.617247" style="fill: #b73779; stroke: #ffffff; stroke-width: 0.48"/>
     <use xlink:href="#m00433470c1" x="222.857877" y="202.519071" style="fill: #b73779; stroke: #ffffff; stroke-width: 0.48"/>
     <use xlink:href="#m00433470c1" x="309.45383" y="142.420896" style="fill: #b73779; stroke: #ffffff; stroke-width: 0.48"/>
     <use xlink:href="#m00433470c1" x="396.049783" y="82.32272" style="fill: #b73779; stroke: #ffffff; stroke-width: 0.48"/>
     <use xlink:href="#m00433470c1" x="482.645736" y="22.224544" style="fill: #b73779; stroke: #ffffff; stroke-width: 0.48"/>
    </g>
   </g>
   <g id="line2d_13">
    <path d="M 49.665971 322.715423 
L 136.261924 320.27699 
L 222.857877 317.907569 
L 309.45383 315.641667 
L 396.049783 313.513789 
L 482.645736 311.385911 
" clip-path="url(#p843be172db)" style="fill: none; stroke: #feb77e; stroke-width: 1.5; stroke-linecap: round"/>
   </g>
   <g id="line2d_14">
    <path d="M 49.665971 322.715423 
L 136.261924 288.094273 
L 222.857877 253.415613 
L 309.45383 218.794463 
L 396.049783 184.173313 
L 482.645736 149.552162 
" clip-path="url(#p843be172db)" style="fill: none; stroke-dasharray: 5.55,2.4; stroke-dashoffset: 0; stroke: #feb77e; stroke-opacity: 0.8; stroke-width: 1.5"/>
   </g>
   <g id="line2d_15">
    <path d="M 49.665971 322.715423 
L 136.261924 316.768867 
L 222.857877 310.70729 
L 309.45383 304.73773 
L 396.049783 299.964382 
L 482.645736 296.088193 
" clip-path="url(#p843be172db)" style="fill: none; stroke: #251255; stroke-width: 1.5; stroke-linecap: round"/>
   </g>
   <g id="line2d_16">
    <path d="M 49.665971 322.715423 
L 136.261924 267.045534 
L 222.857877 211.318135 
L 309.45383 155.648245 
L 396.049783 99.920846 
L 482.645736 44.250957 
" clip-path="url(#p843be172db)" style="fill: none; stroke-dasharray: 5.55,2.4; stroke-dashoffset: 0; stroke: #251255; stroke-opacity: 0.8; stroke-width: 1.5"/>
   </g>
   <g id="line2d_17">
    <path d="M 49.665971 322.715423 
L 136.261924 313.203233 
L 222.857877 303.714048 
L 309.45383 295.547597 
L 396.049783 289.336494 
L 482.645736 284.126068 
" clip-path="url(#p843be172db)" style="fill: none; stroke: #b73779; stroke-width: 1.5; stroke-linecap: round"/>
   </g>
   <g id="line2d_18">
    <path d="M 49.665971 322.715423 
L 136.261924 262.617247 
L 222.857877 202.519071 
L 309.45383 142.420896 
L 396.049783 82.32272 
L 482.645736 22.224544 
" clip-path="url(#p843be172db)" style="fill: none; stroke-dasharray: 5.55,2.4; stroke-dashoffset: 0; stroke: #b73779; stroke-opacity: 0.8; stroke-width: 1.5"/>
   </g>
   <g id="patch_3">
    <path d="M 43.171275 348.48 
L 43.171275 7.2 
" style="fill: none; stroke: #cccccc; stroke-width: 1.25; stroke-linejoin: miter; stroke-linecap: square"/>
   </g>
   <g id="patch_4">
    <path d="M 491.305331 348.48 
L 491.305331 7.2 
" style="fill: none; stroke: #cccccc; stroke-width: 1.25; stroke-linejoin: miter; stroke-linecap: square"/>
   </g>
   <g id="patch_5">
    <path d="M 43.171275 348.48 
L 491.305331 348.48 
" style="fill: none; stroke: #cccccc; stroke-width: 1.25; stroke-linejoin: miter; stroke-linecap: square"/>
   </g>
   <g id="patch_6">
    <path d="M 43.171275 7.2 
L 491.305331 7.2 
" style="fill: none; stroke: #cccccc; stroke-width: 1.25; stroke-linejoin: miter; stroke-linecap: square"/>
   </g>
  </g>
  <g id="axes_2">
   <g id="patch_7">
    <path d="M 538.266332 348.48 
L 986.400388 348.48 
L 986.400388 7.2 
L 538.266332 7.2 
z
" style="fill: #ffffff"/>
   </g>
   <g id="matplotlib.axis_3">
    <g id="xtick_7">
     <g id="line2d_19">
      <path d="M 544.761028 348.48 
L 544.761028 7.2 
" clip-path="url(#p53dc6ad765)" style="fill: none; stroke: #cccccc; stroke-linecap: round"/>
     </g>
     <g id="text_14">
      <!-- $\mathdefault{0.00}$ -->
      <g style="fill: #262626" transform="translate(535.019757 365.590347) scale(0.11 -0.11)">
       <use xlink:href="#CMR17-30" transform="scale(0.996264)"/>
       <use xlink:href="#CMMI12-3a" transform="translate(45.690477 0) scale(0.996264)"/>
       <use xlink:href="#CMR17-30" transform="translate(72.787654 0) scale(0.996264)"/>
       <use xlink:href="#CMR17-30" transform="translate(118.478131 0) scale(0.996264)"/>
      </g>
     </g>
    </g>
    <g id="xtick_8">
     <g id="line2d_20">
      <path d="M 631.356981 348.48 
L 631.356981 7.2 
" clip-path="url(#p53dc6ad765)" style="fill: none; stroke: #cccccc; stroke-linecap: round"/>
     </g>
     <g id="text_15">
      <!-- $\mathdefault{0.02}$ -->
      <g style="fill: #262626" transform="translate(621.61571 365.590347) scale(0.11 -0.11)">
       <use xlink:href="#CMR17-30" transform="scale(0.996264)"/>
       <use xlink:href="#CMMI12-3a" transform="translate(45.690477 0) scale(0.996264)"/>
       <use xlink:href="#CMR17-30" transform="translate(72.787654 0) scale(0.996264)"/>
       <use xlink:href="#CMR17-32" transform="translate(118.478131 0) scale(0.996264)"/>
      </g>
     </g>
    </g>
    <g id="xtick_9">
     <g id="line2d_21">
      <path d="M 717.952934 348.48 
L 717.952934 7.2 
" clip-path="url(#p53dc6ad765)" style="fill: none; stroke: #cccccc; stroke-linecap: round"/>
     </g>
     <g id="text_16">
      <!-- $\mathdefault{0.04}$ -->
      <g style="fill: #262626" transform="translate(708.211663 365.590347) scale(0.11 -0.11)">
       <use xlink:href="#CMR17-30" transform="scale(0.996264)"/>
       <use xlink:href="#CMMI12-3a" transform="translate(45.690477 0) scale(0.996264)"/>
       <use xlink:href="#CMR17-30" transform="translate(72.787654 0) scale(0.996264)"/>
       <use xlink:href="#CMR17-34" transform="translate(118.478131 0) scale(0.996264)"/>
      </g>
     </g>
    </g>
    <g id="xtick_10">
     <g id="line2d_22">
      <path d="M 804.548887 348.48 
L 804.548887 7.2 
" clip-path="url(#p53dc6ad765)" style="fill: none; stroke: #cccccc; stroke-linecap: round"/>
     </g>
     <g id="text_17">
      <!-- $\mathdefault{0.06}$ -->
      <g style="fill: #262626" transform="translate(794.807615 365.590347) scale(0.11 -0.11)">
       <use xlink:href="#CMR17-30" transform="scale(0.996264)"/>
       <use xlink:href="#CMMI12-3a" transform="translate(45.690477 0) scale(0.996264)"/>
       <use xlink:href="#CMR17-30" transform="translate(72.787654 0) scale(0.996264)"/>
       <use xlink:href="#CMR17-36" transform="translate(118.478131 0) scale(0.996264)"/>
      </g>
     </g>
    </g>
    <g id="xtick_11">
     <g id="line2d_23">
      <path d="M 891.14484 348.48 
L 891.14484 7.2 
" clip-path="url(#p53dc6ad765)" style="fill: none; stroke: #cccccc; stroke-linecap: round"/>
     </g>
     <g id="text_18">
      <!-- $\mathdefault{0.08}$ -->
      <g style="fill: #262626" transform="translate(881.403568 365.590347) scale(0.11 -0.11)">
       <use xlink:href="#CMR17-30" transform="scale(0.996264)"/>
       <use xlink:href="#CMMI12-3a" transform="translate(45.690477 0) scale(0.996264)"/>
       <use xlink:href="#CMR17-30" transform="translate(72.787654 0) scale(0.996264)"/>
       <use xlink:href="#CMR17-38" transform="translate(118.478131 0) scale(0.996264)"/>
      </g>
     </g>
    </g>
    <g id="xtick_12">
     <g id="line2d_24">
      <path d="M 977.740793 348.48 
L 977.740793 7.2 
" clip-path="url(#p53dc6ad765)" style="fill: none; stroke: #cccccc; stroke-linecap: round"/>
     </g>
     <g id="text_19">
      <!-- $\mathdefault{0.10}$ -->
      <g style="fill: #262626" transform="translate(967.999521 365.590347) scale(0.11 -0.11)">
       <use xlink:href="#CMR17-30" transform="scale(0.996264)"/>
       <use xlink:href="#CMMI12-3a" transform="translate(45.690477 0) scale(0.996264)"/>
       <use xlink:href="#CMR17-31" transform="translate(72.787654 0) scale(0.996264)"/>
       <use xlink:href="#CMR17-30" transform="translate(118.478131 0) scale(0.996264)"/>
      </g>
     </g>
    </g>
   </g>
   <g id="matplotlib.axis_4">
    <g id="ytick_7">
     <g id="line2d_25">
      <path d="M 538.266332 332.183926 
L 986.400388 332.183926 
" clip-path="url(#p53dc6ad765)" style="fill: none; stroke: #cccccc; stroke-linecap: round"/>
     </g>
     <g id="text_20">
      <!-- $\mathdefault{3}$ -->
      <g style="fill: #262626" transform="translate(523.286865 335.989099) scale(0.11 -0.11)">
       <use xlink:href="#CMR17-33" transform="scale(0.996264)"/>
      </g>
     </g>
    </g>
    <g id="ytick_8">
     <g id="line2d_26">
      <path d="M 538.266332 260.702393 
L 986.400388 260.702393 
" clip-path="url(#p53dc6ad765)" style="fill: none; stroke: #cccccc; stroke-linecap: round"/>
     </g>
     <g id="text_21">
      <!-- $\mathdefault{4}$ -->
      <g style="fill: #262626" transform="translate(523.286865 264.507567) scale(0.11 -0.11)">
       <use xlink:href="#CMR17-34" transform="scale(0.996264)"/>
      </g>
     </g>
    </g>
    <g id="ytick_9">
     <g id="line2d_27">
      <path d="M 538.266332 189.220861 
L 986.400388 189.220861 
" clip-path="url(#p53dc6ad765)" style="fill: none; stroke: #cccccc; stroke-linecap: round"/>
     </g>
     <g id="text_22">
      <!-- $\mathdefault{5}$ -->
      <g style="fill: #262626" transform="translate(523.286865 193.026034) scale(0.11 -0.11)">
       <defs>
        <path id="CMR17-35" d="M 730 3692 
C 794 3666 1056 3584 1325 3584 
C 1920 3584 2246 3911 2432 4100 
C 2432 4157 2432 4192 2394 4192 
C 2387 4192 2374 4192 2323 4163 
C 2099 4058 1837 3973 1517 3973 
C 1325 3973 1037 3999 723 4139 
C 653 4171 640 4171 634 4171 
C 602 4171 595 4164 595 4037 
L 595 2203 
C 595 2089 595 2057 659 2057 
C 691 2057 704 2070 736 2114 
C 941 2401 1222 2522 1542 2522 
C 1766 2522 2246 2382 2246 1289 
C 2246 1085 2246 715 2054 421 
C 1894 159 1645 25 1370 25 
C 947 25 518 320 403 814 
C 429 807 480 795 506 795 
C 589 795 749 840 749 1038 
C 749 1210 627 1280 506 1280 
C 358 1280 262 1190 262 1011 
C 262 454 704 -128 1382 -128 
C 2042 -128 2669 440 2669 1264 
C 2669 2030 2170 2624 1549 2624 
C 1222 2624 947 2503 730 2274 
L 730 3692 
z
" transform="scale(0.015625)"/>
       </defs>
       <use xlink:href="#CMR17-35" transform="scale(0.996264)"/>
      </g>
     </g>
    </g>
    <g id="ytick_10">
     <g id="line2d_28">
      <path d="M 538.266332 117.739328 
L 986.400388 117.739328 
" clip-path="url(#p53dc6ad765)" style="fill: none; stroke: #cccccc; stroke-linecap: round"/>
     </g>
     <g id="text_23">
      <!-- $\mathdefault{6}$ -->
      <g style="fill: #262626" transform="translate(523.286865 121.544501) scale(0.11 -0.11)">
       <use xlink:href="#CMR17-36" transform="scale(0.996264)"/>
      </g>
     </g>
    </g>
    <g id="ytick_11">
     <g id="line2d_29">
      <path d="M 538.266332 46.257795 
L 986.400388 46.257795 
" clip-path="url(#p53dc6ad765)" style="fill: none; stroke: #cccccc; stroke-linecap: round"/>
     </g>
     <g id="text_24">
      <!-- $\mathdefault{7}$ -->
      <g style="fill: #262626" transform="translate(523.286865 50.062969) scale(0.11 -0.11)">
       <defs>
        <path id="CMR17-37" d="M 2886 3941 
L 2886 4081 
L 1382 4081 
C 634 4081 621 4165 595 4288 
L 480 4288 
L 294 3094 
L 410 3094 
C 429 3215 474 3540 550 3661 
C 589 3712 1062 3712 1171 3712 
L 2579 3712 
L 1869 2661 
C 1395 1954 1069 999 1069 165 
C 1069 89 1069 -128 1299 -128 
C 1530 -128 1530 89 1530 171 
L 1530 465 
C 1530 1508 1709 2196 2003 2636 
L 2886 3941 
z
" transform="scale(0.015625)"/>
       </defs>
       <use xlink:href="#CMR17-37" transform="scale(0.996264)"/>
      </g>
     </g>
    </g>
    <g id="text_25">
     <!-- Ø Number of Shift Changes -->
     <g style="fill: #262626" transform="translate(516.768553 251.952376) rotate(-90) scale(0.13 -0.13)">
      <defs>
       <path id="CMSS17-1f" d="M 3859 4599 
L 3501 4790 
L 3213 4249 
C 3034 4351 2720 4484 2336 4484 
C 1254 4484 333 3474 333 2173 
C 333 1455 614 783 1126 344 
L 813 -243 
L 1171 -434 
L 1414 25 
C 1453 89 1459 95 1466 95 
C 1472 95 1485 95 1562 57 
C 1830 -77 2106 -128 2336 -128 
C 3405 -128 4339 857 4339 2171 
C 4339 3250 3744 3823 3546 4013 
L 3859 4599 
z
M 1331 726 
C 902 1249 870 1873 870 2166 
C 870 3408 1594 4096 2336 4096 
C 2624 4096 2867 3988 3021 3893 
L 1331 726 
z
M 3334 3623 
C 3750 3133 3802 2508 3802 2177 
C 3802 909 3059 261 2336 261 
C 2086 261 1862 337 1651 464 
L 3334 3623 
z
" transform="scale(0.015625)"/>
       <path id="CMSS17-4e" d="M 1466 4180 
L 1350 4416 
L 563 4416 
L 563 0 
L 1062 0 
L 1062 3926 
L 1069 3932 
C 1114 3817 1139 3760 1402 3194 
L 2771 236 
L 2886 0 
L 3674 0 
L 3674 4416 
L 3174 4416 
L 3174 490 
L 3168 483 
C 3123 598 3098 655 2835 1221 
L 1466 4180 
z
" transform="scale(0.015625)"/>
       <path id="CMSS17-75" d="M 2618 2739 
L 2131 2739 
L 2131 972 
C 2131 498 1786 306 1421 306 
C 998 306 960 447 960 709 
L 960 2739 
L 474 2739 
L 474 678 
C 474 179 646 -64 1088 -64 
C 1306 -64 1798 -13 2144 306 
L 2144 0 
L 2618 0 
L 2618 2739 
z
" transform="scale(0.015625)"/>
       <path id="CMSS17-6d" d="M 4288 1877 
C 4288 2308 4179 2816 3462 2816 
C 2982 2816 2694 2516 2566 2331 
C 2451 2670 2182 2816 1798 2816 
C 1363 2816 1088 2568 941 2389 
L 941 2758 
L 474 2758 
L 474 0 
L 960 0 
L 960 1559 
C 960 1939 1101 2428 1555 2428 
C 2138 2428 2138 2016 2138 1829 
L 2138 0 
L 2624 0 
L 2624 1559 
C 2624 1939 2765 2428 3219 2428 
C 3802 2428 3802 2016 3802 1829 
L 3802 0 
L 4288 0 
L 4288 1877 
z
" transform="scale(0.015625)"/>
       <path id="CMSS17-62" d="M 954 4416 
L 480 4416 
L 480 -13 
L 966 -13 
L 966 274 
C 1210 38 1504 -64 1766 -64 
C 2381 -64 2880 549 2880 1352 
C 2880 2086 2496 2756 1926 2756 
C 1523 2756 1165 2591 954 2419 
L 954 4416 
z
M 966 2046 
C 1107 2222 1306 2368 1587 2368 
C 1965 2368 2394 2097 2394 1352 
C 2394 558 1882 325 1530 325 
C 1402 325 1267 356 1139 464 
C 966 615 966 709 966 797 
L 966 2046 
z
" transform="scale(0.015625)"/>
       <path id="CMSS17-66" d="M 1075 2368 
L 1722 2368 
L 1722 2737 
L 1062 2737 
L 1062 3559 
C 1062 4014 1408 4092 1606 4092 
C 1670 4092 1850 4092 2080 4009 
L 2080 4429 
C 1933 4461 1754 4480 1613 4480 
C 1018 4480 602 3993 602 3359 
L 602 2737 
L 160 2737 
L 160 2368 
L 602 2368 
L 602 0 
L 1075 0 
L 1075 2368 
z
" transform="scale(0.015625)"/>
       <path id="CMSS17-53" d="M 2797 4169 
C 2515 4334 2208 4480 1690 4480 
C 864 4480 333 3879 333 3266 
C 333 3025 403 2753 653 2475 
C 902 2196 1184 2121 1542 2033 
C 1690 1994 1939 1924 1984 1906 
C 2342 1767 2515 1444 2515 1140 
C 2515 742 2202 318 1645 318 
C 1453 318 890 318 358 819 
L 269 318 
C 794 -64 1363 -128 1651 -128 
C 2438 -128 3002 488 3002 1186 
C 3002 1440 2925 1763 2656 2061 
C 2394 2347 2163 2410 1638 2549 
C 1338 2626 1146 2677 986 2873 
C 877 3013 819 3146 819 3317 
C 819 3673 1126 4060 1690 4060 
C 1971 4060 2336 4002 2707 3660 
L 2797 4169 
z
" transform="scale(0.015625)"/>
       <path id="CMSS17-68" d="M 2618 1891 
C 2618 2292 2522 2820 1798 2820 
C 1395 2820 1133 2623 947 2407 
L 947 4448 
L 474 4448 
L 474 32 
L 960 32 
L 960 1573 
C 960 1973 1114 2432 1549 2432 
C 2112 2432 2131 2056 2131 1839 
L 2131 32 
L 2618 32 
L 2618 1891 
z
" transform="scale(0.015625)"/>
       <path id="CMSS17-69" d="M 979 4183 
L 442 4183 
L 442 3648 
L 979 3648 
L 979 4183 
z
M 947 2739 
L 474 2739 
L 474 0 
L 947 0 
L 947 2739 
z
" transform="scale(0.015625)"/>
       <path id="CMSS17-43" d="M 3501 714 
C 3072 427 2874 344 2355 344 
C 1459 344 934 1303 934 2179 
C 934 3112 1472 4032 2381 4032 
C 2790 4032 3059 3918 3386 3715 
L 3475 4217 
C 3168 4370 2778 4440 2387 4440 
C 1158 4440 397 3316 397 2179 
C 397 927 1299 -64 2323 -64 
C 2874 -64 3066 -19 3539 280 
L 3501 714 
z
" transform="scale(0.015625)"/>
       <path id="CMSS17-73" d="M 2061 2627 
C 1683 2807 1389 2807 1197 2807 
C 742 2807 198 2648 198 2003 
C 198 1359 902 1218 1094 1179 
C 1389 1122 1715 1058 1715 740 
C 1715 337 1254 337 1171 337 
C 915 337 563 407 243 638 
L 166 210 
C 531 0 883 -64 1178 -64 
C 1965 -64 2163 416 2163 781 
C 2163 1094 1984 1305 1862 1401 
C 1651 1568 1574 1587 1050 1696 
C 960 1709 646 1779 646 2066 
C 646 2432 1050 2432 1139 2432 
C 1555 2432 1811 2303 1984 2208 
L 2061 2627 
z
" transform="scale(0.015625)"/>
      </defs>
      <use xlink:href="#CMSS17-1f" transform="scale(0.996264)"/>
      <use xlink:href="#CMSS17-4e" transform="translate(104.097048 0) scale(0.996264)"/>
      <use xlink:href="#CMSS17-75" transform="translate(170.158567 0) scale(0.996264)"/>
      <use xlink:href="#CMSS17-6d" transform="translate(218.36351 0) scale(0.996264)"/>
      <use xlink:href="#CMSS17-62" transform="translate(292.592764 0) scale(0.996264)"/>
      <use xlink:href="#CMSS17-65" transform="translate(343.400146 0) scale(0.996264)"/>
      <use xlink:href="#CMSS17-72" transform="translate(385.038968 0) scale(0.996264)"/>
      <use xlink:href="#CMSS17-6f" transform="translate(448.177854 0) scale(0.996264)"/>
      <use xlink:href="#CMSS17-66" transform="translate(495.021477 0) scale(0.996264)"/>
      <use xlink:href="#CMSS17-53" transform="translate(554.877249 0) scale(0.996264)"/>
      <use xlink:href="#CMSS17-68" transform="translate(606.925765 0) scale(0.996264)"/>
      <use xlink:href="#CMSS17-69" transform="translate(655.130708 0) scale(0.996264)"/>
      <use xlink:href="#CMSS17-66" transform="translate(677.311431 0) scale(0.996264)"/>
      <use xlink:href="#CMSS17-74" transform="translate(705.93809 0) scale(0.996264)"/>
      <use xlink:href="#CMSS17-43" transform="translate(770.998769 0) scale(0.996264)"/>
      <use xlink:href="#CMSS17-68" transform="translate(830.854541 0) scale(0.996264)"/>
      <use xlink:href="#CMSS17-61" transform="translate(879.059484 0) scale(0.996264)"/>
      <use xlink:href="#CMSS17-6e" transform="translate(923.981405 0) scale(0.996264)"/>
      <use xlink:href="#CMSS17-67" transform="translate(972.186348 0) scale(0.996264)"/>
      <use xlink:href="#CMSS17-65" transform="translate(1019.029971 0) scale(0.996264)"/>
      <use xlink:href="#CMSS17-73" transform="translate(1060.668793 0) scale(0.996264)"/>
     </g>
    </g>
   </g>
   <g id="PathCollection_7">
    <g clip-path="url(#p53dc6ad765)">
     <use xlink:href="#m36537a9955" x="544.761028" y="22.954816" style="fill: #feb77e; stroke: #ffffff; stroke-width: 0.48"/>
     <use xlink:href="#m36537a9955" x="631.356981" y="248.812155" style="fill: #feb77e; stroke: #ffffff; stroke-width: 0.48"/>
     <use xlink:href="#m36537a9955" x="717.952934" y="238.557415" style="fill: #feb77e; stroke: #ffffff; stroke-width: 0.48"/>
     <use xlink:href="#m36537a9955" x="804.548887" y="250.794338" style="fill: #feb77e; stroke: #ffffff; stroke-width: 0.48"/>
     <use xlink:href="#m36537a9955" x="891.14484" y="245.932164" style="fill: #feb77e; stroke: #ffffff; stroke-width: 0.48"/>
     <use xlink:href="#m36537a9955" x="977.740793" y="252.202524" style="fill: #feb77e; stroke: #ffffff; stroke-width: 0.48"/>
    </g>
   </g>
   <g id="PathCollection_8">
    <g clip-path="url(#p53dc6ad765)">
     <use xlink:href="#m829e98527a" x="544.761028" y="22.954816" style="fill: #feb77e; stroke: #ffffff; stroke-width: 0.48"/>
     <use xlink:href="#m829e98527a" x="631.356981" y="22.954816" style="fill: #feb77e; stroke: #ffffff; stroke-width: 0.48"/>
     <use xlink:href="#m829e98527a" x="717.952934" y="22.954816" style="fill: #feb77e; stroke: #ffffff; stroke-width: 0.48"/>
     <use xlink:href="#m829e98527a" x="804.548887" y="22.954816" style="fill: #feb77e; stroke: #ffffff; stroke-width: 0.48"/>
     <use xlink:href="#m829e98527a" x="891.14484" y="22.954816" style="fill: #feb77e; stroke: #ffffff; stroke-width: 0.48"/>
     <use xlink:href="#m829e98527a" x="977.740793" y="22.954816" style="fill: #feb77e; stroke: #ffffff; stroke-width: 0.48"/>
    </g>
   </g>
   <g id="PathCollection_9">
    <g clip-path="url(#p53dc6ad765)">
     <use xlink:href="#m62796c0be6" x="544.761028" y="22.954816" style="fill: #251255; stroke: #ffffff; stroke-width: 0.48"/>
     <use xlink:href="#m62796c0be6" x="631.356981" y="286.237741" style="fill: #251255; stroke: #ffffff; stroke-width: 0.48"/>
     <use xlink:href="#m62796c0be6" x="717.952934" y="286.442893" style="fill: #251255; stroke: #ffffff; stroke-width: 0.48"/>
     <use xlink:href="#m62796c0be6" x="804.548887" y="294.115006" style="fill: #251255; stroke: #ffffff; stroke-width: 0.48"/>
     <use xlink:href="#m62796c0be6" x="891.14484" y="303.683524" style="fill: #251255; stroke: #ffffff; stroke-width: 0.48"/>
     <use xlink:href="#m62796c0be6" x="977.740793" y="315.658111" style="fill: #251255; stroke: #ffffff; stroke-width: 0.48"/>
    </g>
   </g>
   <g id="PathCollection_10">
    <g clip-path="url(#p53dc6ad765)">
     <use xlink:href="#meb91b39b45" x="544.761028" y="22.954816" style="fill: #251255; stroke: #ffffff; stroke-width: 0.48"/>
     <use xlink:href="#meb91b39b45" x="631.356981" y="22.954816" style="fill: #251255; stroke: #ffffff; stroke-width: 0.48"/>
     <use xlink:href="#meb91b39b45" x="717.952934" y="22.954816" style="fill: #251255; stroke: #ffffff; stroke-width: 0.48"/>
     <use xlink:href="#meb91b39b45" x="804.548887" y="22.954816" style="fill: #251255; stroke: #ffffff; stroke-width: 0.48"/>
     <use xlink:href="#meb91b39b45" x="891.14484" y="22.954816" style="fill: #251255; stroke: #ffffff; stroke-width: 0.48"/>
     <use xlink:href="#meb91b39b45" x="977.740793" y="22.954816" style="fill: #251255; stroke: #ffffff; stroke-width: 0.48"/>
    </g>
   </g>
   <g id="PathCollection_11">
    <g clip-path="url(#p53dc6ad765)">
     <use xlink:href="#m857a4c1b47" x="544.761028" y="22.954816" style="fill: #b73779; stroke: #ffffff; stroke-width: 0.48"/>
     <use xlink:href="#m857a4c1b47" x="631.356981" y="289.302155" style="fill: #b73779; stroke: #ffffff; stroke-width: 0.48"/>
     <use xlink:href="#m857a4c1b47" x="717.952934" y="293.215769" style="fill: #b73779; stroke: #ffffff; stroke-width: 0.48"/>
     <use xlink:href="#m857a4c1b47" x="804.548887" y="302.218153" style="fill: #b73779; stroke: #ffffff; stroke-width: 0.48"/>
     <use xlink:href="#m857a4c1b47" x="891.14484" y="314.334987" style="fill: #b73779; stroke: #ffffff; stroke-width: 0.48"/>
     <use xlink:href="#m857a4c1b47" x="977.740793" y="338.05113" style="fill: #b73779; stroke: #ffffff; stroke-width: 0.48"/>
    </g>
   </g>
   <g id="PathCollection_12">
    <g clip-path="url(#p53dc6ad765)">
     <use xlink:href="#m00433470c1" x="544.761028" y="22.954816" style="fill: #b73779; stroke: #ffffff; stroke-width: 0.48"/>
     <use xlink:href="#m00433470c1" x="631.356981" y="22.954816" style="fill: #b73779; stroke: #ffffff; stroke-width: 0.48"/>
     <use xlink:href="#m00433470c1" x="717.952934" y="22.954816" style="fill: #b73779; stroke: #ffffff; stroke-width: 0.48"/>
     <use xlink:href="#m00433470c1" x="804.548887" y="22.954816" style="fill: #b73779; stroke: #ffffff; stroke-width: 0.48"/>
     <use xlink:href="#m00433470c1" x="891.14484" y="22.954816" style="fill: #b73779; stroke: #ffffff; stroke-width: 0.48"/>
     <use xlink:href="#m00433470c1" x="977.740793" y="22.954816" style="fill: #b73779; stroke: #ffffff; stroke-width: 0.48"/>
    </g>
   </g>
   <g id="line2d_30">
    <path d="M 544.761028 22.954816 
L 631.356981 248.812155 
L 717.952934 238.557415 
L 804.548887 250.794338 
L 891.14484 245.932164 
L 977.740793 252.202524 
" clip-path="url(#p53dc6ad765)" style="fill: none; stroke: #feb77e; stroke-width: 1.5; stroke-linecap: round"/>
   </g>
   <g id="line2d_31">
    <path d="M 544.761028 22.954816 
L 631.356981 22.954816 
L 717.952934 22.954816 
L 804.548887 22.954816 
L 891.14484 22.954816 
L 977.740793 22.954816 
" clip-path="url(#p53dc6ad765)" style="fill: none; stroke-dasharray: 5.55,2.4; stroke-dashoffset: 0; stroke: #feb77e; stroke-opacity: 0.8; stroke-width: 1.5"/>
   </g>
   <g id="line2d_32">
    <path d="M 544.761028 22.954816 
L 631.356981 286.237741 
L 717.952934 286.442893 
L 804.548887 294.115006 
L 891.14484 303.683524 
L 977.740793 315.658111 
" clip-path="url(#p53dc6ad765)" style="fill: none; stroke: #251255; stroke-width: 1.5; stroke-linecap: round"/>
   </g>
   <g id="line2d_33">
    <path d="M 544.761028 22.954816 
L 631.356981 22.954816 
L 717.952934 22.954816 
L 804.548887 22.954816 
L 891.14484 22.954816 
L 977.740793 22.954816 
" clip-path="url(#p53dc6ad765)" style="fill: none; stroke-dasharray: 5.55,2.4; stroke-dashoffset: 0; stroke: #251255; stroke-opacity: 0.8; stroke-width: 1.5"/>
   </g>
   <g id="line2d_34">
    <path d="M 544.761028 22.954816 
L 631.356981 289.302155 
L 717.952934 293.215769 
L 804.548887 302.218153 
L 891.14484 314.334987 
L 977.740793 338.05113 
" clip-path="url(#p53dc6ad765)" style="fill: none; stroke: #b73779; stroke-width: 1.5; stroke-linecap: round"/>
   </g>
   <g id="line2d_35">
    <path d="M 544.761028 22.954816 
L 631.356981 22.954816 
L 717.952934 22.954816 
L 804.548887 22.954816 
L 891.14484 22.954816 
L 977.740793 22.954816 
" clip-path="url(#p53dc6ad765)" style="fill: none; stroke-dasharray: 5.55,2.4; stroke-dashoffset: 0; stroke: #b73779; stroke-opacity: 0.8; stroke-width: 1.5"/>
   </g>
   <g id="patch_8">
    <path d="M 538.266332 348.48 
L 538.266332 7.2 
" style="fill: none; stroke: #cccccc; stroke-width: 1.25; stroke-linejoin: miter; stroke-linecap: square"/>
   </g>
   <g id="patch_9">
    <path d="M 986.400388 348.48 
L 986.400388 7.2 
" style="fill: none; stroke: #cccccc; stroke-width: 1.25; stroke-linejoin: miter; stroke-linecap: square"/>
   </g>
   <g id="patch_10">
    <path d="M 538.266332 348.48 
L 986.400388 348.48 
" style="fill: none; stroke: #cccccc; stroke-width: 1.25; stroke-linejoin: miter; stroke-linecap: square"/>
   </g>
   <g id="patch_11">
    <path d="M 538.266332 7.2 
L 986.400388 7.2 
" style="fill: none; stroke: #cccccc; stroke-width: 1.25; stroke-linejoin: miter; stroke-linecap: square"/>
   </g>
  </g>
  <g id="text_26">
   <!-- Epsilon $\varepsilon$ -->
   <g style="fill: #262626" transform="translate(474.292131 391.68) scale(0.13 -0.13)">
    <defs>
     <path id="CMSS17-45" d="M 1958 433 
C 1446 433 1216 433 1101 433 
L 1101 2107 
L 3085 2107 
L 3085 2496 
L 1101 2496 
L 1101 4009 
L 1926 4009 
C 2003 4009 2080 4009 2157 4009 
L 3251 4009 
L 3251 4416 
L 563 4416 
L 563 0 
L 3334 0 
L 3334 433 
L 1958 433 
z
" transform="scale(0.015625)"/>
     <path id="CMSS17-70" d="M 966 333 
C 1178 129 1466 -5 1773 -5 
C 2368 -5 2880 603 2880 1412 
C 2880 2159 2496 2816 1946 2816 
C 1626 2816 1242 2702 954 2472 
L 954 2765 
L 480 2765 
L 480 -1216 
L 966 -1216 
L 966 333 
z
M 966 2100 
C 1018 2176 1235 2415 1587 2415 
C 2035 2415 2394 1960 2394 1412 
C 2394 787 1958 384 1530 384 
C 1402 384 1267 415 1139 523 
C 966 674 966 768 966 857 
L 966 2100 
z
" transform="scale(0.015625)"/>
     <path id="CMMI12-22" d="M 890 1427 
C 1094 1345 1312 1345 1434 1345 
C 1600 1345 1933 1345 1933 1550 
C 1933 1678 1811 1728 1485 1728 
C 1325 1728 1133 1709 909 1613 
C 710 1708 634 1852 634 1990 
C 634 2379 1261 2606 1830 2606 
C 1939 2606 2170 2606 2438 2411 
C 2477 2387 2496 2367 2541 2367 
C 2618 2367 2701 2449 2701 2526 
C 2701 2639 2330 2880 1888 2880 
C 1171 2880 493 2449 493 1972 
C 493 1734 646 1586 755 1509 
C 384 1301 166 961 166 652 
C 166 219 563 -128 1178 -128 
C 2022 -128 2362 424 2362 512 
C 2362 543 2336 568 2304 568 
C 2272 568 2259 549 2234 512 
C 2163 395 1997 146 1235 146 
C 838 146 314 245 314 686 
C 314 898 474 1214 890 1427 
z
M 1088 1518 
C 1261 1600 1427 1600 1472 1600 
C 1651 1600 1683 1583 1786 1545 
C 1677 1472 1664 1472 1434 1472 
C 1318 1472 1216 1472 1088 1518 
z
" transform="scale(0.015625)"/>
    </defs>
    <use xlink:href="#CMSS17-45" transform="scale(0.996264)"/>
    <use xlink:href="#CMSS17-70" transform="translate(55.892013 0) scale(0.996264)"/>
    <use xlink:href="#CMSS17-73" transform="translate(104.096956 0) scale(0.996264)"/>
    <use xlink:href="#CMSS17-69" transform="translate(140.010498 0) scale(0.996264)"/>
    <use xlink:href="#CMSS17-6c" transform="translate(162.191221 0) scale(0.996264)"/>
    <use xlink:href="#CMSS17-6f" transform="translate(184.371944 0) scale(0.996264)"/>
    <use xlink:href="#CMSS17-6e" transform="translate(231.215568 0) scale(0.996264)"/>
    <use xlink:href="#CMMI12-22" transform="translate(310.649624 0) scale(0.996264)"/>
   </g>
  </g>
  <g id="legend_1">
   <g id="line2d_36">
    <path d="M 151.80478 412.571208 
L 163.80478 412.571208 
L 175.80478 412.571208 
" style="fill: none; stroke: #feb77e; stroke-width: 1.5; stroke-linecap: round"/>
   </g>
   <g id="text_27">
    <!-- HSA ($\chi$=1) -->
    <g style="fill: #262626" transform="translate(185.40478 416.771208) scale(0.12 -0.12)">
     <defs>
      <path id="CMSS17-48" d="M 3674 4416 
L 3136 4416 
L 3136 2501 
L 1101 2501 
L 1101 4416 
L 563 4416 
L 563 0 
L 1101 0 
L 1101 2112 
L 3136 2112 
L 3136 0 
L 3674 0 
L 3674 4416 
z
" transform="scale(0.015625)"/>
      <path id="CMSS17-41" d="M 2272 4416 
L 1722 4416 
L 166 0 
L 653 0 
L 1101 1280 
L 2816 1280 
L 3270 0 
L 3827 0 
L 2272 4416 
z
M 2694 1637 
L 1222 1637 
C 1530 2528 1914 3638 1958 3925 
L 1965 3925 
C 2010 3663 2138 3281 2246 2956 
L 2694 1637 
z
" transform="scale(0.015625)"/>
      <path id="CMSS17-28" d="M 1613 4768 
C 1267 4417 474 3601 474 1588 
C 474 -433 1267 -1243 1613 -1600 
L 2003 -1600 
C 1216 -784 960 357 960 1581 
C 960 2798 1203 3946 2003 4768 
L 1613 4768 
z
" transform="scale(0.015625)"/>
      <path id="CMMI12-1f" d="M 2112 1039 
C 1939 1566 1978 1515 1818 1959 
C 1619 2505 1568 2550 1478 2639 
C 1363 2740 1146 2816 922 2816 
C 563 2816 390 2486 390 2403 
C 390 2365 422 2346 461 2346 
C 512 2346 525 2378 531 2403 
C 627 2651 826 2689 883 2689 
C 1069 2689 1248 2232 1363 1928 
C 1517 1540 1594 1273 1766 657 
L 256 -1049 
C 198 -1119 198 -1144 198 -1151 
C 198 -1202 230 -1215 256 -1215 
C 282 -1215 301 -1202 320 -1183 
C 499 -1004 896 -533 1062 -342 
L 1805 499 
C 2118 -479 2118 -492 2214 -727 
C 2317 -968 2451 -1280 2995 -1280 
C 3360 -1280 3526 -955 3526 -866 
C 3526 -822 3488 -809 3456 -809 
C 3405 -809 3398 -835 3379 -886 
C 3309 -1063 3142 -1152 3040 -1152 
C 2957 -1152 2854 -1152 2573 -447 
C 2406 -21 2259 486 2150 880 
L 3667 2594 
C 3718 2652 3725 2658 3725 2683 
C 3725 2727 3693 2746 3661 2746 
C 3642 2746 3622 2746 3558 2677 
L 2112 1039 
z
" transform="scale(0.015625)"/>
      <path id="CMSS17-3d" d="M 4147 2017 
C 4243 2017 4339 2017 4339 2125 
C 4339 2240 4230 2240 4122 2240 
L 550 2240 
C 442 2240 333 2240 333 2125 
C 333 2017 429 2017 525 2017 
L 4147 2017 
z
M 4122 896 
C 4230 896 4339 896 4339 1011 
C 4339 1119 4243 1119 4147 1119 
L 525 1119 
C 429 1119 333 1119 333 1011 
C 333 896 442 896 550 896 
L 4122 896 
z
" transform="scale(0.015625)"/>
      <path id="CMSS17-31" d="M 1818 4288 
L 1696 4288 
C 1350 3940 947 3890 538 3890 
L 538 3520 
C 723 3520 1024 3520 1325 3667 
L 1325 369 
L 570 369 
L 570 0 
L 2573 0 
L 2573 369 
L 1818 369 
L 1818 4288 
z
" transform="scale(0.015625)"/>
      <path id="CMSS17-29" d="M 723 -1600 
C 1069 -1249 1862 -433 1862 1581 
C 1862 3601 1069 4411 723 4768 
L 333 4768 
C 1120 3952 1376 2811 1376 1588 
C 1376 370 1133 -778 333 -1600 
L 723 -1600 
z
" transform="scale(0.015625)"/>
     </defs>
     <use xlink:href="#CMSS17-48" transform="scale(0.996264)"/>
     <use xlink:href="#CMSS17-53" transform="translate(66.061519 0) scale(0.996264)"/>
     <use xlink:href="#CMSS17-41" transform="translate(118.110035 0) scale(0.996264)"/>
     <use xlink:href="#CMSS17-28" transform="translate(211.557003 0) scale(0.996264)"/>
     <use xlink:href="#CMMI12-1f" transform="translate(247.990917 0) scale(0.996264)"/>
     <use xlink:href="#CMSS17-3d" transform="translate(309.103876 0) scale(0.996264)"/>
     <use xlink:href="#CMSS17-31" transform="translate(381.971811 0) scale(0.996264)"/>
     <use xlink:href="#CMSS17-29" transform="translate(428.815435 0) scale(0.996264)"/>
    </g>
   </g>
   <g id="line2d_37">
    <path d="M 267.145983 412.571208 
L 279.145983 412.571208 
L 291.145983 412.571208 
" style="fill: none; stroke-dasharray: 5.55,2.4; stroke-dashoffset: 0; stroke: #feb77e; stroke-opacity: 0.8; stroke-width: 1.5"/>
   </g>
   <g id="text_28">
    <!-- MLSA ($\chi$=1) -->
    <g style="fill: #262626" transform="translate(300.745983 416.771208) scale(0.12 -0.12)">
     <defs>
      <path id="CMSS17-4d" d="M 3194 2371 
L 2886 1473 
C 2835 1307 2662 791 2624 587 
L 2618 587 
C 2598 715 2560 849 2458 1174 
C 2400 1365 2336 1562 2272 1741 
L 1325 4416 
L 576 4416 
L 576 0 
L 1075 0 
L 1075 3900 
L 1082 3900 
C 1082 3894 1139 3613 1530 2499 
L 2374 96 
L 2848 96 
L 3610 2231 
C 3661 2378 3821 2843 3891 3066 
C 3955 3257 4115 3728 4154 3913 
L 4160 3913 
L 4160 0 
L 4666 0 
L 4666 4416 
L 3923 4416 
L 3194 2371 
z
" transform="scale(0.015625)"/>
      <path id="CMSS17-4c" d="M 1670 414 
C 1594 414 1517 414 1440 414 
L 1101 414 
L 1101 4416 
L 563 4416 
L 563 0 
L 3002 0 
L 3002 414 
L 1670 414 
z
" transform="scale(0.015625)"/>
     </defs>
     <use xlink:href="#CMSS17-4d" transform="scale(0.996264)"/>
     <use xlink:href="#CMSS17-4c" transform="translate(81.67603 0) scale(0.996264)"/>
     <use xlink:href="#CMSS17-53" transform="translate(132.363135 0) scale(0.996264)"/>
     <use xlink:href="#CMSS17-41" transform="translate(184.411651 0) scale(0.996264)"/>
     <use xlink:href="#CMSS17-28" transform="translate(277.858619 0) scale(0.996264)"/>
     <use xlink:href="#CMMI12-1f" transform="translate(314.292533 0) scale(0.996264)"/>
     <use xlink:href="#CMSS17-3d" transform="translate(375.405492 0) scale(0.996264)"/>
     <use xlink:href="#CMSS17-31" transform="translate(448.273427 0) scale(0.996264)"/>
     <use xlink:href="#CMSS17-29" transform="translate(495.117051 0) scale(0.996264)"/>
    </g>
   </g>
   <g id="line2d_38">
    <path d="M 390.761593 412.571208 
L 402.761593 412.571208 
L 414.761593 412.571208 
" style="fill: none; stroke: #251255; stroke-width: 1.5; stroke-linecap: round"/>
   </g>
   <g id="text_29">
    <!-- HSA ($\chi$=3) -->
    <g style="fill: #262626" transform="translate(424.361593 416.771208) scale(0.12 -0.12)">
     <defs>
      <path id="CMSS17-33" d="M 1005 2025 
L 1440 2025 
C 2042 2025 2214 1507 2214 1146 
C 2214 653 1933 267 1472 267 
C 1114 267 608 444 320 912 
C 275 691 275 678 250 526 
C 550 88 1037 -128 1485 -128 
C 2214 -128 2752 473 2752 1138 
C 2752 1638 2400 2057 1920 2215 
C 2304 2424 2586 2816 2586 3273 
C 2586 3805 2093 4229 1491 4229 
C 941 4229 512 3892 333 3530 
C 378 3468 493 3284 550 3189 
C 691 3562 1056 3840 1485 3840 
C 1843 3840 2080 3607 2080 3271 
C 2080 2923 1856 2543 1478 2455 
C 1453 2455 1056 2417 1005 2411 
L 1005 2025 
z
" transform="scale(0.015625)"/>
     </defs>
     <use xlink:href="#CMSS17-48" transform="scale(0.996264)"/>
     <use xlink:href="#CMSS17-53" transform="translate(66.061519 0) scale(0.996264)"/>
     <use xlink:href="#CMSS17-41" transform="translate(118.110035 0) scale(0.996264)"/>
     <use xlink:href="#CMSS17-28" transform="translate(211.557003 0) scale(0.996264)"/>
     <use xlink:href="#CMMI12-1f" transform="translate(247.990917 0) scale(0.996264)"/>
     <use xlink:href="#CMSS17-3d" transform="translate(309.103876 0) scale(0.996264)"/>
     <use xlink:href="#CMSS17-33" transform="translate(381.971811 0) scale(0.996264)"/>
     <use xlink:href="#CMSS17-29" transform="translate(428.815435 0) scale(0.996264)"/>
    </g>
   </g>
   <g id="line2d_39">
    <path d="M 506.102797 412.571208 
L 518.102797 412.571208 
L 530.102797 412.571208 
" style="fill: none; stroke-dasharray: 5.55,2.4; stroke-dashoffset: 0; stroke: #251255; stroke-opacity: 0.8; stroke-width: 1.5"/>
   </g>
   <g id="text_30">
    <!-- MLSA ($\chi$=3) -->
    <g style="fill: #262626" transform="translate(539.702797 416.771208) scale(0.12 -0.12)">
     <use xlink:href="#CMSS17-4d" transform="scale(0.996264)"/>
     <use xlink:href="#CMSS17-4c" transform="translate(81.67603 0) scale(0.996264)"/>
     <use xlink:href="#CMSS17-53" transform="translate(132.363135 0) scale(0.996264)"/>
     <use xlink:href="#CMSS17-41" transform="translate(184.411651 0) scale(0.996264)"/>
     <use xlink:href="#CMSS17-28" transform="translate(277.858619 0) scale(0.996264)"/>
     <use xlink:href="#CMMI12-1f" transform="translate(314.292533 0) scale(0.996264)"/>
     <use xlink:href="#CMSS17-3d" transform="translate(375.405492 0) scale(0.996264)"/>
     <use xlink:href="#CMSS17-33" transform="translate(448.273427 0) scale(0.996264)"/>
     <use xlink:href="#CMSS17-29" transform="translate(495.117051 0) scale(0.996264)"/>
    </g>
   </g>
   <g id="line2d_40">
    <path d="M 629.718407 412.571208 
L 641.718407 412.571208 
L 653.718407 412.571208 
" style="fill: none; stroke: #b73779; stroke-width: 1.5; stroke-linecap: round"/>
   </g>
   <g id="text_31">
    <!-- HSA ($\chi$=5) -->
    <g style="fill: #262626" transform="translate(663.318407 416.771208) scale(0.12 -0.12)">
     <defs>
      <path id="CMSS17-35" d="M 934 3752 
L 2502 3752 
L 2502 4160 
L 467 4160 
L 467 1781 
L 896 1781 
C 1011 2046 1248 2240 1555 2240 
C 1843 2240 2163 1989 2163 1266 
C 2163 493 1709 267 1376 267 
C 966 267 589 512 422 851 
L 218 499 
C 512 49 992 -128 1376 -128 
C 2118 -128 2701 497 2701 1253 
C 2701 2030 2182 2629 1562 2629 
C 1338 2629 1120 2553 934 2399 
L 934 3752 
z
" transform="scale(0.015625)"/>
     </defs>
     <use xlink:href="#CMSS17-48" transform="scale(0.996264)"/>
     <use xlink:href="#CMSS17-53" transform="translate(66.061519 0) scale(0.996264)"/>
     <use xlink:href="#CMSS17-41" transform="translate(118.110035 0) scale(0.996264)"/>
     <use xlink:href="#CMSS17-28" transform="translate(211.557003 0) scale(0.996264)"/>
     <use xlink:href="#CMMI12-1f" transform="translate(247.990917 0) scale(0.996264)"/>
     <use xlink:href="#CMSS17-3d" transform="translate(309.103876 0) scale(0.996264)"/>
     <use xlink:href="#CMSS17-35" transform="translate(381.971811 0) scale(0.996264)"/>
     <use xlink:href="#CMSS17-29" transform="translate(428.815435 0) scale(0.996264)"/>
    </g>
   </g>
   <g id="line2d_41">
    <path d="M 745.05961 412.571208 
L 757.05961 412.571208 
L 769.05961 412.571208 
" style="fill: none; stroke-dasharray: 5.55,2.4; stroke-dashoffset: 0; stroke: #b73779; stroke-opacity: 0.8; stroke-width: 1.5"/>
   </g>
   <g id="text_32">
    <!-- MLSA ($\chi$=5) -->
    <g style="fill: #262626" transform="translate(778.65961 416.771208) scale(0.12 -0.12)">
     <use xlink:href="#CMSS17-4d" transform="scale(0.996264)"/>
     <use xlink:href="#CMSS17-4c" transform="translate(81.67603 0) scale(0.996264)"/>
     <use xlink:href="#CMSS17-53" transform="translate(132.363135 0) scale(0.996264)"/>
     <use xlink:href="#CMSS17-41" transform="translate(184.411651 0) scale(0.996264)"/>
     <use xlink:href="#CMSS17-28" transform="translate(277.858619 0) scale(0.996264)"/>
     <use xlink:href="#CMMI12-1f" transform="translate(314.292533 0) scale(0.996264)"/>
     <use xlink:href="#CMSS17-3d" transform="translate(375.405492 0) scale(0.996264)"/>
     <use xlink:href="#CMSS17-35" transform="translate(448.273427 0) scale(0.996264)"/>
     <use xlink:href="#CMSS17-29" transform="translate(495.117051 0) scale(0.996264)"/>
    </g>
   </g>
  </g>
 </g>
 <defs>
  <clipPath id="p843be172db">
   <rect x="43.171275" y="7.2" width="448.134056" height="341.28"/>
  </clipPath>
  <clipPath id="p53dc6ad765">
   <rect x="538.266332" y="7.2" width="448.134056" height="341.28"/>
  </clipPath>
 </defs>
</svg>
