<?xml version="1.0" encoding="utf-8" standalone="no"?>
<!DOCTYPE svg PUBLIC "-//W3C//DTD SVG 1.1//EN"
  "http://www.w3.org/Graphics/SVG/1.1/DTD/svg11.dtd">
<svg xmlns:xlink="http://www.w3.org/1999/xlink" width="422.64pt" height="206.64pt" viewBox="0 0 422.64 206.64" xmlns="http://www.w3.org/2000/svg" version="1.1">
 <metadata>
  <rdf:RDF xmlns:dc="http://purl.org/dc/elements/1.1/" xmlns:cc="http://creativecommons.org/ns#" xmlns:rdf="http://www.w3.org/1999/02/22-rdf-syntax-ns#">
   <cc:Work>
    <dc:type rdf:resource="http://purl.org/dc/dcmitype/StillImage"/>
    <dc:date>2024-08-19T19:53:19.327791</dc:date>
    <dc:format>image/svg+xml</dc:format>
    <dc:creator>
     <cc:Agent>
      <dc:title>Matplotlib v3.9.0, https://matplotlib.org/</dc:title>
     </cc:Agent>
    </dc:creator>
   </cc:Work>
  </rdf:RDF>
 </metadata>
 <defs>
  <style type="text/css">*{stroke-linejoin: round; stroke-linecap: butt}</style>
 </defs>
 <g id="figure_1">
  <g id="patch_1">
   <path d="M 0 206.64 
L 422.64 206.64 
L 422.64 0 
L 0 0 
z
" style="fill: #ffffff"/>
  </g>
  <g id="axes_1">
   <g id="patch_2">
    <path d="M 41.764313 170.728647 
L 415.44 170.728647 
L 415.44 7.2 
L 41.764313 7.2 
z
" style="fill: #ffffff"/>
   </g>
   <g id="patch_3">
    <path d="M 58.749572 170.728647 
L 61.992581 170.728647 
L 61.992581 111.546851 
L 58.749572 111.546851 
z
" clip-path="url(#p244e6f9060)" style="fill: #000004; stroke: #000004; stroke-linejoin: miter"/>
   </g>
   <g id="patch_4">
    <path d="M 62.803333 170.728647 
L 66.046342 170.728647 
L 66.046342 99.087525 
L 62.803333 99.087525 
z
" clip-path="url(#p244e6f9060)" style="fill: #8c2981; stroke: #8c2981; stroke-linejoin: miter"/>
   </g>
   <g id="patch_5">
    <path d="M 66.857094 170.728647 
L 70.100102 170.728647 
L 70.100102 147.367411 
L 66.857094 147.367411 
z
" clip-path="url(#p244e6f9060)" style="fill: #fe9f6d; stroke: #fe9f6d; stroke-linejoin: miter"/>
   </g>
   <g id="patch_6">
    <path d="M 70.910855 170.728647 
L 74.153863 170.728647 
L 74.153863 106.874604 
L 70.910855 106.874604 
z
" clip-path="url(#p244e6f9060)" style="fill: #000004; stroke: #000004; stroke-linejoin: miter"/>
   </g>
   <g id="patch_7">
    <path d="M 74.964616 170.728647 
L 78.207624 170.728647 
L 78.207624 109.989435 
L 74.964616 109.989435 
z
" clip-path="url(#p244e6f9060)" style="fill: #8c2981; stroke: #8c2981; stroke-linejoin: miter"/>
   </g>
   <g id="patch_8">
    <path d="M 79.018377 170.728647 
L 82.261385 170.728647 
L 82.261385 116.219098 
L 79.018377 116.219098 
z
" clip-path="url(#p244e6f9060)" style="fill: #fe9f6d; stroke: #fe9f6d; stroke-linejoin: miter"/>
   </g>
   <g id="patch_9">
    <path d="M 83.072138 170.728647 
L 86.315146 170.728647 
L 86.315146 122.44876 
L 83.072138 122.44876 
z
" clip-path="url(#p244e6f9060)" style="fill: #000004; stroke: #000004; stroke-linejoin: miter"/>
   </g>
   <g id="patch_10">
    <path d="M 87.125899 170.728647 
L 90.368907 170.728647 
L 90.368907 64.82438 
L 87.125899 64.82438 
z
" clip-path="url(#p244e6f9060)" style="fill: #8c2981; stroke: #8c2981; stroke-linejoin: miter"/>
   </g>
   <g id="patch_11">
    <path d="M 91.17966 170.728647 
L 94.422668 170.728647 
L 94.422668 159.826737 
L 91.17966 159.826737 
z
" clip-path="url(#p244e6f9060)" style="fill: #fe9f6d; stroke: #fe9f6d; stroke-linejoin: miter"/>
   </g>
   <g id="patch_12">
    <path d="M 95.233421 170.728647 
L 98.476429 170.728647 
L 98.476429 148.924827 
L 95.233421 148.924827 
z
" clip-path="url(#p244e6f9060)" style="fill: #000004; stroke: #000004; stroke-linejoin: miter"/>
   </g>
   <g id="patch_13">
    <path d="M 99.287182 170.728647 
L 102.53019 170.728647 
L 102.53019 33.676067 
L 99.287182 33.676067 
z
" clip-path="url(#p244e6f9060)" style="fill: #8c2981; stroke: #8c2981; stroke-linejoin: miter"/>
   </g>
   <g id="patch_14">
    <path d="M 103.340942 170.728647 
L 106.583951 170.728647 
L 106.583951 155.15449 
L 103.340942 155.15449 
z
" clip-path="url(#p244e6f9060)" style="fill: #fe9f6d; stroke: #fe9f6d; stroke-linejoin: miter"/>
   </g>
   <g id="patch_15">
    <path d="M 107.394703 170.728647 
L 110.637712 170.728647 
L 110.637712 162.941568 
L 107.394703 162.941568 
z
" clip-path="url(#p244e6f9060)" style="fill: #000004; stroke: #000004; stroke-linejoin: miter"/>
   </g>
   <g id="patch_16">
    <path d="M 111.448464 170.728647 
L 114.691473 170.728647 
L 114.691473 130.235839 
L 111.448464 130.235839 
z
" clip-path="url(#p244e6f9060)" style="fill: #8c2981; stroke: #8c2981; stroke-linejoin: miter"/>
   </g>
   <g id="patch_17">
    <path d="M 115.502225 170.728647 
L 118.745234 170.728647 
L 118.745234 81.955953 
L 115.502225 81.955953 
z
" clip-path="url(#p244e6f9060)" style="fill: #fe9f6d; stroke: #fe9f6d; stroke-linejoin: miter"/>
   </g>
   <g id="patch_18">
    <path d="M 119.555986 170.728647 
L 122.798995 170.728647 
L 122.798995 130.235839 
L 119.555986 130.235839 
z
" clip-path="url(#p244e6f9060)" style="fill: #000004; stroke: #000004; stroke-linejoin: miter"/>
   </g>
   <g id="patch_19">
    <path d="M 123.609747 170.728647 
L 126.852756 170.728647 
L 126.852756 142.695164 
L 123.609747 142.695164 
z
" clip-path="url(#p244e6f9060)" style="fill: #8c2981; stroke: #8c2981; stroke-linejoin: miter"/>
   </g>
   <g id="patch_20">
    <path d="M 127.663508 170.728647 
L 130.906517 170.728647 
L 130.906517 83.513368 
L 127.663508 83.513368 
z
" clip-path="url(#p244e6f9060)" style="fill: #fe9f6d; stroke: #fe9f6d; stroke-linejoin: miter"/>
   </g>
   <g id="patch_21">
    <path d="M 131.717269 170.728647 
L 134.960278 170.728647 
L 134.960278 92.857862 
L 131.717269 92.857862 
z
" clip-path="url(#p244e6f9060)" style="fill: #000004; stroke: #000004; stroke-linejoin: miter"/>
   </g>
   <g id="patch_22">
    <path d="M 135.77103 170.728647 
L 139.014039 170.728647 
L 139.014039 162.941568 
L 135.77103 162.941568 
z
" clip-path="url(#p244e6f9060)" style="fill: #8c2981; stroke: #8c2981; stroke-linejoin: miter"/>
   </g>
   <g id="patch_23">
    <path d="M 139.824791 170.728647 
L 143.0678 170.728647 
L 143.0678 138.022917 
L 139.824791 138.022917 
z
" clip-path="url(#p244e6f9060)" style="fill: #fe9f6d; stroke: #fe9f6d; stroke-linejoin: miter"/>
   </g>
   <g id="patch_24">
    <path d="M 143.878552 170.728647 
L 147.121561 170.728647 
L 147.121561 125.563592 
L 143.878552 125.563592 
z
" clip-path="url(#p244e6f9060)" style="fill: #000004; stroke: #000004; stroke-linejoin: miter"/>
   </g>
   <g id="patch_25">
    <path d="M 147.932313 170.728647 
L 151.175322 170.728647 
L 151.175322 85.070784 
L 147.932313 85.070784 
z
" clip-path="url(#p244e6f9060)" style="fill: #8c2981; stroke: #8c2981; stroke-linejoin: miter"/>
   </g>
   <g id="patch_26">
    <path d="M 151.986074 170.728647 
L 155.229083 170.728647 
L 155.229083 159.826737 
L 151.986074 159.826737 
z
" clip-path="url(#p244e6f9060)" style="fill: #fe9f6d; stroke: #fe9f6d; stroke-linejoin: miter"/>
   </g>
   <g id="patch_27">
    <path d="M 156.039835 170.728647 
L 159.282844 170.728647 
L 159.282844 156.711905 
L 156.039835 156.711905 
z
" clip-path="url(#p244e6f9060)" style="fill: #000004; stroke: #000004; stroke-linejoin: miter"/>
   </g>
   <g id="patch_28">
    <path d="M 160.093596 170.728647 
L 163.336605 170.728647 
L 163.336605 95.972694 
L 160.093596 95.972694 
z
" clip-path="url(#p244e6f9060)" style="fill: #8c2981; stroke: #8c2981; stroke-linejoin: miter"/>
   </g>
   <g id="patch_29">
    <path d="M 164.147357 170.728647 
L 167.390366 170.728647 
L 167.390366 120.891345 
L 164.147357 120.891345 
z
" clip-path="url(#p244e6f9060)" style="fill: #fe9f6d; stroke: #fe9f6d; stroke-linejoin: miter"/>
   </g>
   <g id="patch_30">
    <path d="M 168.201118 170.728647 
L 171.444127 170.728647 
L 171.444127 161.384152 
L 168.201118 161.384152 
z
" clip-path="url(#p244e6f9060)" style="fill: #000004; stroke: #000004; stroke-linejoin: miter"/>
   </g>
   <g id="patch_31">
    <path d="M 172.254879 170.728647 
L 175.497888 170.728647 
L 175.497888 89.743031 
L 172.254879 89.743031 
z
" clip-path="url(#p244e6f9060)" style="fill: #8c2981; stroke: #8c2981; stroke-linejoin: miter"/>
   </g>
   <g id="patch_32">
    <path d="M 176.30864 170.728647 
L 179.551649 170.728647 
L 179.551649 136.465502 
L 176.30864 136.465502 
z
" clip-path="url(#p244e6f9060)" style="fill: #fe9f6d; stroke: #fe9f6d; stroke-linejoin: miter"/>
   </g>
   <g id="patch_33">
    <path d="M 180.362401 170.728647 
L 183.60541 170.728647 
L 183.60541 53.92247 
L 180.362401 53.92247 
z
" clip-path="url(#p244e6f9060)" style="fill: #000004; stroke: #000004; stroke-linejoin: miter"/>
   </g>
   <g id="patch_34">
    <path d="M 184.416162 170.728647 
L 187.659171 170.728647 
L 187.659171 119.333929 
L 184.416162 119.333929 
z
" clip-path="url(#p244e6f9060)" style="fill: #8c2981; stroke: #8c2981; stroke-linejoin: miter"/>
   </g>
   <g id="patch_35">
    <path d="M 188.469923 170.728647 
L 191.712932 170.728647 
L 191.712932 145.809996 
L 188.469923 145.809996 
z
" clip-path="url(#p244e6f9060)" style="fill: #fe9f6d; stroke: #fe9f6d; stroke-linejoin: miter"/>
   </g>
   <g id="patch_36">
    <path d="M 192.523684 170.728647 
L 195.766693 170.728647 
L 195.766693 100.644941 
L 192.523684 100.644941 
z
" clip-path="url(#p244e6f9060)" style="fill: #000004; stroke: #000004; stroke-linejoin: miter"/>
   </g>
   <g id="patch_37">
    <path d="M 196.577445 170.728647 
L 199.820454 170.728647 
L 199.820454 148.924827 
L 196.577445 148.924827 
z
" clip-path="url(#p244e6f9060)" style="fill: #8c2981; stroke: #8c2981; stroke-linejoin: miter"/>
   </g>
   <g id="patch_38">
    <path d="M 200.631206 170.728647 
L 203.874215 170.728647 
L 203.874215 71.054043 
L 200.631206 71.054043 
z
" clip-path="url(#p244e6f9060)" style="fill: #fe9f6d; stroke: #fe9f6d; stroke-linejoin: miter"/>
   </g>
   <g id="patch_39">
    <path d="M 204.684967 170.728647 
L 207.927976 170.728647 
L 207.927976 138.022917 
L 204.684967 138.022917 
z
" clip-path="url(#p244e6f9060)" style="fill: #000004; stroke: #000004; stroke-linejoin: miter"/>
   </g>
   <g id="patch_40">
    <path d="M 208.738728 170.728647 
L 211.981737 170.728647 
L 211.981737 133.35067 
L 208.738728 133.35067 
z
" clip-path="url(#p244e6f9060)" style="fill: #8c2981; stroke: #8c2981; stroke-linejoin: miter"/>
   </g>
   <g id="patch_41">
    <path d="M 212.792489 170.728647 
L 216.035498 170.728647 
L 216.035498 86.6282 
L 212.792489 86.6282 
z
" clip-path="url(#p244e6f9060)" style="fill: #fe9f6d; stroke: #fe9f6d; stroke-linejoin: miter"/>
   </g>
   <g id="patch_42">
    <path d="M 216.84625 170.728647 
L 220.089259 170.728647 
L 220.089259 145.809996 
L 216.84625 145.809996 
z
" clip-path="url(#p244e6f9060)" style="fill: #000004; stroke: #000004; stroke-linejoin: miter"/>
   </g>
   <g id="patch_43">
    <path d="M 220.900011 170.728647 
L 224.14302 170.728647 
L 224.14302 105.317188 
L 220.900011 105.317188 
z
" clip-path="url(#p244e6f9060)" style="fill: #8c2981; stroke: #8c2981; stroke-linejoin: miter"/>
   </g>
   <g id="patch_44">
    <path d="M 224.953772 170.728647 
L 228.196781 170.728647 
L 228.196781 114.661682 
L 224.953772 114.661682 
z
" clip-path="url(#p244e6f9060)" style="fill: #fe9f6d; stroke: #fe9f6d; stroke-linejoin: miter"/>
   </g>
   <g id="patch_45">
    <path d="M 229.007533 170.728647 
L 232.250542 170.728647 
L 232.250542 127.121007 
L 229.007533 127.121007 
z
" clip-path="url(#p244e6f9060)" style="fill: #000004; stroke: #000004; stroke-linejoin: miter"/>
   </g>
   <g id="patch_46">
    <path d="M 233.061294 170.728647 
L 236.304302 170.728647 
L 236.304302 88.185615 
L 233.061294 88.185615 
z
" clip-path="url(#p244e6f9060)" style="fill: #8c2981; stroke: #8c2981; stroke-linejoin: miter"/>
   </g>
   <g id="patch_47">
    <path d="M 237.115055 170.728647 
L 240.358063 170.728647 
L 240.358063 133.35067 
L 237.115055 133.35067 
z
" clip-path="url(#p244e6f9060)" style="fill: #fe9f6d; stroke: #fe9f6d; stroke-linejoin: miter"/>
   </g>
   <g id="patch_48">
    <path d="M 241.168816 170.728647 
L 244.411824 170.728647 
L 244.411824 161.384152 
L 241.168816 161.384152 
z
" clip-path="url(#p244e6f9060)" style="fill: #000004; stroke: #000004; stroke-linejoin: miter"/>
   </g>
   <g id="patch_49">
    <path d="M 245.222577 170.728647 
L 248.465585 170.728647 
L 248.465585 74.168874 
L 245.222577 74.168874 
z
" clip-path="url(#p244e6f9060)" style="fill: #8c2981; stroke: #8c2981; stroke-linejoin: miter"/>
   </g>
   <g id="patch_50">
    <path d="M 249.276338 170.728647 
L 252.519346 170.728647 
L 252.519346 158.269321 
L 249.276338 158.269321 
z
" clip-path="url(#p244e6f9060)" style="fill: #fe9f6d; stroke: #fe9f6d; stroke-linejoin: miter"/>
   </g>
   <g id="patch_51">
    <path d="M 253.330099 170.728647 
L 256.573107 170.728647 
L 256.573107 134.908086 
L 253.330099 134.908086 
z
" clip-path="url(#p244e6f9060)" style="fill: #000004; stroke: #000004; stroke-linejoin: miter"/>
   </g>
   <g id="patch_52">
    <path d="M 257.38386 170.728647 
L 260.626868 170.728647 
L 260.626868 141.137749 
L 257.38386 141.137749 
z
" clip-path="url(#p244e6f9060)" style="fill: #8c2981; stroke: #8c2981; stroke-linejoin: miter"/>
   </g>
   <g id="patch_53">
    <path d="M 261.437621 170.728647 
L 264.680629 170.728647 
L 264.680629 88.185615 
L 261.437621 88.185615 
z
" clip-path="url(#p244e6f9060)" style="fill: #fe9f6d; stroke: #fe9f6d; stroke-linejoin: miter"/>
   </g>
   <g id="patch_54">
    <path d="M 265.491382 170.728647 
L 268.73439 170.728647 
L 268.73439 91.300447 
L 265.491382 91.300447 
z
" clip-path="url(#p244e6f9060)" style="fill: #000004; stroke: #000004; stroke-linejoin: miter"/>
   </g>
   <g id="patch_55">
    <path d="M 269.545142 170.728647 
L 272.788151 170.728647 
L 272.788151 103.759772 
L 269.545142 103.759772 
z
" clip-path="url(#p244e6f9060)" style="fill: #8c2981; stroke: #8c2981; stroke-linejoin: miter"/>
   </g>
   <g id="patch_56">
    <path d="M 273.598903 170.728647 
L 276.841912 170.728647 
L 276.841912 155.15449 
L 273.598903 155.15449 
z
" clip-path="url(#p244e6f9060)" style="fill: #fe9f6d; stroke: #fe9f6d; stroke-linejoin: miter"/>
   </g>
   <g id="patch_57">
    <path d="M 277.652664 170.728647 
L 280.895673 170.728647 
L 280.895673 94.415278 
L 277.652664 94.415278 
z
" clip-path="url(#p244e6f9060)" style="fill: #000004; stroke: #000004; stroke-linejoin: miter"/>
   </g>
   <g id="patch_58">
    <path d="M 281.706425 170.728647 
L 284.949434 170.728647 
L 284.949434 114.661682 
L 281.706425 114.661682 
z
" clip-path="url(#p244e6f9060)" style="fill: #8c2981; stroke: #8c2981; stroke-linejoin: miter"/>
   </g>
   <g id="patch_59">
    <path d="M 285.760186 170.728647 
L 289.003195 170.728647 
L 289.003195 150.482243 
L 285.760186 150.482243 
z
" clip-path="url(#p244e6f9060)" style="fill: #fe9f6d; stroke: #fe9f6d; stroke-linejoin: miter"/>
   </g>
   <g id="patch_60">
    <path d="M 289.813947 170.728647 
L 293.056956 170.728647 
L 293.056956 156.711905 
L 289.813947 156.711905 
z
" clip-path="url(#p244e6f9060)" style="fill: #000004; stroke: #000004; stroke-linejoin: miter"/>
   </g>
   <g id="patch_61">
    <path d="M 293.867708 170.728647 
L 297.110717 170.728647 
L 297.110717 14.987078 
L 293.867708 14.987078 
z
" clip-path="url(#p244e6f9060)" style="fill: #8c2981; stroke: #8c2981; stroke-linejoin: miter"/>
   </g>
   <g id="patch_62">
    <path d="M 297.921469 170.728647 
L 301.164478 170.728647 
L 301.164478 161.384152 
L 297.921469 161.384152 
z
" clip-path="url(#p244e6f9060)" style="fill: #fe9f6d; stroke: #fe9f6d; stroke-linejoin: miter"/>
   </g>
   <g id="patch_63">
    <path d="M 301.97523 170.728647 
L 305.218239 170.728647 
L 305.218239 158.269321 
L 301.97523 158.269321 
z
" clip-path="url(#p244e6f9060)" style="fill: #000004; stroke: #000004; stroke-linejoin: miter"/>
   </g>
   <g id="patch_64">
    <path d="M 306.028991 170.728647 
L 309.272 170.728647 
L 309.272 50.807639 
L 306.028991 50.807639 
z
" clip-path="url(#p244e6f9060)" style="fill: #8c2981; stroke: #8c2981; stroke-linejoin: miter"/>
   </g>
   <g id="patch_65">
    <path d="M 310.082752 170.728647 
L 313.325761 170.728647 
L 313.325761 142.695164 
L 310.082752 142.695164 
z
" clip-path="url(#p244e6f9060)" style="fill: #fe9f6d; stroke: #fe9f6d; stroke-linejoin: miter"/>
   </g>
   <g id="patch_66">
    <path d="M 314.136513 170.728647 
L 317.379522 170.728647 
L 317.379522 94.415278 
L 314.136513 94.415278 
z
" clip-path="url(#p244e6f9060)" style="fill: #000004; stroke: #000004; stroke-linejoin: miter"/>
   </g>
   <g id="patch_67">
    <path d="M 318.190274 170.728647 
L 321.433283 170.728647 
L 321.433283 164.498984 
L 318.190274 164.498984 
z
" clip-path="url(#p244e6f9060)" style="fill: #8c2981; stroke: #8c2981; stroke-linejoin: miter"/>
   </g>
   <g id="patch_68">
    <path d="M 322.244035 170.728647 
L 325.487044 170.728647 
L 325.487044 128.678423 
L 322.244035 128.678423 
z
" clip-path="url(#p244e6f9060)" style="fill: #fe9f6d; stroke: #fe9f6d; stroke-linejoin: miter"/>
   </g>
   <g id="patch_69">
    <path d="M 326.297796 170.728647 
L 329.540805 170.728647 
L 329.540805 71.054043 
L 326.297796 71.054043 
z
" clip-path="url(#p244e6f9060)" style="fill: #000004; stroke: #000004; stroke-linejoin: miter"/>
   </g>
   <g id="patch_70">
    <path d="M 330.351557 170.728647 
L 333.594566 170.728647 
L 333.594566 130.235839 
L 330.351557 130.235839 
z
" clip-path="url(#p244e6f9060)" style="fill: #8c2981; stroke: #8c2981; stroke-linejoin: miter"/>
   </g>
   <g id="patch_71">
    <path d="M 334.405318 170.728647 
L 337.648327 170.728647 
L 337.648327 134.908086 
L 334.405318 134.908086 
z
" clip-path="url(#p244e6f9060)" style="fill: #fe9f6d; stroke: #fe9f6d; stroke-linejoin: miter"/>
   </g>
   <g id="patch_72">
    <path d="M 338.459079 170.728647 
L 341.702088 170.728647 
L 341.702088 159.826737 
L 338.459079 159.826737 
z
" clip-path="url(#p244e6f9060)" style="fill: #000004; stroke: #000004; stroke-linejoin: miter"/>
   </g>
   <g id="patch_73">
    <path d="M 342.51284 170.728647 
L 345.755849 170.728647 
L 345.755849 67.939212 
L 342.51284 67.939212 
z
" clip-path="url(#p244e6f9060)" style="fill: #8c2981; stroke: #8c2981; stroke-linejoin: miter"/>
   </g>
   <g id="patch_74">
    <path d="M 346.566601 170.728647 
L 349.80961 170.728647 
L 349.80961 148.924827 
L 346.566601 148.924827 
z
" clip-path="url(#p244e6f9060)" style="fill: #fe9f6d; stroke: #fe9f6d; stroke-linejoin: miter"/>
   </g>
   <g id="patch_75">
    <path d="M 350.620362 170.728647 
L 353.863371 170.728647 
L 353.863371 125.563592 
L 350.620362 125.563592 
z
" clip-path="url(#p244e6f9060)" style="fill: #000004; stroke: #000004; stroke-linejoin: miter"/>
   </g>
   <g id="patch_76">
    <path d="M 354.674123 170.728647 
L 357.917132 170.728647 
L 357.917132 128.678423 
L 354.674123 128.678423 
z
" clip-path="url(#p244e6f9060)" style="fill: #8c2981; stroke: #8c2981; stroke-linejoin: miter"/>
   </g>
   <g id="patch_77">
    <path d="M 358.727884 170.728647 
L 361.970893 170.728647 
L 361.970893 119.333929 
L 358.727884 119.333929 
z
" clip-path="url(#p244e6f9060)" style="fill: #fe9f6d; stroke: #fe9f6d; stroke-linejoin: miter"/>
   </g>
   <g id="patch_78">
    <path d="M 362.781645 170.728647 
L 366.024654 170.728647 
L 366.024654 100.644941 
L 362.781645 100.644941 
z
" clip-path="url(#p244e6f9060)" style="fill: #000004; stroke: #000004; stroke-linejoin: miter"/>
   </g>
   <g id="patch_79">
    <path d="M 366.835406 170.728647 
L 370.078415 170.728647 
L 370.078415 86.6282 
L 366.835406 86.6282 
z
" clip-path="url(#p244e6f9060)" style="fill: #8c2981; stroke: #8c2981; stroke-linejoin: miter"/>
   </g>
   <g id="patch_80">
    <path d="M 370.889167 170.728647 
L 374.132176 170.728647 
L 374.132176 148.924827 
L 370.889167 148.924827 
z
" clip-path="url(#p244e6f9060)" style="fill: #fe9f6d; stroke: #fe9f6d; stroke-linejoin: miter"/>
   </g>
   <g id="patch_81">
    <path d="M 374.942928 170.728647 
L 378.185937 170.728647 
L 378.185937 161.384152 
L 374.942928 161.384152 
z
" clip-path="url(#p244e6f9060)" style="fill: #000004; stroke: #000004; stroke-linejoin: miter"/>
   </g>
   <g id="patch_82">
    <path d="M 378.996689 170.728647 
L 382.239698 170.728647 
L 382.239698 99.087525 
L 378.996689 99.087525 
z
" clip-path="url(#p244e6f9060)" style="fill: #8c2981; stroke: #8c2981; stroke-linejoin: miter"/>
   </g>
   <g id="patch_83">
    <path d="M 383.05045 170.728647 
L 386.293459 170.728647 
L 386.293459 130.235839 
L 383.05045 130.235839 
z
" clip-path="url(#p244e6f9060)" style="fill: #fe9f6d; stroke: #fe9f6d; stroke-linejoin: miter"/>
   </g>
   <g id="patch_84">
    <path d="M 387.104211 170.728647 
L 390.34722 170.728647 
L 390.34722 113.104266 
L 387.104211 113.104266 
z
" clip-path="url(#p244e6f9060)" style="fill: #000004; stroke: #000004; stroke-linejoin: miter"/>
   </g>
   <g id="patch_85">
    <path d="M 391.157972 170.728647 
L 394.400981 170.728647 
L 394.400981 120.891345 
L 391.157972 120.891345 
z
" clip-path="url(#p244e6f9060)" style="fill: #8c2981; stroke: #8c2981; stroke-linejoin: miter"/>
   </g>
   <g id="patch_86">
    <path d="M 395.211733 170.728647 
L 398.454742 170.728647 
L 398.454742 156.711905 
L 395.211733 156.711905 
z
" clip-path="url(#p244e6f9060)" style="fill: #fe9f6d; stroke: #fe9f6d; stroke-linejoin: miter"/>
   </g>
   <g id="matplotlib.axis_1">
    <g id="xtick_1">
     <g id="line2d_1">
      <defs>
       <path id="m3b9a4ca918" d="M 0 0 
L 0 3.5 
" style="stroke: #000000; stroke-width: 0.8"/>
      </defs>
      <g>
       <use xlink:href="#m3b9a4ca918" x="64.424837" y="170.728647" style="stroke: #000000; stroke-width: 0.8"/>
      </g>
     </g>
     <g id="text_1">
      <!-- 1 -->
      <g transform="translate(62.120992 183.955297) scale(0.09 -0.09)">
       <defs>
        <path id="CMR17-31" d="M 1702 4058 
C 1702 4192 1696 4192 1606 4192 
C 1357 3916 979 3827 621 3827 
C 602 3827 570 3827 563 3808 
C 557 3795 557 3782 557 3648 
C 755 3648 1088 3686 1344 3839 
L 1344 461 
C 1344 236 1331 160 781 160 
L 589 160 
L 589 0 
C 896 0 1216 0 1523 0 
C 1830 0 2150 0 2458 0 
L 2458 160 
L 2266 160 
C 1715 160 1702 230 1702 458 
L 1702 4058 
z
" transform="scale(0.015625)"/>
       </defs>
       <use xlink:href="#CMR17-31" transform="scale(0.996264)"/>
      </g>
     </g>
    </g>
    <g id="xtick_2">
     <g id="line2d_2">
      <g>
       <use xlink:href="#m3b9a4ca918" x="76.58612" y="170.728647" style="stroke: #000000; stroke-width: 0.8"/>
      </g>
     </g>
     <g id="text_2">
      <!-- 2 -->
      <g transform="translate(74.282275 183.955297) scale(0.09 -0.09)">
       <defs>
        <path id="CMR17-32" d="M 2669 989 
L 2554 989 
C 2490 536 2438 459 2413 420 
C 2381 369 1920 369 1830 369 
L 602 369 
C 832 619 1280 1072 1824 1597 
C 2214 1967 2669 2402 2669 3035 
C 2669 3790 2067 4224 1395 4224 
C 691 4224 262 3604 262 3030 
C 262 2780 448 2748 525 2748 
C 589 2748 781 2787 781 3010 
C 781 3207 614 3264 525 3264 
C 486 3264 448 3258 422 3245 
C 544 3790 915 4058 1306 4058 
C 1862 4058 2227 3617 2227 3035 
C 2227 2479 1901 2000 1536 1584 
L 262 146 
L 262 0 
L 2515 0 
L 2669 989 
z
" transform="scale(0.015625)"/>
       </defs>
       <use xlink:href="#CMR17-32" transform="scale(0.996264)"/>
      </g>
     </g>
    </g>
    <g id="xtick_3">
     <g id="line2d_3">
      <g>
       <use xlink:href="#m3b9a4ca918" x="88.747403" y="170.728647" style="stroke: #000000; stroke-width: 0.8"/>
      </g>
     </g>
     <g id="text_3">
      <!-- 3 -->
      <g transform="translate(86.443558 183.955297) scale(0.09 -0.09)">
       <defs>
        <path id="CMR17-33" d="M 1414 2157 
C 1984 2157 2234 1662 2234 1090 
C 2234 320 1824 25 1453 25 
C 1114 25 563 194 390 693 
C 422 680 454 680 486 680 
C 640 680 755 782 755 948 
C 755 1133 614 1216 486 1216 
C 378 1216 211 1165 211 926 
C 211 335 787 -128 1466 -128 
C 2176 -128 2720 430 2720 1085 
C 2720 1707 2208 2157 1600 2227 
C 2086 2328 2554 2756 2554 3329 
C 2554 3820 2048 4179 1472 4179 
C 890 4179 378 3829 378 3329 
C 378 3110 544 3072 627 3072 
C 762 3072 877 3155 877 3321 
C 877 3486 762 3569 627 3569 
C 602 3569 570 3569 544 3557 
C 730 3959 1235 4032 1459 4032 
C 1683 4032 2106 3925 2106 3320 
C 2106 3143 2080 2828 1862 2550 
C 1670 2304 1453 2304 1242 2284 
C 1210 2284 1062 2269 1037 2269 
C 992 2263 966 2257 966 2208 
C 966 2163 973 2157 1101 2157 
L 1414 2157 
z
" transform="scale(0.015625)"/>
       </defs>
       <use xlink:href="#CMR17-33" transform="scale(0.996264)"/>
      </g>
     </g>
    </g>
    <g id="xtick_4">
     <g id="line2d_4">
      <g>
       <use xlink:href="#m3b9a4ca918" x="100.908686" y="170.728647" style="stroke: #000000; stroke-width: 0.8"/>
      </g>
     </g>
     <g id="text_4">
      <!-- 4 -->
      <g transform="translate(98.604841 183.955297) scale(0.09 -0.09)">
       <defs>
        <path id="CMR17-34" d="M 2150 4122 
C 2150 4256 2144 4256 2029 4256 
L 128 1254 
L 128 1088 
L 1779 1088 
L 1779 457 
C 1779 224 1766 160 1318 160 
L 1197 160 
L 1197 0 
C 1402 0 1747 0 1965 0 
C 2182 0 2528 0 2733 0 
L 2733 160 
L 2611 160 
C 2163 160 2150 224 2150 457 
L 2150 1088 
L 2803 1088 
L 2803 1254 
L 2150 1254 
L 2150 4122 
z
M 1798 3703 
L 1798 1254 
L 256 1254 
L 1798 3703 
z
" transform="scale(0.015625)"/>
       </defs>
       <use xlink:href="#CMR17-34" transform="scale(0.996264)"/>
      </g>
     </g>
    </g>
    <g id="xtick_5">
     <g id="line2d_5">
      <g>
       <use xlink:href="#m3b9a4ca918" x="113.069969" y="170.728647" style="stroke: #000000; stroke-width: 0.8"/>
      </g>
     </g>
     <g id="text_5">
      <!-- 5 -->
      <g transform="translate(110.766124 183.955297) scale(0.09 -0.09)">
       <defs>
        <path id="CMR17-35" d="M 730 3692 
C 794 3666 1056 3584 1325 3584 
C 1920 3584 2246 3911 2432 4100 
C 2432 4157 2432 4192 2394 4192 
C 2387 4192 2374 4192 2323 4163 
C 2099 4058 1837 3973 1517 3973 
C 1325 3973 1037 3999 723 4139 
C 653 4171 640 4171 634 4171 
C 602 4171 595 4164 595 4037 
L 595 2203 
C 595 2089 595 2057 659 2057 
C 691 2057 704 2070 736 2114 
C 941 2401 1222 2522 1542 2522 
C 1766 2522 2246 2382 2246 1289 
C 2246 1085 2246 715 2054 421 
C 1894 159 1645 25 1370 25 
C 947 25 518 320 403 814 
C 429 807 480 795 506 795 
C 589 795 749 840 749 1038 
C 749 1210 627 1280 506 1280 
C 358 1280 262 1190 262 1011 
C 262 454 704 -128 1382 -128 
C 2042 -128 2669 440 2669 1264 
C 2669 2030 2170 2624 1549 2624 
C 1222 2624 947 2503 730 2274 
L 730 3692 
z
" transform="scale(0.015625)"/>
       </defs>
       <use xlink:href="#CMR17-35" transform="scale(0.996264)"/>
      </g>
     </g>
    </g>
    <g id="xtick_6">
     <g id="line2d_6">
      <g>
       <use xlink:href="#m3b9a4ca918" x="125.231252" y="170.728647" style="stroke: #000000; stroke-width: 0.8"/>
      </g>
     </g>
     <g id="text_6">
      <!-- 6 -->
      <g transform="translate(122.927406 183.955297) scale(0.09 -0.09)">
       <defs>
        <path id="CMR17-36" d="M 678 2176 
C 678 3690 1395 4032 1811 4032 
C 1946 4032 2272 4009 2400 3776 
C 2298 3776 2106 3776 2106 3553 
C 2106 3381 2246 3323 2336 3323 
C 2394 3323 2566 3348 2566 3560 
C 2566 3954 2246 4179 1805 4179 
C 1043 4179 243 3390 243 1984 
C 243 253 966 -128 1478 -128 
C 2099 -128 2688 427 2688 1283 
C 2688 2081 2170 2662 1517 2662 
C 1126 2662 838 2407 678 1960 
L 678 2176 
z
M 1478 25 
C 691 25 691 1200 691 1436 
C 691 1896 909 2560 1504 2560 
C 1613 2560 1926 2560 2138 2120 
C 2253 1870 2253 1609 2253 1289 
C 2253 944 2253 690 2118 434 
C 1978 171 1773 25 1478 25 
z
" transform="scale(0.015625)"/>
       </defs>
       <use xlink:href="#CMR17-36" transform="scale(0.996264)"/>
      </g>
     </g>
    </g>
    <g id="xtick_7">
     <g id="line2d_7">
      <g>
       <use xlink:href="#m3b9a4ca918" x="137.392535" y="170.728647" style="stroke: #000000; stroke-width: 0.8"/>
      </g>
     </g>
     <g id="text_7">
      <!-- 7 -->
      <g transform="translate(135.088689 183.955297) scale(0.09 -0.09)">
       <defs>
        <path id="CMR17-37" d="M 2886 3941 
L 2886 4081 
L 1382 4081 
C 634 4081 621 4165 595 4288 
L 480 4288 
L 294 3094 
L 410 3094 
C 429 3215 474 3540 550 3661 
C 589 3712 1062 3712 1171 3712 
L 2579 3712 
L 1869 2661 
C 1395 1954 1069 999 1069 165 
C 1069 89 1069 -128 1299 -128 
C 1530 -128 1530 89 1530 171 
L 1530 465 
C 1530 1508 1709 2196 2003 2636 
L 2886 3941 
z
" transform="scale(0.015625)"/>
       </defs>
       <use xlink:href="#CMR17-37" transform="scale(0.996264)"/>
      </g>
     </g>
    </g>
    <g id="xtick_8">
     <g id="line2d_8">
      <g>
       <use xlink:href="#m3b9a4ca918" x="149.553818" y="170.728647" style="stroke: #000000; stroke-width: 0.8"/>
      </g>
     </g>
     <g id="text_8">
      <!-- 8 -->
      <g transform="translate(147.249972 183.955297) scale(0.09 -0.09)">
       <defs>
        <path id="CMR17-38" d="M 1741 2264 
C 2144 2467 2554 2773 2554 3263 
C 2554 3841 1990 4179 1472 4179 
C 890 4179 378 3759 378 3180 
C 378 3021 416 2747 666 2505 
C 730 2442 998 2251 1171 2130 
C 883 1983 211 1634 211 934 
C 211 279 838 -128 1459 -128 
C 2144 -128 2720 362 2720 1010 
C 2720 1590 2330 1857 2074 2029 
L 1741 2264 
z
M 902 2822 
C 851 2854 595 3051 595 3351 
C 595 3739 998 4032 1459 4032 
C 1965 4032 2336 3676 2336 3262 
C 2336 2669 1670 2331 1638 2331 
C 1632 2331 1626 2331 1574 2370 
L 902 2822 
z
M 2080 1519 
C 2176 1449 2483 1240 2483 851 
C 2483 381 2010 25 1472 25 
C 890 25 448 438 448 940 
C 448 1443 838 1862 1280 2060 
L 2080 1519 
z
" transform="scale(0.015625)"/>
       </defs>
       <use xlink:href="#CMR17-38" transform="scale(0.996264)"/>
      </g>
     </g>
    </g>
    <g id="xtick_9">
     <g id="line2d_9">
      <g>
       <use xlink:href="#m3b9a4ca918" x="161.715101" y="170.728647" style="stroke: #000000; stroke-width: 0.8"/>
      </g>
     </g>
     <g id="text_9">
      <!-- 9 -->
      <g transform="translate(159.411255 183.955297) scale(0.09 -0.09)">
       <defs>
        <path id="CMR17-39" d="M 2253 1864 
C 2253 464 1670 31 1190 31 
C 1043 31 685 31 538 294 
C 704 268 826 357 826 518 
C 826 692 685 749 595 749 
C 538 749 365 723 365 506 
C 365 71 742 -128 1203 -128 
C 1939 -128 2688 674 2688 2073 
C 2688 3817 1971 4179 1485 4179 
C 851 4179 243 3628 243 2778 
C 243 1991 762 1408 1414 1408 
C 1952 1408 2189 1903 2253 2112 
L 2253 1864 
z
M 1427 1510 
C 1254 1510 1011 1542 813 1922 
C 678 2169 678 2461 678 2771 
C 678 3146 678 3405 858 3684 
C 947 3817 1114 4032 1485 4032 
C 2240 4032 2240 2885 2240 2632 
C 2240 2182 2035 1510 1427 1510 
z
" transform="scale(0.015625)"/>
       </defs>
       <use xlink:href="#CMR17-39" transform="scale(0.996264)"/>
      </g>
     </g>
    </g>
    <g id="xtick_10">
     <g id="line2d_10">
      <g>
       <use xlink:href="#m3b9a4ca918" x="173.876383" y="170.728647" style="stroke: #000000; stroke-width: 0.8"/>
      </g>
     </g>
     <g id="text_10">
      <!-- 10 -->
      <g transform="translate(169.268693 183.955297) scale(0.09 -0.09)">
       <defs>
        <path id="CMR17-30" d="M 2688 2025 
C 2688 2416 2682 3080 2413 3591 
C 2176 4039 1798 4198 1466 4198 
C 1158 4198 768 4058 525 3597 
C 269 3118 243 2524 243 2025 
C 243 1661 250 1106 448 619 
C 723 -39 1216 -128 1466 -128 
C 1760 -128 2208 -7 2470 600 
C 2662 1042 2688 1559 2688 2025 
z
M 1466 -26 
C 1056 -26 813 325 723 812 
C 653 1188 653 1738 653 2096 
C 653 2588 653 2997 736 3387 
C 858 3929 1216 4096 1466 4096 
C 1728 4096 2067 3923 2189 3400 
C 2272 3036 2278 2607 2278 2096 
C 2278 1680 2278 1169 2202 792 
C 2067 95 1690 -26 1466 -26 
z
" transform="scale(0.015625)"/>
       </defs>
       <use xlink:href="#CMR17-31" transform="scale(0.996264)"/>
       <use xlink:href="#CMR17-30" transform="translate(45.690477 0) scale(0.996264)"/>
      </g>
     </g>
    </g>
    <g id="xtick_11">
     <g id="line2d_11">
      <g>
       <use xlink:href="#m3b9a4ca918" x="186.037666" y="170.728647" style="stroke: #000000; stroke-width: 0.8"/>
      </g>
     </g>
     <g id="text_11">
      <!-- 11 -->
      <g transform="translate(181.429976 183.955297) scale(0.09 -0.09)">
       <use xlink:href="#CMR17-31" transform="scale(0.996264)"/>
       <use xlink:href="#CMR17-31" transform="translate(45.690477 0) scale(0.996264)"/>
      </g>
     </g>
    </g>
    <g id="xtick_12">
     <g id="line2d_12">
      <g>
       <use xlink:href="#m3b9a4ca918" x="198.198949" y="170.728647" style="stroke: #000000; stroke-width: 0.8"/>
      </g>
     </g>
     <g id="text_12">
      <!-- 12 -->
      <g transform="translate(193.591259 183.955297) scale(0.09 -0.09)">
       <use xlink:href="#CMR17-31" transform="scale(0.996264)"/>
       <use xlink:href="#CMR17-32" transform="translate(45.690477 0) scale(0.996264)"/>
      </g>
     </g>
    </g>
    <g id="xtick_13">
     <g id="line2d_13">
      <g>
       <use xlink:href="#m3b9a4ca918" x="210.360232" y="170.728647" style="stroke: #000000; stroke-width: 0.8"/>
      </g>
     </g>
     <g id="text_13">
      <!-- 13 -->
      <g transform="translate(205.752542 183.955297) scale(0.09 -0.09)">
       <use xlink:href="#CMR17-31" transform="scale(0.996264)"/>
       <use xlink:href="#CMR17-33" transform="translate(45.690477 0) scale(0.996264)"/>
      </g>
     </g>
    </g>
    <g id="xtick_14">
     <g id="line2d_14">
      <g>
       <use xlink:href="#m3b9a4ca918" x="222.521515" y="170.728647" style="stroke: #000000; stroke-width: 0.8"/>
      </g>
     </g>
     <g id="text_14">
      <!-- 14 -->
      <g transform="translate(217.913825 183.955297) scale(0.09 -0.09)">
       <use xlink:href="#CMR17-31" transform="scale(0.996264)"/>
       <use xlink:href="#CMR17-34" transform="translate(45.690477 0) scale(0.996264)"/>
      </g>
     </g>
    </g>
    <g id="xtick_15">
     <g id="line2d_15">
      <g>
       <use xlink:href="#m3b9a4ca918" x="234.682798" y="170.728647" style="stroke: #000000; stroke-width: 0.8"/>
      </g>
     </g>
     <g id="text_15">
      <!-- 15 -->
      <g transform="translate(230.075107 183.955297) scale(0.09 -0.09)">
       <use xlink:href="#CMR17-31" transform="scale(0.996264)"/>
       <use xlink:href="#CMR17-35" transform="translate(45.690477 0) scale(0.996264)"/>
      </g>
     </g>
    </g>
    <g id="xtick_16">
     <g id="line2d_16">
      <g>
       <use xlink:href="#m3b9a4ca918" x="246.844081" y="170.728647" style="stroke: #000000; stroke-width: 0.8"/>
      </g>
     </g>
     <g id="text_16">
      <!-- 16 -->
      <g transform="translate(242.23639 183.955297) scale(0.09 -0.09)">
       <use xlink:href="#CMR17-31" transform="scale(0.996264)"/>
       <use xlink:href="#CMR17-36" transform="translate(45.690477 0) scale(0.996264)"/>
      </g>
     </g>
    </g>
    <g id="xtick_17">
     <g id="line2d_17">
      <g>
       <use xlink:href="#m3b9a4ca918" x="259.005364" y="170.728647" style="stroke: #000000; stroke-width: 0.8"/>
      </g>
     </g>
     <g id="text_17">
      <!-- 17 -->
      <g transform="translate(254.397673 183.955297) scale(0.09 -0.09)">
       <use xlink:href="#CMR17-31" transform="scale(0.996264)"/>
       <use xlink:href="#CMR17-37" transform="translate(45.690477 0) scale(0.996264)"/>
      </g>
     </g>
    </g>
    <g id="xtick_18">
     <g id="line2d_18">
      <g>
       <use xlink:href="#m3b9a4ca918" x="271.166647" y="170.728647" style="stroke: #000000; stroke-width: 0.8"/>
      </g>
     </g>
     <g id="text_18">
      <!-- 18 -->
      <g transform="translate(266.558956 183.955297) scale(0.09 -0.09)">
       <use xlink:href="#CMR17-31" transform="scale(0.996264)"/>
       <use xlink:href="#CMR17-38" transform="translate(45.690477 0) scale(0.996264)"/>
      </g>
     </g>
    </g>
    <g id="xtick_19">
     <g id="line2d_19">
      <g>
       <use xlink:href="#m3b9a4ca918" x="283.32793" y="170.728647" style="stroke: #000000; stroke-width: 0.8"/>
      </g>
     </g>
     <g id="text_19">
      <!-- 19 -->
      <g transform="translate(278.720239 183.955297) scale(0.09 -0.09)">
       <use xlink:href="#CMR17-31" transform="scale(0.996264)"/>
       <use xlink:href="#CMR17-39" transform="translate(45.690477 0) scale(0.996264)"/>
      </g>
     </g>
    </g>
    <g id="xtick_20">
     <g id="line2d_20">
      <g>
       <use xlink:href="#m3b9a4ca918" x="295.489213" y="170.728647" style="stroke: #000000; stroke-width: 0.8"/>
      </g>
     </g>
     <g id="text_20">
      <!-- 20 -->
      <g transform="translate(290.881522 183.955297) scale(0.09 -0.09)">
       <use xlink:href="#CMR17-32" transform="scale(0.996264)"/>
       <use xlink:href="#CMR17-30" transform="translate(45.690477 0) scale(0.996264)"/>
      </g>
     </g>
    </g>
    <g id="xtick_21">
     <g id="line2d_21">
      <g>
       <use xlink:href="#m3b9a4ca918" x="307.650496" y="170.728647" style="stroke: #000000; stroke-width: 0.8"/>
      </g>
     </g>
     <g id="text_21">
      <!-- 21 -->
      <g transform="translate(303.042805 183.955297) scale(0.09 -0.09)">
       <use xlink:href="#CMR17-32" transform="scale(0.996264)"/>
       <use xlink:href="#CMR17-31" transform="translate(45.690477 0) scale(0.996264)"/>
      </g>
     </g>
    </g>
    <g id="xtick_22">
     <g id="line2d_22">
      <g>
       <use xlink:href="#m3b9a4ca918" x="319.811779" y="170.728647" style="stroke: #000000; stroke-width: 0.8"/>
      </g>
     </g>
     <g id="text_22">
      <!-- 22 -->
      <g transform="translate(315.204088 183.955297) scale(0.09 -0.09)">
       <use xlink:href="#CMR17-32" transform="scale(0.996264)"/>
       <use xlink:href="#CMR17-32" transform="translate(45.690477 0) scale(0.996264)"/>
      </g>
     </g>
    </g>
    <g id="xtick_23">
     <g id="line2d_23">
      <g>
       <use xlink:href="#m3b9a4ca918" x="331.973062" y="170.728647" style="stroke: #000000; stroke-width: 0.8"/>
      </g>
     </g>
     <g id="text_23">
      <!-- 23 -->
      <g transform="translate(327.365371 183.955297) scale(0.09 -0.09)">
       <use xlink:href="#CMR17-32" transform="scale(0.996264)"/>
       <use xlink:href="#CMR17-33" transform="translate(45.690477 0) scale(0.996264)"/>
      </g>
     </g>
    </g>
    <g id="xtick_24">
     <g id="line2d_24">
      <g>
       <use xlink:href="#m3b9a4ca918" x="344.134344" y="170.728647" style="stroke: #000000; stroke-width: 0.8"/>
      </g>
     </g>
     <g id="text_24">
      <!-- 24 -->
      <g transform="translate(339.526654 183.955297) scale(0.09 -0.09)">
       <use xlink:href="#CMR17-32" transform="scale(0.996264)"/>
       <use xlink:href="#CMR17-34" transform="translate(45.690477 0) scale(0.996264)"/>
      </g>
     </g>
    </g>
    <g id="xtick_25">
     <g id="line2d_25">
      <g>
       <use xlink:href="#m3b9a4ca918" x="356.295627" y="170.728647" style="stroke: #000000; stroke-width: 0.8"/>
      </g>
     </g>
     <g id="text_25">
      <!-- 25 -->
      <g transform="translate(351.687937 183.955297) scale(0.09 -0.09)">
       <use xlink:href="#CMR17-32" transform="scale(0.996264)"/>
       <use xlink:href="#CMR17-35" transform="translate(45.690477 0) scale(0.996264)"/>
      </g>
     </g>
    </g>
    <g id="xtick_26">
     <g id="line2d_26">
      <g>
       <use xlink:href="#m3b9a4ca918" x="368.45691" y="170.728647" style="stroke: #000000; stroke-width: 0.8"/>
      </g>
     </g>
     <g id="text_26">
      <!-- 26 -->
      <g transform="translate(363.84922 183.955297) scale(0.09 -0.09)">
       <use xlink:href="#CMR17-32" transform="scale(0.996264)"/>
       <use xlink:href="#CMR17-36" transform="translate(45.690477 0) scale(0.996264)"/>
      </g>
     </g>
    </g>
    <g id="xtick_27">
     <g id="line2d_27">
      <g>
       <use xlink:href="#m3b9a4ca918" x="380.618193" y="170.728647" style="stroke: #000000; stroke-width: 0.8"/>
      </g>
     </g>
     <g id="text_27">
      <!-- 27 -->
      <g transform="translate(376.010503 183.955297) scale(0.09 -0.09)">
       <use xlink:href="#CMR17-32" transform="scale(0.996264)"/>
       <use xlink:href="#CMR17-37" transform="translate(45.690477 0) scale(0.996264)"/>
      </g>
     </g>
    </g>
    <g id="xtick_28">
     <g id="line2d_28">
      <g>
       <use xlink:href="#m3b9a4ca918" x="392.779476" y="170.728647" style="stroke: #000000; stroke-width: 0.8"/>
      </g>
     </g>
     <g id="text_28">
      <!-- 28 -->
      <g transform="translate(388.171786 183.955297) scale(0.09 -0.09)">
       <use xlink:href="#CMR17-32" transform="scale(0.996264)"/>
       <use xlink:href="#CMR17-38" transform="translate(45.690477 0) scale(0.996264)"/>
      </g>
     </g>
    </g>
    <g id="text_29">
     <!-- Day -->
     <g transform="translate(218.936993 197.309105) scale(0.11 -0.11)">
      <defs>
       <path id="CMR17-44" d="M 333 4352 
L 333 4186 
C 774 4186 845 4186 845 3900 
L 845 452 
C 845 166 774 166 333 166 
L 333 0 
L 2368 0 
C 3398 0 4224 943 4224 2141 
C 4224 3346 3411 4352 2368 4352 
L 333 4352 
z
M 1523 166 
C 1267 166 1254 197 1254 414 
L 1254 3938 
C 1254 4155 1267 4186 1523 4186 
L 2240 4186 
C 2771 4186 3750 3874 3750 2141 
C 3750 1242 3488 879 3366 707 
C 3213 510 2848 166 2240 166 
L 1523 166 
z
" transform="scale(0.015625)"/>
       <path id="CMR17-61" d="M 2304 1653 
C 2304 2072 2304 2294 2035 2543 
C 1798 2752 1523 2816 1306 2816 
C 800 2816 435 2407 435 1971 
C 435 1728 627 1728 666 1728 
C 749 1728 896 1778 896 1954 
C 896 2112 774 2181 666 2181 
C 640 2181 608 2174 589 2168 
C 723 2592 1069 2714 1293 2714 
C 1613 2714 1965 2429 1965 1885 
L 1965 1600 
C 1587 1600 1133 1549 774 1357 
C 371 1133 256 813 256 570 
C 256 77 832 -64 1171 -64 
C 1523 -64 1850 139 1990 511 
C 2003 233 2182 -18 2464 -18 
C 2598 -18 2938 70 2938 567 
L 2938 920 
L 2822 920 
L 2822 562 
C 2822 178 2650 128 2566 128 
C 2304 128 2304 458 2304 738 
L 2304 1653 
z
M 1965 870 
C 1965 317 1568 38 1216 38 
C 896 38 646 275 646 570 
C 646 761 730 1100 1101 1305 
C 1408 1478 1760 1504 1965 1504 
L 1965 870 
z
" transform="scale(0.015625)"/>
       <path id="CMR17-79" d="M 2496 2197 
C 2656 2586 2944 2586 3034 2586 
L 3034 2752 
C 2912 2752 2752 2752 2630 2752 
C 2496 2752 2285 2752 2157 2758 
L 2157 2592 
C 2400 2573 2406 2394 2406 2343 
C 2406 2280 2394 2248 2362 2171 
L 1664 449 
L 902 2306 
C 870 2382 870 2426 870 2433 
C 870 2573 1018 2586 1171 2586 
L 1171 2758 
C 1018 2752 742 2752 582 2752 
C 410 2752 205 2752 64 2758 
L 64 2586 
C 410 2586 448 2554 531 2350 
L 1485 15 
C 1197 -738 1030 -1178 627 -1178 
C 557 -1178 397 -1159 282 -1044 
C 429 -1031 493 -942 493 -833 
C 493 -725 416 -629 288 -629 
C 147 -629 77 -725 77 -840 
C 77 -1095 339 -1280 627 -1280 
C 998 -1280 1229 -922 1357 -604 
L 2496 2197 
z
" transform="scale(0.015625)"/>
      </defs>
      <use xlink:href="#CMR17-44" transform="scale(0.996264)"/>
      <use xlink:href="#CMR17-61" transform="translate(70.393556 0) scale(0.996264)"/>
      <use xlink:href="#CMR17-79" transform="translate(113.481579 0) scale(0.996264)"/>
     </g>
    </g>
   </g>
   <g id="matplotlib.axis_2">
    <g id="ytick_1">
     <g id="line2d_29">
      <path d="M 41.764313 170.728647 
L 415.44 170.728647 
" clip-path="url(#p244e6f9060)" style="fill: none; stroke: #b0b0b0; stroke-width: 0.8; stroke-linecap: square"/>
     </g>
     <g id="line2d_30">
      <defs>
       <path id="mf482b15e0a" d="M 0 0 
L -3.5 0 
" style="stroke: #000000; stroke-width: 0.8"/>
      </defs>
      <g>
       <use xlink:href="#mf482b15e0a" x="41.764313" y="170.728647" style="stroke: #000000; stroke-width: 0.8"/>
      </g>
     </g>
     <g id="text_30">
      <!-- $\mathdefault{0}$ -->
      <g transform="translate(30.156623 173.841972) scale(0.09 -0.09)">
       <use xlink:href="#CMR17-30" transform="scale(0.996264)"/>
      </g>
     </g>
    </g>
    <g id="ytick_2">
     <g id="line2d_31">
      <path d="M 41.764313 139.580333 
L 415.44 139.580333 
" clip-path="url(#p244e6f9060)" style="fill: none; stroke: #b0b0b0; stroke-width: 0.8; stroke-linecap: square"/>
     </g>
     <g id="line2d_32">
      <g>
       <use xlink:href="#mf482b15e0a" x="41.764313" y="139.580333" style="stroke: #000000; stroke-width: 0.8"/>
      </g>
     </g>
     <g id="text_31">
      <!-- $\mathdefault{20}$ -->
      <g transform="translate(25.548932 142.693658) scale(0.09 -0.09)">
       <use xlink:href="#CMR17-32" transform="scale(0.996264)"/>
       <use xlink:href="#CMR17-30" transform="translate(45.690477 0) scale(0.996264)"/>
      </g>
     </g>
    </g>
    <g id="ytick_3">
     <g id="line2d_33">
      <path d="M 41.764313 108.432019 
L 415.44 108.432019 
" clip-path="url(#p244e6f9060)" style="fill: none; stroke: #b0b0b0; stroke-width: 0.8; stroke-linecap: square"/>
     </g>
     <g id="line2d_34">
      <g>
       <use xlink:href="#mf482b15e0a" x="41.764313" y="108.432019" style="stroke: #000000; stroke-width: 0.8"/>
      </g>
     </g>
     <g id="text_32">
      <!-- $\mathdefault{40}$ -->
      <g transform="translate(25.548932 111.545344) scale(0.09 -0.09)">
       <use xlink:href="#CMR17-34" transform="scale(0.996264)"/>
       <use xlink:href="#CMR17-30" transform="translate(45.690477 0) scale(0.996264)"/>
      </g>
     </g>
    </g>
    <g id="ytick_4">
     <g id="line2d_35">
      <path d="M 41.764313 77.283706 
L 415.44 77.283706 
" clip-path="url(#p244e6f9060)" style="fill: none; stroke: #b0b0b0; stroke-width: 0.8; stroke-linecap: square"/>
     </g>
     <g id="line2d_36">
      <g>
       <use xlink:href="#mf482b15e0a" x="41.764313" y="77.283706" style="stroke: #000000; stroke-width: 0.8"/>
      </g>
     </g>
     <g id="text_33">
      <!-- $\mathdefault{60}$ -->
      <g transform="translate(25.548932 80.397031) scale(0.09 -0.09)">
       <use xlink:href="#CMR17-36" transform="scale(0.996264)"/>
       <use xlink:href="#CMR17-30" transform="translate(45.690477 0) scale(0.996264)"/>
      </g>
     </g>
    </g>
    <g id="ytick_5">
     <g id="line2d_37">
      <path d="M 41.764313 46.135392 
L 415.44 46.135392 
" clip-path="url(#p244e6f9060)" style="fill: none; stroke: #b0b0b0; stroke-width: 0.8; stroke-linecap: square"/>
     </g>
     <g id="line2d_38">
      <g>
       <use xlink:href="#mf482b15e0a" x="41.764313" y="46.135392" style="stroke: #000000; stroke-width: 0.8"/>
      </g>
     </g>
     <g id="text_34">
      <!-- $\mathdefault{80}$ -->
      <g transform="translate(25.548932 49.248717) scale(0.09 -0.09)">
       <use xlink:href="#CMR17-38" transform="scale(0.996264)"/>
       <use xlink:href="#CMR17-30" transform="translate(45.690477 0) scale(0.996264)"/>
      </g>
     </g>
    </g>
    <g id="ytick_6">
     <g id="line2d_39">
      <path d="M 41.764313 14.987078 
L 415.44 14.987078 
" clip-path="url(#p244e6f9060)" style="fill: none; stroke: #b0b0b0; stroke-width: 0.8; stroke-linecap: square"/>
     </g>
     <g id="line2d_40">
      <g>
       <use xlink:href="#mf482b15e0a" x="41.764313" y="14.987078" style="stroke: #000000; stroke-width: 0.8"/>
      </g>
     </g>
     <g id="text_35">
      <!-- $\mathdefault{100}$ -->
      <g transform="translate(20.941241 18.100403) scale(0.09 -0.09)">
       <use xlink:href="#CMR17-31" transform="scale(0.996264)"/>
       <use xlink:href="#CMR17-30" transform="translate(45.690477 0) scale(0.996264)"/>
       <use xlink:href="#CMR17-30" transform="translate(91.380954 0) scale(0.996264)"/>
      </g>
     </g>
    </g>
    <g id="text_36">
     <!-- Demand -->
     <g transform="translate(14.810347 108.979598) rotate(-90) scale(0.11 -0.11)">
      <defs>
       <path id="CMR17-65" d="M 2438 1472 
C 2464 1498 2464 1511 2464 1576 
C 2464 2238 2118 2816 1389 2816 
C 710 2816 173 2169 173 1383 
C 173 551 781 -64 1459 -64 
C 2176 -64 2458 607 2458 740 
C 2458 784 2419 784 2406 784 
C 2362 784 2355 771 2330 696 
C 2189 265 1837 51 1504 51 
C 1229 51 954 203 781 480 
C 582 803 582 1176 582 1472 
L 2438 1472 
z
M 589 1568 
C 634 2505 1126 2714 1382 2714 
C 1818 2714 2112 2297 2118 1568 
L 589 1568 
z
" transform="scale(0.015625)"/>
       <path id="CMR17-6d" d="M 4326 1933 
C 4326 2252 4269 2790 3507 2790 
C 3072 2790 2771 2496 2656 2151 
L 2650 2151 
C 2573 2676 2195 2790 1837 2790 
C 1331 2790 1069 2400 973 2144 
L 966 2144 
L 966 2790 
L 211 2720 
L 211 2554 
C 589 2554 646 2515 646 2208 
L 646 428 
C 646 184 621 153 211 153 
L 211 -13 
C 365 0 646 0 813 0 
C 979 0 1267 0 1421 -13 
L 1421 153 
C 1011 153 986 178 986 428 
L 986 1658 
C 986 2247 1344 2688 1792 2688 
C 2266 2688 2317 2266 2317 1958 
L 2317 428 
C 2317 184 2291 153 1882 153 
L 1882 -13 
C 2035 0 2317 0 2483 0 
C 2650 0 2938 0 3091 -13 
L 3091 153 
C 2682 153 2656 178 2656 428 
L 2656 1658 
C 2656 2247 3014 2688 3462 2688 
C 3936 2688 3987 2266 3987 1958 
L 3987 428 
C 3987 184 3962 153 3552 153 
L 3552 -13 
C 3706 0 3987 0 4154 0 
C 4320 0 4608 0 4762 -13 
L 4762 153 
C 4352 153 4326 178 4326 428 
L 4326 1933 
z
" transform="scale(0.015625)"/>
       <path id="CMR17-6e" d="M 2656 1933 
C 2656 2259 2592 2790 1837 2790 
C 1331 2790 1069 2400 973 2144 
L 966 2144 
L 966 2790 
L 211 2720 
L 211 2554 
C 589 2554 646 2515 646 2208 
L 646 428 
C 646 184 621 153 211 153 
L 211 -13 
C 365 0 646 0 813 0 
C 979 0 1267 0 1421 -13 
L 1421 153 
C 1011 153 986 178 986 428 
L 986 1658 
C 986 2247 1344 2688 1792 2688 
C 2266 2688 2317 2266 2317 1958 
L 2317 428 
C 2317 184 2291 153 1882 153 
L 1882 -13 
C 2035 0 2317 0 2483 0 
C 2650 0 2938 0 3091 -13 
L 3091 153 
C 2682 153 2656 178 2656 428 
L 2656 1933 
z
" transform="scale(0.015625)"/>
       <path id="CMR17-64" d="M 1869 4326 
L 1869 4160 
C 2246 4160 2304 4122 2304 3820 
L 2304 2345 
C 2278 2377 2016 2790 1498 2790 
C 845 2790 211 2208 211 1364 
C 211 525 806 -64 1434 -64 
C 1978 -64 2259 337 2291 380 
L 2291 -63 
L 3066 -63 
L 3066 128 
C 2688 128 2630 166 2630 473 
L 2630 4396 
L 1869 4326 
z
M 2291 755 
C 2291 563 2176 390 2029 262 
C 1811 70 1594 38 1472 38 
C 1286 38 621 134 621 1356 
C 621 2612 1363 2688 1530 2688 
C 1824 2688 2061 2522 2208 2291 
C 2291 2157 2291 2138 2291 2023 
L 2291 755 
z
" transform="scale(0.015625)"/>
      </defs>
      <use xlink:href="#CMR17-44" transform="scale(0.996264)"/>
      <use xlink:href="#CMR17-65" transform="translate(70.393556 0) scale(0.996264)"/>
      <use xlink:href="#CMR17-6d" transform="translate(110.879216 0) scale(0.996264)"/>
      <use xlink:href="#CMR17-61" transform="translate(187.798806 0) scale(0.996264)"/>
      <use xlink:href="#CMR17-6e" transform="translate(233.489283 0) scale(0.996264)"/>
      <use xlink:href="#CMR17-64" transform="translate(284.384653 0) scale(0.996264)"/>
     </g>
    </g>
   </g>
   <g id="patch_87">
    <path d="M 41.764313 170.728647 
L 41.764313 7.2 
" style="fill: none; stroke: #000000; stroke-width: 0.8; stroke-linejoin: miter; stroke-linecap: square"/>
   </g>
   <g id="patch_88">
    <path d="M 415.44 170.728647 
L 415.44 7.2 
" style="fill: none; stroke: #000000; stroke-width: 0.8; stroke-linejoin: miter; stroke-linecap: square"/>
   </g>
   <g id="patch_89">
    <path d="M 41.764313 170.728647 
L 415.44 170.728647 
" style="fill: none; stroke: #000000; stroke-width: 0.8; stroke-linejoin: miter; stroke-linecap: square"/>
   </g>
   <g id="patch_90">
    <path d="M 41.764313 7.2 
L 415.44 7.2 
" style="fill: none; stroke: #000000; stroke-width: 0.8; stroke-linejoin: miter; stroke-linecap: square"/>
   </g>
   <g id="text_37">
    <!-- 38 -->
    <g style="fill: #ffffff" transform="translate(61.491873 144.188853) rotate(-90) scale(0.045 -0.045)">
     <use xlink:href="#CMR17-33" transform="scale(0.996264)"/>
     <use xlink:href="#CMR17-38" transform="translate(45.690477 0) scale(0.996264)"/>
    </g>
   </g>
   <g id="text_38">
    <!-- 46 -->
    <g style="fill: #ffffff" transform="translate(65.545634 137.95919) rotate(-90) scale(0.045 -0.045)">
     <use xlink:href="#CMR17-34" transform="scale(0.996264)"/>
     <use xlink:href="#CMR17-36" transform="translate(45.690477 0) scale(0.996264)"/>
    </g>
   </g>
   <g id="text_39">
    <!-- 15 -->
    <g style="fill: #ffffff" transform="translate(69.599395 162.099133) rotate(-90) scale(0.045 -0.045)">
     <use xlink:href="#CMR17-31" transform="scale(0.996264)"/>
     <use xlink:href="#CMR17-35" transform="translate(45.690477 0) scale(0.996264)"/>
    </g>
   </g>
   <g id="text_40">
    <!-- 41 -->
    <g style="fill: #ffffff" transform="translate(73.653156 141.852729) rotate(-90) scale(0.045 -0.045)">
     <use xlink:href="#CMR17-34" transform="scale(0.996264)"/>
     <use xlink:href="#CMR17-31" transform="translate(45.690477 0) scale(0.996264)"/>
    </g>
   </g>
   <g id="text_41">
    <!-- 39 -->
    <g style="fill: #ffffff" transform="translate(77.706917 143.410145) rotate(-90) scale(0.045 -0.045)">
     <use xlink:href="#CMR17-33" transform="scale(0.996264)"/>
     <use xlink:href="#CMR17-39" transform="translate(45.690477 0) scale(0.996264)"/>
    </g>
   </g>
   <g id="text_42">
    <!-- 35 -->
    <g style="fill: #ffffff" transform="translate(81.760678 146.524976) rotate(-90) scale(0.045 -0.045)">
     <use xlink:href="#CMR17-33" transform="scale(0.996264)"/>
     <use xlink:href="#CMR17-35" transform="translate(45.690477 0) scale(0.996264)"/>
    </g>
   </g>
   <g id="text_43">
    <!-- 31 -->
    <g style="fill: #ffffff" transform="translate(85.814439 149.639808) rotate(-90) scale(0.045 -0.045)">
     <use xlink:href="#CMR17-33" transform="scale(0.996264)"/>
     <use xlink:href="#CMR17-31" transform="translate(45.690477 0) scale(0.996264)"/>
    </g>
   </g>
   <g id="text_44">
    <!-- 68 -->
    <g style="fill: #ffffff" transform="translate(89.8682 120.827618) rotate(-90) scale(0.045 -0.045)">
     <use xlink:href="#CMR17-36" transform="scale(0.996264)"/>
     <use xlink:href="#CMR17-38" transform="translate(45.690477 0) scale(0.996264)"/>
    </g>
   </g>
   <g id="text_45">
    <!-- 7 -->
    <g transform="translate(93.921961 157.17913) rotate(-90) scale(0.045 -0.045)">
     <use xlink:href="#CMR17-37" transform="scale(0.996264)"/>
    </g>
   </g>
   <g id="text_46">
    <!-- 14 -->
    <g style="fill: #ffffff" transform="translate(97.975722 162.877841) rotate(-90) scale(0.045 -0.045)">
     <use xlink:href="#CMR17-31" transform="scale(0.996264)"/>
     <use xlink:href="#CMR17-34" transform="translate(45.690477 0) scale(0.996264)"/>
    </g>
   </g>
   <g id="text_47">
    <!-- 88 -->
    <g style="fill: #ffffff" transform="translate(102.029483 105.253461) rotate(-90) scale(0.045 -0.045)">
     <use xlink:href="#CMR17-38" transform="scale(0.996264)"/>
     <use xlink:href="#CMR17-38" transform="translate(45.690477 0) scale(0.996264)"/>
    </g>
   </g>
   <g id="text_48">
    <!-- 10 -->
    <g style="fill: #ffffff" transform="translate(106.083244 165.992672) rotate(-90) scale(0.045 -0.045)">
     <use xlink:href="#CMR17-31" transform="scale(0.996264)"/>
     <use xlink:href="#CMR17-30" transform="translate(45.690477 0) scale(0.996264)"/>
    </g>
   </g>
   <g id="text_49">
    <!-- 5 -->
    <g transform="translate(110.137005 160.293962) rotate(-90) scale(0.045 -0.045)">
     <use xlink:href="#CMR17-35" transform="scale(0.996264)"/>
    </g>
   </g>
   <g id="text_50">
    <!-- 26 -->
    <g style="fill: #ffffff" transform="translate(114.190766 153.533347) rotate(-90) scale(0.045 -0.045)">
     <use xlink:href="#CMR17-32" transform="scale(0.996264)"/>
     <use xlink:href="#CMR17-36" transform="translate(45.690477 0) scale(0.996264)"/>
    </g>
   </g>
   <g id="text_51">
    <!-- 57 -->
    <g style="fill: #ffffff" transform="translate(118.244527 129.393404) rotate(-90) scale(0.045 -0.045)">
     <use xlink:href="#CMR17-35" transform="scale(0.996264)"/>
     <use xlink:href="#CMR17-37" transform="translate(45.690477 0) scale(0.996264)"/>
    </g>
   </g>
   <g id="text_52">
    <!-- 26 -->
    <g style="fill: #ffffff" transform="translate(122.298288 153.533347) rotate(-90) scale(0.045 -0.045)">
     <use xlink:href="#CMR17-32" transform="scale(0.996264)"/>
     <use xlink:href="#CMR17-36" transform="translate(45.690477 0) scale(0.996264)"/>
    </g>
   </g>
   <g id="text_53">
    <!-- 18 -->
    <g style="fill: #ffffff" transform="translate(126.352049 159.76301) rotate(-90) scale(0.045 -0.045)">
     <use xlink:href="#CMR17-31" transform="scale(0.996264)"/>
     <use xlink:href="#CMR17-38" transform="translate(45.690477 0) scale(0.996264)"/>
    </g>
   </g>
   <g id="text_54">
    <!-- 56 -->
    <g style="fill: #ffffff" transform="translate(130.40581 130.172112) rotate(-90) scale(0.045 -0.045)">
     <use xlink:href="#CMR17-35" transform="scale(0.996264)"/>
     <use xlink:href="#CMR17-36" transform="translate(45.690477 0) scale(0.996264)"/>
    </g>
   </g>
   <g id="text_55">
    <!-- 50 -->
    <g style="fill: #ffffff" transform="translate(134.459571 134.844359) rotate(-90) scale(0.045 -0.045)">
     <use xlink:href="#CMR17-35" transform="scale(0.996264)"/>
     <use xlink:href="#CMR17-30" transform="translate(45.690477 0) scale(0.996264)"/>
    </g>
   </g>
   <g id="text_56">
    <!-- 5 -->
    <g transform="translate(138.513332 160.293962) rotate(-90) scale(0.045 -0.045)">
     <use xlink:href="#CMR17-35" transform="scale(0.996264)"/>
    </g>
   </g>
   <g id="text_57">
    <!-- 21 -->
    <g style="fill: #ffffff" transform="translate(142.567093 157.426886) rotate(-90) scale(0.045 -0.045)">
     <use xlink:href="#CMR17-32" transform="scale(0.996264)"/>
     <use xlink:href="#CMR17-31" transform="translate(45.690477 0) scale(0.996264)"/>
    </g>
   </g>
   <g id="text_58">
    <!-- 29 -->
    <g style="fill: #ffffff" transform="translate(146.620854 151.197223) rotate(-90) scale(0.045 -0.045)">
     <use xlink:href="#CMR17-32" transform="scale(0.996264)"/>
     <use xlink:href="#CMR17-39" transform="translate(45.690477 0) scale(0.996264)"/>
    </g>
   </g>
   <g id="text_59">
    <!-- 55 -->
    <g style="fill: #ffffff" transform="translate(150.674615 130.950819) rotate(-90) scale(0.045 -0.045)">
     <use xlink:href="#CMR17-35" transform="scale(0.996264)"/>
     <use xlink:href="#CMR17-35" transform="translate(45.690477 0) scale(0.996264)"/>
    </g>
   </g>
   <g id="text_60">
    <!-- 7 -->
    <g transform="translate(154.728376 157.17913) rotate(-90) scale(0.045 -0.045)">
     <use xlink:href="#CMR17-37" transform="scale(0.996264)"/>
    </g>
   </g>
   <g id="text_61">
    <!-- 9 -->
    <g transform="translate(158.782137 154.064299) rotate(-90) scale(0.045 -0.045)">
     <use xlink:href="#CMR17-39" transform="scale(0.996264)"/>
    </g>
   </g>
   <g id="text_62">
    <!-- 48 -->
    <g style="fill: #ffffff" transform="translate(162.835898 136.401774) rotate(-90) scale(0.045 -0.045)">
     <use xlink:href="#CMR17-34" transform="scale(0.996264)"/>
     <use xlink:href="#CMR17-38" transform="translate(45.690477 0) scale(0.996264)"/>
    </g>
   </g>
   <g id="text_63">
    <!-- 32 -->
    <g style="fill: #ffffff" transform="translate(166.889659 148.8611) rotate(-90) scale(0.045 -0.045)">
     <use xlink:href="#CMR17-33" transform="scale(0.996264)"/>
     <use xlink:href="#CMR17-32" transform="translate(45.690477 0) scale(0.996264)"/>
    </g>
   </g>
   <g id="text_64">
    <!-- 6 -->
    <g transform="translate(170.943419 158.736546) rotate(-90) scale(0.045 -0.045)">
     <use xlink:href="#CMR17-36" transform="scale(0.996264)"/>
    </g>
   </g>
   <g id="text_65">
    <!-- 52 -->
    <g style="fill: #ffffff" transform="translate(174.99718 133.286943) rotate(-90) scale(0.045 -0.045)">
     <use xlink:href="#CMR17-35" transform="scale(0.996264)"/>
     <use xlink:href="#CMR17-32" transform="translate(45.690477 0) scale(0.996264)"/>
    </g>
   </g>
   <g id="text_66">
    <!-- 22 -->
    <g style="fill: #ffffff" transform="translate(179.050941 156.648178) rotate(-90) scale(0.045 -0.045)">
     <use xlink:href="#CMR17-32" transform="scale(0.996264)"/>
     <use xlink:href="#CMR17-32" transform="translate(45.690477 0) scale(0.996264)"/>
    </g>
   </g>
   <g id="text_67">
    <!-- 75 -->
    <g style="fill: #ffffff" transform="translate(183.104702 115.376663) rotate(-90) scale(0.045 -0.045)">
     <use xlink:href="#CMR17-37" transform="scale(0.996264)"/>
     <use xlink:href="#CMR17-35" transform="translate(45.690477 0) scale(0.996264)"/>
    </g>
   </g>
   <g id="text_68">
    <!-- 33 -->
    <g style="fill: #ffffff" transform="translate(187.158463 148.082392) rotate(-90) scale(0.045 -0.045)">
     <use xlink:href="#CMR17-33" transform="scale(0.996264)"/>
     <use xlink:href="#CMR17-33" transform="translate(45.690477 0) scale(0.996264)"/>
    </g>
   </g>
   <g id="text_69">
    <!-- 16 -->
    <g style="fill: #ffffff" transform="translate(191.212224 161.320425) rotate(-90) scale(0.045 -0.045)">
     <use xlink:href="#CMR17-31" transform="scale(0.996264)"/>
     <use xlink:href="#CMR17-36" transform="translate(45.690477 0) scale(0.996264)"/>
    </g>
   </g>
   <g id="text_70">
    <!-- 45 -->
    <g style="fill: #ffffff" transform="translate(195.265985 138.737898) rotate(-90) scale(0.045 -0.045)">
     <use xlink:href="#CMR17-34" transform="scale(0.996264)"/>
     <use xlink:href="#CMR17-35" transform="translate(45.690477 0) scale(0.996264)"/>
    </g>
   </g>
   <g id="text_71">
    <!-- 14 -->
    <g style="fill: #ffffff" transform="translate(199.319746 162.877841) rotate(-90) scale(0.045 -0.045)">
     <use xlink:href="#CMR17-31" transform="scale(0.996264)"/>
     <use xlink:href="#CMR17-34" transform="translate(45.690477 0) scale(0.996264)"/>
    </g>
   </g>
   <g id="text_72">
    <!-- 64 -->
    <g style="fill: #ffffff" transform="translate(203.373507 123.942449) rotate(-90) scale(0.045 -0.045)">
     <use xlink:href="#CMR17-36" transform="scale(0.996264)"/>
     <use xlink:href="#CMR17-34" transform="translate(45.690477 0) scale(0.996264)"/>
    </g>
   </g>
   <g id="text_73">
    <!-- 21 -->
    <g style="fill: #ffffff" transform="translate(207.427268 157.426886) rotate(-90) scale(0.045 -0.045)">
     <use xlink:href="#CMR17-32" transform="scale(0.996264)"/>
     <use xlink:href="#CMR17-31" transform="translate(45.690477 0) scale(0.996264)"/>
    </g>
   </g>
   <g id="text_74">
    <!-- 24 -->
    <g style="fill: #ffffff" transform="translate(211.481029 155.090763) rotate(-90) scale(0.045 -0.045)">
     <use xlink:href="#CMR17-32" transform="scale(0.996264)"/>
     <use xlink:href="#CMR17-34" transform="translate(45.690477 0) scale(0.996264)"/>
    </g>
   </g>
   <g id="text_75">
    <!-- 54 -->
    <g style="fill: #ffffff" transform="translate(215.53479 131.729527) rotate(-90) scale(0.045 -0.045)">
     <use xlink:href="#CMR17-35" transform="scale(0.996264)"/>
     <use xlink:href="#CMR17-34" transform="translate(45.690477 0) scale(0.996264)"/>
    </g>
   </g>
   <g id="text_76">
    <!-- 16 -->
    <g style="fill: #ffffff" transform="translate(219.588551 161.320425) rotate(-90) scale(0.045 -0.045)">
     <use xlink:href="#CMR17-31" transform="scale(0.996264)"/>
     <use xlink:href="#CMR17-36" transform="translate(45.690477 0) scale(0.996264)"/>
    </g>
   </g>
   <g id="text_77">
    <!-- 42 -->
    <g style="fill: #ffffff" transform="translate(223.642312 141.074021) rotate(-90) scale(0.045 -0.045)">
     <use xlink:href="#CMR17-34" transform="scale(0.996264)"/>
     <use xlink:href="#CMR17-32" transform="translate(45.690477 0) scale(0.996264)"/>
    </g>
   </g>
   <g id="text_78">
    <!-- 36 -->
    <g style="fill: #ffffff" transform="translate(227.696073 145.746268) rotate(-90) scale(0.045 -0.045)">
     <use xlink:href="#CMR17-33" transform="scale(0.996264)"/>
     <use xlink:href="#CMR17-36" transform="translate(45.690477 0) scale(0.996264)"/>
    </g>
   </g>
   <g id="text_79">
    <!-- 28 -->
    <g style="fill: #ffffff" transform="translate(231.749834 151.975931) rotate(-90) scale(0.045 -0.045)">
     <use xlink:href="#CMR17-32" transform="scale(0.996264)"/>
     <use xlink:href="#CMR17-38" transform="translate(45.690477 0) scale(0.996264)"/>
    </g>
   </g>
   <g id="text_80">
    <!-- 53 -->
    <g style="fill: #ffffff" transform="translate(235.803595 132.508235) rotate(-90) scale(0.045 -0.045)">
     <use xlink:href="#CMR17-35" transform="scale(0.996264)"/>
     <use xlink:href="#CMR17-33" transform="translate(45.690477 0) scale(0.996264)"/>
    </g>
   </g>
   <g id="text_81">
    <!-- 24 -->
    <g style="fill: #ffffff" transform="translate(239.857356 155.090763) rotate(-90) scale(0.045 -0.045)">
     <use xlink:href="#CMR17-32" transform="scale(0.996264)"/>
     <use xlink:href="#CMR17-34" transform="translate(45.690477 0) scale(0.996264)"/>
    </g>
   </g>
   <g id="text_82">
    <!-- 6 -->
    <g transform="translate(243.911117 158.736546) rotate(-90) scale(0.045 -0.045)">
     <use xlink:href="#CMR17-36" transform="scale(0.996264)"/>
    </g>
   </g>
   <g id="text_83">
    <!-- 62 -->
    <g style="fill: #ffffff" transform="translate(247.964878 125.499865) rotate(-90) scale(0.045 -0.045)">
     <use xlink:href="#CMR17-36" transform="scale(0.996264)"/>
     <use xlink:href="#CMR17-32" transform="translate(45.690477 0) scale(0.996264)"/>
    </g>
   </g>
   <g id="text_84">
    <!-- 8 -->
    <g transform="translate(252.018639 155.621714) rotate(-90) scale(0.045 -0.045)">
     <use xlink:href="#CMR17-38" transform="scale(0.996264)"/>
    </g>
   </g>
   <g id="text_85">
    <!-- 23 -->
    <g style="fill: #ffffff" transform="translate(256.0724 155.86947) rotate(-90) scale(0.045 -0.045)">
     <use xlink:href="#CMR17-32" transform="scale(0.996264)"/>
     <use xlink:href="#CMR17-33" transform="translate(45.690477 0) scale(0.996264)"/>
    </g>
   </g>
   <g id="text_86">
    <!-- 19 -->
    <g style="fill: #ffffff" transform="translate(260.126161 158.984302) rotate(-90) scale(0.045 -0.045)">
     <use xlink:href="#CMR17-31" transform="scale(0.996264)"/>
     <use xlink:href="#CMR17-39" transform="translate(45.690477 0) scale(0.996264)"/>
    </g>
   </g>
   <g id="text_87">
    <!-- 53 -->
    <g style="fill: #ffffff" transform="translate(264.179922 132.508235) rotate(-90) scale(0.045 -0.045)">
     <use xlink:href="#CMR17-35" transform="scale(0.996264)"/>
     <use xlink:href="#CMR17-33" transform="translate(45.690477 0) scale(0.996264)"/>
    </g>
   </g>
   <g id="text_88">
    <!-- 51 -->
    <g style="fill: #ffffff" transform="translate(268.233683 134.065651) rotate(-90) scale(0.045 -0.045)">
     <use xlink:href="#CMR17-35" transform="scale(0.996264)"/>
     <use xlink:href="#CMR17-31" transform="translate(45.690477 0) scale(0.996264)"/>
    </g>
   </g>
   <g id="text_89">
    <!-- 43 -->
    <g style="fill: #ffffff" transform="translate(272.287444 140.295314) rotate(-90) scale(0.045 -0.045)">
     <use xlink:href="#CMR17-34" transform="scale(0.996264)"/>
     <use xlink:href="#CMR17-33" transform="translate(45.690477 0) scale(0.996264)"/>
    </g>
   </g>
   <g id="text_90">
    <!-- 10 -->
    <g style="fill: #ffffff" transform="translate(276.341205 165.992672) rotate(-90) scale(0.045 -0.045)">
     <use xlink:href="#CMR17-31" transform="scale(0.996264)"/>
     <use xlink:href="#CMR17-30" transform="translate(45.690477 0) scale(0.996264)"/>
    </g>
   </g>
   <g id="text_91">
    <!-- 49 -->
    <g style="fill: #ffffff" transform="translate(280.394966 135.623067) rotate(-90) scale(0.045 -0.045)">
     <use xlink:href="#CMR17-34" transform="scale(0.996264)"/>
     <use xlink:href="#CMR17-39" transform="translate(45.690477 0) scale(0.996264)"/>
    </g>
   </g>
   <g id="text_92">
    <!-- 36 -->
    <g style="fill: #ffffff" transform="translate(284.448727 145.746268) rotate(-90) scale(0.045 -0.045)">
     <use xlink:href="#CMR17-33" transform="scale(0.996264)"/>
     <use xlink:href="#CMR17-36" transform="translate(45.690477 0) scale(0.996264)"/>
    </g>
   </g>
   <g id="text_93">
    <!-- 13 -->
    <g style="fill: #ffffff" transform="translate(288.502488 163.656549) rotate(-90) scale(0.045 -0.045)">
     <use xlink:href="#CMR17-31" transform="scale(0.996264)"/>
     <use xlink:href="#CMR17-33" transform="translate(45.690477 0) scale(0.996264)"/>
    </g>
   </g>
   <g id="text_94">
    <!-- 9 -->
    <g transform="translate(292.556249 154.064299) rotate(-90) scale(0.045 -0.045)">
     <use xlink:href="#CMR17-39" transform="scale(0.996264)"/>
    </g>
   </g>
   <g id="text_95">
    <!-- 100 -->
    <g style="fill: #ffffff" transform="translate(296.61001 97.434519) rotate(-90) scale(0.045 -0.045)">
     <use xlink:href="#CMR17-31" transform="scale(0.996264)"/>
     <use xlink:href="#CMR17-30" transform="translate(45.690477 0) scale(0.996264)"/>
     <use xlink:href="#CMR17-30" transform="translate(91.380954 0) scale(0.996264)"/>
    </g>
   </g>
   <g id="text_96">
    <!-- 6 -->
    <g transform="translate(300.663771 158.736546) rotate(-90) scale(0.045 -0.045)">
     <use xlink:href="#CMR17-36" transform="scale(0.996264)"/>
    </g>
   </g>
   <g id="text_97">
    <!-- 8 -->
    <g transform="translate(304.717532 155.621714) rotate(-90) scale(0.045 -0.045)">
     <use xlink:href="#CMR17-38" transform="scale(0.996264)"/>
    </g>
   </g>
   <g id="text_98">
    <!-- 77 -->
    <g style="fill: #ffffff" transform="translate(308.771293 113.819247) rotate(-90) scale(0.045 -0.045)">
     <use xlink:href="#CMR17-37" transform="scale(0.996264)"/>
     <use xlink:href="#CMR17-37" transform="translate(45.690477 0) scale(0.996264)"/>
    </g>
   </g>
   <g id="text_99">
    <!-- 18 -->
    <g style="fill: #ffffff" transform="translate(312.825054 159.76301) rotate(-90) scale(0.045 -0.045)">
     <use xlink:href="#CMR17-31" transform="scale(0.996264)"/>
     <use xlink:href="#CMR17-38" transform="translate(45.690477 0) scale(0.996264)"/>
    </g>
   </g>
   <g id="text_100">
    <!-- 49 -->
    <g style="fill: #ffffff" transform="translate(316.878815 135.623067) rotate(-90) scale(0.045 -0.045)">
     <use xlink:href="#CMR17-34" transform="scale(0.996264)"/>
     <use xlink:href="#CMR17-39" transform="translate(45.690477 0) scale(0.996264)"/>
    </g>
   </g>
   <g id="text_101">
    <!-- 4 -->
    <g transform="translate(320.932576 161.851377) rotate(-90) scale(0.045 -0.045)">
     <use xlink:href="#CMR17-34" transform="scale(0.996264)"/>
    </g>
   </g>
   <g id="text_102">
    <!-- 27 -->
    <g style="fill: #ffffff" transform="translate(324.986337 152.754639) rotate(-90) scale(0.045 -0.045)">
     <use xlink:href="#CMR17-32" transform="scale(0.996264)"/>
     <use xlink:href="#CMR17-37" transform="translate(45.690477 0) scale(0.996264)"/>
    </g>
   </g>
   <g id="text_103">
    <!-- 64 -->
    <g style="fill: #ffffff" transform="translate(329.040098 123.942449) rotate(-90) scale(0.045 -0.045)">
     <use xlink:href="#CMR17-36" transform="scale(0.996264)"/>
     <use xlink:href="#CMR17-34" transform="translate(45.690477 0) scale(0.996264)"/>
    </g>
   </g>
   <g id="text_104">
    <!-- 26 -->
    <g style="fill: #ffffff" transform="translate(333.093859 153.533347) rotate(-90) scale(0.045 -0.045)">
     <use xlink:href="#CMR17-32" transform="scale(0.996264)"/>
     <use xlink:href="#CMR17-36" transform="translate(45.690477 0) scale(0.996264)"/>
    </g>
   </g>
   <g id="text_105">
    <!-- 23 -->
    <g style="fill: #ffffff" transform="translate(337.147619 155.86947) rotate(-90) scale(0.045 -0.045)">
     <use xlink:href="#CMR17-32" transform="scale(0.996264)"/>
     <use xlink:href="#CMR17-33" transform="translate(45.690477 0) scale(0.996264)"/>
    </g>
   </g>
   <g id="text_106">
    <!-- 7 -->
    <g transform="translate(341.20138 157.17913) rotate(-90) scale(0.045 -0.045)">
     <use xlink:href="#CMR17-37" transform="scale(0.996264)"/>
    </g>
   </g>
   <g id="text_107">
    <!-- 66 -->
    <g style="fill: #ffffff" transform="translate(345.255141 122.385033) rotate(-90) scale(0.045 -0.045)">
     <use xlink:href="#CMR17-36" transform="scale(0.996264)"/>
     <use xlink:href="#CMR17-36" transform="translate(45.690477 0) scale(0.996264)"/>
    </g>
   </g>
   <g id="text_108">
    <!-- 14 -->
    <g style="fill: #ffffff" transform="translate(349.308902 162.877841) rotate(-90) scale(0.045 -0.045)">
     <use xlink:href="#CMR17-31" transform="scale(0.996264)"/>
     <use xlink:href="#CMR17-34" transform="translate(45.690477 0) scale(0.996264)"/>
    </g>
   </g>
   <g id="text_109">
    <!-- 29 -->
    <g style="fill: #ffffff" transform="translate(353.362663 151.197223) rotate(-90) scale(0.045 -0.045)">
     <use xlink:href="#CMR17-32" transform="scale(0.996264)"/>
     <use xlink:href="#CMR17-39" transform="translate(45.690477 0) scale(0.996264)"/>
    </g>
   </g>
   <g id="text_110">
    <!-- 27 -->
    <g style="fill: #ffffff" transform="translate(357.416424 152.754639) rotate(-90) scale(0.045 -0.045)">
     <use xlink:href="#CMR17-32" transform="scale(0.996264)"/>
     <use xlink:href="#CMR17-37" transform="translate(45.690477 0) scale(0.996264)"/>
    </g>
   </g>
   <g id="text_111">
    <!-- 33 -->
    <g style="fill: #ffffff" transform="translate(361.470185 148.082392) rotate(-90) scale(0.045 -0.045)">
     <use xlink:href="#CMR17-33" transform="scale(0.996264)"/>
     <use xlink:href="#CMR17-33" transform="translate(45.690477 0) scale(0.996264)"/>
    </g>
   </g>
   <g id="text_112">
    <!-- 45 -->
    <g style="fill: #ffffff" transform="translate(365.523946 138.737898) rotate(-90) scale(0.045 -0.045)">
     <use xlink:href="#CMR17-34" transform="scale(0.996264)"/>
     <use xlink:href="#CMR17-35" transform="translate(45.690477 0) scale(0.996264)"/>
    </g>
   </g>
   <g id="text_113">
    <!-- 54 -->
    <g style="fill: #ffffff" transform="translate(369.577707 131.729527) rotate(-90) scale(0.045 -0.045)">
     <use xlink:href="#CMR17-35" transform="scale(0.996264)"/>
     <use xlink:href="#CMR17-34" transform="translate(45.690477 0) scale(0.996264)"/>
    </g>
   </g>
   <g id="text_114">
    <!-- 14 -->
    <g style="fill: #ffffff" transform="translate(373.631468 162.877841) rotate(-90) scale(0.045 -0.045)">
     <use xlink:href="#CMR17-31" transform="scale(0.996264)"/>
     <use xlink:href="#CMR17-34" transform="translate(45.690477 0) scale(0.996264)"/>
    </g>
   </g>
   <g id="text_115">
    <!-- 6 -->
    <g transform="translate(377.685229 158.736546) rotate(-90) scale(0.045 -0.045)">
     <use xlink:href="#CMR17-36" transform="scale(0.996264)"/>
    </g>
   </g>
   <g id="text_116">
    <!-- 46 -->
    <g style="fill: #ffffff" transform="translate(381.73899 137.95919) rotate(-90) scale(0.045 -0.045)">
     <use xlink:href="#CMR17-34" transform="scale(0.996264)"/>
     <use xlink:href="#CMR17-36" transform="translate(45.690477 0) scale(0.996264)"/>
    </g>
   </g>
   <g id="text_117">
    <!-- 26 -->
    <g style="fill: #ffffff" transform="translate(385.792751 153.533347) rotate(-90) scale(0.045 -0.045)">
     <use xlink:href="#CMR17-32" transform="scale(0.996264)"/>
     <use xlink:href="#CMR17-36" transform="translate(45.690477 0) scale(0.996264)"/>
    </g>
   </g>
   <g id="text_118">
    <!-- 37 -->
    <g style="fill: #ffffff" transform="translate(389.846512 144.967561) rotate(-90) scale(0.045 -0.045)">
     <use xlink:href="#CMR17-33" transform="scale(0.996264)"/>
     <use xlink:href="#CMR17-37" transform="translate(45.690477 0) scale(0.996264)"/>
    </g>
   </g>
   <g id="text_119">
    <!-- 32 -->
    <g style="fill: #ffffff" transform="translate(393.900273 148.8611) rotate(-90) scale(0.045 -0.045)">
     <use xlink:href="#CMR17-33" transform="scale(0.996264)"/>
     <use xlink:href="#CMR17-32" transform="translate(45.690477 0) scale(0.996264)"/>
    </g>
   </g>
   <g id="text_120">
    <!-- 9 -->
    <g transform="translate(397.954034 154.064299) rotate(-90) scale(0.045 -0.045)">
     <use xlink:href="#CMR17-39" transform="scale(0.996264)"/>
    </g>
   </g>
  </g>
 </g>
 <defs>
  <clipPath id="p244e6f9060">
   <rect x="41.764313" y="7.2" width="373.675687" height="163.528647"/>
  </clipPath>
 </defs>
</svg>
