<?xml version="1.0" encoding="utf-8" standalone="no"?>
<!DOCTYPE svg PUBLIC "-//W3C//DTD SVG 1.1//EN"
  "http://www.w3.org/Graphics/SVG/1.1/DTD/svg11.dtd">
<svg xmlns:xlink="http://www.w3.org/1999/xlink" width="779.620312pt" height="380.579844pt" viewBox="0 0 779.620312 380.579844" xmlns="http://www.w3.org/2000/svg" version="1.1">
 <metadata>
  <rdf:RDF xmlns:dc="http://purl.org/dc/elements/1.1/" xmlns:cc="http://creativecommons.org/ns#" xmlns:rdf="http://www.w3.org/1999/02/22-rdf-syntax-ns#">
   <cc:Work>
    <dc:type rdf:resource="http://purl.org/dc/dcmitype/StillImage"/>
    <dc:date>2024-07-26T13:20:56.744765</dc:date>
    <dc:format>image/svg+xml</dc:format>
    <dc:creator>
     <cc:Agent>
      <dc:title>Matplotlib v3.9.0, https://matplotlib.org/</dc:title>
     </cc:Agent>
    </dc:creator>
   </cc:Work>
  </rdf:RDF>
 </metadata>
 <defs>
  <style type="text/css">*{stroke-linejoin: round; stroke-linecap: butt}</style>
 </defs>
 <g id="figure_1">
  <g id="patch_1">
   <path d="M 0 380.579844 
L 779.620312 380.579844 
L 779.620312 0 
L 0 0 
z
" style="fill: #ffffff"/>
  </g>
  <g id="axes_1">
   <g id="patch_2">
    <path d="M 39.201563 337.86 
L 772.420313 337.86 
L 772.420313 7.2 
L 39.201563 7.2 
z
" style="fill: #ffffff"/>
   </g>
   <g id="matplotlib.axis_1">
    <g id="xtick_1">
     <g id="line2d_1">
      <path d="M 49.827921 337.86 
L 49.827921 7.2 
" clip-path="url(#p7a7df051fd)" style="fill: none; stroke: #cccccc; stroke-linecap: round"/>
     </g>
     <g id="text_1">
      <!-- 0.00 -->
      <g style="fill: #262626" transform="translate(39.124406 355.233594) scale(0.11 -0.11)">
       <defs>
        <path id="ArialMT-30" d="M 266 2259 
Q 266 3072 433 3567 
Q 600 4063 929 4331 
Q 1259 4600 1759 4600 
Q 2128 4600 2406 4451 
Q 2684 4303 2865 4023 
Q 3047 3744 3150 3342 
Q 3253 2941 3253 2259 
Q 3253 1453 3087 958 
Q 2922 463 2592 192 
Q 2263 -78 1759 -78 
Q 1097 -78 719 397 
Q 266 969 266 2259 
z
M 844 2259 
Q 844 1131 1108 757 
Q 1372 384 1759 384 
Q 2147 384 2411 759 
Q 2675 1134 2675 2259 
Q 2675 3391 2411 3762 
Q 2147 4134 1753 4134 
Q 1366 4134 1134 3806 
Q 844 3388 844 2259 
z
" transform="scale(0.015625)"/>
        <path id="ArialMT-2e" d="M 581 0 
L 581 641 
L 1222 641 
L 1222 0 
L 581 0 
z
" transform="scale(0.015625)"/>
       </defs>
       <use xlink:href="#ArialMT-30"/>
       <use xlink:href="#ArialMT-2e" x="55.615234"/>
       <use xlink:href="#ArialMT-30" x="83.398438"/>
       <use xlink:href="#ArialMT-30" x="139.013672"/>
      </g>
     </g>
    </g>
    <g id="xtick_2">
     <g id="line2d_2">
      <path d="M 191.512704 337.86 
L 191.512704 7.2 
" clip-path="url(#p7a7df051fd)" style="fill: none; stroke: #cccccc; stroke-linecap: round"/>
     </g>
     <g id="text_2">
      <!-- 0.02 -->
      <g style="fill: #262626" transform="translate(180.809188 355.233594) scale(0.11 -0.11)">
       <defs>
        <path id="ArialMT-32" d="M 3222 541 
L 3222 0 
L 194 0 
Q 188 203 259 391 
Q 375 700 629 1000 
Q 884 1300 1366 1694 
Q 2113 2306 2375 2664 
Q 2638 3022 2638 3341 
Q 2638 3675 2398 3904 
Q 2159 4134 1775 4134 
Q 1369 4134 1125 3890 
Q 881 3647 878 3216 
L 300 3275 
Q 359 3922 746 4261 
Q 1134 4600 1788 4600 
Q 2447 4600 2831 4234 
Q 3216 3869 3216 3328 
Q 3216 3053 3103 2787 
Q 2991 2522 2730 2228 
Q 2469 1934 1863 1422 
Q 1356 997 1212 845 
Q 1069 694 975 541 
L 3222 541 
z
" transform="scale(0.015625)"/>
       </defs>
       <use xlink:href="#ArialMT-30"/>
       <use xlink:href="#ArialMT-2e" x="55.615234"/>
       <use xlink:href="#ArialMT-30" x="83.398438"/>
       <use xlink:href="#ArialMT-32" x="139.013672"/>
      </g>
     </g>
    </g>
    <g id="xtick_3">
     <g id="line2d_3">
      <path d="M 333.197486 337.86 
L 333.197486 7.2 
" clip-path="url(#p7a7df051fd)" style="fill: none; stroke: #cccccc; stroke-linecap: round"/>
     </g>
     <g id="text_3">
      <!-- 0.04 -->
      <g style="fill: #262626" transform="translate(322.493971 355.233594) scale(0.11 -0.11)">
       <defs>
        <path id="ArialMT-34" d="M 2069 0 
L 2069 1097 
L 81 1097 
L 81 1613 
L 2172 4581 
L 2631 4581 
L 2631 1613 
L 3250 1613 
L 3250 1097 
L 2631 1097 
L 2631 0 
L 2069 0 
z
M 2069 1613 
L 2069 3678 
L 634 1613 
L 2069 1613 
z
" transform="scale(0.015625)"/>
       </defs>
       <use xlink:href="#ArialMT-30"/>
       <use xlink:href="#ArialMT-2e" x="55.615234"/>
       <use xlink:href="#ArialMT-30" x="83.398438"/>
       <use xlink:href="#ArialMT-34" x="139.013672"/>
      </g>
     </g>
    </g>
    <g id="xtick_4">
     <g id="line2d_4">
      <path d="M 474.882269 337.86 
L 474.882269 7.2 
" clip-path="url(#p7a7df051fd)" style="fill: none; stroke: #cccccc; stroke-linecap: round"/>
     </g>
     <g id="text_4">
      <!-- 0.06 -->
      <g style="fill: #262626" transform="translate(464.178753 355.233594) scale(0.11 -0.11)">
       <defs>
        <path id="ArialMT-36" d="M 3184 3459 
L 2625 3416 
Q 2550 3747 2413 3897 
Q 2184 4138 1850 4138 
Q 1581 4138 1378 3988 
Q 1113 3794 959 3422 
Q 806 3050 800 2363 
Q 1003 2672 1297 2822 
Q 1591 2972 1913 2972 
Q 2475 2972 2870 2558 
Q 3266 2144 3266 1488 
Q 3266 1056 3080 686 
Q 2894 316 2569 119 
Q 2244 -78 1831 -78 
Q 1128 -78 684 439 
Q 241 956 241 2144 
Q 241 3472 731 4075 
Q 1159 4600 1884 4600 
Q 2425 4600 2770 4297 
Q 3116 3994 3184 3459 
z
M 888 1484 
Q 888 1194 1011 928 
Q 1134 663 1356 523 
Q 1578 384 1822 384 
Q 2178 384 2434 671 
Q 2691 959 2691 1453 
Q 2691 1928 2437 2201 
Q 2184 2475 1800 2475 
Q 1419 2475 1153 2201 
Q 888 1928 888 1484 
z
" transform="scale(0.015625)"/>
       </defs>
       <use xlink:href="#ArialMT-30"/>
       <use xlink:href="#ArialMT-2e" x="55.615234"/>
       <use xlink:href="#ArialMT-30" x="83.398438"/>
       <use xlink:href="#ArialMT-36" x="139.013672"/>
      </g>
     </g>
    </g>
    <g id="xtick_5">
     <g id="line2d_5">
      <path d="M 616.567052 337.86 
L 616.567052 7.2 
" clip-path="url(#p7a7df051fd)" style="fill: none; stroke: #cccccc; stroke-linecap: round"/>
     </g>
     <g id="text_5">
      <!-- 0.08 -->
      <g style="fill: #262626" transform="translate(605.863536 355.233594) scale(0.11 -0.11)">
       <defs>
        <path id="ArialMT-38" d="M 1131 2484 
Q 781 2613 612 2850 
Q 444 3088 444 3419 
Q 444 3919 803 4259 
Q 1163 4600 1759 4600 
Q 2359 4600 2725 4251 
Q 3091 3903 3091 3403 
Q 3091 3084 2923 2848 
Q 2756 2613 2416 2484 
Q 2838 2347 3058 2040 
Q 3278 1734 3278 1309 
Q 3278 722 2862 322 
Q 2447 -78 1769 -78 
Q 1091 -78 675 323 
Q 259 725 259 1325 
Q 259 1772 486 2073 
Q 713 2375 1131 2484 
z
M 1019 3438 
Q 1019 3113 1228 2906 
Q 1438 2700 1772 2700 
Q 2097 2700 2305 2904 
Q 2513 3109 2513 3406 
Q 2513 3716 2298 3927 
Q 2084 4138 1766 4138 
Q 1444 4138 1231 3931 
Q 1019 3725 1019 3438 
z
M 838 1322 
Q 838 1081 952 856 
Q 1066 631 1291 507 
Q 1516 384 1775 384 
Q 2178 384 2440 643 
Q 2703 903 2703 1303 
Q 2703 1709 2433 1975 
Q 2163 2241 1756 2241 
Q 1359 2241 1098 1978 
Q 838 1716 838 1322 
z
" transform="scale(0.015625)"/>
       </defs>
       <use xlink:href="#ArialMT-30"/>
       <use xlink:href="#ArialMT-2e" x="55.615234"/>
       <use xlink:href="#ArialMT-30" x="83.398438"/>
       <use xlink:href="#ArialMT-38" x="139.013672"/>
      </g>
     </g>
    </g>
    <g id="xtick_6">
     <g id="line2d_6">
      <path d="M 758.251834 337.86 
L 758.251834 7.2 
" clip-path="url(#p7a7df051fd)" style="fill: none; stroke: #cccccc; stroke-linecap: round"/>
     </g>
     <g id="text_6">
      <!-- 0.10 -->
      <g style="fill: #262626" transform="translate(747.548319 355.233594) scale(0.11 -0.11)">
       <defs>
        <path id="ArialMT-31" d="M 2384 0 
L 1822 0 
L 1822 3584 
Q 1619 3391 1289 3197 
Q 959 3003 697 2906 
L 697 3450 
Q 1169 3672 1522 3987 
Q 1875 4303 2022 4600 
L 2384 4600 
L 2384 0 
z
" transform="scale(0.015625)"/>
       </defs>
       <use xlink:href="#ArialMT-30"/>
       <use xlink:href="#ArialMT-2e" x="55.615234"/>
       <use xlink:href="#ArialMT-31" x="83.398438"/>
       <use xlink:href="#ArialMT-30" x="139.013672"/>
      </g>
     </g>
    </g>
    <g id="text_7">
     <!-- Epsilon $\varepsilon$ -->
     <g style="fill: #262626" transform="translate(379.160938 370.779844) scale(0.13 -0.13)">
      <defs>
       <path id="ArialMT-45" d="M 506 0 
L 506 4581 
L 3819 4581 
L 3819 4041 
L 1113 4041 
L 1113 2638 
L 3647 2638 
L 3647 2100 
L 1113 2100 
L 1113 541 
L 3925 541 
L 3925 0 
L 506 0 
z
" transform="scale(0.015625)"/>
       <path id="ArialMT-70" d="M 422 -1272 
L 422 3319 
L 934 3319 
L 934 2888 
Q 1116 3141 1344 3267 
Q 1572 3394 1897 3394 
Q 2322 3394 2647 3175 
Q 2972 2956 3137 2557 
Q 3303 2159 3303 1684 
Q 3303 1175 3120 767 
Q 2938 359 2589 142 
Q 2241 -75 1856 -75 
Q 1575 -75 1351 44 
Q 1128 163 984 344 
L 984 -1272 
L 422 -1272 
z
M 931 1641 
Q 931 1000 1190 694 
Q 1450 388 1819 388 
Q 2194 388 2461 705 
Q 2728 1022 2728 1688 
Q 2728 2322 2467 2637 
Q 2206 2953 1844 2953 
Q 1484 2953 1207 2617 
Q 931 2281 931 1641 
z
" transform="scale(0.015625)"/>
       <path id="ArialMT-73" d="M 197 991 
L 753 1078 
Q 800 744 1014 566 
Q 1228 388 1613 388 
Q 2000 388 2187 545 
Q 2375 703 2375 916 
Q 2375 1106 2209 1216 
Q 2094 1291 1634 1406 
Q 1016 1563 777 1677 
Q 538 1791 414 1992 
Q 291 2194 291 2438 
Q 291 2659 392 2848 
Q 494 3038 669 3163 
Q 800 3259 1026 3326 
Q 1253 3394 1513 3394 
Q 1903 3394 2198 3281 
Q 2494 3169 2634 2976 
Q 2775 2784 2828 2463 
L 2278 2388 
Q 2241 2644 2061 2787 
Q 1881 2931 1553 2931 
Q 1166 2931 1000 2803 
Q 834 2675 834 2503 
Q 834 2394 903 2306 
Q 972 2216 1119 2156 
Q 1203 2125 1616 2013 
Q 2213 1853 2448 1751 
Q 2684 1650 2818 1456 
Q 2953 1263 2953 975 
Q 2953 694 2789 445 
Q 2625 197 2315 61 
Q 2006 -75 1616 -75 
Q 969 -75 630 194 
Q 291 463 197 991 
z
" transform="scale(0.015625)"/>
       <path id="ArialMT-69" d="M 425 3934 
L 425 4581 
L 988 4581 
L 988 3934 
L 425 3934 
z
M 425 0 
L 425 3319 
L 988 3319 
L 988 0 
L 425 0 
z
" transform="scale(0.015625)"/>
       <path id="ArialMT-6c" d="M 409 0 
L 409 4581 
L 972 4581 
L 972 0 
L 409 0 
z
" transform="scale(0.015625)"/>
       <path id="ArialMT-6f" d="M 213 1659 
Q 213 2581 725 3025 
Q 1153 3394 1769 3394 
Q 2453 3394 2887 2945 
Q 3322 2497 3322 1706 
Q 3322 1066 3130 698 
Q 2938 331 2570 128 
Q 2203 -75 1769 -75 
Q 1072 -75 642 372 
Q 213 819 213 1659 
z
M 791 1659 
Q 791 1022 1069 705 
Q 1347 388 1769 388 
Q 2188 388 2466 706 
Q 2744 1025 2744 1678 
Q 2744 2294 2464 2611 
Q 2184 2928 1769 2928 
Q 1347 2928 1069 2612 
Q 791 2297 791 1659 
z
" transform="scale(0.015625)"/>
       <path id="ArialMT-6e" d="M 422 0 
L 422 3319 
L 928 3319 
L 928 2847 
Q 1294 3394 1984 3394 
Q 2284 3394 2536 3286 
Q 2788 3178 2913 3003 
Q 3038 2828 3088 2588 
Q 3119 2431 3119 2041 
L 3119 0 
L 2556 0 
L 2556 2019 
Q 2556 2363 2490 2533 
Q 2425 2703 2258 2804 
Q 2091 2906 1866 2906 
Q 1506 2906 1245 2678 
Q 984 2450 984 1813 
L 984 0 
L 422 0 
z
" transform="scale(0.015625)"/>
       <path id="ArialMT-20" transform="scale(0.015625)"/>
       <path id="DejaVuSans-Oblique-3b5" d="M 1263 1888 
Q 925 1963 778 2166 
Q 669 2309 669 2503 
Q 669 3034 1175 3344 
Q 1575 3588 2188 3588 
Q 2425 3588 2684 3550 
Q 2944 3513 3234 3438 
L 3134 2916 
Q 2847 3006 2606 3047 
Q 2359 3088 2138 3088 
Q 1766 3088 1522 2944 
Q 1228 2772 1228 2522 
Q 1228 2356 1381 2241 
Q 1563 2103 1925 2103 
L 2409 2103 
L 2319 1628 
L 1856 1628 
Q 1425 1628 1172 1469 
Q 828 1253 828 916 
Q 828 703 1013 563 
Q 1244 388 1716 388 
Q 2006 388 2284 444 
Q 2563 503 2806 619 
L 2700 84 
Q 2403 -3 2131 -47 
Q 1859 -91 1609 -91 
Q 866 -91 516 194 
Q 250 413 250 781 
Q 250 1278 600 1584 
Q 859 1813 1263 1888 
z
" transform="scale(0.015625)"/>
      </defs>
      <use xlink:href="#ArialMT-45" transform="translate(0 0.421875)"/>
      <use xlink:href="#ArialMT-70" transform="translate(66.699219 0.421875)"/>
      <use xlink:href="#ArialMT-73" transform="translate(122.314453 0.421875)"/>
      <use xlink:href="#ArialMT-69" transform="translate(172.314453 0.421875)"/>
      <use xlink:href="#ArialMT-6c" transform="translate(194.53125 0.421875)"/>
      <use xlink:href="#ArialMT-6f" transform="translate(216.748047 0.421875)"/>
      <use xlink:href="#ArialMT-6e" transform="translate(272.363281 0.421875)"/>
      <use xlink:href="#ArialMT-20" transform="translate(327.978516 0.421875)"/>
      <use xlink:href="#DejaVuSans-Oblique-3b5" transform="translate(355.761719 0.421875)"/>
     </g>
    </g>
   </g>
   <g id="matplotlib.axis_2">
    <g id="ytick_1">
     <g id="line2d_7">
      <path d="M 39.201563 323.065297 
L 772.420313 323.065297 
" clip-path="url(#p7a7df051fd)" style="fill: none; stroke: #cccccc; stroke-linecap: round"/>
     </g>
     <g id="text_8">
      <!-- 3 -->
      <g style="fill: #262626" transform="translate(23.584531 327.002094) scale(0.11 -0.11)">
       <defs>
        <path id="ArialMT-33" d="M 269 1209 
L 831 1284 
Q 928 806 1161 595 
Q 1394 384 1728 384 
Q 2125 384 2398 659 
Q 2672 934 2672 1341 
Q 2672 1728 2419 1979 
Q 2166 2231 1775 2231 
Q 1616 2231 1378 2169 
L 1441 2663 
Q 1497 2656 1531 2656 
Q 1891 2656 2178 2843 
Q 2466 3031 2466 3422 
Q 2466 3731 2256 3934 
Q 2047 4138 1716 4138 
Q 1388 4138 1169 3931 
Q 950 3725 888 3313 
L 325 3413 
Q 428 3978 793 4289 
Q 1159 4600 1703 4600 
Q 2078 4600 2393 4439 
Q 2709 4278 2876 4000 
Q 3044 3722 3044 3409 
Q 3044 3113 2884 2869 
Q 2725 2625 2413 2481 
Q 2819 2388 3044 2092 
Q 3269 1797 3269 1353 
Q 3269 753 2831 336 
Q 2394 -81 1725 -81 
Q 1122 -81 723 278 
Q 325 638 269 1209 
z
" transform="scale(0.015625)"/>
       </defs>
       <use xlink:href="#ArialMT-33"/>
      </g>
     </g>
    </g>
    <g id="ytick_2">
     <g id="line2d_8">
      <path d="M 39.201563 258.16942 
L 772.420313 258.16942 
" clip-path="url(#p7a7df051fd)" style="fill: none; stroke: #cccccc; stroke-linecap: round"/>
     </g>
     <g id="text_9">
      <!-- 4 -->
      <g style="fill: #262626" transform="translate(23.584531 262.106217) scale(0.11 -0.11)">
       <use xlink:href="#ArialMT-34"/>
      </g>
     </g>
    </g>
    <g id="ytick_3">
     <g id="line2d_9">
      <path d="M 39.201563 193.273543 
L 772.420313 193.273543 
" clip-path="url(#p7a7df051fd)" style="fill: none; stroke: #cccccc; stroke-linecap: round"/>
     </g>
     <g id="text_10">
      <!-- 5 -->
      <g style="fill: #262626" transform="translate(23.584531 197.21034) scale(0.11 -0.11)">
       <defs>
        <path id="ArialMT-35" d="M 266 1200 
L 856 1250 
Q 922 819 1161 601 
Q 1400 384 1738 384 
Q 2144 384 2425 690 
Q 2706 997 2706 1503 
Q 2706 1984 2436 2262 
Q 2166 2541 1728 2541 
Q 1456 2541 1237 2417 
Q 1019 2294 894 2097 
L 366 2166 
L 809 4519 
L 3088 4519 
L 3088 3981 
L 1259 3981 
L 1013 2750 
Q 1425 3038 1878 3038 
Q 2478 3038 2890 2622 
Q 3303 2206 3303 1553 
Q 3303 931 2941 478 
Q 2500 -78 1738 -78 
Q 1113 -78 717 272 
Q 322 622 266 1200 
z
" transform="scale(0.015625)"/>
       </defs>
       <use xlink:href="#ArialMT-35"/>
      </g>
     </g>
    </g>
    <g id="ytick_4">
     <g id="line2d_10">
      <path d="M 39.201563 128.377666 
L 772.420313 128.377666 
" clip-path="url(#p7a7df051fd)" style="fill: none; stroke: #cccccc; stroke-linecap: round"/>
     </g>
     <g id="text_11">
      <!-- 6 -->
      <g style="fill: #262626" transform="translate(23.584531 132.314463) scale(0.11 -0.11)">
       <use xlink:href="#ArialMT-36"/>
      </g>
     </g>
    </g>
    <g id="ytick_5">
     <g id="line2d_11">
      <path d="M 39.201563 63.481789 
L 772.420313 63.481789 
" clip-path="url(#p7a7df051fd)" style="fill: none; stroke: #cccccc; stroke-linecap: round"/>
     </g>
     <g id="text_12">
      <!-- 7 -->
      <g style="fill: #262626" transform="translate(23.584531 67.418586) scale(0.11 -0.11)">
       <defs>
        <path id="ArialMT-37" d="M 303 3981 
L 303 4522 
L 3269 4522 
L 3269 4084 
Q 2831 3619 2401 2847 
Q 1972 2075 1738 1259 
Q 1569 684 1522 0 
L 944 0 
Q 953 541 1156 1306 
Q 1359 2072 1739 2783 
Q 2119 3494 2547 3981 
L 303 3981 
z
" transform="scale(0.015625)"/>
       </defs>
       <use xlink:href="#ArialMT-37"/>
      </g>
     </g>
    </g>
    <g id="text_13">
     <!-- Ø Number of Shift Changes -->
     <g style="fill: #262626" transform="translate(16.848438 252.369297) rotate(-90) scale(0.13 -0.13)">
      <defs>
       <path id="ArialMT-d8" d="M 3906 4163 
L 4431 4750 
L 4741 4488 
L 4191 3869 
Q 4459 3469 4553 3169 
Q 4678 2775 4678 2288 
Q 4678 1584 4393 1034 
Q 4109 484 3595 203 
Q 3081 -78 2503 -78 
Q 2072 -78 1722 44 
Q 1453 138 1094 403 
L 569 -184 
L 259 78 
L 809 694 
Q 503 1159 400 1489 
Q 297 1819 297 2281 
Q 297 2988 578 3539 
Q 859 4091 1367 4375 
Q 1875 4659 2497 4659 
Q 2916 4659 3230 4548 
Q 3544 4438 3906 4163 
z
M 3531 3741 
Q 3238 3972 3017 4056 
Q 2797 4141 2500 4141 
Q 1816 4141 1369 3677 
Q 922 3213 922 2291 
Q 922 1928 991 1647 
Q 1041 1438 1200 1131 
L 3531 3741 
z
M 3788 3419 
L 1466 819 
Q 1706 622 1909 544 
Q 2175 441 2484 441 
Q 3166 441 3609 922 
Q 4053 1403 4053 2272 
Q 4053 2922 3788 3419 
z
" transform="scale(0.015625)"/>
       <path id="ArialMT-4e" d="M 488 0 
L 488 4581 
L 1109 4581 
L 3516 984 
L 3516 4581 
L 4097 4581 
L 4097 0 
L 3475 0 
L 1069 3600 
L 1069 0 
L 488 0 
z
" transform="scale(0.015625)"/>
       <path id="ArialMT-75" d="M 2597 0 
L 2597 488 
Q 2209 -75 1544 -75 
Q 1250 -75 995 37 
Q 741 150 617 320 
Q 494 491 444 738 
Q 409 903 409 1263 
L 409 3319 
L 972 3319 
L 972 1478 
Q 972 1038 1006 884 
Q 1059 663 1231 536 
Q 1403 409 1656 409 
Q 1909 409 2131 539 
Q 2353 669 2445 892 
Q 2538 1116 2538 1541 
L 2538 3319 
L 3100 3319 
L 3100 0 
L 2597 0 
z
" transform="scale(0.015625)"/>
       <path id="ArialMT-6d" d="M 422 0 
L 422 3319 
L 925 3319 
L 925 2853 
Q 1081 3097 1340 3245 
Q 1600 3394 1931 3394 
Q 2300 3394 2536 3241 
Q 2772 3088 2869 2813 
Q 3263 3394 3894 3394 
Q 4388 3394 4653 3120 
Q 4919 2847 4919 2278 
L 4919 0 
L 4359 0 
L 4359 2091 
Q 4359 2428 4304 2576 
Q 4250 2725 4106 2815 
Q 3963 2906 3769 2906 
Q 3419 2906 3187 2673 
Q 2956 2441 2956 1928 
L 2956 0 
L 2394 0 
L 2394 2156 
Q 2394 2531 2256 2718 
Q 2119 2906 1806 2906 
Q 1569 2906 1367 2781 
Q 1166 2656 1075 2415 
Q 984 2175 984 1722 
L 984 0 
L 422 0 
z
" transform="scale(0.015625)"/>
       <path id="ArialMT-62" d="M 941 0 
L 419 0 
L 419 4581 
L 981 4581 
L 981 2947 
Q 1338 3394 1891 3394 
Q 2197 3394 2470 3270 
Q 2744 3147 2920 2923 
Q 3097 2700 3197 2384 
Q 3297 2069 3297 1709 
Q 3297 856 2875 390 
Q 2453 -75 1863 -75 
Q 1275 -75 941 416 
L 941 0 
z
M 934 1684 
Q 934 1088 1097 822 
Q 1363 388 1816 388 
Q 2184 388 2453 708 
Q 2722 1028 2722 1663 
Q 2722 2313 2464 2622 
Q 2206 2931 1841 2931 
Q 1472 2931 1203 2611 
Q 934 2291 934 1684 
z
" transform="scale(0.015625)"/>
       <path id="ArialMT-65" d="M 2694 1069 
L 3275 997 
Q 3138 488 2766 206 
Q 2394 -75 1816 -75 
Q 1088 -75 661 373 
Q 234 822 234 1631 
Q 234 2469 665 2931 
Q 1097 3394 1784 3394 
Q 2450 3394 2872 2941 
Q 3294 2488 3294 1666 
Q 3294 1616 3291 1516 
L 816 1516 
Q 847 969 1125 678 
Q 1403 388 1819 388 
Q 2128 388 2347 550 
Q 2566 713 2694 1069 
z
M 847 1978 
L 2700 1978 
Q 2663 2397 2488 2606 
Q 2219 2931 1791 2931 
Q 1403 2931 1139 2672 
Q 875 2413 847 1978 
z
" transform="scale(0.015625)"/>
       <path id="ArialMT-72" d="M 416 0 
L 416 3319 
L 922 3319 
L 922 2816 
Q 1116 3169 1280 3281 
Q 1444 3394 1641 3394 
Q 1925 3394 2219 3213 
L 2025 2691 
Q 1819 2813 1613 2813 
Q 1428 2813 1281 2702 
Q 1134 2591 1072 2394 
Q 978 2094 978 1738 
L 978 0 
L 416 0 
z
" transform="scale(0.015625)"/>
       <path id="ArialMT-66" d="M 556 0 
L 556 2881 
L 59 2881 
L 59 3319 
L 556 3319 
L 556 3672 
Q 556 4006 616 4169 
Q 697 4388 901 4523 
Q 1106 4659 1475 4659 
Q 1713 4659 2000 4603 
L 1916 4113 
Q 1741 4144 1584 4144 
Q 1328 4144 1222 4034 
Q 1116 3925 1116 3625 
L 1116 3319 
L 1763 3319 
L 1763 2881 
L 1116 2881 
L 1116 0 
L 556 0 
z
" transform="scale(0.015625)"/>
       <path id="ArialMT-53" d="M 288 1472 
L 859 1522 
Q 900 1178 1048 958 
Q 1197 738 1509 602 
Q 1822 466 2213 466 
Q 2559 466 2825 569 
Q 3091 672 3220 851 
Q 3350 1031 3350 1244 
Q 3350 1459 3225 1620 
Q 3100 1781 2813 1891 
Q 2628 1963 1997 2114 
Q 1366 2266 1113 2400 
Q 784 2572 623 2826 
Q 463 3081 463 3397 
Q 463 3744 659 4045 
Q 856 4347 1234 4503 
Q 1613 4659 2075 4659 
Q 2584 4659 2973 4495 
Q 3363 4331 3572 4012 
Q 3781 3694 3797 3291 
L 3216 3247 
Q 3169 3681 2898 3903 
Q 2628 4125 2100 4125 
Q 1550 4125 1298 3923 
Q 1047 3722 1047 3438 
Q 1047 3191 1225 3031 
Q 1400 2872 2139 2705 
Q 2878 2538 3153 2413 
Q 3553 2228 3743 1945 
Q 3934 1663 3934 1294 
Q 3934 928 3725 604 
Q 3516 281 3123 101 
Q 2731 -78 2241 -78 
Q 1619 -78 1198 103 
Q 778 284 539 648 
Q 300 1013 288 1472 
z
" transform="scale(0.015625)"/>
       <path id="ArialMT-68" d="M 422 0 
L 422 4581 
L 984 4581 
L 984 2938 
Q 1378 3394 1978 3394 
Q 2347 3394 2619 3248 
Q 2891 3103 3008 2847 
Q 3125 2591 3125 2103 
L 3125 0 
L 2563 0 
L 2563 2103 
Q 2563 2525 2380 2717 
Q 2197 2909 1863 2909 
Q 1613 2909 1392 2779 
Q 1172 2650 1078 2428 
Q 984 2206 984 1816 
L 984 0 
L 422 0 
z
" transform="scale(0.015625)"/>
       <path id="ArialMT-74" d="M 1650 503 
L 1731 6 
Q 1494 -44 1306 -44 
Q 1000 -44 831 53 
Q 663 150 594 308 
Q 525 466 525 972 
L 525 2881 
L 113 2881 
L 113 3319 
L 525 3319 
L 525 4141 
L 1084 4478 
L 1084 3319 
L 1650 3319 
L 1650 2881 
L 1084 2881 
L 1084 941 
Q 1084 700 1114 631 
Q 1144 563 1211 522 
Q 1278 481 1403 481 
Q 1497 481 1650 503 
z
" transform="scale(0.015625)"/>
       <path id="ArialMT-43" d="M 3763 1606 
L 4369 1453 
Q 4178 706 3683 314 
Q 3188 -78 2472 -78 
Q 1731 -78 1267 223 
Q 803 525 561 1097 
Q 319 1669 319 2325 
Q 319 3041 592 3573 
Q 866 4106 1370 4382 
Q 1875 4659 2481 4659 
Q 3169 4659 3637 4309 
Q 4106 3959 4291 3325 
L 3694 3184 
Q 3534 3684 3231 3912 
Q 2928 4141 2469 4141 
Q 1941 4141 1586 3887 
Q 1231 3634 1087 3207 
Q 944 2781 944 2328 
Q 944 1744 1114 1308 
Q 1284 872 1643 656 
Q 2003 441 2422 441 
Q 2931 441 3284 734 
Q 3638 1028 3763 1606 
z
" transform="scale(0.015625)"/>
       <path id="ArialMT-61" d="M 2588 409 
Q 2275 144 1986 34 
Q 1697 -75 1366 -75 
Q 819 -75 525 192 
Q 231 459 231 875 
Q 231 1119 342 1320 
Q 453 1522 633 1644 
Q 813 1766 1038 1828 
Q 1203 1872 1538 1913 
Q 2219 1994 2541 2106 
Q 2544 2222 2544 2253 
Q 2544 2597 2384 2738 
Q 2169 2928 1744 2928 
Q 1347 2928 1158 2789 
Q 969 2650 878 2297 
L 328 2372 
Q 403 2725 575 2942 
Q 747 3159 1072 3276 
Q 1397 3394 1825 3394 
Q 2250 3394 2515 3294 
Q 2781 3194 2906 3042 
Q 3031 2891 3081 2659 
Q 3109 2516 3109 2141 
L 3109 1391 
Q 3109 606 3145 398 
Q 3181 191 3288 0 
L 2700 0 
Q 2613 175 2588 409 
z
M 2541 1666 
Q 2234 1541 1622 1453 
Q 1275 1403 1131 1340 
Q 988 1278 909 1158 
Q 831 1038 831 891 
Q 831 666 1001 516 
Q 1172 366 1500 366 
Q 1825 366 2078 508 
Q 2331 650 2450 897 
Q 2541 1088 2541 1459 
L 2541 1666 
z
" transform="scale(0.015625)"/>
       <path id="ArialMT-67" d="M 319 -275 
L 866 -356 
Q 900 -609 1056 -725 
Q 1266 -881 1628 -881 
Q 2019 -881 2231 -725 
Q 2444 -569 2519 -288 
Q 2563 -116 2559 434 
Q 2191 0 1641 0 
Q 956 0 581 494 
Q 206 988 206 1678 
Q 206 2153 378 2554 
Q 550 2956 876 3175 
Q 1203 3394 1644 3394 
Q 2231 3394 2613 2919 
L 2613 3319 
L 3131 3319 
L 3131 450 
Q 3131 -325 2973 -648 
Q 2816 -972 2473 -1159 
Q 2131 -1347 1631 -1347 
Q 1038 -1347 672 -1080 
Q 306 -813 319 -275 
z
M 784 1719 
Q 784 1066 1043 766 
Q 1303 466 1694 466 
Q 2081 466 2343 764 
Q 2606 1063 2606 1700 
Q 2606 2309 2336 2618 
Q 2066 2928 1684 2928 
Q 1309 2928 1046 2623 
Q 784 2319 784 1719 
z
" transform="scale(0.015625)"/>
      </defs>
      <use xlink:href="#ArialMT-d8"/>
      <use xlink:href="#ArialMT-20" x="77.783203"/>
      <use xlink:href="#ArialMT-4e" x="105.566406"/>
      <use xlink:href="#ArialMT-75" x="177.783203"/>
      <use xlink:href="#ArialMT-6d" x="233.398438"/>
      <use xlink:href="#ArialMT-62" x="316.699219"/>
      <use xlink:href="#ArialMT-65" x="372.314453"/>
      <use xlink:href="#ArialMT-72" x="427.929688"/>
      <use xlink:href="#ArialMT-20" x="461.230469"/>
      <use xlink:href="#ArialMT-6f" x="489.013672"/>
      <use xlink:href="#ArialMT-66" x="544.628906"/>
      <use xlink:href="#ArialMT-20" x="572.412109"/>
      <use xlink:href="#ArialMT-53" x="600.195312"/>
      <use xlink:href="#ArialMT-68" x="666.894531"/>
      <use xlink:href="#ArialMT-69" x="722.509766"/>
      <use xlink:href="#ArialMT-66" x="744.726562"/>
      <use xlink:href="#ArialMT-74" x="772.509766"/>
      <use xlink:href="#ArialMT-20" x="800.292969"/>
      <use xlink:href="#ArialMT-43" x="828.076172"/>
      <use xlink:href="#ArialMT-68" x="900.292969"/>
      <use xlink:href="#ArialMT-61" x="955.908203"/>
      <use xlink:href="#ArialMT-6e" x="1011.523438"/>
      <use xlink:href="#ArialMT-67" x="1067.138672"/>
      <use xlink:href="#ArialMT-65" x="1122.753906"/>
      <use xlink:href="#ArialMT-73" x="1178.369141"/>
     </g>
    </g>
   </g>
   <g id="PathCollection_1">
    <defs>
     <path id="mbbadbc9524" d="M 0 3 
C 0.795609 3 1.55874 2.683901 2.12132 2.12132 
C 2.683901 1.55874 3 0.795609 3 0 
C 3 -0.795609 2.683901 -1.55874 2.12132 -2.12132 
C 1.55874 -2.683901 0.795609 -3 0 -3 
C -0.795609 -3 -1.55874 -2.683901 -2.12132 -2.12132 
C -2.683901 -1.55874 -3 -0.795609 -3 0 
C -3 0.795609 -2.683901 1.55874 -2.12132 2.12132 
C -1.55874 2.683901 -0.795609 3 0 3 
z
" style="stroke: #ffffff; stroke-width: 0.48"/>
    </defs>
    <g clip-path="url(#p7a7df051fd)">
     <use xlink:href="#mbbadbc9524" x="49.827921" y="57.667118" style="fill: #000004; stroke: #ffffff; stroke-width: 0.48"/>
     <use xlink:href="#mbbadbc9524" x="49.827921" y="50.372821" style="fill: #000004; stroke: #ffffff; stroke-width: 0.48"/>
     <use xlink:href="#mbbadbc9524" x="49.827921" y="24.479366" style="fill: #000004; stroke: #ffffff; stroke-width: 0.48"/>
     <use xlink:href="#mbbadbc9524" x="49.827921" y="32.201976" style="fill: #000004; stroke: #ffffff; stroke-width: 0.48"/>
     <use xlink:href="#mbbadbc9524" x="49.827921" y="55.759179" style="fill: #000004; stroke: #ffffff; stroke-width: 0.48"/>
     <use xlink:href="#mbbadbc9524" x="191.512704" y="247.37464" style="fill: #000004; stroke: #ffffff; stroke-width: 0.48"/>
     <use xlink:href="#mbbadbc9524" x="191.512704" y="259.441379" style="fill: #000004; stroke: #ffffff; stroke-width: 0.48"/>
     <use xlink:href="#mbbadbc9524" x="191.512704" y="281.352175" style="fill: #000004; stroke: #ffffff; stroke-width: 0.48"/>
     <use xlink:href="#mbbadbc9524" x="191.512704" y="283.292561" style="fill: #000004; stroke: #ffffff; stroke-width: 0.48"/>
     <use xlink:href="#mbbadbc9524" x="191.512704" y="284.134261" style="fill: #000004; stroke: #ffffff; stroke-width: 0.48"/>
     <use xlink:href="#mbbadbc9524" x="333.197486" y="238.064678" style="fill: #000004; stroke: #ffffff; stroke-width: 0.48"/>
     <use xlink:href="#mbbadbc9524" x="333.197486" y="267.235374" style="fill: #000004; stroke: #ffffff; stroke-width: 0.48"/>
     <use xlink:href="#mbbadbc9524" x="333.197486" y="281.538426" style="fill: #000004; stroke: #ffffff; stroke-width: 0.48"/>
     <use xlink:href="#mbbadbc9524" x="333.197486" y="285.695656" style="fill: #000004; stroke: #ffffff; stroke-width: 0.48"/>
     <use xlink:href="#mbbadbc9524" x="333.197486" y="287.68731" style="fill: #000004; stroke: #ffffff; stroke-width: 0.48"/>
     <use xlink:href="#mbbadbc9524" x="474.882269" y="249.174203" style="fill: #000004; stroke: #ffffff; stroke-width: 0.48"/>
     <use xlink:href="#mbbadbc9524" x="474.882269" y="265.224251" style="fill: #000004; stroke: #ffffff; stroke-width: 0.48"/>
     <use xlink:href="#mbbadbc9524" x="474.882269" y="288.5037" style="fill: #000004; stroke: #ffffff; stroke-width: 0.48"/>
     <use xlink:href="#mbbadbc9524" x="474.882269" y="294.054894" style="fill: #000004; stroke: #ffffff; stroke-width: 0.48"/>
     <use xlink:href="#mbbadbc9524" x="474.882269" y="295.860297" style="fill: #000004; stroke: #ffffff; stroke-width: 0.48"/>
     <use xlink:href="#mbbadbc9524" x="616.567052" y="244.759985" style="fill: #000004; stroke: #ffffff; stroke-width: 0.48"/>
     <use xlink:href="#mbbadbc9524" x="616.567052" y="276.301977" style="fill: #000004; stroke: #ffffff; stroke-width: 0.48"/>
     <use xlink:href="#mbbadbc9524" x="616.567052" y="297.190662" style="fill: #000004; stroke: #ffffff; stroke-width: 0.48"/>
     <use xlink:href="#mbbadbc9524" x="616.567052" y="299.908502" style="fill: #000004; stroke: #ffffff; stroke-width: 0.48"/>
     <use xlink:href="#mbbadbc9524" x="616.567052" y="306.860797" style="fill: #000004; stroke: #ffffff; stroke-width: 0.48"/>
     <use xlink:href="#mbbadbc9524" x="758.251834" y="250.452652" style="fill: #000004; stroke: #ffffff; stroke-width: 0.48"/>
     <use xlink:href="#mbbadbc9524" x="758.251834" y="280.439738" style="fill: #000004; stroke: #ffffff; stroke-width: 0.48"/>
     <use xlink:href="#mbbadbc9524" x="758.251834" y="308.06202" style="fill: #000004; stroke: #ffffff; stroke-width: 0.48"/>
     <use xlink:href="#mbbadbc9524" x="758.251834" y="317.19871" style="fill: #000004; stroke: #ffffff; stroke-width: 0.48"/>
     <use xlink:href="#mbbadbc9524" x="758.251834" y="328.391951" style="fill: #000004; stroke: #ffffff; stroke-width: 0.48"/>
    </g>
   </g>
   <g id="PathCollection_2">
    <defs>
     <path id="m8a040487d2" d="M -3 3 
L 3 3 
L 3 -3 
L -3 -3 
z
" style="stroke: #ffffff; stroke-width: 0.48"/>
    </defs>
    <g clip-path="url(#p7a7df051fd)">
     <use xlink:href="#m8a040487d2" x="49.827921" y="42.325733" style="fill: #000004; stroke: #ffffff; stroke-width: 0.48"/>
     <use xlink:href="#m8a040487d2" x="49.827921" y="42.325733" style="fill: #000004; stroke: #ffffff; stroke-width: 0.48"/>
     <use xlink:href="#m8a040487d2" x="49.827921" y="42.325733" style="fill: #000004; stroke: #ffffff; stroke-width: 0.48"/>
     <use xlink:href="#m8a040487d2" x="49.827921" y="42.325733" style="fill: #000004; stroke: #ffffff; stroke-width: 0.48"/>
     <use xlink:href="#m8a040487d2" x="49.827921" y="42.325733" style="fill: #000004; stroke: #ffffff; stroke-width: 0.48"/>
     <use xlink:href="#m8a040487d2" x="191.512704" y="42.325733" style="fill: #000004; stroke: #ffffff; stroke-width: 0.48"/>
     <use xlink:href="#m8a040487d2" x="191.512704" y="42.325733" style="fill: #000004; stroke: #ffffff; stroke-width: 0.48"/>
     <use xlink:href="#m8a040487d2" x="191.512704" y="42.325733" style="fill: #000004; stroke: #ffffff; stroke-width: 0.48"/>
     <use xlink:href="#m8a040487d2" x="191.512704" y="42.325733" style="fill: #000004; stroke: #ffffff; stroke-width: 0.48"/>
     <use xlink:href="#m8a040487d2" x="191.512704" y="42.325733" style="fill: #000004; stroke: #ffffff; stroke-width: 0.48"/>
     <use xlink:href="#m8a040487d2" x="333.197486" y="42.325733" style="fill: #000004; stroke: #ffffff; stroke-width: 0.48"/>
     <use xlink:href="#m8a040487d2" x="333.197486" y="42.325733" style="fill: #000004; stroke: #ffffff; stroke-width: 0.48"/>
     <use xlink:href="#m8a040487d2" x="333.197486" y="42.325733" style="fill: #000004; stroke: #ffffff; stroke-width: 0.48"/>
     <use xlink:href="#m8a040487d2" x="333.197486" y="42.325733" style="fill: #000004; stroke: #ffffff; stroke-width: 0.48"/>
     <use xlink:href="#m8a040487d2" x="333.197486" y="42.325733" style="fill: #000004; stroke: #ffffff; stroke-width: 0.48"/>
     <use xlink:href="#m8a040487d2" x="474.882269" y="42.325733" style="fill: #000004; stroke: #ffffff; stroke-width: 0.48"/>
     <use xlink:href="#m8a040487d2" x="474.882269" y="42.325733" style="fill: #000004; stroke: #ffffff; stroke-width: 0.48"/>
     <use xlink:href="#m8a040487d2" x="474.882269" y="42.325733" style="fill: #000004; stroke: #ffffff; stroke-width: 0.48"/>
     <use xlink:href="#m8a040487d2" x="474.882269" y="42.325733" style="fill: #000004; stroke: #ffffff; stroke-width: 0.48"/>
     <use xlink:href="#m8a040487d2" x="474.882269" y="42.325733" style="fill: #000004; stroke: #ffffff; stroke-width: 0.48"/>
     <use xlink:href="#m8a040487d2" x="616.567052" y="42.325733" style="fill: #000004; stroke: #ffffff; stroke-width: 0.48"/>
     <use xlink:href="#m8a040487d2" x="616.567052" y="42.325733" style="fill: #000004; stroke: #ffffff; stroke-width: 0.48"/>
     <use xlink:href="#m8a040487d2" x="616.567052" y="42.325733" style="fill: #000004; stroke: #ffffff; stroke-width: 0.48"/>
     <use xlink:href="#m8a040487d2" x="616.567052" y="42.325733" style="fill: #000004; stroke: #ffffff; stroke-width: 0.48"/>
     <use xlink:href="#m8a040487d2" x="616.567052" y="42.325733" style="fill: #000004; stroke: #ffffff; stroke-width: 0.48"/>
     <use xlink:href="#m8a040487d2" x="758.251834" y="42.325733" style="fill: #000004; stroke: #ffffff; stroke-width: 0.48"/>
     <use xlink:href="#m8a040487d2" x="758.251834" y="42.325733" style="fill: #000004; stroke: #ffffff; stroke-width: 0.48"/>
     <use xlink:href="#m8a040487d2" x="758.251834" y="42.325733" style="fill: #000004; stroke: #ffffff; stroke-width: 0.48"/>
     <use xlink:href="#m8a040487d2" x="758.251834" y="42.325733" style="fill: #000004; stroke: #ffffff; stroke-width: 0.48"/>
     <use xlink:href="#m8a040487d2" x="758.251834" y="42.325733" style="fill: #000004; stroke: #ffffff; stroke-width: 0.48"/>
    </g>
   </g>
   <g id="PolyCollection_1">
    <defs>
     <path id="m002e4d7b18" d="M 49.827921 -281.880703 
L 49.827921 -161.591423 
L 56.983718 -160.742684 
L 64.139515 -159.893945 
L 71.295312 -159.045206 
L 78.45111 -158.198313 
L 85.606907 -157.354757 
L 92.762704 -156.511202 
L 99.918501 -155.640214 
L 107.074298 -154.568988 
L 114.230095 -153.497762 
L 121.385892 -152.672463 
L 128.541689 -151.742808 
L 135.697486 -150.763988 
L 142.853284 -149.785167 
L 150.009081 -148.806347 
L 157.164878 -147.781632 
L 164.320675 -146.739899 
L 171.476472 -145.698167 
L 178.632269 -144.656434 
L 185.788066 -143.616352 
L 192.943863 -142.582037 
L 200.09966 -141.550418 
L 207.255457 -140.651489 
L 214.411255 -139.968784 
L 221.567052 -139.045809 
L 228.722849 -138.06792 
L 235.878646 -137.090031 
L 243.034443 -136.117237 
L 250.19024 -135.095272 
L 257.346037 -133.898219 
L 264.501834 -132.625066 
L 271.657631 -131.759733 
L 278.813428 -130.902784 
L 285.969226 -129.937914 
L 293.125023 -128.909396 
L 300.28082 -127.880877 
L 307.436617 -126.852359 
L 314.592414 -125.824495 
L 321.748211 -124.801344 
L 328.904008 -123.964935 
L 336.059805 -123.209162 
L 343.215602 -122.446021 
L 350.371399 -121.33205 
L 357.527197 -119.69918 
L 364.682994 -118.766416 
L 371.838791 -118.009354 
L 378.994588 -117.35413 
L 386.150385 -116.35922 
L 393.306182 -114.840013 
L 400.461979 -113.761505 
L 407.617776 -112.883859 
L 414.773573 -111.74626 
L 421.92937 -110.833936 
L 429.085168 -109.624978 
L 436.240965 -108.265344 
L 443.396762 -107.266915 
L 450.552559 -105.633622 
L 457.708356 -104.172599 
L 464.864153 -103.00512 
L 472.01995 -101.564896 
L 479.175747 -100.103519 
L 486.331544 -98.392313 
L 493.487341 -96.378992 
L 500.643139 -94.699989 
L 507.798936 -92.752713 
L 514.954733 -90.510566 
L 522.11053 -88.274803 
L 529.266327 -85.972162 
L 536.422124 -83.667814 
L 543.577921 -81.361213 
L 550.733718 -79.317675 
L 557.889515 -77.215411 
L 565.045312 -75.098654 
L 572.20111 -72.62543 
L 579.356907 -70.369785 
L 586.512704 -67.997618 
L 593.668501 -65.675236 
L 600.824298 -63.365628 
L 607.980095 -61.05348 
L 615.135892 -58.738886 
L 622.291689 -56.106815 
L 629.447486 -53.73167 
L 636.603284 -51.172534 
L 643.759081 -48.447854 
L 650.914878 -45.732697 
L 658.070675 -43.417915 
L 665.226472 -41.098105 
L 672.382269 -38.682128 
L 679.538066 -36.038083 
L 686.693863 -34.165853 
L 693.84966 -31.85606 
L 701.005457 -29.522688 
L 708.161255 -26.958259 
L 715.317052 -24.70252 
L 722.472849 -22.434614 
L 729.628646 -19.99799 
L 736.784443 -17.760899 
L 743.94024 -15.52614 
L 751.096037 -13.03155 
L 758.251834 -10.513148 
L 758.251834 -75.088289 
L 758.251834 -75.088289 
L 751.096037 -76.158289 
L 743.94024 -77.231805 
L 736.784443 -78.285705 
L 729.628646 -79.372231 
L 722.472849 -80.443871 
L 715.317052 -81.515511 
L 708.161255 -82.690333 
L 701.005457 -83.65743 
L 693.84966 -85.016563 
L 686.693863 -86.220547 
L 679.538066 -87.339897 
L 672.382269 -88.769681 
L 665.226472 -90.088344 
L 658.070675 -91.371644 
L 650.914878 -92.763105 
L 643.759081 -94.133814 
L 636.603284 -95.635955 
L 629.447486 -97.110069 
L 622.291689 -99.00223 
L 615.135892 -100.281077 
L 607.980095 -102.059218 
L 600.824298 -103.778551 
L 593.668501 -105.462824 
L 586.512704 -107.316938 
L 579.356907 -109.052995 
L 572.20111 -110.859254 
L 565.045312 -112.622125 
L 557.889515 -114.398708 
L 550.733718 -116.332647 
L 543.577921 -118.166785 
L 536.422124 -120.271854 
L 529.266327 -122.349224 
L 522.11053 -124.569732 
L 514.954733 -126.494749 
L 507.798936 -128.81482 
L 500.643139 -130.928909 
L 493.487341 -132.860322 
L 486.331544 -134.778668 
L 479.175747 -136.695266 
L 472.01995 -138.595829 
L 464.864153 -140.757964 
L 457.708356 -142.920768 
L 450.552559 -145.059526 
L 443.396762 -147.492723 
L 436.240965 -149.696768 
L 429.085168 -151.683319 
L 421.92937 -153.981487 
L 414.773573 -156.434781 
L 407.617776 -158.75082 
L 400.461979 -161.270614 
L 393.306182 -163.715825 
L 386.150385 -166.095959 
L 378.994588 -168.360027 
L 371.838791 -170.512211 
L 364.682994 -173.04294 
L 357.527197 -175.504886 
L 350.371399 -178.038187 
L 343.215602 -180.502266 
L 336.059805 -183.000443 
L 328.904008 -185.447527 
L 321.748211 -187.56081 
L 314.592414 -190.017833 
L 307.436617 -192.598692 
L 300.28082 -195.012359 
L 293.125023 -197.275711 
L 285.969226 -199.41887 
L 278.813428 -201.883451 
L 271.657631 -204.163653 
L 264.501834 -206.623215 
L 257.346037 -208.898808 
L 250.19024 -211.167243 
L 243.034443 -213.799421 
L 235.878646 -216.157002 
L 228.722849 -218.43357 
L 221.567052 -220.789665 
L 214.411255 -223.223454 
L 207.255457 -225.331937 
L 200.09966 -228.250527 
L 192.943863 -231.216821 
L 185.788066 -233.823334 
L 178.632269 -236.423924 
L 171.476472 -239.024513 
L 164.320675 -241.63282 
L 157.164878 -244.237235 
L 150.009081 -246.834588 
L 142.853284 -249.241341 
L 135.697486 -251.599837 
L 128.541689 -254.013054 
L 121.385892 -256.565169 
L 114.230095 -259.164176 
L 107.074298 -261.763183 
L 99.918501 -264.36219 
L 92.762704 -266.863271 
L 85.606907 -269.520136 
L 78.45111 -272.170219 
L 71.295312 -274.639188 
L 64.139515 -277.049505 
L 56.983718 -279.282723 
L 49.827921 -281.880703 
z
" style="stroke: #ffffff; stroke-opacity: 0.15"/>
    </defs>
    <g clip-path="url(#p7a7df051fd)">
     <use xlink:href="#m002e4d7b18" x="0" y="380.579844" style="fill: #000004; fill-opacity: 0.15; stroke: #ffffff; stroke-opacity: 0.15"/>
    </g>
   </g>
   <g id="PolyCollection_2">
    <defs>
     <path id="m1bd0c4b604" d="M 49.827921 -338.254111 
L 49.827921 -338.254111 
L 56.983718 -338.254111 
L 64.139515 -338.254111 
L 71.295312 -338.254111 
L 78.45111 -338.254111 
L 85.606907 -338.254111 
L 92.762704 -338.254111 
L 99.918501 -338.254111 
L 107.074298 -338.254111 
L 114.230095 -338.254111 
L 121.385892 -338.254111 
L 128.541689 -338.254111 
L 135.697486 -338.254111 
L 142.853284 -338.254111 
L 150.009081 -338.254111 
L 157.164878 -338.254111 
L 164.320675 -338.254111 
L 171.476472 -338.254111 
L 178.632269 -338.254111 
L 185.788066 -338.254111 
L 192.943863 -338.254111 
L 200.09966 -338.254111 
L 207.255457 -338.254111 
L 214.411255 -338.254111 
L 221.567052 -338.254111 
L 228.722849 -338.254111 
L 235.878646 -338.254111 
L 243.034443 -338.254111 
L 250.19024 -338.254111 
L 257.346037 -338.254111 
L 264.501834 -338.254111 
L 271.657631 -338.254111 
L 278.813428 -338.254111 
L 285.969226 -338.254111 
L 293.125023 -338.254111 
L 300.28082 -338.254111 
L 307.436617 -338.254111 
L 314.592414 -338.254111 
L 321.748211 -338.254111 
L 328.904008 -338.254111 
L 336.059805 -338.254111 
L 343.215602 -338.254111 
L 350.371399 -338.254111 
L 357.527197 -338.254111 
L 364.682994 -338.254111 
L 371.838791 -338.254111 
L 378.994588 -338.254111 
L 386.150385 -338.254111 
L 393.306182 -338.254111 
L 400.461979 -338.254111 
L 407.617776 -338.254111 
L 414.773573 -338.254111 
L 421.92937 -338.254111 
L 429.085168 -338.254111 
L 436.240965 -338.254111 
L 443.396762 -338.254111 
L 450.552559 -338.254111 
L 457.708356 -338.254111 
L 464.864153 -338.254111 
L 472.01995 -338.254111 
L 479.175747 -338.254111 
L 486.331544 -338.254111 
L 493.487341 -338.254111 
L 500.643139 -338.254111 
L 507.798936 -338.254111 
L 514.954733 -338.254111 
L 522.11053 -338.254111 
L 529.266327 -338.254111 
L 536.422124 -338.254111 
L 543.577921 -338.254111 
L 550.733718 -338.254111 
L 557.889515 -338.254111 
L 565.045312 -338.254111 
L 572.20111 -338.254111 
L 579.356907 -338.254111 
L 586.512704 -338.254111 
L 593.668501 -338.254111 
L 600.824298 -338.254111 
L 607.980095 -338.254111 
L 615.135892 -338.254111 
L 622.291689 -338.254111 
L 629.447486 -338.254111 
L 636.603284 -338.254111 
L 643.759081 -338.254111 
L 650.914878 -338.254111 
L 658.070675 -338.254111 
L 665.226472 -338.254111 
L 672.382269 -338.254111 
L 679.538066 -338.254111 
L 686.693863 -338.254111 
L 693.84966 -338.254111 
L 701.005457 -338.254111 
L 708.161255 -338.254111 
L 715.317052 -338.254111 
L 722.472849 -338.254111 
L 729.628646 -338.254111 
L 736.784443 -338.254111 
L 743.94024 -338.254111 
L 751.096037 -338.254111 
L 758.251834 -338.254111 
L 758.251834 -338.254111 
L 758.251834 -338.254111 
L 751.096037 -338.254111 
L 743.94024 -338.254111 
L 736.784443 -338.254111 
L 729.628646 -338.254111 
L 722.472849 -338.254111 
L 715.317052 -338.254111 
L 708.161255 -338.254111 
L 701.005457 -338.254111 
L 693.84966 -338.254111 
L 686.693863 -338.254111 
L 679.538066 -338.254111 
L 672.382269 -338.254111 
L 665.226472 -338.254111 
L 658.070675 -338.254111 
L 650.914878 -338.254111 
L 643.759081 -338.254111 
L 636.603284 -338.254111 
L 629.447486 -338.254111 
L 622.291689 -338.254111 
L 615.135892 -338.254111 
L 607.980095 -338.254111 
L 600.824298 -338.254111 
L 593.668501 -338.254111 
L 586.512704 -338.254111 
L 579.356907 -338.254111 
L 572.20111 -338.254111 
L 565.045312 -338.254111 
L 557.889515 -338.254111 
L 550.733718 -338.254111 
L 543.577921 -338.254111 
L 536.422124 -338.254111 
L 529.266327 -338.254111 
L 522.11053 -338.254111 
L 514.954733 -338.254111 
L 507.798936 -338.254111 
L 500.643139 -338.254111 
L 493.487341 -338.254111 
L 486.331544 -338.254111 
L 479.175747 -338.254111 
L 472.01995 -338.254111 
L 464.864153 -338.254111 
L 457.708356 -338.254111 
L 450.552559 -338.254111 
L 443.396762 -338.254111 
L 436.240965 -338.254111 
L 429.085168 -338.254111 
L 421.92937 -338.254111 
L 414.773573 -338.254111 
L 407.617776 -338.254111 
L 400.461979 -338.254111 
L 393.306182 -338.254111 
L 386.150385 -338.254111 
L 378.994588 -338.254111 
L 371.838791 -338.254111 
L 364.682994 -338.254111 
L 357.527197 -338.254111 
L 350.371399 -338.254111 
L 343.215602 -338.254111 
L 336.059805 -338.254111 
L 328.904008 -338.254111 
L 321.748211 -338.254111 
L 314.592414 -338.254111 
L 307.436617 -338.254111 
L 300.28082 -338.254111 
L 293.125023 -338.254111 
L 285.969226 -338.254111 
L 278.813428 -338.254111 
L 271.657631 -338.254111 
L 264.501834 -338.254111 
L 257.346037 -338.254111 
L 250.19024 -338.254111 
L 243.034443 -338.254111 
L 235.878646 -338.254111 
L 228.722849 -338.254111 
L 221.567052 -338.254111 
L 214.411255 -338.254111 
L 207.255457 -338.254111 
L 200.09966 -338.254111 
L 192.943863 -338.254111 
L 185.788066 -338.254111 
L 178.632269 -338.254111 
L 171.476472 -338.254111 
L 164.320675 -338.254111 
L 157.164878 -338.254111 
L 150.009081 -338.254111 
L 142.853284 -338.254111 
L 135.697486 -338.254111 
L 128.541689 -338.254111 
L 121.385892 -338.254111 
L 114.230095 -338.254111 
L 107.074298 -338.254111 
L 99.918501 -338.254111 
L 92.762704 -338.254111 
L 85.606907 -338.254111 
L 78.45111 -338.254111 
L 71.295312 -338.254111 
L 64.139515 -338.254111 
L 56.983718 -338.254111 
L 49.827921 -338.254111 
z
" style="stroke: #ffffff; stroke-opacity: 0.15"/>
    </defs>
    <g clip-path="url(#p7a7df051fd)">
     <use xlink:href="#m1bd0c4b604" x="0" y="380.579844" style="fill: #000004; fill-opacity: 0.15; stroke: #ffffff; stroke-opacity: 0.15"/>
    </g>
   </g>
   <g id="PathCollection_3">
    <defs>
     <path id="ma61fcab8da" d="M 0 3 
C 0.795609 3 1.55874 2.683901 2.12132 2.12132 
C 2.683901 1.55874 3 0.795609 3 0 
C 3 -0.795609 2.683901 -1.55874 2.12132 -2.12132 
C 1.55874 -2.683901 0.795609 -3 0 -3 
C -0.795609 -3 -1.55874 -2.683901 -2.12132 -2.12132 
C -2.683901 -1.55874 -3 -0.795609 -3 0 
C -3 0.795609 -2.683901 1.55874 -2.12132 2.12132 
C -1.55874 2.683901 -0.795609 3 0 3 
z
" style="stroke: #ffffff; stroke-width: 0.48"/>
    </defs>
    <g clip-path="url(#p7a7df051fd)">
     <use xlink:href="#ma61fcab8da" x="49.827921" y="57.667118" style="fill: #331067; stroke: #ffffff; stroke-width: 0.48"/>
     <use xlink:href="#ma61fcab8da" x="191.512704" y="247.37464" style="fill: #331067; stroke: #ffffff; stroke-width: 0.48"/>
     <use xlink:href="#ma61fcab8da" x="333.197486" y="238.064678" style="fill: #331067; stroke: #ffffff; stroke-width: 0.48"/>
     <use xlink:href="#ma61fcab8da" x="474.882269" y="249.174203" style="fill: #331067; stroke: #ffffff; stroke-width: 0.48"/>
     <use xlink:href="#ma61fcab8da" x="616.567052" y="244.759985" style="fill: #331067; stroke: #ffffff; stroke-width: 0.48"/>
     <use xlink:href="#ma61fcab8da" x="758.251834" y="250.452652" style="fill: #331067; stroke: #ffffff; stroke-width: 0.48"/>
    </g>
   </g>
   <g id="PathCollection_4">
    <defs>
     <path id="mb55a32d0d6" d="M -3 3 
L 3 3 
L 3 -3 
L -3 -3 
z
" style="stroke: #ffffff; stroke-width: 0.48"/>
    </defs>
    <g clip-path="url(#p7a7df051fd)">
     <use xlink:href="#mb55a32d0d6" x="49.827921" y="42.325733" style="fill: #331067; stroke: #ffffff; stroke-width: 0.48"/>
     <use xlink:href="#mb55a32d0d6" x="191.512704" y="42.325733" style="fill: #331067; stroke: #ffffff; stroke-width: 0.48"/>
     <use xlink:href="#mb55a32d0d6" x="333.197486" y="42.325733" style="fill: #331067; stroke: #ffffff; stroke-width: 0.48"/>
     <use xlink:href="#mb55a32d0d6" x="474.882269" y="42.325733" style="fill: #331067; stroke: #ffffff; stroke-width: 0.48"/>
     <use xlink:href="#mb55a32d0d6" x="616.567052" y="42.325733" style="fill: #331067; stroke: #ffffff; stroke-width: 0.48"/>
     <use xlink:href="#mb55a32d0d6" x="758.251834" y="42.325733" style="fill: #331067; stroke: #ffffff; stroke-width: 0.48"/>
    </g>
   </g>
   <g id="PathCollection_5">
    <defs>
     <path id="madced3b67e" d="M 0 3 
C 0.795609 3 1.55874 2.683901 2.12132 2.12132 
C 2.683901 1.55874 3 0.795609 3 0 
C 3 -0.795609 2.683901 -1.55874 2.12132 -2.12132 
C 1.55874 -2.683901 0.795609 -3 0 -3 
C -0.795609 -3 -1.55874 -2.683901 -2.12132 -2.12132 
C -2.683901 -1.55874 -3 -0.795609 -3 0 
C -3 0.795609 -2.683901 1.55874 -2.12132 2.12132 
C -1.55874 2.683901 -0.795609 3 0 3 
z
" style="stroke: #ffffff; stroke-width: 0.48"/>
    </defs>
    <g clip-path="url(#p7a7df051fd)">
     <use xlink:href="#madced3b67e" x="49.827921" y="50.372821" style="fill: #7c2382; stroke: #ffffff; stroke-width: 0.48"/>
     <use xlink:href="#madced3b67e" x="191.512704" y="259.441379" style="fill: #7c2382; stroke: #ffffff; stroke-width: 0.48"/>
     <use xlink:href="#madced3b67e" x="333.197486" y="267.235374" style="fill: #7c2382; stroke: #ffffff; stroke-width: 0.48"/>
     <use xlink:href="#madced3b67e" x="474.882269" y="265.224251" style="fill: #7c2382; stroke: #ffffff; stroke-width: 0.48"/>
     <use xlink:href="#madced3b67e" x="616.567052" y="276.301977" style="fill: #7c2382; stroke: #ffffff; stroke-width: 0.48"/>
     <use xlink:href="#madced3b67e" x="758.251834" y="280.439738" style="fill: #7c2382; stroke: #ffffff; stroke-width: 0.48"/>
    </g>
   </g>
   <g id="PathCollection_6">
    <defs>
     <path id="m3ed6128b3b" d="M -3 3 
L 3 3 
L 3 -3 
L -3 -3 
z
" style="stroke: #ffffff; stroke-width: 0.48"/>
    </defs>
    <g clip-path="url(#p7a7df051fd)">
     <use xlink:href="#m3ed6128b3b" x="49.827921" y="42.325733" style="fill: #7c2382; stroke: #ffffff; stroke-width: 0.48"/>
     <use xlink:href="#m3ed6128b3b" x="191.512704" y="42.325733" style="fill: #7c2382; stroke: #ffffff; stroke-width: 0.48"/>
     <use xlink:href="#m3ed6128b3b" x="333.197486" y="42.325733" style="fill: #7c2382; stroke: #ffffff; stroke-width: 0.48"/>
     <use xlink:href="#m3ed6128b3b" x="474.882269" y="42.325733" style="fill: #7c2382; stroke: #ffffff; stroke-width: 0.48"/>
     <use xlink:href="#m3ed6128b3b" x="616.567052" y="42.325733" style="fill: #7c2382; stroke: #ffffff; stroke-width: 0.48"/>
     <use xlink:href="#m3ed6128b3b" x="758.251834" y="42.325733" style="fill: #7c2382; stroke: #ffffff; stroke-width: 0.48"/>
    </g>
   </g>
   <g id="PathCollection_7">
    <defs>
     <path id="m69fc1eab30" d="M 0 3 
C 0.795609 3 1.55874 2.683901 2.12132 2.12132 
C 2.683901 1.55874 3 0.795609 3 0 
C 3 -0.795609 2.683901 -1.55874 2.12132 -2.12132 
C 1.55874 -2.683901 0.795609 -3 0 -3 
C -0.795609 -3 -1.55874 -2.683901 -2.12132 -2.12132 
C -2.683901 -1.55874 -3 -0.795609 -3 0 
C -3 0.795609 -2.683901 1.55874 -2.12132 2.12132 
C -1.55874 2.683901 -0.795609 3 0 3 
z
" style="stroke: #ffffff; stroke-width: 0.48"/>
    </defs>
    <g clip-path="url(#p7a7df051fd)">
     <use xlink:href="#m69fc1eab30" x="49.827921" y="24.479366" style="fill: #c73d73; stroke: #ffffff; stroke-width: 0.48"/>
     <use xlink:href="#m69fc1eab30" x="191.512704" y="281.352175" style="fill: #c73d73; stroke: #ffffff; stroke-width: 0.48"/>
     <use xlink:href="#m69fc1eab30" x="333.197486" y="281.538426" style="fill: #c73d73; stroke: #ffffff; stroke-width: 0.48"/>
     <use xlink:href="#m69fc1eab30" x="474.882269" y="288.5037" style="fill: #c73d73; stroke: #ffffff; stroke-width: 0.48"/>
     <use xlink:href="#m69fc1eab30" x="616.567052" y="297.190662" style="fill: #c73d73; stroke: #ffffff; stroke-width: 0.48"/>
     <use xlink:href="#m69fc1eab30" x="758.251834" y="308.06202" style="fill: #c73d73; stroke: #ffffff; stroke-width: 0.48"/>
    </g>
   </g>
   <g id="PathCollection_8">
    <defs>
     <path id="mc4e1c35c8e" d="M -3 3 
L 3 3 
L 3 -3 
L -3 -3 
z
" style="stroke: #ffffff; stroke-width: 0.48"/>
    </defs>
    <g clip-path="url(#p7a7df051fd)">
     <use xlink:href="#mc4e1c35c8e" x="49.827921" y="42.325733" style="fill: #c73d73; stroke: #ffffff; stroke-width: 0.48"/>
     <use xlink:href="#mc4e1c35c8e" x="191.512704" y="42.325733" style="fill: #c73d73; stroke: #ffffff; stroke-width: 0.48"/>
     <use xlink:href="#mc4e1c35c8e" x="333.197486" y="42.325733" style="fill: #c73d73; stroke: #ffffff; stroke-width: 0.48"/>
     <use xlink:href="#mc4e1c35c8e" x="474.882269" y="42.325733" style="fill: #c73d73; stroke: #ffffff; stroke-width: 0.48"/>
     <use xlink:href="#mc4e1c35c8e" x="616.567052" y="42.325733" style="fill: #c73d73; stroke: #ffffff; stroke-width: 0.48"/>
     <use xlink:href="#mc4e1c35c8e" x="758.251834" y="42.325733" style="fill: #c73d73; stroke: #ffffff; stroke-width: 0.48"/>
    </g>
   </g>
   <g id="PathCollection_9">
    <defs>
     <path id="m6a952a63ee" d="M 0 3 
C 0.795609 3 1.55874 2.683901 2.12132 2.12132 
C 2.683901 1.55874 3 0.795609 3 0 
C 3 -0.795609 2.683901 -1.55874 2.12132 -2.12132 
C 1.55874 -2.683901 0.795609 -3 0 -3 
C -0.795609 -3 -1.55874 -2.683901 -2.12132 -2.12132 
C -2.683901 -1.55874 -3 -0.795609 -3 0 
C -3 0.795609 -2.683901 1.55874 -2.12132 2.12132 
C -1.55874 2.683901 -0.795609 3 0 3 
z
" style="stroke: #ffffff; stroke-width: 0.48"/>
    </defs>
    <g clip-path="url(#p7a7df051fd)">
     <use xlink:href="#m6a952a63ee" x="49.827921" y="32.201976" style="fill: #f9795d; stroke: #ffffff; stroke-width: 0.48"/>
     <use xlink:href="#m6a952a63ee" x="191.512704" y="283.292561" style="fill: #f9795d; stroke: #ffffff; stroke-width: 0.48"/>
     <use xlink:href="#m6a952a63ee" x="333.197486" y="285.695656" style="fill: #f9795d; stroke: #ffffff; stroke-width: 0.48"/>
     <use xlink:href="#m6a952a63ee" x="474.882269" y="294.054894" style="fill: #f9795d; stroke: #ffffff; stroke-width: 0.48"/>
     <use xlink:href="#m6a952a63ee" x="616.567052" y="299.908502" style="fill: #f9795d; stroke: #ffffff; stroke-width: 0.48"/>
     <use xlink:href="#m6a952a63ee" x="758.251834" y="317.19871" style="fill: #f9795d; stroke: #ffffff; stroke-width: 0.48"/>
    </g>
   </g>
   <g id="PathCollection_10">
    <defs>
     <path id="m40ae3e2ef7" d="M -3 3 
L 3 3 
L 3 -3 
L -3 -3 
z
" style="stroke: #ffffff; stroke-width: 0.48"/>
    </defs>
    <g clip-path="url(#p7a7df051fd)">
     <use xlink:href="#m40ae3e2ef7" x="49.827921" y="42.325733" style="fill: #f9795d; stroke: #ffffff; stroke-width: 0.48"/>
     <use xlink:href="#m40ae3e2ef7" x="191.512704" y="42.325733" style="fill: #f9795d; stroke: #ffffff; stroke-width: 0.48"/>
     <use xlink:href="#m40ae3e2ef7" x="333.197486" y="42.325733" style="fill: #f9795d; stroke: #ffffff; stroke-width: 0.48"/>
     <use xlink:href="#m40ae3e2ef7" x="474.882269" y="42.325733" style="fill: #f9795d; stroke: #ffffff; stroke-width: 0.48"/>
     <use xlink:href="#m40ae3e2ef7" x="616.567052" y="42.325733" style="fill: #f9795d; stroke: #ffffff; stroke-width: 0.48"/>
     <use xlink:href="#m40ae3e2ef7" x="758.251834" y="42.325733" style="fill: #f9795d; stroke: #ffffff; stroke-width: 0.48"/>
    </g>
   </g>
   <g id="PathCollection_11">
    <defs>
     <path id="mae7a2e9dea" d="M 0 3 
C 0.795609 3 1.55874 2.683901 2.12132 2.12132 
C 2.683901 1.55874 3 0.795609 3 0 
C 3 -0.795609 2.683901 -1.55874 2.12132 -2.12132 
C 1.55874 -2.683901 0.795609 -3 0 -3 
C -0.795609 -3 -1.55874 -2.683901 -2.12132 -2.12132 
C -2.683901 -1.55874 -3 -0.795609 -3 0 
C -3 0.795609 -2.683901 1.55874 -2.12132 2.12132 
C -1.55874 2.683901 -0.795609 3 0 3 
z
" style="stroke: #ffffff; stroke-width: 0.48"/>
    </defs>
    <g clip-path="url(#p7a7df051fd)">
     <use xlink:href="#mae7a2e9dea" x="49.827921" y="55.759179" style="fill: #fecf92; stroke: #ffffff; stroke-width: 0.48"/>
     <use xlink:href="#mae7a2e9dea" x="191.512704" y="284.134261" style="fill: #fecf92; stroke: #ffffff; stroke-width: 0.48"/>
     <use xlink:href="#mae7a2e9dea" x="333.197486" y="287.68731" style="fill: #fecf92; stroke: #ffffff; stroke-width: 0.48"/>
     <use xlink:href="#mae7a2e9dea" x="474.882269" y="295.860297" style="fill: #fecf92; stroke: #ffffff; stroke-width: 0.48"/>
     <use xlink:href="#mae7a2e9dea" x="616.567052" y="306.860797" style="fill: #fecf92; stroke: #ffffff; stroke-width: 0.48"/>
     <use xlink:href="#mae7a2e9dea" x="758.251834" y="328.391951" style="fill: #fecf92; stroke: #ffffff; stroke-width: 0.48"/>
    </g>
   </g>
   <g id="PathCollection_12">
    <defs>
     <path id="mc14d425f5a" d="M -3 3 
L 3 3 
L 3 -3 
L -3 -3 
z
" style="stroke: #ffffff; stroke-width: 0.48"/>
    </defs>
    <g clip-path="url(#p7a7df051fd)">
     <use xlink:href="#mc14d425f5a" x="49.827921" y="42.325733" style="fill: #fecf92; stroke: #ffffff; stroke-width: 0.48"/>
     <use xlink:href="#mc14d425f5a" x="191.512704" y="42.325733" style="fill: #fecf92; stroke: #ffffff; stroke-width: 0.48"/>
     <use xlink:href="#mc14d425f5a" x="333.197486" y="42.325733" style="fill: #fecf92; stroke: #ffffff; stroke-width: 0.48"/>
     <use xlink:href="#mc14d425f5a" x="474.882269" y="42.325733" style="fill: #fecf92; stroke: #ffffff; stroke-width: 0.48"/>
     <use xlink:href="#mc14d425f5a" x="616.567052" y="42.325733" style="fill: #fecf92; stroke: #ffffff; stroke-width: 0.48"/>
     <use xlink:href="#mc14d425f5a" x="758.251834" y="42.325733" style="fill: #fecf92; stroke: #ffffff; stroke-width: 0.48"/>
    </g>
   </g>
   <g id="line2d_12">
    <path d="M 49.827921 147.557951 
L 56.983718 149.451516 
L 64.139515 151.34508 
L 71.295312 153.238644 
L 78.45111 155.132208 
L 85.606907 157.025772 
L 92.762704 158.919336 
L 99.918501 160.8129 
L 107.074298 162.706464 
L 114.230095 164.600028 
L 121.385892 166.493593 
L 128.541689 168.387157 
L 135.697486 170.280721 
L 142.853284 172.174285 
L 150.009081 174.067849 
L 157.164878 175.961413 
L 164.320675 177.854977 
L 171.476472 179.748541 
L 178.632269 181.642106 
L 185.788066 183.53567 
L 192.943863 185.429234 
L 200.09966 187.322798 
L 207.255457 189.216362 
L 214.411255 191.109926 
L 221.567052 193.00349 
L 228.722849 194.897054 
L 235.878646 196.790619 
L 243.034443 198.684183 
L 250.19024 200.577747 
L 257.346037 202.471311 
L 264.501834 204.364875 
L 271.657631 206.258439 
L 278.813428 208.152003 
L 285.969226 210.045567 
L 293.125023 211.939131 
L 300.28082 213.832696 
L 307.436617 215.72626 
L 314.592414 217.619824 
L 321.748211 219.513388 
L 328.904008 221.406952 
L 336.059805 223.300516 
L 343.215602 225.19408 
L 350.371399 227.087644 
L 357.527197 228.981209 
L 364.682994 230.874773 
L 371.838791 232.768337 
L 378.994588 234.661901 
L 386.150385 236.555465 
L 393.306182 238.449029 
L 400.461979 240.342593 
L 407.617776 242.236157 
L 414.773573 244.129721 
L 421.92937 246.023286 
L 429.085168 247.91685 
L 436.240965 249.810414 
L 443.396762 251.703978 
L 450.552559 253.597542 
L 457.708356 255.491106 
L 464.864153 257.38467 
L 472.01995 259.278234 
L 479.175747 261.171799 
L 486.331544 263.065363 
L 493.487341 264.958927 
L 500.643139 266.852491 
L 507.798936 268.746055 
L 514.954733 270.639619 
L 522.11053 272.533183 
L 529.266327 274.426747 
L 536.422124 276.320312 
L 543.577921 278.213876 
L 550.733718 280.10744 
L 557.889515 282.001004 
L 565.045312 283.894568 
L 572.20111 285.788132 
L 579.356907 287.681696 
L 586.512704 289.57526 
L 593.668501 291.468824 
L 600.824298 293.362389 
L 607.980095 295.255953 
L 615.135892 297.149517 
L 622.291689 299.043081 
L 629.447486 300.936645 
L 636.603284 302.830209 
L 643.759081 304.723773 
L 650.914878 306.617337 
L 658.070675 308.510902 
L 665.226472 310.404466 
L 672.382269 312.29803 
L 679.538066 314.191594 
L 686.693863 316.085158 
L 693.84966 317.978722 
L 701.005457 319.872286 
L 708.161255 321.76585 
L 715.317052 323.659414 
L 722.472849 325.552979 
L 729.628646 327.446543 
L 736.784443 329.340107 
L 743.94024 331.233671 
L 751.096037 333.127235 
L 758.251834 335.020799 
" clip-path="url(#p7a7df051fd)" style="fill: none; stroke: #000004; stroke-width: 2.25; stroke-linecap: round"/>
   </g>
   <g id="line2d_13">
    <path d="M 49.827921 42.325733 
L 56.983718 42.325733 
L 64.139515 42.325733 
L 71.295312 42.325733 
L 78.45111 42.325733 
L 85.606907 42.325733 
L 92.762704 42.325733 
L 99.918501 42.325733 
L 107.074298 42.325733 
L 114.230095 42.325733 
L 121.385892 42.325733 
L 128.541689 42.325733 
L 135.697486 42.325733 
L 142.853284 42.325733 
L 150.009081 42.325733 
L 157.164878 42.325733 
L 164.320675 42.325733 
L 171.476472 42.325733 
L 178.632269 42.325733 
L 185.788066 42.325733 
L 192.943863 42.325733 
L 200.09966 42.325733 
L 207.255457 42.325733 
L 214.411255 42.325733 
L 221.567052 42.325733 
L 228.722849 42.325733 
L 235.878646 42.325733 
L 243.034443 42.325733 
L 250.19024 42.325733 
L 257.346037 42.325733 
L 264.501834 42.325733 
L 271.657631 42.325733 
L 278.813428 42.325733 
L 285.969226 42.325733 
L 293.125023 42.325733 
L 300.28082 42.325733 
L 307.436617 42.325733 
L 314.592414 42.325733 
L 321.748211 42.325733 
L 328.904008 42.325733 
L 336.059805 42.325733 
L 343.215602 42.325733 
L 350.371399 42.325733 
L 357.527197 42.325733 
L 364.682994 42.325733 
L 371.838791 42.325733 
L 378.994588 42.325733 
L 386.150385 42.325733 
L 393.306182 42.325733 
L 400.461979 42.325733 
L 407.617776 42.325733 
L 414.773573 42.325733 
L 421.92937 42.325733 
L 429.085168 42.325733 
L 436.240965 42.325733 
L 443.396762 42.325733 
L 450.552559 42.325733 
L 457.708356 42.325733 
L 464.864153 42.325733 
L 472.01995 42.325733 
L 479.175747 42.325733 
L 486.331544 42.325733 
L 493.487341 42.325733 
L 500.643139 42.325733 
L 507.798936 42.325733 
L 514.954733 42.325733 
L 522.11053 42.325733 
L 529.266327 42.325733 
L 536.422124 42.325733 
L 543.577921 42.325733 
L 550.733718 42.325733 
L 557.889515 42.325733 
L 565.045312 42.325733 
L 572.20111 42.325733 
L 579.356907 42.325733 
L 586.512704 42.325733 
L 593.668501 42.325733 
L 600.824298 42.325733 
L 607.980095 42.325733 
L 615.135892 42.325733 
L 622.291689 42.325733 
L 629.447486 42.325733 
L 636.603284 42.325733 
L 643.759081 42.325733 
L 650.914878 42.325733 
L 658.070675 42.325733 
L 665.226472 42.325733 
L 672.382269 42.325733 
L 679.538066 42.325733 
L 686.693863 42.325733 
L 693.84966 42.325733 
L 701.005457 42.325733 
L 708.161255 42.325733 
L 715.317052 42.325733 
L 722.472849 42.325733 
L 729.628646 42.325733 
L 736.784443 42.325733 
L 743.94024 42.325733 
L 751.096037 42.325733 
L 758.251834 42.325733 
" clip-path="url(#p7a7df051fd)" style="fill: none; stroke: #000004; stroke-width: 2.25; stroke-linecap: round"/>
   </g>
   <g id="line2d_14">
    <path d="M 49.827921 57.667118 
L 191.512704 247.37464 
L 333.197486 238.064678 
L 474.882269 249.174203 
L 616.567052 244.759985 
L 758.251834 250.452652 
" clip-path="url(#p7a7df051fd)" style="fill: none; stroke: #331067; stroke-opacity: 0.7; stroke-width: 1.5; stroke-linecap: round"/>
   </g>
   <g id="line2d_15">
    <path d="M 49.827921 42.325733 
L 191.512704 42.325733 
L 333.197486 42.325733 
L 474.882269 42.325733 
L 616.567052 42.325733 
L 758.251834 42.325733 
" clip-path="url(#p7a7df051fd)" style="fill: none; stroke-dasharray: 5.55,2.4; stroke-dashoffset: 0; stroke: #331067; stroke-opacity: 0.7; stroke-width: 1.5"/>
   </g>
   <g id="line2d_16">
    <path d="M 49.827921 50.372821 
L 191.512704 259.441379 
L 333.197486 267.235374 
L 474.882269 265.224251 
L 616.567052 276.301977 
L 758.251834 280.439738 
" clip-path="url(#p7a7df051fd)" style="fill: none; stroke: #7c2382; stroke-opacity: 0.7; stroke-width: 1.5; stroke-linecap: round"/>
   </g>
   <g id="line2d_17">
    <path d="M 49.827921 42.325733 
L 191.512704 42.325733 
L 333.197486 42.325733 
L 474.882269 42.325733 
L 616.567052 42.325733 
L 758.251834 42.325733 
" clip-path="url(#p7a7df051fd)" style="fill: none; stroke-dasharray: 5.55,2.4; stroke-dashoffset: 0; stroke: #7c2382; stroke-opacity: 0.7; stroke-width: 1.5"/>
   </g>
   <g id="line2d_18">
    <path d="M 49.827921 24.479366 
L 191.512704 281.352175 
L 333.197486 281.538426 
L 474.882269 288.5037 
L 616.567052 297.190662 
L 758.251834 308.06202 
" clip-path="url(#p7a7df051fd)" style="fill: none; stroke: #c73d73; stroke-opacity: 0.7; stroke-width: 1.5; stroke-linecap: round"/>
   </g>
   <g id="line2d_19">
    <path d="M 49.827921 42.325733 
L 191.512704 42.325733 
L 333.197486 42.325733 
L 474.882269 42.325733 
L 616.567052 42.325733 
L 758.251834 42.325733 
" clip-path="url(#p7a7df051fd)" style="fill: none; stroke-dasharray: 5.55,2.4; stroke-dashoffset: 0; stroke: #c73d73; stroke-opacity: 0.7; stroke-width: 1.5"/>
   </g>
   <g id="line2d_20">
    <path d="M 49.827921 32.201976 
L 191.512704 283.292561 
L 333.197486 285.695656 
L 474.882269 294.054894 
L 616.567052 299.908502 
L 758.251834 317.19871 
" clip-path="url(#p7a7df051fd)" style="fill: none; stroke: #f9795d; stroke-opacity: 0.7; stroke-width: 1.5; stroke-linecap: round"/>
   </g>
   <g id="line2d_21">
    <path d="M 49.827921 42.325733 
L 191.512704 42.325733 
L 333.197486 42.325733 
L 474.882269 42.325733 
L 616.567052 42.325733 
L 758.251834 42.325733 
" clip-path="url(#p7a7df051fd)" style="fill: none; stroke-dasharray: 5.55,2.4; stroke-dashoffset: 0; stroke: #f9795d; stroke-opacity: 0.7; stroke-width: 1.5"/>
   </g>
   <g id="line2d_22">
    <path d="M 49.827921 55.759179 
L 191.512704 284.134261 
L 333.197486 287.68731 
L 474.882269 295.860297 
L 616.567052 306.860797 
L 758.251834 328.391951 
" clip-path="url(#p7a7df051fd)" style="fill: none; stroke: #fecf92; stroke-opacity: 0.7; stroke-width: 1.5; stroke-linecap: round"/>
   </g>
   <g id="line2d_23">
    <path d="M 49.827921 42.325733 
L 191.512704 42.325733 
L 333.197486 42.325733 
L 474.882269 42.325733 
L 616.567052 42.325733 
L 758.251834 42.325733 
" clip-path="url(#p7a7df051fd)" style="fill: none; stroke-dasharray: 5.55,2.4; stroke-dashoffset: 0; stroke: #fecf92; stroke-opacity: 0.7; stroke-width: 1.5"/>
   </g>
   <g id="patch_3">
    <path d="M 39.201563 337.86 
L 39.201563 7.2 
" style="fill: none; stroke: #cccccc; stroke-width: 1.25; stroke-linejoin: miter; stroke-linecap: square"/>
   </g>
   <g id="patch_4">
    <path d="M 772.420313 337.86 
L 772.420313 7.2 
" style="fill: none; stroke: #cccccc; stroke-width: 1.25; stroke-linejoin: miter; stroke-linecap: square"/>
   </g>
   <g id="patch_5">
    <path d="M 39.201563 337.86 
L 772.420312 337.86 
" style="fill: none; stroke: #cccccc; stroke-width: 1.25; stroke-linejoin: miter; stroke-linecap: square"/>
   </g>
   <g id="patch_6">
    <path d="M 39.201563 7.2 
L 772.420312 7.2 
" style="fill: none; stroke: #cccccc; stroke-width: 1.25; stroke-linejoin: miter; stroke-linecap: square"/>
   </g>
   <g id="legend_1">
    <g id="patch_7">
     <path d="M 660.254688 252.956844 
L 750.055937 252.956844 
Q 752.255937 252.956844 752.255937 250.756844 
L 752.255937 61.237156 
Q 752.255937 59.037156 750.055937 59.037156 
L 660.254688 59.037156 
Q 658.054688 59.037156 658.054688 61.237156 
L 658.054688 250.756844 
Q 658.054688 252.956844 660.254688 252.956844 
z
" style="fill: #ffffff; opacity: 0.8; stroke: #cccccc; stroke-linejoin: miter"/>
    </g>
    <g id="PathCollection_13">
     <g>
      <use xlink:href="#mbbadbc9524" x="673.454687" y="68.42325" style="fill: #000004; stroke: #ffffff; stroke-width: 0.48"/>
     </g>
    </g>
    <g id="text_14">
     <!-- Trend-BAP -->
     <g style="fill: #262626" transform="translate(693.254687 71.31075) scale(0.11 -0.11)">
      <defs>
       <path id="ArialMT-54" d="M 1659 0 
L 1659 4041 
L 150 4041 
L 150 4581 
L 3781 4581 
L 3781 4041 
L 2266 4041 
L 2266 0 
L 1659 0 
z
" transform="scale(0.015625)"/>
       <path id="ArialMT-64" d="M 2575 0 
L 2575 419 
Q 2259 -75 1647 -75 
Q 1250 -75 917 144 
Q 584 363 401 755 
Q 219 1147 219 1656 
Q 219 2153 384 2558 
Q 550 2963 881 3178 
Q 1213 3394 1622 3394 
Q 1922 3394 2156 3267 
Q 2391 3141 2538 2938 
L 2538 4581 
L 3097 4581 
L 3097 0 
L 2575 0 
z
M 797 1656 
Q 797 1019 1065 703 
Q 1334 388 1700 388 
Q 2069 388 2326 689 
Q 2584 991 2584 1609 
Q 2584 2291 2321 2609 
Q 2059 2928 1675 2928 
Q 1300 2928 1048 2622 
Q 797 2316 797 1656 
z
" transform="scale(0.015625)"/>
       <path id="ArialMT-2d" d="M 203 1375 
L 203 1941 
L 1931 1941 
L 1931 1375 
L 203 1375 
z
" transform="scale(0.015625)"/>
       <path id="ArialMT-42" d="M 469 0 
L 469 4581 
L 2188 4581 
Q 2713 4581 3030 4442 
Q 3347 4303 3526 4014 
Q 3706 3725 3706 3409 
Q 3706 3116 3547 2856 
Q 3388 2597 3066 2438 
Q 3481 2316 3704 2022 
Q 3928 1728 3928 1328 
Q 3928 1006 3792 729 
Q 3656 453 3456 303 
Q 3256 153 2954 76 
Q 2653 0 2216 0 
L 469 0 
z
M 1075 2656 
L 2066 2656 
Q 2469 2656 2644 2709 
Q 2875 2778 2992 2937 
Q 3109 3097 3109 3338 
Q 3109 3566 3000 3739 
Q 2891 3913 2687 3977 
Q 2484 4041 1991 4041 
L 1075 4041 
L 1075 2656 
z
M 1075 541 
L 2216 541 
Q 2509 541 2628 563 
Q 2838 600 2978 687 
Q 3119 775 3209 942 
Q 3300 1109 3300 1328 
Q 3300 1584 3169 1773 
Q 3038 1963 2805 2039 
Q 2572 2116 2134 2116 
L 1075 2116 
L 1075 541 
z
" transform="scale(0.015625)"/>
       <path id="ArialMT-41" d="M -9 0 
L 1750 4581 
L 2403 4581 
L 4278 0 
L 3588 0 
L 3053 1388 
L 1138 1388 
L 634 0 
L -9 0 
z
M 1313 1881 
L 2866 1881 
L 2388 3150 
Q 2169 3728 2063 4100 
Q 1975 3659 1816 3225 
L 1313 1881 
z
" transform="scale(0.015625)"/>
       <path id="ArialMT-50" d="M 494 0 
L 494 4581 
L 2222 4581 
Q 2678 4581 2919 4538 
Q 3256 4481 3484 4323 
Q 3713 4166 3852 3881 
Q 3991 3597 3991 3256 
Q 3991 2672 3619 2267 
Q 3247 1863 2275 1863 
L 1100 1863 
L 1100 0 
L 494 0 
z
M 1100 2403 
L 2284 2403 
Q 2872 2403 3119 2622 
Q 3366 2841 3366 3238 
Q 3366 3525 3220 3729 
Q 3075 3934 2838 4000 
Q 2684 4041 2272 4041 
L 1100 4041 
L 1100 2403 
z
" transform="scale(0.015625)"/>
      </defs>
      <use xlink:href="#ArialMT-54"/>
      <use xlink:href="#ArialMT-72" x="57.333984"/>
      <use xlink:href="#ArialMT-65" x="90.634766"/>
      <use xlink:href="#ArialMT-6e" x="146.25"/>
      <use xlink:href="#ArialMT-64" x="201.865234"/>
      <use xlink:href="#ArialMT-2d" x="257.480469"/>
      <use xlink:href="#ArialMT-42" x="290.78125"/>
      <use xlink:href="#ArialMT-41" x="357.480469"/>
      <use xlink:href="#ArialMT-50" x="424.179688"/>
     </g>
    </g>
    <g id="PathCollection_14">
     <g>
      <use xlink:href="#m8a040487d2" x="673.454687" y="83.983094" style="fill: #000004; stroke: #ffffff; stroke-width: 0.48"/>
     </g>
    </g>
    <g id="text_15">
     <!-- Trend-NPP -->
     <g style="fill: #262626" transform="translate(693.254687 86.870594) scale(0.11 -0.11)">
      <use xlink:href="#ArialMT-54"/>
      <use xlink:href="#ArialMT-72" x="57.333984"/>
      <use xlink:href="#ArialMT-65" x="90.634766"/>
      <use xlink:href="#ArialMT-6e" x="146.25"/>
      <use xlink:href="#ArialMT-64" x="201.865234"/>
      <use xlink:href="#ArialMT-2d" x="257.480469"/>
      <use xlink:href="#ArialMT-4e" x="290.78125"/>
      <use xlink:href="#ArialMT-50" x="362.998047"/>
      <use xlink:href="#ArialMT-50" x="429.697266"/>
     </g>
    </g>
    <g id="PathCollection_15">
     <g>
      <use xlink:href="#ma61fcab8da" x="673.454687" y="99.699344" style="fill: #331067; stroke: #ffffff; stroke-width: 0.48"/>
     </g>
    </g>
    <g id="text_16">
     <!-- BAP ($\chi$=3) -->
     <g style="fill: #262626" transform="translate(693.254687 102.586844) scale(0.11 -0.11)">
      <defs>
       <path id="ArialMT-28" d="M 1497 -1347 
Q 1031 -759 709 28 
Q 388 816 388 1659 
Q 388 2403 628 3084 
Q 909 3875 1497 4659 
L 1900 4659 
Q 1522 4009 1400 3731 
Q 1209 3300 1100 2831 
Q 966 2247 966 1656 
Q 966 153 1900 -1347 
L 1497 -1347 
z
" transform="scale(0.015625)"/>
       <path id="DejaVuSans-Oblique-3c7" d="M 1922 -781 
L 1691 416 
L 394 -1334 
L -284 -1334 
L 1553 1141 
L 1269 2613 
Q 1194 3006 713 3006 
L 559 3006 
L 653 3500 
L 872 3494 
Q 1675 3472 1775 2950 
L 2006 1753 
L 3303 3503 
L 3981 3503 
L 2144 1028 
L 2428 -444 
Q 2503 -838 2984 -838 
L 3138 -838 
L 3044 -1331 
L 2825 -1325 
Q 2022 -1303 1922 -781 
z
" transform="scale(0.015625)"/>
       <path id="ArialMT-3d" d="M 3381 2694 
L 356 2694 
L 356 3219 
L 3381 3219 
L 3381 2694 
z
M 3381 1303 
L 356 1303 
L 356 1828 
L 3381 1828 
L 3381 1303 
z
" transform="scale(0.015625)"/>
       <path id="ArialMT-29" d="M 791 -1347 
L 388 -1347 
Q 1322 153 1322 1656 
Q 1322 2244 1188 2822 
Q 1081 3291 891 3722 
Q 769 4003 388 4659 
L 791 4659 
Q 1378 3875 1659 3084 
Q 1900 2403 1900 1659 
Q 1900 816 1576 28 
Q 1253 -759 791 -1347 
z
" transform="scale(0.015625)"/>
      </defs>
      <use xlink:href="#ArialMT-42" transform="translate(0 0.203125)"/>
      <use xlink:href="#ArialMT-41" transform="translate(66.699219 0.203125)"/>
      <use xlink:href="#ArialMT-50" transform="translate(133.398438 0.203125)"/>
      <use xlink:href="#ArialMT-20" transform="translate(200.097656 0.203125)"/>
      <use xlink:href="#ArialMT-28" transform="translate(227.880859 0.203125)"/>
      <use xlink:href="#DejaVuSans-Oblique-3c7" transform="translate(261.181641 0.203125)"/>
      <use xlink:href="#ArialMT-3d" transform="translate(320.361328 0.203125)"/>
      <use xlink:href="#ArialMT-33" transform="translate(378.759766 0.203125)"/>
      <use xlink:href="#ArialMT-29" transform="translate(434.375 0.203125)"/>
     </g>
    </g>
    <g id="PathCollection_16">
     <g>
      <use xlink:href="#mb55a32d0d6" x="673.454687" y="115.649344" style="fill: #331067; stroke: #ffffff; stroke-width: 0.48"/>
     </g>
    </g>
    <g id="text_17">
     <!-- NPP ($\chi$=3) -->
     <g style="fill: #262626" transform="translate(693.254687 118.536844) scale(0.11 -0.11)">
      <use xlink:href="#ArialMT-4e" transform="translate(0 0.203125)"/>
      <use xlink:href="#ArialMT-50" transform="translate(72.216797 0.203125)"/>
      <use xlink:href="#ArialMT-50" transform="translate(138.916016 0.203125)"/>
      <use xlink:href="#ArialMT-20" transform="translate(205.615234 0.203125)"/>
      <use xlink:href="#ArialMT-28" transform="translate(233.398438 0.203125)"/>
      <use xlink:href="#DejaVuSans-Oblique-3c7" transform="translate(266.699219 0.203125)"/>
      <use xlink:href="#ArialMT-3d" transform="translate(325.878906 0.203125)"/>
      <use xlink:href="#ArialMT-33" transform="translate(384.277344 0.203125)"/>
      <use xlink:href="#ArialMT-29" transform="translate(439.892578 0.203125)"/>
     </g>
    </g>
    <g id="PathCollection_17">
     <g>
      <use xlink:href="#madced3b67e" x="673.454687" y="131.599344" style="fill: #7c2382; stroke: #ffffff; stroke-width: 0.48"/>
     </g>
    </g>
    <g id="text_18">
     <!-- BAP ($\chi$=4) -->
     <g style="fill: #262626" transform="translate(693.254687 134.486844) scale(0.11 -0.11)">
      <use xlink:href="#ArialMT-42" transform="translate(0 0.203125)"/>
      <use xlink:href="#ArialMT-41" transform="translate(66.699219 0.203125)"/>
      <use xlink:href="#ArialMT-50" transform="translate(133.398438 0.203125)"/>
      <use xlink:href="#ArialMT-20" transform="translate(200.097656 0.203125)"/>
      <use xlink:href="#ArialMT-28" transform="translate(227.880859 0.203125)"/>
      <use xlink:href="#DejaVuSans-Oblique-3c7" transform="translate(261.181641 0.203125)"/>
      <use xlink:href="#ArialMT-3d" transform="translate(320.361328 0.203125)"/>
      <use xlink:href="#ArialMT-34" transform="translate(378.759766 0.203125)"/>
      <use xlink:href="#ArialMT-29" transform="translate(434.375 0.203125)"/>
     </g>
    </g>
    <g id="PathCollection_18">
     <g>
      <use xlink:href="#m3ed6128b3b" x="673.454687" y="147.549344" style="fill: #7c2382; stroke: #ffffff; stroke-width: 0.48"/>
     </g>
    </g>
    <g id="text_19">
     <!-- NPP ($\chi$=4) -->
     <g style="fill: #262626" transform="translate(693.254687 150.436844) scale(0.11 -0.11)">
      <use xlink:href="#ArialMT-4e" transform="translate(0 0.203125)"/>
      <use xlink:href="#ArialMT-50" transform="translate(72.216797 0.203125)"/>
      <use xlink:href="#ArialMT-50" transform="translate(138.916016 0.203125)"/>
      <use xlink:href="#ArialMT-20" transform="translate(205.615234 0.203125)"/>
      <use xlink:href="#ArialMT-28" transform="translate(233.398438 0.203125)"/>
      <use xlink:href="#DejaVuSans-Oblique-3c7" transform="translate(266.699219 0.203125)"/>
      <use xlink:href="#ArialMT-3d" transform="translate(325.878906 0.203125)"/>
      <use xlink:href="#ArialMT-34" transform="translate(384.277344 0.203125)"/>
      <use xlink:href="#ArialMT-29" transform="translate(439.892578 0.203125)"/>
     </g>
    </g>
    <g id="PathCollection_19">
     <g>
      <use xlink:href="#m69fc1eab30" x="673.454687" y="163.499344" style="fill: #c73d73; stroke: #ffffff; stroke-width: 0.48"/>
     </g>
    </g>
    <g id="text_20">
     <!-- BAP ($\chi$=5) -->
     <g style="fill: #262626" transform="translate(693.254687 166.386844) scale(0.11 -0.11)">
      <use xlink:href="#ArialMT-42" transform="translate(0 0.203125)"/>
      <use xlink:href="#ArialMT-41" transform="translate(66.699219 0.203125)"/>
      <use xlink:href="#ArialMT-50" transform="translate(133.398438 0.203125)"/>
      <use xlink:href="#ArialMT-20" transform="translate(200.097656 0.203125)"/>
      <use xlink:href="#ArialMT-28" transform="translate(227.880859 0.203125)"/>
      <use xlink:href="#DejaVuSans-Oblique-3c7" transform="translate(261.181641 0.203125)"/>
      <use xlink:href="#ArialMT-3d" transform="translate(320.361328 0.203125)"/>
      <use xlink:href="#ArialMT-35" transform="translate(378.759766 0.203125)"/>
      <use xlink:href="#ArialMT-29" transform="translate(434.375 0.203125)"/>
     </g>
    </g>
    <g id="PathCollection_20">
     <g>
      <use xlink:href="#mc4e1c35c8e" x="673.454687" y="179.449344" style="fill: #c73d73; stroke: #ffffff; stroke-width: 0.48"/>
     </g>
    </g>
    <g id="text_21">
     <!-- NPP ($\chi$=5) -->
     <g style="fill: #262626" transform="translate(693.254687 182.336844) scale(0.11 -0.11)">
      <use xlink:href="#ArialMT-4e" transform="translate(0 0.203125)"/>
      <use xlink:href="#ArialMT-50" transform="translate(72.216797 0.203125)"/>
      <use xlink:href="#ArialMT-50" transform="translate(138.916016 0.203125)"/>
      <use xlink:href="#ArialMT-20" transform="translate(205.615234 0.203125)"/>
      <use xlink:href="#ArialMT-28" transform="translate(233.398438 0.203125)"/>
      <use xlink:href="#DejaVuSans-Oblique-3c7" transform="translate(266.699219 0.203125)"/>
      <use xlink:href="#ArialMT-3d" transform="translate(325.878906 0.203125)"/>
      <use xlink:href="#ArialMT-35" transform="translate(384.277344 0.203125)"/>
      <use xlink:href="#ArialMT-29" transform="translate(439.892578 0.203125)"/>
     </g>
    </g>
    <g id="PathCollection_21">
     <g>
      <use xlink:href="#m6a952a63ee" x="673.454687" y="195.399344" style="fill: #f9795d; stroke: #ffffff; stroke-width: 0.48"/>
     </g>
    </g>
    <g id="text_22">
     <!-- BAP ($\chi$=6) -->
     <g style="fill: #262626" transform="translate(693.254687 198.286844) scale(0.11 -0.11)">
      <use xlink:href="#ArialMT-42" transform="translate(0 0.203125)"/>
      <use xlink:href="#ArialMT-41" transform="translate(66.699219 0.203125)"/>
      <use xlink:href="#ArialMT-50" transform="translate(133.398438 0.203125)"/>
      <use xlink:href="#ArialMT-20" transform="translate(200.097656 0.203125)"/>
      <use xlink:href="#ArialMT-28" transform="translate(227.880859 0.203125)"/>
      <use xlink:href="#DejaVuSans-Oblique-3c7" transform="translate(261.181641 0.203125)"/>
      <use xlink:href="#ArialMT-3d" transform="translate(320.361328 0.203125)"/>
      <use xlink:href="#ArialMT-36" transform="translate(378.759766 0.203125)"/>
      <use xlink:href="#ArialMT-29" transform="translate(434.375 0.203125)"/>
     </g>
    </g>
    <g id="PathCollection_22">
     <g>
      <use xlink:href="#m40ae3e2ef7" x="673.454687" y="211.349344" style="fill: #f9795d; stroke: #ffffff; stroke-width: 0.48"/>
     </g>
    </g>
    <g id="text_23">
     <!-- NPP ($\chi$=6) -->
     <g style="fill: #262626" transform="translate(693.254687 214.236844) scale(0.11 -0.11)">
      <use xlink:href="#ArialMT-4e" transform="translate(0 0.203125)"/>
      <use xlink:href="#ArialMT-50" transform="translate(72.216797 0.203125)"/>
      <use xlink:href="#ArialMT-50" transform="translate(138.916016 0.203125)"/>
      <use xlink:href="#ArialMT-20" transform="translate(205.615234 0.203125)"/>
      <use xlink:href="#ArialMT-28" transform="translate(233.398438 0.203125)"/>
      <use xlink:href="#DejaVuSans-Oblique-3c7" transform="translate(266.699219 0.203125)"/>
      <use xlink:href="#ArialMT-3d" transform="translate(325.878906 0.203125)"/>
      <use xlink:href="#ArialMT-36" transform="translate(384.277344 0.203125)"/>
      <use xlink:href="#ArialMT-29" transform="translate(439.892578 0.203125)"/>
     </g>
    </g>
    <g id="PathCollection_23">
     <g>
      <use xlink:href="#mae7a2e9dea" x="673.454687" y="227.299344" style="fill: #fecf92; stroke: #ffffff; stroke-width: 0.48"/>
     </g>
    </g>
    <g id="text_24">
     <!-- BAP ($\chi$=7) -->
     <g style="fill: #262626" transform="translate(693.254687 230.186844) scale(0.11 -0.11)">
      <use xlink:href="#ArialMT-42" transform="translate(0 0.203125)"/>
      <use xlink:href="#ArialMT-41" transform="translate(66.699219 0.203125)"/>
      <use xlink:href="#ArialMT-50" transform="translate(133.398438 0.203125)"/>
      <use xlink:href="#ArialMT-20" transform="translate(200.097656 0.203125)"/>
      <use xlink:href="#ArialMT-28" transform="translate(227.880859 0.203125)"/>
      <use xlink:href="#DejaVuSans-Oblique-3c7" transform="translate(261.181641 0.203125)"/>
      <use xlink:href="#ArialMT-3d" transform="translate(320.361328 0.203125)"/>
      <use xlink:href="#ArialMT-37" transform="translate(378.759766 0.203125)"/>
      <use xlink:href="#ArialMT-29" transform="translate(434.375 0.203125)"/>
     </g>
    </g>
    <g id="PathCollection_24">
     <g>
      <use xlink:href="#mc14d425f5a" x="673.454687" y="243.249344" style="fill: #fecf92; stroke: #ffffff; stroke-width: 0.48"/>
     </g>
    </g>
    <g id="text_25">
     <!-- NPP ($\chi$=7) -->
     <g style="fill: #262626" transform="translate(693.254687 246.136844) scale(0.11 -0.11)">
      <use xlink:href="#ArialMT-4e" transform="translate(0 0.203125)"/>
      <use xlink:href="#ArialMT-50" transform="translate(72.216797 0.203125)"/>
      <use xlink:href="#ArialMT-50" transform="translate(138.916016 0.203125)"/>
      <use xlink:href="#ArialMT-20" transform="translate(205.615234 0.203125)"/>
      <use xlink:href="#ArialMT-28" transform="translate(233.398438 0.203125)"/>
      <use xlink:href="#DejaVuSans-Oblique-3c7" transform="translate(266.699219 0.203125)"/>
      <use xlink:href="#ArialMT-3d" transform="translate(325.878906 0.203125)"/>
      <use xlink:href="#ArialMT-37" transform="translate(384.277344 0.203125)"/>
      <use xlink:href="#ArialMT-29" transform="translate(439.892578 0.203125)"/>
     </g>
    </g>
   </g>
  </g>
 </g>
 <defs>
  <clipPath id="p7a7df051fd">
   <rect x="39.201563" y="7.2" width="733.21875" height="330.66"/>
  </clipPath>
 </defs>
</svg>
