<?xml version="1.0" encoding="utf-8" standalone="no"?>
<!DOCTYPE svg PUBLIC "-//W3C//DTD SVG 1.1//EN"
  "http://www.w3.org/Graphics/SVG/1.1/DTD/svg11.dtd">
<svg xmlns:xlink="http://www.w3.org/1999/xlink" width="851.620312pt" height="416.579844pt" viewBox="0 0 851.620312 416.579844" xmlns="http://www.w3.org/2000/svg" version="1.1">
 <metadata>
  <rdf:RDF xmlns:dc="http://purl.org/dc/elements/1.1/" xmlns:cc="http://creativecommons.org/ns#" xmlns:rdf="http://www.w3.org/1999/02/22-rdf-syntax-ns#">
   <cc:Work>
    <dc:type rdf:resource="http://purl.org/dc/dcmitype/StillImage"/>
    <dc:date>2024-07-30T13:14:58.573763</dc:date>
    <dc:format>image/svg+xml</dc:format>
    <dc:creator>
     <cc:Agent>
      <dc:title>Matplotlib v3.9.0, https://matplotlib.org/</dc:title>
     </cc:Agent>
    </dc:creator>
   </cc:Work>
  </rdf:RDF>
 </metadata>
 <defs>
  <style type="text/css">*{stroke-linejoin: round; stroke-linecap: butt}</style>
 </defs>
 <g id="figure_1">
  <g id="patch_1">
   <path d="M 0 416.579844 
L 851.620312 416.579844 
L 851.620312 0 
L 0 0 
z
" style="fill: #ffffff"/>
  </g>
  <g id="axes_1">
   <g id="patch_2">
    <path d="M 39.201563 373.86 
L 844.420312 373.86 
L 844.420312 7.2 
L 39.201563 7.2 
z
" style="fill: #ffffff"/>
   </g>
   <g id="matplotlib.axis_1">
    <g id="xtick_1">
     <g id="line2d_1">
      <path d="M 50.871399 373.86 
L 50.871399 7.2 
" clip-path="url(#p6d916ec6ad)" style="fill: none; stroke: #cccccc; stroke-linecap: round"/>
     </g>
     <g id="text_1">
      <!-- 0.00 -->
      <g style="fill: #262626" transform="translate(40.167884 391.233594) scale(0.11 -0.11)">
       <defs>
        <path id="ArialMT-30" d="M 266 2259 
Q 266 3072 433 3567 
Q 600 4063 929 4331 
Q 1259 4600 1759 4600 
Q 2128 4600 2406 4451 
Q 2684 4303 2865 4023 
Q 3047 3744 3150 3342 
Q 3253 2941 3253 2259 
Q 3253 1453 3087 958 
Q 2922 463 2592 192 
Q 2263 -78 1759 -78 
Q 1097 -78 719 397 
Q 266 969 266 2259 
z
M 844 2259 
Q 844 1131 1108 757 
Q 1372 384 1759 384 
Q 2147 384 2411 759 
Q 2675 1134 2675 2259 
Q 2675 3391 2411 3762 
Q 2147 4134 1753 4134 
Q 1366 4134 1134 3806 
Q 844 3388 844 2259 
z
" transform="scale(0.015625)"/>
        <path id="ArialMT-2e" d="M 581 0 
L 581 641 
L 1222 641 
L 1222 0 
L 581 0 
z
" transform="scale(0.015625)"/>
       </defs>
       <use xlink:href="#ArialMT-30"/>
       <use xlink:href="#ArialMT-2e" x="55.615234"/>
       <use xlink:href="#ArialMT-30" x="83.398438"/>
       <use xlink:href="#ArialMT-30" x="139.013672"/>
      </g>
     </g>
    </g>
    <g id="xtick_2">
     <g id="line2d_2">
      <path d="M 206.469226 373.86 
L 206.469226 7.2 
" clip-path="url(#p6d916ec6ad)" style="fill: none; stroke: #cccccc; stroke-linecap: round"/>
     </g>
     <g id="text_2">
      <!-- 0.02 -->
      <g style="fill: #262626" transform="translate(195.76571 391.233594) scale(0.11 -0.11)">
       <defs>
        <path id="ArialMT-32" d="M 3222 541 
L 3222 0 
L 194 0 
Q 188 203 259 391 
Q 375 700 629 1000 
Q 884 1300 1366 1694 
Q 2113 2306 2375 2664 
Q 2638 3022 2638 3341 
Q 2638 3675 2398 3904 
Q 2159 4134 1775 4134 
Q 1369 4134 1125 3890 
Q 881 3647 878 3216 
L 300 3275 
Q 359 3922 746 4261 
Q 1134 4600 1788 4600 
Q 2447 4600 2831 4234 
Q 3216 3869 3216 3328 
Q 3216 3053 3103 2787 
Q 2991 2522 2730 2228 
Q 2469 1934 1863 1422 
Q 1356 997 1212 845 
Q 1069 694 975 541 
L 3222 541 
z
" transform="scale(0.015625)"/>
       </defs>
       <use xlink:href="#ArialMT-30"/>
       <use xlink:href="#ArialMT-2e" x="55.615234"/>
       <use xlink:href="#ArialMT-30" x="83.398438"/>
       <use xlink:href="#ArialMT-32" x="139.013672"/>
      </g>
     </g>
    </g>
    <g id="xtick_3">
     <g id="line2d_3">
      <path d="M 362.067052 373.86 
L 362.067052 7.2 
" clip-path="url(#p6d916ec6ad)" style="fill: none; stroke: #cccccc; stroke-linecap: round"/>
     </g>
     <g id="text_3">
      <!-- 0.04 -->
      <g style="fill: #262626" transform="translate(351.363536 391.233594) scale(0.11 -0.11)">
       <defs>
        <path id="ArialMT-34" d="M 2069 0 
L 2069 1097 
L 81 1097 
L 81 1613 
L 2172 4581 
L 2631 4581 
L 2631 1613 
L 3250 1613 
L 3250 1097 
L 2631 1097 
L 2631 0 
L 2069 0 
z
M 2069 1613 
L 2069 3678 
L 634 1613 
L 2069 1613 
z
" transform="scale(0.015625)"/>
       </defs>
       <use xlink:href="#ArialMT-30"/>
       <use xlink:href="#ArialMT-2e" x="55.615234"/>
       <use xlink:href="#ArialMT-30" x="83.398438"/>
       <use xlink:href="#ArialMT-34" x="139.013672"/>
      </g>
     </g>
    </g>
    <g id="xtick_4">
     <g id="line2d_4">
      <path d="M 517.664878 373.86 
L 517.664878 7.2 
" clip-path="url(#p6d916ec6ad)" style="fill: none; stroke: #cccccc; stroke-linecap: round"/>
     </g>
     <g id="text_4">
      <!-- 0.06 -->
      <g style="fill: #262626" transform="translate(506.961362 391.233594) scale(0.11 -0.11)">
       <defs>
        <path id="ArialMT-36" d="M 3184 3459 
L 2625 3416 
Q 2550 3747 2413 3897 
Q 2184 4138 1850 4138 
Q 1581 4138 1378 3988 
Q 1113 3794 959 3422 
Q 806 3050 800 2363 
Q 1003 2672 1297 2822 
Q 1591 2972 1913 2972 
Q 2475 2972 2870 2558 
Q 3266 2144 3266 1488 
Q 3266 1056 3080 686 
Q 2894 316 2569 119 
Q 2244 -78 1831 -78 
Q 1128 -78 684 439 
Q 241 956 241 2144 
Q 241 3472 731 4075 
Q 1159 4600 1884 4600 
Q 2425 4600 2770 4297 
Q 3116 3994 3184 3459 
z
M 888 1484 
Q 888 1194 1011 928 
Q 1134 663 1356 523 
Q 1578 384 1822 384 
Q 2178 384 2434 671 
Q 2691 959 2691 1453 
Q 2691 1928 2437 2201 
Q 2184 2475 1800 2475 
Q 1419 2475 1153 2201 
Q 888 1928 888 1484 
z
" transform="scale(0.015625)"/>
       </defs>
       <use xlink:href="#ArialMT-30"/>
       <use xlink:href="#ArialMT-2e" x="55.615234"/>
       <use xlink:href="#ArialMT-30" x="83.398438"/>
       <use xlink:href="#ArialMT-36" x="139.013672"/>
      </g>
     </g>
    </g>
    <g id="xtick_5">
     <g id="line2d_5">
      <path d="M 673.262704 373.86 
L 673.262704 7.2 
" clip-path="url(#p6d916ec6ad)" style="fill: none; stroke: #cccccc; stroke-linecap: round"/>
     </g>
     <g id="text_5">
      <!-- 0.08 -->
      <g style="fill: #262626" transform="translate(662.559188 391.233594) scale(0.11 -0.11)">
       <defs>
        <path id="ArialMT-38" d="M 1131 2484 
Q 781 2613 612 2850 
Q 444 3088 444 3419 
Q 444 3919 803 4259 
Q 1163 4600 1759 4600 
Q 2359 4600 2725 4251 
Q 3091 3903 3091 3403 
Q 3091 3084 2923 2848 
Q 2756 2613 2416 2484 
Q 2838 2347 3058 2040 
Q 3278 1734 3278 1309 
Q 3278 722 2862 322 
Q 2447 -78 1769 -78 
Q 1091 -78 675 323 
Q 259 725 259 1325 
Q 259 1772 486 2073 
Q 713 2375 1131 2484 
z
M 1019 3438 
Q 1019 3113 1228 2906 
Q 1438 2700 1772 2700 
Q 2097 2700 2305 2904 
Q 2513 3109 2513 3406 
Q 2513 3716 2298 3927 
Q 2084 4138 1766 4138 
Q 1444 4138 1231 3931 
Q 1019 3725 1019 3438 
z
M 838 1322 
Q 838 1081 952 856 
Q 1066 631 1291 507 
Q 1516 384 1775 384 
Q 2178 384 2440 643 
Q 2703 903 2703 1303 
Q 2703 1709 2433 1975 
Q 2163 2241 1756 2241 
Q 1359 2241 1098 1978 
Q 838 1716 838 1322 
z
" transform="scale(0.015625)"/>
       </defs>
       <use xlink:href="#ArialMT-30"/>
       <use xlink:href="#ArialMT-2e" x="55.615234"/>
       <use xlink:href="#ArialMT-30" x="83.398438"/>
       <use xlink:href="#ArialMT-38" x="139.013672"/>
      </g>
     </g>
    </g>
    <g id="xtick_6">
     <g id="line2d_6">
      <path d="M 828.86053 373.86 
L 828.86053 7.2 
" clip-path="url(#p6d916ec6ad)" style="fill: none; stroke: #cccccc; stroke-linecap: round"/>
     </g>
     <g id="text_6">
      <!-- 0.10 -->
      <g style="fill: #262626" transform="translate(818.157014 391.233594) scale(0.11 -0.11)">
       <defs>
        <path id="ArialMT-31" d="M 2384 0 
L 1822 0 
L 1822 3584 
Q 1619 3391 1289 3197 
Q 959 3003 697 2906 
L 697 3450 
Q 1169 3672 1522 3987 
Q 1875 4303 2022 4600 
L 2384 4600 
L 2384 0 
z
" transform="scale(0.015625)"/>
       </defs>
       <use xlink:href="#ArialMT-30"/>
       <use xlink:href="#ArialMT-2e" x="55.615234"/>
       <use xlink:href="#ArialMT-31" x="83.398438"/>
       <use xlink:href="#ArialMT-30" x="139.013672"/>
      </g>
     </g>
    </g>
    <g id="text_7">
     <!-- Epsilon $\varepsilon$ -->
     <g style="fill: #262626" transform="translate(415.160937 406.779844) scale(0.13 -0.13)">
      <defs>
       <path id="ArialMT-45" d="M 506 0 
L 506 4581 
L 3819 4581 
L 3819 4041 
L 1113 4041 
L 1113 2638 
L 3647 2638 
L 3647 2100 
L 1113 2100 
L 1113 541 
L 3925 541 
L 3925 0 
L 506 0 
z
" transform="scale(0.015625)"/>
       <path id="ArialMT-70" d="M 422 -1272 
L 422 3319 
L 934 3319 
L 934 2888 
Q 1116 3141 1344 3267 
Q 1572 3394 1897 3394 
Q 2322 3394 2647 3175 
Q 2972 2956 3137 2557 
Q 3303 2159 3303 1684 
Q 3303 1175 3120 767 
Q 2938 359 2589 142 
Q 2241 -75 1856 -75 
Q 1575 -75 1351 44 
Q 1128 163 984 344 
L 984 -1272 
L 422 -1272 
z
M 931 1641 
Q 931 1000 1190 694 
Q 1450 388 1819 388 
Q 2194 388 2461 705 
Q 2728 1022 2728 1688 
Q 2728 2322 2467 2637 
Q 2206 2953 1844 2953 
Q 1484 2953 1207 2617 
Q 931 2281 931 1641 
z
" transform="scale(0.015625)"/>
       <path id="ArialMT-73" d="M 197 991 
L 753 1078 
Q 800 744 1014 566 
Q 1228 388 1613 388 
Q 2000 388 2187 545 
Q 2375 703 2375 916 
Q 2375 1106 2209 1216 
Q 2094 1291 1634 1406 
Q 1016 1563 777 1677 
Q 538 1791 414 1992 
Q 291 2194 291 2438 
Q 291 2659 392 2848 
Q 494 3038 669 3163 
Q 800 3259 1026 3326 
Q 1253 3394 1513 3394 
Q 1903 3394 2198 3281 
Q 2494 3169 2634 2976 
Q 2775 2784 2828 2463 
L 2278 2388 
Q 2241 2644 2061 2787 
Q 1881 2931 1553 2931 
Q 1166 2931 1000 2803 
Q 834 2675 834 2503 
Q 834 2394 903 2306 
Q 972 2216 1119 2156 
Q 1203 2125 1616 2013 
Q 2213 1853 2448 1751 
Q 2684 1650 2818 1456 
Q 2953 1263 2953 975 
Q 2953 694 2789 445 
Q 2625 197 2315 61 
Q 2006 -75 1616 -75 
Q 969 -75 630 194 
Q 291 463 197 991 
z
" transform="scale(0.015625)"/>
       <path id="ArialMT-69" d="M 425 3934 
L 425 4581 
L 988 4581 
L 988 3934 
L 425 3934 
z
M 425 0 
L 425 3319 
L 988 3319 
L 988 0 
L 425 0 
z
" transform="scale(0.015625)"/>
       <path id="ArialMT-6c" d="M 409 0 
L 409 4581 
L 972 4581 
L 972 0 
L 409 0 
z
" transform="scale(0.015625)"/>
       <path id="ArialMT-6f" d="M 213 1659 
Q 213 2581 725 3025 
Q 1153 3394 1769 3394 
Q 2453 3394 2887 2945 
Q 3322 2497 3322 1706 
Q 3322 1066 3130 698 
Q 2938 331 2570 128 
Q 2203 -75 1769 -75 
Q 1072 -75 642 372 
Q 213 819 213 1659 
z
M 791 1659 
Q 791 1022 1069 705 
Q 1347 388 1769 388 
Q 2188 388 2466 706 
Q 2744 1025 2744 1678 
Q 2744 2294 2464 2611 
Q 2184 2928 1769 2928 
Q 1347 2928 1069 2612 
Q 791 2297 791 1659 
z
" transform="scale(0.015625)"/>
       <path id="ArialMT-6e" d="M 422 0 
L 422 3319 
L 928 3319 
L 928 2847 
Q 1294 3394 1984 3394 
Q 2284 3394 2536 3286 
Q 2788 3178 2913 3003 
Q 3038 2828 3088 2588 
Q 3119 2431 3119 2041 
L 3119 0 
L 2556 0 
L 2556 2019 
Q 2556 2363 2490 2533 
Q 2425 2703 2258 2804 
Q 2091 2906 1866 2906 
Q 1506 2906 1245 2678 
Q 984 2450 984 1813 
L 984 0 
L 422 0 
z
" transform="scale(0.015625)"/>
       <path id="ArialMT-20" transform="scale(0.015625)"/>
       <path id="DejaVuSans-Oblique-3b5" d="M 1263 1888 
Q 925 1963 778 2166 
Q 669 2309 669 2503 
Q 669 3034 1175 3344 
Q 1575 3588 2188 3588 
Q 2425 3588 2684 3550 
Q 2944 3513 3234 3438 
L 3134 2916 
Q 2847 3006 2606 3047 
Q 2359 3088 2138 3088 
Q 1766 3088 1522 2944 
Q 1228 2772 1228 2522 
Q 1228 2356 1381 2241 
Q 1563 2103 1925 2103 
L 2409 2103 
L 2319 1628 
L 1856 1628 
Q 1425 1628 1172 1469 
Q 828 1253 828 916 
Q 828 703 1013 563 
Q 1244 388 1716 388 
Q 2006 388 2284 444 
Q 2563 503 2806 619 
L 2700 84 
Q 2403 -3 2131 -47 
Q 1859 -91 1609 -91 
Q 866 -91 516 194 
Q 250 413 250 781 
Q 250 1278 600 1584 
Q 859 1813 1263 1888 
z
" transform="scale(0.015625)"/>
      </defs>
      <use xlink:href="#ArialMT-45" transform="translate(0 0.421875)"/>
      <use xlink:href="#ArialMT-70" transform="translate(66.699219 0.421875)"/>
      <use xlink:href="#ArialMT-73" transform="translate(122.314453 0.421875)"/>
      <use xlink:href="#ArialMT-69" transform="translate(172.314453 0.421875)"/>
      <use xlink:href="#ArialMT-6c" transform="translate(194.53125 0.421875)"/>
      <use xlink:href="#ArialMT-6f" transform="translate(216.748047 0.421875)"/>
      <use xlink:href="#ArialMT-6e" transform="translate(272.363281 0.421875)"/>
      <use xlink:href="#ArialMT-20" transform="translate(327.978516 0.421875)"/>
      <use xlink:href="#DejaVuSans-Oblique-3b5" transform="translate(355.761719 0.421875)"/>
     </g>
    </g>
   </g>
   <g id="matplotlib.axis_2">
    <g id="ytick_1">
     <g id="line2d_7">
      <path d="M 39.201563 357.467772 
L 844.420312 357.467772 
" clip-path="url(#p6d916ec6ad)" style="fill: none; stroke: #cccccc; stroke-linecap: round"/>
     </g>
     <g id="text_8">
      <!-- 3 -->
      <g style="fill: #262626" transform="translate(23.584531 361.404569) scale(0.11 -0.11)">
       <defs>
        <path id="ArialMT-33" d="M 269 1209 
L 831 1284 
Q 928 806 1161 595 
Q 1394 384 1728 384 
Q 2125 384 2398 659 
Q 2672 934 2672 1341 
Q 2672 1728 2419 1979 
Q 2166 2231 1775 2231 
Q 1616 2231 1378 2169 
L 1441 2663 
Q 1497 2656 1531 2656 
Q 1891 2656 2178 2843 
Q 2466 3031 2466 3422 
Q 2466 3731 2256 3934 
Q 2047 4138 1716 4138 
Q 1388 4138 1169 3931 
Q 950 3725 888 3313 
L 325 3413 
Q 428 3978 793 4289 
Q 1159 4600 1703 4600 
Q 2078 4600 2393 4439 
Q 2709 4278 2876 4000 
Q 3044 3722 3044 3409 
Q 3044 3113 2884 2869 
Q 2725 2625 2413 2481 
Q 2819 2388 3044 2092 
Q 3269 1797 3269 1353 
Q 3269 753 2831 336 
Q 2394 -81 1725 -81 
Q 1122 -81 723 278 
Q 325 638 269 1209 
z
" transform="scale(0.015625)"/>
       </defs>
       <use xlink:href="#ArialMT-33"/>
      </g>
     </g>
    </g>
    <g id="ytick_2">
     <g id="line2d_8">
      <path d="M 39.201563 285.564469 
L 844.420312 285.564469 
" clip-path="url(#p6d916ec6ad)" style="fill: none; stroke: #cccccc; stroke-linecap: round"/>
     </g>
     <g id="text_9">
      <!-- 4 -->
      <g style="fill: #262626" transform="translate(23.584531 289.501266) scale(0.11 -0.11)">
       <use xlink:href="#ArialMT-34"/>
      </g>
     </g>
    </g>
    <g id="ytick_3">
     <g id="line2d_9">
      <path d="M 39.201563 213.661166 
L 844.420312 213.661166 
" clip-path="url(#p6d916ec6ad)" style="fill: none; stroke: #cccccc; stroke-linecap: round"/>
     </g>
     <g id="text_10">
      <!-- 5 -->
      <g style="fill: #262626" transform="translate(23.584531 217.597962) scale(0.11 -0.11)">
       <defs>
        <path id="ArialMT-35" d="M 266 1200 
L 856 1250 
Q 922 819 1161 601 
Q 1400 384 1738 384 
Q 2144 384 2425 690 
Q 2706 997 2706 1503 
Q 2706 1984 2436 2262 
Q 2166 2541 1728 2541 
Q 1456 2541 1237 2417 
Q 1019 2294 894 2097 
L 366 2166 
L 809 4519 
L 3088 4519 
L 3088 3981 
L 1259 3981 
L 1013 2750 
Q 1425 3038 1878 3038 
Q 2478 3038 2890 2622 
Q 3303 2206 3303 1553 
Q 3303 931 2941 478 
Q 2500 -78 1738 -78 
Q 1113 -78 717 272 
Q 322 622 266 1200 
z
" transform="scale(0.015625)"/>
       </defs>
       <use xlink:href="#ArialMT-35"/>
      </g>
     </g>
    </g>
    <g id="ytick_4">
     <g id="line2d_10">
      <path d="M 39.201563 141.757862 
L 844.420312 141.757862 
" clip-path="url(#p6d916ec6ad)" style="fill: none; stroke: #cccccc; stroke-linecap: round"/>
     </g>
     <g id="text_11">
      <!-- 6 -->
      <g style="fill: #262626" transform="translate(23.584531 145.694659) scale(0.11 -0.11)">
       <use xlink:href="#ArialMT-36"/>
      </g>
     </g>
    </g>
    <g id="ytick_5">
     <g id="line2d_11">
      <path d="M 39.201563 69.854559 
L 844.420312 69.854559 
" clip-path="url(#p6d916ec6ad)" style="fill: none; stroke: #cccccc; stroke-linecap: round"/>
     </g>
     <g id="text_12">
      <!-- 7 -->
      <g style="fill: #262626" transform="translate(23.584531 73.791356) scale(0.11 -0.11)">
       <defs>
        <path id="ArialMT-37" d="M 303 3981 
L 303 4522 
L 3269 4522 
L 3269 4084 
Q 2831 3619 2401 2847 
Q 1972 2075 1738 1259 
Q 1569 684 1522 0 
L 944 0 
Q 953 541 1156 1306 
Q 1359 2072 1739 2783 
Q 2119 3494 2547 3981 
L 303 3981 
z
" transform="scale(0.015625)"/>
       </defs>
       <use xlink:href="#ArialMT-37"/>
      </g>
     </g>
    </g>
    <g id="text_13">
     <!-- Ø Number of Shift Changes -->
     <g style="fill: #262626" transform="translate(16.848438 270.369297) rotate(-90) scale(0.13 -0.13)">
      <defs>
       <path id="ArialMT-d8" d="M 3906 4163 
L 4431 4750 
L 4741 4488 
L 4191 3869 
Q 4459 3469 4553 3169 
Q 4678 2775 4678 2288 
Q 4678 1584 4393 1034 
Q 4109 484 3595 203 
Q 3081 -78 2503 -78 
Q 2072 -78 1722 44 
Q 1453 138 1094 403 
L 569 -184 
L 259 78 
L 809 694 
Q 503 1159 400 1489 
Q 297 1819 297 2281 
Q 297 2988 578 3539 
Q 859 4091 1367 4375 
Q 1875 4659 2497 4659 
Q 2916 4659 3230 4548 
Q 3544 4438 3906 4163 
z
M 3531 3741 
Q 3238 3972 3017 4056 
Q 2797 4141 2500 4141 
Q 1816 4141 1369 3677 
Q 922 3213 922 2291 
Q 922 1928 991 1647 
Q 1041 1438 1200 1131 
L 3531 3741 
z
M 3788 3419 
L 1466 819 
Q 1706 622 1909 544 
Q 2175 441 2484 441 
Q 3166 441 3609 922 
Q 4053 1403 4053 2272 
Q 4053 2922 3788 3419 
z
" transform="scale(0.015625)"/>
       <path id="ArialMT-4e" d="M 488 0 
L 488 4581 
L 1109 4581 
L 3516 984 
L 3516 4581 
L 4097 4581 
L 4097 0 
L 3475 0 
L 1069 3600 
L 1069 0 
L 488 0 
z
" transform="scale(0.015625)"/>
       <path id="ArialMT-75" d="M 2597 0 
L 2597 488 
Q 2209 -75 1544 -75 
Q 1250 -75 995 37 
Q 741 150 617 320 
Q 494 491 444 738 
Q 409 903 409 1263 
L 409 3319 
L 972 3319 
L 972 1478 
Q 972 1038 1006 884 
Q 1059 663 1231 536 
Q 1403 409 1656 409 
Q 1909 409 2131 539 
Q 2353 669 2445 892 
Q 2538 1116 2538 1541 
L 2538 3319 
L 3100 3319 
L 3100 0 
L 2597 0 
z
" transform="scale(0.015625)"/>
       <path id="ArialMT-6d" d="M 422 0 
L 422 3319 
L 925 3319 
L 925 2853 
Q 1081 3097 1340 3245 
Q 1600 3394 1931 3394 
Q 2300 3394 2536 3241 
Q 2772 3088 2869 2813 
Q 3263 3394 3894 3394 
Q 4388 3394 4653 3120 
Q 4919 2847 4919 2278 
L 4919 0 
L 4359 0 
L 4359 2091 
Q 4359 2428 4304 2576 
Q 4250 2725 4106 2815 
Q 3963 2906 3769 2906 
Q 3419 2906 3187 2673 
Q 2956 2441 2956 1928 
L 2956 0 
L 2394 0 
L 2394 2156 
Q 2394 2531 2256 2718 
Q 2119 2906 1806 2906 
Q 1569 2906 1367 2781 
Q 1166 2656 1075 2415 
Q 984 2175 984 1722 
L 984 0 
L 422 0 
z
" transform="scale(0.015625)"/>
       <path id="ArialMT-62" d="M 941 0 
L 419 0 
L 419 4581 
L 981 4581 
L 981 2947 
Q 1338 3394 1891 3394 
Q 2197 3394 2470 3270 
Q 2744 3147 2920 2923 
Q 3097 2700 3197 2384 
Q 3297 2069 3297 1709 
Q 3297 856 2875 390 
Q 2453 -75 1863 -75 
Q 1275 -75 941 416 
L 941 0 
z
M 934 1684 
Q 934 1088 1097 822 
Q 1363 388 1816 388 
Q 2184 388 2453 708 
Q 2722 1028 2722 1663 
Q 2722 2313 2464 2622 
Q 2206 2931 1841 2931 
Q 1472 2931 1203 2611 
Q 934 2291 934 1684 
z
" transform="scale(0.015625)"/>
       <path id="ArialMT-65" d="M 2694 1069 
L 3275 997 
Q 3138 488 2766 206 
Q 2394 -75 1816 -75 
Q 1088 -75 661 373 
Q 234 822 234 1631 
Q 234 2469 665 2931 
Q 1097 3394 1784 3394 
Q 2450 3394 2872 2941 
Q 3294 2488 3294 1666 
Q 3294 1616 3291 1516 
L 816 1516 
Q 847 969 1125 678 
Q 1403 388 1819 388 
Q 2128 388 2347 550 
Q 2566 713 2694 1069 
z
M 847 1978 
L 2700 1978 
Q 2663 2397 2488 2606 
Q 2219 2931 1791 2931 
Q 1403 2931 1139 2672 
Q 875 2413 847 1978 
z
" transform="scale(0.015625)"/>
       <path id="ArialMT-72" d="M 416 0 
L 416 3319 
L 922 3319 
L 922 2816 
Q 1116 3169 1280 3281 
Q 1444 3394 1641 3394 
Q 1925 3394 2219 3213 
L 2025 2691 
Q 1819 2813 1613 2813 
Q 1428 2813 1281 2702 
Q 1134 2591 1072 2394 
Q 978 2094 978 1738 
L 978 0 
L 416 0 
z
" transform="scale(0.015625)"/>
       <path id="ArialMT-66" d="M 556 0 
L 556 2881 
L 59 2881 
L 59 3319 
L 556 3319 
L 556 3672 
Q 556 4006 616 4169 
Q 697 4388 901 4523 
Q 1106 4659 1475 4659 
Q 1713 4659 2000 4603 
L 1916 4113 
Q 1741 4144 1584 4144 
Q 1328 4144 1222 4034 
Q 1116 3925 1116 3625 
L 1116 3319 
L 1763 3319 
L 1763 2881 
L 1116 2881 
L 1116 0 
L 556 0 
z
" transform="scale(0.015625)"/>
       <path id="ArialMT-53" d="M 288 1472 
L 859 1522 
Q 900 1178 1048 958 
Q 1197 738 1509 602 
Q 1822 466 2213 466 
Q 2559 466 2825 569 
Q 3091 672 3220 851 
Q 3350 1031 3350 1244 
Q 3350 1459 3225 1620 
Q 3100 1781 2813 1891 
Q 2628 1963 1997 2114 
Q 1366 2266 1113 2400 
Q 784 2572 623 2826 
Q 463 3081 463 3397 
Q 463 3744 659 4045 
Q 856 4347 1234 4503 
Q 1613 4659 2075 4659 
Q 2584 4659 2973 4495 
Q 3363 4331 3572 4012 
Q 3781 3694 3797 3291 
L 3216 3247 
Q 3169 3681 2898 3903 
Q 2628 4125 2100 4125 
Q 1550 4125 1298 3923 
Q 1047 3722 1047 3438 
Q 1047 3191 1225 3031 
Q 1400 2872 2139 2705 
Q 2878 2538 3153 2413 
Q 3553 2228 3743 1945 
Q 3934 1663 3934 1294 
Q 3934 928 3725 604 
Q 3516 281 3123 101 
Q 2731 -78 2241 -78 
Q 1619 -78 1198 103 
Q 778 284 539 648 
Q 300 1013 288 1472 
z
" transform="scale(0.015625)"/>
       <path id="ArialMT-68" d="M 422 0 
L 422 4581 
L 984 4581 
L 984 2938 
Q 1378 3394 1978 3394 
Q 2347 3394 2619 3248 
Q 2891 3103 3008 2847 
Q 3125 2591 3125 2103 
L 3125 0 
L 2563 0 
L 2563 2103 
Q 2563 2525 2380 2717 
Q 2197 2909 1863 2909 
Q 1613 2909 1392 2779 
Q 1172 2650 1078 2428 
Q 984 2206 984 1816 
L 984 0 
L 422 0 
z
" transform="scale(0.015625)"/>
       <path id="ArialMT-74" d="M 1650 503 
L 1731 6 
Q 1494 -44 1306 -44 
Q 1000 -44 831 53 
Q 663 150 594 308 
Q 525 466 525 972 
L 525 2881 
L 113 2881 
L 113 3319 
L 525 3319 
L 525 4141 
L 1084 4478 
L 1084 3319 
L 1650 3319 
L 1650 2881 
L 1084 2881 
L 1084 941 
Q 1084 700 1114 631 
Q 1144 563 1211 522 
Q 1278 481 1403 481 
Q 1497 481 1650 503 
z
" transform="scale(0.015625)"/>
       <path id="ArialMT-43" d="M 3763 1606 
L 4369 1453 
Q 4178 706 3683 314 
Q 3188 -78 2472 -78 
Q 1731 -78 1267 223 
Q 803 525 561 1097 
Q 319 1669 319 2325 
Q 319 3041 592 3573 
Q 866 4106 1370 4382 
Q 1875 4659 2481 4659 
Q 3169 4659 3637 4309 
Q 4106 3959 4291 3325 
L 3694 3184 
Q 3534 3684 3231 3912 
Q 2928 4141 2469 4141 
Q 1941 4141 1586 3887 
Q 1231 3634 1087 3207 
Q 944 2781 944 2328 
Q 944 1744 1114 1308 
Q 1284 872 1643 656 
Q 2003 441 2422 441 
Q 2931 441 3284 734 
Q 3638 1028 3763 1606 
z
" transform="scale(0.015625)"/>
       <path id="ArialMT-61" d="M 2588 409 
Q 2275 144 1986 34 
Q 1697 -75 1366 -75 
Q 819 -75 525 192 
Q 231 459 231 875 
Q 231 1119 342 1320 
Q 453 1522 633 1644 
Q 813 1766 1038 1828 
Q 1203 1872 1538 1913 
Q 2219 1994 2541 2106 
Q 2544 2222 2544 2253 
Q 2544 2597 2384 2738 
Q 2169 2928 1744 2928 
Q 1347 2928 1158 2789 
Q 969 2650 878 2297 
L 328 2372 
Q 403 2725 575 2942 
Q 747 3159 1072 3276 
Q 1397 3394 1825 3394 
Q 2250 3394 2515 3294 
Q 2781 3194 2906 3042 
Q 3031 2891 3081 2659 
Q 3109 2516 3109 2141 
L 3109 1391 
Q 3109 606 3145 398 
Q 3181 191 3288 0 
L 2700 0 
Q 2613 175 2588 409 
z
M 2541 1666 
Q 2234 1541 1622 1453 
Q 1275 1403 1131 1340 
Q 988 1278 909 1158 
Q 831 1038 831 891 
Q 831 666 1001 516 
Q 1172 366 1500 366 
Q 1825 366 2078 508 
Q 2331 650 2450 897 
Q 2541 1088 2541 1459 
L 2541 1666 
z
" transform="scale(0.015625)"/>
       <path id="ArialMT-67" d="M 319 -275 
L 866 -356 
Q 900 -609 1056 -725 
Q 1266 -881 1628 -881 
Q 2019 -881 2231 -725 
Q 2444 -569 2519 -288 
Q 2563 -116 2559 434 
Q 2191 0 1641 0 
Q 956 0 581 494 
Q 206 988 206 1678 
Q 206 2153 378 2554 
Q 550 2956 876 3175 
Q 1203 3394 1644 3394 
Q 2231 3394 2613 2919 
L 2613 3319 
L 3131 3319 
L 3131 450 
Q 3131 -325 2973 -648 
Q 2816 -972 2473 -1159 
Q 2131 -1347 1631 -1347 
Q 1038 -1347 672 -1080 
Q 306 -813 319 -275 
z
M 784 1719 
Q 784 1066 1043 766 
Q 1303 466 1694 466 
Q 2081 466 2343 764 
Q 2606 1063 2606 1700 
Q 2606 2309 2336 2618 
Q 2066 2928 1684 2928 
Q 1309 2928 1046 2623 
Q 784 2319 784 1719 
z
" transform="scale(0.015625)"/>
      </defs>
      <use xlink:href="#ArialMT-d8"/>
      <use xlink:href="#ArialMT-20" x="77.783203"/>
      <use xlink:href="#ArialMT-4e" x="105.566406"/>
      <use xlink:href="#ArialMT-75" x="177.783203"/>
      <use xlink:href="#ArialMT-6d" x="233.398438"/>
      <use xlink:href="#ArialMT-62" x="316.699219"/>
      <use xlink:href="#ArialMT-65" x="372.314453"/>
      <use xlink:href="#ArialMT-72" x="427.929688"/>
      <use xlink:href="#ArialMT-20" x="461.230469"/>
      <use xlink:href="#ArialMT-6f" x="489.013672"/>
      <use xlink:href="#ArialMT-66" x="544.628906"/>
      <use xlink:href="#ArialMT-20" x="572.412109"/>
      <use xlink:href="#ArialMT-53" x="600.195312"/>
      <use xlink:href="#ArialMT-68" x="666.894531"/>
      <use xlink:href="#ArialMT-69" x="722.509766"/>
      <use xlink:href="#ArialMT-66" x="744.726562"/>
      <use xlink:href="#ArialMT-74" x="772.509766"/>
      <use xlink:href="#ArialMT-20" x="800.292969"/>
      <use xlink:href="#ArialMT-43" x="828.076172"/>
      <use xlink:href="#ArialMT-68" x="900.292969"/>
      <use xlink:href="#ArialMT-61" x="955.908203"/>
      <use xlink:href="#ArialMT-6e" x="1011.523438"/>
      <use xlink:href="#ArialMT-67" x="1067.138672"/>
      <use xlink:href="#ArialMT-65" x="1122.753906"/>
      <use xlink:href="#ArialMT-73" x="1178.369141"/>
     </g>
    </g>
   </g>
   <g id="PathCollection_1">
    <defs>
     <path id="m7d040ab8ba" d="M 0 3 
C 0.795609 3 1.55874 2.683901 2.12132 2.12132 
C 2.683901 1.55874 3 0.795609 3 0 
C 3 -0.795609 2.683901 -1.55874 2.12132 -2.12132 
C 1.55874 -2.683901 0.795609 -3 0 -3 
C -0.795609 -3 -1.55874 -2.683901 -2.12132 -2.12132 
C -2.683901 -1.55874 -3 -0.795609 -3 0 
C -3 0.795609 -2.683901 1.55874 -2.12132 2.12132 
C -1.55874 2.683901 -0.795609 3 0 3 
z
" style="stroke: #ffffff; stroke-width: 0.48"/>
    </defs>
    <g clip-path="url(#p6d916ec6ad)">
     <use xlink:href="#m7d040ab8ba" x="50.871399" y="63.412023" style="fill: #251255; stroke: #ffffff; stroke-width: 0.48"/>
     <use xlink:href="#m7d040ab8ba" x="50.871399" y="55.330091" style="fill: #251255; stroke: #ffffff; stroke-width: 0.48"/>
     <use xlink:href="#m7d040ab8ba" x="50.871399" y="26.640673" style="fill: #251255; stroke: #ffffff; stroke-width: 0.48"/>
     <use xlink:href="#m7d040ab8ba" x="50.871399" y="35.197166" style="fill: #251255; stroke: #ffffff; stroke-width: 0.48"/>
     <use xlink:href="#m7d040ab8ba" x="50.871399" y="61.298066" style="fill: #251255; stroke: #ffffff; stroke-width: 0.48"/>
     <use xlink:href="#m7d040ab8ba" x="206.469226" y="273.604074" style="fill: #251255; stroke: #ffffff; stroke-width: 0.48"/>
     <use xlink:href="#m7d040ab8ba" x="206.469226" y="286.973774" style="fill: #251255; stroke: #ffffff; stroke-width: 0.48"/>
     <use xlink:href="#m7d040ab8ba" x="206.469226" y="311.250486" style="fill: #251255; stroke: #ffffff; stroke-width: 0.48"/>
     <use xlink:href="#m7d040ab8ba" x="206.469226" y="313.400395" style="fill: #251255; stroke: #ffffff; stroke-width: 0.48"/>
     <use xlink:href="#m7d040ab8ba" x="206.469226" y="314.332981" style="fill: #251255; stroke: #ffffff; stroke-width: 0.48"/>
     <use xlink:href="#m7d040ab8ba" x="362.067052" y="263.288826" style="fill: #251255; stroke: #ffffff; stroke-width: 0.48"/>
     <use xlink:href="#m7d040ab8ba" x="362.067052" y="295.609361" style="fill: #251255; stroke: #ffffff; stroke-width: 0.48"/>
     <use xlink:href="#m7d040ab8ba" x="362.067052" y="311.456849" style="fill: #251255; stroke: #ffffff; stroke-width: 0.48"/>
     <use xlink:href="#m7d040ab8ba" x="362.067052" y="316.062974" style="fill: #251255; stroke: #ffffff; stroke-width: 0.48"/>
     <use xlink:href="#m7d040ab8ba" x="362.067052" y="318.269687" style="fill: #251255; stroke: #ffffff; stroke-width: 0.48"/>
     <use xlink:href="#m7d040ab8ba" x="517.664878" y="275.597952" style="fill: #251255; stroke: #ffffff; stroke-width: 0.48"/>
     <use xlink:href="#m7d040ab8ba" x="517.664878" y="293.381077" style="fill: #251255; stroke: #ffffff; stroke-width: 0.48"/>
     <use xlink:href="#m7d040ab8ba" x="517.664878" y="319.17423" style="fill: #251255; stroke: #ffffff; stroke-width: 0.48"/>
     <use xlink:href="#m7d040ab8ba" x="517.664878" y="325.324839" style="fill: #251255; stroke: #ffffff; stroke-width: 0.48"/>
     <use xlink:href="#m7d040ab8ba" x="517.664878" y="327.325189" style="fill: #251255; stroke: #ffffff; stroke-width: 0.48"/>
     <use xlink:href="#m7d040ab8ba" x="673.262704" y="270.707089" style="fill: #251255; stroke: #ffffff; stroke-width: 0.48"/>
     <use xlink:href="#m7d040ab8ba" x="673.262704" y="305.654971" style="fill: #251255; stroke: #ffffff; stroke-width: 0.48"/>
     <use xlink:href="#m7d040ab8ba" x="673.262704" y="328.799206" style="fill: #251255; stroke: #ffffff; stroke-width: 0.48"/>
     <use xlink:href="#m7d040ab8ba" x="673.262704" y="331.810517" style="fill: #251255; stroke: #ffffff; stroke-width: 0.48"/>
     <use xlink:href="#m7d040ab8ba" x="673.262704" y="339.513518" style="fill: #251255; stroke: #ffffff; stroke-width: 0.48"/>
     <use xlink:href="#m7d040ab8ba" x="828.86053" y="277.014447" style="fill: #251255; stroke: #ffffff; stroke-width: 0.48"/>
     <use xlink:href="#m7d040ab8ba" x="828.86053" y="310.239526" style="fill: #251255; stroke: #ffffff; stroke-width: 0.48"/>
     <use xlink:href="#m7d040ab8ba" x="828.86053" y="340.844448" style="fill: #251255; stroke: #ffffff; stroke-width: 0.48"/>
     <use xlink:href="#m7d040ab8ba" x="828.86053" y="350.967714" style="fill: #251255; stroke: #ffffff; stroke-width: 0.48"/>
     <use xlink:href="#m7d040ab8ba" x="828.86053" y="363.369596" style="fill: #251255; stroke: #ffffff; stroke-width: 0.48"/>
    </g>
   </g>
   <g id="PathCollection_2">
    <defs>
     <path id="m4b754ed051" d="M -3 3 
L 3 3 
L 3 -3 
L -3 -3 
z
" style="stroke: #ffffff; stroke-width: 0.48"/>
    </defs>
    <g clip-path="url(#p6d916ec6ad)">
     <use xlink:href="#m4b754ed051" x="50.871399" y="46.414082" style="fill: #251255; stroke: #ffffff; stroke-width: 0.48"/>
     <use xlink:href="#m4b754ed051" x="50.871399" y="46.414082" style="fill: #251255; stroke: #ffffff; stroke-width: 0.48"/>
     <use xlink:href="#m4b754ed051" x="50.871399" y="46.414082" style="fill: #251255; stroke: #ffffff; stroke-width: 0.48"/>
     <use xlink:href="#m4b754ed051" x="50.871399" y="46.414082" style="fill: #251255; stroke: #ffffff; stroke-width: 0.48"/>
     <use xlink:href="#m4b754ed051" x="50.871399" y="46.414082" style="fill: #251255; stroke: #ffffff; stroke-width: 0.48"/>
     <use xlink:href="#m4b754ed051" x="206.469226" y="46.414082" style="fill: #251255; stroke: #ffffff; stroke-width: 0.48"/>
     <use xlink:href="#m4b754ed051" x="206.469226" y="46.414082" style="fill: #251255; stroke: #ffffff; stroke-width: 0.48"/>
     <use xlink:href="#m4b754ed051" x="206.469226" y="46.414082" style="fill: #251255; stroke: #ffffff; stroke-width: 0.48"/>
     <use xlink:href="#m4b754ed051" x="206.469226" y="46.414082" style="fill: #251255; stroke: #ffffff; stroke-width: 0.48"/>
     <use xlink:href="#m4b754ed051" x="206.469226" y="46.414082" style="fill: #251255; stroke: #ffffff; stroke-width: 0.48"/>
     <use xlink:href="#m4b754ed051" x="362.067052" y="46.414082" style="fill: #251255; stroke: #ffffff; stroke-width: 0.48"/>
     <use xlink:href="#m4b754ed051" x="362.067052" y="46.414082" style="fill: #251255; stroke: #ffffff; stroke-width: 0.48"/>
     <use xlink:href="#m4b754ed051" x="362.067052" y="46.414082" style="fill: #251255; stroke: #ffffff; stroke-width: 0.48"/>
     <use xlink:href="#m4b754ed051" x="362.067052" y="46.414082" style="fill: #251255; stroke: #ffffff; stroke-width: 0.48"/>
     <use xlink:href="#m4b754ed051" x="362.067052" y="46.414082" style="fill: #251255; stroke: #ffffff; stroke-width: 0.48"/>
     <use xlink:href="#m4b754ed051" x="517.664878" y="46.414082" style="fill: #251255; stroke: #ffffff; stroke-width: 0.48"/>
     <use xlink:href="#m4b754ed051" x="517.664878" y="46.414082" style="fill: #251255; stroke: #ffffff; stroke-width: 0.48"/>
     <use xlink:href="#m4b754ed051" x="517.664878" y="46.414082" style="fill: #251255; stroke: #ffffff; stroke-width: 0.48"/>
     <use xlink:href="#m4b754ed051" x="517.664878" y="46.414082" style="fill: #251255; stroke: #ffffff; stroke-width: 0.48"/>
     <use xlink:href="#m4b754ed051" x="517.664878" y="46.414082" style="fill: #251255; stroke: #ffffff; stroke-width: 0.48"/>
     <use xlink:href="#m4b754ed051" x="673.262704" y="46.414082" style="fill: #251255; stroke: #ffffff; stroke-width: 0.48"/>
     <use xlink:href="#m4b754ed051" x="673.262704" y="46.414082" style="fill: #251255; stroke: #ffffff; stroke-width: 0.48"/>
     <use xlink:href="#m4b754ed051" x="673.262704" y="46.414082" style="fill: #251255; stroke: #ffffff; stroke-width: 0.48"/>
     <use xlink:href="#m4b754ed051" x="673.262704" y="46.414082" style="fill: #251255; stroke: #ffffff; stroke-width: 0.48"/>
     <use xlink:href="#m4b754ed051" x="673.262704" y="46.414082" style="fill: #251255; stroke: #ffffff; stroke-width: 0.48"/>
     <use xlink:href="#m4b754ed051" x="828.86053" y="46.414082" style="fill: #251255; stroke: #ffffff; stroke-width: 0.48"/>
     <use xlink:href="#m4b754ed051" x="828.86053" y="46.414082" style="fill: #251255; stroke: #ffffff; stroke-width: 0.48"/>
     <use xlink:href="#m4b754ed051" x="828.86053" y="46.414082" style="fill: #251255; stroke: #ffffff; stroke-width: 0.48"/>
     <use xlink:href="#m4b754ed051" x="828.86053" y="46.414082" style="fill: #251255; stroke: #ffffff; stroke-width: 0.48"/>
     <use xlink:href="#m4b754ed051" x="828.86053" y="46.414082" style="fill: #251255; stroke: #ffffff; stroke-width: 0.48"/>
    </g>
   </g>
   <g id="PolyCollection_1">
    <defs>
     <path id="me8f8cab437" d="M 50.871399 -307.656334 
L 50.871399 -182.880224 
L 58.729876 -181.901797 
L 66.588352 -180.856272 
L 74.446828 -179.731277 
L 82.305304 -178.574943 
L 90.16378 -177.418609 
L 98.022256 -176.262275 
L 105.880732 -175.106481 
L 113.739208 -173.958641 
L 121.597684 -172.810801 
L 129.45616 -171.662961 
L 137.314636 -170.515121 
L 145.173112 -169.367281 
L 153.031588 -168.211151 
L 160.890064 -167.065248 
L 168.74854 -165.908267 
L 176.607016 -164.751287 
L 184.465493 -163.594307 
L 192.323969 -162.437327 
L 200.182445 -161.280346 
L 208.040921 -160.123366 
L 215.899397 -158.966386 
L 223.757873 -157.814906 
L 231.616349 -156.663627 
L 239.474825 -155.512348 
L 247.333301 -154.361069 
L 255.191777 -153.20979 
L 263.050253 -152.04775 
L 270.908729 -150.883676 
L 278.767205 -149.625063 
L 286.625681 -148.370941 
L 294.484157 -147.324711 
L 302.342634 -146.008626 
L 310.20111 -144.692541 
L 318.059586 -143.32021 
L 325.918062 -142.051282 
L 333.776538 -140.741372 
L 341.635014 -139.529536 
L 349.49349 -138.265266 
L 357.351966 -137.000995 
L 365.210442 -135.91393 
L 373.068918 -134.69038 
L 380.927394 -133.236355 
L 388.78587 -132.046306 
L 396.644346 -130.679644 
L 404.502822 -129.388658 
L 412.361298 -127.83478 
L 420.219775 -126.754347 
L 428.078251 -125.427971 
L 435.936727 -124.176244 
L 443.795203 -122.752453 
L 451.653679 -120.979299 
L 459.512155 -119.629755 
L 467.370631 -117.537605 
L 475.229107 -115.919716 
L 483.087583 -113.776456 
L 490.946059 -112.077387 
L 498.804535 -110.157804 
L 506.663011 -108.546483 
L 514.521487 -106.712745 
L 522.379963 -104.314145 
L 530.238439 -102.493704 
L 538.096915 -100.204216 
L 545.955392 -97.881971 
L 553.813868 -96.377976 
L 561.672344 -93.590032 
L 569.53082 -90.962019 
L 577.389296 -88.655682 
L 585.247772 -86.20405 
L 593.106248 -83.846736 
L 600.964724 -81.485226 
L 608.8232 -78.709072 
L 616.681676 -76.08233 
L 624.540152 -73.547619 
L 632.398628 -71.605709 
L 640.257104 -69.410618 
L 648.11558 -66.998877 
L 655.974056 -64.239435 
L 663.832533 -61.377177 
L 671.691009 -58.514919 
L 679.549485 -55.652661 
L 687.407961 -52.829823 
L 695.266437 -50.245998 
L 703.124913 -47.884606 
L 710.983389 -44.928542 
L 718.841865 -41.670783 
L 726.700341 -38.65061 
L 734.558817 -36.078461 
L 742.417293 -33.34156 
L 750.275769 -30.125593 
L 758.134245 -26.963586 
L 765.992721 -24.085326 
L 773.851197 -21.207065 
L 781.709674 -18.328805 
L 789.56815 -15.451487 
L 797.426626 -12.586331 
L 805.285102 -9.721174 
L 813.143578 -6.856017 
L 821.002054 -3.99086 
L 828.86053 -1.125703 
L 828.86053 -76.645787 
L 828.86053 -76.645787 
L 821.002054 -77.733997 
L 813.143578 -78.942986 
L 805.285102 -80.067674 
L 797.426626 -81.327151 
L 789.56815 -83.064787 
L 781.709674 -84.547136 
L 773.851197 -85.789709 
L 765.992721 -87.168583 
L 758.134245 -88.626681 
L 750.275769 -90.32994 
L 742.417293 -91.804188 
L 734.558817 -93.183936 
L 726.700341 -95.120786 
L 718.841865 -96.908962 
L 710.983389 -98.528703 
L 703.124913 -99.448841 
L 695.266437 -100.914916 
L 687.407961 -102.587031 
L 679.549485 -104.766124 
L 671.691009 -106.294182 
L 663.832533 -108.166779 
L 655.974056 -110.222292 
L 648.11558 -112.359168 
L 640.257104 -114.405576 
L 632.398628 -116.441172 
L 624.540152 -118.398108 
L 616.681676 -120.612883 
L 608.8232 -122.786215 
L 600.964724 -124.859714 
L 593.106248 -126.756963 
L 585.247772 -129.042743 
L 577.389296 -131.412176 
L 569.53082 -133.56588 
L 561.672344 -135.826192 
L 553.813868 -138.112381 
L 545.955392 -140.472263 
L 538.096915 -142.687056 
L 530.238439 -144.984582 
L 522.379963 -147.173636 
L 514.521487 -149.685948 
L 506.663011 -152.19609 
L 498.804535 -154.670887 
L 490.946059 -157.13351 
L 483.087583 -159.488884 
L 475.229107 -161.848449 
L 467.370631 -164.203908 
L 459.512155 -166.561108 
L 451.653679 -169.08075 
L 443.795203 -171.738347 
L 435.936727 -174.353129 
L 428.078251 -176.773466 
L 420.219775 -179.510363 
L 412.361298 -182.15521 
L 404.502822 -184.67604 
L 396.644346 -187.194001 
L 388.78587 -189.504577 
L 380.927394 -192.017872 
L 373.068918 -194.753929 
L 365.210442 -197.328475 
L 357.351966 -200.112486 
L 349.49349 -202.769441 
L 341.635014 -205.205613 
L 333.776538 -207.641784 
L 325.918062 -210.27585 
L 318.059586 -212.994997 
L 310.20111 -215.89038 
L 302.342634 -218.448287 
L 294.484157 -221.338288 
L 286.625681 -224.478732 
L 278.767205 -227.112604 
L 270.908729 -229.697875 
L 263.050253 -232.290372 
L 255.191777 -234.879256 
L 247.333301 -237.767812 
L 239.474825 -240.594276 
L 231.616349 -243.260365 
L 223.757873 -246.197764 
L 215.899397 -248.810551 
L 208.040921 -251.422855 
L 200.182445 -254.199348 
L 192.323969 -256.862083 
L 184.465493 -259.568126 
L 176.607016 -262.390665 
L 168.74854 -265.208104 
L 160.890064 -268.019332 
L 153.031588 -270.841665 
L 145.173112 -273.654583 
L 137.314636 -276.470864 
L 129.45616 -279.303259 
L 121.597684 -282.371136 
L 113.739208 -285.467361 
L 105.880732 -288.188602 
L 98.022256 -290.8987 
L 90.16378 -293.607199 
L 82.305304 -296.309317 
L 74.446828 -299.032171 
L 66.588352 -301.84797 
L 58.729876 -304.655635 
L 50.871399 -307.656334 
z
" style="stroke: #ffffff; stroke-opacity: 0.15"/>
    </defs>
    <g clip-path="url(#p6d916ec6ad)">
     <use xlink:href="#me8f8cab437" x="0" y="416.579844" style="fill: #251255; fill-opacity: 0.15; stroke: #ffffff; stroke-opacity: 0.15"/>
    </g>
   </g>
   <g id="PolyCollection_2">
    <defs>
     <path id="m2d21ebdc7f" d="M 50.871399 -370.165762 
L 50.871399 -370.165762 
L 58.729876 -370.165762 
L 66.588352 -370.165762 
L 74.446828 -370.165762 
L 82.305304 -370.165762 
L 90.16378 -370.165762 
L 98.022256 -370.165762 
L 105.880732 -370.165762 
L 113.739208 -370.165762 
L 121.597684 -370.165762 
L 129.45616 -370.165762 
L 137.314636 -370.165762 
L 145.173112 -370.165762 
L 153.031588 -370.165762 
L 160.890064 -370.165762 
L 168.74854 -370.165762 
L 176.607016 -370.165762 
L 184.465493 -370.165762 
L 192.323969 -370.165762 
L 200.182445 -370.165762 
L 208.040921 -370.165762 
L 215.899397 -370.165762 
L 223.757873 -370.165762 
L 231.616349 -370.165762 
L 239.474825 -370.165762 
L 247.333301 -370.165762 
L 255.191777 -370.165762 
L 263.050253 -370.165762 
L 270.908729 -370.165762 
L 278.767205 -370.165762 
L 286.625681 -370.165762 
L 294.484157 -370.165762 
L 302.342634 -370.165762 
L 310.20111 -370.165762 
L 318.059586 -370.165762 
L 325.918062 -370.165762 
L 333.776538 -370.165762 
L 341.635014 -370.165762 
L 349.49349 -370.165762 
L 357.351966 -370.165762 
L 365.210442 -370.165762 
L 373.068918 -370.165762 
L 380.927394 -370.165762 
L 388.78587 -370.165762 
L 396.644346 -370.165762 
L 404.502822 -370.165762 
L 412.361298 -370.165762 
L 420.219775 -370.165762 
L 428.078251 -370.165762 
L 435.936727 -370.165762 
L 443.795203 -370.165762 
L 451.653679 -370.165762 
L 459.512155 -370.165762 
L 467.370631 -370.165762 
L 475.229107 -370.165762 
L 483.087583 -370.165762 
L 490.946059 -370.165762 
L 498.804535 -370.165762 
L 506.663011 -370.165762 
L 514.521487 -370.165762 
L 522.379963 -370.165762 
L 530.238439 -370.165762 
L 538.096915 -370.165762 
L 545.955392 -370.165762 
L 553.813868 -370.165762 
L 561.672344 -370.165762 
L 569.53082 -370.165762 
L 577.389296 -370.165762 
L 585.247772 -370.165762 
L 593.106248 -370.165762 
L 600.964724 -370.165762 
L 608.8232 -370.165762 
L 616.681676 -370.165762 
L 624.540152 -370.165762 
L 632.398628 -370.165762 
L 640.257104 -370.165762 
L 648.11558 -370.165762 
L 655.974056 -370.165762 
L 663.832533 -370.165762 
L 671.691009 -370.165762 
L 679.549485 -370.165762 
L 687.407961 -370.165762 
L 695.266437 -370.165762 
L 703.124913 -370.165762 
L 710.983389 -370.165762 
L 718.841865 -370.165762 
L 726.700341 -370.165762 
L 734.558817 -370.165762 
L 742.417293 -370.165762 
L 750.275769 -370.165762 
L 758.134245 -370.165762 
L 765.992721 -370.165762 
L 773.851197 -370.165762 
L 781.709674 -370.165762 
L 789.56815 -370.165762 
L 797.426626 -370.165762 
L 805.285102 -370.165762 
L 813.143578 -370.165762 
L 821.002054 -370.165762 
L 828.86053 -370.165762 
L 828.86053 -370.165762 
L 828.86053 -370.165762 
L 821.002054 -370.165762 
L 813.143578 -370.165762 
L 805.285102 -370.165762 
L 797.426626 -370.165762 
L 789.56815 -370.165762 
L 781.709674 -370.165762 
L 773.851197 -370.165762 
L 765.992721 -370.165762 
L 758.134245 -370.165762 
L 750.275769 -370.165762 
L 742.417293 -370.165762 
L 734.558817 -370.165762 
L 726.700341 -370.165762 
L 718.841865 -370.165762 
L 710.983389 -370.165762 
L 703.124913 -370.165762 
L 695.266437 -370.165762 
L 687.407961 -370.165762 
L 679.549485 -370.165762 
L 671.691009 -370.165762 
L 663.832533 -370.165762 
L 655.974056 -370.165762 
L 648.11558 -370.165762 
L 640.257104 -370.165762 
L 632.398628 -370.165762 
L 624.540152 -370.165762 
L 616.681676 -370.165762 
L 608.8232 -370.165762 
L 600.964724 -370.165762 
L 593.106248 -370.165762 
L 585.247772 -370.165762 
L 577.389296 -370.165762 
L 569.53082 -370.165762 
L 561.672344 -370.165762 
L 553.813868 -370.165762 
L 545.955392 -370.165762 
L 538.096915 -370.165762 
L 530.238439 -370.165762 
L 522.379963 -370.165762 
L 514.521487 -370.165762 
L 506.663011 -370.165762 
L 498.804535 -370.165762 
L 490.946059 -370.165762 
L 483.087583 -370.165762 
L 475.229107 -370.165762 
L 467.370631 -370.165762 
L 459.512155 -370.165762 
L 451.653679 -370.165762 
L 443.795203 -370.165762 
L 435.936727 -370.165762 
L 428.078251 -370.165762 
L 420.219775 -370.165762 
L 412.361298 -370.165762 
L 404.502822 -370.165762 
L 396.644346 -370.165762 
L 388.78587 -370.165762 
L 380.927394 -370.165762 
L 373.068918 -370.165762 
L 365.210442 -370.165762 
L 357.351966 -370.165762 
L 349.49349 -370.165762 
L 341.635014 -370.165762 
L 333.776538 -370.165762 
L 325.918062 -370.165762 
L 318.059586 -370.165762 
L 310.20111 -370.165762 
L 302.342634 -370.165762 
L 294.484157 -370.165762 
L 286.625681 -370.165762 
L 278.767205 -370.165762 
L 270.908729 -370.165762 
L 263.050253 -370.165762 
L 255.191777 -370.165762 
L 247.333301 -370.165762 
L 239.474825 -370.165762 
L 231.616349 -370.165762 
L 223.757873 -370.165762 
L 215.899397 -370.165762 
L 208.040921 -370.165762 
L 200.182445 -370.165762 
L 192.323969 -370.165762 
L 184.465493 -370.165762 
L 176.607016 -370.165762 
L 168.74854 -370.165762 
L 160.890064 -370.165762 
L 153.031588 -370.165762 
L 145.173112 -370.165762 
L 137.314636 -370.165762 
L 129.45616 -370.165762 
L 121.597684 -370.165762 
L 113.739208 -370.165762 
L 105.880732 -370.165762 
L 98.022256 -370.165762 
L 90.16378 -370.165762 
L 82.305304 -370.165762 
L 74.446828 -370.165762 
L 66.588352 -370.165762 
L 58.729876 -370.165762 
L 50.871399 -370.165762 
z
" style="stroke: #ffffff; stroke-opacity: 0.15"/>
    </defs>
    <g clip-path="url(#p6d916ec6ad)">
     <use xlink:href="#m2d21ebdc7f" x="0" y="416.579844" style="fill: #251255; fill-opacity: 0.15; stroke: #ffffff; stroke-opacity: 0.15"/>
    </g>
   </g>
   <g id="PathCollection_3">
    <defs>
     <path id="mbbf0e70626" d="M 0 3 
C 0.795609 3 1.55874 2.683901 2.12132 2.12132 
C 2.683901 1.55874 3 0.795609 3 0 
C 3 -0.795609 2.683901 -1.55874 2.12132 -2.12132 
C 1.55874 -2.683901 0.795609 -3 0 -3 
C -0.795609 -3 -1.55874 -2.683901 -2.12132 -2.12132 
C -2.683901 -1.55874 -3 -0.795609 -3 0 
C -3 0.795609 -2.683901 1.55874 -2.12132 2.12132 
C -1.55874 2.683901 -0.795609 3 0 3 
z
" style="stroke: #ffffff; stroke-width: 0.48"/>
    </defs>
    <g clip-path="url(#p6d916ec6ad)">
     <use xlink:href="#mbbf0e70626" x="50.871399" y="63.412023" style="fill: #681c81; stroke: #ffffff; stroke-width: 0.48"/>
     <use xlink:href="#mbbf0e70626" x="206.469226" y="273.604074" style="fill: #681c81; stroke: #ffffff; stroke-width: 0.48"/>
     <use xlink:href="#mbbf0e70626" x="362.067052" y="263.288826" style="fill: #681c81; stroke: #ffffff; stroke-width: 0.48"/>
     <use xlink:href="#mbbf0e70626" x="517.664878" y="275.597952" style="fill: #681c81; stroke: #ffffff; stroke-width: 0.48"/>
     <use xlink:href="#mbbf0e70626" x="673.262704" y="270.707089" style="fill: #681c81; stroke: #ffffff; stroke-width: 0.48"/>
     <use xlink:href="#mbbf0e70626" x="828.86053" y="277.014447" style="fill: #681c81; stroke: #ffffff; stroke-width: 0.48"/>
    </g>
   </g>
   <g id="PathCollection_4">
    <defs>
     <path id="m8abaaf8001" d="M -3 3 
L 3 3 
L 3 -3 
L -3 -3 
z
" style="stroke: #ffffff; stroke-width: 0.48"/>
    </defs>
    <g clip-path="url(#p6d916ec6ad)">
     <use xlink:href="#m8abaaf8001" x="50.871399" y="46.414082" style="fill: #681c81; stroke: #ffffff; stroke-width: 0.48"/>
     <use xlink:href="#m8abaaf8001" x="206.469226" y="46.414082" style="fill: #681c81; stroke: #ffffff; stroke-width: 0.48"/>
     <use xlink:href="#m8abaaf8001" x="362.067052" y="46.414082" style="fill: #681c81; stroke: #ffffff; stroke-width: 0.48"/>
     <use xlink:href="#m8abaaf8001" x="517.664878" y="46.414082" style="fill: #681c81; stroke: #ffffff; stroke-width: 0.48"/>
     <use xlink:href="#m8abaaf8001" x="673.262704" y="46.414082" style="fill: #681c81; stroke: #ffffff; stroke-width: 0.48"/>
     <use xlink:href="#m8abaaf8001" x="828.86053" y="46.414082" style="fill: #681c81; stroke: #ffffff; stroke-width: 0.48"/>
    </g>
   </g>
   <g id="PathCollection_5">
    <defs>
     <path id="m7c7be1d8c7" d="M 0 3 
C 0.795609 3 1.55874 2.683901 2.12132 2.12132 
C 2.683901 1.55874 3 0.795609 3 0 
C 3 -0.795609 2.683901 -1.55874 2.12132 -2.12132 
C 1.55874 -2.683901 0.795609 -3 0 -3 
C -0.795609 -3 -1.55874 -2.683901 -2.12132 -2.12132 
C -2.683901 -1.55874 -3 -0.795609 -3 0 
C -3 0.795609 -2.683901 1.55874 -2.12132 2.12132 
C -1.55874 2.683901 -0.795609 3 0 3 
z
" style="stroke: #ffffff; stroke-width: 0.48"/>
    </defs>
    <g clip-path="url(#p6d916ec6ad)">
     <use xlink:href="#m7c7be1d8c7" x="50.871399" y="55.330091" style="fill: #aa337d; stroke: #ffffff; stroke-width: 0.48"/>
     <use xlink:href="#m7c7be1d8c7" x="206.469226" y="286.973774" style="fill: #aa337d; stroke: #ffffff; stroke-width: 0.48"/>
     <use xlink:href="#m7c7be1d8c7" x="362.067052" y="295.609361" style="fill: #aa337d; stroke: #ffffff; stroke-width: 0.48"/>
     <use xlink:href="#m7c7be1d8c7" x="517.664878" y="293.381077" style="fill: #aa337d; stroke: #ffffff; stroke-width: 0.48"/>
     <use xlink:href="#m7c7be1d8c7" x="673.262704" y="305.654971" style="fill: #aa337d; stroke: #ffffff; stroke-width: 0.48"/>
     <use xlink:href="#m7c7be1d8c7" x="828.86053" y="310.239526" style="fill: #aa337d; stroke: #ffffff; stroke-width: 0.48"/>
    </g>
   </g>
   <g id="PathCollection_6">
    <defs>
     <path id="mbeb03da1a2" d="M -3 3 
L 3 3 
L 3 -3 
L -3 -3 
z
" style="stroke: #ffffff; stroke-width: 0.48"/>
    </defs>
    <g clip-path="url(#p6d916ec6ad)">
     <use xlink:href="#mbeb03da1a2" x="50.871399" y="46.414082" style="fill: #aa337d; stroke: #ffffff; stroke-width: 0.48"/>
     <use xlink:href="#mbeb03da1a2" x="206.469226" y="46.414082" style="fill: #aa337d; stroke: #ffffff; stroke-width: 0.48"/>
     <use xlink:href="#mbeb03da1a2" x="362.067052" y="46.414082" style="fill: #aa337d; stroke: #ffffff; stroke-width: 0.48"/>
     <use xlink:href="#mbeb03da1a2" x="517.664878" y="46.414082" style="fill: #aa337d; stroke: #ffffff; stroke-width: 0.48"/>
     <use xlink:href="#mbeb03da1a2" x="673.262704" y="46.414082" style="fill: #aa337d; stroke: #ffffff; stroke-width: 0.48"/>
     <use xlink:href="#mbeb03da1a2" x="828.86053" y="46.414082" style="fill: #aa337d; stroke: #ffffff; stroke-width: 0.48"/>
    </g>
   </g>
   <g id="PathCollection_7">
    <defs>
     <path id="me022e1eab9" d="M 0 3 
C 0.795609 3 1.55874 2.683901 2.12132 2.12132 
C 2.683901 1.55874 3 0.795609 3 0 
C 3 -0.795609 2.683901 -1.55874 2.12132 -2.12132 
C 1.55874 -2.683901 0.795609 -3 0 -3 
C -0.795609 -3 -1.55874 -2.683901 -2.12132 -2.12132 
C -2.683901 -1.55874 -3 -0.795609 -3 0 
C -3 0.795609 -2.683901 1.55874 -2.12132 2.12132 
C -1.55874 2.683901 -0.795609 3 0 3 
z
" style="stroke: #ffffff; stroke-width: 0.48"/>
    </defs>
    <g clip-path="url(#p6d916ec6ad)">
     <use xlink:href="#me022e1eab9" x="50.871399" y="26.640673" style="fill: #e85362; stroke: #ffffff; stroke-width: 0.48"/>
     <use xlink:href="#me022e1eab9" x="206.469226" y="311.250486" style="fill: #e85362; stroke: #ffffff; stroke-width: 0.48"/>
     <use xlink:href="#me022e1eab9" x="362.067052" y="311.456849" style="fill: #e85362; stroke: #ffffff; stroke-width: 0.48"/>
     <use xlink:href="#me022e1eab9" x="517.664878" y="319.17423" style="fill: #e85362; stroke: #ffffff; stroke-width: 0.48"/>
     <use xlink:href="#me022e1eab9" x="673.262704" y="328.799206" style="fill: #e85362; stroke: #ffffff; stroke-width: 0.48"/>
     <use xlink:href="#me022e1eab9" x="828.86053" y="340.844448" style="fill: #e85362; stroke: #ffffff; stroke-width: 0.48"/>
    </g>
   </g>
   <g id="PathCollection_8">
    <defs>
     <path id="m9d1100ad6d" d="M -3 3 
L 3 3 
L 3 -3 
L -3 -3 
z
" style="stroke: #ffffff; stroke-width: 0.48"/>
    </defs>
    <g clip-path="url(#p6d916ec6ad)">
     <use xlink:href="#m9d1100ad6d" x="50.871399" y="46.414082" style="fill: #e85362; stroke: #ffffff; stroke-width: 0.48"/>
     <use xlink:href="#m9d1100ad6d" x="206.469226" y="46.414082" style="fill: #e85362; stroke: #ffffff; stroke-width: 0.48"/>
     <use xlink:href="#m9d1100ad6d" x="362.067052" y="46.414082" style="fill: #e85362; stroke: #ffffff; stroke-width: 0.48"/>
     <use xlink:href="#m9d1100ad6d" x="517.664878" y="46.414082" style="fill: #e85362; stroke: #ffffff; stroke-width: 0.48"/>
     <use xlink:href="#m9d1100ad6d" x="673.262704" y="46.414082" style="fill: #e85362; stroke: #ffffff; stroke-width: 0.48"/>
     <use xlink:href="#m9d1100ad6d" x="828.86053" y="46.414082" style="fill: #e85362; stroke: #ffffff; stroke-width: 0.48"/>
    </g>
   </g>
   <g id="PathCollection_9">
    <defs>
     <path id="m375d519e82" d="M 0 3 
C 0.795609 3 1.55874 2.683901 2.12132 2.12132 
C 2.683901 1.55874 3 0.795609 3 0 
C 3 -0.795609 2.683901 -1.55874 2.12132 -2.12132 
C 1.55874 -2.683901 0.795609 -3 0 -3 
C -0.795609 -3 -1.55874 -2.683901 -2.12132 -2.12132 
C -2.683901 -1.55874 -3 -0.795609 -3 0 
C -3 0.795609 -2.683901 1.55874 -2.12132 2.12132 
C -1.55874 2.683901 -0.795609 3 0 3 
z
" style="stroke: #ffffff; stroke-width: 0.48"/>
    </defs>
    <g clip-path="url(#p6d916ec6ad)">
     <use xlink:href="#m375d519e82" x="50.871399" y="35.197166" style="fill: #fd9b6b; stroke: #ffffff; stroke-width: 0.48"/>
     <use xlink:href="#m375d519e82" x="206.469226" y="313.400395" style="fill: #fd9b6b; stroke: #ffffff; stroke-width: 0.48"/>
     <use xlink:href="#m375d519e82" x="362.067052" y="316.062974" style="fill: #fd9b6b; stroke: #ffffff; stroke-width: 0.48"/>
     <use xlink:href="#m375d519e82" x="517.664878" y="325.324839" style="fill: #fd9b6b; stroke: #ffffff; stroke-width: 0.48"/>
     <use xlink:href="#m375d519e82" x="673.262704" y="331.810517" style="fill: #fd9b6b; stroke: #ffffff; stroke-width: 0.48"/>
     <use xlink:href="#m375d519e82" x="828.86053" y="350.967714" style="fill: #fd9b6b; stroke: #ffffff; stroke-width: 0.48"/>
    </g>
   </g>
   <g id="PathCollection_10">
    <defs>
     <path id="madae7a5382" d="M -3 3 
L 3 3 
L 3 -3 
L -3 -3 
z
" style="stroke: #ffffff; stroke-width: 0.48"/>
    </defs>
    <g clip-path="url(#p6d916ec6ad)">
     <use xlink:href="#madae7a5382" x="50.871399" y="46.414082" style="fill: #fd9b6b; stroke: #ffffff; stroke-width: 0.48"/>
     <use xlink:href="#madae7a5382" x="206.469226" y="46.414082" style="fill: #fd9b6b; stroke: #ffffff; stroke-width: 0.48"/>
     <use xlink:href="#madae7a5382" x="362.067052" y="46.414082" style="fill: #fd9b6b; stroke: #ffffff; stroke-width: 0.48"/>
     <use xlink:href="#madae7a5382" x="517.664878" y="46.414082" style="fill: #fd9b6b; stroke: #ffffff; stroke-width: 0.48"/>
     <use xlink:href="#madae7a5382" x="673.262704" y="46.414082" style="fill: #fd9b6b; stroke: #ffffff; stroke-width: 0.48"/>
     <use xlink:href="#madae7a5382" x="828.86053" y="46.414082" style="fill: #fd9b6b; stroke: #ffffff; stroke-width: 0.48"/>
    </g>
   </g>
   <g id="PathCollection_11">
    <defs>
     <path id="m4c7dd31b97" d="M 0 3 
C 0.795609 3 1.55874 2.683901 2.12132 2.12132 
C 2.683901 1.55874 3 0.795609 3 0 
C 3 -0.795609 2.683901 -1.55874 2.12132 -2.12132 
C 1.55874 -2.683901 0.795609 -3 0 -3 
C -0.795609 -3 -1.55874 -2.683901 -2.12132 -2.12132 
C -2.683901 -1.55874 -3 -0.795609 -3 0 
C -3 0.795609 -2.683901 1.55874 -2.12132 2.12132 
C -1.55874 2.683901 -0.795609 3 0 3 
z
" style="stroke: #ffffff; stroke-width: 0.48"/>
    </defs>
    <g clip-path="url(#p6d916ec6ad)">
     <use xlink:href="#m4c7dd31b97" x="50.871399" y="61.298066" style="fill: #fde7a9; stroke: #ffffff; stroke-width: 0.48"/>
     <use xlink:href="#m4c7dd31b97" x="206.469226" y="314.332981" style="fill: #fde7a9; stroke: #ffffff; stroke-width: 0.48"/>
     <use xlink:href="#m4c7dd31b97" x="362.067052" y="318.269687" style="fill: #fde7a9; stroke: #ffffff; stroke-width: 0.48"/>
     <use xlink:href="#m4c7dd31b97" x="517.664878" y="327.325189" style="fill: #fde7a9; stroke: #ffffff; stroke-width: 0.48"/>
     <use xlink:href="#m4c7dd31b97" x="673.262704" y="339.513518" style="fill: #fde7a9; stroke: #ffffff; stroke-width: 0.48"/>
     <use xlink:href="#m4c7dd31b97" x="828.86053" y="363.369596" style="fill: #fde7a9; stroke: #ffffff; stroke-width: 0.48"/>
    </g>
   </g>
   <g id="PathCollection_12">
    <defs>
     <path id="md06f200cf3" d="M -3 3 
L 3 3 
L 3 -3 
L -3 -3 
z
" style="stroke: #ffffff; stroke-width: 0.48"/>
    </defs>
    <g clip-path="url(#p6d916ec6ad)">
     <use xlink:href="#md06f200cf3" x="50.871399" y="46.414082" style="fill: #fde7a9; stroke: #ffffff; stroke-width: 0.48"/>
     <use xlink:href="#md06f200cf3" x="206.469226" y="46.414082" style="fill: #fde7a9; stroke: #ffffff; stroke-width: 0.48"/>
     <use xlink:href="#md06f200cf3" x="362.067052" y="46.414082" style="fill: #fde7a9; stroke: #ffffff; stroke-width: 0.48"/>
     <use xlink:href="#md06f200cf3" x="517.664878" y="46.414082" style="fill: #fde7a9; stroke: #ffffff; stroke-width: 0.48"/>
     <use xlink:href="#md06f200cf3" x="673.262704" y="46.414082" style="fill: #fde7a9; stroke: #ffffff; stroke-width: 0.48"/>
     <use xlink:href="#md06f200cf3" x="828.86053" y="46.414082" style="fill: #fde7a9; stroke: #ffffff; stroke-width: 0.48"/>
    </g>
   </g>
   <g id="line2d_12">
    <path d="M 50.871399 163.009226 
L 58.729876 165.107256 
L 66.588352 167.205286 
L 74.446828 169.303317 
L 82.305304 171.401347 
L 90.16378 173.499377 
L 98.022256 175.597408 
L 105.880732 177.695438 
L 113.739208 179.793468 
L 121.597684 181.891498 
L 129.45616 183.989529 
L 137.314636 186.087559 
L 145.173112 188.185589 
L 153.031588 190.28362 
L 160.890064 192.38165 
L 168.74854 194.47968 
L 176.607016 196.57771 
L 184.465493 198.675741 
L 192.323969 200.773771 
L 200.182445 202.871801 
L 208.040921 204.969832 
L 215.899397 207.067862 
L 223.757873 209.165892 
L 231.616349 211.263922 
L 239.474825 213.361953 
L 247.333301 215.459983 
L 255.191777 217.558013 
L 263.050253 219.656043 
L 270.908729 221.754074 
L 278.767205 223.852104 
L 286.625681 225.950134 
L 294.484157 228.048165 
L 302.342634 230.146195 
L 310.20111 232.244225 
L 318.059586 234.342255 
L 325.918062 236.440286 
L 333.776538 238.538316 
L 341.635014 240.636346 
L 349.49349 242.734377 
L 357.351966 244.832407 
L 365.210442 246.930437 
L 373.068918 249.028467 
L 380.927394 251.126498 
L 388.78587 253.224528 
L 396.644346 255.322558 
L 404.502822 257.420589 
L 412.361298 259.518619 
L 420.219775 261.616649 
L 428.078251 263.714679 
L 435.936727 265.81271 
L 443.795203 267.91074 
L 451.653679 270.00877 
L 459.512155 272.1068 
L 467.370631 274.204831 
L 475.229107 276.302861 
L 483.087583 278.400891 
L 490.946059 280.498922 
L 498.804535 282.596952 
L 506.663011 284.694982 
L 514.521487 286.793012 
L 522.379963 288.891043 
L 530.238439 290.989073 
L 538.096915 293.087103 
L 545.955392 295.185134 
L 553.813868 297.283164 
L 561.672344 299.381194 
L 569.53082 301.479224 
L 577.389296 303.577255 
L 585.247772 305.675285 
L 593.106248 307.773315 
L 600.964724 309.871346 
L 608.8232 311.969376 
L 616.681676 314.067406 
L 624.540152 316.165436 
L 632.398628 318.263467 
L 640.257104 320.361497 
L 648.11558 322.459527 
L 655.974056 324.557557 
L 663.832533 326.655588 
L 671.691009 328.753618 
L 679.549485 330.851648 
L 687.407961 332.949679 
L 695.266437 335.047709 
L 703.124913 337.145739 
L 710.983389 339.243769 
L 718.841865 341.3418 
L 726.700341 343.43983 
L 734.558817 345.53786 
L 742.417293 347.635891 
L 750.275769 349.733921 
L 758.134245 351.831951 
L 765.992721 353.929981 
L 773.851197 356.028012 
L 781.709674 358.126042 
L 789.56815 360.224072 
L 797.426626 362.322103 
L 805.285102 364.420133 
L 813.143578 366.518163 
L 821.002054 368.616193 
L 828.86053 370.714224 
" clip-path="url(#p6d916ec6ad)" style="fill: none; stroke: #251255; stroke-width: 2.25; stroke-linecap: round"/>
   </g>
   <g id="line2d_13">
    <path d="M 50.871399 46.414082 
L 58.729876 46.414082 
L 66.588352 46.414082 
L 74.446828 46.414082 
L 82.305304 46.414082 
L 90.16378 46.414082 
L 98.022256 46.414082 
L 105.880732 46.414082 
L 113.739208 46.414082 
L 121.597684 46.414082 
L 129.45616 46.414082 
L 137.314636 46.414082 
L 145.173112 46.414082 
L 153.031588 46.414082 
L 160.890064 46.414082 
L 168.74854 46.414082 
L 176.607016 46.414082 
L 184.465493 46.414082 
L 192.323969 46.414082 
L 200.182445 46.414082 
L 208.040921 46.414082 
L 215.899397 46.414082 
L 223.757873 46.414082 
L 231.616349 46.414082 
L 239.474825 46.414082 
L 247.333301 46.414082 
L 255.191777 46.414082 
L 263.050253 46.414082 
L 270.908729 46.414082 
L 278.767205 46.414082 
L 286.625681 46.414082 
L 294.484157 46.414082 
L 302.342634 46.414082 
L 310.20111 46.414082 
L 318.059586 46.414082 
L 325.918062 46.414082 
L 333.776538 46.414082 
L 341.635014 46.414082 
L 349.49349 46.414082 
L 357.351966 46.414082 
L 365.210442 46.414082 
L 373.068918 46.414082 
L 380.927394 46.414082 
L 388.78587 46.414082 
L 396.644346 46.414082 
L 404.502822 46.414082 
L 412.361298 46.414082 
L 420.219775 46.414082 
L 428.078251 46.414082 
L 435.936727 46.414082 
L 443.795203 46.414082 
L 451.653679 46.414082 
L 459.512155 46.414082 
L 467.370631 46.414082 
L 475.229107 46.414082 
L 483.087583 46.414082 
L 490.946059 46.414082 
L 498.804535 46.414082 
L 506.663011 46.414082 
L 514.521487 46.414082 
L 522.379963 46.414082 
L 530.238439 46.414082 
L 538.096915 46.414082 
L 545.955392 46.414082 
L 553.813868 46.414082 
L 561.672344 46.414082 
L 569.53082 46.414082 
L 577.389296 46.414082 
L 585.247772 46.414082 
L 593.106248 46.414082 
L 600.964724 46.414082 
L 608.8232 46.414082 
L 616.681676 46.414082 
L 624.540152 46.414082 
L 632.398628 46.414082 
L 640.257104 46.414082 
L 648.11558 46.414082 
L 655.974056 46.414082 
L 663.832533 46.414082 
L 671.691009 46.414082 
L 679.549485 46.414082 
L 687.407961 46.414082 
L 695.266437 46.414082 
L 703.124913 46.414082 
L 710.983389 46.414082 
L 718.841865 46.414082 
L 726.700341 46.414082 
L 734.558817 46.414082 
L 742.417293 46.414082 
L 750.275769 46.414082 
L 758.134245 46.414082 
L 765.992721 46.414082 
L 773.851197 46.414082 
L 781.709674 46.414082 
L 789.56815 46.414082 
L 797.426626 46.414082 
L 805.285102 46.414082 
L 813.143578 46.414082 
L 821.002054 46.414082 
L 828.86053 46.414082 
" clip-path="url(#p6d916ec6ad)" style="fill: none; stroke: #251255; stroke-width: 2.25; stroke-linecap: round"/>
   </g>
   <g id="line2d_14">
    <path d="M 50.871399 63.412023 
L 206.469226 273.604074 
L 362.067052 263.288826 
L 517.664878 275.597952 
L 673.262704 270.707089 
L 828.86053 277.014447 
" clip-path="url(#p6d916ec6ad)" style="fill: none; stroke: #681c81; stroke-opacity: 0.7; stroke-width: 1.5; stroke-linecap: round"/>
   </g>
   <g id="line2d_15">
    <path d="M 50.871399 46.414082 
L 206.469226 46.414082 
L 362.067052 46.414082 
L 517.664878 46.414082 
L 673.262704 46.414082 
L 828.86053 46.414082 
" clip-path="url(#p6d916ec6ad)" style="fill: none; stroke-dasharray: 5.55,2.4; stroke-dashoffset: 0; stroke: #681c81; stroke-opacity: 0.7; stroke-width: 1.5"/>
   </g>
   <g id="line2d_16">
    <path d="M 50.871399 55.330091 
L 206.469226 286.973774 
L 362.067052 295.609361 
L 517.664878 293.381077 
L 673.262704 305.654971 
L 828.86053 310.239526 
" clip-path="url(#p6d916ec6ad)" style="fill: none; stroke: #aa337d; stroke-opacity: 0.7; stroke-width: 1.5; stroke-linecap: round"/>
   </g>
   <g id="line2d_17">
    <path d="M 50.871399 46.414082 
L 206.469226 46.414082 
L 362.067052 46.414082 
L 517.664878 46.414082 
L 673.262704 46.414082 
L 828.86053 46.414082 
" clip-path="url(#p6d916ec6ad)" style="fill: none; stroke-dasharray: 5.55,2.4; stroke-dashoffset: 0; stroke: #aa337d; stroke-opacity: 0.7; stroke-width: 1.5"/>
   </g>
   <g id="line2d_18">
    <path d="M 50.871399 26.640673 
L 206.469226 311.250486 
L 362.067052 311.456849 
L 517.664878 319.17423 
L 673.262704 328.799206 
L 828.86053 340.844448 
" clip-path="url(#p6d916ec6ad)" style="fill: none; stroke: #e85362; stroke-opacity: 0.7; stroke-width: 1.5; stroke-linecap: round"/>
   </g>
   <g id="line2d_19">
    <path d="M 50.871399 46.414082 
L 206.469226 46.414082 
L 362.067052 46.414082 
L 517.664878 46.414082 
L 673.262704 46.414082 
L 828.86053 46.414082 
" clip-path="url(#p6d916ec6ad)" style="fill: none; stroke-dasharray: 5.55,2.4; stroke-dashoffset: 0; stroke: #e85362; stroke-opacity: 0.7; stroke-width: 1.5"/>
   </g>
   <g id="line2d_20">
    <path d="M 50.871399 35.197166 
L 206.469226 313.400395 
L 362.067052 316.062974 
L 517.664878 325.324839 
L 673.262704 331.810517 
L 828.86053 350.967714 
" clip-path="url(#p6d916ec6ad)" style="fill: none; stroke: #fd9b6b; stroke-opacity: 0.7; stroke-width: 1.5; stroke-linecap: round"/>
   </g>
   <g id="line2d_21">
    <path d="M 50.871399 46.414082 
L 206.469226 46.414082 
L 362.067052 46.414082 
L 517.664878 46.414082 
L 673.262704 46.414082 
L 828.86053 46.414082 
" clip-path="url(#p6d916ec6ad)" style="fill: none; stroke-dasharray: 5.55,2.4; stroke-dashoffset: 0; stroke: #fd9b6b; stroke-opacity: 0.7; stroke-width: 1.5"/>
   </g>
   <g id="line2d_22">
    <path d="M 50.871399 61.298066 
L 206.469226 314.332981 
L 362.067052 318.269687 
L 517.664878 327.325189 
L 673.262704 339.513518 
L 828.86053 363.369596 
" clip-path="url(#p6d916ec6ad)" style="fill: none; stroke: #fde7a9; stroke-opacity: 0.7; stroke-width: 1.5; stroke-linecap: round"/>
   </g>
   <g id="line2d_23">
    <path d="M 50.871399 46.414082 
L 206.469226 46.414082 
L 362.067052 46.414082 
L 517.664878 46.414082 
L 673.262704 46.414082 
L 828.86053 46.414082 
" clip-path="url(#p6d916ec6ad)" style="fill: none; stroke-dasharray: 5.55,2.4; stroke-dashoffset: 0; stroke: #fde7a9; stroke-opacity: 0.7; stroke-width: 1.5"/>
   </g>
   <g id="patch_3">
    <path d="M 39.201563 373.86 
L 39.201563 7.2 
" style="fill: none; stroke: #cccccc; stroke-width: 1.25; stroke-linejoin: miter; stroke-linecap: square"/>
   </g>
   <g id="patch_4">
    <path d="M 844.420312 373.86 
L 844.420312 7.2 
" style="fill: none; stroke: #cccccc; stroke-width: 1.25; stroke-linejoin: miter; stroke-linecap: square"/>
   </g>
   <g id="patch_5">
    <path d="M 39.201563 373.86 
L 844.420312 373.86 
" style="fill: none; stroke: #cccccc; stroke-width: 1.25; stroke-linejoin: miter; stroke-linecap: square"/>
   </g>
   <g id="patch_6">
    <path d="M 39.201563 7.2 
L 844.420312 7.2 
" style="fill: none; stroke: #cccccc; stroke-width: 1.25; stroke-linejoin: miter; stroke-linecap: square"/>
   </g>
   <g id="legend_1">
    <g id="patch_7">
     <path d="M 730.814687 269.156844 
L 820.615937 269.156844 
Q 822.815937 269.156844 822.815937 266.956844 
L 822.815937 77.437156 
Q 822.815937 75.237156 820.615937 75.237156 
L 730.814687 75.237156 
Q 728.614687 75.237156 728.614687 77.437156 
L 728.614687 266.956844 
Q 728.614687 269.156844 730.814687 269.156844 
z
" style="fill: #ffffff; opacity: 0.8; stroke: #cccccc; stroke-linejoin: miter"/>
    </g>
    <g id="PathCollection_13">
     <g>
      <use xlink:href="#m7d040ab8ba" x="744.014687" y="84.62325" style="fill: #251255; stroke: #ffffff; stroke-width: 0.48"/>
     </g>
    </g>
    <g id="text_14">
     <!-- Trend-BAP -->
     <g style="fill: #262626" transform="translate(763.814687 87.51075) scale(0.11 -0.11)">
      <defs>
       <path id="ArialMT-54" d="M 1659 0 
L 1659 4041 
L 150 4041 
L 150 4581 
L 3781 4581 
L 3781 4041 
L 2266 4041 
L 2266 0 
L 1659 0 
z
" transform="scale(0.015625)"/>
       <path id="ArialMT-64" d="M 2575 0 
L 2575 419 
Q 2259 -75 1647 -75 
Q 1250 -75 917 144 
Q 584 363 401 755 
Q 219 1147 219 1656 
Q 219 2153 384 2558 
Q 550 2963 881 3178 
Q 1213 3394 1622 3394 
Q 1922 3394 2156 3267 
Q 2391 3141 2538 2938 
L 2538 4581 
L 3097 4581 
L 3097 0 
L 2575 0 
z
M 797 1656 
Q 797 1019 1065 703 
Q 1334 388 1700 388 
Q 2069 388 2326 689 
Q 2584 991 2584 1609 
Q 2584 2291 2321 2609 
Q 2059 2928 1675 2928 
Q 1300 2928 1048 2622 
Q 797 2316 797 1656 
z
" transform="scale(0.015625)"/>
       <path id="ArialMT-2d" d="M 203 1375 
L 203 1941 
L 1931 1941 
L 1931 1375 
L 203 1375 
z
" transform="scale(0.015625)"/>
       <path id="ArialMT-42" d="M 469 0 
L 469 4581 
L 2188 4581 
Q 2713 4581 3030 4442 
Q 3347 4303 3526 4014 
Q 3706 3725 3706 3409 
Q 3706 3116 3547 2856 
Q 3388 2597 3066 2438 
Q 3481 2316 3704 2022 
Q 3928 1728 3928 1328 
Q 3928 1006 3792 729 
Q 3656 453 3456 303 
Q 3256 153 2954 76 
Q 2653 0 2216 0 
L 469 0 
z
M 1075 2656 
L 2066 2656 
Q 2469 2656 2644 2709 
Q 2875 2778 2992 2937 
Q 3109 3097 3109 3338 
Q 3109 3566 3000 3739 
Q 2891 3913 2687 3977 
Q 2484 4041 1991 4041 
L 1075 4041 
L 1075 2656 
z
M 1075 541 
L 2216 541 
Q 2509 541 2628 563 
Q 2838 600 2978 687 
Q 3119 775 3209 942 
Q 3300 1109 3300 1328 
Q 3300 1584 3169 1773 
Q 3038 1963 2805 2039 
Q 2572 2116 2134 2116 
L 1075 2116 
L 1075 541 
z
" transform="scale(0.015625)"/>
       <path id="ArialMT-41" d="M -9 0 
L 1750 4581 
L 2403 4581 
L 4278 0 
L 3588 0 
L 3053 1388 
L 1138 1388 
L 634 0 
L -9 0 
z
M 1313 1881 
L 2866 1881 
L 2388 3150 
Q 2169 3728 2063 4100 
Q 1975 3659 1816 3225 
L 1313 1881 
z
" transform="scale(0.015625)"/>
       <path id="ArialMT-50" d="M 494 0 
L 494 4581 
L 2222 4581 
Q 2678 4581 2919 4538 
Q 3256 4481 3484 4323 
Q 3713 4166 3852 3881 
Q 3991 3597 3991 3256 
Q 3991 2672 3619 2267 
Q 3247 1863 2275 1863 
L 1100 1863 
L 1100 0 
L 494 0 
z
M 1100 2403 
L 2284 2403 
Q 2872 2403 3119 2622 
Q 3366 2841 3366 3238 
Q 3366 3525 3220 3729 
Q 3075 3934 2838 4000 
Q 2684 4041 2272 4041 
L 1100 4041 
L 1100 2403 
z
" transform="scale(0.015625)"/>
      </defs>
      <use xlink:href="#ArialMT-54"/>
      <use xlink:href="#ArialMT-72" x="57.333984"/>
      <use xlink:href="#ArialMT-65" x="90.634766"/>
      <use xlink:href="#ArialMT-6e" x="146.25"/>
      <use xlink:href="#ArialMT-64" x="201.865234"/>
      <use xlink:href="#ArialMT-2d" x="257.480469"/>
      <use xlink:href="#ArialMT-42" x="290.78125"/>
      <use xlink:href="#ArialMT-41" x="357.480469"/>
      <use xlink:href="#ArialMT-50" x="424.179688"/>
     </g>
    </g>
    <g id="PathCollection_14">
     <g>
      <use xlink:href="#m4b754ed051" x="744.014687" y="100.183094" style="fill: #251255; stroke: #ffffff; stroke-width: 0.48"/>
     </g>
    </g>
    <g id="text_15">
     <!-- Trend-NPP -->
     <g style="fill: #262626" transform="translate(763.814687 103.070594) scale(0.11 -0.11)">
      <use xlink:href="#ArialMT-54"/>
      <use xlink:href="#ArialMT-72" x="57.333984"/>
      <use xlink:href="#ArialMT-65" x="90.634766"/>
      <use xlink:href="#ArialMT-6e" x="146.25"/>
      <use xlink:href="#ArialMT-64" x="201.865234"/>
      <use xlink:href="#ArialMT-2d" x="257.480469"/>
      <use xlink:href="#ArialMT-4e" x="290.78125"/>
      <use xlink:href="#ArialMT-50" x="362.998047"/>
      <use xlink:href="#ArialMT-50" x="429.697266"/>
     </g>
    </g>
    <g id="PathCollection_15">
     <g>
      <use xlink:href="#mbbf0e70626" x="744.014687" y="115.899344" style="fill: #681c81; stroke: #ffffff; stroke-width: 0.48"/>
     </g>
    </g>
    <g id="text_16">
     <!-- BAP ($\chi$=3) -->
     <g style="fill: #262626" transform="translate(763.814687 118.786844) scale(0.11 -0.11)">
      <defs>
       <path id="ArialMT-28" d="M 1497 -1347 
Q 1031 -759 709 28 
Q 388 816 388 1659 
Q 388 2403 628 3084 
Q 909 3875 1497 4659 
L 1900 4659 
Q 1522 4009 1400 3731 
Q 1209 3300 1100 2831 
Q 966 2247 966 1656 
Q 966 153 1900 -1347 
L 1497 -1347 
z
" transform="scale(0.015625)"/>
       <path id="DejaVuSans-Oblique-3c7" d="M 1922 -781 
L 1691 416 
L 394 -1334 
L -284 -1334 
L 1553 1141 
L 1269 2613 
Q 1194 3006 713 3006 
L 559 3006 
L 653 3500 
L 872 3494 
Q 1675 3472 1775 2950 
L 2006 1753 
L 3303 3503 
L 3981 3503 
L 2144 1028 
L 2428 -444 
Q 2503 -838 2984 -838 
L 3138 -838 
L 3044 -1331 
L 2825 -1325 
Q 2022 -1303 1922 -781 
z
" transform="scale(0.015625)"/>
       <path id="ArialMT-3d" d="M 3381 2694 
L 356 2694 
L 356 3219 
L 3381 3219 
L 3381 2694 
z
M 3381 1303 
L 356 1303 
L 356 1828 
L 3381 1828 
L 3381 1303 
z
" transform="scale(0.015625)"/>
       <path id="ArialMT-29" d="M 791 -1347 
L 388 -1347 
Q 1322 153 1322 1656 
Q 1322 2244 1188 2822 
Q 1081 3291 891 3722 
Q 769 4003 388 4659 
L 791 4659 
Q 1378 3875 1659 3084 
Q 1900 2403 1900 1659 
Q 1900 816 1576 28 
Q 1253 -759 791 -1347 
z
" transform="scale(0.015625)"/>
      </defs>
      <use xlink:href="#ArialMT-42" transform="translate(0 0.203125)"/>
      <use xlink:href="#ArialMT-41" transform="translate(66.699219 0.203125)"/>
      <use xlink:href="#ArialMT-50" transform="translate(133.398438 0.203125)"/>
      <use xlink:href="#ArialMT-20" transform="translate(200.097656 0.203125)"/>
      <use xlink:href="#ArialMT-28" transform="translate(227.880859 0.203125)"/>
      <use xlink:href="#DejaVuSans-Oblique-3c7" transform="translate(261.181641 0.203125)"/>
      <use xlink:href="#ArialMT-3d" transform="translate(320.361328 0.203125)"/>
      <use xlink:href="#ArialMT-33" transform="translate(378.759766 0.203125)"/>
      <use xlink:href="#ArialMT-29" transform="translate(434.375 0.203125)"/>
     </g>
    </g>
    <g id="PathCollection_16">
     <g>
      <use xlink:href="#m8abaaf8001" x="744.014687" y="131.849344" style="fill: #681c81; stroke: #ffffff; stroke-width: 0.48"/>
     </g>
    </g>
    <g id="text_17">
     <!-- NPP ($\chi$=3) -->
     <g style="fill: #262626" transform="translate(763.814687 134.736844) scale(0.11 -0.11)">
      <use xlink:href="#ArialMT-4e" transform="translate(0 0.203125)"/>
      <use xlink:href="#ArialMT-50" transform="translate(72.216797 0.203125)"/>
      <use xlink:href="#ArialMT-50" transform="translate(138.916016 0.203125)"/>
      <use xlink:href="#ArialMT-20" transform="translate(205.615234 0.203125)"/>
      <use xlink:href="#ArialMT-28" transform="translate(233.398438 0.203125)"/>
      <use xlink:href="#DejaVuSans-Oblique-3c7" transform="translate(266.699219 0.203125)"/>
      <use xlink:href="#ArialMT-3d" transform="translate(325.878906 0.203125)"/>
      <use xlink:href="#ArialMT-33" transform="translate(384.277344 0.203125)"/>
      <use xlink:href="#ArialMT-29" transform="translate(439.892578 0.203125)"/>
     </g>
    </g>
    <g id="PathCollection_17">
     <g>
      <use xlink:href="#m7c7be1d8c7" x="744.014687" y="147.799344" style="fill: #aa337d; stroke: #ffffff; stroke-width: 0.48"/>
     </g>
    </g>
    <g id="text_18">
     <!-- BAP ($\chi$=4) -->
     <g style="fill: #262626" transform="translate(763.814687 150.686844) scale(0.11 -0.11)">
      <use xlink:href="#ArialMT-42" transform="translate(0 0.203125)"/>
      <use xlink:href="#ArialMT-41" transform="translate(66.699219 0.203125)"/>
      <use xlink:href="#ArialMT-50" transform="translate(133.398438 0.203125)"/>
      <use xlink:href="#ArialMT-20" transform="translate(200.097656 0.203125)"/>
      <use xlink:href="#ArialMT-28" transform="translate(227.880859 0.203125)"/>
      <use xlink:href="#DejaVuSans-Oblique-3c7" transform="translate(261.181641 0.203125)"/>
      <use xlink:href="#ArialMT-3d" transform="translate(320.361328 0.203125)"/>
      <use xlink:href="#ArialMT-34" transform="translate(378.759766 0.203125)"/>
      <use xlink:href="#ArialMT-29" transform="translate(434.375 0.203125)"/>
     </g>
    </g>
    <g id="PathCollection_18">
     <g>
      <use xlink:href="#mbeb03da1a2" x="744.014687" y="163.749344" style="fill: #aa337d; stroke: #ffffff; stroke-width: 0.48"/>
     </g>
    </g>
    <g id="text_19">
     <!-- NPP ($\chi$=4) -->
     <g style="fill: #262626" transform="translate(763.814687 166.636844) scale(0.11 -0.11)">
      <use xlink:href="#ArialMT-4e" transform="translate(0 0.203125)"/>
      <use xlink:href="#ArialMT-50" transform="translate(72.216797 0.203125)"/>
      <use xlink:href="#ArialMT-50" transform="translate(138.916016 0.203125)"/>
      <use xlink:href="#ArialMT-20" transform="translate(205.615234 0.203125)"/>
      <use xlink:href="#ArialMT-28" transform="translate(233.398438 0.203125)"/>
      <use xlink:href="#DejaVuSans-Oblique-3c7" transform="translate(266.699219 0.203125)"/>
      <use xlink:href="#ArialMT-3d" transform="translate(325.878906 0.203125)"/>
      <use xlink:href="#ArialMT-34" transform="translate(384.277344 0.203125)"/>
      <use xlink:href="#ArialMT-29" transform="translate(439.892578 0.203125)"/>
     </g>
    </g>
    <g id="PathCollection_19">
     <g>
      <use xlink:href="#me022e1eab9" x="744.014687" y="179.699344" style="fill: #e85362; stroke: #ffffff; stroke-width: 0.48"/>
     </g>
    </g>
    <g id="text_20">
     <!-- BAP ($\chi$=5) -->
     <g style="fill: #262626" transform="translate(763.814687 182.586844) scale(0.11 -0.11)">
      <use xlink:href="#ArialMT-42" transform="translate(0 0.203125)"/>
      <use xlink:href="#ArialMT-41" transform="translate(66.699219 0.203125)"/>
      <use xlink:href="#ArialMT-50" transform="translate(133.398438 0.203125)"/>
      <use xlink:href="#ArialMT-20" transform="translate(200.097656 0.203125)"/>
      <use xlink:href="#ArialMT-28" transform="translate(227.880859 0.203125)"/>
      <use xlink:href="#DejaVuSans-Oblique-3c7" transform="translate(261.181641 0.203125)"/>
      <use xlink:href="#ArialMT-3d" transform="translate(320.361328 0.203125)"/>
      <use xlink:href="#ArialMT-35" transform="translate(378.759766 0.203125)"/>
      <use xlink:href="#ArialMT-29" transform="translate(434.375 0.203125)"/>
     </g>
    </g>
    <g id="PathCollection_20">
     <g>
      <use xlink:href="#m9d1100ad6d" x="744.014687" y="195.649344" style="fill: #e85362; stroke: #ffffff; stroke-width: 0.48"/>
     </g>
    </g>
    <g id="text_21">
     <!-- NPP ($\chi$=5) -->
     <g style="fill: #262626" transform="translate(763.814687 198.536844) scale(0.11 -0.11)">
      <use xlink:href="#ArialMT-4e" transform="translate(0 0.203125)"/>
      <use xlink:href="#ArialMT-50" transform="translate(72.216797 0.203125)"/>
      <use xlink:href="#ArialMT-50" transform="translate(138.916016 0.203125)"/>
      <use xlink:href="#ArialMT-20" transform="translate(205.615234 0.203125)"/>
      <use xlink:href="#ArialMT-28" transform="translate(233.398438 0.203125)"/>
      <use xlink:href="#DejaVuSans-Oblique-3c7" transform="translate(266.699219 0.203125)"/>
      <use xlink:href="#ArialMT-3d" transform="translate(325.878906 0.203125)"/>
      <use xlink:href="#ArialMT-35" transform="translate(384.277344 0.203125)"/>
      <use xlink:href="#ArialMT-29" transform="translate(439.892578 0.203125)"/>
     </g>
    </g>
    <g id="PathCollection_21">
     <g>
      <use xlink:href="#m375d519e82" x="744.014687" y="211.599344" style="fill: #fd9b6b; stroke: #ffffff; stroke-width: 0.48"/>
     </g>
    </g>
    <g id="text_22">
     <!-- BAP ($\chi$=6) -->
     <g style="fill: #262626" transform="translate(763.814687 214.486844) scale(0.11 -0.11)">
      <use xlink:href="#ArialMT-42" transform="translate(0 0.203125)"/>
      <use xlink:href="#ArialMT-41" transform="translate(66.699219 0.203125)"/>
      <use xlink:href="#ArialMT-50" transform="translate(133.398438 0.203125)"/>
      <use xlink:href="#ArialMT-20" transform="translate(200.097656 0.203125)"/>
      <use xlink:href="#ArialMT-28" transform="translate(227.880859 0.203125)"/>
      <use xlink:href="#DejaVuSans-Oblique-3c7" transform="translate(261.181641 0.203125)"/>
      <use xlink:href="#ArialMT-3d" transform="translate(320.361328 0.203125)"/>
      <use xlink:href="#ArialMT-36" transform="translate(378.759766 0.203125)"/>
      <use xlink:href="#ArialMT-29" transform="translate(434.375 0.203125)"/>
     </g>
    </g>
    <g id="PathCollection_22">
     <g>
      <use xlink:href="#madae7a5382" x="744.014687" y="227.549344" style="fill: #fd9b6b; stroke: #ffffff; stroke-width: 0.48"/>
     </g>
    </g>
    <g id="text_23">
     <!-- NPP ($\chi$=6) -->
     <g style="fill: #262626" transform="translate(763.814687 230.436844) scale(0.11 -0.11)">
      <use xlink:href="#ArialMT-4e" transform="translate(0 0.203125)"/>
      <use xlink:href="#ArialMT-50" transform="translate(72.216797 0.203125)"/>
      <use xlink:href="#ArialMT-50" transform="translate(138.916016 0.203125)"/>
      <use xlink:href="#ArialMT-20" transform="translate(205.615234 0.203125)"/>
      <use xlink:href="#ArialMT-28" transform="translate(233.398438 0.203125)"/>
      <use xlink:href="#DejaVuSans-Oblique-3c7" transform="translate(266.699219 0.203125)"/>
      <use xlink:href="#ArialMT-3d" transform="translate(325.878906 0.203125)"/>
      <use xlink:href="#ArialMT-36" transform="translate(384.277344 0.203125)"/>
      <use xlink:href="#ArialMT-29" transform="translate(439.892578 0.203125)"/>
     </g>
    </g>
    <g id="PathCollection_23">
     <g>
      <use xlink:href="#m4c7dd31b97" x="744.014687" y="243.499344" style="fill: #fde7a9; stroke: #ffffff; stroke-width: 0.48"/>
     </g>
    </g>
    <g id="text_24">
     <!-- BAP ($\chi$=7) -->
     <g style="fill: #262626" transform="translate(763.814687 246.386844) scale(0.11 -0.11)">
      <use xlink:href="#ArialMT-42" transform="translate(0 0.203125)"/>
      <use xlink:href="#ArialMT-41" transform="translate(66.699219 0.203125)"/>
      <use xlink:href="#ArialMT-50" transform="translate(133.398438 0.203125)"/>
      <use xlink:href="#ArialMT-20" transform="translate(200.097656 0.203125)"/>
      <use xlink:href="#ArialMT-28" transform="translate(227.880859 0.203125)"/>
      <use xlink:href="#DejaVuSans-Oblique-3c7" transform="translate(261.181641 0.203125)"/>
      <use xlink:href="#ArialMT-3d" transform="translate(320.361328 0.203125)"/>
      <use xlink:href="#ArialMT-37" transform="translate(378.759766 0.203125)"/>
      <use xlink:href="#ArialMT-29" transform="translate(434.375 0.203125)"/>
     </g>
    </g>
    <g id="PathCollection_24">
     <g>
      <use xlink:href="#md06f200cf3" x="744.014687" y="259.449344" style="fill: #fde7a9; stroke: #ffffff; stroke-width: 0.48"/>
     </g>
    </g>
    <g id="text_25">
     <!-- NPP ($\chi$=7) -->
     <g style="fill: #262626" transform="translate(763.814687 262.336844) scale(0.11 -0.11)">
      <use xlink:href="#ArialMT-4e" transform="translate(0 0.203125)"/>
      <use xlink:href="#ArialMT-50" transform="translate(72.216797 0.203125)"/>
      <use xlink:href="#ArialMT-50" transform="translate(138.916016 0.203125)"/>
      <use xlink:href="#ArialMT-20" transform="translate(205.615234 0.203125)"/>
      <use xlink:href="#ArialMT-28" transform="translate(233.398438 0.203125)"/>
      <use xlink:href="#DejaVuSans-Oblique-3c7" transform="translate(266.699219 0.203125)"/>
      <use xlink:href="#ArialMT-3d" transform="translate(325.878906 0.203125)"/>
      <use xlink:href="#ArialMT-37" transform="translate(384.277344 0.203125)"/>
      <use xlink:href="#ArialMT-29" transform="translate(439.892578 0.203125)"/>
     </g>
    </g>
   </g>
  </g>
 </g>
 <defs>
  <clipPath id="p6d916ec6ad">
   <rect x="39.201563" y="7.2" width="805.21875" height="366.66"/>
  </clipPath>
 </defs>
</svg>
