<?xml version="1.0" encoding="utf-8" standalone="no"?>
<!DOCTYPE svg PUBLIC "-//W3C//DTD SVG 1.1//EN"
  "http://www.w3.org/Graphics/SVG/1.1/DTD/svg11.dtd">
<svg xmlns:xlink="http://www.w3.org/1999/xlink" width="851.555312pt" height="416.579844pt" viewBox="0 0 851.555312 416.579844" xmlns="http://www.w3.org/2000/svg" version="1.1">
 <metadata>
  <rdf:RDF xmlns:dc="http://purl.org/dc/elements/1.1/" xmlns:cc="http://creativecommons.org/ns#" xmlns:rdf="http://www.w3.org/1999/02/22-rdf-syntax-ns#">
   <cc:Work>
    <dc:type rdf:resource="http://purl.org/dc/dcmitype/StillImage"/>
    <dc:date>2024-07-30T13:14:57.936745</dc:date>
    <dc:format>image/svg+xml</dc:format>
    <dc:creator>
     <cc:Agent>
      <dc:title>Matplotlib v3.9.0, https://matplotlib.org/</dc:title>
     </cc:Agent>
    </dc:creator>
   </cc:Work>
  </rdf:RDF>
 </metadata>
 <defs>
  <style type="text/css">*{stroke-linejoin: round; stroke-linecap: butt}</style>
 </defs>
 <g id="figure_1">
  <g id="patch_1">
   <path d="M 0 416.579844 
L 851.555312 416.579844 
L 851.555312 0 
L 0 0 
z
" style="fill: #ffffff"/>
  </g>
  <g id="axes_1">
   <g id="patch_2">
    <path d="M 44.975313 373.86 
L 844.355312 373.86 
L 844.355312 7.2 
L 44.975313 7.2 
z
" style="fill: #ffffff"/>
   </g>
   <g id="matplotlib.axis_1">
    <g id="xtick_1">
     <g id="line2d_1">
      <path d="M 56.56053 373.86 
L 56.56053 7.2 
" clip-path="url(#pb4db26bc03)" style="fill: none; stroke: #cccccc; stroke-linecap: round"/>
     </g>
     <g id="text_1">
      <!-- 0.00 -->
      <g style="fill: #262626" transform="translate(45.857014 391.233594) scale(0.11 -0.11)">
       <defs>
        <path id="ArialMT-30" d="M 266 2259 
Q 266 3072 433 3567 
Q 600 4063 929 4331 
Q 1259 4600 1759 4600 
Q 2128 4600 2406 4451 
Q 2684 4303 2865 4023 
Q 3047 3744 3150 3342 
Q 3253 2941 3253 2259 
Q 3253 1453 3087 958 
Q 2922 463 2592 192 
Q 2263 -78 1759 -78 
Q 1097 -78 719 397 
Q 266 969 266 2259 
z
M 844 2259 
Q 844 1131 1108 757 
Q 1372 384 1759 384 
Q 2147 384 2411 759 
Q 2675 1134 2675 2259 
Q 2675 3391 2411 3762 
Q 2147 4134 1753 4134 
Q 1366 4134 1134 3806 
Q 844 3388 844 2259 
z
" transform="scale(0.015625)"/>
        <path id="ArialMT-2e" d="M 581 0 
L 581 641 
L 1222 641 
L 1222 0 
L 581 0 
z
" transform="scale(0.015625)"/>
       </defs>
       <use xlink:href="#ArialMT-30"/>
       <use xlink:href="#ArialMT-2e" x="55.615234"/>
       <use xlink:href="#ArialMT-30" x="83.398438"/>
       <use xlink:href="#ArialMT-30" x="139.013672"/>
      </g>
     </g>
    </g>
    <g id="xtick_2">
     <g id="line2d_2">
      <path d="M 211.030095 373.86 
L 211.030095 7.2 
" clip-path="url(#pb4db26bc03)" style="fill: none; stroke: #cccccc; stroke-linecap: round"/>
     </g>
     <g id="text_2">
      <!-- 0.02 -->
      <g style="fill: #262626" transform="translate(200.326579 391.233594) scale(0.11 -0.11)">
       <defs>
        <path id="ArialMT-32" d="M 3222 541 
L 3222 0 
L 194 0 
Q 188 203 259 391 
Q 375 700 629 1000 
Q 884 1300 1366 1694 
Q 2113 2306 2375 2664 
Q 2638 3022 2638 3341 
Q 2638 3675 2398 3904 
Q 2159 4134 1775 4134 
Q 1369 4134 1125 3890 
Q 881 3647 878 3216 
L 300 3275 
Q 359 3922 746 4261 
Q 1134 4600 1788 4600 
Q 2447 4600 2831 4234 
Q 3216 3869 3216 3328 
Q 3216 3053 3103 2787 
Q 2991 2522 2730 2228 
Q 2469 1934 1863 1422 
Q 1356 997 1212 845 
Q 1069 694 975 541 
L 3222 541 
z
" transform="scale(0.015625)"/>
       </defs>
       <use xlink:href="#ArialMT-30"/>
       <use xlink:href="#ArialMT-2e" x="55.615234"/>
       <use xlink:href="#ArialMT-30" x="83.398438"/>
       <use xlink:href="#ArialMT-32" x="139.013672"/>
      </g>
     </g>
    </g>
    <g id="xtick_3">
     <g id="line2d_3">
      <path d="M 365.49966 373.86 
L 365.49966 7.2 
" clip-path="url(#pb4db26bc03)" style="fill: none; stroke: #cccccc; stroke-linecap: round"/>
     </g>
     <g id="text_3">
      <!-- 0.04 -->
      <g style="fill: #262626" transform="translate(354.796145 391.233594) scale(0.11 -0.11)">
       <defs>
        <path id="ArialMT-34" d="M 2069 0 
L 2069 1097 
L 81 1097 
L 81 1613 
L 2172 4581 
L 2631 4581 
L 2631 1613 
L 3250 1613 
L 3250 1097 
L 2631 1097 
L 2631 0 
L 2069 0 
z
M 2069 1613 
L 2069 3678 
L 634 1613 
L 2069 1613 
z
" transform="scale(0.015625)"/>
       </defs>
       <use xlink:href="#ArialMT-30"/>
       <use xlink:href="#ArialMT-2e" x="55.615234"/>
       <use xlink:href="#ArialMT-30" x="83.398438"/>
       <use xlink:href="#ArialMT-34" x="139.013672"/>
      </g>
     </g>
    </g>
    <g id="xtick_4">
     <g id="line2d_4">
      <path d="M 519.969226 373.86 
L 519.969226 7.2 
" clip-path="url(#pb4db26bc03)" style="fill: none; stroke: #cccccc; stroke-linecap: round"/>
     </g>
     <g id="text_4">
      <!-- 0.06 -->
      <g style="fill: #262626" transform="translate(509.26571 391.233594) scale(0.11 -0.11)">
       <defs>
        <path id="ArialMT-36" d="M 3184 3459 
L 2625 3416 
Q 2550 3747 2413 3897 
Q 2184 4138 1850 4138 
Q 1581 4138 1378 3988 
Q 1113 3794 959 3422 
Q 806 3050 800 2363 
Q 1003 2672 1297 2822 
Q 1591 2972 1913 2972 
Q 2475 2972 2870 2558 
Q 3266 2144 3266 1488 
Q 3266 1056 3080 686 
Q 2894 316 2569 119 
Q 2244 -78 1831 -78 
Q 1128 -78 684 439 
Q 241 956 241 2144 
Q 241 3472 731 4075 
Q 1159 4600 1884 4600 
Q 2425 4600 2770 4297 
Q 3116 3994 3184 3459 
z
M 888 1484 
Q 888 1194 1011 928 
Q 1134 663 1356 523 
Q 1578 384 1822 384 
Q 2178 384 2434 671 
Q 2691 959 2691 1453 
Q 2691 1928 2437 2201 
Q 2184 2475 1800 2475 
Q 1419 2475 1153 2201 
Q 888 1928 888 1484 
z
" transform="scale(0.015625)"/>
       </defs>
       <use xlink:href="#ArialMT-30"/>
       <use xlink:href="#ArialMT-2e" x="55.615234"/>
       <use xlink:href="#ArialMT-30" x="83.398438"/>
       <use xlink:href="#ArialMT-36" x="139.013672"/>
      </g>
     </g>
    </g>
    <g id="xtick_5">
     <g id="line2d_5">
      <path d="M 674.438791 373.86 
L 674.438791 7.2 
" clip-path="url(#pb4db26bc03)" style="fill: none; stroke: #cccccc; stroke-linecap: round"/>
     </g>
     <g id="text_5">
      <!-- 0.08 -->
      <g style="fill: #262626" transform="translate(663.735275 391.233594) scale(0.11 -0.11)">
       <defs>
        <path id="ArialMT-38" d="M 1131 2484 
Q 781 2613 612 2850 
Q 444 3088 444 3419 
Q 444 3919 803 4259 
Q 1163 4600 1759 4600 
Q 2359 4600 2725 4251 
Q 3091 3903 3091 3403 
Q 3091 3084 2923 2848 
Q 2756 2613 2416 2484 
Q 2838 2347 3058 2040 
Q 3278 1734 3278 1309 
Q 3278 722 2862 322 
Q 2447 -78 1769 -78 
Q 1091 -78 675 323 
Q 259 725 259 1325 
Q 259 1772 486 2073 
Q 713 2375 1131 2484 
z
M 1019 3438 
Q 1019 3113 1228 2906 
Q 1438 2700 1772 2700 
Q 2097 2700 2305 2904 
Q 2513 3109 2513 3406 
Q 2513 3716 2298 3927 
Q 2084 4138 1766 4138 
Q 1444 4138 1231 3931 
Q 1019 3725 1019 3438 
z
M 838 1322 
Q 838 1081 952 856 
Q 1066 631 1291 507 
Q 1516 384 1775 384 
Q 2178 384 2440 643 
Q 2703 903 2703 1303 
Q 2703 1709 2433 1975 
Q 2163 2241 1756 2241 
Q 1359 2241 1098 1978 
Q 838 1716 838 1322 
z
" transform="scale(0.015625)"/>
       </defs>
       <use xlink:href="#ArialMT-30"/>
       <use xlink:href="#ArialMT-2e" x="55.615234"/>
       <use xlink:href="#ArialMT-30" x="83.398438"/>
       <use xlink:href="#ArialMT-38" x="139.013672"/>
      </g>
     </g>
    </g>
    <g id="xtick_6">
     <g id="line2d_6">
      <path d="M 828.908356 373.86 
L 828.908356 7.2 
" clip-path="url(#pb4db26bc03)" style="fill: none; stroke: #cccccc; stroke-linecap: round"/>
     </g>
     <g id="text_6">
      <!-- 0.10 -->
      <g style="fill: #262626" transform="translate(818.20484 391.233594) scale(0.11 -0.11)">
       <defs>
        <path id="ArialMT-31" d="M 2384 0 
L 1822 0 
L 1822 3584 
Q 1619 3391 1289 3197 
Q 959 3003 697 2906 
L 697 3450 
Q 1169 3672 1522 3987 
Q 1875 4303 2022 4600 
L 2384 4600 
L 2384 0 
z
" transform="scale(0.015625)"/>
       </defs>
       <use xlink:href="#ArialMT-30"/>
       <use xlink:href="#ArialMT-2e" x="55.615234"/>
       <use xlink:href="#ArialMT-31" x="83.398438"/>
       <use xlink:href="#ArialMT-30" x="139.013672"/>
      </g>
     </g>
    </g>
    <g id="text_7">
     <!-- Epsilon $\varepsilon$ -->
     <g style="fill: #262626" transform="translate(418.015313 406.779844) scale(0.13 -0.13)">
      <defs>
       <path id="ArialMT-45" d="M 506 0 
L 506 4581 
L 3819 4581 
L 3819 4041 
L 1113 4041 
L 1113 2638 
L 3647 2638 
L 3647 2100 
L 1113 2100 
L 1113 541 
L 3925 541 
L 3925 0 
L 506 0 
z
" transform="scale(0.015625)"/>
       <path id="ArialMT-70" d="M 422 -1272 
L 422 3319 
L 934 3319 
L 934 2888 
Q 1116 3141 1344 3267 
Q 1572 3394 1897 3394 
Q 2322 3394 2647 3175 
Q 2972 2956 3137 2557 
Q 3303 2159 3303 1684 
Q 3303 1175 3120 767 
Q 2938 359 2589 142 
Q 2241 -75 1856 -75 
Q 1575 -75 1351 44 
Q 1128 163 984 344 
L 984 -1272 
L 422 -1272 
z
M 931 1641 
Q 931 1000 1190 694 
Q 1450 388 1819 388 
Q 2194 388 2461 705 
Q 2728 1022 2728 1688 
Q 2728 2322 2467 2637 
Q 2206 2953 1844 2953 
Q 1484 2953 1207 2617 
Q 931 2281 931 1641 
z
" transform="scale(0.015625)"/>
       <path id="ArialMT-73" d="M 197 991 
L 753 1078 
Q 800 744 1014 566 
Q 1228 388 1613 388 
Q 2000 388 2187 545 
Q 2375 703 2375 916 
Q 2375 1106 2209 1216 
Q 2094 1291 1634 1406 
Q 1016 1563 777 1677 
Q 538 1791 414 1992 
Q 291 2194 291 2438 
Q 291 2659 392 2848 
Q 494 3038 669 3163 
Q 800 3259 1026 3326 
Q 1253 3394 1513 3394 
Q 1903 3394 2198 3281 
Q 2494 3169 2634 2976 
Q 2775 2784 2828 2463 
L 2278 2388 
Q 2241 2644 2061 2787 
Q 1881 2931 1553 2931 
Q 1166 2931 1000 2803 
Q 834 2675 834 2503 
Q 834 2394 903 2306 
Q 972 2216 1119 2156 
Q 1203 2125 1616 2013 
Q 2213 1853 2448 1751 
Q 2684 1650 2818 1456 
Q 2953 1263 2953 975 
Q 2953 694 2789 445 
Q 2625 197 2315 61 
Q 2006 -75 1616 -75 
Q 969 -75 630 194 
Q 291 463 197 991 
z
" transform="scale(0.015625)"/>
       <path id="ArialMT-69" d="M 425 3934 
L 425 4581 
L 988 4581 
L 988 3934 
L 425 3934 
z
M 425 0 
L 425 3319 
L 988 3319 
L 988 0 
L 425 0 
z
" transform="scale(0.015625)"/>
       <path id="ArialMT-6c" d="M 409 0 
L 409 4581 
L 972 4581 
L 972 0 
L 409 0 
z
" transform="scale(0.015625)"/>
       <path id="ArialMT-6f" d="M 213 1659 
Q 213 2581 725 3025 
Q 1153 3394 1769 3394 
Q 2453 3394 2887 2945 
Q 3322 2497 3322 1706 
Q 3322 1066 3130 698 
Q 2938 331 2570 128 
Q 2203 -75 1769 -75 
Q 1072 -75 642 372 
Q 213 819 213 1659 
z
M 791 1659 
Q 791 1022 1069 705 
Q 1347 388 1769 388 
Q 2188 388 2466 706 
Q 2744 1025 2744 1678 
Q 2744 2294 2464 2611 
Q 2184 2928 1769 2928 
Q 1347 2928 1069 2612 
Q 791 2297 791 1659 
z
" transform="scale(0.015625)"/>
       <path id="ArialMT-6e" d="M 422 0 
L 422 3319 
L 928 3319 
L 928 2847 
Q 1294 3394 1984 3394 
Q 2284 3394 2536 3286 
Q 2788 3178 2913 3003 
Q 3038 2828 3088 2588 
Q 3119 2431 3119 2041 
L 3119 0 
L 2556 0 
L 2556 2019 
Q 2556 2363 2490 2533 
Q 2425 2703 2258 2804 
Q 2091 2906 1866 2906 
Q 1506 2906 1245 2678 
Q 984 2450 984 1813 
L 984 0 
L 422 0 
z
" transform="scale(0.015625)"/>
       <path id="ArialMT-20" transform="scale(0.015625)"/>
       <path id="DejaVuSans-Oblique-3b5" d="M 1263 1888 
Q 925 1963 778 2166 
Q 669 2309 669 2503 
Q 669 3034 1175 3344 
Q 1575 3588 2188 3588 
Q 2425 3588 2684 3550 
Q 2944 3513 3234 3438 
L 3134 2916 
Q 2847 3006 2606 3047 
Q 2359 3088 2138 3088 
Q 1766 3088 1522 2944 
Q 1228 2772 1228 2522 
Q 1228 2356 1381 2241 
Q 1563 2103 1925 2103 
L 2409 2103 
L 2319 1628 
L 1856 1628 
Q 1425 1628 1172 1469 
Q 828 1253 828 916 
Q 828 703 1013 563 
Q 1244 388 1716 388 
Q 2006 388 2284 444 
Q 2563 503 2806 619 
L 2700 84 
Q 2403 -3 2131 -47 
Q 1859 -91 1609 -91 
Q 866 -91 516 194 
Q 250 413 250 781 
Q 250 1278 600 1584 
Q 859 1813 1263 1888 
z
" transform="scale(0.015625)"/>
      </defs>
      <use xlink:href="#ArialMT-45" transform="translate(0 0.421875)"/>
      <use xlink:href="#ArialMT-70" transform="translate(66.699219 0.421875)"/>
      <use xlink:href="#ArialMT-73" transform="translate(122.314453 0.421875)"/>
      <use xlink:href="#ArialMT-69" transform="translate(172.314453 0.421875)"/>
      <use xlink:href="#ArialMT-6c" transform="translate(194.53125 0.421875)"/>
      <use xlink:href="#ArialMT-6f" transform="translate(216.748047 0.421875)"/>
      <use xlink:href="#ArialMT-6e" transform="translate(272.363281 0.421875)"/>
      <use xlink:href="#ArialMT-20" transform="translate(327.978516 0.421875)"/>
      <use xlink:href="#DejaVuSans-Oblique-3b5" transform="translate(355.761719 0.421875)"/>
     </g>
    </g>
   </g>
   <g id="matplotlib.axis_2">
    <g id="ytick_1">
     <g id="line2d_7">
      <path d="M 44.975313 343.751825 
L 844.355312 343.751825 
" clip-path="url(#pb4db26bc03)" style="fill: none; stroke: #cccccc; stroke-linecap: round"/>
     </g>
     <g id="text_8">
      <!-- 9 -->
      <g style="fill: #262626" transform="translate(29.358281 347.688622) scale(0.11 -0.11)">
       <defs>
        <path id="ArialMT-39" d="M 350 1059 
L 891 1109 
Q 959 728 1153 556 
Q 1347 384 1650 384 
Q 1909 384 2104 503 
Q 2300 622 2425 820 
Q 2550 1019 2634 1356 
Q 2719 1694 2719 2044 
Q 2719 2081 2716 2156 
Q 2547 1888 2255 1720 
Q 1963 1553 1622 1553 
Q 1053 1553 659 1965 
Q 266 2378 266 3053 
Q 266 3750 677 4175 
Q 1088 4600 1706 4600 
Q 2153 4600 2523 4359 
Q 2894 4119 3086 3673 
Q 3278 3228 3278 2384 
Q 3278 1506 3087 986 
Q 2897 466 2520 194 
Q 2144 -78 1638 -78 
Q 1100 -78 759 220 
Q 419 519 350 1059 
z
M 2653 3081 
Q 2653 3566 2395 3850 
Q 2138 4134 1775 4134 
Q 1400 4134 1122 3828 
Q 844 3522 844 3034 
Q 844 2597 1108 2323 
Q 1372 2050 1759 2050 
Q 2150 2050 2401 2323 
Q 2653 2597 2653 3081 
z
" transform="scale(0.015625)"/>
       </defs>
       <use xlink:href="#ArialMT-39"/>
      </g>
     </g>
    </g>
    <g id="ytick_2">
     <g id="line2d_8">
      <path d="M 44.975313 282.054746 
L 844.355312 282.054746 
" clip-path="url(#pb4db26bc03)" style="fill: none; stroke: #cccccc; stroke-linecap: round"/>
     </g>
     <g id="text_9">
      <!-- 10 -->
      <g style="fill: #262626" transform="translate(23.24125 285.991542) scale(0.11 -0.11)">
       <use xlink:href="#ArialMT-31"/>
       <use xlink:href="#ArialMT-30" x="55.615234"/>
      </g>
     </g>
    </g>
    <g id="ytick_3">
     <g id="line2d_9">
      <path d="M 44.975313 220.357666 
L 844.355312 220.357666 
" clip-path="url(#pb4db26bc03)" style="fill: none; stroke: #cccccc; stroke-linecap: round"/>
     </g>
     <g id="text_10">
      <!-- 11 -->
      <g style="fill: #262626" transform="translate(24.0525 224.294463) scale(0.11 -0.11)">
       <use xlink:href="#ArialMT-31"/>
       <use xlink:href="#ArialMT-31" x="48.240234"/>
      </g>
     </g>
    </g>
    <g id="ytick_4">
     <g id="line2d_10">
      <path d="M 44.975313 158.660586 
L 844.355312 158.660586 
" clip-path="url(#pb4db26bc03)" style="fill: none; stroke: #cccccc; stroke-linecap: round"/>
     </g>
     <g id="text_11">
      <!-- 12 -->
      <g style="fill: #262626" transform="translate(23.24125 162.597383) scale(0.11 -0.11)">
       <use xlink:href="#ArialMT-31"/>
       <use xlink:href="#ArialMT-32" x="55.615234"/>
      </g>
     </g>
    </g>
    <g id="ytick_5">
     <g id="line2d_11">
      <path d="M 44.975313 96.963507 
L 844.355312 96.963507 
" clip-path="url(#pb4db26bc03)" style="fill: none; stroke: #cccccc; stroke-linecap: round"/>
     </g>
     <g id="text_12">
      <!-- 13 -->
      <g style="fill: #262626" transform="translate(23.24125 100.900304) scale(0.11 -0.11)">
       <defs>
        <path id="ArialMT-33" d="M 269 1209 
L 831 1284 
Q 928 806 1161 595 
Q 1394 384 1728 384 
Q 2125 384 2398 659 
Q 2672 934 2672 1341 
Q 2672 1728 2419 1979 
Q 2166 2231 1775 2231 
Q 1616 2231 1378 2169 
L 1441 2663 
Q 1497 2656 1531 2656 
Q 1891 2656 2178 2843 
Q 2466 3031 2466 3422 
Q 2466 3731 2256 3934 
Q 2047 4138 1716 4138 
Q 1388 4138 1169 3931 
Q 950 3725 888 3313 
L 325 3413 
Q 428 3978 793 4289 
Q 1159 4600 1703 4600 
Q 2078 4600 2393 4439 
Q 2709 4278 2876 4000 
Q 3044 3722 3044 3409 
Q 3044 3113 2884 2869 
Q 2725 2625 2413 2481 
Q 2819 2388 3044 2092 
Q 3269 1797 3269 1353 
Q 3269 753 2831 336 
Q 2394 -81 1725 -81 
Q 1122 -81 723 278 
Q 325 638 269 1209 
z
" transform="scale(0.015625)"/>
       </defs>
       <use xlink:href="#ArialMT-31"/>
       <use xlink:href="#ArialMT-33" x="55.615234"/>
      </g>
     </g>
    </g>
    <g id="ytick_6">
     <g id="line2d_12">
      <path d="M 44.975313 35.266427 
L 844.355312 35.266427 
" clip-path="url(#pb4db26bc03)" style="fill: none; stroke: #cccccc; stroke-linecap: round"/>
     </g>
     <g id="text_13">
      <!-- 14 -->
      <g style="fill: #262626" transform="translate(23.24125 39.203224) scale(0.11 -0.11)">
       <use xlink:href="#ArialMT-31"/>
       <use xlink:href="#ArialMT-34" x="55.615234"/>
      </g>
     </g>
    </g>
    <g id="text_14">
     <!-- Total Undercoverage -->
     <g style="fill: #262626" transform="translate(16.505156 250.501641) rotate(-90) scale(0.13 -0.13)">
      <defs>
       <path id="ArialMT-54" d="M 1659 0 
L 1659 4041 
L 150 4041 
L 150 4581 
L 3781 4581 
L 3781 4041 
L 2266 4041 
L 2266 0 
L 1659 0 
z
" transform="scale(0.015625)"/>
       <path id="ArialMT-74" d="M 1650 503 
L 1731 6 
Q 1494 -44 1306 -44 
Q 1000 -44 831 53 
Q 663 150 594 308 
Q 525 466 525 972 
L 525 2881 
L 113 2881 
L 113 3319 
L 525 3319 
L 525 4141 
L 1084 4478 
L 1084 3319 
L 1650 3319 
L 1650 2881 
L 1084 2881 
L 1084 941 
Q 1084 700 1114 631 
Q 1144 563 1211 522 
Q 1278 481 1403 481 
Q 1497 481 1650 503 
z
" transform="scale(0.015625)"/>
       <path id="ArialMT-61" d="M 2588 409 
Q 2275 144 1986 34 
Q 1697 -75 1366 -75 
Q 819 -75 525 192 
Q 231 459 231 875 
Q 231 1119 342 1320 
Q 453 1522 633 1644 
Q 813 1766 1038 1828 
Q 1203 1872 1538 1913 
Q 2219 1994 2541 2106 
Q 2544 2222 2544 2253 
Q 2544 2597 2384 2738 
Q 2169 2928 1744 2928 
Q 1347 2928 1158 2789 
Q 969 2650 878 2297 
L 328 2372 
Q 403 2725 575 2942 
Q 747 3159 1072 3276 
Q 1397 3394 1825 3394 
Q 2250 3394 2515 3294 
Q 2781 3194 2906 3042 
Q 3031 2891 3081 2659 
Q 3109 2516 3109 2141 
L 3109 1391 
Q 3109 606 3145 398 
Q 3181 191 3288 0 
L 2700 0 
Q 2613 175 2588 409 
z
M 2541 1666 
Q 2234 1541 1622 1453 
Q 1275 1403 1131 1340 
Q 988 1278 909 1158 
Q 831 1038 831 891 
Q 831 666 1001 516 
Q 1172 366 1500 366 
Q 1825 366 2078 508 
Q 2331 650 2450 897 
Q 2541 1088 2541 1459 
L 2541 1666 
z
" transform="scale(0.015625)"/>
       <path id="ArialMT-55" d="M 3500 4581 
L 4106 4581 
L 4106 1934 
Q 4106 1244 3950 837 
Q 3794 431 3386 176 
Q 2978 -78 2316 -78 
Q 1672 -78 1262 144 
Q 853 366 678 786 
Q 503 1206 503 1934 
L 503 4581 
L 1109 4581 
L 1109 1938 
Q 1109 1341 1220 1058 
Q 1331 775 1601 622 
Q 1872 469 2263 469 
Q 2931 469 3215 772 
Q 3500 1075 3500 1938 
L 3500 4581 
z
" transform="scale(0.015625)"/>
       <path id="ArialMT-64" d="M 2575 0 
L 2575 419 
Q 2259 -75 1647 -75 
Q 1250 -75 917 144 
Q 584 363 401 755 
Q 219 1147 219 1656 
Q 219 2153 384 2558 
Q 550 2963 881 3178 
Q 1213 3394 1622 3394 
Q 1922 3394 2156 3267 
Q 2391 3141 2538 2938 
L 2538 4581 
L 3097 4581 
L 3097 0 
L 2575 0 
z
M 797 1656 
Q 797 1019 1065 703 
Q 1334 388 1700 388 
Q 2069 388 2326 689 
Q 2584 991 2584 1609 
Q 2584 2291 2321 2609 
Q 2059 2928 1675 2928 
Q 1300 2928 1048 2622 
Q 797 2316 797 1656 
z
" transform="scale(0.015625)"/>
       <path id="ArialMT-65" d="M 2694 1069 
L 3275 997 
Q 3138 488 2766 206 
Q 2394 -75 1816 -75 
Q 1088 -75 661 373 
Q 234 822 234 1631 
Q 234 2469 665 2931 
Q 1097 3394 1784 3394 
Q 2450 3394 2872 2941 
Q 3294 2488 3294 1666 
Q 3294 1616 3291 1516 
L 816 1516 
Q 847 969 1125 678 
Q 1403 388 1819 388 
Q 2128 388 2347 550 
Q 2566 713 2694 1069 
z
M 847 1978 
L 2700 1978 
Q 2663 2397 2488 2606 
Q 2219 2931 1791 2931 
Q 1403 2931 1139 2672 
Q 875 2413 847 1978 
z
" transform="scale(0.015625)"/>
       <path id="ArialMT-72" d="M 416 0 
L 416 3319 
L 922 3319 
L 922 2816 
Q 1116 3169 1280 3281 
Q 1444 3394 1641 3394 
Q 1925 3394 2219 3213 
L 2025 2691 
Q 1819 2813 1613 2813 
Q 1428 2813 1281 2702 
Q 1134 2591 1072 2394 
Q 978 2094 978 1738 
L 978 0 
L 416 0 
z
" transform="scale(0.015625)"/>
       <path id="ArialMT-63" d="M 2588 1216 
L 3141 1144 
Q 3050 572 2676 248 
Q 2303 -75 1759 -75 
Q 1078 -75 664 370 
Q 250 816 250 1647 
Q 250 2184 428 2587 
Q 606 2991 970 3192 
Q 1334 3394 1763 3394 
Q 2303 3394 2647 3120 
Q 2991 2847 3088 2344 
L 2541 2259 
Q 2463 2594 2264 2762 
Q 2066 2931 1784 2931 
Q 1359 2931 1093 2626 
Q 828 2322 828 1663 
Q 828 994 1084 691 
Q 1341 388 1753 388 
Q 2084 388 2306 591 
Q 2528 794 2588 1216 
z
" transform="scale(0.015625)"/>
       <path id="ArialMT-76" d="M 1344 0 
L 81 3319 
L 675 3319 
L 1388 1331 
Q 1503 1009 1600 663 
Q 1675 925 1809 1294 
L 2547 3319 
L 3125 3319 
L 1869 0 
L 1344 0 
z
" transform="scale(0.015625)"/>
       <path id="ArialMT-67" d="M 319 -275 
L 866 -356 
Q 900 -609 1056 -725 
Q 1266 -881 1628 -881 
Q 2019 -881 2231 -725 
Q 2444 -569 2519 -288 
Q 2563 -116 2559 434 
Q 2191 0 1641 0 
Q 956 0 581 494 
Q 206 988 206 1678 
Q 206 2153 378 2554 
Q 550 2956 876 3175 
Q 1203 3394 1644 3394 
Q 2231 3394 2613 2919 
L 2613 3319 
L 3131 3319 
L 3131 450 
Q 3131 -325 2973 -648 
Q 2816 -972 2473 -1159 
Q 2131 -1347 1631 -1347 
Q 1038 -1347 672 -1080 
Q 306 -813 319 -275 
z
M 784 1719 
Q 784 1066 1043 766 
Q 1303 466 1694 466 
Q 2081 466 2343 764 
Q 2606 1063 2606 1700 
Q 2606 2309 2336 2618 
Q 2066 2928 1684 2928 
Q 1309 2928 1046 2623 
Q 784 2319 784 1719 
z
" transform="scale(0.015625)"/>
      </defs>
      <use xlink:href="#ArialMT-54"/>
      <use xlink:href="#ArialMT-6f" x="49.958984"/>
      <use xlink:href="#ArialMT-74" x="105.574219"/>
      <use xlink:href="#ArialMT-61" x="133.357422"/>
      <use xlink:href="#ArialMT-6c" x="188.972656"/>
      <use xlink:href="#ArialMT-20" x="211.189453"/>
      <use xlink:href="#ArialMT-55" x="238.972656"/>
      <use xlink:href="#ArialMT-6e" x="311.189453"/>
      <use xlink:href="#ArialMT-64" x="366.804688"/>
      <use xlink:href="#ArialMT-65" x="422.419922"/>
      <use xlink:href="#ArialMT-72" x="478.035156"/>
      <use xlink:href="#ArialMT-63" x="511.335938"/>
      <use xlink:href="#ArialMT-6f" x="561.335938"/>
      <use xlink:href="#ArialMT-76" x="616.951172"/>
      <use xlink:href="#ArialMT-65" x="666.951172"/>
      <use xlink:href="#ArialMT-72" x="722.566406"/>
      <use xlink:href="#ArialMT-61" x="755.867188"/>
      <use xlink:href="#ArialMT-67" x="811.482422"/>
      <use xlink:href="#ArialMT-65" x="867.097656"/>
     </g>
    </g>
   </g>
   <g id="PathCollection_1">
    <defs>
     <path id="m524afa6089" d="M 0 3 
C 0.795609 3 1.55874 2.683901 2.12132 2.12132 
C 2.683901 1.55874 3 0.795609 3 0 
C 3 -0.795609 2.683901 -1.55874 2.12132 -2.12132 
C 1.55874 -2.683901 0.795609 -3 0 -3 
C -0.795609 -3 -1.55874 -2.683901 -2.12132 -2.12132 
C -2.683901 -1.55874 -3 -0.795609 -3 0 
C -3 0.795609 -2.683901 1.55874 -2.12132 2.12132 
C -1.55874 2.683901 -0.795609 3 0 3 
z
" style="stroke: #ffffff; stroke-width: 0.48"/>
    </defs>
    <g clip-path="url(#pb4db26bc03)">
     <use xlink:href="#m524afa6089" x="56.56053" y="346.219708" style="fill: #251255; stroke: #ffffff; stroke-width: 0.48"/>
     <use xlink:href="#m524afa6089" x="56.56053" y="346.219708" style="fill: #251255; stroke: #ffffff; stroke-width: 0.48"/>
     <use xlink:href="#m524afa6089" x="56.56053" y="346.219708" style="fill: #251255; stroke: #ffffff; stroke-width: 0.48"/>
     <use xlink:href="#m524afa6089" x="56.56053" y="346.219708" style="fill: #251255; stroke: #ffffff; stroke-width: 0.48"/>
     <use xlink:href="#m524afa6089" x="56.56053" y="346.219708" style="fill: #251255; stroke: #ffffff; stroke-width: 0.48"/>
     <use xlink:href="#m524afa6089" x="211.030095" y="343.603752" style="fill: #251255; stroke: #ffffff; stroke-width: 0.48"/>
     <use xlink:href="#m524afa6089" x="211.030095" y="341.432015" style="fill: #251255; stroke: #ffffff; stroke-width: 0.48"/>
     <use xlink:href="#m524afa6089" x="211.030095" y="339.84023" style="fill: #251255; stroke: #ffffff; stroke-width: 0.48"/>
     <use xlink:href="#m524afa6089" x="211.030095" y="338.125051" style="fill: #251255; stroke: #ffffff; stroke-width: 0.48"/>
     <use xlink:href="#m524afa6089" x="211.030095" y="336.015011" style="fill: #251255; stroke: #ffffff; stroke-width: 0.48"/>
     <use xlink:href="#m524afa6089" x="365.49966" y="341.061832" style="fill: #251255; stroke: #ffffff; stroke-width: 0.48"/>
     <use xlink:href="#m524afa6089" x="365.49966" y="336.372854" style="fill: #251255; stroke: #ffffff; stroke-width: 0.48"/>
     <use xlink:href="#m524afa6089" x="365.49966" y="333.337358" style="fill: #251255; stroke: #ffffff; stroke-width: 0.48"/>
     <use xlink:href="#m524afa6089" x="365.49966" y="329.758927" style="fill: #251255; stroke: #ffffff; stroke-width: 0.48"/>
     <use xlink:href="#m524afa6089" x="365.49966" y="325.834993" style="fill: #251255; stroke: #ffffff; stroke-width: 0.48"/>
     <use xlink:href="#m524afa6089" x="519.969226" y="338.630968" style="fill: #251255; stroke: #ffffff; stroke-width: 0.48"/>
     <use xlink:href="#m524afa6089" x="519.969226" y="332.02938" style="fill: #251255; stroke: #ffffff; stroke-width: 0.48"/>
     <use xlink:href="#m524afa6089" x="519.969226" y="326.933201" style="fill: #251255; stroke: #ffffff; stroke-width: 0.48"/>
     <use xlink:href="#m524afa6089" x="519.969226" y="322.478672" style="fill: #251255; stroke: #ffffff; stroke-width: 0.48"/>
     <use xlink:href="#m524afa6089" x="519.969226" y="317.074008" style="fill: #251255; stroke: #ffffff; stroke-width: 0.48"/>
     <use xlink:href="#m524afa6089" x="674.438791" y="336.348176" style="fill: #251255; stroke: #ffffff; stroke-width: 0.48"/>
     <use xlink:href="#m524afa6089" x="674.438791" y="327.661227" style="fill: #251255; stroke: #ffffff; stroke-width: 0.48"/>
     <use xlink:href="#m524afa6089" x="674.438791" y="321.812344" style="fill: #251255; stroke: #ffffff; stroke-width: 0.48"/>
     <use xlink:href="#m524afa6089" x="674.438791" y="316.160891" style="fill: #251255; stroke: #ffffff; stroke-width: 0.48"/>
     <use xlink:href="#m524afa6089" x="674.438791" y="310.410723" style="fill: #251255; stroke: #ffffff; stroke-width: 0.48"/>
     <use xlink:href="#m524afa6089" x="828.908356" y="334.065384" style="fill: #251255; stroke: #ffffff; stroke-width: 0.48"/>
     <use xlink:href="#m524afa6089" x="828.908356" y="324.00876" style="fill: #251255; stroke: #ffffff; stroke-width: 0.48"/>
     <use xlink:href="#m524afa6089" x="828.908356" y="317.65396" style="fill: #251255; stroke: #ffffff; stroke-width: 0.48"/>
     <use xlink:href="#m524afa6089" x="828.908356" y="311.422555" style="fill: #251255; stroke: #ffffff; stroke-width: 0.48"/>
     <use xlink:href="#m524afa6089" x="828.908356" y="304.820968" style="fill: #251255; stroke: #ffffff; stroke-width: 0.48"/>
    </g>
   </g>
   <g id="PathCollection_2">
    <defs>
     <path id="mcd01eed9e6" d="M -3 3 
L 3 3 
L 3 -3 
L -3 -3 
z
" style="stroke: #ffffff; stroke-width: 0.48"/>
    </defs>
    <g clip-path="url(#pb4db26bc03)">
     <use xlink:href="#mcd01eed9e6" x="56.56053" y="346.219708" style="fill: #251255; stroke: #ffffff; stroke-width: 0.48"/>
     <use xlink:href="#mcd01eed9e6" x="56.56053" y="346.219708" style="fill: #251255; stroke: #ffffff; stroke-width: 0.48"/>
     <use xlink:href="#mcd01eed9e6" x="56.56053" y="346.219708" style="fill: #251255; stroke: #ffffff; stroke-width: 0.48"/>
     <use xlink:href="#mcd01eed9e6" x="56.56053" y="346.219708" style="fill: #251255; stroke: #ffffff; stroke-width: 0.48"/>
     <use xlink:href="#mcd01eed9e6" x="56.56053" y="346.219708" style="fill: #251255; stroke: #ffffff; stroke-width: 0.48"/>
     <use xlink:href="#mcd01eed9e6" x="211.030095" y="309.078066" style="fill: #251255; stroke: #ffffff; stroke-width: 0.48"/>
     <use xlink:href="#mcd01eed9e6" x="211.030095" y="291.24761" style="fill: #251255; stroke: #ffffff; stroke-width: 0.48"/>
     <use xlink:href="#mcd01eed9e6" x="211.030095" y="286.496935" style="fill: #251255; stroke: #ffffff; stroke-width: 0.48"/>
     <use xlink:href="#mcd01eed9e6" x="211.030095" y="283.412081" style="fill: #251255; stroke: #ffffff; stroke-width: 0.48"/>
     <use xlink:href="#mcd01eed9e6" x="211.030095" y="281.74626" style="fill: #251255; stroke: #ffffff; stroke-width: 0.48"/>
     <use xlink:href="#mcd01eed9e6" x="365.49966" y="271.874727" style="fill: #251255; stroke: #ffffff; stroke-width: 0.48"/>
     <use xlink:href="#mcd01eed9e6" x="365.49966" y="235.658542" style="fill: #251255; stroke: #ffffff; stroke-width: 0.48"/>
     <use xlink:href="#mcd01eed9e6" x="365.49966" y="226.712465" style="fill: #251255; stroke: #ffffff; stroke-width: 0.48"/>
     <use xlink:href="#mcd01eed9e6" x="365.49966" y="220.542757" style="fill: #251255; stroke: #ffffff; stroke-width: 0.48"/>
     <use xlink:href="#mcd01eed9e6" x="365.49966" y="217.272812" style="fill: #251255; stroke: #ffffff; stroke-width: 0.48"/>
     <use xlink:href="#mcd01eed9e6" x="519.969226" y="234.733085" style="fill: #251255; stroke: #ffffff; stroke-width: 0.48"/>
     <use xlink:href="#mcd01eed9e6" x="519.969226" y="180.377958" style="fill: #251255; stroke: #ffffff; stroke-width: 0.48"/>
     <use xlink:href="#mcd01eed9e6" x="519.969226" y="166.989692" style="fill: #251255; stroke: #ffffff; stroke-width: 0.48"/>
     <use xlink:href="#mcd01eed9e6" x="519.969226" y="157.73513" style="fill: #251255; stroke: #ffffff; stroke-width: 0.48"/>
     <use xlink:href="#mcd01eed9e6" x="519.969226" y="152.799364" style="fill: #251255; stroke: #ffffff; stroke-width: 0.48"/>
     <use xlink:href="#mcd01eed9e6" x="674.438791" y="197.591444" style="fill: #251255; stroke: #ffffff; stroke-width: 0.48"/>
     <use xlink:href="#mcd01eed9e6" x="674.438791" y="125.097375" style="fill: #251255; stroke: #ffffff; stroke-width: 0.48"/>
     <use xlink:href="#mcd01eed9e6" x="674.438791" y="107.205222" style="fill: #251255; stroke: #ffffff; stroke-width: 0.48"/>
     <use xlink:href="#mcd01eed9e6" x="674.438791" y="94.927503" style="fill: #251255; stroke: #ffffff; stroke-width: 0.48"/>
     <use xlink:href="#mcd01eed9e6" x="674.438791" y="88.325916" style="fill: #251255; stroke: #ffffff; stroke-width: 0.48"/>
     <use xlink:href="#mcd01eed9e6" x="828.908356" y="160.449802" style="fill: #251255; stroke: #ffffff; stroke-width: 0.48"/>
     <use xlink:href="#mcd01eed9e6" x="828.908356" y="69.816792" style="fill: #251255; stroke: #ffffff; stroke-width: 0.48"/>
     <use xlink:href="#mcd01eed9e6" x="828.908356" y="47.482449" style="fill: #251255; stroke: #ffffff; stroke-width: 0.48"/>
     <use xlink:href="#mcd01eed9e6" x="828.908356" y="32.119876" style="fill: #251255; stroke: #ffffff; stroke-width: 0.48"/>
     <use xlink:href="#mcd01eed9e6" x="828.908356" y="23.852467" style="fill: #251255; stroke: #ffffff; stroke-width: 0.48"/>
    </g>
   </g>
   <g id="PolyCollection_1">
    <defs>
     <path id="mfd33becfaf" d="M 56.56053 -74.110466 
L 56.56053 -68.982008 
L 64.362023 -69.298736 
L 72.163516 -69.654782 
L 79.965009 -69.952632 
L 87.766503 -70.281338 
L 95.567996 -70.626122 
L 103.369489 -70.971704 
L 111.170982 -71.316267 
L 118.972475 -71.661748 
L 126.773969 -72.007228 
L 134.575462 -72.334252 
L 142.376955 -72.65692 
L 150.178448 -72.95511 
L 157.979941 -73.250718 
L 165.781435 -73.54777 
L 173.582928 -73.836258 
L 181.384421 -74.137867 
L 189.185914 -74.460159 
L 196.987407 -74.77521 
L 204.788901 -75.101038 
L 212.590394 -75.412919 
L 220.391887 -75.679223 
L 228.19338 -75.958355 
L 235.994873 -76.258054 
L 243.796367 -76.549871 
L 251.59786 -76.842944 
L 259.399353 -77.088281 
L 267.200846 -77.378673 
L 275.002339 -77.666977 
L 282.803832 -77.919791 
L 290.605326 -78.184475 
L 298.406819 -78.456217 
L 306.208312 -78.7251 
L 314.009805 -78.953211 
L 321.811298 -79.239808 
L 329.612792 -79.451645 
L 337.414285 -79.709663 
L 345.215778 -79.945034 
L 353.017271 -80.171846 
L 360.818764 -80.411186 
L 368.620258 -80.659466 
L 376.421751 -80.891954 
L 384.223244 -81.141029 
L 392.024737 -81.380088 
L 399.82623 -81.635447 
L 407.627724 -81.856218 
L 415.429217 -82.069955 
L 423.23071 -82.297055 
L 431.032203 -82.547779 
L 438.833696 -82.777655 
L 446.63519 -82.991579 
L 454.436683 -83.252333 
L 462.238176 -83.479554 
L 470.039669 -83.691787 
L 477.841162 -83.910234 
L 485.642655 -84.178096 
L 493.444149 -84.446023 
L 501.245642 -84.670685 
L 509.047135 -84.895347 
L 516.848628 -85.098017 
L 524.650121 -85.318102 
L 532.451615 -85.55669 
L 540.253108 -85.795046 
L 548.054601 -86.01801 
L 555.856094 -86.241957 
L 563.657587 -86.455655 
L 571.459081 -86.63606 
L 579.260574 -86.864121 
L 587.062067 -87.095303 
L 594.86356 -87.309673 
L 602.665053 -87.507887 
L 610.466547 -87.734371 
L 618.26804 -87.961089 
L 626.069533 -88.188422 
L 633.871026 -88.415792 
L 641.672519 -88.643162 
L 649.474013 -88.870533 
L 657.275506 -89.097903 
L 665.076999 -89.325273 
L 672.878492 -89.542298 
L 680.679985 -89.748303 
L 688.481479 -89.954307 
L 696.282972 -90.163791 
L 704.084465 -90.390329 
L 711.885958 -90.616866 
L 719.687451 -90.843404 
L 727.488944 -91.069941 
L 735.290438 -91.296479 
L 743.091931 -91.523132 
L 750.893424 -91.747334 
L 758.694917 -91.9514 
L 766.49641 -92.155467 
L 774.297904 -92.359534 
L 782.099397 -92.5636 
L 789.90089 -92.778055 
L 797.702383 -93.007557 
L 805.503876 -93.237766 
L 813.30537 -93.467975 
L 821.106863 -93.698184 
L 828.908356 -93.928393 
L 828.908356 -105.264842 
L 828.908356 -105.264842 
L 821.106863 -104.918722 
L 813.30537 -104.572441 
L 805.503876 -104.223565 
L 797.702383 -103.858111 
L 789.90089 -103.492322 
L 782.099397 -103.128645 
L 774.297904 -102.760441 
L 766.49641 -102.394921 
L 758.694917 -102.029166 
L 750.893424 -101.663377 
L 743.091931 -101.297588 
L 735.290438 -100.931799 
L 727.488944 -100.56601 
L 719.687451 -100.200221 
L 711.885958 -99.834432 
L 704.084465 -99.474067 
L 696.282972 -99.13288 
L 688.481479 -98.791693 
L 680.679985 -98.436074 
L 672.878492 -98.073215 
L 665.076999 -97.716623 
L 657.275506 -97.365749 
L 649.474013 -97.014874 
L 641.672519 -96.663633 
L 633.871026 -96.31154 
L 626.069533 -95.95376 
L 618.26804 -95.59534 
L 610.466547 -95.258845 
L 602.665053 -94.903862 
L 594.86356 -94.536897 
L 587.062067 -94.177467 
L 579.260574 -93.84842 
L 571.459081 -93.503643 
L 563.657587 -93.161234 
L 555.856094 -92.807017 
L 548.054601 -92.451708 
L 540.253108 -92.11672 
L 532.451615 -91.810837 
L 524.650121 -91.463317 
L 516.848628 -91.135216 
L 509.047135 -90.78079 
L 501.245642 -90.42542 
L 493.444149 -90.072032 
L 485.642655 -89.707542 
L 477.841162 -89.349272 
L 470.039669 -89.008118 
L 462.238176 -88.646311 
L 454.436683 -88.299322 
L 446.63519 -87.953533 
L 438.833696 -87.61193 
L 431.032203 -87.297562 
L 423.23071 -86.964285 
L 415.429217 -86.623698 
L 407.627724 -86.282566 
L 399.82623 -85.954736 
L 392.024737 -85.600063 
L 384.223244 -85.258516 
L 376.421751 -84.93246 
L 368.620258 -84.627694 
L 360.818764 -84.306128 
L 353.017271 -84.000193 
L 345.215778 -83.649427 
L 337.414285 -83.300093 
L 329.612792 -83.001844 
L 321.811298 -82.750741 
L 314.009805 -82.442743 
L 306.208312 -82.150039 
L 298.406819 -81.899899 
L 290.605326 -81.599284 
L 282.803832 -81.298012 
L 275.002339 -80.989317 
L 267.200846 -80.680769 
L 259.399353 -80.395929 
L 251.59786 -80.095696 
L 243.796367 -79.81332 
L 235.994873 -79.558002 
L 228.19338 -79.304532 
L 220.391887 -79.057202 
L 212.590394 -78.802689 
L 204.788901 -78.596139 
L 196.987407 -78.331293 
L 189.185914 -78.064784 
L 181.384421 -77.831592 
L 173.582928 -77.612555 
L 165.781435 -77.396517 
L 157.979941 -77.141079 
L 150.178448 -76.923257 
L 142.376955 -76.724895 
L 134.575462 -76.47271 
L 126.773969 -76.26495 
L 118.972475 -76.015568 
L 111.170982 -75.765436 
L 103.369489 -75.515148 
L 95.567996 -75.274428 
L 87.766503 -75.041033 
L 79.965009 -74.798122 
L 72.163516 -74.566274 
L 64.362023 -74.343047 
L 56.56053 -74.110466 
z
" style="stroke: #ffffff; stroke-opacity: 0.15"/>
    </defs>
    <g clip-path="url(#pb4db26bc03)">
     <use xlink:href="#mfd33becfaf" x="0" y="416.579844" style="fill: #251255; fill-opacity: 0.15; stroke: #ffffff; stroke-opacity: 0.15"/>
    </g>
   </g>
   <g id="PolyCollection_2">
    <defs>
     <path id="md443cf8502" d="M 56.56053 -81.218452 
L 56.56053 -59.67803 
L 64.362023 -62.69814 
L 72.163516 -65.702318 
L 79.965009 -68.775176 
L 87.766503 -71.808109 
L 95.567996 -74.857828 
L 103.369489 -77.89805 
L 111.170982 -80.937607 
L 118.972475 -83.977545 
L 126.773969 -87.024098 
L 134.575462 -90.090981 
L 142.376955 -93.14321 
L 150.178448 -96.145048 
L 157.979941 -99.25208 
L 165.781435 -102.216833 
L 173.582928 -105.245841 
L 181.384421 -108.296612 
L 189.185914 -111.207053 
L 196.987407 -114.17792 
L 204.788901 -117.148492 
L 212.590394 -120.050503 
L 220.391887 -122.853291 
L 228.19338 -125.849727 
L 235.994873 -128.554476 
L 243.796367 -131.473467 
L 251.59786 -134.31894 
L 259.399353 -136.973523 
L 267.200846 -139.867949 
L 275.002339 -142.677318 
L 282.803832 -145.309371 
L 290.605326 -148.031776 
L 298.406819 -150.572491 
L 306.208312 -153.116442 
L 314.009805 -155.877648 
L 321.811298 -158.742615 
L 329.612792 -161.326553 
L 337.414285 -163.961744 
L 345.215778 -166.850739 
L 353.017271 -169.381652 
L 360.818764 -172.234586 
L 368.620258 -174.899348 
L 376.421751 -177.52968 
L 384.223244 -180.137217 
L 392.024737 -182.666425 
L 399.82623 -185.163351 
L 407.627724 -187.603373 
L 415.429217 -190.03636 
L 423.23071 -192.500145 
L 431.032203 -194.934345 
L 438.833696 -197.473208 
L 446.63519 -200.033937 
L 454.436683 -202.614476 
L 462.238176 -205.067678 
L 470.039669 -207.579061 
L 477.841162 -210.059471 
L 485.642655 -212.588492 
L 493.444149 -214.995609 
L 501.245642 -217.430951 
L 509.047135 -219.955698 
L 516.848628 -222.503663 
L 524.650121 -224.952141 
L 532.451615 -227.39925 
L 540.253108 -229.863686 
L 548.054601 -232.41591 
L 555.856094 -234.970825 
L 563.657587 -237.515061 
L 571.459081 -240.027438 
L 579.260574 -242.571885 
L 587.062067 -245.095026 
L 594.86356 -247.627851 
L 602.665053 -250.126644 
L 610.466547 -252.625437 
L 618.26804 -255.12423 
L 626.069533 -257.623472 
L 633.871026 -260.202649 
L 641.672519 -262.783992 
L 649.474013 -265.365531 
L 657.275506 -267.90915 
L 665.076999 -270.422903 
L 672.878492 -272.936657 
L 680.679985 -275.450411 
L 688.481479 -277.964164 
L 696.282972 -280.477918 
L 704.084465 -282.991672 
L 711.885958 -285.505425 
L 719.687451 -288.019179 
L 727.488944 -290.533037 
L 735.290438 -293.04751 
L 743.091931 -295.561983 
L 750.893424 -298.076456 
L 758.694917 -300.590929 
L 766.49641 -303.105402 
L 774.297904 -305.619875 
L 782.099397 -308.134348 
L 789.90089 -310.648821 
L 797.702383 -313.163294 
L 805.503876 -315.677767 
L 813.30537 -318.19224 
L 821.106863 -320.704989 
L 828.908356 -323.202953 
L 828.908356 -374.790444 
L 828.908356 -374.790444 
L 821.106863 -371.641772 
L 813.30537 -368.4931 
L 805.503876 -365.344428 
L 797.702383 -362.195757 
L 789.90089 -359.0469 
L 782.099397 -355.897023 
L 774.297904 -352.747146 
L 766.49641 -349.59727 
L 758.694917 -346.447393 
L 750.893424 -343.297516 
L 743.091931 -340.14764 
L 735.290438 -336.997763 
L 727.488944 -333.846755 
L 719.687451 -330.694243 
L 711.885958 -327.592922 
L 704.084465 -324.469387 
L 696.282972 -321.367634 
L 688.481479 -318.273424 
L 680.679985 -315.177084 
L 672.878492 -312.068113 
L 665.076999 -308.878815 
L 657.275506 -305.673451 
L 649.474013 -302.47595 
L 641.672519 -299.297497 
L 633.871026 -296.118781 
L 626.069533 -292.940065 
L 618.26804 -289.761349 
L 610.466547 -286.599737 
L 602.665053 -283.529561 
L 594.86356 -280.466234 
L 587.062067 -277.402907 
L 579.260574 -274.339581 
L 571.459081 -271.275807 
L 563.657587 -268.128885 
L 555.856094 -265.023834 
L 548.054601 -261.878299 
L 540.253108 -258.732764 
L 532.451615 -255.586336 
L 524.650121 -252.43783 
L 516.848628 -249.289323 
L 509.047135 -246.149426 
L 501.245642 -243.037766 
L 493.444149 -239.926799 
L 485.642655 -236.817796 
L 477.841162 -233.760616 
L 470.039669 -230.773356 
L 462.238176 -227.719067 
L 454.436683 -224.567977 
L 446.63519 -221.409374 
L 438.833696 -218.295209 
L 431.032203 -215.12429 
L 423.23071 -212.039897 
L 415.429217 -208.973829 
L 407.627724 -205.974997 
L 399.82623 -202.970407 
L 392.024737 -199.914979 
L 384.223244 -196.971467 
L 376.421751 -193.974205 
L 368.620258 -190.974915 
L 360.818764 -187.909864 
L 353.017271 -184.791803 
L 345.215778 -181.909703 
L 337.414285 -178.857016 
L 329.612792 -175.920679 
L 321.811298 -172.8454 
L 314.009805 -169.820856 
L 306.208312 -166.999898 
L 298.406819 -164.134799 
L 290.605326 -161.278017 
L 282.803832 -158.212264 
L 275.002339 -155.395651 
L 267.200846 -152.566174 
L 259.399353 -149.814652 
L 251.59786 -147.042742 
L 243.796367 -144.203732 
L 235.994873 -141.396268 
L 228.19338 -138.684761 
L 220.391887 -135.865675 
L 212.590394 -133.126712 
L 204.788901 -130.360221 
L 196.987407 -127.624105 
L 189.185914 -125.08923 
L 181.384421 -122.520233 
L 173.582928 -119.782345 
L 165.781435 -117.155394 
L 157.979941 -114.771938 
L 150.178448 -112.188009 
L 142.376955 -109.617762 
L 134.575462 -107.02105 
L 126.773969 -104.4053 
L 118.972475 -101.828972 
L 111.170982 -99.195194 
L 103.369489 -96.561415 
L 95.567996 -93.927637 
L 87.766503 -91.361007 
L 79.965009 -88.841465 
L 72.163516 -86.321922 
L 64.362023 -83.803212 
L 56.56053 -81.218452 
z
" style="stroke: #ffffff; stroke-opacity: 0.15"/>
    </defs>
    <g clip-path="url(#pb4db26bc03)">
     <use xlink:href="#md443cf8502" x="0" y="416.579844" style="fill: #251255; fill-opacity: 0.15; stroke: #ffffff; stroke-opacity: 0.15"/>
    </g>
   </g>
   <g id="PathCollection_3">
    <defs>
     <path id="me8ed10a849" d="M 0 3 
C 0.795609 3 1.55874 2.683901 2.12132 2.12132 
C 2.683901 1.55874 3 0.795609 3 0 
C 3 -0.795609 2.683901 -1.55874 2.12132 -2.12132 
C 1.55874 -2.683901 0.795609 -3 0 -3 
C -0.795609 -3 -1.55874 -2.683901 -2.12132 -2.12132 
C -2.683901 -1.55874 -3 -0.795609 -3 0 
C -3 0.795609 -2.683901 1.55874 -2.12132 2.12132 
C -1.55874 2.683901 -0.795609 3 0 3 
z
" style="stroke: #ffffff; stroke-width: 0.48"/>
    </defs>
    <g clip-path="url(#pb4db26bc03)">
     <use xlink:href="#me8ed10a849" x="56.56053" y="346.219708" style="fill: #681c81; stroke: #ffffff; stroke-width: 0.48"/>
     <use xlink:href="#me8ed10a849" x="211.030095" y="343.603752" style="fill: #681c81; stroke: #ffffff; stroke-width: 0.48"/>
     <use xlink:href="#me8ed10a849" x="365.49966" y="341.061832" style="fill: #681c81; stroke: #ffffff; stroke-width: 0.48"/>
     <use xlink:href="#me8ed10a849" x="519.969226" y="338.630968" style="fill: #681c81; stroke: #ffffff; stroke-width: 0.48"/>
     <use xlink:href="#me8ed10a849" x="674.438791" y="336.348176" style="fill: #681c81; stroke: #ffffff; stroke-width: 0.48"/>
     <use xlink:href="#me8ed10a849" x="828.908356" y="334.065384" style="fill: #681c81; stroke: #ffffff; stroke-width: 0.48"/>
    </g>
   </g>
   <g id="PathCollection_4">
    <defs>
     <path id="m8675fd3a88" d="M -3 3 
L 3 3 
L 3 -3 
L -3 -3 
z
" style="stroke: #ffffff; stroke-width: 0.48"/>
    </defs>
    <g clip-path="url(#pb4db26bc03)">
     <use xlink:href="#m8675fd3a88" x="56.56053" y="346.219708" style="fill: #681c81; stroke: #ffffff; stroke-width: 0.48"/>
     <use xlink:href="#m8675fd3a88" x="211.030095" y="309.078066" style="fill: #681c81; stroke: #ffffff; stroke-width: 0.48"/>
     <use xlink:href="#m8675fd3a88" x="365.49966" y="271.874727" style="fill: #681c81; stroke: #ffffff; stroke-width: 0.48"/>
     <use xlink:href="#m8675fd3a88" x="519.969226" y="234.733085" style="fill: #681c81; stroke: #ffffff; stroke-width: 0.48"/>
     <use xlink:href="#m8675fd3a88" x="674.438791" y="197.591444" style="fill: #681c81; stroke: #ffffff; stroke-width: 0.48"/>
     <use xlink:href="#m8675fd3a88" x="828.908356" y="160.449802" style="fill: #681c81; stroke: #ffffff; stroke-width: 0.48"/>
    </g>
   </g>
   <g id="PathCollection_5">
    <defs>
     <path id="m2d59e29a16" d="M 0 3 
C 0.795609 3 1.55874 2.683901 2.12132 2.12132 
C 2.683901 1.55874 3 0.795609 3 0 
C 3 -0.795609 2.683901 -1.55874 2.12132 -2.12132 
C 1.55874 -2.683901 0.795609 -3 0 -3 
C -0.795609 -3 -1.55874 -2.683901 -2.12132 -2.12132 
C -2.683901 -1.55874 -3 -0.795609 -3 0 
C -3 0.795609 -2.683901 1.55874 -2.12132 2.12132 
C -1.55874 2.683901 -0.795609 3 0 3 
z
" style="stroke: #ffffff; stroke-width: 0.48"/>
    </defs>
    <g clip-path="url(#pb4db26bc03)">
     <use xlink:href="#m2d59e29a16" x="56.56053" y="346.219708" style="fill: #aa337d; stroke: #ffffff; stroke-width: 0.48"/>
     <use xlink:href="#m2d59e29a16" x="211.030095" y="341.432015" style="fill: #aa337d; stroke: #ffffff; stroke-width: 0.48"/>
     <use xlink:href="#m2d59e29a16" x="365.49966" y="336.372854" style="fill: #aa337d; stroke: #ffffff; stroke-width: 0.48"/>
     <use xlink:href="#m2d59e29a16" x="519.969226" y="332.02938" style="fill: #aa337d; stroke: #ffffff; stroke-width: 0.48"/>
     <use xlink:href="#m2d59e29a16" x="674.438791" y="327.661227" style="fill: #aa337d; stroke: #ffffff; stroke-width: 0.48"/>
     <use xlink:href="#m2d59e29a16" x="828.908356" y="324.00876" style="fill: #aa337d; stroke: #ffffff; stroke-width: 0.48"/>
    </g>
   </g>
   <g id="PathCollection_6">
    <defs>
     <path id="mddde91a60c" d="M -3 3 
L 3 3 
L 3 -3 
L -3 -3 
z
" style="stroke: #ffffff; stroke-width: 0.48"/>
    </defs>
    <g clip-path="url(#pb4db26bc03)">
     <use xlink:href="#mddde91a60c" x="56.56053" y="346.219708" style="fill: #aa337d; stroke: #ffffff; stroke-width: 0.48"/>
     <use xlink:href="#mddde91a60c" x="211.030095" y="291.24761" style="fill: #aa337d; stroke: #ffffff; stroke-width: 0.48"/>
     <use xlink:href="#mddde91a60c" x="365.49966" y="235.658542" style="fill: #aa337d; stroke: #ffffff; stroke-width: 0.48"/>
     <use xlink:href="#mddde91a60c" x="519.969226" y="180.377958" style="fill: #aa337d; stroke: #ffffff; stroke-width: 0.48"/>
     <use xlink:href="#mddde91a60c" x="674.438791" y="125.097375" style="fill: #aa337d; stroke: #ffffff; stroke-width: 0.48"/>
     <use xlink:href="#mddde91a60c" x="828.908356" y="69.816792" style="fill: #aa337d; stroke: #ffffff; stroke-width: 0.48"/>
    </g>
   </g>
   <g id="PathCollection_7">
    <defs>
     <path id="mdd32019c3f" d="M 0 3 
C 0.795609 3 1.55874 2.683901 2.12132 2.12132 
C 2.683901 1.55874 3 0.795609 3 0 
C 3 -0.795609 2.683901 -1.55874 2.12132 -2.12132 
C 1.55874 -2.683901 0.795609 -3 0 -3 
C -0.795609 -3 -1.55874 -2.683901 -2.12132 -2.12132 
C -2.683901 -1.55874 -3 -0.795609 -3 0 
C -3 0.795609 -2.683901 1.55874 -2.12132 2.12132 
C -1.55874 2.683901 -0.795609 3 0 3 
z
" style="stroke: #ffffff; stroke-width: 0.48"/>
    </defs>
    <g clip-path="url(#pb4db26bc03)">
     <use xlink:href="#mdd32019c3f" x="56.56053" y="346.219708" style="fill: #e85362; stroke: #ffffff; stroke-width: 0.48"/>
     <use xlink:href="#mdd32019c3f" x="211.030095" y="339.84023" style="fill: #e85362; stroke: #ffffff; stroke-width: 0.48"/>
     <use xlink:href="#mdd32019c3f" x="365.49966" y="333.337358" style="fill: #e85362; stroke: #ffffff; stroke-width: 0.48"/>
     <use xlink:href="#mdd32019c3f" x="519.969226" y="326.933201" style="fill: #e85362; stroke: #ffffff; stroke-width: 0.48"/>
     <use xlink:href="#mdd32019c3f" x="674.438791" y="321.812344" style="fill: #e85362; stroke: #ffffff; stroke-width: 0.48"/>
     <use xlink:href="#mdd32019c3f" x="828.908356" y="317.65396" style="fill: #e85362; stroke: #ffffff; stroke-width: 0.48"/>
    </g>
   </g>
   <g id="PathCollection_8">
    <defs>
     <path id="m5954737840" d="M -3 3 
L 3 3 
L 3 -3 
L -3 -3 
z
" style="stroke: #ffffff; stroke-width: 0.48"/>
    </defs>
    <g clip-path="url(#pb4db26bc03)">
     <use xlink:href="#m5954737840" x="56.56053" y="346.219708" style="fill: #e85362; stroke: #ffffff; stroke-width: 0.48"/>
     <use xlink:href="#m5954737840" x="211.030095" y="286.496935" style="fill: #e85362; stroke: #ffffff; stroke-width: 0.48"/>
     <use xlink:href="#m5954737840" x="365.49966" y="226.712465" style="fill: #e85362; stroke: #ffffff; stroke-width: 0.48"/>
     <use xlink:href="#m5954737840" x="519.969226" y="166.989692" style="fill: #e85362; stroke: #ffffff; stroke-width: 0.48"/>
     <use xlink:href="#m5954737840" x="674.438791" y="107.205222" style="fill: #e85362; stroke: #ffffff; stroke-width: 0.48"/>
     <use xlink:href="#m5954737840" x="828.908356" y="47.482449" style="fill: #e85362; stroke: #ffffff; stroke-width: 0.48"/>
    </g>
   </g>
   <g id="PathCollection_9">
    <defs>
     <path id="mb484ebdc3e" d="M 0 3 
C 0.795609 3 1.55874 2.683901 2.12132 2.12132 
C 2.683901 1.55874 3 0.795609 3 0 
C 3 -0.795609 2.683901 -1.55874 2.12132 -2.12132 
C 1.55874 -2.683901 0.795609 -3 0 -3 
C -0.795609 -3 -1.55874 -2.683901 -2.12132 -2.12132 
C -2.683901 -1.55874 -3 -0.795609 -3 0 
C -3 0.795609 -2.683901 1.55874 -2.12132 2.12132 
C -1.55874 2.683901 -0.795609 3 0 3 
z
" style="stroke: #ffffff; stroke-width: 0.48"/>
    </defs>
    <g clip-path="url(#pb4db26bc03)">
     <use xlink:href="#mb484ebdc3e" x="56.56053" y="346.219708" style="fill: #fd9b6b; stroke: #ffffff; stroke-width: 0.48"/>
     <use xlink:href="#mb484ebdc3e" x="211.030095" y="338.125051" style="fill: #fd9b6b; stroke: #ffffff; stroke-width: 0.48"/>
     <use xlink:href="#mb484ebdc3e" x="365.49966" y="329.758927" style="fill: #fd9b6b; stroke: #ffffff; stroke-width: 0.48"/>
     <use xlink:href="#mb484ebdc3e" x="519.969226" y="322.478672" style="fill: #fd9b6b; stroke: #ffffff; stroke-width: 0.48"/>
     <use xlink:href="#mb484ebdc3e" x="674.438791" y="316.160891" style="fill: #fd9b6b; stroke: #ffffff; stroke-width: 0.48"/>
     <use xlink:href="#mb484ebdc3e" x="828.908356" y="311.422555" style="fill: #fd9b6b; stroke: #ffffff; stroke-width: 0.48"/>
    </g>
   </g>
   <g id="PathCollection_10">
    <defs>
     <path id="m5281be61c7" d="M -3 3 
L 3 3 
L 3 -3 
L -3 -3 
z
" style="stroke: #ffffff; stroke-width: 0.48"/>
    </defs>
    <g clip-path="url(#pb4db26bc03)">
     <use xlink:href="#m5281be61c7" x="56.56053" y="346.219708" style="fill: #fd9b6b; stroke: #ffffff; stroke-width: 0.48"/>
     <use xlink:href="#m5281be61c7" x="211.030095" y="283.412081" style="fill: #fd9b6b; stroke: #ffffff; stroke-width: 0.48"/>
     <use xlink:href="#m5281be61c7" x="365.49966" y="220.542757" style="fill: #fd9b6b; stroke: #ffffff; stroke-width: 0.48"/>
     <use xlink:href="#m5281be61c7" x="519.969226" y="157.73513" style="fill: #fd9b6b; stroke: #ffffff; stroke-width: 0.48"/>
     <use xlink:href="#m5281be61c7" x="674.438791" y="94.927503" style="fill: #fd9b6b; stroke: #ffffff; stroke-width: 0.48"/>
     <use xlink:href="#m5281be61c7" x="828.908356" y="32.119876" style="fill: #fd9b6b; stroke: #ffffff; stroke-width: 0.48"/>
    </g>
   </g>
   <g id="PathCollection_11">
    <defs>
     <path id="m519050dae2" d="M 0 3 
C 0.795609 3 1.55874 2.683901 2.12132 2.12132 
C 2.683901 1.55874 3 0.795609 3 0 
C 3 -0.795609 2.683901 -1.55874 2.12132 -2.12132 
C 1.55874 -2.683901 0.795609 -3 0 -3 
C -0.795609 -3 -1.55874 -2.683901 -2.12132 -2.12132 
C -2.683901 -1.55874 -3 -0.795609 -3 0 
C -3 0.795609 -2.683901 1.55874 -2.12132 2.12132 
C -1.55874 2.683901 -0.795609 3 0 3 
z
" style="stroke: #ffffff; stroke-width: 0.48"/>
    </defs>
    <g clip-path="url(#pb4db26bc03)">
     <use xlink:href="#m519050dae2" x="56.56053" y="346.219708" style="fill: #fde7a9; stroke: #ffffff; stroke-width: 0.48"/>
     <use xlink:href="#m519050dae2" x="211.030095" y="336.015011" style="fill: #fde7a9; stroke: #ffffff; stroke-width: 0.48"/>
     <use xlink:href="#m519050dae2" x="365.49966" y="325.834993" style="fill: #fde7a9; stroke: #ffffff; stroke-width: 0.48"/>
     <use xlink:href="#m519050dae2" x="519.969226" y="317.074008" style="fill: #fde7a9; stroke: #ffffff; stroke-width: 0.48"/>
     <use xlink:href="#m519050dae2" x="674.438791" y="310.410723" style="fill: #fde7a9; stroke: #ffffff; stroke-width: 0.48"/>
     <use xlink:href="#m519050dae2" x="828.908356" y="304.820968" style="fill: #fde7a9; stroke: #ffffff; stroke-width: 0.48"/>
    </g>
   </g>
   <g id="PathCollection_12">
    <defs>
     <path id="m06c82a9af7" d="M -3 3 
L 3 3 
L 3 -3 
L -3 -3 
z
" style="stroke: #ffffff; stroke-width: 0.48"/>
    </defs>
    <g clip-path="url(#pb4db26bc03)">
     <use xlink:href="#m06c82a9af7" x="56.56053" y="346.219708" style="fill: #fde7a9; stroke: #ffffff; stroke-width: 0.48"/>
     <use xlink:href="#m06c82a9af7" x="211.030095" y="281.74626" style="fill: #fde7a9; stroke: #ffffff; stroke-width: 0.48"/>
     <use xlink:href="#m06c82a9af7" x="365.49966" y="217.272812" style="fill: #fde7a9; stroke: #ffffff; stroke-width: 0.48"/>
     <use xlink:href="#m06c82a9af7" x="519.969226" y="152.799364" style="fill: #fde7a9; stroke: #ffffff; stroke-width: 0.48"/>
     <use xlink:href="#m06c82a9af7" x="674.438791" y="88.325916" style="fill: #fde7a9; stroke: #ffffff; stroke-width: 0.48"/>
     <use xlink:href="#m06c82a9af7" x="828.908356" y="23.852467" style="fill: #fde7a9; stroke: #ffffff; stroke-width: 0.48"/>
    </g>
   </g>
   <g id="line2d_13">
    <path d="M 56.56053 345.333856 
L 64.362023 345.049665 
L 72.163516 344.765473 
L 79.965009 344.481282 
L 87.766503 344.197091 
L 95.567996 343.9129 
L 103.369489 343.628709 
L 111.170982 343.344518 
L 118.972475 343.060326 
L 126.773969 342.776135 
L 134.575462 342.491944 
L 142.376955 342.207753 
L 150.178448 341.923562 
L 157.979941 341.639371 
L 165.781435 341.355179 
L 173.582928 341.070988 
L 181.384421 340.786797 
L 189.185914 340.502606 
L 196.987407 340.218415 
L 204.788901 339.934224 
L 212.590394 339.650032 
L 220.391887 339.365841 
L 228.19338 339.08165 
L 235.994873 338.797459 
L 243.796367 338.513268 
L 251.59786 338.229077 
L 259.399353 337.944885 
L 267.200846 337.660694 
L 275.002339 337.376503 
L 282.803832 337.092312 
L 290.605326 336.808121 
L 298.406819 336.523929 
L 306.208312 336.239738 
L 314.009805 335.955547 
L 321.811298 335.671356 
L 329.612792 335.387165 
L 337.414285 335.102974 
L 345.215778 334.818782 
L 353.017271 334.534591 
L 360.818764 334.2504 
L 368.620258 333.966209 
L 376.421751 333.682018 
L 384.223244 333.397827 
L 392.024737 333.113635 
L 399.82623 332.829444 
L 407.627724 332.545253 
L 415.429217 332.261062 
L 423.23071 331.976871 
L 431.032203 331.69268 
L 438.833696 331.408488 
L 446.63519 331.124297 
L 454.436683 330.840106 
L 462.238176 330.555915 
L 470.039669 330.271724 
L 477.841162 329.987533 
L 485.642655 329.703341 
L 493.444149 329.41915 
L 501.245642 329.134959 
L 509.047135 328.850768 
L 516.848628 328.566577 
L 524.650121 328.282386 
L 532.451615 327.998194 
L 540.253108 327.714003 
L 548.054601 327.429812 
L 555.856094 327.145621 
L 563.657587 326.86143 
L 571.459081 326.577238 
L 579.260574 326.293047 
L 587.062067 326.008856 
L 594.86356 325.724665 
L 602.665053 325.440474 
L 610.466547 325.156283 
L 618.26804 324.872091 
L 626.069533 324.5879 
L 633.871026 324.303709 
L 641.672519 324.019518 
L 649.474013 323.735327 
L 657.275506 323.451136 
L 665.076999 323.166944 
L 672.878492 322.882753 
L 680.679985 322.598562 
L 688.481479 322.314371 
L 696.282972 322.03018 
L 704.084465 321.745989 
L 711.885958 321.461797 
L 719.687451 321.177606 
L 727.488944 320.893415 
L 735.290438 320.609224 
L 743.091931 320.325033 
L 750.893424 320.040842 
L 758.694917 319.75665 
L 766.49641 319.472459 
L 774.297904 319.188268 
L 782.099397 318.904077 
L 789.90089 318.619886 
L 797.702383 318.335695 
L 805.503876 318.051503 
L 813.30537 317.767312 
L 821.106863 317.483121 
L 828.908356 317.19893 
" clip-path="url(#pb4db26bc03)" style="fill: none; stroke: #251255; stroke-width: 2.25; stroke-linecap: round"/>
   </g>
   <g id="line2d_14">
    <path d="M 56.56053 346.242624 
L 64.362023 343.419302 
L 72.163516 340.595979 
L 79.965009 337.772657 
L 87.766503 334.949335 
L 95.567996 332.126012 
L 103.369489 329.30269 
L 111.170982 326.479367 
L 118.972475 323.656045 
L 126.773969 320.832722 
L 134.575462 318.0094 
L 142.376955 315.186077 
L 150.178448 312.362755 
L 157.979941 309.539432 
L 165.781435 306.71611 
L 173.582928 303.892787 
L 181.384421 301.069465 
L 189.185914 298.246142 
L 196.987407 295.42282 
L 204.788901 292.599498 
L 212.590394 289.776175 
L 220.391887 286.952853 
L 228.19338 284.12953 
L 235.994873 281.306208 
L 243.796367 278.482885 
L 251.59786 275.659563 
L 259.399353 272.83624 
L 267.200846 270.012918 
L 275.002339 267.189595 
L 282.803832 264.366273 
L 290.605326 261.54295 
L 298.406819 258.719628 
L 306.208312 255.896306 
L 314.009805 253.072983 
L 321.811298 250.249661 
L 329.612792 247.426338 
L 337.414285 244.603016 
L 345.215778 241.779693 
L 353.017271 238.956371 
L 360.818764 236.133048 
L 368.620258 233.309726 
L 376.421751 230.486403 
L 384.223244 227.663081 
L 392.024737 224.839758 
L 399.82623 222.016436 
L 407.627724 219.193114 
L 415.429217 216.369791 
L 423.23071 213.546469 
L 431.032203 210.723146 
L 438.833696 207.899824 
L 446.63519 205.076501 
L 454.436683 202.253179 
L 462.238176 199.429856 
L 470.039669 196.606534 
L 477.841162 193.783211 
L 485.642655 190.959889 
L 493.444149 188.136566 
L 501.245642 185.313244 
L 509.047135 182.489921 
L 516.848628 179.666599 
L 524.650121 176.843277 
L 532.451615 174.019954 
L 540.253108 171.196632 
L 548.054601 168.373309 
L 555.856094 165.549987 
L 563.657587 162.726664 
L 571.459081 159.903342 
L 579.260574 157.080019 
L 587.062067 154.256697 
L 594.86356 151.433374 
L 602.665053 148.610052 
L 610.466547 145.786729 
L 618.26804 142.963407 
L 626.069533 140.140085 
L 633.871026 137.316762 
L 641.672519 134.49344 
L 649.474013 131.670117 
L 657.275506 128.846795 
L 665.076999 126.023472 
L 672.878492 123.20015 
L 680.679985 120.376827 
L 688.481479 117.553505 
L 696.282972 114.730182 
L 704.084465 111.90686 
L 711.885958 109.083537 
L 719.687451 106.260215 
L 727.488944 103.436892 
L 735.290438 100.61357 
L 743.091931 97.790248 
L 750.893424 94.966925 
L 758.694917 92.143603 
L 766.49641 89.32028 
L 774.297904 86.496958 
L 782.099397 83.673635 
L 789.90089 80.850313 
L 797.702383 78.02699 
L 805.503876 75.203668 
L 813.30537 72.380345 
L 821.106863 69.557023 
L 828.908356 66.7337 
" clip-path="url(#pb4db26bc03)" style="fill: none; stroke: #251255; stroke-width: 2.25; stroke-linecap: round"/>
   </g>
   <g id="line2d_15">
    <path d="M 56.56053 346.219708 
L 211.030095 343.603752 
L 365.49966 341.061832 
L 519.969226 338.630968 
L 674.438791 336.348176 
L 828.908356 334.065384 
" clip-path="url(#pb4db26bc03)" style="fill: none; stroke: #681c81; stroke-opacity: 0.7; stroke-width: 1.5; stroke-linecap: round"/>
   </g>
   <g id="line2d_16">
    <path d="M 56.56053 346.219708 
L 211.030095 309.078066 
L 365.49966 271.874727 
L 519.969226 234.733085 
L 674.438791 197.591444 
L 828.908356 160.449802 
" clip-path="url(#pb4db26bc03)" style="fill: none; stroke-dasharray: 5.55,2.4; stroke-dashoffset: 0; stroke: #681c81; stroke-opacity: 0.7; stroke-width: 1.5"/>
   </g>
   <g id="line2d_17">
    <path d="M 56.56053 346.219708 
L 211.030095 341.432015 
L 365.49966 336.372854 
L 519.969226 332.02938 
L 674.438791 327.661227 
L 828.908356 324.00876 
" clip-path="url(#pb4db26bc03)" style="fill: none; stroke: #aa337d; stroke-opacity: 0.7; stroke-width: 1.5; stroke-linecap: round"/>
   </g>
   <g id="line2d_18">
    <path d="M 56.56053 346.219708 
L 211.030095 291.24761 
L 365.49966 235.658542 
L 519.969226 180.377958 
L 674.438791 125.097375 
L 828.908356 69.816792 
" clip-path="url(#pb4db26bc03)" style="fill: none; stroke-dasharray: 5.55,2.4; stroke-dashoffset: 0; stroke: #aa337d; stroke-opacity: 0.7; stroke-width: 1.5"/>
   </g>
   <g id="line2d_19">
    <path d="M 56.56053 346.219708 
L 211.030095 339.84023 
L 365.49966 333.337358 
L 519.969226 326.933201 
L 674.438791 321.812344 
L 828.908356 317.65396 
" clip-path="url(#pb4db26bc03)" style="fill: none; stroke: #e85362; stroke-opacity: 0.7; stroke-width: 1.5; stroke-linecap: round"/>
   </g>
   <g id="line2d_20">
    <path d="M 56.56053 346.219708 
L 211.030095 286.496935 
L 365.49966 226.712465 
L 519.969226 166.989692 
L 674.438791 107.205222 
L 828.908356 47.482449 
" clip-path="url(#pb4db26bc03)" style="fill: none; stroke-dasharray: 5.55,2.4; stroke-dashoffset: 0; stroke: #e85362; stroke-opacity: 0.7; stroke-width: 1.5"/>
   </g>
   <g id="line2d_21">
    <path d="M 56.56053 346.219708 
L 211.030095 338.125051 
L 365.49966 329.758927 
L 519.969226 322.478672 
L 674.438791 316.160891 
L 828.908356 311.422555 
" clip-path="url(#pb4db26bc03)" style="fill: none; stroke: #fd9b6b; stroke-opacity: 0.7; stroke-width: 1.5; stroke-linecap: round"/>
   </g>
   <g id="line2d_22">
    <path d="M 56.56053 346.219708 
L 211.030095 283.412081 
L 365.49966 220.542757 
L 519.969226 157.73513 
L 674.438791 94.927503 
L 828.908356 32.119876 
" clip-path="url(#pb4db26bc03)" style="fill: none; stroke-dasharray: 5.55,2.4; stroke-dashoffset: 0; stroke: #fd9b6b; stroke-opacity: 0.7; stroke-width: 1.5"/>
   </g>
   <g id="line2d_23">
    <path d="M 56.56053 346.219708 
L 211.030095 336.015011 
L 365.49966 325.834993 
L 519.969226 317.074008 
L 674.438791 310.410723 
L 828.908356 304.820968 
" clip-path="url(#pb4db26bc03)" style="fill: none; stroke: #fde7a9; stroke-opacity: 0.7; stroke-width: 1.5; stroke-linecap: round"/>
   </g>
   <g id="line2d_24">
    <path d="M 56.56053 346.219708 
L 211.030095 281.74626 
L 365.49966 217.272812 
L 519.969226 152.799364 
L 674.438791 88.325916 
L 828.908356 23.852467 
" clip-path="url(#pb4db26bc03)" style="fill: none; stroke-dasharray: 5.55,2.4; stroke-dashoffset: 0; stroke: #fde7a9; stroke-opacity: 0.7; stroke-width: 1.5"/>
   </g>
   <g id="patch_3">
    <path d="M 44.975313 373.86 
L 44.975313 7.2 
" style="fill: none; stroke: #cccccc; stroke-width: 1.25; stroke-linejoin: miter; stroke-linecap: square"/>
   </g>
   <g id="patch_4">
    <path d="M 844.355312 373.86 
L 844.355312 7.2 
" style="fill: none; stroke: #cccccc; stroke-width: 1.25; stroke-linejoin: miter; stroke-linecap: square"/>
   </g>
   <g id="patch_5">
    <path d="M 44.975313 373.86 
L 844.355312 373.86 
" style="fill: none; stroke: #cccccc; stroke-width: 1.25; stroke-linejoin: miter; stroke-linecap: square"/>
   </g>
   <g id="patch_6">
    <path d="M 44.975313 7.2 
L 844.355312 7.2 
" style="fill: none; stroke: #cccccc; stroke-width: 1.25; stroke-linejoin: miter; stroke-linecap: square"/>
   </g>
   <g id="legend_1">
    <g id="patch_7">
     <path d="M 52.675313 206.619687 
L 142.476563 206.619687 
Q 144.676563 206.619687 144.676563 204.419688 
L 144.676563 14.9 
Q 144.676563 12.7 142.476563 12.7 
L 52.675313 12.7 
Q 50.475313 12.7 50.475313 14.9 
L 50.475313 204.419688 
Q 50.475313 206.619687 52.675313 206.619687 
z
" style="fill: #ffffff; opacity: 0.8; stroke: #cccccc; stroke-linejoin: miter"/>
    </g>
    <g id="PathCollection_13">
     <g>
      <use xlink:href="#m524afa6089" x="65.875313" y="22.086094" style="fill: #251255; stroke: #ffffff; stroke-width: 0.48"/>
     </g>
    </g>
    <g id="text_15">
     <!-- Trend-BAP -->
     <g style="fill: #262626" transform="translate(85.675313 24.973594) scale(0.11 -0.11)">
      <defs>
       <path id="ArialMT-2d" d="M 203 1375 
L 203 1941 
L 1931 1941 
L 1931 1375 
L 203 1375 
z
" transform="scale(0.015625)"/>
       <path id="ArialMT-42" d="M 469 0 
L 469 4581 
L 2188 4581 
Q 2713 4581 3030 4442 
Q 3347 4303 3526 4014 
Q 3706 3725 3706 3409 
Q 3706 3116 3547 2856 
Q 3388 2597 3066 2438 
Q 3481 2316 3704 2022 
Q 3928 1728 3928 1328 
Q 3928 1006 3792 729 
Q 3656 453 3456 303 
Q 3256 153 2954 76 
Q 2653 0 2216 0 
L 469 0 
z
M 1075 2656 
L 2066 2656 
Q 2469 2656 2644 2709 
Q 2875 2778 2992 2937 
Q 3109 3097 3109 3338 
Q 3109 3566 3000 3739 
Q 2891 3913 2687 3977 
Q 2484 4041 1991 4041 
L 1075 4041 
L 1075 2656 
z
M 1075 541 
L 2216 541 
Q 2509 541 2628 563 
Q 2838 600 2978 687 
Q 3119 775 3209 942 
Q 3300 1109 3300 1328 
Q 3300 1584 3169 1773 
Q 3038 1963 2805 2039 
Q 2572 2116 2134 2116 
L 1075 2116 
L 1075 541 
z
" transform="scale(0.015625)"/>
       <path id="ArialMT-41" d="M -9 0 
L 1750 4581 
L 2403 4581 
L 4278 0 
L 3588 0 
L 3053 1388 
L 1138 1388 
L 634 0 
L -9 0 
z
M 1313 1881 
L 2866 1881 
L 2388 3150 
Q 2169 3728 2063 4100 
Q 1975 3659 1816 3225 
L 1313 1881 
z
" transform="scale(0.015625)"/>
       <path id="ArialMT-50" d="M 494 0 
L 494 4581 
L 2222 4581 
Q 2678 4581 2919 4538 
Q 3256 4481 3484 4323 
Q 3713 4166 3852 3881 
Q 3991 3597 3991 3256 
Q 3991 2672 3619 2267 
Q 3247 1863 2275 1863 
L 1100 1863 
L 1100 0 
L 494 0 
z
M 1100 2403 
L 2284 2403 
Q 2872 2403 3119 2622 
Q 3366 2841 3366 3238 
Q 3366 3525 3220 3729 
Q 3075 3934 2838 4000 
Q 2684 4041 2272 4041 
L 1100 4041 
L 1100 2403 
z
" transform="scale(0.015625)"/>
      </defs>
      <use xlink:href="#ArialMT-54"/>
      <use xlink:href="#ArialMT-72" x="57.333984"/>
      <use xlink:href="#ArialMT-65" x="90.634766"/>
      <use xlink:href="#ArialMT-6e" x="146.25"/>
      <use xlink:href="#ArialMT-64" x="201.865234"/>
      <use xlink:href="#ArialMT-2d" x="257.480469"/>
      <use xlink:href="#ArialMT-42" x="290.78125"/>
      <use xlink:href="#ArialMT-41" x="357.480469"/>
      <use xlink:href="#ArialMT-50" x="424.179688"/>
     </g>
    </g>
    <g id="PathCollection_14">
     <g>
      <use xlink:href="#mcd01eed9e6" x="65.875313" y="37.645938" style="fill: #251255; stroke: #ffffff; stroke-width: 0.48"/>
     </g>
    </g>
    <g id="text_16">
     <!-- Trend-NPP -->
     <g style="fill: #262626" transform="translate(85.675313 40.533438) scale(0.11 -0.11)">
      <defs>
       <path id="ArialMT-4e" d="M 488 0 
L 488 4581 
L 1109 4581 
L 3516 984 
L 3516 4581 
L 4097 4581 
L 4097 0 
L 3475 0 
L 1069 3600 
L 1069 0 
L 488 0 
z
" transform="scale(0.015625)"/>
      </defs>
      <use xlink:href="#ArialMT-54"/>
      <use xlink:href="#ArialMT-72" x="57.333984"/>
      <use xlink:href="#ArialMT-65" x="90.634766"/>
      <use xlink:href="#ArialMT-6e" x="146.25"/>
      <use xlink:href="#ArialMT-64" x="201.865234"/>
      <use xlink:href="#ArialMT-2d" x="257.480469"/>
      <use xlink:href="#ArialMT-4e" x="290.78125"/>
      <use xlink:href="#ArialMT-50" x="362.998047"/>
      <use xlink:href="#ArialMT-50" x="429.697266"/>
     </g>
    </g>
    <g id="PathCollection_15">
     <g>
      <use xlink:href="#me8ed10a849" x="65.875313" y="53.362187" style="fill: #681c81; stroke: #ffffff; stroke-width: 0.48"/>
     </g>
    </g>
    <g id="text_17">
     <!-- BAP ($\chi$=3) -->
     <g style="fill: #262626" transform="translate(85.675313 56.249687) scale(0.11 -0.11)">
      <defs>
       <path id="ArialMT-28" d="M 1497 -1347 
Q 1031 -759 709 28 
Q 388 816 388 1659 
Q 388 2403 628 3084 
Q 909 3875 1497 4659 
L 1900 4659 
Q 1522 4009 1400 3731 
Q 1209 3300 1100 2831 
Q 966 2247 966 1656 
Q 966 153 1900 -1347 
L 1497 -1347 
z
" transform="scale(0.015625)"/>
       <path id="DejaVuSans-Oblique-3c7" d="M 1922 -781 
L 1691 416 
L 394 -1334 
L -284 -1334 
L 1553 1141 
L 1269 2613 
Q 1194 3006 713 3006 
L 559 3006 
L 653 3500 
L 872 3494 
Q 1675 3472 1775 2950 
L 2006 1753 
L 3303 3503 
L 3981 3503 
L 2144 1028 
L 2428 -444 
Q 2503 -838 2984 -838 
L 3138 -838 
L 3044 -1331 
L 2825 -1325 
Q 2022 -1303 1922 -781 
z
" transform="scale(0.015625)"/>
       <path id="ArialMT-3d" d="M 3381 2694 
L 356 2694 
L 356 3219 
L 3381 3219 
L 3381 2694 
z
M 3381 1303 
L 356 1303 
L 356 1828 
L 3381 1828 
L 3381 1303 
z
" transform="scale(0.015625)"/>
       <path id="ArialMT-29" d="M 791 -1347 
L 388 -1347 
Q 1322 153 1322 1656 
Q 1322 2244 1188 2822 
Q 1081 3291 891 3722 
Q 769 4003 388 4659 
L 791 4659 
Q 1378 3875 1659 3084 
Q 1900 2403 1900 1659 
Q 1900 816 1576 28 
Q 1253 -759 791 -1347 
z
" transform="scale(0.015625)"/>
      </defs>
      <use xlink:href="#ArialMT-42" transform="translate(0 0.203125)"/>
      <use xlink:href="#ArialMT-41" transform="translate(66.699219 0.203125)"/>
      <use xlink:href="#ArialMT-50" transform="translate(133.398438 0.203125)"/>
      <use xlink:href="#ArialMT-20" transform="translate(200.097656 0.203125)"/>
      <use xlink:href="#ArialMT-28" transform="translate(227.880859 0.203125)"/>
      <use xlink:href="#DejaVuSans-Oblique-3c7" transform="translate(261.181641 0.203125)"/>
      <use xlink:href="#ArialMT-3d" transform="translate(320.361328 0.203125)"/>
      <use xlink:href="#ArialMT-33" transform="translate(378.759766 0.203125)"/>
      <use xlink:href="#ArialMT-29" transform="translate(434.375 0.203125)"/>
     </g>
    </g>
    <g id="PathCollection_16">
     <g>
      <use xlink:href="#m8675fd3a88" x="65.875313" y="69.312188" style="fill: #681c81; stroke: #ffffff; stroke-width: 0.48"/>
     </g>
    </g>
    <g id="text_18">
     <!-- NPP ($\chi$=3) -->
     <g style="fill: #262626" transform="translate(85.675313 72.199688) scale(0.11 -0.11)">
      <use xlink:href="#ArialMT-4e" transform="translate(0 0.203125)"/>
      <use xlink:href="#ArialMT-50" transform="translate(72.216797 0.203125)"/>
      <use xlink:href="#ArialMT-50" transform="translate(138.916016 0.203125)"/>
      <use xlink:href="#ArialMT-20" transform="translate(205.615234 0.203125)"/>
      <use xlink:href="#ArialMT-28" transform="translate(233.398438 0.203125)"/>
      <use xlink:href="#DejaVuSans-Oblique-3c7" transform="translate(266.699219 0.203125)"/>
      <use xlink:href="#ArialMT-3d" transform="translate(325.878906 0.203125)"/>
      <use xlink:href="#ArialMT-33" transform="translate(384.277344 0.203125)"/>
      <use xlink:href="#ArialMT-29" transform="translate(439.892578 0.203125)"/>
     </g>
    </g>
    <g id="PathCollection_17">
     <g>
      <use xlink:href="#m2d59e29a16" x="65.875313" y="85.262188" style="fill: #aa337d; stroke: #ffffff; stroke-width: 0.48"/>
     </g>
    </g>
    <g id="text_19">
     <!-- BAP ($\chi$=4) -->
     <g style="fill: #262626" transform="translate(85.675313 88.149688) scale(0.11 -0.11)">
      <use xlink:href="#ArialMT-42" transform="translate(0 0.203125)"/>
      <use xlink:href="#ArialMT-41" transform="translate(66.699219 0.203125)"/>
      <use xlink:href="#ArialMT-50" transform="translate(133.398438 0.203125)"/>
      <use xlink:href="#ArialMT-20" transform="translate(200.097656 0.203125)"/>
      <use xlink:href="#ArialMT-28" transform="translate(227.880859 0.203125)"/>
      <use xlink:href="#DejaVuSans-Oblique-3c7" transform="translate(261.181641 0.203125)"/>
      <use xlink:href="#ArialMT-3d" transform="translate(320.361328 0.203125)"/>
      <use xlink:href="#ArialMT-34" transform="translate(378.759766 0.203125)"/>
      <use xlink:href="#ArialMT-29" transform="translate(434.375 0.203125)"/>
     </g>
    </g>
    <g id="PathCollection_18">
     <g>
      <use xlink:href="#mddde91a60c" x="65.875313" y="101.212188" style="fill: #aa337d; stroke: #ffffff; stroke-width: 0.48"/>
     </g>
    </g>
    <g id="text_20">
     <!-- NPP ($\chi$=4) -->
     <g style="fill: #262626" transform="translate(85.675313 104.099688) scale(0.11 -0.11)">
      <use xlink:href="#ArialMT-4e" transform="translate(0 0.203125)"/>
      <use xlink:href="#ArialMT-50" transform="translate(72.216797 0.203125)"/>
      <use xlink:href="#ArialMT-50" transform="translate(138.916016 0.203125)"/>
      <use xlink:href="#ArialMT-20" transform="translate(205.615234 0.203125)"/>
      <use xlink:href="#ArialMT-28" transform="translate(233.398438 0.203125)"/>
      <use xlink:href="#DejaVuSans-Oblique-3c7" transform="translate(266.699219 0.203125)"/>
      <use xlink:href="#ArialMT-3d" transform="translate(325.878906 0.203125)"/>
      <use xlink:href="#ArialMT-34" transform="translate(384.277344 0.203125)"/>
      <use xlink:href="#ArialMT-29" transform="translate(439.892578 0.203125)"/>
     </g>
    </g>
    <g id="PathCollection_19">
     <g>
      <use xlink:href="#mdd32019c3f" x="65.875313" y="117.162188" style="fill: #e85362; stroke: #ffffff; stroke-width: 0.48"/>
     </g>
    </g>
    <g id="text_21">
     <!-- BAP ($\chi$=5) -->
     <g style="fill: #262626" transform="translate(85.675313 120.049688) scale(0.11 -0.11)">
      <defs>
       <path id="ArialMT-35" d="M 266 1200 
L 856 1250 
Q 922 819 1161 601 
Q 1400 384 1738 384 
Q 2144 384 2425 690 
Q 2706 997 2706 1503 
Q 2706 1984 2436 2262 
Q 2166 2541 1728 2541 
Q 1456 2541 1237 2417 
Q 1019 2294 894 2097 
L 366 2166 
L 809 4519 
L 3088 4519 
L 3088 3981 
L 1259 3981 
L 1013 2750 
Q 1425 3038 1878 3038 
Q 2478 3038 2890 2622 
Q 3303 2206 3303 1553 
Q 3303 931 2941 478 
Q 2500 -78 1738 -78 
Q 1113 -78 717 272 
Q 322 622 266 1200 
z
" transform="scale(0.015625)"/>
      </defs>
      <use xlink:href="#ArialMT-42" transform="translate(0 0.203125)"/>
      <use xlink:href="#ArialMT-41" transform="translate(66.699219 0.203125)"/>
      <use xlink:href="#ArialMT-50" transform="translate(133.398438 0.203125)"/>
      <use xlink:href="#ArialMT-20" transform="translate(200.097656 0.203125)"/>
      <use xlink:href="#ArialMT-28" transform="translate(227.880859 0.203125)"/>
      <use xlink:href="#DejaVuSans-Oblique-3c7" transform="translate(261.181641 0.203125)"/>
      <use xlink:href="#ArialMT-3d" transform="translate(320.361328 0.203125)"/>
      <use xlink:href="#ArialMT-35" transform="translate(378.759766 0.203125)"/>
      <use xlink:href="#ArialMT-29" transform="translate(434.375 0.203125)"/>
     </g>
    </g>
    <g id="PathCollection_20">
     <g>
      <use xlink:href="#m5954737840" x="65.875313" y="133.112188" style="fill: #e85362; stroke: #ffffff; stroke-width: 0.48"/>
     </g>
    </g>
    <g id="text_22">
     <!-- NPP ($\chi$=5) -->
     <g style="fill: #262626" transform="translate(85.675313 135.999688) scale(0.11 -0.11)">
      <use xlink:href="#ArialMT-4e" transform="translate(0 0.203125)"/>
      <use xlink:href="#ArialMT-50" transform="translate(72.216797 0.203125)"/>
      <use xlink:href="#ArialMT-50" transform="translate(138.916016 0.203125)"/>
      <use xlink:href="#ArialMT-20" transform="translate(205.615234 0.203125)"/>
      <use xlink:href="#ArialMT-28" transform="translate(233.398438 0.203125)"/>
      <use xlink:href="#DejaVuSans-Oblique-3c7" transform="translate(266.699219 0.203125)"/>
      <use xlink:href="#ArialMT-3d" transform="translate(325.878906 0.203125)"/>
      <use xlink:href="#ArialMT-35" transform="translate(384.277344 0.203125)"/>
      <use xlink:href="#ArialMT-29" transform="translate(439.892578 0.203125)"/>
     </g>
    </g>
    <g id="PathCollection_21">
     <g>
      <use xlink:href="#mb484ebdc3e" x="65.875313" y="149.062188" style="fill: #fd9b6b; stroke: #ffffff; stroke-width: 0.48"/>
     </g>
    </g>
    <g id="text_23">
     <!-- BAP ($\chi$=6) -->
     <g style="fill: #262626" transform="translate(85.675313 151.949688) scale(0.11 -0.11)">
      <use xlink:href="#ArialMT-42" transform="translate(0 0.203125)"/>
      <use xlink:href="#ArialMT-41" transform="translate(66.699219 0.203125)"/>
      <use xlink:href="#ArialMT-50" transform="translate(133.398438 0.203125)"/>
      <use xlink:href="#ArialMT-20" transform="translate(200.097656 0.203125)"/>
      <use xlink:href="#ArialMT-28" transform="translate(227.880859 0.203125)"/>
      <use xlink:href="#DejaVuSans-Oblique-3c7" transform="translate(261.181641 0.203125)"/>
      <use xlink:href="#ArialMT-3d" transform="translate(320.361328 0.203125)"/>
      <use xlink:href="#ArialMT-36" transform="translate(378.759766 0.203125)"/>
      <use xlink:href="#ArialMT-29" transform="translate(434.375 0.203125)"/>
     </g>
    </g>
    <g id="PathCollection_22">
     <g>
      <use xlink:href="#m5281be61c7" x="65.875313" y="165.012188" style="fill: #fd9b6b; stroke: #ffffff; stroke-width: 0.48"/>
     </g>
    </g>
    <g id="text_24">
     <!-- NPP ($\chi$=6) -->
     <g style="fill: #262626" transform="translate(85.675313 167.899688) scale(0.11 -0.11)">
      <use xlink:href="#ArialMT-4e" transform="translate(0 0.203125)"/>
      <use xlink:href="#ArialMT-50" transform="translate(72.216797 0.203125)"/>
      <use xlink:href="#ArialMT-50" transform="translate(138.916016 0.203125)"/>
      <use xlink:href="#ArialMT-20" transform="translate(205.615234 0.203125)"/>
      <use xlink:href="#ArialMT-28" transform="translate(233.398438 0.203125)"/>
      <use xlink:href="#DejaVuSans-Oblique-3c7" transform="translate(266.699219 0.203125)"/>
      <use xlink:href="#ArialMT-3d" transform="translate(325.878906 0.203125)"/>
      <use xlink:href="#ArialMT-36" transform="translate(384.277344 0.203125)"/>
      <use xlink:href="#ArialMT-29" transform="translate(439.892578 0.203125)"/>
     </g>
    </g>
    <g id="PathCollection_23">
     <g>
      <use xlink:href="#m519050dae2" x="65.875313" y="180.962188" style="fill: #fde7a9; stroke: #ffffff; stroke-width: 0.48"/>
     </g>
    </g>
    <g id="text_25">
     <!-- BAP ($\chi$=7) -->
     <g style="fill: #262626" transform="translate(85.675313 183.849688) scale(0.11 -0.11)">
      <defs>
       <path id="ArialMT-37" d="M 303 3981 
L 303 4522 
L 3269 4522 
L 3269 4084 
Q 2831 3619 2401 2847 
Q 1972 2075 1738 1259 
Q 1569 684 1522 0 
L 944 0 
Q 953 541 1156 1306 
Q 1359 2072 1739 2783 
Q 2119 3494 2547 3981 
L 303 3981 
z
" transform="scale(0.015625)"/>
      </defs>
      <use xlink:href="#ArialMT-42" transform="translate(0 0.203125)"/>
      <use xlink:href="#ArialMT-41" transform="translate(66.699219 0.203125)"/>
      <use xlink:href="#ArialMT-50" transform="translate(133.398438 0.203125)"/>
      <use xlink:href="#ArialMT-20" transform="translate(200.097656 0.203125)"/>
      <use xlink:href="#ArialMT-28" transform="translate(227.880859 0.203125)"/>
      <use xlink:href="#DejaVuSans-Oblique-3c7" transform="translate(261.181641 0.203125)"/>
      <use xlink:href="#ArialMT-3d" transform="translate(320.361328 0.203125)"/>
      <use xlink:href="#ArialMT-37" transform="translate(378.759766 0.203125)"/>
      <use xlink:href="#ArialMT-29" transform="translate(434.375 0.203125)"/>
     </g>
    </g>
    <g id="PathCollection_24">
     <g>
      <use xlink:href="#m06c82a9af7" x="65.875313" y="196.912188" style="fill: #fde7a9; stroke: #ffffff; stroke-width: 0.48"/>
     </g>
    </g>
    <g id="text_26">
     <!-- NPP ($\chi$=7) -->
     <g style="fill: #262626" transform="translate(85.675313 199.799688) scale(0.11 -0.11)">
      <use xlink:href="#ArialMT-4e" transform="translate(0 0.203125)"/>
      <use xlink:href="#ArialMT-50" transform="translate(72.216797 0.203125)"/>
      <use xlink:href="#ArialMT-50" transform="translate(138.916016 0.203125)"/>
      <use xlink:href="#ArialMT-20" transform="translate(205.615234 0.203125)"/>
      <use xlink:href="#ArialMT-28" transform="translate(233.398438 0.203125)"/>
      <use xlink:href="#DejaVuSans-Oblique-3c7" transform="translate(266.699219 0.203125)"/>
      <use xlink:href="#ArialMT-3d" transform="translate(325.878906 0.203125)"/>
      <use xlink:href="#ArialMT-37" transform="translate(384.277344 0.203125)"/>
      <use xlink:href="#ArialMT-29" transform="translate(439.892578 0.203125)"/>
     </g>
    </g>
   </g>
  </g>
 </g>
 <defs>
  <clipPath id="pb4db26bc03">
   <rect x="44.975313" y="7.2" width="799.38" height="366.66"/>
  </clipPath>
 </defs>
</svg>
