<?xml version="1.0" encoding="utf-8" standalone="no"?>
<!DOCTYPE svg PUBLIC "-//W3C//DTD SVG 1.1//EN"
  "http://www.w3.org/Graphics/SVG/1.1/DTD/svg11.dtd">
<svg xmlns:xlink="http://www.w3.org/1999/xlink" width="779.555312pt" height="380.579844pt" viewBox="0 0 779.555312 380.579844" xmlns="http://www.w3.org/2000/svg" version="1.1">
 <metadata>
  <rdf:RDF xmlns:dc="http://purl.org/dc/elements/1.1/" xmlns:cc="http://creativecommons.org/ns#" xmlns:rdf="http://www.w3.org/1999/02/22-rdf-syntax-ns#">
   <cc:Work>
    <dc:type rdf:resource="http://purl.org/dc/dcmitype/StillImage"/>
    <dc:date>2024-07-26T13:20:56.117761</dc:date>
    <dc:format>image/svg+xml</dc:format>
    <dc:creator>
     <cc:Agent>
      <dc:title>Matplotlib v3.9.0, https://matplotlib.org/</dc:title>
     </cc:Agent>
    </dc:creator>
   </cc:Work>
  </rdf:RDF>
 </metadata>
 <defs>
  <style type="text/css">*{stroke-linejoin: round; stroke-linecap: butt}</style>
 </defs>
 <g id="figure_1">
  <g id="patch_1">
   <path d="M 0 380.579844 
L 779.555312 380.579844 
L 779.555312 0 
L 0 0 
z
" style="fill: #ffffff"/>
  </g>
  <g id="axes_1">
   <g id="patch_2">
    <path d="M 44.975313 337.86 
L 772.355312 337.86 
L 772.355312 7.2 
L 44.975313 7.2 
z
" style="fill: #ffffff"/>
   </g>
   <g id="matplotlib.axis_1">
    <g id="xtick_1">
     <g id="line2d_1">
      <path d="M 55.517052 337.86 
L 55.517052 7.2 
" clip-path="url(#p5e95e29926)" style="fill: none; stroke: #cccccc; stroke-linecap: round"/>
     </g>
     <g id="text_1">
      <!-- 0.00 -->
      <g style="fill: #262626" transform="translate(44.813536 355.233594) scale(0.11 -0.11)">
       <defs>
        <path id="ArialMT-30" d="M 266 2259 
Q 266 3072 433 3567 
Q 600 4063 929 4331 
Q 1259 4600 1759 4600 
Q 2128 4600 2406 4451 
Q 2684 4303 2865 4023 
Q 3047 3744 3150 3342 
Q 3253 2941 3253 2259 
Q 3253 1453 3087 958 
Q 2922 463 2592 192 
Q 2263 -78 1759 -78 
Q 1097 -78 719 397 
Q 266 969 266 2259 
z
M 844 2259 
Q 844 1131 1108 757 
Q 1372 384 1759 384 
Q 2147 384 2411 759 
Q 2675 1134 2675 2259 
Q 2675 3391 2411 3762 
Q 2147 4134 1753 4134 
Q 1366 4134 1134 3806 
Q 844 3388 844 2259 
z
" transform="scale(0.015625)"/>
        <path id="ArialMT-2e" d="M 581 0 
L 581 641 
L 1222 641 
L 1222 0 
L 581 0 
z
" transform="scale(0.015625)"/>
       </defs>
       <use xlink:href="#ArialMT-30"/>
       <use xlink:href="#ArialMT-2e" x="55.615234"/>
       <use xlink:href="#ArialMT-30" x="83.398438"/>
       <use xlink:href="#ArialMT-30" x="139.013672"/>
      </g>
     </g>
    </g>
    <g id="xtick_2">
     <g id="line2d_2">
      <path d="M 196.073573 337.86 
L 196.073573 7.2 
" clip-path="url(#p5e95e29926)" style="fill: none; stroke: #cccccc; stroke-linecap: round"/>
     </g>
     <g id="text_2">
      <!-- 0.02 -->
      <g style="fill: #262626" transform="translate(185.370058 355.233594) scale(0.11 -0.11)">
       <defs>
        <path id="ArialMT-32" d="M 3222 541 
L 3222 0 
L 194 0 
Q 188 203 259 391 
Q 375 700 629 1000 
Q 884 1300 1366 1694 
Q 2113 2306 2375 2664 
Q 2638 3022 2638 3341 
Q 2638 3675 2398 3904 
Q 2159 4134 1775 4134 
Q 1369 4134 1125 3890 
Q 881 3647 878 3216 
L 300 3275 
Q 359 3922 746 4261 
Q 1134 4600 1788 4600 
Q 2447 4600 2831 4234 
Q 3216 3869 3216 3328 
Q 3216 3053 3103 2787 
Q 2991 2522 2730 2228 
Q 2469 1934 1863 1422 
Q 1356 997 1212 845 
Q 1069 694 975 541 
L 3222 541 
z
" transform="scale(0.015625)"/>
       </defs>
       <use xlink:href="#ArialMT-30"/>
       <use xlink:href="#ArialMT-2e" x="55.615234"/>
       <use xlink:href="#ArialMT-30" x="83.398438"/>
       <use xlink:href="#ArialMT-32" x="139.013672"/>
      </g>
     </g>
    </g>
    <g id="xtick_3">
     <g id="line2d_3">
      <path d="M 336.630095 337.86 
L 336.630095 7.2 
" clip-path="url(#p5e95e29926)" style="fill: none; stroke: #cccccc; stroke-linecap: round"/>
     </g>
     <g id="text_3">
      <!-- 0.04 -->
      <g style="fill: #262626" transform="translate(325.926579 355.233594) scale(0.11 -0.11)">
       <defs>
        <path id="ArialMT-34" d="M 2069 0 
L 2069 1097 
L 81 1097 
L 81 1613 
L 2172 4581 
L 2631 4581 
L 2631 1613 
L 3250 1613 
L 3250 1097 
L 2631 1097 
L 2631 0 
L 2069 0 
z
M 2069 1613 
L 2069 3678 
L 634 1613 
L 2069 1613 
z
" transform="scale(0.015625)"/>
       </defs>
       <use xlink:href="#ArialMT-30"/>
       <use xlink:href="#ArialMT-2e" x="55.615234"/>
       <use xlink:href="#ArialMT-30" x="83.398438"/>
       <use xlink:href="#ArialMT-34" x="139.013672"/>
      </g>
     </g>
    </g>
    <g id="xtick_4">
     <g id="line2d_4">
      <path d="M 477.186617 337.86 
L 477.186617 7.2 
" clip-path="url(#p5e95e29926)" style="fill: none; stroke: #cccccc; stroke-linecap: round"/>
     </g>
     <g id="text_4">
      <!-- 0.06 -->
      <g style="fill: #262626" transform="translate(466.483101 355.233594) scale(0.11 -0.11)">
       <defs>
        <path id="ArialMT-36" d="M 3184 3459 
L 2625 3416 
Q 2550 3747 2413 3897 
Q 2184 4138 1850 4138 
Q 1581 4138 1378 3988 
Q 1113 3794 959 3422 
Q 806 3050 800 2363 
Q 1003 2672 1297 2822 
Q 1591 2972 1913 2972 
Q 2475 2972 2870 2558 
Q 3266 2144 3266 1488 
Q 3266 1056 3080 686 
Q 2894 316 2569 119 
Q 2244 -78 1831 -78 
Q 1128 -78 684 439 
Q 241 956 241 2144 
Q 241 3472 731 4075 
Q 1159 4600 1884 4600 
Q 2425 4600 2770 4297 
Q 3116 3994 3184 3459 
z
M 888 1484 
Q 888 1194 1011 928 
Q 1134 663 1356 523 
Q 1578 384 1822 384 
Q 2178 384 2434 671 
Q 2691 959 2691 1453 
Q 2691 1928 2437 2201 
Q 2184 2475 1800 2475 
Q 1419 2475 1153 2201 
Q 888 1928 888 1484 
z
" transform="scale(0.015625)"/>
       </defs>
       <use xlink:href="#ArialMT-30"/>
       <use xlink:href="#ArialMT-2e" x="55.615234"/>
       <use xlink:href="#ArialMT-30" x="83.398438"/>
       <use xlink:href="#ArialMT-36" x="139.013672"/>
      </g>
     </g>
    </g>
    <g id="xtick_5">
     <g id="line2d_5">
      <path d="M 617.743139 337.86 
L 617.743139 7.2 
" clip-path="url(#p5e95e29926)" style="fill: none; stroke: #cccccc; stroke-linecap: round"/>
     </g>
     <g id="text_5">
      <!-- 0.08 -->
      <g style="fill: #262626" transform="translate(607.039623 355.233594) scale(0.11 -0.11)">
       <defs>
        <path id="ArialMT-38" d="M 1131 2484 
Q 781 2613 612 2850 
Q 444 3088 444 3419 
Q 444 3919 803 4259 
Q 1163 4600 1759 4600 
Q 2359 4600 2725 4251 
Q 3091 3903 3091 3403 
Q 3091 3084 2923 2848 
Q 2756 2613 2416 2484 
Q 2838 2347 3058 2040 
Q 3278 1734 3278 1309 
Q 3278 722 2862 322 
Q 2447 -78 1769 -78 
Q 1091 -78 675 323 
Q 259 725 259 1325 
Q 259 1772 486 2073 
Q 713 2375 1131 2484 
z
M 1019 3438 
Q 1019 3113 1228 2906 
Q 1438 2700 1772 2700 
Q 2097 2700 2305 2904 
Q 2513 3109 2513 3406 
Q 2513 3716 2298 3927 
Q 2084 4138 1766 4138 
Q 1444 4138 1231 3931 
Q 1019 3725 1019 3438 
z
M 838 1322 
Q 838 1081 952 856 
Q 1066 631 1291 507 
Q 1516 384 1775 384 
Q 2178 384 2440 643 
Q 2703 903 2703 1303 
Q 2703 1709 2433 1975 
Q 2163 2241 1756 2241 
Q 1359 2241 1098 1978 
Q 838 1716 838 1322 
z
" transform="scale(0.015625)"/>
       </defs>
       <use xlink:href="#ArialMT-30"/>
       <use xlink:href="#ArialMT-2e" x="55.615234"/>
       <use xlink:href="#ArialMT-30" x="83.398438"/>
       <use xlink:href="#ArialMT-38" x="139.013672"/>
      </g>
     </g>
    </g>
    <g id="xtick_6">
     <g id="line2d_6">
      <path d="M 758.29966 337.86 
L 758.29966 7.2 
" clip-path="url(#p5e95e29926)" style="fill: none; stroke: #cccccc; stroke-linecap: round"/>
     </g>
     <g id="text_6">
      <!-- 0.10 -->
      <g style="fill: #262626" transform="translate(747.596145 355.233594) scale(0.11 -0.11)">
       <defs>
        <path id="ArialMT-31" d="M 2384 0 
L 1822 0 
L 1822 3584 
Q 1619 3391 1289 3197 
Q 959 3003 697 2906 
L 697 3450 
Q 1169 3672 1522 3987 
Q 1875 4303 2022 4600 
L 2384 4600 
L 2384 0 
z
" transform="scale(0.015625)"/>
       </defs>
       <use xlink:href="#ArialMT-30"/>
       <use xlink:href="#ArialMT-2e" x="55.615234"/>
       <use xlink:href="#ArialMT-31" x="83.398438"/>
       <use xlink:href="#ArialMT-30" x="139.013672"/>
      </g>
     </g>
    </g>
    <g id="text_7">
     <!-- Epsilon $\varepsilon$ -->
     <g style="fill: #262626" transform="translate(382.015313 370.779844) scale(0.13 -0.13)">
      <defs>
       <path id="ArialMT-45" d="M 506 0 
L 506 4581 
L 3819 4581 
L 3819 4041 
L 1113 4041 
L 1113 2638 
L 3647 2638 
L 3647 2100 
L 1113 2100 
L 1113 541 
L 3925 541 
L 3925 0 
L 506 0 
z
" transform="scale(0.015625)"/>
       <path id="ArialMT-70" d="M 422 -1272 
L 422 3319 
L 934 3319 
L 934 2888 
Q 1116 3141 1344 3267 
Q 1572 3394 1897 3394 
Q 2322 3394 2647 3175 
Q 2972 2956 3137 2557 
Q 3303 2159 3303 1684 
Q 3303 1175 3120 767 
Q 2938 359 2589 142 
Q 2241 -75 1856 -75 
Q 1575 -75 1351 44 
Q 1128 163 984 344 
L 984 -1272 
L 422 -1272 
z
M 931 1641 
Q 931 1000 1190 694 
Q 1450 388 1819 388 
Q 2194 388 2461 705 
Q 2728 1022 2728 1688 
Q 2728 2322 2467 2637 
Q 2206 2953 1844 2953 
Q 1484 2953 1207 2617 
Q 931 2281 931 1641 
z
" transform="scale(0.015625)"/>
       <path id="ArialMT-73" d="M 197 991 
L 753 1078 
Q 800 744 1014 566 
Q 1228 388 1613 388 
Q 2000 388 2187 545 
Q 2375 703 2375 916 
Q 2375 1106 2209 1216 
Q 2094 1291 1634 1406 
Q 1016 1563 777 1677 
Q 538 1791 414 1992 
Q 291 2194 291 2438 
Q 291 2659 392 2848 
Q 494 3038 669 3163 
Q 800 3259 1026 3326 
Q 1253 3394 1513 3394 
Q 1903 3394 2198 3281 
Q 2494 3169 2634 2976 
Q 2775 2784 2828 2463 
L 2278 2388 
Q 2241 2644 2061 2787 
Q 1881 2931 1553 2931 
Q 1166 2931 1000 2803 
Q 834 2675 834 2503 
Q 834 2394 903 2306 
Q 972 2216 1119 2156 
Q 1203 2125 1616 2013 
Q 2213 1853 2448 1751 
Q 2684 1650 2818 1456 
Q 2953 1263 2953 975 
Q 2953 694 2789 445 
Q 2625 197 2315 61 
Q 2006 -75 1616 -75 
Q 969 -75 630 194 
Q 291 463 197 991 
z
" transform="scale(0.015625)"/>
       <path id="ArialMT-69" d="M 425 3934 
L 425 4581 
L 988 4581 
L 988 3934 
L 425 3934 
z
M 425 0 
L 425 3319 
L 988 3319 
L 988 0 
L 425 0 
z
" transform="scale(0.015625)"/>
       <path id="ArialMT-6c" d="M 409 0 
L 409 4581 
L 972 4581 
L 972 0 
L 409 0 
z
" transform="scale(0.015625)"/>
       <path id="ArialMT-6f" d="M 213 1659 
Q 213 2581 725 3025 
Q 1153 3394 1769 3394 
Q 2453 3394 2887 2945 
Q 3322 2497 3322 1706 
Q 3322 1066 3130 698 
Q 2938 331 2570 128 
Q 2203 -75 1769 -75 
Q 1072 -75 642 372 
Q 213 819 213 1659 
z
M 791 1659 
Q 791 1022 1069 705 
Q 1347 388 1769 388 
Q 2188 388 2466 706 
Q 2744 1025 2744 1678 
Q 2744 2294 2464 2611 
Q 2184 2928 1769 2928 
Q 1347 2928 1069 2612 
Q 791 2297 791 1659 
z
" transform="scale(0.015625)"/>
       <path id="ArialMT-6e" d="M 422 0 
L 422 3319 
L 928 3319 
L 928 2847 
Q 1294 3394 1984 3394 
Q 2284 3394 2536 3286 
Q 2788 3178 2913 3003 
Q 3038 2828 3088 2588 
Q 3119 2431 3119 2041 
L 3119 0 
L 2556 0 
L 2556 2019 
Q 2556 2363 2490 2533 
Q 2425 2703 2258 2804 
Q 2091 2906 1866 2906 
Q 1506 2906 1245 2678 
Q 984 2450 984 1813 
L 984 0 
L 422 0 
z
" transform="scale(0.015625)"/>
       <path id="ArialMT-20" transform="scale(0.015625)"/>
       <path id="DejaVuSans-Oblique-3b5" d="M 1263 1888 
Q 925 1963 778 2166 
Q 669 2309 669 2503 
Q 669 3034 1175 3344 
Q 1575 3588 2188 3588 
Q 2425 3588 2684 3550 
Q 2944 3513 3234 3438 
L 3134 2916 
Q 2847 3006 2606 3047 
Q 2359 3088 2138 3088 
Q 1766 3088 1522 2944 
Q 1228 2772 1228 2522 
Q 1228 2356 1381 2241 
Q 1563 2103 1925 2103 
L 2409 2103 
L 2319 1628 
L 1856 1628 
Q 1425 1628 1172 1469 
Q 828 1253 828 916 
Q 828 703 1013 563 
Q 1244 388 1716 388 
Q 2006 388 2284 444 
Q 2563 503 2806 619 
L 2700 84 
Q 2403 -3 2131 -47 
Q 1859 -91 1609 -91 
Q 866 -91 516 194 
Q 250 413 250 781 
Q 250 1278 600 1584 
Q 859 1813 1263 1888 
z
" transform="scale(0.015625)"/>
      </defs>
      <use xlink:href="#ArialMT-45" transform="translate(0 0.421875)"/>
      <use xlink:href="#ArialMT-70" transform="translate(66.699219 0.421875)"/>
      <use xlink:href="#ArialMT-73" transform="translate(122.314453 0.421875)"/>
      <use xlink:href="#ArialMT-69" transform="translate(172.314453 0.421875)"/>
      <use xlink:href="#ArialMT-6c" transform="translate(194.53125 0.421875)"/>
      <use xlink:href="#ArialMT-6f" transform="translate(216.748047 0.421875)"/>
      <use xlink:href="#ArialMT-6e" transform="translate(272.363281 0.421875)"/>
      <use xlink:href="#ArialMT-20" transform="translate(327.978516 0.421875)"/>
      <use xlink:href="#DejaVuSans-Oblique-3b5" transform="translate(355.761719 0.421875)"/>
     </g>
    </g>
   </g>
   <g id="matplotlib.axis_2">
    <g id="ytick_1">
     <g id="line2d_7">
      <path d="M 44.975313 310.707551 
L 772.355312 310.707551 
" clip-path="url(#p5e95e29926)" style="fill: none; stroke: #cccccc; stroke-linecap: round"/>
     </g>
     <g id="text_8">
      <!-- 9 -->
      <g style="fill: #262626" transform="translate(29.358281 314.644347) scale(0.11 -0.11)">
       <defs>
        <path id="ArialMT-39" d="M 350 1059 
L 891 1109 
Q 959 728 1153 556 
Q 1347 384 1650 384 
Q 1909 384 2104 503 
Q 2300 622 2425 820 
Q 2550 1019 2634 1356 
Q 2719 1694 2719 2044 
Q 2719 2081 2716 2156 
Q 2547 1888 2255 1720 
Q 1963 1553 1622 1553 
Q 1053 1553 659 1965 
Q 266 2378 266 3053 
Q 266 3750 677 4175 
Q 1088 4600 1706 4600 
Q 2153 4600 2523 4359 
Q 2894 4119 3086 3673 
Q 3278 3228 3278 2384 
Q 3278 1506 3087 986 
Q 2897 466 2520 194 
Q 2144 -78 1638 -78 
Q 1100 -78 759 220 
Q 419 519 350 1059 
z
M 2653 3081 
Q 2653 3566 2395 3850 
Q 2138 4134 1775 4134 
Q 1400 4134 1122 3828 
Q 844 3522 844 3034 
Q 844 2597 1108 2323 
Q 1372 2050 1759 2050 
Q 2150 2050 2401 2323 
Q 2653 2597 2653 3081 
z
" transform="scale(0.015625)"/>
       </defs>
       <use xlink:href="#ArialMT-39"/>
      </g>
     </g>
    </g>
    <g id="ytick_2">
     <g id="line2d_8">
      <path d="M 44.975313 255.067285 
L 772.355312 255.067285 
" clip-path="url(#p5e95e29926)" style="fill: none; stroke: #cccccc; stroke-linecap: round"/>
     </g>
     <g id="text_9">
      <!-- 10 -->
      <g style="fill: #262626" transform="translate(23.24125 259.004082) scale(0.11 -0.11)">
       <use xlink:href="#ArialMT-31"/>
       <use xlink:href="#ArialMT-30" x="55.615234"/>
      </g>
     </g>
    </g>
    <g id="ytick_3">
     <g id="line2d_9">
      <path d="M 44.975313 199.42702 
L 772.355312 199.42702 
" clip-path="url(#p5e95e29926)" style="fill: none; stroke: #cccccc; stroke-linecap: round"/>
     </g>
     <g id="text_10">
      <!-- 11 -->
      <g style="fill: #262626" transform="translate(24.0525 203.363817) scale(0.11 -0.11)">
       <use xlink:href="#ArialMT-31"/>
       <use xlink:href="#ArialMT-31" x="48.240234"/>
      </g>
     </g>
    </g>
    <g id="ytick_4">
     <g id="line2d_10">
      <path d="M 44.975313 143.786755 
L 772.355312 143.786755 
" clip-path="url(#p5e95e29926)" style="fill: none; stroke: #cccccc; stroke-linecap: round"/>
     </g>
     <g id="text_11">
      <!-- 12 -->
      <g style="fill: #262626" transform="translate(23.24125 147.723552) scale(0.11 -0.11)">
       <use xlink:href="#ArialMT-31"/>
       <use xlink:href="#ArialMT-32" x="55.615234"/>
      </g>
     </g>
    </g>
    <g id="ytick_5">
     <g id="line2d_11">
      <path d="M 44.975313 88.14649 
L 772.355312 88.14649 
" clip-path="url(#p5e95e29926)" style="fill: none; stroke: #cccccc; stroke-linecap: round"/>
     </g>
     <g id="text_12">
      <!-- 13 -->
      <g style="fill: #262626" transform="translate(23.24125 92.083287) scale(0.11 -0.11)">
       <defs>
        <path id="ArialMT-33" d="M 269 1209 
L 831 1284 
Q 928 806 1161 595 
Q 1394 384 1728 384 
Q 2125 384 2398 659 
Q 2672 934 2672 1341 
Q 2672 1728 2419 1979 
Q 2166 2231 1775 2231 
Q 1616 2231 1378 2169 
L 1441 2663 
Q 1497 2656 1531 2656 
Q 1891 2656 2178 2843 
Q 2466 3031 2466 3422 
Q 2466 3731 2256 3934 
Q 2047 4138 1716 4138 
Q 1388 4138 1169 3931 
Q 950 3725 888 3313 
L 325 3413 
Q 428 3978 793 4289 
Q 1159 4600 1703 4600 
Q 2078 4600 2393 4439 
Q 2709 4278 2876 4000 
Q 3044 3722 3044 3409 
Q 3044 3113 2884 2869 
Q 2725 2625 2413 2481 
Q 2819 2388 3044 2092 
Q 3269 1797 3269 1353 
Q 3269 753 2831 336 
Q 2394 -81 1725 -81 
Q 1122 -81 723 278 
Q 325 638 269 1209 
z
" transform="scale(0.015625)"/>
       </defs>
       <use xlink:href="#ArialMT-31"/>
       <use xlink:href="#ArialMT-33" x="55.615234"/>
      </g>
     </g>
    </g>
    <g id="ytick_6">
     <g id="line2d_12">
      <path d="M 44.975313 32.506225 
L 772.355312 32.506225 
" clip-path="url(#p5e95e29926)" style="fill: none; stroke: #cccccc; stroke-linecap: round"/>
     </g>
     <g id="text_13">
      <!-- 14 -->
      <g style="fill: #262626" transform="translate(23.24125 36.443022) scale(0.11 -0.11)">
       <use xlink:href="#ArialMT-31"/>
       <use xlink:href="#ArialMT-34" x="55.615234"/>
      </g>
     </g>
    </g>
    <g id="text_14">
     <!-- Total Undercoverage -->
     <g style="fill: #262626" transform="translate(16.505156 232.501641) rotate(-90) scale(0.13 -0.13)">
      <defs>
       <path id="ArialMT-54" d="M 1659 0 
L 1659 4041 
L 150 4041 
L 150 4581 
L 3781 4581 
L 3781 4041 
L 2266 4041 
L 2266 0 
L 1659 0 
z
" transform="scale(0.015625)"/>
       <path id="ArialMT-74" d="M 1650 503 
L 1731 6 
Q 1494 -44 1306 -44 
Q 1000 -44 831 53 
Q 663 150 594 308 
Q 525 466 525 972 
L 525 2881 
L 113 2881 
L 113 3319 
L 525 3319 
L 525 4141 
L 1084 4478 
L 1084 3319 
L 1650 3319 
L 1650 2881 
L 1084 2881 
L 1084 941 
Q 1084 700 1114 631 
Q 1144 563 1211 522 
Q 1278 481 1403 481 
Q 1497 481 1650 503 
z
" transform="scale(0.015625)"/>
       <path id="ArialMT-61" d="M 2588 409 
Q 2275 144 1986 34 
Q 1697 -75 1366 -75 
Q 819 -75 525 192 
Q 231 459 231 875 
Q 231 1119 342 1320 
Q 453 1522 633 1644 
Q 813 1766 1038 1828 
Q 1203 1872 1538 1913 
Q 2219 1994 2541 2106 
Q 2544 2222 2544 2253 
Q 2544 2597 2384 2738 
Q 2169 2928 1744 2928 
Q 1347 2928 1158 2789 
Q 969 2650 878 2297 
L 328 2372 
Q 403 2725 575 2942 
Q 747 3159 1072 3276 
Q 1397 3394 1825 3394 
Q 2250 3394 2515 3294 
Q 2781 3194 2906 3042 
Q 3031 2891 3081 2659 
Q 3109 2516 3109 2141 
L 3109 1391 
Q 3109 606 3145 398 
Q 3181 191 3288 0 
L 2700 0 
Q 2613 175 2588 409 
z
M 2541 1666 
Q 2234 1541 1622 1453 
Q 1275 1403 1131 1340 
Q 988 1278 909 1158 
Q 831 1038 831 891 
Q 831 666 1001 516 
Q 1172 366 1500 366 
Q 1825 366 2078 508 
Q 2331 650 2450 897 
Q 2541 1088 2541 1459 
L 2541 1666 
z
" transform="scale(0.015625)"/>
       <path id="ArialMT-55" d="M 3500 4581 
L 4106 4581 
L 4106 1934 
Q 4106 1244 3950 837 
Q 3794 431 3386 176 
Q 2978 -78 2316 -78 
Q 1672 -78 1262 144 
Q 853 366 678 786 
Q 503 1206 503 1934 
L 503 4581 
L 1109 4581 
L 1109 1938 
Q 1109 1341 1220 1058 
Q 1331 775 1601 622 
Q 1872 469 2263 469 
Q 2931 469 3215 772 
Q 3500 1075 3500 1938 
L 3500 4581 
z
" transform="scale(0.015625)"/>
       <path id="ArialMT-64" d="M 2575 0 
L 2575 419 
Q 2259 -75 1647 -75 
Q 1250 -75 917 144 
Q 584 363 401 755 
Q 219 1147 219 1656 
Q 219 2153 384 2558 
Q 550 2963 881 3178 
Q 1213 3394 1622 3394 
Q 1922 3394 2156 3267 
Q 2391 3141 2538 2938 
L 2538 4581 
L 3097 4581 
L 3097 0 
L 2575 0 
z
M 797 1656 
Q 797 1019 1065 703 
Q 1334 388 1700 388 
Q 2069 388 2326 689 
Q 2584 991 2584 1609 
Q 2584 2291 2321 2609 
Q 2059 2928 1675 2928 
Q 1300 2928 1048 2622 
Q 797 2316 797 1656 
z
" transform="scale(0.015625)"/>
       <path id="ArialMT-65" d="M 2694 1069 
L 3275 997 
Q 3138 488 2766 206 
Q 2394 -75 1816 -75 
Q 1088 -75 661 373 
Q 234 822 234 1631 
Q 234 2469 665 2931 
Q 1097 3394 1784 3394 
Q 2450 3394 2872 2941 
Q 3294 2488 3294 1666 
Q 3294 1616 3291 1516 
L 816 1516 
Q 847 969 1125 678 
Q 1403 388 1819 388 
Q 2128 388 2347 550 
Q 2566 713 2694 1069 
z
M 847 1978 
L 2700 1978 
Q 2663 2397 2488 2606 
Q 2219 2931 1791 2931 
Q 1403 2931 1139 2672 
Q 875 2413 847 1978 
z
" transform="scale(0.015625)"/>
       <path id="ArialMT-72" d="M 416 0 
L 416 3319 
L 922 3319 
L 922 2816 
Q 1116 3169 1280 3281 
Q 1444 3394 1641 3394 
Q 1925 3394 2219 3213 
L 2025 2691 
Q 1819 2813 1613 2813 
Q 1428 2813 1281 2702 
Q 1134 2591 1072 2394 
Q 978 2094 978 1738 
L 978 0 
L 416 0 
z
" transform="scale(0.015625)"/>
       <path id="ArialMT-63" d="M 2588 1216 
L 3141 1144 
Q 3050 572 2676 248 
Q 2303 -75 1759 -75 
Q 1078 -75 664 370 
Q 250 816 250 1647 
Q 250 2184 428 2587 
Q 606 2991 970 3192 
Q 1334 3394 1763 3394 
Q 2303 3394 2647 3120 
Q 2991 2847 3088 2344 
L 2541 2259 
Q 2463 2594 2264 2762 
Q 2066 2931 1784 2931 
Q 1359 2931 1093 2626 
Q 828 2322 828 1663 
Q 828 994 1084 691 
Q 1341 388 1753 388 
Q 2084 388 2306 591 
Q 2528 794 2588 1216 
z
" transform="scale(0.015625)"/>
       <path id="ArialMT-76" d="M 1344 0 
L 81 3319 
L 675 3319 
L 1388 1331 
Q 1503 1009 1600 663 
Q 1675 925 1809 1294 
L 2547 3319 
L 3125 3319 
L 1869 0 
L 1344 0 
z
" transform="scale(0.015625)"/>
       <path id="ArialMT-67" d="M 319 -275 
L 866 -356 
Q 900 -609 1056 -725 
Q 1266 -881 1628 -881 
Q 2019 -881 2231 -725 
Q 2444 -569 2519 -288 
Q 2563 -116 2559 434 
Q 2191 0 1641 0 
Q 956 0 581 494 
Q 206 988 206 1678 
Q 206 2153 378 2554 
Q 550 2956 876 3175 
Q 1203 3394 1644 3394 
Q 2231 3394 2613 2919 
L 2613 3319 
L 3131 3319 
L 3131 450 
Q 3131 -325 2973 -648 
Q 2816 -972 2473 -1159 
Q 2131 -1347 1631 -1347 
Q 1038 -1347 672 -1080 
Q 306 -813 319 -275 
z
M 784 1719 
Q 784 1066 1043 766 
Q 1303 466 1694 466 
Q 2081 466 2343 764 
Q 2606 1063 2606 1700 
Q 2606 2309 2336 2618 
Q 2066 2928 1684 2928 
Q 1309 2928 1046 2623 
Q 784 2319 784 1719 
z
" transform="scale(0.015625)"/>
      </defs>
      <use xlink:href="#ArialMT-54"/>
      <use xlink:href="#ArialMT-6f" x="49.958984"/>
      <use xlink:href="#ArialMT-74" x="105.574219"/>
      <use xlink:href="#ArialMT-61" x="133.357422"/>
      <use xlink:href="#ArialMT-6c" x="188.972656"/>
      <use xlink:href="#ArialMT-20" x="211.189453"/>
      <use xlink:href="#ArialMT-55" x="238.972656"/>
      <use xlink:href="#ArialMT-6e" x="311.189453"/>
      <use xlink:href="#ArialMT-64" x="366.804688"/>
      <use xlink:href="#ArialMT-65" x="422.419922"/>
      <use xlink:href="#ArialMT-72" x="478.035156"/>
      <use xlink:href="#ArialMT-63" x="511.335938"/>
      <use xlink:href="#ArialMT-6f" x="561.335938"/>
      <use xlink:href="#ArialMT-76" x="616.951172"/>
      <use xlink:href="#ArialMT-65" x="666.951172"/>
      <use xlink:href="#ArialMT-72" x="722.566406"/>
      <use xlink:href="#ArialMT-61" x="755.867188"/>
      <use xlink:href="#ArialMT-67" x="811.482422"/>
      <use xlink:href="#ArialMT-65" x="867.097656"/>
     </g>
    </g>
   </g>
   <g id="PathCollection_1">
    <defs>
     <path id="m0fa5ad77c3" d="M 0 3 
C 0.795609 3 1.55874 2.683901 2.12132 2.12132 
C 2.683901 1.55874 3 0.795609 3 0 
C 3 -0.795609 2.683901 -1.55874 2.12132 -2.12132 
C 1.55874 -2.683901 0.795609 -3 0 -3 
C -0.795609 -3 -1.55874 -2.683901 -2.12132 -2.12132 
C -2.683901 -1.55874 -3 -0.795609 -3 0 
C -3 0.795609 -2.683901 1.55874 -2.12132 2.12132 
C -1.55874 2.683901 -0.795609 3 0 3 
z
" style="stroke: #ffffff; stroke-width: 0.48"/>
    </defs>
    <g clip-path="url(#p5e95e29926)">
     <use xlink:href="#m0fa5ad77c3" x="55.517052" y="312.933161" style="fill: #000004; stroke: #ffffff; stroke-width: 0.48"/>
     <use xlink:href="#m0fa5ad77c3" x="55.517052" y="312.933161" style="fill: #000004; stroke: #ffffff; stroke-width: 0.48"/>
     <use xlink:href="#m0fa5ad77c3" x="55.517052" y="312.933161" style="fill: #000004; stroke: #ffffff; stroke-width: 0.48"/>
     <use xlink:href="#m0fa5ad77c3" x="55.517052" y="312.933161" style="fill: #000004; stroke: #ffffff; stroke-width: 0.48"/>
     <use xlink:href="#m0fa5ad77c3" x="55.517052" y="312.933161" style="fill: #000004; stroke: #ffffff; stroke-width: 0.48"/>
     <use xlink:href="#m0fa5ad77c3" x="196.073573" y="310.574014" style="fill: #000004; stroke: #ffffff; stroke-width: 0.48"/>
     <use xlink:href="#m0fa5ad77c3" x="196.073573" y="308.615477" style="fill: #000004; stroke: #ffffff; stroke-width: 0.48"/>
     <use xlink:href="#m0fa5ad77c3" x="196.073573" y="307.179958" style="fill: #000004; stroke: #ffffff; stroke-width: 0.48"/>
     <use xlink:href="#m0fa5ad77c3" x="196.073573" y="305.633158" style="fill: #000004; stroke: #ffffff; stroke-width: 0.48"/>
     <use xlink:href="#m0fa5ad77c3" x="196.073573" y="303.730261" style="fill: #000004; stroke: #ffffff; stroke-width: 0.48"/>
     <use xlink:href="#m0fa5ad77c3" x="336.630095" y="308.281635" style="fill: #000004; stroke: #ffffff; stroke-width: 0.48"/>
     <use xlink:href="#m0fa5ad77c3" x="336.630095" y="304.052975" style="fill: #000004; stroke: #ffffff; stroke-width: 0.48"/>
     <use xlink:href="#m0fa5ad77c3" x="336.630095" y="301.315474" style="fill: #000004; stroke: #ffffff; stroke-width: 0.48"/>
     <use xlink:href="#m0fa5ad77c3" x="336.630095" y="298.088338" style="fill: #000004; stroke: #ffffff; stroke-width: 0.48"/>
     <use xlink:href="#m0fa5ad77c3" x="336.630095" y="294.549618" style="fill: #000004; stroke: #ffffff; stroke-width: 0.48"/>
     <use xlink:href="#m0fa5ad77c3" x="477.186617" y="306.089409" style="fill: #000004; stroke: #ffffff; stroke-width: 0.48"/>
     <use xlink:href="#m0fa5ad77c3" x="477.186617" y="300.1359" style="fill: #000004; stroke: #ffffff; stroke-width: 0.48"/>
     <use xlink:href="#m0fa5ad77c3" x="477.186617" y="295.540014" style="fill: #000004; stroke: #ffffff; stroke-width: 0.48"/>
     <use xlink:href="#m0fa5ad77c3" x="477.186617" y="291.522787" style="fill: #000004; stroke: #ffffff; stroke-width: 0.48"/>
     <use xlink:href="#m0fa5ad77c3" x="477.186617" y="286.6487" style="fill: #000004; stroke: #ffffff; stroke-width: 0.48"/>
     <use xlink:href="#m0fa5ad77c3" x="617.743139" y="304.030719" style="fill: #000004; stroke: #ffffff; stroke-width: 0.48"/>
     <use xlink:href="#m0fa5ad77c3" x="617.743139" y="296.196569" style="fill: #000004; stroke: #ffffff; stroke-width: 0.48"/>
     <use xlink:href="#m0fa5ad77c3" x="617.743139" y="290.921872" style="fill: #000004; stroke: #ffffff; stroke-width: 0.48"/>
     <use xlink:href="#m0fa5ad77c3" x="617.743139" y="285.825224" style="fill: #000004; stroke: #ffffff; stroke-width: 0.48"/>
     <use xlink:href="#m0fa5ad77c3" x="617.743139" y="280.639551" style="fill: #000004; stroke: #ffffff; stroke-width: 0.48"/>
     <use xlink:href="#m0fa5ad77c3" x="758.29966" y="301.972029" style="fill: #000004; stroke: #ffffff; stroke-width: 0.48"/>
     <use xlink:href="#m0fa5ad77c3" x="758.29966" y="292.902666" style="fill: #000004; stroke: #ffffff; stroke-width: 0.48"/>
     <use xlink:href="#m0fa5ad77c3" x="758.29966" y="287.171718" style="fill: #000004; stroke: #ffffff; stroke-width: 0.48"/>
     <use xlink:href="#m0fa5ad77c3" x="758.29966" y="281.552052" style="fill: #000004; stroke: #ffffff; stroke-width: 0.48"/>
     <use xlink:href="#m0fa5ad77c3" x="758.29966" y="275.598543" style="fill: #000004; stroke: #ffffff; stroke-width: 0.48"/>
    </g>
   </g>
   <g id="PathCollection_2">
    <defs>
     <path id="mb076705b1a" d="M -3 3 
L 3 3 
L 3 -3 
L -3 -3 
z
" style="stroke: #ffffff; stroke-width: 0.48"/>
    </defs>
    <g clip-path="url(#p5e95e29926)">
     <use xlink:href="#mb076705b1a" x="55.517052" y="312.933161" style="fill: #000004; stroke: #ffffff; stroke-width: 0.48"/>
     <use xlink:href="#mb076705b1a" x="55.517052" y="312.933161" style="fill: #000004; stroke: #ffffff; stroke-width: 0.48"/>
     <use xlink:href="#mb076705b1a" x="55.517052" y="312.933161" style="fill: #000004; stroke: #ffffff; stroke-width: 0.48"/>
     <use xlink:href="#mb076705b1a" x="55.517052" y="312.933161" style="fill: #000004; stroke: #ffffff; stroke-width: 0.48"/>
     <use xlink:href="#mb076705b1a" x="55.517052" y="312.933161" style="fill: #000004; stroke: #ffffff; stroke-width: 0.48"/>
     <use xlink:href="#mb076705b1a" x="196.073573" y="279.437722" style="fill: #000004; stroke: #ffffff; stroke-width: 0.48"/>
     <use xlink:href="#mb076705b1a" x="196.073573" y="263.357685" style="fill: #000004; stroke: #ffffff; stroke-width: 0.48"/>
     <use xlink:href="#mb076705b1a" x="196.073573" y="259.073385" style="fill: #000004; stroke: #ffffff; stroke-width: 0.48"/>
     <use xlink:href="#mb076705b1a" x="196.073573" y="256.291371" style="fill: #000004; stroke: #ffffff; stroke-width: 0.48"/>
     <use xlink:href="#mb076705b1a" x="196.073573" y="254.789084" style="fill: #000004; stroke: #ffffff; stroke-width: 0.48"/>
     <use xlink:href="#mb076705b1a" x="336.630095" y="245.886642" style="fill: #000004; stroke: #ffffff; stroke-width: 0.48"/>
     <use xlink:href="#mb076705b1a" x="336.630095" y="213.225806" style="fill: #000004; stroke: #ffffff; stroke-width: 0.48"/>
     <use xlink:href="#mb076705b1a" x="336.630095" y="205.157968" style="fill: #000004; stroke: #ffffff; stroke-width: 0.48"/>
     <use xlink:href="#mb076705b1a" x="336.630095" y="199.593941" style="fill: #000004; stroke: #ffffff; stroke-width: 0.48"/>
     <use xlink:href="#mb076705b1a" x="336.630095" y="196.645007" style="fill: #000004; stroke: #ffffff; stroke-width: 0.48"/>
     <use xlink:href="#mb076705b1a" x="477.186617" y="212.391202" style="fill: #000004; stroke: #ffffff; stroke-width: 0.48"/>
     <use xlink:href="#mb076705b1a" x="477.186617" y="163.372128" style="fill: #000004; stroke: #ffffff; stroke-width: 0.48"/>
     <use xlink:href="#mb076705b1a" x="477.186617" y="151.298191" style="fill: #000004; stroke: #ffffff; stroke-width: 0.48"/>
     <use xlink:href="#mb076705b1a" x="477.186617" y="142.952151" style="fill: #000004; stroke: #ffffff; stroke-width: 0.48"/>
     <use xlink:href="#mb076705b1a" x="477.186617" y="138.50093" style="fill: #000004; stroke: #ffffff; stroke-width: 0.48"/>
     <use xlink:href="#mb076705b1a" x="617.743139" y="178.895762" style="fill: #000004; stroke: #ffffff; stroke-width: 0.48"/>
     <use xlink:href="#mb076705b1a" x="617.743139" y="113.518451" style="fill: #000004; stroke: #ffffff; stroke-width: 0.48"/>
     <use xlink:href="#mb076705b1a" x="617.743139" y="97.382774" style="fill: #000004; stroke: #ffffff; stroke-width: 0.48"/>
     <use xlink:href="#mb076705b1a" x="617.743139" y="86.310361" style="fill: #000004; stroke: #ffffff; stroke-width: 0.48"/>
     <use xlink:href="#mb076705b1a" x="617.743139" y="80.356853" style="fill: #000004; stroke: #ffffff; stroke-width: 0.48"/>
     <use xlink:href="#mb076705b1a" x="758.29966" y="145.400323" style="fill: #000004; stroke: #ffffff; stroke-width: 0.48"/>
     <use xlink:href="#mb076705b1a" x="758.29966" y="63.664773" style="fill: #000004; stroke: #ffffff; stroke-width: 0.48"/>
     <use xlink:href="#mb076705b1a" x="758.29966" y="43.522997" style="fill: #000004; stroke: #ffffff; stroke-width: 0.48"/>
     <use xlink:href="#mb076705b1a" x="758.29966" y="29.668571" style="fill: #000004; stroke: #ffffff; stroke-width: 0.48"/>
     <use xlink:href="#mb076705b1a" x="758.29966" y="22.212776" style="fill: #000004; stroke: #ffffff; stroke-width: 0.48"/>
    </g>
   </g>
   <g id="PolyCollection_1">
    <defs>
     <path id="mf45c176e67" d="M 55.517052 -70.886103 
L 55.517052 -66.399112 
L 62.615866 -66.700868 
L 69.71468 -67.018935 
L 76.813494 -67.343766 
L 83.912309 -67.648251 
L 91.011123 -67.963047 
L 98.109937 -68.258693 
L 105.208751 -68.542432 
L 112.307565 -68.830751 
L 119.40638 -69.13388 
L 126.505194 -69.397468 
L 133.604008 -69.67441 
L 140.702822 -69.980194 
L 147.801637 -70.246967 
L 154.900451 -70.529856 
L 161.999265 -70.810849 
L 169.098079 -71.108954 
L 176.196894 -71.392565 
L 183.295708 -71.690146 
L 190.394522 -71.969782 
L 197.493336 -72.23351 
L 204.59215 -72.500109 
L 211.690965 -72.767741 
L 218.789779 -73.03177 
L 225.888593 -73.273661 
L 232.987407 -73.492161 
L 240.086222 -73.729143 
L 247.185036 -73.987187 
L 254.28385 -74.24135 
L 261.382664 -74.483513 
L 268.481479 -74.720111 
L 275.580293 -74.967558 
L 282.679107 -75.194698 
L 289.777921 -75.446638 
L 296.876735 -75.677343 
L 303.97555 -75.923417 
L 311.074364 -76.158641 
L 318.173178 -76.376598 
L 325.271992 -76.565288 
L 332.370807 -76.814867 
L 339.469621 -77.006269 
L 346.568435 -77.193589 
L 353.667249 -77.432947 
L 360.766063 -77.658901 
L 367.864878 -77.839212 
L 374.963692 -78.086514 
L 382.062506 -78.278448 
L 389.16132 -78.472851 
L 396.260135 -78.665043 
L 403.358949 -78.857528 
L 410.457763 -79.068224 
L 417.556577 -79.299866 
L 424.655392 -79.531786 
L 431.754206 -79.761736 
L 438.85302 -79.923346 
L 445.951834 -80.115586 
L 453.050648 -80.290654 
L 460.149463 -80.466249 
L 467.248277 -80.6426 
L 474.347091 -80.860027 
L 481.445905 -81.050865 
L 488.54472 -81.243076 
L 495.643534 -81.461866 
L 502.742348 -81.645265 
L 509.841162 -81.82908 
L 516.939977 -82.015716 
L 524.038791 -82.213491 
L 531.137605 -82.409105 
L 538.236419 -82.616421 
L 545.335233 -82.823737 
L 552.434048 -83.031052 
L 559.532862 -83.23308 
L 566.631676 -83.424298 
L 573.73049 -83.616333 
L 580.829305 -83.808592 
L 587.928119 -84.000852 
L 595.026933 -84.193111 
L 602.125747 -84.39623 
L 609.224562 -84.575944 
L 616.323376 -84.750563 
L 623.42219 -84.905403 
L 630.521004 -85.079276 
L 637.619818 -85.278976 
L 644.718633 -85.478675 
L 651.817447 -85.678628 
L 658.916261 -85.878898 
L 666.015075 -86.079168 
L 673.11389 -86.279438 
L 680.212704 -86.479707 
L 687.311518 -86.678758 
L 694.410332 -86.87021 
L 701.509146 -87.061663 
L 708.607961 -87.253116 
L 715.706775 -87.444569 
L 722.805589 -87.636022 
L 729.904403 -87.827475 
L 737.003218 -88.018928 
L 744.102032 -88.210381 
L 751.200846 -88.401834 
L 758.29966 -88.593286 
L 758.29966 -99.297721 
L 758.29966 -99.297721 
L 751.200846 -98.97447 
L 744.102032 -98.651213 
L 737.003218 -98.327875 
L 729.904403 -98.004537 
L 722.805589 -97.681199 
L 715.706775 -97.356029 
L 708.607961 -97.036752 
L 701.509146 -96.711613 
L 694.410332 -96.388413 
L 687.311518 -96.065004 
L 680.212704 -95.741594 
L 673.11389 -95.415258 
L 666.015075 -95.086717 
L 658.916261 -94.758176 
L 651.817447 -94.429635 
L 644.718633 -94.101095 
L 637.619818 -93.77279 
L 630.521004 -93.447041 
L 623.42219 -93.121292 
L 616.323376 -92.795543 
L 609.224562 -92.469794 
L 602.125747 -92.144045 
L 595.026933 -91.818296 
L 587.928119 -91.492547 
L 580.829305 -91.172656 
L 573.73049 -90.861174 
L 566.631676 -90.549611 
L 559.532862 -90.220534 
L 552.434048 -89.887486 
L 545.335233 -89.554155 
L 538.236419 -89.210932 
L 531.137605 -88.884941 
L 524.038791 -88.555346 
L 516.939977 -88.229126 
L 509.841162 -87.908743 
L 502.742348 -87.59049 
L 495.643534 -87.272237 
L 488.54472 -86.953984 
L 481.445905 -86.63856 
L 474.347091 -86.3249 
L 467.248277 -86.007728 
L 460.149463 -85.690556 
L 453.050648 -85.375602 
L 445.951834 -85.069391 
L 438.85302 -84.750534 
L 431.754206 -84.439152 
L 424.655392 -84.110382 
L 417.556577 -83.785966 
L 410.457763 -83.46887 
L 403.358949 -83.1701 
L 396.260135 -82.856441 
L 389.16132 -82.52513 
L 382.062506 -82.199502 
L 374.963692 -81.904176 
L 367.864878 -81.625435 
L 360.766063 -81.356218 
L 353.667249 -81.051923 
L 346.568435 -80.72625 
L 339.469621 -80.449818 
L 332.370807 -80.175417 
L 325.271992 -79.90464 
L 318.173178 -79.619869 
L 311.074364 -79.333197 
L 303.97555 -79.046368 
L 296.876735 -78.754888 
L 289.777921 -78.469737 
L 282.679107 -78.194378 
L 275.580293 -77.900861 
L 268.481479 -77.630237 
L 261.382664 -77.364294 
L 254.28385 -77.121843 
L 247.185036 -76.87311 
L 240.086222 -76.63328 
L 232.987407 -76.38126 
L 225.888593 -76.130413 
L 218.789779 -75.883256 
L 211.690965 -75.660849 
L 204.59215 -75.419421 
L 197.493336 -75.165648 
L 190.394522 -74.913847 
L 183.295708 -74.690809 
L 176.196894 -74.481951 
L 169.098079 -74.244832 
L 161.999265 -74.028994 
L 154.900451 -73.793597 
L 147.801637 -73.552558 
L 140.702822 -73.346652 
L 133.604008 -73.132617 
L 126.505194 -72.930087 
L 119.40638 -72.73553 
L 112.307565 -72.545444 
L 105.208751 -72.352699 
L 98.109937 -72.143127 
L 91.011123 -71.926786 
L 83.912309 -71.710142 
L 76.813494 -71.523632 
L 69.71468 -71.293593 
L 62.615866 -71.096652 
L 55.517052 -70.886103 
z
" style="stroke: #ffffff; stroke-opacity: 0.15"/>
    </defs>
    <g clip-path="url(#p5e95e29926)">
     <use xlink:href="#mf45c176e67" x="0" y="380.579844" style="fill: #000004; fill-opacity: 0.15; stroke: #ffffff; stroke-opacity: 0.15"/>
    </g>
   </g>
   <g id="PolyCollection_2">
    <defs>
     <path id="m22fc21fdbb" d="M 55.517052 -77.066867 
L 55.517052 -58.111553 
L 62.615866 -60.904808 
L 69.71468 -63.638192 
L 76.813494 -66.490777 
L 83.912309 -69.280845 
L 91.011123 -72.070913 
L 98.109937 -74.86098 
L 105.208751 -77.653054 
L 112.307565 -80.445603 
L 119.40638 -83.238153 
L 126.505194 -86.06174 
L 133.604008 -88.691381 
L 140.702822 -91.491255 
L 147.801637 -94.193706 
L 154.900451 -96.891834 
L 161.999265 -99.533258 
L 169.098079 -102.149393 
L 176.196894 -104.83915 
L 183.295708 -107.464241 
L 190.394522 -110.059234 
L 197.493336 -112.527206 
L 204.59215 -115.096203 
L 211.690965 -117.550774 
L 218.789779 -120.060684 
L 225.888593 -122.552808 
L 232.987407 -125.059616 
L 240.086222 -127.561912 
L 247.185036 -129.907771 
L 254.28385 -132.488998 
L 261.382664 -134.823997 
L 268.481479 -137.277787 
L 275.580293 -139.705644 
L 282.679107 -142.248715 
L 289.777921 -144.733333 
L 296.876735 -147.168746 
L 303.97555 -149.617152 
L 311.074364 -151.952755 
L 318.173178 -154.143464 
L 325.271992 -156.58616 
L 332.370807 -159.080724 
L 339.469621 -161.397146 
L 346.568435 -163.642251 
L 353.667249 -166.044693 
L 360.766063 -168.36227 
L 367.864878 -170.677366 
L 374.963692 -172.995626 
L 382.062506 -175.339711 
L 389.16132 -177.717802 
L 396.260135 -180.095893 
L 403.358949 -182.261009 
L 410.457763 -184.578007 
L 417.556577 -186.931331 
L 424.655392 -189.213264 
L 431.754206 -191.528048 
L 438.85302 -193.842831 
L 445.951834 -196.119972 
L 453.050648 -198.378179 
L 460.149463 -200.671085 
L 467.248277 -202.889835 
L 474.347091 -205.165367 
L 481.445905 -207.430574 
L 488.54472 -209.666776 
L 495.643534 -211.913729 
L 502.742348 -214.169101 
L 509.841162 -216.373495 
L 516.939977 -218.647885 
L 524.038791 -220.935216 
L 531.137605 -223.187435 
L 538.236419 -225.316019 
L 545.335233 -227.604332 
L 552.434048 -229.798556 
L 559.532862 -232.023176 
L 566.631676 -234.257811 
L 573.73049 -236.492445 
L 580.829305 -238.653257 
L 587.928119 -240.808121 
L 595.026933 -243.116234 
L 602.125747 -245.425898 
L 609.224562 -247.668677 
L 616.323376 -249.904498 
L 623.42219 -252.140318 
L 630.521004 -254.376138 
L 637.619818 -256.611958 
L 644.718633 -258.823197 
L 651.817447 -261.016912 
L 658.916261 -263.211406 
L 666.015075 -265.472884 
L 673.11389 -267.764021 
L 680.212704 -270.02688 
L 687.311518 -272.2627 
L 694.410332 -274.49852 
L 701.509146 -276.671483 
L 708.607961 -278.834 
L 715.706775 -281.071828 
L 722.805589 -283.309656 
L 729.904403 -285.547484 
L 737.003218 -287.785465 
L 744.102032 -290.024855 
L 751.200846 -292.265895 
L 758.29966 -294.507645 
L 758.29966 -342.562941 
L 758.29966 -342.562941 
L 751.200846 -339.741861 
L 744.102032 -336.927984 
L 737.003218 -334.035484 
L 729.904403 -331.14154 
L 722.805589 -328.269893 
L 715.706775 -325.410789 
L 708.607961 -322.551685 
L 701.509146 -319.692581 
L 694.410332 -316.833476 
L 687.311518 -313.974372 
L 680.212704 -311.115268 
L 673.11389 -308.256164 
L 666.015075 -305.407637 
L 658.916261 -302.582764 
L 651.817447 -299.761039 
L 644.718633 -296.94623 
L 637.619818 -294.138186 
L 630.521004 -291.330143 
L 623.42219 -288.522099 
L 616.323376 -285.711804 
L 609.224562 -282.933985 
L 602.125747 -280.170245 
L 595.026933 -277.406505 
L 587.928119 -274.642765 
L 580.829305 -271.879025 
L 573.73049 -269.114696 
L 566.631676 -266.349937 
L 559.532862 -263.58351 
L 552.434048 -260.772229 
L 545.335233 -257.907205 
L 538.236419 -255.042182 
L 531.137605 -252.175865 
L 524.038791 -249.364052 
L 516.939977 -246.572605 
L 509.841162 -243.781159 
L 502.742348 -240.989712 
L 495.643534 -238.198265 
L 488.54472 -235.406819 
L 481.445905 -232.615372 
L 474.347091 -229.823908 
L 467.248277 -227.03146 
L 460.149463 -224.20776 
L 453.050648 -221.349791 
L 445.951834 -218.491029 
L 438.85302 -215.632268 
L 431.754206 -212.773506 
L 424.655392 -209.914744 
L 417.556577 -207.114084 
L 410.457763 -204.334986 
L 403.358949 -201.566245 
L 396.260135 -198.83553 
L 389.16132 -196.032139 
L 382.062506 -193.265794 
L 374.963692 -190.471389 
L 367.864878 -187.697742 
L 360.766063 -184.92385 
L 353.667249 -182.160614 
L 346.568435 -179.364574 
L 339.469621 -176.601113 
L 332.370807 -173.828363 
L 325.271992 -171.128288 
L 318.173178 -168.392064 
L 311.074364 -165.658506 
L 303.97555 -163.012429 
L 296.876735 -160.333155 
L 289.777921 -157.53353 
L 282.679107 -154.922257 
L 275.580293 -152.280179 
L 268.481479 -149.542592 
L 261.382664 -147.089087 
L 254.28385 -144.450448 
L 247.185036 -141.776362 
L 240.086222 -139.048391 
L 232.987407 -136.366683 
L 225.888593 -133.960917 
L 218.789779 -131.499006 
L 211.690965 -128.994674 
L 204.59215 -126.520592 
L 197.493336 -123.91536 
L 190.394522 -121.440099 
L 183.295708 -119.023306 
L 176.196894 -116.650545 
L 169.098079 -114.181109 
L 161.999265 -111.782932 
L 154.900451 -109.536269 
L 147.801637 -107.115875 
L 140.702822 -104.770578 
L 133.604008 -102.448845 
L 126.505194 -100.033826 
L 119.40638 -97.658306 
L 112.307565 -95.328194 
L 105.208751 -92.921976 
L 98.109937 -90.631104 
L 91.011123 -88.435246 
L 83.912309 -86.216694 
L 76.813494 -83.930751 
L 69.71468 -81.644807 
L 62.615866 -79.357121 
L 55.517052 -77.066867 
z
" style="stroke: #ffffff; stroke-opacity: 0.15"/>
    </defs>
    <g clip-path="url(#p5e95e29926)">
     <use xlink:href="#m22fc21fdbb" x="0" y="380.579844" style="fill: #000004; fill-opacity: 0.15; stroke: #ffffff; stroke-opacity: 0.15"/>
    </g>
   </g>
   <g id="PathCollection_3">
    <defs>
     <path id="m4a678ace20" d="M 0 3 
C 0.795609 3 1.55874 2.683901 2.12132 2.12132 
C 2.683901 1.55874 3 0.795609 3 0 
C 3 -0.795609 2.683901 -1.55874 2.12132 -2.12132 
C 1.55874 -2.683901 0.795609 -3 0 -3 
C -0.795609 -3 -1.55874 -2.683901 -2.12132 -2.12132 
C -2.683901 -1.55874 -3 -0.795609 -3 0 
C -3 0.795609 -2.683901 1.55874 -2.12132 2.12132 
C -1.55874 2.683901 -0.795609 3 0 3 
z
" style="stroke: #ffffff; stroke-width: 0.48"/>
    </defs>
    <g clip-path="url(#p5e95e29926)">
     <use xlink:href="#m4a678ace20" x="55.517052" y="312.933161" style="fill: #331067; stroke: #ffffff; stroke-width: 0.48"/>
     <use xlink:href="#m4a678ace20" x="196.073573" y="310.574014" style="fill: #331067; stroke: #ffffff; stroke-width: 0.48"/>
     <use xlink:href="#m4a678ace20" x="336.630095" y="308.281635" style="fill: #331067; stroke: #ffffff; stroke-width: 0.48"/>
     <use xlink:href="#m4a678ace20" x="477.186617" y="306.089409" style="fill: #331067; stroke: #ffffff; stroke-width: 0.48"/>
     <use xlink:href="#m4a678ace20" x="617.743139" y="304.030719" style="fill: #331067; stroke: #ffffff; stroke-width: 0.48"/>
     <use xlink:href="#m4a678ace20" x="758.29966" y="301.972029" style="fill: #331067; stroke: #ffffff; stroke-width: 0.48"/>
    </g>
   </g>
   <g id="PathCollection_4">
    <defs>
     <path id="me151d8e31e" d="M -3 3 
L 3 3 
L 3 -3 
L -3 -3 
z
" style="stroke: #ffffff; stroke-width: 0.48"/>
    </defs>
    <g clip-path="url(#p5e95e29926)">
     <use xlink:href="#me151d8e31e" x="55.517052" y="312.933161" style="fill: #331067; stroke: #ffffff; stroke-width: 0.48"/>
     <use xlink:href="#me151d8e31e" x="196.073573" y="279.437722" style="fill: #331067; stroke: #ffffff; stroke-width: 0.48"/>
     <use xlink:href="#me151d8e31e" x="336.630095" y="245.886642" style="fill: #331067; stroke: #ffffff; stroke-width: 0.48"/>
     <use xlink:href="#me151d8e31e" x="477.186617" y="212.391202" style="fill: #331067; stroke: #ffffff; stroke-width: 0.48"/>
     <use xlink:href="#me151d8e31e" x="617.743139" y="178.895762" style="fill: #331067; stroke: #ffffff; stroke-width: 0.48"/>
     <use xlink:href="#me151d8e31e" x="758.29966" y="145.400323" style="fill: #331067; stroke: #ffffff; stroke-width: 0.48"/>
    </g>
   </g>
   <g id="PathCollection_5">
    <defs>
     <path id="mf83121f8ae" d="M 0 3 
C 0.795609 3 1.55874 2.683901 2.12132 2.12132 
C 2.683901 1.55874 3 0.795609 3 0 
C 3 -0.795609 2.683901 -1.55874 2.12132 -2.12132 
C 1.55874 -2.683901 0.795609 -3 0 -3 
C -0.795609 -3 -1.55874 -2.683901 -2.12132 -2.12132 
C -2.683901 -1.55874 -3 -0.795609 -3 0 
C -3 0.795609 -2.683901 1.55874 -2.12132 2.12132 
C -1.55874 2.683901 -0.795609 3 0 3 
z
" style="stroke: #ffffff; stroke-width: 0.48"/>
    </defs>
    <g clip-path="url(#p5e95e29926)">
     <use xlink:href="#mf83121f8ae" x="55.517052" y="312.933161" style="fill: #7c2382; stroke: #ffffff; stroke-width: 0.48"/>
     <use xlink:href="#mf83121f8ae" x="196.073573" y="308.615477" style="fill: #7c2382; stroke: #ffffff; stroke-width: 0.48"/>
     <use xlink:href="#mf83121f8ae" x="336.630095" y="304.052975" style="fill: #7c2382; stroke: #ffffff; stroke-width: 0.48"/>
     <use xlink:href="#mf83121f8ae" x="477.186617" y="300.1359" style="fill: #7c2382; stroke: #ffffff; stroke-width: 0.48"/>
     <use xlink:href="#mf83121f8ae" x="617.743139" y="296.196569" style="fill: #7c2382; stroke: #ffffff; stroke-width: 0.48"/>
     <use xlink:href="#mf83121f8ae" x="758.29966" y="292.902666" style="fill: #7c2382; stroke: #ffffff; stroke-width: 0.48"/>
    </g>
   </g>
   <g id="PathCollection_6">
    <defs>
     <path id="mb0e72d88df" d="M -3 3 
L 3 3 
L 3 -3 
L -3 -3 
z
" style="stroke: #ffffff; stroke-width: 0.48"/>
    </defs>
    <g clip-path="url(#p5e95e29926)">
     <use xlink:href="#mb0e72d88df" x="55.517052" y="312.933161" style="fill: #7c2382; stroke: #ffffff; stroke-width: 0.48"/>
     <use xlink:href="#mb0e72d88df" x="196.073573" y="263.357685" style="fill: #7c2382; stroke: #ffffff; stroke-width: 0.48"/>
     <use xlink:href="#mb0e72d88df" x="336.630095" y="213.225806" style="fill: #7c2382; stroke: #ffffff; stroke-width: 0.48"/>
     <use xlink:href="#mb0e72d88df" x="477.186617" y="163.372128" style="fill: #7c2382; stroke: #ffffff; stroke-width: 0.48"/>
     <use xlink:href="#mb0e72d88df" x="617.743139" y="113.518451" style="fill: #7c2382; stroke: #ffffff; stroke-width: 0.48"/>
     <use xlink:href="#mb0e72d88df" x="758.29966" y="63.664773" style="fill: #7c2382; stroke: #ffffff; stroke-width: 0.48"/>
    </g>
   </g>
   <g id="PathCollection_7">
    <defs>
     <path id="m5c60869fd2" d="M 0 3 
C 0.795609 3 1.55874 2.683901 2.12132 2.12132 
C 2.683901 1.55874 3 0.795609 3 0 
C 3 -0.795609 2.683901 -1.55874 2.12132 -2.12132 
C 1.55874 -2.683901 0.795609 -3 0 -3 
C -0.795609 -3 -1.55874 -2.683901 -2.12132 -2.12132 
C -2.683901 -1.55874 -3 -0.795609 -3 0 
C -3 0.795609 -2.683901 1.55874 -2.12132 2.12132 
C -1.55874 2.683901 -0.795609 3 0 3 
z
" style="stroke: #ffffff; stroke-width: 0.48"/>
    </defs>
    <g clip-path="url(#p5e95e29926)">
     <use xlink:href="#m5c60869fd2" x="55.517052" y="312.933161" style="fill: #c73d73; stroke: #ffffff; stroke-width: 0.48"/>
     <use xlink:href="#m5c60869fd2" x="196.073573" y="307.179958" style="fill: #c73d73; stroke: #ffffff; stroke-width: 0.48"/>
     <use xlink:href="#m5c60869fd2" x="336.630095" y="301.315474" style="fill: #c73d73; stroke: #ffffff; stroke-width: 0.48"/>
     <use xlink:href="#m5c60869fd2" x="477.186617" y="295.540014" style="fill: #c73d73; stroke: #ffffff; stroke-width: 0.48"/>
     <use xlink:href="#m5c60869fd2" x="617.743139" y="290.921872" style="fill: #c73d73; stroke: #ffffff; stroke-width: 0.48"/>
     <use xlink:href="#m5c60869fd2" x="758.29966" y="287.171718" style="fill: #c73d73; stroke: #ffffff; stroke-width: 0.48"/>
    </g>
   </g>
   <g id="PathCollection_8">
    <defs>
     <path id="m9a5903543e" d="M -3 3 
L 3 3 
L 3 -3 
L -3 -3 
z
" style="stroke: #ffffff; stroke-width: 0.48"/>
    </defs>
    <g clip-path="url(#p5e95e29926)">
     <use xlink:href="#m9a5903543e" x="55.517052" y="312.933161" style="fill: #c73d73; stroke: #ffffff; stroke-width: 0.48"/>
     <use xlink:href="#m9a5903543e" x="196.073573" y="259.073385" style="fill: #c73d73; stroke: #ffffff; stroke-width: 0.48"/>
     <use xlink:href="#m9a5903543e" x="336.630095" y="205.157968" style="fill: #c73d73; stroke: #ffffff; stroke-width: 0.48"/>
     <use xlink:href="#m9a5903543e" x="477.186617" y="151.298191" style="fill: #c73d73; stroke: #ffffff; stroke-width: 0.48"/>
     <use xlink:href="#m9a5903543e" x="617.743139" y="97.382774" style="fill: #c73d73; stroke: #ffffff; stroke-width: 0.48"/>
     <use xlink:href="#m9a5903543e" x="758.29966" y="43.522997" style="fill: #c73d73; stroke: #ffffff; stroke-width: 0.48"/>
    </g>
   </g>
   <g id="PathCollection_9">
    <defs>
     <path id="m7699ed878c" d="M 0 3 
C 0.795609 3 1.55874 2.683901 2.12132 2.12132 
C 2.683901 1.55874 3 0.795609 3 0 
C 3 -0.795609 2.683901 -1.55874 2.12132 -2.12132 
C 1.55874 -2.683901 0.795609 -3 0 -3 
C -0.795609 -3 -1.55874 -2.683901 -2.12132 -2.12132 
C -2.683901 -1.55874 -3 -0.795609 -3 0 
C -3 0.795609 -2.683901 1.55874 -2.12132 2.12132 
C -1.55874 2.683901 -0.795609 3 0 3 
z
" style="stroke: #ffffff; stroke-width: 0.48"/>
    </defs>
    <g clip-path="url(#p5e95e29926)">
     <use xlink:href="#m7699ed878c" x="55.517052" y="312.933161" style="fill: #f9795d; stroke: #ffffff; stroke-width: 0.48"/>
     <use xlink:href="#m7699ed878c" x="196.073573" y="305.633158" style="fill: #f9795d; stroke: #ffffff; stroke-width: 0.48"/>
     <use xlink:href="#m7699ed878c" x="336.630095" y="298.088338" style="fill: #f9795d; stroke: #ffffff; stroke-width: 0.48"/>
     <use xlink:href="#m7699ed878c" x="477.186617" y="291.522787" style="fill: #f9795d; stroke: #ffffff; stroke-width: 0.48"/>
     <use xlink:href="#m7699ed878c" x="617.743139" y="285.825224" style="fill: #f9795d; stroke: #ffffff; stroke-width: 0.48"/>
     <use xlink:href="#m7699ed878c" x="758.29966" y="281.552052" style="fill: #f9795d; stroke: #ffffff; stroke-width: 0.48"/>
    </g>
   </g>
   <g id="PathCollection_10">
    <defs>
     <path id="md4c1b49000" d="M -3 3 
L 3 3 
L 3 -3 
L -3 -3 
z
" style="stroke: #ffffff; stroke-width: 0.48"/>
    </defs>
    <g clip-path="url(#p5e95e29926)">
     <use xlink:href="#md4c1b49000" x="55.517052" y="312.933161" style="fill: #f9795d; stroke: #ffffff; stroke-width: 0.48"/>
     <use xlink:href="#md4c1b49000" x="196.073573" y="256.291371" style="fill: #f9795d; stroke: #ffffff; stroke-width: 0.48"/>
     <use xlink:href="#md4c1b49000" x="336.630095" y="199.593941" style="fill: #f9795d; stroke: #ffffff; stroke-width: 0.48"/>
     <use xlink:href="#md4c1b49000" x="477.186617" y="142.952151" style="fill: #f9795d; stroke: #ffffff; stroke-width: 0.48"/>
     <use xlink:href="#md4c1b49000" x="617.743139" y="86.310361" style="fill: #f9795d; stroke: #ffffff; stroke-width: 0.48"/>
     <use xlink:href="#md4c1b49000" x="758.29966" y="29.668571" style="fill: #f9795d; stroke: #ffffff; stroke-width: 0.48"/>
    </g>
   </g>
   <g id="PathCollection_11">
    <defs>
     <path id="m2c1ee02025" d="M 0 3 
C 0.795609 3 1.55874 2.683901 2.12132 2.12132 
C 2.683901 1.55874 3 0.795609 3 0 
C 3 -0.795609 2.683901 -1.55874 2.12132 -2.12132 
C 1.55874 -2.683901 0.795609 -3 0 -3 
C -0.795609 -3 -1.55874 -2.683901 -2.12132 -2.12132 
C -2.683901 -1.55874 -3 -0.795609 -3 0 
C -3 0.795609 -2.683901 1.55874 -2.12132 2.12132 
C -1.55874 2.683901 -0.795609 3 0 3 
z
" style="stroke: #ffffff; stroke-width: 0.48"/>
    </defs>
    <g clip-path="url(#p5e95e29926)">
     <use xlink:href="#m2c1ee02025" x="55.517052" y="312.933161" style="fill: #fecf92; stroke: #ffffff; stroke-width: 0.48"/>
     <use xlink:href="#m2c1ee02025" x="196.073573" y="303.730261" style="fill: #fecf92; stroke: #ffffff; stroke-width: 0.48"/>
     <use xlink:href="#m2c1ee02025" x="336.630095" y="294.549618" style="fill: #fecf92; stroke: #ffffff; stroke-width: 0.48"/>
     <use xlink:href="#m2c1ee02025" x="477.186617" y="286.6487" style="fill: #fecf92; stroke: #ffffff; stroke-width: 0.48"/>
     <use xlink:href="#m2c1ee02025" x="617.743139" y="280.639551" style="fill: #fecf92; stroke: #ffffff; stroke-width: 0.48"/>
     <use xlink:href="#m2c1ee02025" x="758.29966" y="275.598543" style="fill: #fecf92; stroke: #ffffff; stroke-width: 0.48"/>
    </g>
   </g>
   <g id="PathCollection_12">
    <defs>
     <path id="mcacf44b355" d="M -3 3 
L 3 3 
L 3 -3 
L -3 -3 
z
" style="stroke: #ffffff; stroke-width: 0.48"/>
    </defs>
    <g clip-path="url(#p5e95e29926)">
     <use xlink:href="#mcacf44b355" x="55.517052" y="312.933161" style="fill: #fecf92; stroke: #ffffff; stroke-width: 0.48"/>
     <use xlink:href="#mcacf44b355" x="196.073573" y="254.789084" style="fill: #fecf92; stroke: #ffffff; stroke-width: 0.48"/>
     <use xlink:href="#mcacf44b355" x="336.630095" y="196.645007" style="fill: #fecf92; stroke: #ffffff; stroke-width: 0.48"/>
     <use xlink:href="#mcacf44b355" x="477.186617" y="138.50093" style="fill: #fecf92; stroke: #ffffff; stroke-width: 0.48"/>
     <use xlink:href="#mcacf44b355" x="617.743139" y="80.356853" style="fill: #fecf92; stroke: #ffffff; stroke-width: 0.48"/>
     <use xlink:href="#mcacf44b355" x="758.29966" y="22.212776" style="fill: #fecf92; stroke: #ffffff; stroke-width: 0.48"/>
    </g>
   </g>
   <g id="line2d_13">
    <path d="M 55.517052 312.134273 
L 62.615866 311.877981 
L 69.71468 311.621689 
L 76.813494 311.365397 
L 83.912309 311.109105 
L 91.011123 310.852813 
L 98.109937 310.596521 
L 105.208751 310.340229 
L 112.307565 310.083936 
L 119.40638 309.827644 
L 126.505194 309.571352 
L 133.604008 309.31506 
L 140.702822 309.058768 
L 147.801637 308.802476 
L 154.900451 308.546184 
L 161.999265 308.289892 
L 169.098079 308.0336 
L 176.196894 307.777308 
L 183.295708 307.521016 
L 190.394522 307.264724 
L 197.493336 307.008432 
L 204.59215 306.75214 
L 211.690965 306.495847 
L 218.789779 306.239555 
L 225.888593 305.983263 
L 232.987407 305.726971 
L 240.086222 305.470679 
L 247.185036 305.214387 
L 254.28385 304.958095 
L 261.382664 304.701803 
L 268.481479 304.445511 
L 275.580293 304.189219 
L 282.679107 303.932927 
L 289.777921 303.676635 
L 296.876735 303.420343 
L 303.97555 303.164051 
L 311.074364 302.907759 
L 318.173178 302.651466 
L 325.271992 302.395174 
L 332.370807 302.138882 
L 339.469621 301.88259 
L 346.568435 301.626298 
L 353.667249 301.370006 
L 360.766063 301.113714 
L 367.864878 300.857422 
L 374.963692 300.60113 
L 382.062506 300.344838 
L 389.16132 300.088546 
L 396.260135 299.832254 
L 403.358949 299.575962 
L 410.457763 299.31967 
L 417.556577 299.063378 
L 424.655392 298.807085 
L 431.754206 298.550793 
L 438.85302 298.294501 
L 445.951834 298.038209 
L 453.050648 297.781917 
L 460.149463 297.525625 
L 467.248277 297.269333 
L 474.347091 297.013041 
L 481.445905 296.756749 
L 488.54472 296.500457 
L 495.643534 296.244165 
L 502.742348 295.987873 
L 509.841162 295.731581 
L 516.939977 295.475289 
L 524.038791 295.218996 
L 531.137605 294.962704 
L 538.236419 294.706412 
L 545.335233 294.45012 
L 552.434048 294.193828 
L 559.532862 293.937536 
L 566.631676 293.681244 
L 573.73049 293.424952 
L 580.829305 293.16866 
L 587.928119 292.912368 
L 595.026933 292.656076 
L 602.125747 292.399784 
L 609.224562 292.143492 
L 616.323376 291.8872 
L 623.42219 291.630908 
L 630.521004 291.374615 
L 637.619818 291.118323 
L 644.718633 290.862031 
L 651.817447 290.605739 
L 658.916261 290.349447 
L 666.015075 290.093155 
L 673.11389 289.836863 
L 680.212704 289.580571 
L 687.311518 289.324279 
L 694.410332 289.067987 
L 701.509146 288.811695 
L 708.607961 288.555403 
L 715.706775 288.299111 
L 722.805589 288.042819 
L 729.904403 287.786527 
L 737.003218 287.530234 
L 744.102032 287.273942 
L 751.200846 287.01765 
L 758.29966 286.761358 
" clip-path="url(#p5e95e29926)" style="fill: none; stroke: #000004; stroke-width: 2.25; stroke-linecap: round"/>
   </g>
   <g id="line2d_14">
    <path d="M 55.517052 312.953828 
L 62.615866 310.407671 
L 69.71468 307.861515 
L 76.813494 305.315359 
L 83.912309 302.769202 
L 91.011123 300.223046 
L 98.109937 297.67689 
L 105.208751 295.130733 
L 112.307565 292.584577 
L 119.40638 290.038421 
L 126.505194 287.492264 
L 133.604008 284.946108 
L 140.702822 282.399951 
L 147.801637 279.853795 
L 154.900451 277.307639 
L 161.999265 274.761482 
L 169.098079 272.215326 
L 176.196894 269.66917 
L 183.295708 267.123013 
L 190.394522 264.576857 
L 197.493336 262.030701 
L 204.59215 259.484544 
L 211.690965 256.938388 
L 218.789779 254.392232 
L 225.888593 251.846075 
L 232.987407 249.299919 
L 240.086222 246.753763 
L 247.185036 244.207606 
L 254.28385 241.66145 
L 261.382664 239.115294 
L 268.481479 236.569137 
L 275.580293 234.022981 
L 282.679107 231.476825 
L 289.777921 228.930668 
L 296.876735 226.384512 
L 303.97555 223.838356 
L 311.074364 221.292199 
L 318.173178 218.746043 
L 325.271992 216.199887 
L 332.370807 213.65373 
L 339.469621 211.107574 
L 346.568435 208.561418 
L 353.667249 206.015261 
L 360.766063 203.469105 
L 367.864878 200.922949 
L 374.963692 198.376792 
L 382.062506 195.830636 
L 389.16132 193.28448 
L 396.260135 190.738323 
L 403.358949 188.192167 
L 410.457763 185.646011 
L 417.556577 183.099854 
L 424.655392 180.553698 
L 431.754206 178.007541 
L 438.85302 175.461385 
L 445.951834 172.915229 
L 453.050648 170.369072 
L 460.149463 167.822916 
L 467.248277 165.27676 
L 474.347091 162.730603 
L 481.445905 160.184447 
L 488.54472 157.638291 
L 495.643534 155.092134 
L 502.742348 152.545978 
L 509.841162 149.999822 
L 516.939977 147.453665 
L 524.038791 144.907509 
L 531.137605 142.361353 
L 538.236419 139.815196 
L 545.335233 137.26904 
L 552.434048 134.722884 
L 559.532862 132.176727 
L 566.631676 129.630571 
L 573.73049 127.084415 
L 580.829305 124.538258 
L 587.928119 121.992102 
L 595.026933 119.445946 
L 602.125747 116.899789 
L 609.224562 114.353633 
L 616.323376 111.807477 
L 623.42219 109.26132 
L 630.521004 106.715164 
L 637.619818 104.169008 
L 644.718633 101.622851 
L 651.817447 99.076695 
L 658.916261 96.530539 
L 666.015075 93.984382 
L 673.11389 91.438226 
L 680.212704 88.89207 
L 687.311518 86.345913 
L 694.410332 83.799757 
L 701.509146 81.2536 
L 708.607961 78.707444 
L 715.706775 76.161288 
L 722.805589 73.615131 
L 729.904403 71.068975 
L 737.003218 68.522819 
L 744.102032 65.976662 
L 751.200846 63.430506 
L 758.29966 60.88435 
" clip-path="url(#p5e95e29926)" style="fill: none; stroke: #000004; stroke-width: 2.25; stroke-linecap: round"/>
   </g>
   <g id="line2d_15">
    <path d="M 55.517052 312.933161 
L 196.073573 310.574014 
L 336.630095 308.281635 
L 477.186617 306.089409 
L 617.743139 304.030719 
L 758.29966 301.972029 
" clip-path="url(#p5e95e29926)" style="fill: none; stroke: #331067; stroke-opacity: 0.7; stroke-width: 1.5; stroke-linecap: round"/>
   </g>
   <g id="line2d_16">
    <path d="M 55.517052 312.933161 
L 196.073573 279.437722 
L 336.630095 245.886642 
L 477.186617 212.391202 
L 617.743139 178.895762 
L 758.29966 145.400323 
" clip-path="url(#p5e95e29926)" style="fill: none; stroke-dasharray: 5.55,2.4; stroke-dashoffset: 0; stroke: #331067; stroke-opacity: 0.7; stroke-width: 1.5"/>
   </g>
   <g id="line2d_17">
    <path d="M 55.517052 312.933161 
L 196.073573 308.615477 
L 336.630095 304.052975 
L 477.186617 300.1359 
L 617.743139 296.196569 
L 758.29966 292.902666 
" clip-path="url(#p5e95e29926)" style="fill: none; stroke: #7c2382; stroke-opacity: 0.7; stroke-width: 1.5; stroke-linecap: round"/>
   </g>
   <g id="line2d_18">
    <path d="M 55.517052 312.933161 
L 196.073573 263.357685 
L 336.630095 213.225806 
L 477.186617 163.372128 
L 617.743139 113.518451 
L 758.29966 63.664773 
" clip-path="url(#p5e95e29926)" style="fill: none; stroke-dasharray: 5.55,2.4; stroke-dashoffset: 0; stroke: #7c2382; stroke-opacity: 0.7; stroke-width: 1.5"/>
   </g>
   <g id="line2d_19">
    <path d="M 55.517052 312.933161 
L 196.073573 307.179958 
L 336.630095 301.315474 
L 477.186617 295.540014 
L 617.743139 290.921872 
L 758.29966 287.171718 
" clip-path="url(#p5e95e29926)" style="fill: none; stroke: #c73d73; stroke-opacity: 0.7; stroke-width: 1.5; stroke-linecap: round"/>
   </g>
   <g id="line2d_20">
    <path d="M 55.517052 312.933161 
L 196.073573 259.073385 
L 336.630095 205.157968 
L 477.186617 151.298191 
L 617.743139 97.382774 
L 758.29966 43.522997 
" clip-path="url(#p5e95e29926)" style="fill: none; stroke-dasharray: 5.55,2.4; stroke-dashoffset: 0; stroke: #c73d73; stroke-opacity: 0.7; stroke-width: 1.5"/>
   </g>
   <g id="line2d_21">
    <path d="M 55.517052 312.933161 
L 196.073573 305.633158 
L 336.630095 298.088338 
L 477.186617 291.522787 
L 617.743139 285.825224 
L 758.29966 281.552052 
" clip-path="url(#p5e95e29926)" style="fill: none; stroke: #f9795d; stroke-opacity: 0.7; stroke-width: 1.5; stroke-linecap: round"/>
   </g>
   <g id="line2d_22">
    <path d="M 55.517052 312.933161 
L 196.073573 256.291371 
L 336.630095 199.593941 
L 477.186617 142.952151 
L 617.743139 86.310361 
L 758.29966 29.668571 
" clip-path="url(#p5e95e29926)" style="fill: none; stroke-dasharray: 5.55,2.4; stroke-dashoffset: 0; stroke: #f9795d; stroke-opacity: 0.7; stroke-width: 1.5"/>
   </g>
   <g id="line2d_23">
    <path d="M 55.517052 312.933161 
L 196.073573 303.730261 
L 336.630095 294.549618 
L 477.186617 286.6487 
L 617.743139 280.639551 
L 758.29966 275.598543 
" clip-path="url(#p5e95e29926)" style="fill: none; stroke: #fecf92; stroke-opacity: 0.7; stroke-width: 1.5; stroke-linecap: round"/>
   </g>
   <g id="line2d_24">
    <path d="M 55.517052 312.933161 
L 196.073573 254.789084 
L 336.630095 196.645007 
L 477.186617 138.50093 
L 617.743139 80.356853 
L 758.29966 22.212776 
" clip-path="url(#p5e95e29926)" style="fill: none; stroke-dasharray: 5.55,2.4; stroke-dashoffset: 0; stroke: #fecf92; stroke-opacity: 0.7; stroke-width: 1.5"/>
   </g>
   <g id="patch_3">
    <path d="M 44.975313 337.86 
L 44.975313 7.2 
" style="fill: none; stroke: #cccccc; stroke-width: 1.25; stroke-linejoin: miter; stroke-linecap: square"/>
   </g>
   <g id="patch_4">
    <path d="M 772.355312 337.86 
L 772.355312 7.2 
" style="fill: none; stroke: #cccccc; stroke-width: 1.25; stroke-linejoin: miter; stroke-linecap: square"/>
   </g>
   <g id="patch_5">
    <path d="M 44.975313 337.86 
L 772.355312 337.86 
" style="fill: none; stroke: #cccccc; stroke-width: 1.25; stroke-linejoin: miter; stroke-linecap: square"/>
   </g>
   <g id="patch_6">
    <path d="M 44.975313 7.2 
L 772.355312 7.2 
" style="fill: none; stroke: #cccccc; stroke-width: 1.25; stroke-linejoin: miter; stroke-linecap: square"/>
   </g>
   <g id="legend_1">
    <g id="patch_7">
     <path d="M 52.675313 206.619687 
L 142.476563 206.619687 
Q 144.676563 206.619687 144.676563 204.419687 
L 144.676563 14.9 
Q 144.676563 12.7 142.476563 12.7 
L 52.675313 12.7 
Q 50.475313 12.7 50.475313 14.9 
L 50.475313 204.419687 
Q 50.475313 206.619687 52.675313 206.619687 
z
" style="fill: #ffffff; opacity: 0.8; stroke: #cccccc; stroke-linejoin: miter"/>
    </g>
    <g id="PathCollection_13">
     <g>
      <use xlink:href="#m0fa5ad77c3" x="65.875313" y="22.086094" style="fill: #000004; stroke: #ffffff; stroke-width: 0.48"/>
     </g>
    </g>
    <g id="text_15">
     <!-- Trend-BAP -->
     <g style="fill: #262626" transform="translate(85.675313 24.973594) scale(0.11 -0.11)">
      <defs>
       <path id="ArialMT-2d" d="M 203 1375 
L 203 1941 
L 1931 1941 
L 1931 1375 
L 203 1375 
z
" transform="scale(0.015625)"/>
       <path id="ArialMT-42" d="M 469 0 
L 469 4581 
L 2188 4581 
Q 2713 4581 3030 4442 
Q 3347 4303 3526 4014 
Q 3706 3725 3706 3409 
Q 3706 3116 3547 2856 
Q 3388 2597 3066 2438 
Q 3481 2316 3704 2022 
Q 3928 1728 3928 1328 
Q 3928 1006 3792 729 
Q 3656 453 3456 303 
Q 3256 153 2954 76 
Q 2653 0 2216 0 
L 469 0 
z
M 1075 2656 
L 2066 2656 
Q 2469 2656 2644 2709 
Q 2875 2778 2992 2937 
Q 3109 3097 3109 3338 
Q 3109 3566 3000 3739 
Q 2891 3913 2687 3977 
Q 2484 4041 1991 4041 
L 1075 4041 
L 1075 2656 
z
M 1075 541 
L 2216 541 
Q 2509 541 2628 563 
Q 2838 600 2978 687 
Q 3119 775 3209 942 
Q 3300 1109 3300 1328 
Q 3300 1584 3169 1773 
Q 3038 1963 2805 2039 
Q 2572 2116 2134 2116 
L 1075 2116 
L 1075 541 
z
" transform="scale(0.015625)"/>
       <path id="ArialMT-41" d="M -9 0 
L 1750 4581 
L 2403 4581 
L 4278 0 
L 3588 0 
L 3053 1388 
L 1138 1388 
L 634 0 
L -9 0 
z
M 1313 1881 
L 2866 1881 
L 2388 3150 
Q 2169 3728 2063 4100 
Q 1975 3659 1816 3225 
L 1313 1881 
z
" transform="scale(0.015625)"/>
       <path id="ArialMT-50" d="M 494 0 
L 494 4581 
L 2222 4581 
Q 2678 4581 2919 4538 
Q 3256 4481 3484 4323 
Q 3713 4166 3852 3881 
Q 3991 3597 3991 3256 
Q 3991 2672 3619 2267 
Q 3247 1863 2275 1863 
L 1100 1863 
L 1100 0 
L 494 0 
z
M 1100 2403 
L 2284 2403 
Q 2872 2403 3119 2622 
Q 3366 2841 3366 3238 
Q 3366 3525 3220 3729 
Q 3075 3934 2838 4000 
Q 2684 4041 2272 4041 
L 1100 4041 
L 1100 2403 
z
" transform="scale(0.015625)"/>
      </defs>
      <use xlink:href="#ArialMT-54"/>
      <use xlink:href="#ArialMT-72" x="57.333984"/>
      <use xlink:href="#ArialMT-65" x="90.634766"/>
      <use xlink:href="#ArialMT-6e" x="146.25"/>
      <use xlink:href="#ArialMT-64" x="201.865234"/>
      <use xlink:href="#ArialMT-2d" x="257.480469"/>
      <use xlink:href="#ArialMT-42" x="290.78125"/>
      <use xlink:href="#ArialMT-41" x="357.480469"/>
      <use xlink:href="#ArialMT-50" x="424.179688"/>
     </g>
    </g>
    <g id="PathCollection_14">
     <g>
      <use xlink:href="#mb076705b1a" x="65.875313" y="37.645937" style="fill: #000004; stroke: #ffffff; stroke-width: 0.48"/>
     </g>
    </g>
    <g id="text_16">
     <!-- Trend-NPP -->
     <g style="fill: #262626" transform="translate(85.675313 40.533437) scale(0.11 -0.11)">
      <defs>
       <path id="ArialMT-4e" d="M 488 0 
L 488 4581 
L 1109 4581 
L 3516 984 
L 3516 4581 
L 4097 4581 
L 4097 0 
L 3475 0 
L 1069 3600 
L 1069 0 
L 488 0 
z
" transform="scale(0.015625)"/>
      </defs>
      <use xlink:href="#ArialMT-54"/>
      <use xlink:href="#ArialMT-72" x="57.333984"/>
      <use xlink:href="#ArialMT-65" x="90.634766"/>
      <use xlink:href="#ArialMT-6e" x="146.25"/>
      <use xlink:href="#ArialMT-64" x="201.865234"/>
      <use xlink:href="#ArialMT-2d" x="257.480469"/>
      <use xlink:href="#ArialMT-4e" x="290.78125"/>
      <use xlink:href="#ArialMT-50" x="362.998047"/>
      <use xlink:href="#ArialMT-50" x="429.697266"/>
     </g>
    </g>
    <g id="PathCollection_15">
     <g>
      <use xlink:href="#m4a678ace20" x="65.875313" y="53.362187" style="fill: #331067; stroke: #ffffff; stroke-width: 0.48"/>
     </g>
    </g>
    <g id="text_17">
     <!-- BAP ($\chi$=3) -->
     <g style="fill: #262626" transform="translate(85.675313 56.249687) scale(0.11 -0.11)">
      <defs>
       <path id="ArialMT-28" d="M 1497 -1347 
Q 1031 -759 709 28 
Q 388 816 388 1659 
Q 388 2403 628 3084 
Q 909 3875 1497 4659 
L 1900 4659 
Q 1522 4009 1400 3731 
Q 1209 3300 1100 2831 
Q 966 2247 966 1656 
Q 966 153 1900 -1347 
L 1497 -1347 
z
" transform="scale(0.015625)"/>
       <path id="DejaVuSans-Oblique-3c7" d="M 1922 -781 
L 1691 416 
L 394 -1334 
L -284 -1334 
L 1553 1141 
L 1269 2613 
Q 1194 3006 713 3006 
L 559 3006 
L 653 3500 
L 872 3494 
Q 1675 3472 1775 2950 
L 2006 1753 
L 3303 3503 
L 3981 3503 
L 2144 1028 
L 2428 -444 
Q 2503 -838 2984 -838 
L 3138 -838 
L 3044 -1331 
L 2825 -1325 
Q 2022 -1303 1922 -781 
z
" transform="scale(0.015625)"/>
       <path id="ArialMT-3d" d="M 3381 2694 
L 356 2694 
L 356 3219 
L 3381 3219 
L 3381 2694 
z
M 3381 1303 
L 356 1303 
L 356 1828 
L 3381 1828 
L 3381 1303 
z
" transform="scale(0.015625)"/>
       <path id="ArialMT-29" d="M 791 -1347 
L 388 -1347 
Q 1322 153 1322 1656 
Q 1322 2244 1188 2822 
Q 1081 3291 891 3722 
Q 769 4003 388 4659 
L 791 4659 
Q 1378 3875 1659 3084 
Q 1900 2403 1900 1659 
Q 1900 816 1576 28 
Q 1253 -759 791 -1347 
z
" transform="scale(0.015625)"/>
      </defs>
      <use xlink:href="#ArialMT-42" transform="translate(0 0.203125)"/>
      <use xlink:href="#ArialMT-41" transform="translate(66.699219 0.203125)"/>
      <use xlink:href="#ArialMT-50" transform="translate(133.398438 0.203125)"/>
      <use xlink:href="#ArialMT-20" transform="translate(200.097656 0.203125)"/>
      <use xlink:href="#ArialMT-28" transform="translate(227.880859 0.203125)"/>
      <use xlink:href="#DejaVuSans-Oblique-3c7" transform="translate(261.181641 0.203125)"/>
      <use xlink:href="#ArialMT-3d" transform="translate(320.361328 0.203125)"/>
      <use xlink:href="#ArialMT-33" transform="translate(378.759766 0.203125)"/>
      <use xlink:href="#ArialMT-29" transform="translate(434.375 0.203125)"/>
     </g>
    </g>
    <g id="PathCollection_16">
     <g>
      <use xlink:href="#me151d8e31e" x="65.875313" y="69.312187" style="fill: #331067; stroke: #ffffff; stroke-width: 0.48"/>
     </g>
    </g>
    <g id="text_18">
     <!-- NPP ($\chi$=3) -->
     <g style="fill: #262626" transform="translate(85.675313 72.199687) scale(0.11 -0.11)">
      <use xlink:href="#ArialMT-4e" transform="translate(0 0.203125)"/>
      <use xlink:href="#ArialMT-50" transform="translate(72.216797 0.203125)"/>
      <use xlink:href="#ArialMT-50" transform="translate(138.916016 0.203125)"/>
      <use xlink:href="#ArialMT-20" transform="translate(205.615234 0.203125)"/>
      <use xlink:href="#ArialMT-28" transform="translate(233.398438 0.203125)"/>
      <use xlink:href="#DejaVuSans-Oblique-3c7" transform="translate(266.699219 0.203125)"/>
      <use xlink:href="#ArialMT-3d" transform="translate(325.878906 0.203125)"/>
      <use xlink:href="#ArialMT-33" transform="translate(384.277344 0.203125)"/>
      <use xlink:href="#ArialMT-29" transform="translate(439.892578 0.203125)"/>
     </g>
    </g>
    <g id="PathCollection_17">
     <g>
      <use xlink:href="#mf83121f8ae" x="65.875313" y="85.262187" style="fill: #7c2382; stroke: #ffffff; stroke-width: 0.48"/>
     </g>
    </g>
    <g id="text_19">
     <!-- BAP ($\chi$=4) -->
     <g style="fill: #262626" transform="translate(85.675313 88.149687) scale(0.11 -0.11)">
      <use xlink:href="#ArialMT-42" transform="translate(0 0.203125)"/>
      <use xlink:href="#ArialMT-41" transform="translate(66.699219 0.203125)"/>
      <use xlink:href="#ArialMT-50" transform="translate(133.398438 0.203125)"/>
      <use xlink:href="#ArialMT-20" transform="translate(200.097656 0.203125)"/>
      <use xlink:href="#ArialMT-28" transform="translate(227.880859 0.203125)"/>
      <use xlink:href="#DejaVuSans-Oblique-3c7" transform="translate(261.181641 0.203125)"/>
      <use xlink:href="#ArialMT-3d" transform="translate(320.361328 0.203125)"/>
      <use xlink:href="#ArialMT-34" transform="translate(378.759766 0.203125)"/>
      <use xlink:href="#ArialMT-29" transform="translate(434.375 0.203125)"/>
     </g>
    </g>
    <g id="PathCollection_18">
     <g>
      <use xlink:href="#mb0e72d88df" x="65.875313" y="101.212187" style="fill: #7c2382; stroke: #ffffff; stroke-width: 0.48"/>
     </g>
    </g>
    <g id="text_20">
     <!-- NPP ($\chi$=4) -->
     <g style="fill: #262626" transform="translate(85.675313 104.099687) scale(0.11 -0.11)">
      <use xlink:href="#ArialMT-4e" transform="translate(0 0.203125)"/>
      <use xlink:href="#ArialMT-50" transform="translate(72.216797 0.203125)"/>
      <use xlink:href="#ArialMT-50" transform="translate(138.916016 0.203125)"/>
      <use xlink:href="#ArialMT-20" transform="translate(205.615234 0.203125)"/>
      <use xlink:href="#ArialMT-28" transform="translate(233.398438 0.203125)"/>
      <use xlink:href="#DejaVuSans-Oblique-3c7" transform="translate(266.699219 0.203125)"/>
      <use xlink:href="#ArialMT-3d" transform="translate(325.878906 0.203125)"/>
      <use xlink:href="#ArialMT-34" transform="translate(384.277344 0.203125)"/>
      <use xlink:href="#ArialMT-29" transform="translate(439.892578 0.203125)"/>
     </g>
    </g>
    <g id="PathCollection_19">
     <g>
      <use xlink:href="#m5c60869fd2" x="65.875313" y="117.162188" style="fill: #c73d73; stroke: #ffffff; stroke-width: 0.48"/>
     </g>
    </g>
    <g id="text_21">
     <!-- BAP ($\chi$=5) -->
     <g style="fill: #262626" transform="translate(85.675313 120.049688) scale(0.11 -0.11)">
      <defs>
       <path id="ArialMT-35" d="M 266 1200 
L 856 1250 
Q 922 819 1161 601 
Q 1400 384 1738 384 
Q 2144 384 2425 690 
Q 2706 997 2706 1503 
Q 2706 1984 2436 2262 
Q 2166 2541 1728 2541 
Q 1456 2541 1237 2417 
Q 1019 2294 894 2097 
L 366 2166 
L 809 4519 
L 3088 4519 
L 3088 3981 
L 1259 3981 
L 1013 2750 
Q 1425 3038 1878 3038 
Q 2478 3038 2890 2622 
Q 3303 2206 3303 1553 
Q 3303 931 2941 478 
Q 2500 -78 1738 -78 
Q 1113 -78 717 272 
Q 322 622 266 1200 
z
" transform="scale(0.015625)"/>
      </defs>
      <use xlink:href="#ArialMT-42" transform="translate(0 0.203125)"/>
      <use xlink:href="#ArialMT-41" transform="translate(66.699219 0.203125)"/>
      <use xlink:href="#ArialMT-50" transform="translate(133.398438 0.203125)"/>
      <use xlink:href="#ArialMT-20" transform="translate(200.097656 0.203125)"/>
      <use xlink:href="#ArialMT-28" transform="translate(227.880859 0.203125)"/>
      <use xlink:href="#DejaVuSans-Oblique-3c7" transform="translate(261.181641 0.203125)"/>
      <use xlink:href="#ArialMT-3d" transform="translate(320.361328 0.203125)"/>
      <use xlink:href="#ArialMT-35" transform="translate(378.759766 0.203125)"/>
      <use xlink:href="#ArialMT-29" transform="translate(434.375 0.203125)"/>
     </g>
    </g>
    <g id="PathCollection_20">
     <g>
      <use xlink:href="#m9a5903543e" x="65.875313" y="133.112188" style="fill: #c73d73; stroke: #ffffff; stroke-width: 0.48"/>
     </g>
    </g>
    <g id="text_22">
     <!-- NPP ($\chi$=5) -->
     <g style="fill: #262626" transform="translate(85.675313 135.999687) scale(0.11 -0.11)">
      <use xlink:href="#ArialMT-4e" transform="translate(0 0.203125)"/>
      <use xlink:href="#ArialMT-50" transform="translate(72.216797 0.203125)"/>
      <use xlink:href="#ArialMT-50" transform="translate(138.916016 0.203125)"/>
      <use xlink:href="#ArialMT-20" transform="translate(205.615234 0.203125)"/>
      <use xlink:href="#ArialMT-28" transform="translate(233.398438 0.203125)"/>
      <use xlink:href="#DejaVuSans-Oblique-3c7" transform="translate(266.699219 0.203125)"/>
      <use xlink:href="#ArialMT-3d" transform="translate(325.878906 0.203125)"/>
      <use xlink:href="#ArialMT-35" transform="translate(384.277344 0.203125)"/>
      <use xlink:href="#ArialMT-29" transform="translate(439.892578 0.203125)"/>
     </g>
    </g>
    <g id="PathCollection_21">
     <g>
      <use xlink:href="#m7699ed878c" x="65.875313" y="149.062187" style="fill: #f9795d; stroke: #ffffff; stroke-width: 0.48"/>
     </g>
    </g>
    <g id="text_23">
     <!-- BAP ($\chi$=6) -->
     <g style="fill: #262626" transform="translate(85.675313 151.949687) scale(0.11 -0.11)">
      <use xlink:href="#ArialMT-42" transform="translate(0 0.203125)"/>
      <use xlink:href="#ArialMT-41" transform="translate(66.699219 0.203125)"/>
      <use xlink:href="#ArialMT-50" transform="translate(133.398438 0.203125)"/>
      <use xlink:href="#ArialMT-20" transform="translate(200.097656 0.203125)"/>
      <use xlink:href="#ArialMT-28" transform="translate(227.880859 0.203125)"/>
      <use xlink:href="#DejaVuSans-Oblique-3c7" transform="translate(261.181641 0.203125)"/>
      <use xlink:href="#ArialMT-3d" transform="translate(320.361328 0.203125)"/>
      <use xlink:href="#ArialMT-36" transform="translate(378.759766 0.203125)"/>
      <use xlink:href="#ArialMT-29" transform="translate(434.375 0.203125)"/>
     </g>
    </g>
    <g id="PathCollection_22">
     <g>
      <use xlink:href="#md4c1b49000" x="65.875313" y="165.012187" style="fill: #f9795d; stroke: #ffffff; stroke-width: 0.48"/>
     </g>
    </g>
    <g id="text_24">
     <!-- NPP ($\chi$=6) -->
     <g style="fill: #262626" transform="translate(85.675313 167.899687) scale(0.11 -0.11)">
      <use xlink:href="#ArialMT-4e" transform="translate(0 0.203125)"/>
      <use xlink:href="#ArialMT-50" transform="translate(72.216797 0.203125)"/>
      <use xlink:href="#ArialMT-50" transform="translate(138.916016 0.203125)"/>
      <use xlink:href="#ArialMT-20" transform="translate(205.615234 0.203125)"/>
      <use xlink:href="#ArialMT-28" transform="translate(233.398438 0.203125)"/>
      <use xlink:href="#DejaVuSans-Oblique-3c7" transform="translate(266.699219 0.203125)"/>
      <use xlink:href="#ArialMT-3d" transform="translate(325.878906 0.203125)"/>
      <use xlink:href="#ArialMT-36" transform="translate(384.277344 0.203125)"/>
      <use xlink:href="#ArialMT-29" transform="translate(439.892578 0.203125)"/>
     </g>
    </g>
    <g id="PathCollection_23">
     <g>
      <use xlink:href="#m2c1ee02025" x="65.875313" y="180.962187" style="fill: #fecf92; stroke: #ffffff; stroke-width: 0.48"/>
     </g>
    </g>
    <g id="text_25">
     <!-- BAP ($\chi$=7) -->
     <g style="fill: #262626" transform="translate(85.675313 183.849687) scale(0.11 -0.11)">
      <defs>
       <path id="ArialMT-37" d="M 303 3981 
L 303 4522 
L 3269 4522 
L 3269 4084 
Q 2831 3619 2401 2847 
Q 1972 2075 1738 1259 
Q 1569 684 1522 0 
L 944 0 
Q 953 541 1156 1306 
Q 1359 2072 1739 2783 
Q 2119 3494 2547 3981 
L 303 3981 
z
" transform="scale(0.015625)"/>
      </defs>
      <use xlink:href="#ArialMT-42" transform="translate(0 0.203125)"/>
      <use xlink:href="#ArialMT-41" transform="translate(66.699219 0.203125)"/>
      <use xlink:href="#ArialMT-50" transform="translate(133.398438 0.203125)"/>
      <use xlink:href="#ArialMT-20" transform="translate(200.097656 0.203125)"/>
      <use xlink:href="#ArialMT-28" transform="translate(227.880859 0.203125)"/>
      <use xlink:href="#DejaVuSans-Oblique-3c7" transform="translate(261.181641 0.203125)"/>
      <use xlink:href="#ArialMT-3d" transform="translate(320.361328 0.203125)"/>
      <use xlink:href="#ArialMT-37" transform="translate(378.759766 0.203125)"/>
      <use xlink:href="#ArialMT-29" transform="translate(434.375 0.203125)"/>
     </g>
    </g>
    <g id="PathCollection_24">
     <g>
      <use xlink:href="#mcacf44b355" x="65.875313" y="196.912187" style="fill: #fecf92; stroke: #ffffff; stroke-width: 0.48"/>
     </g>
    </g>
    <g id="text_26">
     <!-- NPP ($\chi$=7) -->
     <g style="fill: #262626" transform="translate(85.675313 199.799687) scale(0.11 -0.11)">
      <use xlink:href="#ArialMT-4e" transform="translate(0 0.203125)"/>
      <use xlink:href="#ArialMT-50" transform="translate(72.216797 0.203125)"/>
      <use xlink:href="#ArialMT-50" transform="translate(138.916016 0.203125)"/>
      <use xlink:href="#ArialMT-20" transform="translate(205.615234 0.203125)"/>
      <use xlink:href="#ArialMT-28" transform="translate(233.398438 0.203125)"/>
      <use xlink:href="#DejaVuSans-Oblique-3c7" transform="translate(266.699219 0.203125)"/>
      <use xlink:href="#ArialMT-3d" transform="translate(325.878906 0.203125)"/>
      <use xlink:href="#ArialMT-37" transform="translate(384.277344 0.203125)"/>
      <use xlink:href="#ArialMT-29" transform="translate(439.892578 0.203125)"/>
     </g>
    </g>
   </g>
  </g>
 </g>
 <defs>
  <clipPath id="p5e95e29926">
   <rect x="44.975313" y="7.2" width="727.38" height="330.66"/>
  </clipPath>
 </defs>
</svg>
