<?xml version="1.0" encoding="utf-8" standalone="no"?>
<!DOCTYPE svg PUBLIC "-//W3C//DTD SVG 1.1//EN"
  "http://www.w3.org/Graphics/SVG/1.1/DTD/svg11.dtd">
<svg xmlns:xlink="http://www.w3.org/1999/xlink" width="875.02625pt" height="423.051875pt" viewBox="0 0 875.02625 423.051875" xmlns="http://www.w3.org/2000/svg" version="1.1">
 <metadata>
  <rdf:RDF xmlns:dc="http://purl.org/dc/elements/1.1/" xmlns:cc="http://creativecommons.org/ns#" xmlns:rdf="http://www.w3.org/1999/02/22-rdf-syntax-ns#">
   <cc:Work>
    <dc:type rdf:resource="http://purl.org/dc/dcmitype/StillImage"/>
    <dc:date>2024-07-30T13:16:14.092061</dc:date>
    <dc:format>image/svg+xml</dc:format>
    <dc:creator>
     <cc:Agent>
      <dc:title>Matplotlib v3.9.0, https://matplotlib.org/</dc:title>
     </cc:Agent>
    </dc:creator>
   </cc:Work>
  </rdf:RDF>
 </metadata>
 <defs>
  <style type="text/css">*{stroke-linejoin: round; stroke-linecap: butt}</style>
 </defs>
 <g id="figure_1">
  <g id="patch_1">
   <path d="M 0 423.051875 
L 875.02625 423.051875 
L 875.02625 0 
L 0 0 
z
" style="fill: #ffffff"/>
  </g>
  <g id="axes_1">
   <g id="patch_2">
    <path d="M 36.17625 383.56 
L 643.02625 383.56 
L 643.02625 7.2 
L 36.17625 7.2 
z
" style="fill: #ffffff"/>
   </g>
   <g id="PathCollection_1">
    <defs>
     <path id="me908a0e51f" d="M 0 5 
C 1.326016 5 2.597899 4.473168 3.535534 3.535534 
C 4.473168 2.597899 5 1.326016 5 0 
C 5 -1.326016 4.473168 -2.597899 3.535534 -3.535534 
C 2.597899 -4.473168 1.326016 -5 0 -5 
C -1.326016 -5 -2.597899 -4.473168 -3.535534 -3.535534 
C -4.473168 -2.597899 -5 -1.326016 -5 0 
C -5 1.326016 -4.473168 2.597899 -3.535534 3.535534 
C -2.597899 4.473168 -1.326016 5 0 5 
z
" style="stroke: #251255"/>
    </defs>
    <g clip-path="url(#p593df34301)">
     <use xlink:href="#me908a0e51f" x="120.16933" y="92.315022" style="fill: #251255; stroke: #251255"/>
    </g>
   </g>
   <g id="PathCollection_2">
    <defs>
     <path id="m07dfa78cda" d="M 0 5 
C 1.326016 5 2.597899 4.473168 3.535534 3.535534 
C 4.473168 2.597899 5 1.326016 5 0 
C 5 -1.326016 4.473168 -2.597899 3.535534 -3.535534 
C 2.597899 -4.473168 1.326016 -5 0 -5 
C -1.326016 -5 -2.597899 -4.473168 -3.535534 -3.535534 
C -4.473168 -2.597899 -5 -1.326016 -5 0 
C -5 1.326016 -4.473168 2.597899 -3.535534 3.535534 
C -2.597899 4.473168 -1.326016 5 0 5 
z
" style="stroke: #311165"/>
    </defs>
    <g clip-path="url(#p593df34301)">
     <use xlink:href="#m07dfa78cda" x="120.16933" y="85.985177" style="fill: #311165; stroke: #311165"/>
    </g>
   </g>
   <g id="PathCollection_3">
    <defs>
     <path id="mce89a9f9ac" d="M 0 5 
C 1.326016 5 2.597899 4.473168 3.535534 3.535534 
C 4.473168 2.597899 5 1.326016 5 0 
C 5 -1.326016 4.473168 -2.597899 3.535534 -3.535534 
C 2.597899 -4.473168 1.326016 -5 0 -5 
C -1.326016 -5 -2.597899 -4.473168 -3.535534 -3.535534 
C -4.473168 -2.597899 -5 -1.326016 -5 0 
C -5 1.326016 -4.473168 2.597899 -3.535534 3.535534 
C -2.597899 4.473168 -1.326016 5 0 5 
z
" style="stroke: #3d0f71"/>
    </defs>
    <g clip-path="url(#p593df34301)">
     <use xlink:href="#mce89a9f9ac" x="120.16933" y="63.515352" style="fill: #3d0f71; stroke: #3d0f71"/>
    </g>
   </g>
   <g id="PathCollection_4">
    <defs>
     <path id="mffb8223d67" d="M 0 5 
C 1.326016 5 2.597899 4.473168 3.535534 3.535534 
C 4.473168 2.597899 5 1.326016 5 0 
C 5 -1.326016 4.473168 -2.597899 3.535534 -3.535534 
C 2.597899 -4.473168 1.326016 -5 0 -5 
C -1.326016 -5 -2.597899 -4.473168 -3.535534 -3.535534 
C -4.473168 -2.597899 -5 -1.326016 -5 0 
C -5 1.326016 -4.473168 2.597899 -3.535534 3.535534 
C -2.597899 4.473168 -1.326016 5 0 5 
z
" style="stroke: #491078"/>
    </defs>
    <g clip-path="url(#p593df34301)">
     <use xlink:href="#mffb8223d67" x="120.16933" y="70.216878" style="fill: #491078; stroke: #491078"/>
    </g>
   </g>
   <g id="PathCollection_5">
    <defs>
     <path id="md755cd3179" d="M 0 5 
C 1.326016 5 2.597899 4.473168 3.535534 3.535534 
C 4.473168 2.597899 5 1.326016 5 0 
C 5 -1.326016 4.473168 -2.597899 3.535534 -3.535534 
C 2.597899 -4.473168 1.326016 -5 0 -5 
C -1.326016 -5 -2.597899 -4.473168 -3.535534 -3.535534 
C -4.473168 -2.597899 -5 -1.326016 -5 0 
C -5 1.326016 -4.473168 2.597899 -3.535534 3.535534 
C -2.597899 4.473168 -1.326016 5 0 5 
z
" style="stroke: #54137d"/>
    </defs>
    <g clip-path="url(#p593df34301)">
     <use xlink:href="#md755cd3179" x="120.16933" y="90.659351" style="fill: #54137d; stroke: #54137d"/>
    </g>
   </g>
   <g id="PathCollection_6">
    <defs>
     <path id="md1e026ac9e" d="M 0 5 
C 1.326016 5 2.597899 4.473168 3.535534 3.535534 
C 4.473168 2.597899 5 1.326016 5 0 
C 5 -1.326016 4.473168 -2.597899 3.535534 -3.535534 
C 2.597899 -4.473168 1.326016 -5 0 -5 
C -1.326016 -5 -2.597899 -4.473168 -3.535534 -3.535534 
C -4.473168 -2.597899 -5 -1.326016 -5 0 
C -5 1.326016 -4.473168 2.597899 -3.535534 3.535534 
C -2.597899 4.473168 -1.326016 5 0 5 
z
" style="stroke: #5f187f"/>
    </defs>
    <g clip-path="url(#p593df34301)">
     <use xlink:href="#md1e026ac9e" x="123.730636" y="256.939437" style="fill: #5f187f; stroke: #5f187f"/>
    </g>
   </g>
   <g id="PathCollection_7">
    <defs>
     <path id="mfed3fda1f3" d="M 0 5 
C 1.326016 5 2.597899 4.473168 3.535534 3.535534 
C 4.473168 2.597899 5 1.326016 5 0 
C 5 -1.326016 4.473168 -2.597899 3.535534 -3.535534 
C 2.597899 -4.473168 1.326016 -5 0 -5 
C -1.326016 -5 -2.597899 -4.473168 -3.535534 -3.535534 
C -4.473168 -2.597899 -5 -1.326016 -5 0 
C -5 1.326016 -4.473168 2.597899 -3.535534 3.535534 
C -2.597899 4.473168 -1.326016 5 0 5 
z
" style="stroke: #6a1c81"/>
    </defs>
    <g clip-path="url(#p593df34301)">
     <use xlink:href="#mfed3fda1f3" x="126.687193" y="267.410714" style="fill: #6a1c81; stroke: #6a1c81"/>
    </g>
   </g>
   <g id="PathCollection_8">
    <defs>
     <path id="m6e3a815c5c" d="M 0 5 
C 1.326016 5 2.597899 4.473168 3.535534 3.535534 
C 4.473168 2.597899 5 1.326016 5 0 
C 5 -1.326016 4.473168 -2.597899 3.535534 -3.535534 
C 2.597899 -4.473168 1.326016 -5 0 -5 
C -1.326016 -5 -2.597899 -4.473168 -3.535534 -3.535534 
C -4.473168 -2.597899 -5 -1.326016 -5 0 
C -5 1.326016 -4.473168 2.597899 -3.535534 3.535534 
C -2.597899 4.473168 -1.326016 5 0 5 
z
" style="stroke: #752181"/>
    </defs>
    <g clip-path="url(#p593df34301)">
     <use xlink:href="#m6e3a815c5c" x="128.854214" y="286.424466" style="fill: #752181; stroke: #752181"/>
    </g>
   </g>
   <g id="PathCollection_9">
    <defs>
     <path id="mf2a44c4eee" d="M 0 5 
C 1.326016 5 2.597899 4.473168 3.535534 3.535534 
C 4.473168 2.597899 5 1.326016 5 0 
C 5 -1.326016 4.473168 -2.597899 3.535534 -3.535534 
C 2.597899 -4.473168 1.326016 -5 0 -5 
C -1.326016 -5 -2.597899 -4.473168 -3.535534 -3.535534 
C -4.473168 -2.597899 -5 -1.326016 -5 0 
C -5 1.326016 -4.473168 2.597899 -3.535534 3.535534 
C -2.597899 4.473168 -1.326016 5 0 5 
z
" style="stroke: #802582"/>
    </defs>
    <g clip-path="url(#p593df34301)">
     <use xlink:href="#mf2a44c4eee" x="131.189222" y="288.108295" style="fill: #802582; stroke: #802582"/>
    </g>
   </g>
   <g id="PathCollection_10">
    <defs>
     <path id="meb4c472fbd" d="M 0 5 
C 1.326016 5 2.597899 4.473168 3.535534 3.535534 
C 4.473168 2.597899 5 1.326016 5 0 
C 5 -1.326016 4.473168 -2.597899 3.535534 -3.535534 
C 2.597899 -4.473168 1.326016 -5 0 -5 
C -1.326016 -5 -2.597899 -4.473168 -3.535534 -3.535534 
C -4.473168 -2.597899 -5 -1.326016 -5 0 
C -5 1.326016 -4.473168 2.597899 -3.535534 3.535534 
C -2.597899 4.473168 -1.326016 5 0 5 
z
" style="stroke: #8b2981"/>
    </defs>
    <g clip-path="url(#p593df34301)">
     <use xlink:href="#meb4c472fbd" x="134.061785" y="288.838705" style="fill: #8b2981; stroke: #8b2981"/>
    </g>
   </g>
   <g id="PathCollection_11">
    <defs>
     <path id="md32b3e0147" d="M 0 5 
C 1.326016 5 2.597899 4.473168 3.535534 3.535534 
C 4.473168 2.597899 5 1.326016 5 0 
C 5 -1.326016 4.473168 -2.597899 3.535534 -3.535534 
C 2.597899 -4.473168 1.326016 -5 0 -5 
C -1.326016 -5 -2.597899 -4.473168 -3.535534 -3.535534 
C -4.473168 -2.597899 -5 -1.326016 -5 0 
C -5 1.326016 -4.473168 2.597899 -3.535534 3.535534 
C -2.597899 4.473168 -1.326016 5 0 5 
z
" style="stroke: #982d80"/>
    </defs>
    <g clip-path="url(#p593df34301)">
     <use xlink:href="#md32b3e0147" x="127.191151" y="248.860437" style="fill: #982d80; stroke: #982d80"/>
    </g>
   </g>
   <g id="PathCollection_12">
    <defs>
     <path id="mc7610f61f9" d="M 0 5 
C 1.326016 5 2.597899 4.473168 3.535534 3.535534 
C 4.473168 2.597899 5 1.326016 5 0 
C 5 -1.326016 4.473168 -2.597899 3.535534 -3.535534 
C 2.597899 -4.473168 1.326016 -5 0 -5 
C -1.326016 -5 -2.597899 -4.473168 -3.535534 -3.535534 
C -4.473168 -2.597899 -5 -1.326016 -5 0 
C -5 1.326016 -4.473168 2.597899 -3.535534 3.535534 
C -2.597899 4.473168 -1.326016 5 0 5 
z
" style="stroke: #a3307e"/>
    </defs>
    <g clip-path="url(#p593df34301)">
     <use xlink:href="#mc7610f61f9" x="133.574625" y="274.174187" style="fill: #a3307e; stroke: #a3307e"/>
    </g>
   </g>
   <g id="PathCollection_13">
    <defs>
     <path id="me44f7508eb" d="M 0 5 
C 1.326016 5 2.597899 4.473168 3.535534 3.535534 
C 4.473168 2.597899 5 1.326016 5 0 
C 5 -1.326016 4.473168 -2.597899 3.535534 -3.535534 
C 2.597899 -4.473168 1.326016 -5 0 -5 
C -1.326016 -5 -2.597899 -4.473168 -3.535534 -3.535534 
C -4.473168 -2.597899 -5 -1.326016 -5 0 
C -5 1.326016 -4.473168 2.597899 -3.535534 3.535534 
C -2.597899 4.473168 -1.326016 5 0 5 
z
" style="stroke: #ae347b"/>
    </defs>
    <g clip-path="url(#p593df34301)">
     <use xlink:href="#me44f7508eb" x="137.707085" y="286.586091" style="fill: #ae347b; stroke: #ae347b"/>
    </g>
   </g>
   <g id="PathCollection_14">
    <defs>
     <path id="m1b951b41d4" d="M 0 5 
C 1.326016 5 2.597899 4.473168 3.535534 3.535534 
C 4.473168 2.597899 5 1.326016 5 0 
C 5 -1.326016 4.473168 -2.597899 3.535534 -3.535534 
C 2.597899 -4.473168 1.326016 -5 0 -5 
C -1.326016 -5 -2.597899 -4.473168 -3.535534 -3.535534 
C -4.473168 -2.597899 -5 -1.326016 -5 0 
C -5 1.326016 -4.473168 2.597899 -3.535534 3.535534 
C -2.597899 4.473168 -1.326016 5 0 5 
z
" style="stroke: #ba3878"/>
    </defs>
    <g clip-path="url(#p593df34301)">
     <use xlink:href="#m1b951b41d4" x="142.578683" y="290.193652" style="fill: #ba3878; stroke: #ba3878"/>
    </g>
   </g>
   <g id="PathCollection_15">
    <defs>
     <path id="m8d8bee33d2" d="M 0 5 
C 1.326016 5 2.597899 4.473168 3.535534 3.535534 
C 4.473168 2.597899 5 1.326016 5 0 
C 5 -1.326016 4.473168 -2.597899 3.535534 -3.535534 
C 2.597899 -4.473168 1.326016 -5 0 -5 
C -1.326016 -5 -2.597899 -4.473168 -3.535534 -3.535534 
C -4.473168 -2.597899 -5 -1.326016 -5 0 
C -5 1.326016 -4.473168 2.597899 -3.535534 3.535534 
C -2.597899 4.473168 -1.326016 5 0 5 
z
" style="stroke: #c53c74"/>
    </defs>
    <g clip-path="url(#p593df34301)">
     <use xlink:href="#m8d8bee33d2" x="147.920643" y="291.92197" style="fill: #c53c74; stroke: #c53c74"/>
    </g>
   </g>
   <g id="PathCollection_16">
    <defs>
     <path id="m87a52b4288" d="M 0 5 
C 1.326016 5 2.597899 4.473168 3.535534 3.535534 
C 4.473168 2.597899 5 1.326016 5 0 
C 5 -1.326016 4.473168 -2.597899 3.535534 -3.535534 
C 2.597899 -4.473168 1.326016 -5 0 -5 
C -1.326016 -5 -2.597899 -4.473168 -3.535534 -3.535534 
C -4.473168 -2.597899 -5 -1.326016 -5 0 
C -5 1.326016 -4.473168 2.597899 -3.535534 3.535534 
C -2.597899 4.473168 -1.326016 5 0 5 
z
" style="stroke: #d0416f"/>
    </defs>
    <g clip-path="url(#p593df34301)">
     <use xlink:href="#m87a52b4288" x="130.500478" y="258.501062" style="fill: #d0416f; stroke: #d0416f"/>
    </g>
   </g>
   <g id="PathCollection_17">
    <defs>
     <path id="m0c65c1be75" d="M 0 5 
C 1.326016 5 2.597899 4.473168 3.535534 3.535534 
C 4.473168 2.597899 5 1.326016 5 0 
C 5 -1.326016 4.473168 -2.597899 3.535534 -3.535534 
C 2.597899 -4.473168 1.326016 -5 0 -5 
C -1.326016 -5 -2.597899 -4.473168 -3.535534 -3.535534 
C -4.473168 -2.597899 -5 -1.326016 -5 0 
C -5 1.326016 -4.473168 2.597899 -3.535534 3.535534 
C -2.597899 4.473168 -1.326016 5 0 5 
z
" style="stroke: #db476a"/>
    </defs>
    <g clip-path="url(#p593df34301)">
     <use xlink:href="#m0c65c1be75" x="139.487738" y="272.428975" style="fill: #db476a; stroke: #db476a"/>
    </g>
   </g>
   <g id="PathCollection_18">
    <defs>
     <path id="m24bb4ad378" d="M 0 5 
C 1.326016 5 2.597899 4.473168 3.535534 3.535534 
C 4.473168 2.597899 5 1.326016 5 0 
C 5 -1.326016 4.473168 -2.597899 3.535534 -3.535534 
C 2.597899 -4.473168 1.326016 -5 0 -5 
C -1.326016 -5 -2.597899 -4.473168 -3.535534 -3.535534 
C -4.473168 -2.597899 -5 -1.326016 -5 0 
C -5 1.326016 -4.473168 2.597899 -3.535534 3.535534 
C -2.597899 4.473168 -1.326016 5 0 5 
z
" style="stroke: #e44f64"/>
    </defs>
    <g clip-path="url(#p593df34301)">
     <use xlink:href="#m24bb4ad378" x="146.425566" y="292.630418" style="fill: #e44f64; stroke: #e44f64"/>
    </g>
   </g>
   <g id="PathCollection_19">
    <defs>
     <path id="ma88624dc09" d="M 0 5 
C 1.326016 5 2.597899 4.473168 3.535534 3.535534 
C 4.473168 2.597899 5 1.326016 5 0 
C 5 -1.326016 4.473168 -2.597899 3.535534 -3.535534 
C 2.597899 -4.473168 1.326016 -5 0 -5 
C -1.326016 -5 -2.597899 -4.473168 -3.535534 -3.535534 
C -4.473168 -2.597899 -5 -1.326016 -5 0 
C -5 1.326016 -4.473168 2.597899 -3.535534 3.535534 
C -2.597899 4.473168 -1.326016 5 0 5 
z
" style="stroke: #ec5860"/>
    </defs>
    <g clip-path="url(#p593df34301)">
     <use xlink:href="#ma88624dc09" x="152.489867" y="297.447633" style="fill: #ec5860; stroke: #ec5860"/>
    </g>
   </g>
   <g id="PathCollection_20">
    <defs>
     <path id="mf7d540990b" d="M 0 5 
C 1.326016 5 2.597899 4.473168 3.535534 3.535534 
C 4.473168 2.597899 5 1.326016 5 0 
C 5 -1.326016 4.473168 -2.597899 3.535534 -3.535534 
C 2.597899 -4.473168 1.326016 -5 0 -5 
C -1.326016 -5 -2.597899 -4.473168 -3.535534 -3.535534 
C -4.473168 -2.597899 -5 -1.326016 -5 0 
C -5 1.326016 -4.473168 2.597899 -3.535534 3.535534 
C -2.597899 4.473168 -1.326016 5 0 5 
z
" style="stroke: #f2645c"/>
    </defs>
    <g clip-path="url(#p593df34301)">
     <use xlink:href="#mf7d540990b" x="159.84766" y="299.014326" style="fill: #f2645c; stroke: #f2645c"/>
    </g>
   </g>
   <g id="PathCollection_21">
    <defs>
     <path id="m555cb307da" d="M 0 5 
C 1.326016 5 2.597899 4.473168 3.535534 3.535534 
C 4.473168 2.597899 5 1.326016 5 0 
C 5 -1.326016 4.473168 -2.597899 3.535534 -3.535534 
C 2.597899 -4.473168 1.326016 -5 0 -5 
C -1.326016 -5 -2.597899 -4.473168 -3.535534 -3.535534 
C -4.473168 -2.597899 -5 -1.326016 -5 0 
C -5 1.326016 -4.473168 2.597899 -3.535534 3.535534 
C -2.597899 4.473168 -1.326016 5 0 5 
z
" style="stroke: #f7705c"/>
    </defs>
    <g clip-path="url(#p593df34301)">
     <use xlink:href="#m555cb307da" x="133.608222" y="254.670492" style="fill: #f7705c; stroke: #f7705c"/>
    </g>
   </g>
   <g id="PathCollection_22">
    <defs>
     <path id="m76e10ec97d" d="M 0 5 
C 1.326016 5 2.597899 4.473168 3.535534 3.535534 
C 4.473168 2.597899 5 1.326016 5 0 
C 5 -1.326016 4.473168 -2.597899 3.535534 -3.535534 
C 2.597899 -4.473168 1.326016 -5 0 -5 
C -1.326016 -5 -2.597899 -4.473168 -3.535534 -3.535534 
C -4.473168 -2.597899 -5 -1.326016 -5 0 
C -5 1.326016 -4.473168 2.597899 -3.535534 3.535534 
C -2.597899 4.473168 -1.326016 5 0 5 
z
" style="stroke: #fa7d5e"/>
    </defs>
    <g clip-path="url(#p593df34301)">
     <use xlink:href="#m76e10ec97d" x="145.434448" y="282.042005" style="fill: #fa7d5e; stroke: #fa7d5e"/>
    </g>
   </g>
   <g id="PathCollection_23">
    <defs>
     <path id="mae9bd0edea" d="M 0 5 
C 1.326016 5 2.597899 4.473168 3.535534 3.535534 
C 4.473168 2.597899 5 1.326016 5 0 
C 5 -1.326016 4.473168 -2.597899 3.535534 -3.535534 
C 2.597899 -4.473168 1.326016 -5 0 -5 
C -1.326016 -5 -2.597899 -4.473168 -3.535534 -3.535534 
C -4.473168 -2.597899 -5 -1.326016 -5 0 
C -5 1.326016 -4.473168 2.597899 -3.535534 3.535534 
C -2.597899 4.473168 -1.326016 5 0 5 
z
" style="stroke: #fc8a62"/>
    </defs>
    <g clip-path="url(#p593df34301)">
     <use xlink:href="#mae9bd0edea" x="153.396992" y="300.16879" style="fill: #fc8a62; stroke: #fc8a62"/>
    </g>
   </g>
   <g id="PathCollection_24">
    <defs>
     <path id="mffe6e0891d" d="M 0 5 
C 1.326016 5 2.597899 4.473168 3.535534 3.535534 
C 4.473168 2.597899 5 1.326016 5 0 
C 5 -1.326016 4.473168 -2.597899 3.535534 -3.535534 
C 2.597899 -4.473168 1.326016 -5 0 -5 
C -1.326016 -5 -2.597899 -4.473168 -3.535534 -3.535534 
C -4.473168 -2.597899 -5 -1.326016 -5 0 
C -5 1.326016 -4.473168 2.597899 -3.535534 3.535534 
C -2.597899 4.473168 -1.326016 5 0 5 
z
" style="stroke: #fd9869"/>
    </defs>
    <g clip-path="url(#p593df34301)">
     <use xlink:href="#mffe6e0891d" x="161.090758" y="302.527277" style="fill: #fd9869; stroke: #fd9869"/>
    </g>
   </g>
   <g id="PathCollection_25">
    <defs>
     <path id="m1c034ef609" d="M 0 5 
C 1.326016 5 2.597899 4.473168 3.535534 3.535534 
C 4.473168 2.597899 5 1.326016 5 0 
C 5 -1.326016 4.473168 -2.597899 3.535534 -3.535534 
C 2.597899 -4.473168 1.326016 -5 0 -5 
C -1.326016 -5 -2.597899 -4.473168 -3.535534 -3.535534 
C -4.473168 -2.597899 -5 -1.326016 -5 0 
C -5 1.326016 -4.473168 2.597899 -3.535534 3.535534 
C -2.597899 4.473168 -1.326016 5 0 5 
z
" style="stroke: #fea571"/>
    </defs>
    <g clip-path="url(#p593df34301)">
     <use xlink:href="#m1c034ef609" x="168.918913" y="308.560341" style="fill: #fea571; stroke: #fea571"/>
    </g>
   </g>
   <g id="PathCollection_26">
    <defs>
     <path id="ma02adddc58" d="M 0 5 
C 1.326016 5 2.597899 4.473168 3.535534 3.535534 
C 4.473168 2.597899 5 1.326016 5 0 
C 5 -1.326016 4.473168 -2.597899 3.535534 -3.535534 
C 2.597899 -4.473168 1.326016 -5 0 -5 
C -1.326016 -5 -2.597899 -4.473168 -3.535534 -3.535534 
C -4.473168 -2.597899 -5 -1.326016 -5 0 
C -5 1.326016 -4.473168 2.597899 -3.535534 3.535534 
C -2.597899 4.473168 -1.326016 5 0 5 
z
" style="stroke: #feb27a"/>
    </defs>
    <g clip-path="url(#p593df34301)">
     <use xlink:href="#ma02adddc58" x="136.715966" y="259.610474" style="fill: #feb27a; stroke: #feb27a"/>
    </g>
   </g>
   <g id="PathCollection_27">
    <defs>
     <path id="m6ce4c319dc" d="M 0 5 
C 1.326016 5 2.597899 4.473168 3.535534 3.535534 
C 4.473168 2.597899 5 1.326016 5 0 
C 5 -1.326016 4.473168 -2.597899 3.535534 -3.535534 
C 2.597899 -4.473168 1.326016 -5 0 -5 
C -1.326016 -5 -2.597899 -4.473168 -3.535534 -3.535534 
C -4.473168 -2.597899 -5 -1.326016 -5 0 
C -5 1.326016 -4.473168 2.597899 -3.535534 3.535534 
C -2.597899 4.473168 -1.326016 5 0 5 
z
" style="stroke: #fec185"/>
    </defs>
    <g clip-path="url(#p593df34301)">
     <use xlink:href="#m6ce4c319dc" x="150.406838" y="285.632672" style="fill: #fec185; stroke: #fec185"/>
    </g>
   </g>
   <g id="PathCollection_28">
    <defs>
     <path id="md6c198293f" d="M 0 5 
C 1.326016 5 2.597899 4.473168 3.535534 3.535534 
C 4.473168 2.597899 5 1.326016 5 0 
C 5 -1.326016 4.473168 -2.597899 3.535534 -3.535534 
C 2.597899 -4.473168 1.326016 -5 0 -5 
C -1.326016 -5 -2.597899 -4.473168 -3.535534 -3.535534 
C -4.473168 -2.597899 -5 -1.326016 -5 0 
C -5 1.326016 -4.473168 2.597899 -3.535534 3.535534 
C -2.597899 4.473168 -1.326016 5 0 5 
z
" style="stroke: #fecd90"/>
    </defs>
    <g clip-path="url(#p593df34301)">
     <use xlink:href="#md6c198293f" x="159.058125" y="309.602738" style="fill: #fecd90; stroke: #fecd90"/>
    </g>
   </g>
   <g id="PathCollection_29">
    <defs>
     <path id="m865b93a994" d="M 0 5 
C 1.326016 5 2.597899 4.473168 3.535534 3.535534 
C 4.473168 2.597899 5 1.326016 5 0 
C 5 -1.326016 4.473168 -2.597899 3.535534 -3.535534 
C 2.597899 -4.473168 1.326016 -5 0 -5 
C -1.326016 -5 -2.597899 -4.473168 -3.535534 -3.535534 
C -4.473168 -2.597899 -5 -1.326016 -5 0 
C -5 1.326016 -4.473168 2.597899 -3.535534 3.535534 
C -2.597899 4.473168 -1.326016 5 0 5 
z
" style="stroke: #fdda9c"/>
    </defs>
    <g clip-path="url(#p593df34301)">
     <use xlink:href="#m865b93a994" x="167.541426" y="317.531377" style="fill: #fdda9c; stroke: #fdda9c"/>
    </g>
   </g>
   <g id="PathCollection_30">
    <defs>
     <path id="mc8766703e3" d="M 0 5 
C 1.326016 5 2.597899 4.473168 3.535534 3.535534 
C 4.473168 2.597899 5 1.326016 5 0 
C 5 -1.326016 4.473168 -2.597899 3.535534 -3.535534 
C 2.597899 -4.473168 1.326016 -5 0 -5 
C -1.326016 -5 -2.597899 -4.473168 -3.535534 -3.535534 
C -4.473168 -2.597899 -5 -1.326016 -5 0 
C -5 1.326016 -4.473168 2.597899 -3.535534 3.535534 
C -2.597899 4.473168 -1.326016 5 0 5 
z
" style="stroke: #fde7a9"/>
    </defs>
    <g clip-path="url(#p593df34301)">
     <use xlink:href="#mc8766703e3" x="176.528686" y="327.244648" style="fill: #fde7a9; stroke: #fde7a9"/>
    </g>
   </g>
   <g id="PathCollection_31">
    <defs>
     <path id="m99c9679790" d="M -5 5 
L 5 5 
L 5 -5 
L -5 -5 
z
" style="stroke: #251255; stroke-opacity: 0.8"/>
    </defs>
    <g clip-path="url(#p593df34301)">
     <use xlink:href="#m99c9679790" x="120.16933" y="79.002073" style="fill: #251255; fill-opacity: 0.8; stroke: #251255; stroke-opacity: 0.8"/>
    </g>
   </g>
   <g id="PathCollection_32">
    <defs>
     <path id="m909fd4d252" d="M -5 5 
L 5 5 
L 5 -5 
L -5 -5 
z
" style="stroke: #311165; stroke-opacity: 0.8"/>
    </defs>
    <g clip-path="url(#p593df34301)">
     <use xlink:href="#m909fd4d252" x="120.16933" y="79.002073" style="fill: #311165; fill-opacity: 0.8; stroke: #311165; stroke-opacity: 0.8"/>
    </g>
   </g>
   <g id="PathCollection_33">
    <defs>
     <path id="med416c33e5" d="M -5 5 
L 5 5 
L 5 -5 
L -5 -5 
z
" style="stroke: #3d0f71; stroke-opacity: 0.8"/>
    </defs>
    <g clip-path="url(#p593df34301)">
     <use xlink:href="#med416c33e5" x="120.16933" y="79.002073" style="fill: #3d0f71; fill-opacity: 0.8; stroke: #3d0f71; stroke-opacity: 0.8"/>
    </g>
   </g>
   <g id="PathCollection_34">
    <defs>
     <path id="ma4ec0307b8" d="M -5 5 
L 5 5 
L 5 -5 
L -5 -5 
z
" style="stroke: #491078; stroke-opacity: 0.8"/>
    </defs>
    <g clip-path="url(#p593df34301)">
     <use xlink:href="#ma4ec0307b8" x="120.16933" y="79.002073" style="fill: #491078; fill-opacity: 0.8; stroke: #491078; stroke-opacity: 0.8"/>
    </g>
   </g>
   <g id="PathCollection_35">
    <defs>
     <path id="m451ca86db2" d="M -5 5 
L 5 5 
L 5 -5 
L -5 -5 
z
" style="stroke: #54137d; stroke-opacity: 0.8"/>
    </defs>
    <g clip-path="url(#p593df34301)">
     <use xlink:href="#m451ca86db2" x="120.16933" y="79.002073" style="fill: #54137d; fill-opacity: 0.8; stroke: #54137d; stroke-opacity: 0.8"/>
    </g>
   </g>
   <g id="PathCollection_36">
    <defs>
     <path id="m7c8c37f859" d="M -5 5 
L 5 5 
L 5 -5 
L -5 -5 
z
" style="stroke: #5f187f; stroke-opacity: 0.8"/>
    </defs>
    <g clip-path="url(#p593df34301)">
     <use xlink:href="#m7c8c37f859" x="170.733163" y="79.002073" style="fill: #5f187f; fill-opacity: 0.8; stroke: #5f187f; stroke-opacity: 0.8"/>
    </g>
   </g>
   <g id="PathCollection_37">
    <defs>
     <path id="m2337424d2f" d="M -5 5 
L 5 5 
L 5 -5 
L -5 -5 
z
" style="stroke: #6a1c81; stroke-opacity: 0.8"/>
    </defs>
    <g clip-path="url(#p593df34301)">
     <use xlink:href="#m2337424d2f" x="195.007163" y="79.002073" style="fill: #6a1c81; fill-opacity: 0.8; stroke: #6a1c81; stroke-opacity: 0.8"/>
    </g>
   </g>
   <g id="PathCollection_38">
    <defs>
     <path id="m4099066bfa" d="M -5 5 
L 5 5 
L 5 -5 
L -5 -5 
z
" style="stroke: #752181; stroke-opacity: 0.8"/>
    </defs>
    <g clip-path="url(#p593df34301)">
     <use xlink:href="#m4099066bfa" x="201.474631" y="79.002073" style="fill: #752181; fill-opacity: 0.8; stroke: #752181; stroke-opacity: 0.8"/>
    </g>
   </g>
   <g id="PathCollection_39">
    <defs>
     <path id="m7da962122f" d="M -5 5 
L 5 5 
L 5 -5 
L -5 -5 
z
" style="stroke: #802582; stroke-opacity: 0.8"/>
    </defs>
    <g clip-path="url(#p593df34301)">
     <use xlink:href="#m7da962122f" x="205.674285" y="79.002073" style="fill: #802582; fill-opacity: 0.8; stroke: #802582; stroke-opacity: 0.8"/>
    </g>
   </g>
   <g id="PathCollection_40">
    <defs>
     <path id="m72967abab1" d="M -5 5 
L 5 5 
L 5 -5 
L -5 -5 
z
" style="stroke: #8b2981; stroke-opacity: 0.8"/>
    </defs>
    <g clip-path="url(#p593df34301)">
     <use xlink:href="#m72967abab1" x="207.942098" y="79.002073" style="fill: #8b2981; fill-opacity: 0.8; stroke: #8b2981; stroke-opacity: 0.8"/>
    </g>
   </g>
   <g id="PathCollection_41">
    <defs>
     <path id="m2df1e942bb" d="M -5 5 
L 5 5 
L 5 -5 
L -5 -5 
z
" style="stroke: #982d80; stroke-opacity: 0.8"/>
    </defs>
    <g clip-path="url(#p593df34301)">
     <use xlink:href="#m2df1e942bb" x="221.38099" y="79.002073" style="fill: #982d80; fill-opacity: 0.8; stroke: #982d80; stroke-opacity: 0.8"/>
    </g>
   </g>
   <g id="PathCollection_42">
    <defs>
     <path id="mcd0be6c583" d="M -5 5 
L 5 5 
L 5 -5 
L -5 -5 
z
" style="stroke: #a3307e; stroke-opacity: 0.8"/>
    </defs>
    <g clip-path="url(#p593df34301)">
     <use xlink:href="#mcd0be6c583" x="270.684928" y="79.002073" style="fill: #a3307e; fill-opacity: 0.8; stroke: #a3307e; stroke-opacity: 0.8"/>
    </g>
   </g>
   <g id="PathCollection_43">
    <defs>
     <path id="m9131569b70" d="M -5 5 
L 5 5 
L 5 -5 
L -5 -5 
z
" style="stroke: #ae347b; stroke-opacity: 0.8"/>
    </defs>
    <g clip-path="url(#p593df34301)">
     <use xlink:href="#m9131569b70" x="282.863925" y="79.002073" style="fill: #ae347b; fill-opacity: 0.8; stroke: #ae347b; stroke-opacity: 0.8"/>
    </g>
   </g>
   <g id="PathCollection_44">
    <defs>
     <path id="me318c70fa3" d="M -5 5 
L 5 5 
L 5 -5 
L -5 -5 
z
" style="stroke: #ba3878; stroke-opacity: 0.8"/>
    </defs>
    <g clip-path="url(#p593df34301)">
     <use xlink:href="#me318c70fa3" x="291.263233" y="79.002073" style="fill: #ba3878; fill-opacity: 0.8; stroke: #ba3878; stroke-opacity: 0.8"/>
    </g>
   </g>
   <g id="PathCollection_45">
    <defs>
     <path id="m7bdd172d02" d="M -5 5 
L 5 5 
L 5 -5 
L -5 -5 
z
" style="stroke: #c53c74; stroke-opacity: 0.8"/>
    </defs>
    <g clip-path="url(#p593df34301)">
     <use xlink:href="#m7bdd172d02" x="295.714866" y="79.002073" style="fill: #c53c74; fill-opacity: 0.8; stroke: #c53c74; stroke-opacity: 0.8"/>
    </g>
   </g>
   <g id="PathCollection_46">
    <defs>
     <path id="md62963f734" d="M -5 5 
L 5 5 
L 5 -5 
L -5 -5 
z
" style="stroke: #d0416f; stroke-opacity: 0.8"/>
    </defs>
    <g clip-path="url(#p593df34301)">
     <use xlink:href="#md62963f734" x="271.944824" y="79.002073" style="fill: #d0416f; fill-opacity: 0.8; stroke: #d0416f; stroke-opacity: 0.8"/>
    </g>
   </g>
   <g id="PathCollection_47">
    <defs>
     <path id="m7a8e263a53" d="M -5 5 
L 5 5 
L 5 -5 
L -5 -5 
z
" style="stroke: #db476a; stroke-opacity: 0.8"/>
    </defs>
    <g clip-path="url(#p593df34301)">
     <use xlink:href="#m7a8e263a53" x="345.942728" y="79.002073" style="fill: #db476a; fill-opacity: 0.8; stroke: #db476a; stroke-opacity: 0.8"/>
    </g>
   </g>
   <g id="PathCollection_48">
    <defs>
     <path id="me435b073d9" d="M -5 5 
L 5 5 
L 5 -5 
L -5 -5 
z
" style="stroke: #e44f64; stroke-opacity: 0.8"/>
    </defs>
    <g clip-path="url(#p593df34301)">
     <use xlink:href="#me435b073d9" x="364.169226" y="79.002073" style="fill: #e44f64; fill-opacity: 0.8; stroke: #e44f64; stroke-opacity: 0.8"/>
    </g>
   </g>
   <g id="PathCollection_49">
    <defs>
     <path id="m96e4332b4c" d="M -5 5 
L 5 5 
L 5 -5 
L -5 -5 
z
" style="stroke: #ec5860; stroke-opacity: 0.8"/>
    </defs>
    <g clip-path="url(#p593df34301)">
     <use xlink:href="#m96e4332b4c" x="376.768188" y="79.002073" style="fill: #ec5860; fill-opacity: 0.8; stroke: #ec5860; stroke-opacity: 0.8"/>
    </g>
   </g>
   <g id="PathCollection_50">
    <defs>
     <path id="m99aa60a6cd" d="M -5 5 
L 5 5 
L 5 -5 
L -5 -5 
z
" style="stroke: #f2645c; stroke-opacity: 0.8"/>
    </defs>
    <g clip-path="url(#p593df34301)">
     <use xlink:href="#m99aa60a6cd" x="383.487634" y="79.002073" style="fill: #f2645c; fill-opacity: 0.8; stroke: #f2645c; stroke-opacity: 0.8"/>
    </g>
   </g>
   <g id="PathCollection_51">
    <defs>
     <path id="me759406c97" d="M -5 5 
L 5 5 
L 5 -5 
L -5 -5 
z
" style="stroke: #f7705c; stroke-opacity: 0.8"/>
    </defs>
    <g clip-path="url(#p593df34301)">
     <use xlink:href="#me759406c97" x="322.508658" y="79.002073" style="fill: #f7705c; fill-opacity: 0.8; stroke: #f7705c; stroke-opacity: 0.8"/>
    </g>
   </g>
   <g id="PathCollection_52">
    <defs>
     <path id="m3f7e0c2513" d="M -5 5 
L 5 5 
L 5 -5 
L -5 -5 
z
" style="stroke: #fa7d5e; stroke-opacity: 0.8"/>
    </defs>
    <g clip-path="url(#p593df34301)">
     <use xlink:href="#m3f7e0c2513" x="421.200527" y="79.002073" style="fill: #fa7d5e; fill-opacity: 0.8; stroke: #fa7d5e; stroke-opacity: 0.8"/>
    </g>
   </g>
   <g id="PathCollection_53">
    <defs>
     <path id="mf7ed842bc4" d="M -5 5 
L 5 5 
L 5 -5 
L -5 -5 
z
" style="stroke: #fc8a62; stroke-opacity: 0.8"/>
    </defs>
    <g clip-path="url(#p593df34301)">
     <use xlink:href="#mf7ed842bc4" x="445.55852" y="79.002073" style="fill: #fc8a62; fill-opacity: 0.8; stroke: #fc8a62; stroke-opacity: 0.8"/>
    </g>
   </g>
   <g id="PathCollection_54">
    <defs>
     <path id="m694bb90814" d="M -5 5 
L 5 5 
L 5 -5 
L -5 -5 
z
" style="stroke: #fd9869; stroke-opacity: 0.8"/>
    </defs>
    <g clip-path="url(#p593df34301)">
     <use xlink:href="#m694bb90814" x="462.273143" y="79.002073" style="fill: #fd9869; fill-opacity: 0.8; stroke: #fd9869; stroke-opacity: 0.8"/>
    </g>
   </g>
   <g id="PathCollection_55">
    <defs>
     <path id="md7cc83e8a8" d="M -5 5 
L 5 5 
L 5 -5 
L -5 -5 
z
" style="stroke: #fea571; stroke-opacity: 0.8"/>
    </defs>
    <g clip-path="url(#p593df34301)">
     <use xlink:href="#md7cc83e8a8" x="471.260402" y="79.002073" style="fill: #fea571; fill-opacity: 0.8; stroke: #fea571; stroke-opacity: 0.8"/>
    </g>
   </g>
   <g id="PathCollection_56">
    <defs>
     <path id="mfb8448a099" d="M -5 5 
L 5 5 
L 5 -5 
L -5 -5 
z
" style="stroke: #feb27a; stroke-opacity: 0.8"/>
    </defs>
    <g clip-path="url(#p593df34301)">
     <use xlink:href="#mfb8448a099" x="373.072492" y="79.002073" style="fill: #feb27a; fill-opacity: 0.8; stroke: #feb27a; stroke-opacity: 0.8"/>
    </g>
   </g>
   <g id="PathCollection_57">
    <defs>
     <path id="md1efc31f89" d="M -5 5 
L 5 5 
L 5 -5 
L -5 -5 
z
" style="stroke: #fec185; stroke-opacity: 0.8"/>
    </defs>
    <g clip-path="url(#p593df34301)">
     <use xlink:href="#md1efc31f89" x="496.458326" y="79.002073" style="fill: #fec185; fill-opacity: 0.8; stroke: #fec185; stroke-opacity: 0.8"/>
    </g>
   </g>
   <g id="PathCollection_58">
    <defs>
     <path id="m41e0ffeb0d" d="M -5 5 
L 5 5 
L 5 -5 
L -5 -5 
z
" style="stroke: #fecd90; stroke-opacity: 0.8"/>
    </defs>
    <g clip-path="url(#p593df34301)">
     <use xlink:href="#m41e0ffeb0d" x="526.863821" y="79.002073" style="fill: #fecd90; fill-opacity: 0.8; stroke: #fecd90; stroke-opacity: 0.8"/>
    </g>
   </g>
   <g id="PathCollection_59">
    <defs>
     <path id="me49dbb952d" d="M -5 5 
L 5 5 
L 5 -5 
L -5 -5 
z
" style="stroke: #fdda9c; stroke-opacity: 0.8"/>
    </defs>
    <g clip-path="url(#p593df34301)">
     <use xlink:href="#me49dbb952d" x="547.778098" y="79.002073" style="fill: #fdda9c; fill-opacity: 0.8; stroke: #fdda9c; stroke-opacity: 0.8"/>
    </g>
   </g>
   <g id="PathCollection_60">
    <defs>
     <path id="m4dbe817603" d="M -5 5 
L 5 5 
L 5 -5 
L -5 -5 
z
" style="stroke: #fde7a9; stroke-opacity: 0.8"/>
    </defs>
    <g clip-path="url(#p593df34301)">
     <use xlink:href="#m4dbe817603" x="559.03317" y="79.002073" style="fill: #fde7a9; fill-opacity: 0.8; stroke: #fde7a9; stroke-opacity: 0.8"/>
    </g>
   </g>
   <g id="matplotlib.axis_1">
    <g id="xtick_1">
     <g id="line2d_1">
      <path d="M 39.535973 383.56 
L 39.535973 7.2 
" clip-path="url(#p593df34301)" style="fill: none; stroke: #b0b0b0; stroke-width: 0.8; stroke-linecap: square"/>
     </g>
     <g id="line2d_2">
      <defs>
       <path id="m4512c8d840" d="M 0 0 
L 0 3.5 
" style="stroke: #000000; stroke-width: 0.8"/>
      </defs>
      <g>
       <use xlink:href="#m4512c8d840" x="39.535973" y="383.56" style="stroke: #000000; stroke-width: 0.8"/>
      </g>
     </g>
     <g id="text_1">
      <!-- 8 -->
      <g transform="translate(36.354723 398.158438) scale(0.1 -0.1)">
       <defs>
        <path id="DejaVuSans-38" d="M 2034 2216 
Q 1584 2216 1326 1975 
Q 1069 1734 1069 1313 
Q 1069 891 1326 650 
Q 1584 409 2034 409 
Q 2484 409 2743 651 
Q 3003 894 3003 1313 
Q 3003 1734 2745 1975 
Q 2488 2216 2034 2216 
z
M 1403 2484 
Q 997 2584 770 2862 
Q 544 3141 544 3541 
Q 544 4100 942 4425 
Q 1341 4750 2034 4750 
Q 2731 4750 3128 4425 
Q 3525 4100 3525 3541 
Q 3525 3141 3298 2862 
Q 3072 2584 2669 2484 
Q 3125 2378 3379 2068 
Q 3634 1759 3634 1313 
Q 3634 634 3220 271 
Q 2806 -91 2034 -91 
Q 1263 -91 848 271 
Q 434 634 434 1313 
Q 434 1759 690 2068 
Q 947 2378 1403 2484 
z
M 1172 3481 
Q 1172 3119 1398 2916 
Q 1625 2713 2034 2713 
Q 2441 2713 2670 2916 
Q 2900 3119 2900 3481 
Q 2900 3844 2670 4047 
Q 2441 4250 2034 4250 
Q 1625 4250 1398 4047 
Q 1172 3844 1172 3481 
z
" transform="scale(0.015625)"/>
       </defs>
       <use xlink:href="#DejaVuSans-38"/>
      </g>
     </g>
    </g>
    <g id="xtick_2">
     <g id="line2d_3">
      <path d="M 123.529053 383.56 
L 123.529053 7.2 
" clip-path="url(#p593df34301)" style="fill: none; stroke: #b0b0b0; stroke-width: 0.8; stroke-linecap: square"/>
     </g>
     <g id="line2d_4">
      <g>
       <use xlink:href="#m4512c8d840" x="123.529053" y="383.56" style="stroke: #000000; stroke-width: 0.8"/>
      </g>
     </g>
     <g id="text_2">
      <!-- 9 -->
      <g transform="translate(120.347803 398.158438) scale(0.1 -0.1)">
       <defs>
        <path id="DejaVuSans-39" d="M 703 97 
L 703 672 
Q 941 559 1184 500 
Q 1428 441 1663 441 
Q 2288 441 2617 861 
Q 2947 1281 2994 2138 
Q 2813 1869 2534 1725 
Q 2256 1581 1919 1581 
Q 1219 1581 811 2004 
Q 403 2428 403 3163 
Q 403 3881 828 4315 
Q 1253 4750 1959 4750 
Q 2769 4750 3195 4129 
Q 3622 3509 3622 2328 
Q 3622 1225 3098 567 
Q 2575 -91 1691 -91 
Q 1453 -91 1209 -44 
Q 966 3 703 97 
z
M 1959 2075 
Q 2384 2075 2632 2365 
Q 2881 2656 2881 3163 
Q 2881 3666 2632 3958 
Q 2384 4250 1959 4250 
Q 1534 4250 1286 3958 
Q 1038 3666 1038 3163 
Q 1038 2656 1286 2365 
Q 1534 2075 1959 2075 
z
" transform="scale(0.015625)"/>
       </defs>
       <use xlink:href="#DejaVuSans-39"/>
      </g>
     </g>
    </g>
    <g id="xtick_3">
     <g id="line2d_5">
      <path d="M 207.522132 383.56 
L 207.522132 7.2 
" clip-path="url(#p593df34301)" style="fill: none; stroke: #b0b0b0; stroke-width: 0.8; stroke-linecap: square"/>
     </g>
     <g id="line2d_6">
      <g>
       <use xlink:href="#m4512c8d840" x="207.522132" y="383.56" style="stroke: #000000; stroke-width: 0.8"/>
      </g>
     </g>
     <g id="text_3">
      <!-- 10 -->
      <g transform="translate(201.159632 398.158438) scale(0.1 -0.1)">
       <defs>
        <path id="DejaVuSans-31" d="M 794 531 
L 1825 531 
L 1825 4091 
L 703 3866 
L 703 4441 
L 1819 4666 
L 2450 4666 
L 2450 531 
L 3481 531 
L 3481 0 
L 794 0 
L 794 531 
z
" transform="scale(0.015625)"/>
        <path id="DejaVuSans-30" d="M 2034 4250 
Q 1547 4250 1301 3770 
Q 1056 3291 1056 2328 
Q 1056 1369 1301 889 
Q 1547 409 2034 409 
Q 2525 409 2770 889 
Q 3016 1369 3016 2328 
Q 3016 3291 2770 3770 
Q 2525 4250 2034 4250 
z
M 2034 4750 
Q 2819 4750 3233 4129 
Q 3647 3509 3647 2328 
Q 3647 1150 3233 529 
Q 2819 -91 2034 -91 
Q 1250 -91 836 529 
Q 422 1150 422 2328 
Q 422 3509 836 4129 
Q 1250 4750 2034 4750 
z
" transform="scale(0.015625)"/>
       </defs>
       <use xlink:href="#DejaVuSans-31"/>
       <use xlink:href="#DejaVuSans-30" x="63.623047"/>
      </g>
     </g>
    </g>
    <g id="xtick_4">
     <g id="line2d_7">
      <path d="M 291.515212 383.56 
L 291.515212 7.2 
" clip-path="url(#p593df34301)" style="fill: none; stroke: #b0b0b0; stroke-width: 0.8; stroke-linecap: square"/>
     </g>
     <g id="line2d_8">
      <g>
       <use xlink:href="#m4512c8d840" x="291.515212" y="383.56" style="stroke: #000000; stroke-width: 0.8"/>
      </g>
     </g>
     <g id="text_4">
      <!-- 11 -->
      <g transform="translate(285.152712 398.158438) scale(0.1 -0.1)">
       <use xlink:href="#DejaVuSans-31"/>
       <use xlink:href="#DejaVuSans-31" x="63.623047"/>
      </g>
     </g>
    </g>
    <g id="xtick_5">
     <g id="line2d_9">
      <path d="M 375.508292 383.56 
L 375.508292 7.2 
" clip-path="url(#p593df34301)" style="fill: none; stroke: #b0b0b0; stroke-width: 0.8; stroke-linecap: square"/>
     </g>
     <g id="line2d_10">
      <g>
       <use xlink:href="#m4512c8d840" x="375.508292" y="383.56" style="stroke: #000000; stroke-width: 0.8"/>
      </g>
     </g>
     <g id="text_5">
      <!-- 12 -->
      <g transform="translate(369.145792 398.158438) scale(0.1 -0.1)">
       <defs>
        <path id="DejaVuSans-32" d="M 1228 531 
L 3431 531 
L 3431 0 
L 469 0 
L 469 531 
Q 828 903 1448 1529 
Q 2069 2156 2228 2338 
Q 2531 2678 2651 2914 
Q 2772 3150 2772 3378 
Q 2772 3750 2511 3984 
Q 2250 4219 1831 4219 
Q 1534 4219 1204 4116 
Q 875 4013 500 3803 
L 500 4441 
Q 881 4594 1212 4672 
Q 1544 4750 1819 4750 
Q 2544 4750 2975 4387 
Q 3406 4025 3406 3419 
Q 3406 3131 3298 2873 
Q 3191 2616 2906 2266 
Q 2828 2175 2409 1742 
Q 1991 1309 1228 531 
z
" transform="scale(0.015625)"/>
       </defs>
       <use xlink:href="#DejaVuSans-31"/>
       <use xlink:href="#DejaVuSans-32" x="63.623047"/>
      </g>
     </g>
    </g>
    <g id="xtick_6">
     <g id="line2d_11">
      <path d="M 459.501371 383.56 
L 459.501371 7.2 
" clip-path="url(#p593df34301)" style="fill: none; stroke: #b0b0b0; stroke-width: 0.8; stroke-linecap: square"/>
     </g>
     <g id="line2d_12">
      <g>
       <use xlink:href="#m4512c8d840" x="459.501371" y="383.56" style="stroke: #000000; stroke-width: 0.8"/>
      </g>
     </g>
     <g id="text_6">
      <!-- 13 -->
      <g transform="translate(453.138871 398.158438) scale(0.1 -0.1)">
       <defs>
        <path id="DejaVuSans-33" d="M 2597 2516 
Q 3050 2419 3304 2112 
Q 3559 1806 3559 1356 
Q 3559 666 3084 287 
Q 2609 -91 1734 -91 
Q 1441 -91 1130 -33 
Q 819 25 488 141 
L 488 750 
Q 750 597 1062 519 
Q 1375 441 1716 441 
Q 2309 441 2620 675 
Q 2931 909 2931 1356 
Q 2931 1769 2642 2001 
Q 2353 2234 1838 2234 
L 1294 2234 
L 1294 2753 
L 1863 2753 
Q 2328 2753 2575 2939 
Q 2822 3125 2822 3475 
Q 2822 3834 2567 4026 
Q 2313 4219 1838 4219 
Q 1578 4219 1281 4162 
Q 984 4106 628 3988 
L 628 4550 
Q 988 4650 1302 4700 
Q 1616 4750 1894 4750 
Q 2613 4750 3031 4423 
Q 3450 4097 3450 3541 
Q 3450 3153 3228 2886 
Q 3006 2619 2597 2516 
z
" transform="scale(0.015625)"/>
       </defs>
       <use xlink:href="#DejaVuSans-31"/>
       <use xlink:href="#DejaVuSans-33" x="63.623047"/>
      </g>
     </g>
    </g>
    <g id="xtick_7">
     <g id="line2d_13">
      <path d="M 543.494451 383.56 
L 543.494451 7.2 
" clip-path="url(#p593df34301)" style="fill: none; stroke: #b0b0b0; stroke-width: 0.8; stroke-linecap: square"/>
     </g>
     <g id="line2d_14">
      <g>
       <use xlink:href="#m4512c8d840" x="543.494451" y="383.56" style="stroke: #000000; stroke-width: 0.8"/>
      </g>
     </g>
     <g id="text_7">
      <!-- 14 -->
      <g transform="translate(537.131951 398.158438) scale(0.1 -0.1)">
       <defs>
        <path id="DejaVuSans-34" d="M 2419 4116 
L 825 1625 
L 2419 1625 
L 2419 4116 
z
M 2253 4666 
L 3047 4666 
L 3047 1625 
L 3713 1625 
L 3713 1100 
L 3047 1100 
L 3047 0 
L 2419 0 
L 2419 1100 
L 313 1100 
L 313 1709 
L 2253 4666 
z
" transform="scale(0.015625)"/>
       </defs>
       <use xlink:href="#DejaVuSans-31"/>
       <use xlink:href="#DejaVuSans-34" x="63.623047"/>
      </g>
     </g>
    </g>
    <g id="xtick_8">
     <g id="line2d_15">
      <path d="M 627.48753 383.56 
L 627.48753 7.2 
" clip-path="url(#p593df34301)" style="fill: none; stroke: #b0b0b0; stroke-width: 0.8; stroke-linecap: square"/>
     </g>
     <g id="line2d_16">
      <g>
       <use xlink:href="#m4512c8d840" x="627.48753" y="383.56" style="stroke: #000000; stroke-width: 0.8"/>
      </g>
     </g>
     <g id="text_8">
      <!-- 15 -->
      <g transform="translate(621.12503 398.158438) scale(0.1 -0.1)">
       <defs>
        <path id="DejaVuSans-35" d="M 691 4666 
L 3169 4666 
L 3169 4134 
L 1269 4134 
L 1269 2991 
Q 1406 3038 1543 3061 
Q 1681 3084 1819 3084 
Q 2600 3084 3056 2656 
Q 3513 2228 3513 1497 
Q 3513 744 3044 326 
Q 2575 -91 1722 -91 
Q 1428 -91 1123 -41 
Q 819 9 494 109 
L 494 744 
Q 775 591 1075 516 
Q 1375 441 1709 441 
Q 2250 441 2565 725 
Q 2881 1009 2881 1497 
Q 2881 1984 2565 2268 
Q 2250 2553 1709 2553 
Q 1456 2553 1204 2497 
Q 953 2441 691 2322 
L 691 4666 
z
" transform="scale(0.015625)"/>
       </defs>
       <use xlink:href="#DejaVuSans-31"/>
       <use xlink:href="#DejaVuSans-35" x="63.623047"/>
      </g>
     </g>
    </g>
    <g id="text_9">
     <!-- Undercoverage -->
     <g transform="translate(293.717188 413.35625) scale(0.12 -0.12)">
      <defs>
       <path id="DejaVuSans-55" d="M 556 4666 
L 1191 4666 
L 1191 1831 
Q 1191 1081 1462 751 
Q 1734 422 2344 422 
Q 2950 422 3222 751 
Q 3494 1081 3494 1831 
L 3494 4666 
L 4128 4666 
L 4128 1753 
Q 4128 841 3676 375 
Q 3225 -91 2344 -91 
Q 1459 -91 1007 375 
Q 556 841 556 1753 
L 556 4666 
z
" transform="scale(0.015625)"/>
       <path id="DejaVuSans-6e" d="M 3513 2113 
L 3513 0 
L 2938 0 
L 2938 2094 
Q 2938 2591 2744 2837 
Q 2550 3084 2163 3084 
Q 1697 3084 1428 2787 
Q 1159 2491 1159 1978 
L 1159 0 
L 581 0 
L 581 3500 
L 1159 3500 
L 1159 2956 
Q 1366 3272 1645 3428 
Q 1925 3584 2291 3584 
Q 2894 3584 3203 3211 
Q 3513 2838 3513 2113 
z
" transform="scale(0.015625)"/>
       <path id="DejaVuSans-64" d="M 2906 2969 
L 2906 4863 
L 3481 4863 
L 3481 0 
L 2906 0 
L 2906 525 
Q 2725 213 2448 61 
Q 2172 -91 1784 -91 
Q 1150 -91 751 415 
Q 353 922 353 1747 
Q 353 2572 751 3078 
Q 1150 3584 1784 3584 
Q 2172 3584 2448 3432 
Q 2725 3281 2906 2969 
z
M 947 1747 
Q 947 1113 1208 752 
Q 1469 391 1925 391 
Q 2381 391 2643 752 
Q 2906 1113 2906 1747 
Q 2906 2381 2643 2742 
Q 2381 3103 1925 3103 
Q 1469 3103 1208 2742 
Q 947 2381 947 1747 
z
" transform="scale(0.015625)"/>
       <path id="DejaVuSans-65" d="M 3597 1894 
L 3597 1613 
L 953 1613 
Q 991 1019 1311 708 
Q 1631 397 2203 397 
Q 2534 397 2845 478 
Q 3156 559 3463 722 
L 3463 178 
Q 3153 47 2828 -22 
Q 2503 -91 2169 -91 
Q 1331 -91 842 396 
Q 353 884 353 1716 
Q 353 2575 817 3079 
Q 1281 3584 2069 3584 
Q 2775 3584 3186 3129 
Q 3597 2675 3597 1894 
z
M 3022 2063 
Q 3016 2534 2758 2815 
Q 2500 3097 2075 3097 
Q 1594 3097 1305 2825 
Q 1016 2553 972 2059 
L 3022 2063 
z
" transform="scale(0.015625)"/>
       <path id="DejaVuSans-72" d="M 2631 2963 
Q 2534 3019 2420 3045 
Q 2306 3072 2169 3072 
Q 1681 3072 1420 2755 
Q 1159 2438 1159 1844 
L 1159 0 
L 581 0 
L 581 3500 
L 1159 3500 
L 1159 2956 
Q 1341 3275 1631 3429 
Q 1922 3584 2338 3584 
Q 2397 3584 2469 3576 
Q 2541 3569 2628 3553 
L 2631 2963 
z
" transform="scale(0.015625)"/>
       <path id="DejaVuSans-63" d="M 3122 3366 
L 3122 2828 
Q 2878 2963 2633 3030 
Q 2388 3097 2138 3097 
Q 1578 3097 1268 2742 
Q 959 2388 959 1747 
Q 959 1106 1268 751 
Q 1578 397 2138 397 
Q 2388 397 2633 464 
Q 2878 531 3122 666 
L 3122 134 
Q 2881 22 2623 -34 
Q 2366 -91 2075 -91 
Q 1284 -91 818 406 
Q 353 903 353 1747 
Q 353 2603 823 3093 
Q 1294 3584 2113 3584 
Q 2378 3584 2631 3529 
Q 2884 3475 3122 3366 
z
" transform="scale(0.015625)"/>
       <path id="DejaVuSans-6f" d="M 1959 3097 
Q 1497 3097 1228 2736 
Q 959 2375 959 1747 
Q 959 1119 1226 758 
Q 1494 397 1959 397 
Q 2419 397 2687 759 
Q 2956 1122 2956 1747 
Q 2956 2369 2687 2733 
Q 2419 3097 1959 3097 
z
M 1959 3584 
Q 2709 3584 3137 3096 
Q 3566 2609 3566 1747 
Q 3566 888 3137 398 
Q 2709 -91 1959 -91 
Q 1206 -91 779 398 
Q 353 888 353 1747 
Q 353 2609 779 3096 
Q 1206 3584 1959 3584 
z
" transform="scale(0.015625)"/>
       <path id="DejaVuSans-76" d="M 191 3500 
L 800 3500 
L 1894 563 
L 2988 3500 
L 3597 3500 
L 2284 0 
L 1503 0 
L 191 3500 
z
" transform="scale(0.015625)"/>
       <path id="DejaVuSans-61" d="M 2194 1759 
Q 1497 1759 1228 1600 
Q 959 1441 959 1056 
Q 959 750 1161 570 
Q 1363 391 1709 391 
Q 2188 391 2477 730 
Q 2766 1069 2766 1631 
L 2766 1759 
L 2194 1759 
z
M 3341 1997 
L 3341 0 
L 2766 0 
L 2766 531 
Q 2569 213 2275 61 
Q 1981 -91 1556 -91 
Q 1019 -91 701 211 
Q 384 513 384 1019 
Q 384 1609 779 1909 
Q 1175 2209 1959 2209 
L 2766 2209 
L 2766 2266 
Q 2766 2663 2505 2880 
Q 2244 3097 1772 3097 
Q 1472 3097 1187 3025 
Q 903 2953 641 2809 
L 641 3341 
Q 956 3463 1253 3523 
Q 1550 3584 1831 3584 
Q 2591 3584 2966 3190 
Q 3341 2797 3341 1997 
z
" transform="scale(0.015625)"/>
       <path id="DejaVuSans-67" d="M 2906 1791 
Q 2906 2416 2648 2759 
Q 2391 3103 1925 3103 
Q 1463 3103 1205 2759 
Q 947 2416 947 1791 
Q 947 1169 1205 825 
Q 1463 481 1925 481 
Q 2391 481 2648 825 
Q 2906 1169 2906 1791 
z
M 3481 434 
Q 3481 -459 3084 -895 
Q 2688 -1331 1869 -1331 
Q 1566 -1331 1297 -1286 
Q 1028 -1241 775 -1147 
L 775 -588 
Q 1028 -725 1275 -790 
Q 1522 -856 1778 -856 
Q 2344 -856 2625 -561 
Q 2906 -266 2906 331 
L 2906 616 
Q 2728 306 2450 153 
Q 2172 0 1784 0 
Q 1141 0 747 490 
Q 353 981 353 1791 
Q 353 2603 747 3093 
Q 1141 3584 1784 3584 
Q 2172 3584 2450 3431 
Q 2728 3278 2906 2969 
L 2906 3500 
L 3481 3500 
L 3481 434 
z
" transform="scale(0.015625)"/>
      </defs>
      <use xlink:href="#DejaVuSans-55"/>
      <use xlink:href="#DejaVuSans-6e" x="73.193359"/>
      <use xlink:href="#DejaVuSans-64" x="136.572266"/>
      <use xlink:href="#DejaVuSans-65" x="200.048828"/>
      <use xlink:href="#DejaVuSans-72" x="261.572266"/>
      <use xlink:href="#DejaVuSans-63" x="300.435547"/>
      <use xlink:href="#DejaVuSans-6f" x="355.416016"/>
      <use xlink:href="#DejaVuSans-76" x="416.597656"/>
      <use xlink:href="#DejaVuSans-65" x="475.777344"/>
      <use xlink:href="#DejaVuSans-72" x="537.300781"/>
      <use xlink:href="#DejaVuSans-61" x="578.414062"/>
      <use xlink:href="#DejaVuSans-67" x="639.693359"/>
      <use xlink:href="#DejaVuSans-65" x="703.169922"/>
     </g>
    </g>
   </g>
   <g id="matplotlib.axis_2">
    <g id="ytick_1">
     <g id="line2d_17">
      <path d="M 36.17625 378.937636 
L 643.02625 378.937636 
" clip-path="url(#p593df34301)" style="fill: none; stroke: #b0b0b0; stroke-width: 0.8; stroke-linecap: square"/>
     </g>
     <g id="line2d_18">
      <defs>
       <path id="m30e8cff7f7" d="M 0 0 
L -3.5 0 
" style="stroke: #000000; stroke-width: 0.8"/>
      </defs>
      <g>
       <use xlink:href="#m30e8cff7f7" x="36.17625" y="378.937636" style="stroke: #000000; stroke-width: 0.8"/>
      </g>
     </g>
     <g id="text_10">
      <!-- 2 -->
      <g transform="translate(22.81375 382.736855) scale(0.1 -0.1)">
       <use xlink:href="#DejaVuSans-32"/>
      </g>
     </g>
    </g>
    <g id="ytick_2">
     <g id="line2d_19">
      <path d="M 36.17625 322.622284 
L 643.02625 322.622284 
" clip-path="url(#p593df34301)" style="fill: none; stroke: #b0b0b0; stroke-width: 0.8; stroke-linecap: square"/>
     </g>
     <g id="line2d_20">
      <g>
       <use xlink:href="#m30e8cff7f7" x="36.17625" y="322.622284" style="stroke: #000000; stroke-width: 0.8"/>
      </g>
     </g>
     <g id="text_11">
      <!-- 3 -->
      <g transform="translate(22.81375 326.421503) scale(0.1 -0.1)">
       <use xlink:href="#DejaVuSans-33"/>
      </g>
     </g>
    </g>
    <g id="ytick_3">
     <g id="line2d_21">
      <path d="M 36.17625 266.306933 
L 643.02625 266.306933 
" clip-path="url(#p593df34301)" style="fill: none; stroke: #b0b0b0; stroke-width: 0.8; stroke-linecap: square"/>
     </g>
     <g id="line2d_22">
      <g>
       <use xlink:href="#m30e8cff7f7" x="36.17625" y="266.306933" style="stroke: #000000; stroke-width: 0.8"/>
      </g>
     </g>
     <g id="text_12">
      <!-- 4 -->
      <g transform="translate(22.81375 270.106151) scale(0.1 -0.1)">
       <use xlink:href="#DejaVuSans-34"/>
      </g>
     </g>
    </g>
    <g id="ytick_4">
     <g id="line2d_23">
      <path d="M 36.17625 209.991581 
L 643.02625 209.991581 
" clip-path="url(#p593df34301)" style="fill: none; stroke: #b0b0b0; stroke-width: 0.8; stroke-linecap: square"/>
     </g>
     <g id="line2d_24">
      <g>
       <use xlink:href="#m30e8cff7f7" x="36.17625" y="209.991581" style="stroke: #000000; stroke-width: 0.8"/>
      </g>
     </g>
     <g id="text_13">
      <!-- 5 -->
      <g transform="translate(22.81375 213.7908) scale(0.1 -0.1)">
       <use xlink:href="#DejaVuSans-35"/>
      </g>
     </g>
    </g>
    <g id="ytick_5">
     <g id="line2d_25">
      <path d="M 36.17625 153.67623 
L 643.02625 153.67623 
" clip-path="url(#p593df34301)" style="fill: none; stroke: #b0b0b0; stroke-width: 0.8; stroke-linecap: square"/>
     </g>
     <g id="line2d_26">
      <g>
       <use xlink:href="#m30e8cff7f7" x="36.17625" y="153.67623" style="stroke: #000000; stroke-width: 0.8"/>
      </g>
     </g>
     <g id="text_14">
      <!-- 6 -->
      <g transform="translate(22.81375 157.475448) scale(0.1 -0.1)">
       <defs>
        <path id="DejaVuSans-36" d="M 2113 2584 
Q 1688 2584 1439 2293 
Q 1191 2003 1191 1497 
Q 1191 994 1439 701 
Q 1688 409 2113 409 
Q 2538 409 2786 701 
Q 3034 994 3034 1497 
Q 3034 2003 2786 2293 
Q 2538 2584 2113 2584 
z
M 3366 4563 
L 3366 3988 
Q 3128 4100 2886 4159 
Q 2644 4219 2406 4219 
Q 1781 4219 1451 3797 
Q 1122 3375 1075 2522 
Q 1259 2794 1537 2939 
Q 1816 3084 2150 3084 
Q 2853 3084 3261 2657 
Q 3669 2231 3669 1497 
Q 3669 778 3244 343 
Q 2819 -91 2113 -91 
Q 1303 -91 875 529 
Q 447 1150 447 2328 
Q 447 3434 972 4092 
Q 1497 4750 2381 4750 
Q 2619 4750 2861 4703 
Q 3103 4656 3366 4563 
z
" transform="scale(0.015625)"/>
       </defs>
       <use xlink:href="#DejaVuSans-36"/>
      </g>
     </g>
    </g>
    <g id="ytick_6">
     <g id="line2d_27">
      <path d="M 36.17625 97.360878 
L 643.02625 97.360878 
" clip-path="url(#p593df34301)" style="fill: none; stroke: #b0b0b0; stroke-width: 0.8; stroke-linecap: square"/>
     </g>
     <g id="line2d_28">
      <g>
       <use xlink:href="#m30e8cff7f7" x="36.17625" y="97.360878" style="stroke: #000000; stroke-width: 0.8"/>
      </g>
     </g>
     <g id="text_15">
      <!-- 7 -->
      <g transform="translate(22.81375 101.160097) scale(0.1 -0.1)">
       <defs>
        <path id="DejaVuSans-37" d="M 525 4666 
L 3525 4666 
L 3525 4397 
L 1831 0 
L 1172 0 
L 2766 4134 
L 525 4134 
L 525 4666 
z
" transform="scale(0.015625)"/>
       </defs>
       <use xlink:href="#DejaVuSans-37"/>
      </g>
     </g>
    </g>
    <g id="ytick_7">
     <g id="line2d_29">
      <path d="M 36.17625 41.045526 
L 643.02625 41.045526 
" clip-path="url(#p593df34301)" style="fill: none; stroke: #b0b0b0; stroke-width: 0.8; stroke-linecap: square"/>
     </g>
     <g id="line2d_30">
      <g>
       <use xlink:href="#m30e8cff7f7" x="36.17625" y="41.045526" style="stroke: #000000; stroke-width: 0.8"/>
      </g>
     </g>
     <g id="text_16">
      <!-- 8 -->
      <g transform="translate(22.81375 44.844745) scale(0.1 -0.1)">
       <use xlink:href="#DejaVuSans-38"/>
      </g>
     </g>
    </g>
    <g id="text_17">
     <!-- Consistency ( Shift Changes) -->
     <g transform="translate(16.318125 285.468125) rotate(-90) scale(0.12 -0.12)">
      <defs>
       <path id="DejaVuSans-43" d="M 4122 4306 
L 4122 3641 
Q 3803 3938 3442 4084 
Q 3081 4231 2675 4231 
Q 1875 4231 1450 3742 
Q 1025 3253 1025 2328 
Q 1025 1406 1450 917 
Q 1875 428 2675 428 
Q 3081 428 3442 575 
Q 3803 722 4122 1019 
L 4122 359 
Q 3791 134 3420 21 
Q 3050 -91 2638 -91 
Q 1578 -91 968 557 
Q 359 1206 359 2328 
Q 359 3453 968 4101 
Q 1578 4750 2638 4750 
Q 3056 4750 3426 4639 
Q 3797 4528 4122 4306 
z
" transform="scale(0.015625)"/>
       <path id="DejaVuSans-73" d="M 2834 3397 
L 2834 2853 
Q 2591 2978 2328 3040 
Q 2066 3103 1784 3103 
Q 1356 3103 1142 2972 
Q 928 2841 928 2578 
Q 928 2378 1081 2264 
Q 1234 2150 1697 2047 
L 1894 2003 
Q 2506 1872 2764 1633 
Q 3022 1394 3022 966 
Q 3022 478 2636 193 
Q 2250 -91 1575 -91 
Q 1294 -91 989 -36 
Q 684 19 347 128 
L 347 722 
Q 666 556 975 473 
Q 1284 391 1588 391 
Q 1994 391 2212 530 
Q 2431 669 2431 922 
Q 2431 1156 2273 1281 
Q 2116 1406 1581 1522 
L 1381 1569 
Q 847 1681 609 1914 
Q 372 2147 372 2553 
Q 372 3047 722 3315 
Q 1072 3584 1716 3584 
Q 2034 3584 2315 3537 
Q 2597 3491 2834 3397 
z
" transform="scale(0.015625)"/>
       <path id="DejaVuSans-69" d="M 603 3500 
L 1178 3500 
L 1178 0 
L 603 0 
L 603 3500 
z
M 603 4863 
L 1178 4863 
L 1178 4134 
L 603 4134 
L 603 4863 
z
" transform="scale(0.015625)"/>
       <path id="DejaVuSans-74" d="M 1172 4494 
L 1172 3500 
L 2356 3500 
L 2356 3053 
L 1172 3053 
L 1172 1153 
Q 1172 725 1289 603 
Q 1406 481 1766 481 
L 2356 481 
L 2356 0 
L 1766 0 
Q 1100 0 847 248 
Q 594 497 594 1153 
L 594 3053 
L 172 3053 
L 172 3500 
L 594 3500 
L 594 4494 
L 1172 4494 
z
" transform="scale(0.015625)"/>
       <path id="DejaVuSans-79" d="M 2059 -325 
Q 1816 -950 1584 -1140 
Q 1353 -1331 966 -1331 
L 506 -1331 
L 506 -850 
L 844 -850 
Q 1081 -850 1212 -737 
Q 1344 -625 1503 -206 
L 1606 56 
L 191 3500 
L 800 3500 
L 1894 763 
L 2988 3500 
L 3597 3500 
L 2059 -325 
z
" transform="scale(0.015625)"/>
       <path id="DejaVuSans-20" transform="scale(0.015625)"/>
       <path id="DejaVuSans-28" d="M 1984 4856 
Q 1566 4138 1362 3434 
Q 1159 2731 1159 2009 
Q 1159 1288 1364 580 
Q 1569 -128 1984 -844 
L 1484 -844 
Q 1016 -109 783 600 
Q 550 1309 550 2009 
Q 550 2706 781 3412 
Q 1013 4119 1484 4856 
L 1984 4856 
z
" transform="scale(0.015625)"/>
       <path id="DejaVuSans-f8" d="M 2828 2503 
L 1306 653 
Q 1434 522 1595 459 
Q 1756 397 1959 397 
Q 2419 397 2687 759 
Q 2956 1122 2956 1747 
Q 2956 1994 2925 2176 
Q 2894 2359 2828 2503 
z
M 2606 2841 
Q 2475 2969 2314 3033 
Q 2153 3097 1959 3097 
Q 1488 3097 1223 2730 
Q 959 2363 959 1703 
Q 959 1478 989 1306 
Q 1019 1134 1081 991 
L 2606 2841 
z
M 691 519 
Q 522 759 437 1067 
Q 353 1375 353 1747 
Q 353 2609 779 3096 
Q 1206 3584 1959 3584 
Q 2250 3584 2498 3504 
Q 2747 3425 2956 3263 
L 3391 3788 
L 3688 3541 
L 3231 2981 
Q 3397 2741 3481 2431 
Q 3566 2122 3566 1747 
Q 3566 888 3137 398 
Q 2709 -91 1959 -91 
Q 1659 -91 1407 -9 
Q 1156 72 959 231 
L 525 -294 
L 225 -50 
L 691 519 
z
" transform="scale(0.015625)"/>
       <path id="DejaVuSans-53" d="M 3425 4513 
L 3425 3897 
Q 3066 4069 2747 4153 
Q 2428 4238 2131 4238 
Q 1616 4238 1336 4038 
Q 1056 3838 1056 3469 
Q 1056 3159 1242 3001 
Q 1428 2844 1947 2747 
L 2328 2669 
Q 3034 2534 3370 2195 
Q 3706 1856 3706 1288 
Q 3706 609 3251 259 
Q 2797 -91 1919 -91 
Q 1588 -91 1214 -16 
Q 841 59 441 206 
L 441 856 
Q 825 641 1194 531 
Q 1563 422 1919 422 
Q 2459 422 2753 634 
Q 3047 847 3047 1241 
Q 3047 1584 2836 1778 
Q 2625 1972 2144 2069 
L 1759 2144 
Q 1053 2284 737 2584 
Q 422 2884 422 3419 
Q 422 4038 858 4394 
Q 1294 4750 2059 4750 
Q 2388 4750 2728 4690 
Q 3069 4631 3425 4513 
z
" transform="scale(0.015625)"/>
       <path id="DejaVuSans-68" d="M 3513 2113 
L 3513 0 
L 2938 0 
L 2938 2094 
Q 2938 2591 2744 2837 
Q 2550 3084 2163 3084 
Q 1697 3084 1428 2787 
Q 1159 2491 1159 1978 
L 1159 0 
L 581 0 
L 581 4863 
L 1159 4863 
L 1159 2956 
Q 1366 3272 1645 3428 
Q 1925 3584 2291 3584 
Q 2894 3584 3203 3211 
Q 3513 2838 3513 2113 
z
" transform="scale(0.015625)"/>
       <path id="DejaVuSans-66" d="M 2375 4863 
L 2375 4384 
L 1825 4384 
Q 1516 4384 1395 4259 
Q 1275 4134 1275 3809 
L 1275 3500 
L 2222 3500 
L 2222 3053 
L 1275 3053 
L 1275 0 
L 697 0 
L 697 3053 
L 147 3053 
L 147 3500 
L 697 3500 
L 697 3744 
Q 697 4328 969 4595 
Q 1241 4863 1831 4863 
L 2375 4863 
z
" transform="scale(0.015625)"/>
       <path id="DejaVuSans-29" d="M 513 4856 
L 1013 4856 
Q 1481 4119 1714 3412 
Q 1947 2706 1947 2009 
Q 1947 1309 1714 600 
Q 1481 -109 1013 -844 
L 513 -844 
Q 928 -128 1133 580 
Q 1338 1288 1338 2009 
Q 1338 2731 1133 3434 
Q 928 4138 513 4856 
z
" transform="scale(0.015625)"/>
      </defs>
      <use xlink:href="#DejaVuSans-43"/>
      <use xlink:href="#DejaVuSans-6f" x="69.824219"/>
      <use xlink:href="#DejaVuSans-6e" x="131.005859"/>
      <use xlink:href="#DejaVuSans-73" x="194.384766"/>
      <use xlink:href="#DejaVuSans-69" x="246.484375"/>
      <use xlink:href="#DejaVuSans-73" x="274.267578"/>
      <use xlink:href="#DejaVuSans-74" x="326.367188"/>
      <use xlink:href="#DejaVuSans-65" x="365.576172"/>
      <use xlink:href="#DejaVuSans-6e" x="427.099609"/>
      <use xlink:href="#DejaVuSans-63" x="490.478516"/>
      <use xlink:href="#DejaVuSans-79" x="545.458984"/>
      <use xlink:href="#DejaVuSans-20" x="604.638672"/>
      <use xlink:href="#DejaVuSans-28" x="636.425781"/>
      <use xlink:href="#DejaVuSans-f8" x="675.439453"/>
      <use xlink:href="#DejaVuSans-20" x="736.621094"/>
      <use xlink:href="#DejaVuSans-53" x="768.408203"/>
      <use xlink:href="#DejaVuSans-68" x="831.884766"/>
      <use xlink:href="#DejaVuSans-69" x="895.263672"/>
      <use xlink:href="#DejaVuSans-66" x="923.046875"/>
      <use xlink:href="#DejaVuSans-74" x="956.501953"/>
      <use xlink:href="#DejaVuSans-20" x="995.710938"/>
      <use xlink:href="#DejaVuSans-43" x="1027.498047"/>
      <use xlink:href="#DejaVuSans-68" x="1097.322266"/>
      <use xlink:href="#DejaVuSans-61" x="1160.701172"/>
      <use xlink:href="#DejaVuSans-6e" x="1221.980469"/>
      <use xlink:href="#DejaVuSans-67" x="1285.359375"/>
      <use xlink:href="#DejaVuSans-65" x="1348.835938"/>
      <use xlink:href="#DejaVuSans-73" x="1410.359375"/>
      <use xlink:href="#DejaVuSans-29" x="1462.458984"/>
     </g>
    </g>
   </g>
   <g id="patch_3">
    <path d="M 36.17625 383.56 
L 36.17625 7.2 
" style="fill: none; stroke: #000000; stroke-width: 0.8; stroke-linejoin: miter; stroke-linecap: square"/>
   </g>
   <g id="patch_4">
    <path d="M 643.02625 383.56 
L 643.02625 7.2 
" style="fill: none; stroke: #000000; stroke-width: 0.8; stroke-linejoin: miter; stroke-linecap: square"/>
   </g>
   <g id="patch_5">
    <path d="M 36.17625 383.56 
L 643.02625 383.56 
" style="fill: none; stroke: #000000; stroke-width: 0.8; stroke-linejoin: miter; stroke-linecap: square"/>
   </g>
   <g id="patch_6">
    <path d="M 36.17625 7.2 
L 643.02625 7.2 
" style="fill: none; stroke: #000000; stroke-width: 0.8; stroke-linejoin: miter; stroke-linecap: square"/>
   </g>
   <g id="legend_1">
    <g id="patch_7">
     <path d="M 650.02625 314.457344 
L 865.82625 314.457344 
Q 867.82625 314.457344 867.82625 312.457344 
L 867.82625 78.302656 
Q 867.82625 76.302656 865.82625 76.302656 
L 650.02625 76.302656 
Q 648.02625 76.302656 648.02625 78.302656 
L 648.02625 312.457344 
Q 648.02625 314.457344 650.02625 314.457344 
z
" style="fill: #ffffff; opacity: 0.8; stroke: #cccccc; stroke-linejoin: miter"/>
    </g>
    <g id="text_18">
     <!-- Combinations -->
     <g transform="translate(723.527031 87.901094) scale(0.1 -0.1)">
      <defs>
       <path id="DejaVuSans-6d" d="M 3328 2828 
Q 3544 3216 3844 3400 
Q 4144 3584 4550 3584 
Q 5097 3584 5394 3201 
Q 5691 2819 5691 2113 
L 5691 0 
L 5113 0 
L 5113 2094 
Q 5113 2597 4934 2840 
Q 4756 3084 4391 3084 
Q 3944 3084 3684 2787 
Q 3425 2491 3425 1978 
L 3425 0 
L 2847 0 
L 2847 2094 
Q 2847 2600 2669 2842 
Q 2491 3084 2119 3084 
Q 1678 3084 1418 2786 
Q 1159 2488 1159 1978 
L 1159 0 
L 581 0 
L 581 3500 
L 1159 3500 
L 1159 2956 
Q 1356 3278 1631 3431 
Q 1906 3584 2284 3584 
Q 2666 3584 2933 3390 
Q 3200 3197 3328 2828 
z
" transform="scale(0.015625)"/>
       <path id="DejaVuSans-62" d="M 3116 1747 
Q 3116 2381 2855 2742 
Q 2594 3103 2138 3103 
Q 1681 3103 1420 2742 
Q 1159 2381 1159 1747 
Q 1159 1113 1420 752 
Q 1681 391 2138 391 
Q 2594 391 2855 752 
Q 3116 1113 3116 1747 
z
M 1159 2969 
Q 1341 3281 1617 3432 
Q 1894 3584 2278 3584 
Q 2916 3584 3314 3078 
Q 3713 2572 3713 1747 
Q 3713 922 3314 415 
Q 2916 -91 2278 -91 
Q 1894 -91 1617 61 
Q 1341 213 1159 525 
L 1159 0 
L 581 0 
L 581 4863 
L 1159 4863 
L 1159 2969 
z
" transform="scale(0.015625)"/>
      </defs>
      <use xlink:href="#DejaVuSans-43"/>
      <use xlink:href="#DejaVuSans-6f" x="69.824219"/>
      <use xlink:href="#DejaVuSans-6d" x="131.005859"/>
      <use xlink:href="#DejaVuSans-62" x="228.417969"/>
      <use xlink:href="#DejaVuSans-69" x="291.894531"/>
      <use xlink:href="#DejaVuSans-6e" x="319.677734"/>
      <use xlink:href="#DejaVuSans-61" x="383.056641"/>
      <use xlink:href="#DejaVuSans-74" x="444.335938"/>
      <use xlink:href="#DejaVuSans-69" x="483.544922"/>
      <use xlink:href="#DejaVuSans-6f" x="511.328125"/>
      <use xlink:href="#DejaVuSans-6e" x="572.509766"/>
      <use xlink:href="#DejaVuSans-73" x="635.888672"/>
     </g>
    </g>
    <g id="line2d_31">
     <path d="M 656.02625 99.079219 
L 668.02625 99.079219 
" style="fill: none; stroke: #251255; stroke-width: 4; stroke-linecap: square"/>
    </g>
    <g id="text_19">
     <!-- $\epsilon=0.0 / \chi=3$ -->
     <g transform="translate(680.02625 102.579219) scale(0.1 -0.1)">
      <defs>
       <path id="DejaVuSans-Oblique-3b5" d="M 1263 1888 
Q 925 1963 778 2166 
Q 669 2309 669 2503 
Q 669 3034 1175 3344 
Q 1575 3588 2188 3588 
Q 2425 3588 2684 3550 
Q 2944 3513 3234 3438 
L 3134 2916 
Q 2847 3006 2606 3047 
Q 2359 3088 2138 3088 
Q 1766 3088 1522 2944 
Q 1228 2772 1228 2522 
Q 1228 2356 1381 2241 
Q 1563 2103 1925 2103 
L 2409 2103 
L 2319 1628 
L 1856 1628 
Q 1425 1628 1172 1469 
Q 828 1253 828 916 
Q 828 703 1013 563 
Q 1244 388 1716 388 
Q 2006 388 2284 444 
Q 2563 503 2806 619 
L 2700 84 
Q 2403 -3 2131 -47 
Q 1859 -91 1609 -91 
Q 866 -91 516 194 
Q 250 413 250 781 
Q 250 1278 600 1584 
Q 859 1813 1263 1888 
z
" transform="scale(0.015625)"/>
       <path id="DejaVuSans-3d" d="M 678 2906 
L 4684 2906 
L 4684 2381 
L 678 2381 
L 678 2906 
z
M 678 1631 
L 4684 1631 
L 4684 1100 
L 678 1100 
L 678 1631 
z
" transform="scale(0.015625)"/>
       <path id="DejaVuSans-2e" d="M 684 794 
L 1344 794 
L 1344 0 
L 684 0 
L 684 794 
z
" transform="scale(0.015625)"/>
       <path id="DejaVuSans-2f" d="M 1625 4666 
L 2156 4666 
L 531 -594 
L 0 -594 
L 1625 4666 
z
" transform="scale(0.015625)"/>
       <path id="DejaVuSans-Oblique-3c7" d="M 1922 -781 
L 1691 416 
L 394 -1334 
L -284 -1334 
L 1553 1141 
L 1269 2613 
Q 1194 3006 713 3006 
L 559 3006 
L 653 3500 
L 872 3494 
Q 1675 3472 1775 2950 
L 2006 1753 
L 3303 3503 
L 3981 3503 
L 2144 1028 
L 2428 -444 
Q 2503 -838 2984 -838 
L 3138 -838 
L 3044 -1331 
L 2825 -1325 
Q 2022 -1303 1922 -781 
z
" transform="scale(0.015625)"/>
      </defs>
      <use xlink:href="#DejaVuSans-Oblique-3b5" transform="translate(0 0.78125)"/>
      <use xlink:href="#DejaVuSans-3d" transform="translate(73.535156 0.78125)"/>
      <use xlink:href="#DejaVuSans-30" transform="translate(176.806641 0.78125)"/>
      <use xlink:href="#DejaVuSans-2e" transform="translate(240.429688 0.78125)"/>
      <use xlink:href="#DejaVuSans-30" transform="translate(272.216797 0.78125)"/>
      <use xlink:href="#DejaVuSans-2f" transform="translate(335.839844 0.78125)"/>
      <use xlink:href="#DejaVuSans-Oblique-3c7" transform="translate(369.53125 0.78125)"/>
      <use xlink:href="#DejaVuSans-3d" transform="translate(448.193359 0.78125)"/>
      <use xlink:href="#DejaVuSans-33" transform="translate(551.464844 0.78125)"/>
     </g>
    </g>
    <g id="line2d_32">
     <path d="M 656.02625 113.777656 
L 668.02625 113.777656 
" style="fill: none; stroke: #311165; stroke-width: 4; stroke-linecap: square"/>
    </g>
    <g id="text_20">
     <!-- $\epsilon=0.0 / \chi=4$ -->
     <g transform="translate(680.02625 117.277656) scale(0.1 -0.1)">
      <use xlink:href="#DejaVuSans-Oblique-3b5" transform="translate(0 0.78125)"/>
      <use xlink:href="#DejaVuSans-3d" transform="translate(73.535156 0.78125)"/>
      <use xlink:href="#DejaVuSans-30" transform="translate(176.806641 0.78125)"/>
      <use xlink:href="#DejaVuSans-2e" transform="translate(240.429688 0.78125)"/>
      <use xlink:href="#DejaVuSans-30" transform="translate(272.216797 0.78125)"/>
      <use xlink:href="#DejaVuSans-2f" transform="translate(335.839844 0.78125)"/>
      <use xlink:href="#DejaVuSans-Oblique-3c7" transform="translate(369.53125 0.78125)"/>
      <use xlink:href="#DejaVuSans-3d" transform="translate(448.193359 0.78125)"/>
      <use xlink:href="#DejaVuSans-34" transform="translate(551.464844 0.78125)"/>
     </g>
    </g>
    <g id="line2d_33">
     <path d="M 656.02625 128.476094 
L 668.02625 128.476094 
" style="fill: none; stroke: #3d0f71; stroke-width: 4; stroke-linecap: square"/>
    </g>
    <g id="text_21">
     <!-- $\epsilon=0.0 / \chi=5$ -->
     <g transform="translate(680.02625 131.976094) scale(0.1 -0.1)">
      <use xlink:href="#DejaVuSans-Oblique-3b5" transform="translate(0 0.78125)"/>
      <use xlink:href="#DejaVuSans-3d" transform="translate(73.535156 0.78125)"/>
      <use xlink:href="#DejaVuSans-30" transform="translate(176.806641 0.78125)"/>
      <use xlink:href="#DejaVuSans-2e" transform="translate(240.429688 0.78125)"/>
      <use xlink:href="#DejaVuSans-30" transform="translate(272.216797 0.78125)"/>
      <use xlink:href="#DejaVuSans-2f" transform="translate(335.839844 0.78125)"/>
      <use xlink:href="#DejaVuSans-Oblique-3c7" transform="translate(369.53125 0.78125)"/>
      <use xlink:href="#DejaVuSans-3d" transform="translate(448.193359 0.78125)"/>
      <use xlink:href="#DejaVuSans-35" transform="translate(551.464844 0.78125)"/>
     </g>
    </g>
    <g id="line2d_34">
     <path d="M 656.02625 143.174531 
L 668.02625 143.174531 
" style="fill: none; stroke: #491078; stroke-width: 4; stroke-linecap: square"/>
    </g>
    <g id="text_22">
     <!-- $\epsilon=0.0 / \chi=6$ -->
     <g transform="translate(680.02625 146.674531) scale(0.1 -0.1)">
      <use xlink:href="#DejaVuSans-Oblique-3b5" transform="translate(0 0.78125)"/>
      <use xlink:href="#DejaVuSans-3d" transform="translate(73.535156 0.78125)"/>
      <use xlink:href="#DejaVuSans-30" transform="translate(176.806641 0.78125)"/>
      <use xlink:href="#DejaVuSans-2e" transform="translate(240.429688 0.78125)"/>
      <use xlink:href="#DejaVuSans-30" transform="translate(272.216797 0.78125)"/>
      <use xlink:href="#DejaVuSans-2f" transform="translate(335.839844 0.78125)"/>
      <use xlink:href="#DejaVuSans-Oblique-3c7" transform="translate(369.53125 0.78125)"/>
      <use xlink:href="#DejaVuSans-3d" transform="translate(448.193359 0.78125)"/>
      <use xlink:href="#DejaVuSans-36" transform="translate(551.464844 0.78125)"/>
     </g>
    </g>
    <g id="line2d_35">
     <path d="M 656.02625 157.872969 
L 668.02625 157.872969 
" style="fill: none; stroke: #54137d; stroke-width: 4; stroke-linecap: square"/>
    </g>
    <g id="text_23">
     <!-- $\epsilon=0.0 / \chi=7$ -->
     <g transform="translate(680.02625 161.372969) scale(0.1 -0.1)">
      <use xlink:href="#DejaVuSans-Oblique-3b5" transform="translate(0 0.78125)"/>
      <use xlink:href="#DejaVuSans-3d" transform="translate(73.535156 0.78125)"/>
      <use xlink:href="#DejaVuSans-30" transform="translate(176.806641 0.78125)"/>
      <use xlink:href="#DejaVuSans-2e" transform="translate(240.429688 0.78125)"/>
      <use xlink:href="#DejaVuSans-30" transform="translate(272.216797 0.78125)"/>
      <use xlink:href="#DejaVuSans-2f" transform="translate(335.839844 0.78125)"/>
      <use xlink:href="#DejaVuSans-Oblique-3c7" transform="translate(369.53125 0.78125)"/>
      <use xlink:href="#DejaVuSans-3d" transform="translate(448.193359 0.78125)"/>
      <use xlink:href="#DejaVuSans-37" transform="translate(551.464844 0.78125)"/>
     </g>
    </g>
    <g id="line2d_36">
     <path d="M 656.02625 172.571406 
L 668.02625 172.571406 
" style="fill: none; stroke: #5f187f; stroke-width: 4; stroke-linecap: square"/>
    </g>
    <g id="text_24">
     <!-- $\epsilon=0.02 / \chi=3$ -->
     <g transform="translate(680.02625 176.071406) scale(0.1 -0.1)">
      <use xlink:href="#DejaVuSans-Oblique-3b5" transform="translate(0 0.78125)"/>
      <use xlink:href="#DejaVuSans-3d" transform="translate(73.535156 0.78125)"/>
      <use xlink:href="#DejaVuSans-30" transform="translate(176.806641 0.78125)"/>
      <use xlink:href="#DejaVuSans-2e" transform="translate(240.429688 0.78125)"/>
      <use xlink:href="#DejaVuSans-30" transform="translate(272.216797 0.78125)"/>
      <use xlink:href="#DejaVuSans-32" transform="translate(335.839844 0.78125)"/>
      <use xlink:href="#DejaVuSans-2f" transform="translate(399.462891 0.78125)"/>
      <use xlink:href="#DejaVuSans-Oblique-3c7" transform="translate(433.154297 0.78125)"/>
      <use xlink:href="#DejaVuSans-3d" transform="translate(511.816406 0.78125)"/>
      <use xlink:href="#DejaVuSans-33" transform="translate(615.087891 0.78125)"/>
     </g>
    </g>
    <g id="line2d_37">
     <path d="M 656.02625 187.269844 
L 668.02625 187.269844 
" style="fill: none; stroke: #6a1c81; stroke-width: 4; stroke-linecap: square"/>
    </g>
    <g id="text_25">
     <!-- $\epsilon=0.02 / \chi=4$ -->
     <g transform="translate(680.02625 190.769844) scale(0.1 -0.1)">
      <use xlink:href="#DejaVuSans-Oblique-3b5" transform="translate(0 0.78125)"/>
      <use xlink:href="#DejaVuSans-3d" transform="translate(73.535156 0.78125)"/>
      <use xlink:href="#DejaVuSans-30" transform="translate(176.806641 0.78125)"/>
      <use xlink:href="#DejaVuSans-2e" transform="translate(240.429688 0.78125)"/>
      <use xlink:href="#DejaVuSans-30" transform="translate(272.216797 0.78125)"/>
      <use xlink:href="#DejaVuSans-32" transform="translate(335.839844 0.78125)"/>
      <use xlink:href="#DejaVuSans-2f" transform="translate(399.462891 0.78125)"/>
      <use xlink:href="#DejaVuSans-Oblique-3c7" transform="translate(433.154297 0.78125)"/>
      <use xlink:href="#DejaVuSans-3d" transform="translate(511.816406 0.78125)"/>
      <use xlink:href="#DejaVuSans-34" transform="translate(615.087891 0.78125)"/>
     </g>
    </g>
    <g id="line2d_38">
     <path d="M 656.02625 201.968281 
L 668.02625 201.968281 
" style="fill: none; stroke: #752181; stroke-width: 4; stroke-linecap: square"/>
    </g>
    <g id="text_26">
     <!-- $\epsilon=0.02 / \chi=5$ -->
     <g transform="translate(680.02625 205.468281) scale(0.1 -0.1)">
      <use xlink:href="#DejaVuSans-Oblique-3b5" transform="translate(0 0.78125)"/>
      <use xlink:href="#DejaVuSans-3d" transform="translate(73.535156 0.78125)"/>
      <use xlink:href="#DejaVuSans-30" transform="translate(176.806641 0.78125)"/>
      <use xlink:href="#DejaVuSans-2e" transform="translate(240.429688 0.78125)"/>
      <use xlink:href="#DejaVuSans-30" transform="translate(272.216797 0.78125)"/>
      <use xlink:href="#DejaVuSans-32" transform="translate(335.839844 0.78125)"/>
      <use xlink:href="#DejaVuSans-2f" transform="translate(399.462891 0.78125)"/>
      <use xlink:href="#DejaVuSans-Oblique-3c7" transform="translate(433.154297 0.78125)"/>
      <use xlink:href="#DejaVuSans-3d" transform="translate(511.816406 0.78125)"/>
      <use xlink:href="#DejaVuSans-35" transform="translate(615.087891 0.78125)"/>
     </g>
    </g>
    <g id="line2d_39">
     <path d="M 656.02625 216.666719 
L 668.02625 216.666719 
" style="fill: none; stroke: #802582; stroke-width: 4; stroke-linecap: square"/>
    </g>
    <g id="text_27">
     <!-- $\epsilon=0.02 / \chi=6$ -->
     <g transform="translate(680.02625 220.166719) scale(0.1 -0.1)">
      <use xlink:href="#DejaVuSans-Oblique-3b5" transform="translate(0 0.78125)"/>
      <use xlink:href="#DejaVuSans-3d" transform="translate(73.535156 0.78125)"/>
      <use xlink:href="#DejaVuSans-30" transform="translate(176.806641 0.78125)"/>
      <use xlink:href="#DejaVuSans-2e" transform="translate(240.429688 0.78125)"/>
      <use xlink:href="#DejaVuSans-30" transform="translate(272.216797 0.78125)"/>
      <use xlink:href="#DejaVuSans-32" transform="translate(335.839844 0.78125)"/>
      <use xlink:href="#DejaVuSans-2f" transform="translate(399.462891 0.78125)"/>
      <use xlink:href="#DejaVuSans-Oblique-3c7" transform="translate(433.154297 0.78125)"/>
      <use xlink:href="#DejaVuSans-3d" transform="translate(511.816406 0.78125)"/>
      <use xlink:href="#DejaVuSans-36" transform="translate(615.087891 0.78125)"/>
     </g>
    </g>
    <g id="line2d_40">
     <path d="M 656.02625 231.365156 
L 668.02625 231.365156 
" style="fill: none; stroke: #8b2981; stroke-width: 4; stroke-linecap: square"/>
    </g>
    <g id="text_28">
     <!-- $\epsilon=0.02 / \chi=7$ -->
     <g transform="translate(680.02625 234.865156) scale(0.1 -0.1)">
      <use xlink:href="#DejaVuSans-Oblique-3b5" transform="translate(0 0.78125)"/>
      <use xlink:href="#DejaVuSans-3d" transform="translate(73.535156 0.78125)"/>
      <use xlink:href="#DejaVuSans-30" transform="translate(176.806641 0.78125)"/>
      <use xlink:href="#DejaVuSans-2e" transform="translate(240.429688 0.78125)"/>
      <use xlink:href="#DejaVuSans-30" transform="translate(272.216797 0.78125)"/>
      <use xlink:href="#DejaVuSans-32" transform="translate(335.839844 0.78125)"/>
      <use xlink:href="#DejaVuSans-2f" transform="translate(399.462891 0.78125)"/>
      <use xlink:href="#DejaVuSans-Oblique-3c7" transform="translate(433.154297 0.78125)"/>
      <use xlink:href="#DejaVuSans-3d" transform="translate(511.816406 0.78125)"/>
      <use xlink:href="#DejaVuSans-37" transform="translate(615.087891 0.78125)"/>
     </g>
    </g>
    <g id="line2d_41">
     <path d="M 656.02625 246.063594 
L 668.02625 246.063594 
" style="fill: none; stroke: #982d80; stroke-width: 4; stroke-linecap: square"/>
    </g>
    <g id="text_29">
     <!-- $\epsilon=0.04 / \chi=3$ -->
     <g transform="translate(680.02625 249.563594) scale(0.1 -0.1)">
      <use xlink:href="#DejaVuSans-Oblique-3b5" transform="translate(0 0.78125)"/>
      <use xlink:href="#DejaVuSans-3d" transform="translate(73.535156 0.78125)"/>
      <use xlink:href="#DejaVuSans-30" transform="translate(176.806641 0.78125)"/>
      <use xlink:href="#DejaVuSans-2e" transform="translate(240.429688 0.78125)"/>
      <use xlink:href="#DejaVuSans-30" transform="translate(272.216797 0.78125)"/>
      <use xlink:href="#DejaVuSans-34" transform="translate(335.839844 0.78125)"/>
      <use xlink:href="#DejaVuSans-2f" transform="translate(399.462891 0.78125)"/>
      <use xlink:href="#DejaVuSans-Oblique-3c7" transform="translate(433.154297 0.78125)"/>
      <use xlink:href="#DejaVuSans-3d" transform="translate(511.816406 0.78125)"/>
      <use xlink:href="#DejaVuSans-33" transform="translate(615.087891 0.78125)"/>
     </g>
    </g>
    <g id="line2d_42">
     <path d="M 656.02625 260.762031 
L 668.02625 260.762031 
" style="fill: none; stroke: #a3307e; stroke-width: 4; stroke-linecap: square"/>
    </g>
    <g id="text_30">
     <!-- $\epsilon=0.04 / \chi=4$ -->
     <g transform="translate(680.02625 264.262031) scale(0.1 -0.1)">
      <use xlink:href="#DejaVuSans-Oblique-3b5" transform="translate(0 0.78125)"/>
      <use xlink:href="#DejaVuSans-3d" transform="translate(73.535156 0.78125)"/>
      <use xlink:href="#DejaVuSans-30" transform="translate(176.806641 0.78125)"/>
      <use xlink:href="#DejaVuSans-2e" transform="translate(240.429688 0.78125)"/>
      <use xlink:href="#DejaVuSans-30" transform="translate(272.216797 0.78125)"/>
      <use xlink:href="#DejaVuSans-34" transform="translate(335.839844 0.78125)"/>
      <use xlink:href="#DejaVuSans-2f" transform="translate(399.462891 0.78125)"/>
      <use xlink:href="#DejaVuSans-Oblique-3c7" transform="translate(433.154297 0.78125)"/>
      <use xlink:href="#DejaVuSans-3d" transform="translate(511.816406 0.78125)"/>
      <use xlink:href="#DejaVuSans-34" transform="translate(615.087891 0.78125)"/>
     </g>
    </g>
    <g id="line2d_43">
     <path d="M 656.02625 275.460469 
L 668.02625 275.460469 
" style="fill: none; stroke: #ae347b; stroke-width: 4; stroke-linecap: square"/>
    </g>
    <g id="text_31">
     <!-- $\epsilon=0.04 / \chi=5$ -->
     <g transform="translate(680.02625 278.960469) scale(0.1 -0.1)">
      <use xlink:href="#DejaVuSans-Oblique-3b5" transform="translate(0 0.78125)"/>
      <use xlink:href="#DejaVuSans-3d" transform="translate(73.535156 0.78125)"/>
      <use xlink:href="#DejaVuSans-30" transform="translate(176.806641 0.78125)"/>
      <use xlink:href="#DejaVuSans-2e" transform="translate(240.429688 0.78125)"/>
      <use xlink:href="#DejaVuSans-30" transform="translate(272.216797 0.78125)"/>
      <use xlink:href="#DejaVuSans-34" transform="translate(335.839844 0.78125)"/>
      <use xlink:href="#DejaVuSans-2f" transform="translate(399.462891 0.78125)"/>
      <use xlink:href="#DejaVuSans-Oblique-3c7" transform="translate(433.154297 0.78125)"/>
      <use xlink:href="#DejaVuSans-3d" transform="translate(511.816406 0.78125)"/>
      <use xlink:href="#DejaVuSans-35" transform="translate(615.087891 0.78125)"/>
     </g>
    </g>
    <g id="line2d_44">
     <path d="M 656.02625 290.158906 
L 668.02625 290.158906 
" style="fill: none; stroke: #ba3878; stroke-width: 4; stroke-linecap: square"/>
    </g>
    <g id="text_32">
     <!-- $\epsilon=0.04 / \chi=6$ -->
     <g transform="translate(680.02625 293.658906) scale(0.1 -0.1)">
      <use xlink:href="#DejaVuSans-Oblique-3b5" transform="translate(0 0.78125)"/>
      <use xlink:href="#DejaVuSans-3d" transform="translate(73.535156 0.78125)"/>
      <use xlink:href="#DejaVuSans-30" transform="translate(176.806641 0.78125)"/>
      <use xlink:href="#DejaVuSans-2e" transform="translate(240.429688 0.78125)"/>
      <use xlink:href="#DejaVuSans-30" transform="translate(272.216797 0.78125)"/>
      <use xlink:href="#DejaVuSans-34" transform="translate(335.839844 0.78125)"/>
      <use xlink:href="#DejaVuSans-2f" transform="translate(399.462891 0.78125)"/>
      <use xlink:href="#DejaVuSans-Oblique-3c7" transform="translate(433.154297 0.78125)"/>
      <use xlink:href="#DejaVuSans-3d" transform="translate(511.816406 0.78125)"/>
      <use xlink:href="#DejaVuSans-36" transform="translate(615.087891 0.78125)"/>
     </g>
    </g>
    <g id="line2d_45">
     <path d="M 656.02625 304.857344 
L 668.02625 304.857344 
" style="fill: none; stroke: #c53c74; stroke-width: 4; stroke-linecap: square"/>
    </g>
    <g id="text_33">
     <!-- $\epsilon=0.04 / \chi=7$ -->
     <g transform="translate(680.02625 308.357344) scale(0.1 -0.1)">
      <use xlink:href="#DejaVuSans-Oblique-3b5" transform="translate(0 0.78125)"/>
      <use xlink:href="#DejaVuSans-3d" transform="translate(73.535156 0.78125)"/>
      <use xlink:href="#DejaVuSans-30" transform="translate(176.806641 0.78125)"/>
      <use xlink:href="#DejaVuSans-2e" transform="translate(240.429688 0.78125)"/>
      <use xlink:href="#DejaVuSans-30" transform="translate(272.216797 0.78125)"/>
      <use xlink:href="#DejaVuSans-34" transform="translate(335.839844 0.78125)"/>
      <use xlink:href="#DejaVuSans-2f" transform="translate(399.462891 0.78125)"/>
      <use xlink:href="#DejaVuSans-Oblique-3c7" transform="translate(433.154297 0.78125)"/>
      <use xlink:href="#DejaVuSans-3d" transform="translate(511.816406 0.78125)"/>
      <use xlink:href="#DejaVuSans-37" transform="translate(615.087891 0.78125)"/>
     </g>
    </g>
    <g id="line2d_46">
     <path d="M 771.92625 99.079219 
L 783.92625 99.079219 
" style="fill: none; stroke: #d0416f; stroke-width: 4; stroke-linecap: square"/>
    </g>
    <g id="text_34">
     <!-- $\epsilon=0.06 / \chi=3$ -->
     <g transform="translate(795.92625 102.579219) scale(0.1 -0.1)">
      <use xlink:href="#DejaVuSans-Oblique-3b5" transform="translate(0 0.78125)"/>
      <use xlink:href="#DejaVuSans-3d" transform="translate(73.535156 0.78125)"/>
      <use xlink:href="#DejaVuSans-30" transform="translate(176.806641 0.78125)"/>
      <use xlink:href="#DejaVuSans-2e" transform="translate(240.429688 0.78125)"/>
      <use xlink:href="#DejaVuSans-30" transform="translate(272.216797 0.78125)"/>
      <use xlink:href="#DejaVuSans-36" transform="translate(335.839844 0.78125)"/>
      <use xlink:href="#DejaVuSans-2f" transform="translate(399.462891 0.78125)"/>
      <use xlink:href="#DejaVuSans-Oblique-3c7" transform="translate(433.154297 0.78125)"/>
      <use xlink:href="#DejaVuSans-3d" transform="translate(511.816406 0.78125)"/>
      <use xlink:href="#DejaVuSans-33" transform="translate(615.087891 0.78125)"/>
     </g>
    </g>
    <g id="line2d_47">
     <path d="M 771.92625 113.777656 
L 783.92625 113.777656 
" style="fill: none; stroke: #db476a; stroke-width: 4; stroke-linecap: square"/>
    </g>
    <g id="text_35">
     <!-- $\epsilon=0.06 / \chi=4$ -->
     <g transform="translate(795.92625 117.277656) scale(0.1 -0.1)">
      <use xlink:href="#DejaVuSans-Oblique-3b5" transform="translate(0 0.78125)"/>
      <use xlink:href="#DejaVuSans-3d" transform="translate(73.535156 0.78125)"/>
      <use xlink:href="#DejaVuSans-30" transform="translate(176.806641 0.78125)"/>
      <use xlink:href="#DejaVuSans-2e" transform="translate(240.429688 0.78125)"/>
      <use xlink:href="#DejaVuSans-30" transform="translate(272.216797 0.78125)"/>
      <use xlink:href="#DejaVuSans-36" transform="translate(335.839844 0.78125)"/>
      <use xlink:href="#DejaVuSans-2f" transform="translate(399.462891 0.78125)"/>
      <use xlink:href="#DejaVuSans-Oblique-3c7" transform="translate(433.154297 0.78125)"/>
      <use xlink:href="#DejaVuSans-3d" transform="translate(511.816406 0.78125)"/>
      <use xlink:href="#DejaVuSans-34" transform="translate(615.087891 0.78125)"/>
     </g>
    </g>
    <g id="line2d_48">
     <path d="M 771.92625 128.476094 
L 783.92625 128.476094 
" style="fill: none; stroke: #e44f64; stroke-width: 4; stroke-linecap: square"/>
    </g>
    <g id="text_36">
     <!-- $\epsilon=0.06 / \chi=5$ -->
     <g transform="translate(795.92625 131.976094) scale(0.1 -0.1)">
      <use xlink:href="#DejaVuSans-Oblique-3b5" transform="translate(0 0.78125)"/>
      <use xlink:href="#DejaVuSans-3d" transform="translate(73.535156 0.78125)"/>
      <use xlink:href="#DejaVuSans-30" transform="translate(176.806641 0.78125)"/>
      <use xlink:href="#DejaVuSans-2e" transform="translate(240.429688 0.78125)"/>
      <use xlink:href="#DejaVuSans-30" transform="translate(272.216797 0.78125)"/>
      <use xlink:href="#DejaVuSans-36" transform="translate(335.839844 0.78125)"/>
      <use xlink:href="#DejaVuSans-2f" transform="translate(399.462891 0.78125)"/>
      <use xlink:href="#DejaVuSans-Oblique-3c7" transform="translate(433.154297 0.78125)"/>
      <use xlink:href="#DejaVuSans-3d" transform="translate(511.816406 0.78125)"/>
      <use xlink:href="#DejaVuSans-35" transform="translate(615.087891 0.78125)"/>
     </g>
    </g>
    <g id="line2d_49">
     <path d="M 771.92625 143.174531 
L 783.92625 143.174531 
" style="fill: none; stroke: #ec5860; stroke-width: 4; stroke-linecap: square"/>
    </g>
    <g id="text_37">
     <!-- $\epsilon=0.06 / \chi=6$ -->
     <g transform="translate(795.92625 146.674531) scale(0.1 -0.1)">
      <use xlink:href="#DejaVuSans-Oblique-3b5" transform="translate(0 0.78125)"/>
      <use xlink:href="#DejaVuSans-3d" transform="translate(73.535156 0.78125)"/>
      <use xlink:href="#DejaVuSans-30" transform="translate(176.806641 0.78125)"/>
      <use xlink:href="#DejaVuSans-2e" transform="translate(240.429688 0.78125)"/>
      <use xlink:href="#DejaVuSans-30" transform="translate(272.216797 0.78125)"/>
      <use xlink:href="#DejaVuSans-36" transform="translate(335.839844 0.78125)"/>
      <use xlink:href="#DejaVuSans-2f" transform="translate(399.462891 0.78125)"/>
      <use xlink:href="#DejaVuSans-Oblique-3c7" transform="translate(433.154297 0.78125)"/>
      <use xlink:href="#DejaVuSans-3d" transform="translate(511.816406 0.78125)"/>
      <use xlink:href="#DejaVuSans-36" transform="translate(615.087891 0.78125)"/>
     </g>
    </g>
    <g id="line2d_50">
     <path d="M 771.92625 157.872969 
L 783.92625 157.872969 
" style="fill: none; stroke: #f2645c; stroke-width: 4; stroke-linecap: square"/>
    </g>
    <g id="text_38">
     <!-- $\epsilon=0.06 / \chi=7$ -->
     <g transform="translate(795.92625 161.372969) scale(0.1 -0.1)">
      <use xlink:href="#DejaVuSans-Oblique-3b5" transform="translate(0 0.78125)"/>
      <use xlink:href="#DejaVuSans-3d" transform="translate(73.535156 0.78125)"/>
      <use xlink:href="#DejaVuSans-30" transform="translate(176.806641 0.78125)"/>
      <use xlink:href="#DejaVuSans-2e" transform="translate(240.429688 0.78125)"/>
      <use xlink:href="#DejaVuSans-30" transform="translate(272.216797 0.78125)"/>
      <use xlink:href="#DejaVuSans-36" transform="translate(335.839844 0.78125)"/>
      <use xlink:href="#DejaVuSans-2f" transform="translate(399.462891 0.78125)"/>
      <use xlink:href="#DejaVuSans-Oblique-3c7" transform="translate(433.154297 0.78125)"/>
      <use xlink:href="#DejaVuSans-3d" transform="translate(511.816406 0.78125)"/>
      <use xlink:href="#DejaVuSans-37" transform="translate(615.087891 0.78125)"/>
     </g>
    </g>
    <g id="line2d_51">
     <path d="M 771.92625 172.571406 
L 783.92625 172.571406 
" style="fill: none; stroke: #f7705c; stroke-width: 4; stroke-linecap: square"/>
    </g>
    <g id="text_39">
     <!-- $\epsilon=0.08 / \chi=3$ -->
     <g transform="translate(795.92625 176.071406) scale(0.1 -0.1)">
      <use xlink:href="#DejaVuSans-Oblique-3b5" transform="translate(0 0.78125)"/>
      <use xlink:href="#DejaVuSans-3d" transform="translate(73.535156 0.78125)"/>
      <use xlink:href="#DejaVuSans-30" transform="translate(176.806641 0.78125)"/>
      <use xlink:href="#DejaVuSans-2e" transform="translate(240.429688 0.78125)"/>
      <use xlink:href="#DejaVuSans-30" transform="translate(272.216797 0.78125)"/>
      <use xlink:href="#DejaVuSans-38" transform="translate(335.839844 0.78125)"/>
      <use xlink:href="#DejaVuSans-2f" transform="translate(399.462891 0.78125)"/>
      <use xlink:href="#DejaVuSans-Oblique-3c7" transform="translate(433.154297 0.78125)"/>
      <use xlink:href="#DejaVuSans-3d" transform="translate(511.816406 0.78125)"/>
      <use xlink:href="#DejaVuSans-33" transform="translate(615.087891 0.78125)"/>
     </g>
    </g>
    <g id="line2d_52">
     <path d="M 771.92625 187.269844 
L 783.92625 187.269844 
" style="fill: none; stroke: #fa7d5e; stroke-width: 4; stroke-linecap: square"/>
    </g>
    <g id="text_40">
     <!-- $\epsilon=0.08 / \chi=4$ -->
     <g transform="translate(795.92625 190.769844) scale(0.1 -0.1)">
      <use xlink:href="#DejaVuSans-Oblique-3b5" transform="translate(0 0.78125)"/>
      <use xlink:href="#DejaVuSans-3d" transform="translate(73.535156 0.78125)"/>
      <use xlink:href="#DejaVuSans-30" transform="translate(176.806641 0.78125)"/>
      <use xlink:href="#DejaVuSans-2e" transform="translate(240.429688 0.78125)"/>
      <use xlink:href="#DejaVuSans-30" transform="translate(272.216797 0.78125)"/>
      <use xlink:href="#DejaVuSans-38" transform="translate(335.839844 0.78125)"/>
      <use xlink:href="#DejaVuSans-2f" transform="translate(399.462891 0.78125)"/>
      <use xlink:href="#DejaVuSans-Oblique-3c7" transform="translate(433.154297 0.78125)"/>
      <use xlink:href="#DejaVuSans-3d" transform="translate(511.816406 0.78125)"/>
      <use xlink:href="#DejaVuSans-34" transform="translate(615.087891 0.78125)"/>
     </g>
    </g>
    <g id="line2d_53">
     <path d="M 771.92625 201.968281 
L 783.92625 201.968281 
" style="fill: none; stroke: #fc8a62; stroke-width: 4; stroke-linecap: square"/>
    </g>
    <g id="text_41">
     <!-- $\epsilon=0.08 / \chi=5$ -->
     <g transform="translate(795.92625 205.468281) scale(0.1 -0.1)">
      <use xlink:href="#DejaVuSans-Oblique-3b5" transform="translate(0 0.78125)"/>
      <use xlink:href="#DejaVuSans-3d" transform="translate(73.535156 0.78125)"/>
      <use xlink:href="#DejaVuSans-30" transform="translate(176.806641 0.78125)"/>
      <use xlink:href="#DejaVuSans-2e" transform="translate(240.429688 0.78125)"/>
      <use xlink:href="#DejaVuSans-30" transform="translate(272.216797 0.78125)"/>
      <use xlink:href="#DejaVuSans-38" transform="translate(335.839844 0.78125)"/>
      <use xlink:href="#DejaVuSans-2f" transform="translate(399.462891 0.78125)"/>
      <use xlink:href="#DejaVuSans-Oblique-3c7" transform="translate(433.154297 0.78125)"/>
      <use xlink:href="#DejaVuSans-3d" transform="translate(511.816406 0.78125)"/>
      <use xlink:href="#DejaVuSans-35" transform="translate(615.087891 0.78125)"/>
     </g>
    </g>
    <g id="line2d_54">
     <path d="M 771.92625 216.666719 
L 783.92625 216.666719 
" style="fill: none; stroke: #fd9869; stroke-width: 4; stroke-linecap: square"/>
    </g>
    <g id="text_42">
     <!-- $\epsilon=0.08 / \chi=6$ -->
     <g transform="translate(795.92625 220.166719) scale(0.1 -0.1)">
      <use xlink:href="#DejaVuSans-Oblique-3b5" transform="translate(0 0.78125)"/>
      <use xlink:href="#DejaVuSans-3d" transform="translate(73.535156 0.78125)"/>
      <use xlink:href="#DejaVuSans-30" transform="translate(176.806641 0.78125)"/>
      <use xlink:href="#DejaVuSans-2e" transform="translate(240.429688 0.78125)"/>
      <use xlink:href="#DejaVuSans-30" transform="translate(272.216797 0.78125)"/>
      <use xlink:href="#DejaVuSans-38" transform="translate(335.839844 0.78125)"/>
      <use xlink:href="#DejaVuSans-2f" transform="translate(399.462891 0.78125)"/>
      <use xlink:href="#DejaVuSans-Oblique-3c7" transform="translate(433.154297 0.78125)"/>
      <use xlink:href="#DejaVuSans-3d" transform="translate(511.816406 0.78125)"/>
      <use xlink:href="#DejaVuSans-36" transform="translate(615.087891 0.78125)"/>
     </g>
    </g>
    <g id="line2d_55">
     <path d="M 771.92625 231.365156 
L 783.92625 231.365156 
" style="fill: none; stroke: #fea571; stroke-width: 4; stroke-linecap: square"/>
    </g>
    <g id="text_43">
     <!-- $\epsilon=0.08 / \chi=7$ -->
     <g transform="translate(795.92625 234.865156) scale(0.1 -0.1)">
      <use xlink:href="#DejaVuSans-Oblique-3b5" transform="translate(0 0.78125)"/>
      <use xlink:href="#DejaVuSans-3d" transform="translate(73.535156 0.78125)"/>
      <use xlink:href="#DejaVuSans-30" transform="translate(176.806641 0.78125)"/>
      <use xlink:href="#DejaVuSans-2e" transform="translate(240.429688 0.78125)"/>
      <use xlink:href="#DejaVuSans-30" transform="translate(272.216797 0.78125)"/>
      <use xlink:href="#DejaVuSans-38" transform="translate(335.839844 0.78125)"/>
      <use xlink:href="#DejaVuSans-2f" transform="translate(399.462891 0.78125)"/>
      <use xlink:href="#DejaVuSans-Oblique-3c7" transform="translate(433.154297 0.78125)"/>
      <use xlink:href="#DejaVuSans-3d" transform="translate(511.816406 0.78125)"/>
      <use xlink:href="#DejaVuSans-37" transform="translate(615.087891 0.78125)"/>
     </g>
    </g>
    <g id="line2d_56">
     <path d="M 771.92625 246.063594 
L 783.92625 246.063594 
" style="fill: none; stroke: #feb27a; stroke-width: 4; stroke-linecap: square"/>
    </g>
    <g id="text_44">
     <!-- $\epsilon=0.1 / \chi=3$ -->
     <g transform="translate(795.92625 249.563594) scale(0.1 -0.1)">
      <use xlink:href="#DejaVuSans-Oblique-3b5" transform="translate(0 0.78125)"/>
      <use xlink:href="#DejaVuSans-3d" transform="translate(73.535156 0.78125)"/>
      <use xlink:href="#DejaVuSans-30" transform="translate(176.806641 0.78125)"/>
      <use xlink:href="#DejaVuSans-2e" transform="translate(240.429688 0.78125)"/>
      <use xlink:href="#DejaVuSans-31" transform="translate(272.216797 0.78125)"/>
      <use xlink:href="#DejaVuSans-2f" transform="translate(335.839844 0.78125)"/>
      <use xlink:href="#DejaVuSans-Oblique-3c7" transform="translate(369.53125 0.78125)"/>
      <use xlink:href="#DejaVuSans-3d" transform="translate(448.193359 0.78125)"/>
      <use xlink:href="#DejaVuSans-33" transform="translate(551.464844 0.78125)"/>
     </g>
    </g>
    <g id="line2d_57">
     <path d="M 771.92625 260.762031 
L 783.92625 260.762031 
" style="fill: none; stroke: #fec185; stroke-width: 4; stroke-linecap: square"/>
    </g>
    <g id="text_45">
     <!-- $\epsilon=0.1 / \chi=4$ -->
     <g transform="translate(795.92625 264.262031) scale(0.1 -0.1)">
      <use xlink:href="#DejaVuSans-Oblique-3b5" transform="translate(0 0.78125)"/>
      <use xlink:href="#DejaVuSans-3d" transform="translate(73.535156 0.78125)"/>
      <use xlink:href="#DejaVuSans-30" transform="translate(176.806641 0.78125)"/>
      <use xlink:href="#DejaVuSans-2e" transform="translate(240.429688 0.78125)"/>
      <use xlink:href="#DejaVuSans-31" transform="translate(272.216797 0.78125)"/>
      <use xlink:href="#DejaVuSans-2f" transform="translate(335.839844 0.78125)"/>
      <use xlink:href="#DejaVuSans-Oblique-3c7" transform="translate(369.53125 0.78125)"/>
      <use xlink:href="#DejaVuSans-3d" transform="translate(448.193359 0.78125)"/>
      <use xlink:href="#DejaVuSans-34" transform="translate(551.464844 0.78125)"/>
     </g>
    </g>
    <g id="line2d_58">
     <path d="M 771.92625 275.460469 
L 783.92625 275.460469 
" style="fill: none; stroke: #fecd90; stroke-width: 4; stroke-linecap: square"/>
    </g>
    <g id="text_46">
     <!-- $\epsilon=0.1 / \chi=5$ -->
     <g transform="translate(795.92625 278.960469) scale(0.1 -0.1)">
      <use xlink:href="#DejaVuSans-Oblique-3b5" transform="translate(0 0.78125)"/>
      <use xlink:href="#DejaVuSans-3d" transform="translate(73.535156 0.78125)"/>
      <use xlink:href="#DejaVuSans-30" transform="translate(176.806641 0.78125)"/>
      <use xlink:href="#DejaVuSans-2e" transform="translate(240.429688 0.78125)"/>
      <use xlink:href="#DejaVuSans-31" transform="translate(272.216797 0.78125)"/>
      <use xlink:href="#DejaVuSans-2f" transform="translate(335.839844 0.78125)"/>
      <use xlink:href="#DejaVuSans-Oblique-3c7" transform="translate(369.53125 0.78125)"/>
      <use xlink:href="#DejaVuSans-3d" transform="translate(448.193359 0.78125)"/>
      <use xlink:href="#DejaVuSans-35" transform="translate(551.464844 0.78125)"/>
     </g>
    </g>
    <g id="line2d_59">
     <path d="M 771.92625 290.158906 
L 783.92625 290.158906 
" style="fill: none; stroke: #fdda9c; stroke-width: 4; stroke-linecap: square"/>
    </g>
    <g id="text_47">
     <!-- $\epsilon=0.1 / \chi=6$ -->
     <g transform="translate(795.92625 293.658906) scale(0.1 -0.1)">
      <use xlink:href="#DejaVuSans-Oblique-3b5" transform="translate(0 0.78125)"/>
      <use xlink:href="#DejaVuSans-3d" transform="translate(73.535156 0.78125)"/>
      <use xlink:href="#DejaVuSans-30" transform="translate(176.806641 0.78125)"/>
      <use xlink:href="#DejaVuSans-2e" transform="translate(240.429688 0.78125)"/>
      <use xlink:href="#DejaVuSans-31" transform="translate(272.216797 0.78125)"/>
      <use xlink:href="#DejaVuSans-2f" transform="translate(335.839844 0.78125)"/>
      <use xlink:href="#DejaVuSans-Oblique-3c7" transform="translate(369.53125 0.78125)"/>
      <use xlink:href="#DejaVuSans-3d" transform="translate(448.193359 0.78125)"/>
      <use xlink:href="#DejaVuSans-36" transform="translate(551.464844 0.78125)"/>
     </g>
    </g>
    <g id="line2d_60">
     <path d="M 771.92625 304.857344 
L 783.92625 304.857344 
" style="fill: none; stroke: #fde7a9; stroke-width: 4; stroke-linecap: square"/>
    </g>
    <g id="text_48">
     <!-- $\epsilon=0.1 / \chi=7$ -->
     <g transform="translate(795.92625 308.357344) scale(0.1 -0.1)">
      <use xlink:href="#DejaVuSans-Oblique-3b5" transform="translate(0 0.78125)"/>
      <use xlink:href="#DejaVuSans-3d" transform="translate(73.535156 0.78125)"/>
      <use xlink:href="#DejaVuSans-30" transform="translate(176.806641 0.78125)"/>
      <use xlink:href="#DejaVuSans-2e" transform="translate(240.429688 0.78125)"/>
      <use xlink:href="#DejaVuSans-31" transform="translate(272.216797 0.78125)"/>
      <use xlink:href="#DejaVuSans-2f" transform="translate(335.839844 0.78125)"/>
      <use xlink:href="#DejaVuSans-Oblique-3c7" transform="translate(369.53125 0.78125)"/>
      <use xlink:href="#DejaVuSans-3d" transform="translate(448.193359 0.78125)"/>
      <use xlink:href="#DejaVuSans-37" transform="translate(551.464844 0.78125)"/>
     </g>
    </g>
   </g>
  </g>
 </g>
 <defs>
  <clipPath id="p593df34301">
   <rect x="36.17625" y="7.2" width="606.85" height="376.36"/>
  </clipPath>
 </defs>
</svg>
